<svg xmlns="http://www.w3.org/2000/svg" width="113.18" height="113.18" viewBox="0 0 113.18 113.18"><g id="Layer_2" data-name="Layer 2"><g id="items"><g id="Arrow"><rect x="108.46" y="14.15" width="4.72" height="4.72" fill="#1b0003"/><rect x="108.46" y="9.43" width="4.72" height="4.72" fill="#1b0003"/><rect x="108.46" y="4.72" width="4.72" height="4.72" fill="#1b0003"/><rect x="108.46" width="4.72" height="4.72" fill="#1b0003"/><rect x="103.75" y="18.86" width="4.72" height="4.72" fill="#1b0003"/><rect x="103.75" y="14.15" width="4.72" height="4.72" fill="#6a87af"/><rect x="103.75" y="9.43" width="4.72" height="4.72" fill="#6a87af"/><rect x="103.75" y="4.72" width="4.72" height="4.72" fill="#bedbed"/><rect x="103.75" width="4.72" height="4.72" fill="#1b0003"/><rect x="99.03" y="14.15" width="4.72" height="4.72" fill="#1b0003"/><rect x="99.03" y="9.43" width="4.72" height="4.72" fill="#85a1c9"/><rect x="99.03" y="4.72" width="4.72" height="4.72" fill="#bedbed"/><rect x="99.03" width="4.72" height="4.72" fill="#1b0003"/><rect x="94.32" y="18.86" width="4.72" height="4.72" fill="#1b0003"/><rect x="94.32" y="14.15" width="4.72" height="4.72" fill="#e86f3f"/><rect x="94.32" y="9.43" width="4.72" height="4.72" fill="#1b0003"/><rect x="94.32" y="4.72" width="4.72" height="4.72" fill="#bedbed"/><rect x="94.32" width="4.72" height="4.72" fill="#1b0003"/><rect x="89.6" y="23.58" width="4.72" height="4.72" fill="#1b0003"/><rect x="89.6" y="18.86" width="4.72" height="4.72" fill="#e86f3f"/><rect x="89.6" y="14.15" width="4.72" height="4.72" fill="#1b0003"/><rect x="89.6" y="4.72" width="4.72" height="4.72" fill="#1b0003"/><rect x="84.89" y="28.3" width="4.72" height="4.72" fill="#1b0003"/><rect x="84.89" y="23.58" width="4.72" height="4.72" fill="#e86f3f"/><rect x="84.89" y="18.86" width="4.72" height="4.72" fill="#1b0003"/><rect x="80.17" y="33.01" width="4.72" height="4.72" fill="#1b0003"/><rect x="80.17" y="28.3" width="4.72" height="4.72" fill="#e86f3f"/><rect x="80.17" y="23.58" width="4.72" height="4.72" fill="#1b0003"/><rect x="75.45" y="37.73" width="4.72" height="4.72" fill="#1b0003"/><rect x="75.45" y="33.01" width="4.72" height="4.72" fill="#ef8741"/><rect x="75.45" y="28.3" width="4.72" height="4.72" fill="#1b0003"/><rect x="70.74" y="42.44" width="4.72" height="4.72" fill="#1b0003"/><rect x="70.74" y="37.73" width="4.72" height="4.72" fill="#ef8741"/><rect x="70.74" y="33.01" width="4.72" height="4.72" fill="#1b0003"/><rect x="66.02" y="47.16" width="4.72" height="4.72" fill="#1b0003"/><rect x="66.02" y="42.44" width="4.72" height="4.72" fill="#fa9c5c"/><rect x="66.02" y="37.73" width="4.72" height="4.72" fill="#1b0003"/><rect x="61.31" y="51.87" width="4.72" height="4.72" fill="#1b0003"/><rect x="61.31" y="47.16" width="4.72" height="4.72" fill="#fa9c5c"/><rect x="61.31" y="42.44" width="4.72" height="4.72" fill="#1b0003"/><rect x="56.59" y="56.59" width="4.72" height="4.72" fill="#1b0003"/><rect x="56.59" y="51.87" width="4.72" height="4.72" fill="#fa9c5c"/><rect x="56.59" y="47.16" width="4.72" height="4.72" fill="#1b0003"/><rect x="51.87" y="61.31" width="4.72" height="4.72" fill="#1b0003"/><rect x="51.87" y="56.59" width="4.72" height="4.72" fill="#fa9c5c"/><rect x="51.87" y="51.87" width="4.72" height="4.72" fill="#1b0003"/><rect x="47.16" y="66.02" width="4.72" height="4.72" fill="#1b0003"/><rect x="47.16" y="61.31" width="4.72" height="4.72" fill="#ef8741"/><rect x="47.16" y="56.59" width="4.72" height="4.72" fill="#1b0003"/><rect x="42.44" y="70.74" width="4.72" height="4.72" fill="#1b0003"/><rect x="42.44" y="66.02" width="4.72" height="4.72" fill="#ef8741"/><rect x="42.44" y="61.31" width="4.72" height="4.72" fill="#1b0003"/><rect x="37.73" y="75.45" width="4.72" height="4.72" fill="#1b0003"/><rect x="37.73" y="70.74" width="4.72" height="4.72" fill="#e86f3f"/><rect x="37.73" y="66.02" width="4.72" height="4.72" fill="#1b0003"/><rect x="33.01" y="80.17" width="4.72" height="4.72" fill="#1b0003"/><rect x="33.01" y="75.45" width="4.72" height="4.72" fill="#e86f3f"/><rect x="33.01" y="70.74" width="4.72" height="4.72" fill="#1b0003"/><rect x="28.3" y="84.89" width="4.72" height="4.72" fill="#1b0003"/><rect x="28.3" y="80.17" width="4.72" height="4.72" fill="#e86f3f"/><rect x="28.3" y="75.45" width="4.72" height="4.72" fill="#1b0003"/><rect x="23.58" y="89.6" width="4.72" height="4.72" fill="#1b0003"/><rect x="23.58" y="84.89" width="4.72" height="4.72" fill="#e86f3f"/><rect x="23.58" y="80.17" width="4.72" height="4.72" fill="#1b0003"/><rect x="18.86" y="99.03" width="4.72" height="4.72" fill="#1b0003"/><rect x="18.86" y="94.32" width="4.72" height="4.72" fill="#1b0003"/><rect x="18.86" y="89.6" width="4.72" height="4.72" fill="#1b0003"/><rect x="18.86" y="84.89" width="4.72" height="4.72" fill="#1b0003"/><rect x="14.15" y="103.75" width="4.72" height="4.72" fill="#1b0003"/><rect x="14.15" y="99.03" width="4.72" height="4.72" fill="#b6294c"/><rect x="14.15" y="94.32" width="4.72" height="4.72" fill="#db1943"/><rect x="14.15" y="89.6" width="4.72" height="4.72" fill="#1b0003"/><rect x="9.43" y="108.47" width="4.72" height="4.72" fill="#1b0003"/><rect x="9.43" y="103.75" width="4.72" height="4.72" fill="#b6294c"/><rect x="9.43" y="99.03" width="4.72" height="4.72" fill="#db1943"/><rect x="9.43" y="94.32" width="4.72" height="4.72" fill="#eb3824"/><rect x="9.43" y="89.6" width="4.72" height="4.72" fill="#1b0003"/><rect x="4.72" y="103.75" width="4.72" height="4.72" fill="#1b0003"/><rect x="4.72" y="99.03" width="4.72" height="4.72" fill="#eb3824"/><rect x="4.72" y="94.32" width="4.72" height="4.72" fill="#1b0003"/><rect y="99.03" width="4.72" height="4.72" fill="#1b0003"/></g></g></g></svg>