<svg xmlns="http://www.w3.org/2000/svg" width="132.19" height="119.39" viewBox="0 0 132.19 119.39"><g id="Layer_2" data-name="Layer 2"><g id="items"><g id="Black_Key" data-name="Black Key"><rect y="93.81" width="4.26" height="4.26" fill="#1b0003"/><rect x="4.26" y="98.07" width="4.26" height="4.26" fill="#1b0003"/><rect x="4.26" y="93.81" width="4.26" height="4.26" fill="#222230"/><rect x="4.26" y="89.55" width="4.26" height="4.26" fill="#1b0003"/><rect x="8.53" y="102.34" width="4.26" height="4.26" fill="#1b0003"/><rect x="8.53" y="98.07" width="4.26" height="4.26" fill="#222230"/><rect x="8.53" y="93.81" width="4.26" height="4.26" fill="#5a5970"/><rect x="8.53" y="89.55" width="4.26" height="4.26" fill="#878796"/><rect x="8.53" y="85.28" width="4.26" height="4.26" fill="#1b0003"/><rect x="12.79" y="106.6" width="4.26" height="4.26" fill="#1b0003"/><rect x="12.79" y="102.34" width="4.26" height="4.26" fill="#222230"/><rect x="12.79" y="98.07" width="4.26" height="4.26" fill="#5a5970"/><rect x="12.79" y="93.81" width="4.26" height="4.26" fill="#878796"/><rect x="12.79" y="89.55" width="4.26" height="4.26" fill="#1b0003"/><rect x="12.79" y="81.02" width="4.26" height="4.26" fill="#1b0003"/><rect x="17.06" y="110.87" width="4.26" height="4.26" fill="#1b0003"/><rect x="17.06" y="106.6" width="4.26" height="4.26" fill="#222230"/><rect x="17.06" y="102.34" width="4.26" height="4.26" fill="#5a5970"/><rect x="17.06" y="98.07" width="4.26" height="4.26" fill="#878796"/><rect x="17.06" y="93.81" width="4.26" height="4.26" fill="#1b0003"/><rect x="17.06" y="85.28" width="4.26" height="4.26" fill="#1b0003"/><rect x="17.06" y="81.02" width="4.26" height="4.26" fill="#222230"/><rect x="17.06" y="76.75" width="4.26" height="4.26" fill="#1b0003"/><rect x="21.32" y="115.13" width="4.26" height="4.26" fill="#1b0003"/><rect x="21.32" y="110.87" width="4.26" height="4.26" fill="#222230"/><rect x="21.32" y="106.6" width="4.26" height="4.26" fill="#222230"/><rect x="21.32" y="102.34" width="4.26" height="4.26" fill="#5a5970"/><rect x="21.32" y="98.07" width="4.26" height="4.26" fill="#1b0003"/><rect x="21.32" y="89.55" width="4.26" height="4.26" fill="#1b0003"/><rect x="21.32" y="85.28" width="4.26" height="4.26" fill="#222230"/><rect x="21.32" y="81.02" width="4.26" height="4.26" fill="#5a5970"/><rect x="21.32" y="76.75" width="4.26" height="4.26" fill="#878796"/><rect x="21.32" y="72.49" width="4.26" height="4.26" fill="#1b0003"/><rect x="25.58" y="110.87" width="4.26" height="4.26" fill="#1b0003"/><rect x="25.58" y="106.6" width="4.26" height="4.26" fill="#222230"/><rect x="25.58" y="102.34" width="4.26" height="4.26" fill="#222230"/><rect x="25.58" y="98.07" width="4.26" height="4.26" fill="#5a5970"/><rect x="25.58" y="93.81" width="4.26" height="4.26" fill="#1b0003"/><rect x="25.58" y="89.55" width="4.26" height="4.26" fill="#222230"/><rect x="25.58" y="85.28" width="4.26" height="4.26" fill="#5a5970"/><rect x="25.58" y="81.02" width="4.26" height="4.26" fill="#878796"/><rect x="25.58" y="76.75" width="4.26" height="4.26" fill="#1b0003"/><rect x="25.58" y="68.23" width="4.26" height="4.26" fill="#1b0003"/><rect x="29.85" y="106.6" width="4.26" height="4.26" fill="#1b0003"/><rect x="29.85" y="102.34" width="4.26" height="4.26" fill="#222230"/><rect x="29.85" y="98.07" width="4.26" height="4.26" fill="#222230"/><rect x="29.85" y="93.81" width="4.26" height="4.26" fill="#222230"/><rect x="29.85" y="89.55" width="4.26" height="4.26" fill="#5a5970"/><rect x="29.85" y="85.28" width="4.26" height="4.26" fill="#878796"/><rect x="29.85" y="81.02" width="4.26" height="4.26" fill="#1b0003"/><rect x="29.85" y="72.49" width="4.26" height="4.26" fill="#1b0003"/><rect x="29.85" y="68.23" width="4.26" height="4.26" fill="#222230"/><rect x="29.85" y="63.96" width="4.26" height="4.26" fill="#1b0003"/><rect x="34.11" y="102.34" width="4.26" height="4.26" fill="#1b0003"/><rect x="34.11" y="98.07" width="4.26" height="4.26" fill="#222230"/><rect x="34.11" y="93.81" width="4.26" height="4.26" fill="#222230"/><rect x="34.11" y="89.55" width="4.26" height="4.26" fill="#5a5970"/><rect x="34.11" y="85.28" width="4.26" height="4.26" fill="#1b0003"/><rect x="34.11" y="76.75" width="4.26" height="4.26" fill="#1b0003"/><rect x="34.11" y="72.49" width="4.26" height="4.26" fill="#222230"/><rect x="34.11" y="68.23" width="4.26" height="4.26" fill="#5a5970"/><rect x="34.11" y="63.96" width="4.26" height="4.26" fill="#878796"/><rect x="34.11" y="59.7" width="4.26" height="4.26" fill="#1b0003"/><rect x="38.38" y="98.07" width="4.26" height="4.26" fill="#1b0003"/><rect x="38.38" y="93.81" width="4.26" height="4.26" fill="#222230"/><rect x="38.38" y="89.55" width="4.26" height="4.26" fill="#222230"/><rect x="38.38" y="85.28" width="4.26" height="4.26" fill="#5a5970"/><rect x="38.38" y="81.02" width="4.26" height="4.26" fill="#1b0003"/><rect x="38.38" y="76.75" width="4.26" height="4.26" fill="#222230"/><rect x="38.38" y="72.49" width="4.26" height="4.26" fill="#5a5970"/><rect x="38.38" y="68.23" width="4.26" height="4.26" fill="#878796"/><rect x="38.38" y="63.96" width="4.26" height="4.26" fill="#1b0003"/><rect x="42.64" y="93.81" width="4.26" height="4.26" fill="#1b0003"/><rect x="42.64" y="89.55" width="4.26" height="4.26" fill="#222230"/><rect x="42.64" y="85.28" width="4.26" height="4.26" fill="#222230"/><rect x="42.64" y="81.02" width="4.26" height="4.26" fill="#222230"/><rect x="42.64" y="76.75" width="4.26" height="4.26" fill="#5a5970"/><rect x="42.64" y="72.49" width="4.26" height="4.26" fill="#878796"/><rect x="42.64" y="68.23" width="4.26" height="4.26" fill="#1b0003"/><rect x="46.9" y="89.55" width="4.26" height="4.26" fill="#1b0003"/><rect x="46.9" y="85.28" width="4.26" height="4.26" fill="#222230"/><rect x="46.9" y="81.02" width="4.26" height="4.26" fill="#222230"/><rect x="46.9" y="76.75" width="4.26" height="4.26" fill="#5a5970"/><rect x="46.9" y="72.49" width="4.26" height="4.26" fill="#1b0003"/><rect x="51.17" y="85.28" width="4.26" height="4.26" fill="#1b0003"/><rect x="51.17" y="81.02" width="4.26" height="4.26" fill="#222230"/><rect x="51.17" y="76.75" width="4.26" height="4.26" fill="#222230"/><rect x="51.17" y="72.49" width="4.26" height="4.26" fill="#5a5970"/><rect x="51.17" y="68.23" width="4.26" height="4.26" fill="#1b0003"/><rect x="55.43" y="81.02" width="4.26" height="4.26" fill="#1b0003"/><rect x="55.43" y="76.75" width="4.26" height="4.26" fill="#222230"/><rect x="55.43" y="72.49" width="4.26" height="4.26" fill="#222230"/><rect x="55.43" y="68.23" width="4.26" height="4.26" fill="#5a5970"/><rect x="55.43" y="63.96" width="4.26" height="4.26" fill="#1b0003"/><rect x="59.7" y="76.75" width="4.26" height="4.26" fill="#1b0003"/><rect x="59.7" y="72.49" width="4.26" height="4.26" fill="#222230"/><rect x="59.7" y="68.23" width="4.26" height="4.26" fill="#222230"/><rect x="59.7" y="63.96" width="4.26" height="4.26" fill="#5a5970"/><rect x="59.7" y="59.7" width="4.26" height="4.26" fill="#1b0003"/><rect x="63.96" y="72.49" width="4.26" height="4.26" fill="#1b0003"/><rect x="63.96" y="68.23" width="4.26" height="4.26" fill="#222230"/><rect x="63.96" y="63.96" width="4.26" height="4.26" fill="#222230"/><rect x="63.96" y="59.7" width="4.26" height="4.26" fill="#878796"/><rect x="63.96" y="55.43" width="4.26" height="4.26" fill="#1b0003"/><rect x="68.23" y="68.23" width="4.26" height="4.26" fill="#1b0003"/><rect x="68.23" y="63.96" width="4.26" height="4.26" fill="#222230"/><rect x="68.23" y="59.7" width="4.26" height="4.26" fill="#222230"/><rect x="68.23" y="55.43" width="4.26" height="4.26" fill="#878796"/><rect x="68.23" y="51.17" width="4.26" height="4.26" fill="#1b0003"/><rect x="68.23" y="38.38" width="4.26" height="4.26" fill="#1b0003"/><rect x="68.23" y="34.11" width="4.26" height="4.26" fill="#1b0003"/><rect x="68.23" y="29.85" width="4.26" height="4.26" fill="#1b0003"/><rect x="68.23" y="25.58" width="4.26" height="4.26" fill="#1b0003"/><rect x="68.23" y="21.32" width="4.26" height="4.26" fill="#1b0003"/><rect x="72.49" y="63.96" width="4.26" height="4.26" fill="#1b0003"/><rect x="72.49" y="59.7" width="4.26" height="4.26" fill="#222230"/><rect x="72.49" y="55.43" width="4.26" height="4.26" fill="#222230"/><rect x="72.49" y="51.17" width="4.26" height="4.26" fill="#878796"/><rect x="72.49" y="46.9" width="4.26" height="4.26" fill="#1b0003"/><rect x="72.49" y="42.64" width="4.26" height="4.26" fill="#1b0003"/><rect x="72.49" y="38.38" width="4.26" height="4.26" fill="#222230"/><rect x="72.49" y="34.11" width="4.26" height="4.26" fill="#222230"/><rect x="72.49" y="29.85" width="4.26" height="4.26" fill="#222230"/><rect x="72.49" y="25.58" width="4.26" height="4.26" fill="#5a5970"/><rect x="72.49" y="21.32" width="4.26" height="4.26" fill="#5a5970"/><rect x="72.49" y="17.06" width="4.26" height="4.26" fill="#1b0003"/><rect x="72.49" y="12.79" width="4.26" height="4.26" fill="#1b0003"/><rect x="76.75" y="59.7" width="4.26" height="4.26" fill="#1b0003"/><rect x="76.75" y="55.43" width="4.26" height="4.26" fill="#222230"/><rect x="76.75" y="51.17" width="4.26" height="4.26" fill="#222230"/><rect x="76.75" y="46.9" width="4.26" height="4.26" fill="#222230"/><rect x="76.75" y="42.64" width="4.26" height="4.26" fill="#5a5970"/><rect x="76.75" y="38.38" width="4.26" height="4.26" fill="#878796"/><rect x="76.75" y="34.11" width="4.26" height="4.26" fill="#878796"/><rect x="76.75" y="29.85" width="4.26" height="4.26" fill="#878796"/><rect x="76.75" y="25.58" width="4.26" height="4.26" fill="#5a5970"/><rect x="76.75" y="21.32" width="4.26" height="4.26" fill="#5a5970"/><rect x="76.75" y="17.06" width="4.26" height="4.26" fill="#222230"/><rect x="76.75" y="12.79" width="4.26" height="4.26" fill="#222230"/><rect x="76.75" y="8.53" width="4.26" height="4.26" fill="#1b0003"/><rect x="81.02" y="55.43" width="4.26" height="4.26" fill="#1b0003"/><rect x="81.02" y="51.17" width="4.26" height="4.26" fill="#222230"/><rect x="81.02" y="46.9" width="4.26" height="4.26" fill="#222230"/><rect x="81.02" y="42.64" width="4.26" height="4.26" fill="#878796"/><rect x="81.02" y="38.38" width="4.26" height="4.26" fill="#1b0003"/><rect x="81.02" y="34.11" width="4.26" height="4.26" fill="#1b0003"/><rect x="81.02" y="29.85" width="4.26" height="4.26" fill="#1b0003"/><rect x="81.02" y="25.58" width="4.26" height="4.26" fill="#1b0003"/><rect x="81.02" y="21.32" width="4.26" height="4.26" fill="#1b0003"/><rect x="81.02" y="17.06" width="4.26" height="4.26" fill="#222230"/><rect x="81.02" y="12.79" width="4.26" height="4.26" fill="#222230"/><rect x="81.02" y="8.53" width="4.26" height="4.26" fill="#222230"/><rect x="81.02" y="4.26" width="4.26" height="4.26" fill="#1b0003"/><rect x="85.28" y="55.43" width="4.26" height="4.26" fill="#1b0003"/><rect x="85.28" y="51.17" width="4.26" height="4.26" fill="#222230"/><rect x="85.28" y="46.9" width="4.26" height="4.26" fill="#878796"/><rect x="85.28" y="42.64" width="4.26" height="4.26" fill="#1b0003"/><rect x="85.28" y="17.06" width="4.26" height="4.26" fill="#1b0003"/><rect x="85.28" y="12.79" width="4.26" height="4.26" fill="#222230"/><rect x="85.28" y="8.53" width="4.26" height="4.26" fill="#222230"/><rect x="85.28" y="4.26" width="4.26" height="4.26" fill="#1b0003"/><rect x="89.55" y="59.7" width="4.26" height="4.26" fill="#1b0003"/><rect x="89.55" y="55.43" width="4.26" height="4.26" fill="#222230"/><rect x="89.55" y="51.17" width="4.26" height="4.26" fill="#878796"/><rect x="89.55" y="46.9" width="4.26" height="4.26" fill="#1b0003"/><rect x="89.55" y="12.79" width="4.26" height="4.26" fill="#1b0003"/><rect x="89.55" y="8.53" width="4.26" height="4.26" fill="#222230"/><rect x="89.55" y="4.26" width="4.26" height="4.26" fill="#878796"/><rect x="89.55" width="4.26" height="4.26" fill="#1b0003"/><rect x="93.81" y="59.7" width="4.26" height="4.26" fill="#1b0003"/><rect x="93.81" y="55.43" width="4.26" height="4.26" fill="#222230"/><rect x="93.81" y="51.17" width="4.26" height="4.26" fill="#878796"/><rect x="93.81" y="46.9" width="4.26" height="4.26" fill="#1b0003"/><rect x="93.81" y="12.79" width="4.26" height="4.26" fill="#1b0003"/><rect x="93.81" y="8.53" width="4.26" height="4.26" fill="#222230"/><rect x="93.81" y="4.26" width="4.26" height="4.26" fill="#878796"/><rect x="93.81" width="4.26" height="4.26" fill="#1b0003"/><rect x="98.07" y="59.7" width="4.26" height="4.26" fill="#1b0003"/><rect x="98.07" y="55.43" width="4.26" height="4.26" fill="#222230"/><rect x="98.07" y="51.17" width="4.26" height="4.26" fill="#878796"/><rect x="98.07" y="46.9" width="4.26" height="4.26" fill="#1b0003"/><rect x="98.07" y="12.79" width="4.26" height="4.26" fill="#1b0003"/><rect x="98.07" y="8.53" width="4.26" height="4.26" fill="#222230"/><rect x="98.07" y="4.26" width="4.26" height="4.26" fill="#878796"/><rect x="98.07" width="4.26" height="4.26" fill="#1b0003"/><rect x="102.34" y="59.7" width="4.26" height="4.26" fill="#1b0003"/><rect x="102.34" y="55.43" width="4.26" height="4.26" fill="#222230"/><rect x="102.34" y="51.17" width="4.26" height="4.26" fill="#878796"/><rect x="102.34" y="46.9" width="4.26" height="4.26" fill="#1b0003"/><rect x="102.34" y="12.79" width="4.26" height="4.26" fill="#1b0003"/><rect x="102.34" y="8.53" width="4.26" height="4.26" fill="#222230"/><rect x="102.34" y="4.26" width="4.26" height="4.26" fill="#878796"/><rect x="102.34" width="4.26" height="4.26" fill="#1b0003"/><rect x="106.6" y="59.7" width="4.26" height="4.26" fill="#1b0003"/><rect x="106.6" y="55.43" width="4.26" height="4.26" fill="#222230"/><rect x="106.6" y="51.17" width="4.26" height="4.26" fill="#5a5970"/><rect x="106.6" y="46.9" width="4.26" height="4.26" fill="#1b0003"/><rect x="106.6" y="12.79" width="4.26" height="4.26" fill="#1b0003"/><rect x="106.6" y="8.53" width="4.26" height="4.26" fill="#222230"/><rect x="106.6" y="4.26" width="4.26" height="4.26" fill="#878796"/><rect x="106.6" width="4.26" height="4.26" fill="#1b0003"/><rect x="110.87" y="55.43" width="4.26" height="4.26" fill="#1b0003"/><rect x="110.87" y="51.17" width="4.26" height="4.26" fill="#5a5970"/><rect x="110.87" y="46.9" width="4.26" height="4.26" fill="#222230"/><rect x="110.87" y="42.64" width="4.26" height="4.26" fill="#1b0003"/><rect x="110.87" y="17.06" width="4.26" height="4.26" fill="#1b0003"/><rect x="110.87" y="12.79" width="4.26" height="4.26" fill="#5a5970"/><rect x="110.87" y="8.53" width="4.26" height="4.26" fill="#878796"/><rect x="110.87" y="4.26" width="4.26" height="4.26" fill="#1b0003"/><rect x="115.13" y="55.43" width="4.26" height="4.26" fill="#1b0003"/><rect x="115.13" y="51.17" width="4.26" height="4.26" fill="#5a5970"/><rect x="115.13" y="46.9" width="4.26" height="4.26" fill="#5a5970"/><rect x="115.13" y="42.64" width="4.26" height="4.26" fill="#222230"/><rect x="115.13" y="38.38" width="4.26" height="4.26" fill="#1b0003"/><rect x="115.13" y="34.11" width="4.26" height="4.26" fill="#1b0003"/><rect x="115.13" y="29.85" width="4.26" height="4.26" fill="#1b0003"/><rect x="115.13" y="25.58" width="4.26" height="4.26" fill="#1b0003"/><rect x="115.13" y="21.32" width="4.26" height="4.26" fill="#1b0003"/><rect x="115.13" y="17.06" width="4.26" height="4.26" fill="#5a5970"/><rect x="115.13" y="12.79" width="4.26" height="4.26" fill="#5a5970"/><rect x="115.13" y="8.53" width="4.26" height="4.26" fill="#878796"/><rect x="115.13" y="4.26" width="4.26" height="4.26" fill="#1b0003"/><rect x="119.39" y="51.17" width="4.26" height="4.26" fill="#1b0003"/><rect x="119.39" y="46.9" width="4.26" height="4.26" fill="#5a5970"/><rect x="119.39" y="42.64" width="4.26" height="4.26" fill="#5a5970"/><rect x="119.39" y="38.38" width="4.26" height="4.26" fill="#222230"/><rect x="119.39" y="34.11" width="4.26" height="4.26" fill="#222230"/><rect x="119.39" y="29.85" width="4.26" height="4.26" fill="#222230"/><rect x="119.39" y="25.58" width="4.26" height="4.26" fill="#222230"/><rect x="119.39" y="21.32" width="4.26" height="4.26" fill="#222230"/><rect x="119.39" y="17.06" width="4.26" height="4.26" fill="#878796"/><rect x="119.39" y="12.79" width="4.26" height="4.26" fill="#878796"/><rect x="119.39" y="8.53" width="4.26" height="4.26" fill="#1b0003"/><rect x="123.66" y="46.9" width="4.26" height="4.26" fill="#1b0003"/><rect x="123.66" y="42.64" width="4.26" height="4.26" fill="#1b0003"/><rect x="123.66" y="38.38" width="4.26" height="4.26" fill="#5a5970"/><rect x="123.66" y="34.11" width="4.26" height="4.26" fill="#5a5970"/><rect x="123.66" y="29.85" width="4.26" height="4.26" fill="#878796"/><rect x="123.66" y="25.58" width="4.26" height="4.26" fill="#878796"/><rect x="123.66" y="21.32" width="4.26" height="4.26" fill="#878796"/><rect x="123.66" y="17.06" width="4.26" height="4.26" fill="#1b0003"/><rect x="123.66" y="12.79" width="4.26" height="4.26" fill="#1b0003"/><rect x="127.92" y="38.38" width="4.26" height="4.26" fill="#1b0003"/><rect x="127.92" y="34.11" width="4.26" height="4.26" fill="#1b0003"/><rect x="127.92" y="29.85" width="4.26" height="4.26" fill="#1b0003"/><rect x="127.92" y="25.58" width="4.26" height="4.26" fill="#1b0003"/><rect x="127.92" y="21.32" width="4.26" height="4.26" fill="#1b0003"/></g></g></g></svg>