<svg xmlns="http://www.w3.org/2000/svg" width="98.77" height="123.46" viewBox="0 0 98.77 123.46"><g id="Layer_2" data-name="Layer 2"><g id="items"><g id="Book_1" data-name="Book 1"><rect x="92.6" y="117.29" width="6.17" height="6.17" fill="#1b0003"/><rect x="92.6" y="111.12" width="6.17" height="6.17" fill="#1b0003"/><rect x="92.6" y="104.94" width="6.17" height="6.17" fill="#1b0003"/><rect x="92.6" y="98.77" width="6.17" height="6.17" fill="#1b0003"/><rect x="92.6" y="92.6" width="6.17" height="6.17" fill="#1b0003"/><rect x="92.6" y="86.42" width="6.17" height="6.17" fill="#1b0003"/><rect x="92.6" y="80.25" width="6.17" height="6.17" fill="#1b0003"/><rect x="92.6" y="74.08" width="6.17" height="6.17" fill="#1b0003"/><rect x="92.6" y="67.91" width="6.17" height="6.17" fill="#1b0003"/><rect x="92.6" y="61.73" width="6.17" height="6.17" fill="#1b0003"/><rect x="92.6" y="55.56" width="6.17" height="6.17" fill="#1b0003"/><rect x="92.6" y="49.39" width="6.17" height="6.17" fill="#1b0003"/><rect x="92.6" y="43.21" width="6.17" height="6.17" fill="#1b0003"/><rect x="92.6" y="37.04" width="6.17" height="6.17" fill="#1b0003"/><rect x="92.6" y="30.87" width="6.17" height="6.17" fill="#1b0003"/><rect x="92.6" y="24.69" width="6.17" height="6.17" fill="#1b0003"/><rect x="92.6" y="18.52" width="6.17" height="6.17" fill="#1b0003"/><rect x="92.6" y="12.35" width="6.17" height="6.17" fill="#1b0003"/><rect x="92.6" y="6.17" width="6.17" height="6.17" fill="#1b0003"/><rect x="86.43" y="117.29" width="6.17" height="6.17" fill="#1b0003"/><rect x="86.43" y="111.12" width="6.17" height="6.17" fill="#a84a24"/><rect x="86.43" y="104.94" width="6.17" height="6.17" fill="#1b0003"/><rect x="86.43" y="98.77" width="6.17" height="6.17" fill="#d3af9f"/><rect x="86.43" y="92.6" width="6.17" height="6.17" fill="#1b0003"/><rect x="86.43" y="86.42" width="6.17" height="6.17" fill="#fa9c5c"/><rect x="86.43" y="80.25" width="6.17" height="6.17" fill="#fa9c5c"/><rect x="86.43" y="74.08" width="6.17" height="6.17" fill="#fa9c5c"/><rect x="86.43" y="67.91" width="6.17" height="6.17" fill="#fa9c5c"/><rect x="86.43" y="61.73" width="6.17" height="6.17" fill="#fa9c5c"/><rect x="86.43" y="55.56" width="6.17" height="6.17" fill="#fa9c5c"/><rect x="86.43" y="49.39" width="6.17" height="6.17" fill="#fa9c5c"/><rect x="86.43" y="43.21" width="6.17" height="6.17" fill="#fa9c5c"/><rect x="86.43" y="37.04" width="6.17" height="6.17" fill="#fa9c5c"/><rect x="86.43" y="30.87" width="6.17" height="6.17" fill="#fa9c5c"/><rect x="86.43" y="24.69" width="6.17" height="6.17" fill="#fa9c5c"/><rect x="86.43" y="18.52" width="6.17" height="6.17" fill="#fa9c5c"/><rect x="86.43" y="12.35" width="6.17" height="6.17" fill="#fa9c5c"/><rect x="86.43" y="6.17" width="6.17" height="6.17" fill="#fa9c5c"/><rect x="86.43" width="6.17" height="6.17" fill="#1b0003"/><rect x="80.25" y="117.29" width="6.17" height="6.17" fill="#1b0003"/><rect x="80.25" y="111.12" width="6.17" height="6.17" fill="#a84a24"/><rect x="80.25" y="104.94" width="6.17" height="6.17" fill="#1b0003"/><rect x="80.25" y="98.77" width="6.17" height="6.17" fill="#ead0b9"/><rect x="80.25" y="92.6" width="6.17" height="6.17" fill="#1b0003"/><rect x="80.25" y="86.42" width="6.17" height="6.17" fill="#fa9c5c"/><rect x="80.25" y="80.25" width="6.17" height="6.17" fill="#e86f3f"/><rect x="80.25" y="74.08" width="6.17" height="6.17" fill="#e86f3f"/><rect x="80.25" y="67.91" width="6.17" height="6.17" fill="#e86f3f"/><rect x="80.25" y="61.73" width="6.17" height="6.17" fill="#e86f3f"/><rect x="80.25" y="55.56" width="6.17" height="6.17" fill="#e86f3f"/><rect x="80.25" y="49.39" width="6.17" height="6.17" fill="#e86f3f"/><rect x="80.25" y="43.21" width="6.17" height="6.17" fill="#e86f3f"/><rect x="80.25" y="37.04" width="6.17" height="6.17" fill="#e86f3f"/><rect x="80.25" y="30.87" width="6.17" height="6.17" fill="#e86f3f"/><rect x="80.25" y="24.69" width="6.17" height="6.17" fill="#e86f3f"/><rect x="80.25" y="18.52" width="6.17" height="6.17" fill="#e86f3f"/><rect x="80.25" y="12.35" width="6.17" height="6.17" fill="#e86f3f"/><rect x="80.25" y="6.17" width="6.17" height="6.17" fill="#fa9c5c"/><rect x="80.25" width="6.17" height="6.17" fill="#1b0003"/><rect x="74.08" y="117.29" width="6.17" height="6.17" fill="#1b0003"/><rect x="74.08" y="111.12" width="6.17" height="6.17" fill="#a84a24"/><rect x="74.08" y="104.94" width="6.17" height="6.17" fill="#1b0003"/><rect x="74.08" y="98.77" width="6.17" height="6.17" fill="#ead0b9"/><rect x="74.08" y="92.6" width="6.17" height="6.17" fill="#1b0003"/><rect x="74.08" y="86.42" width="6.17" height="6.17" fill="#fa9c5c"/><rect x="74.08" y="80.25" width="6.17" height="6.17" fill="#e86f3f"/><rect x="74.08" y="74.08" width="6.17" height="6.17" fill="#e86f3f"/><rect x="74.08" y="67.91" width="6.17" height="6.17" fill="#e86f3f"/><rect x="74.08" y="61.73" width="6.17" height="6.17" fill="#e86f3f"/><rect x="74.08" y="55.56" width="6.17" height="6.17" fill="#e86f3f"/><rect x="74.08" y="49.39" width="6.17" height="6.17" fill="#e86f3f"/><rect x="74.08" y="43.21" width="6.17" height="6.17" fill="#e86f3f"/><rect x="74.08" y="37.04" width="6.17" height="6.17" fill="#e86f3f"/><rect x="74.08" y="30.87" width="6.17" height="6.17" fill="#e86f3f"/><rect x="74.08" y="24.69" width="6.17" height="6.17" fill="#e86f3f"/><rect x="74.08" y="18.52" width="6.17" height="6.17" fill="#e86f3f"/><rect x="74.08" y="12.35" width="6.17" height="6.17" fill="#e86f3f"/><rect x="74.08" y="6.17" width="6.17" height="6.17" fill="#fa9c5c"/><rect x="74.08" width="6.17" height="6.17" fill="#1b0003"/><rect x="67.91" y="117.29" width="6.17" height="6.17" fill="#1b0003"/><rect x="67.91" y="111.12" width="6.17" height="6.17" fill="#e86f3f"/><rect x="67.91" y="104.94" width="6.17" height="6.17" fill="#1b0003"/><rect x="67.91" y="98.77" width="6.17" height="6.17" fill="#ead0b9"/><rect x="67.91" y="92.6" width="6.17" height="6.17" fill="#1b0003"/><rect x="67.91" y="86.42" width="6.17" height="6.17" fill="#fa9c5c"/><rect x="67.91" y="80.25" width="6.17" height="6.17" fill="#e86f3f"/><rect x="67.91" y="74.08" width="6.17" height="6.17" fill="#e86f3f"/><rect x="67.91" y="67.91" width="6.17" height="6.17" fill="#e86f3f"/><rect x="67.91" y="61.73" width="6.17" height="6.17" fill="#e86f3f"/><rect x="67.91" y="55.56" width="6.17" height="6.17" fill="#e86f3f"/><rect x="67.91" y="49.39" width="6.17" height="6.17" fill="#e86f3f"/><rect x="67.91" y="43.21" width="6.17" height="6.17" fill="#e86f3f"/><rect x="67.91" y="37.04" width="6.17" height="6.17" fill="#e86f3f"/><rect x="67.91" y="30.87" width="6.17" height="6.17" fill="#e86f3f"/><rect x="67.91" y="24.69" width="6.17" height="6.17" fill="#fa9c5c"/><rect x="67.91" y="18.52" width="6.17" height="6.17" fill="#fa9c5c"/><rect x="67.91" y="12.35" width="6.17" height="6.17" fill="#e86f3f"/><rect x="67.91" y="6.17" width="6.17" height="6.17" fill="#fa9c5c"/><rect x="67.91" width="6.17" height="6.17" fill="#1b0003"/><rect x="61.73" y="117.29" width="6.17" height="6.17" fill="#1b0003"/><rect x="61.73" y="111.12" width="6.17" height="6.17" fill="#a84a24"/><rect x="61.73" y="104.94" width="6.17" height="6.17" fill="#1b0003"/><rect x="61.73" y="98.77" width="6.17" height="6.17" fill="#ead0b9"/><rect x="61.73" y="92.6" width="6.17" height="6.17" fill="#1b0003"/><rect x="61.73" y="86.42" width="6.17" height="6.17" fill="#fa9c5c"/><rect x="61.73" y="80.25" width="6.17" height="6.17" fill="#e86f3f"/><rect x="61.73" y="74.08" width="6.17" height="6.17" fill="#e86f3f"/><rect x="61.73" y="67.91" width="6.17" height="6.17" fill="#e86f3f"/><rect x="61.73" y="61.73" width="6.17" height="6.17" fill="#e86f3f"/><rect x="61.73" y="55.56" width="6.17" height="6.17" fill="#e86f3f"/><rect x="61.73" y="49.39" width="6.17" height="6.17" fill="#e86f3f"/><rect x="61.73" y="43.21" width="6.17" height="6.17" fill="#e86f3f"/><rect x="61.73" y="37.04" width="6.17" height="6.17" fill="#e86f3f"/><rect x="61.73" y="30.87" width="6.17" height="6.17" fill="#e86f3f"/><rect x="61.73" y="24.69" width="6.17" height="6.17" fill="#fa9c5c"/><rect x="61.73" y="18.52" width="6.17" height="6.17" fill="#fa9c5c"/><rect x="61.73" y="12.35" width="6.17" height="6.17" fill="#e86f3f"/><rect x="61.73" y="6.17" width="6.17" height="6.17" fill="#fa9c5c"/><rect x="61.73" width="6.17" height="6.17" fill="#1b0003"/><rect x="55.56" y="117.29" width="6.17" height="6.17" fill="#1b0003"/><rect x="55.56" y="111.12" width="6.17" height="6.17" fill="#a84a24"/><rect x="55.56" y="104.94" width="6.17" height="6.17" fill="#1b0003"/><rect x="55.56" y="98.77" width="6.17" height="6.17" fill="#ead0b9"/><rect x="55.56" y="92.6" width="6.17" height="6.17" fill="#1b0003"/><rect x="55.56" y="86.42" width="6.17" height="6.17" fill="#fa9c5c"/><rect x="55.56" y="80.25" width="6.17" height="6.17" fill="#e86f3f"/><rect x="55.56" y="74.08" width="6.17" height="6.17" fill="#e86f3f"/><rect x="55.56" y="67.91" width="6.17" height="6.17" fill="#e86f3f"/><rect x="55.56" y="61.73" width="6.17" height="6.17" fill="#e86f3f"/><rect x="55.56" y="55.56" width="6.17" height="6.17" fill="#e86f3f"/><rect x="55.56" y="49.39" width="6.17" height="6.17" fill="#e86f3f"/><rect x="55.56" y="43.21" width="6.17" height="6.17" fill="#e86f3f"/><rect x="55.56" y="37.04" width="6.17" height="6.17" fill="#e86f3f"/><rect x="55.56" y="30.87" width="6.17" height="6.17" fill="#e86f3f"/><rect x="55.56" y="24.69" width="6.17" height="6.17" fill="#fa9c5c"/><rect x="55.56" y="18.52" width="6.17" height="6.17" fill="#fa9c5c"/><rect x="55.56" y="12.35" width="6.17" height="6.17" fill="#e86f3f"/><rect x="55.56" y="6.17" width="6.17" height="6.17" fill="#fa9c5c"/><rect x="55.56" width="6.17" height="6.17" fill="#1b0003"/><rect x="49.39" y="117.29" width="6.17" height="6.17" fill="#1b0003"/><rect x="49.39" y="111.12" width="6.17" height="6.17" fill="#e86f3f"/><rect x="49.39" y="104.94" width="6.17" height="6.17" fill="#1b0003"/><rect x="49.39" y="98.77" width="6.17" height="6.17" fill="#f9f2d4"/><rect x="49.39" y="92.6" width="6.17" height="6.17" fill="#1b0003"/><rect x="49.39" y="86.42" width="6.17" height="6.17" fill="#fa9c5c"/><rect x="49.39" y="80.25" width="6.17" height="6.17" fill="#e86f3f"/><rect x="49.39" y="74.08" width="6.17" height="6.17" fill="#e86f3f"/><rect x="49.39" y="67.91" width="6.17" height="6.17" fill="#e86f3f"/><rect x="49.39" y="61.73" width="6.17" height="6.17" fill="#e86f3f"/><rect x="49.39" y="55.56" width="6.17" height="6.17" fill="#e86f3f"/><rect x="49.39" y="49.39" width="6.17" height="6.17" fill="#e86f3f"/><rect x="49.39" y="43.21" width="6.17" height="6.17" fill="#e86f3f"/><rect x="49.39" y="37.04" width="6.17" height="6.17" fill="#e86f3f"/><rect x="49.39" y="30.87" width="6.17" height="6.17" fill="#e86f3f"/><rect x="49.39" y="24.69" width="6.17" height="6.17" fill="#fa9c5c"/><rect x="49.39" y="18.52" width="6.17" height="6.17" fill="#fa9c5c"/><rect x="49.39" y="12.35" width="6.17" height="6.17" fill="#e86f3f"/><rect x="49.39" y="6.17" width="6.17" height="6.17" fill="#fa9c5c"/><rect x="49.39" width="6.17" height="6.17" fill="#1b0003"/><rect x="43.21" y="117.29" width="6.17" height="6.17" fill="#1b0003"/><rect x="43.21" y="111.12" width="6.17" height="6.17" fill="#e86f3f"/><rect x="43.21" y="104.94" width="6.17" height="6.17" fill="#1b0003"/><rect x="43.21" y="98.77" width="6.17" height="6.17" fill="#f9f2d4"/><rect x="43.21" y="92.6" width="6.17" height="6.17" fill="#1b0003"/><rect x="43.21" y="86.42" width="6.17" height="6.17" fill="#fa9c5c"/><rect x="43.21" y="80.25" width="6.17" height="6.17" fill="#e86f3f"/><rect x="43.21" y="74.08" width="6.17" height="6.17" fill="#e86f3f"/><rect x="43.21" y="67.91" width="6.17" height="6.17" fill="#e86f3f"/><rect x="43.21" y="61.73" width="6.17" height="6.17" fill="#e86f3f"/><rect x="43.21" y="55.56" width="6.17" height="6.17" fill="#e86f3f"/><rect x="43.21" y="49.39" width="6.17" height="6.17" fill="#e86f3f"/><rect x="43.21" y="43.21" width="6.17" height="6.17" fill="#e86f3f"/><rect x="43.21" y="37.04" width="6.17" height="6.17" fill="#e86f3f"/><rect x="43.21" y="30.87" width="6.17" height="6.17" fill="#e86f3f"/><rect x="43.21" y="24.69" width="6.17" height="6.17" fill="#fa9c5c"/><rect x="43.21" y="18.52" width="6.17" height="6.17" fill="#fa9c5c"/><rect x="43.21" y="12.35" width="6.17" height="6.17" fill="#e86f3f"/><rect x="43.21" y="6.17" width="6.17" height="6.17" fill="#fa9c5c"/><rect x="43.21" width="6.17" height="6.17" fill="#1b0003"/><rect x="37.04" y="117.29" width="6.17" height="6.17" fill="#1b0003"/><rect x="37.04" y="111.12" width="6.17" height="6.17" fill="#e86f3f"/><rect x="37.04" y="104.94" width="6.17" height="6.17" fill="#1b0003"/><rect x="37.04" y="98.77" width="6.17" height="6.17" fill="#f9f2d4"/><rect x="37.04" y="92.6" width="6.17" height="6.17" fill="#1b0003"/><rect x="37.04" y="86.42" width="6.17" height="6.17" fill="#fa9c5c"/><rect x="37.04" y="80.25" width="6.17" height="6.17" fill="#e86f3f"/><rect x="37.04" y="74.08" width="6.17" height="6.17" fill="#e86f3f"/><rect x="37.04" y="67.91" width="6.17" height="6.17" fill="#e86f3f"/><rect x="37.04" y="61.73" width="6.17" height="6.17" fill="#e86f3f"/><rect x="37.04" y="55.56" width="6.17" height="6.17" fill="#e86f3f"/><rect x="37.04" y="49.39" width="6.17" height="6.17" fill="#e86f3f"/><rect x="37.04" y="43.21" width="6.17" height="6.17" fill="#e86f3f"/><rect x="37.04" y="37.04" width="6.17" height="6.17" fill="#e86f3f"/><rect x="37.04" y="30.87" width="6.17" height="6.17" fill="#e86f3f"/><rect x="37.04" y="24.69" width="6.17" height="6.17" fill="#fa9c5c"/><rect x="37.04" y="18.52" width="6.17" height="6.17" fill="#fa9c5c"/><rect x="37.04" y="12.35" width="6.17" height="6.17" fill="#e86f3f"/><rect x="37.04" y="6.17" width="6.17" height="6.17" fill="#fa9c5c"/><rect x="37.04" width="6.17" height="6.17" fill="#1b0003"/><rect x="30.87" y="117.29" width="6.17" height="6.17" fill="#1b0003"/><rect x="30.87" y="111.12" width="6.17" height="6.17" fill="#e86f3f"/><rect x="30.87" y="104.94" width="6.17" height="6.17" fill="#1b0003"/><rect x="30.87" y="98.77" width="6.17" height="6.17" fill="#f9f2d4"/><rect x="30.87" y="92.6" width="6.17" height="6.17" fill="#1b0003"/><rect x="30.87" y="86.42" width="6.17" height="6.17" fill="#fa9c5c"/><rect x="30.87" y="80.25" width="6.17" height="6.17" fill="#e86f3f"/><rect x="30.87" y="74.08" width="6.17" height="6.17" fill="#e86f3f"/><rect x="30.87" y="67.91" width="6.17" height="6.17" fill="#e86f3f"/><rect x="30.87" y="61.73" width="6.17" height="6.17" fill="#e86f3f"/><rect x="30.87" y="55.56" width="6.17" height="6.17" fill="#e86f3f"/><rect x="30.87" y="49.39" width="6.17" height="6.17" fill="#e86f3f"/><rect x="30.87" y="43.21" width="6.17" height="6.17" fill="#e86f3f"/><rect x="30.87" y="37.04" width="6.17" height="6.17" fill="#e86f3f"/><rect x="30.87" y="30.87" width="6.17" height="6.17" fill="#e86f3f"/><rect x="30.87" y="24.69" width="6.17" height="6.17" fill="#fa9c5c"/><rect x="30.87" y="18.52" width="6.17" height="6.17" fill="#fa9c5c"/><rect x="30.87" y="12.35" width="6.17" height="6.17" fill="#e86f3f"/><rect x="30.87" y="6.17" width="6.17" height="6.17" fill="#fa9c5c"/><rect x="30.87" width="6.17" height="6.17" fill="#1b0003"/><rect x="24.69" y="117.29" width="6.17" height="6.17" fill="#1b0003"/><rect x="24.69" y="111.12" width="6.17" height="6.17" fill="#e86f3f"/><rect x="24.69" y="104.94" width="6.17" height="6.17" fill="#1b0003"/><rect x="24.69" y="98.77" width="6.17" height="6.17" fill="#f9f2d4"/><rect x="24.69" y="92.6" width="6.17" height="6.17" fill="#1b0003"/><rect x="24.69" y="86.42" width="6.17" height="6.17" fill="#fa9c5c"/><rect x="24.69" y="80.25" width="6.17" height="6.17" fill="#e86f3f"/><rect x="24.69" y="74.08" width="6.17" height="6.17" fill="#e86f3f"/><rect x="24.69" y="67.91" width="6.17" height="6.17" fill="#e86f3f"/><rect x="24.69" y="61.73" width="6.17" height="6.17" fill="#e86f3f"/><rect x="24.69" y="55.56" width="6.17" height="6.17" fill="#e86f3f"/><rect x="24.69" y="49.39" width="6.17" height="6.17" fill="#e86f3f"/><rect x="24.69" y="43.21" width="6.17" height="6.17" fill="#e86f3f"/><rect x="24.69" y="37.04" width="6.17" height="6.17" fill="#e86f3f"/><rect x="24.69" y="30.87" width="6.17" height="6.17" fill="#e86f3f"/><rect x="24.69" y="24.69" width="6.17" height="6.17" fill="#e86f3f"/><rect x="24.69" y="18.52" width="6.17" height="6.17" fill="#e86f3f"/><rect x="24.69" y="12.35" width="6.17" height="6.17" fill="#e86f3f"/><rect x="24.69" y="6.17" width="6.17" height="6.17" fill="#fa9c5c"/><rect x="24.69" width="6.17" height="6.17" fill="#1b0003"/><rect x="18.52" y="117.29" width="6.17" height="6.17" fill="#1b0003"/><rect x="18.52" y="111.12" width="6.17" height="6.17" fill="#e86f3f"/><rect x="18.52" y="104.94" width="6.17" height="6.17" fill="#1b0003"/><rect x="18.52" y="98.77" width="6.17" height="6.17" fill="#f9f2d4"/><rect x="18.52" y="92.6" width="6.17" height="6.17" fill="#1b0003"/><rect x="18.52" y="86.42" width="6.17" height="6.17" fill="#fa9c5c"/><rect x="18.52" y="80.25" width="6.17" height="6.17" fill="#e86f3f"/><rect x="18.52" y="74.08" width="6.17" height="6.17" fill="#e86f3f"/><rect x="18.52" y="67.91" width="6.17" height="6.17" fill="#e86f3f"/><rect x="18.52" y="61.73" width="6.17" height="6.17" fill="#e86f3f"/><rect x="18.52" y="55.56" width="6.17" height="6.17" fill="#e86f3f"/><rect x="18.52" y="49.39" width="6.17" height="6.17" fill="#e86f3f"/><rect x="18.52" y="43.21" width="6.17" height="6.17" fill="#e86f3f"/><rect x="18.52" y="37.04" width="6.17" height="6.17" fill="#e86f3f"/><rect x="18.52" y="30.87" width="6.17" height="6.17" fill="#e86f3f"/><rect x="18.52" y="24.69" width="6.17" height="6.17" fill="#e86f3f"/><rect x="18.52" y="18.52" width="6.17" height="6.17" fill="#e86f3f"/><rect x="18.52" y="12.35" width="6.17" height="6.17" fill="#e86f3f"/><rect x="18.52" y="6.17" width="6.17" height="6.17" fill="#fa9c5c"/><rect x="18.52" width="6.17" height="6.17" fill="#1b0003"/><rect x="12.35" y="117.29" width="6.17" height="6.17" fill="#1b0003"/><rect x="12.35" y="111.12" width="6.17" height="6.17" fill="#e86f3f"/><rect x="12.35" y="104.94" width="6.17" height="6.17" fill="#e86f3f"/><rect x="12.35" y="98.77" width="6.17" height="6.17" fill="#1b0003"/><rect x="12.35" y="92.6" width="6.17" height="6.17" fill="#e86f3f"/><rect x="12.35" y="86.42" width="6.17" height="6.17" fill="#fa9c5c"/><rect x="12.35" y="80.25" width="6.17" height="6.17" fill="#fa9c5c"/><rect x="12.35" y="74.08" width="6.17" height="6.17" fill="#fa9c5c"/><rect x="12.35" y="67.91" width="6.17" height="6.17" fill="#fa9c5c"/><rect x="12.35" y="61.73" width="6.17" height="6.17" fill="#fa9c5c"/><rect x="12.35" y="55.56" width="6.17" height="6.17" fill="#fa9c5c"/><rect x="12.35" y="49.39" width="6.17" height="6.17" fill="#fa9c5c"/><rect x="12.35" y="43.21" width="6.17" height="6.17" fill="#fa9c5c"/><rect x="12.35" y="37.04" width="6.17" height="6.17" fill="#fa9c5c"/><rect x="12.35" y="30.87" width="6.17" height="6.17" fill="#fa9c5c"/><rect x="12.35" y="24.69" width="6.17" height="6.17" fill="#fa9c5c"/><rect x="12.35" y="18.52" width="6.17" height="6.17" fill="#fa9c5c"/><rect x="12.35" y="12.35" width="6.17" height="6.17" fill="#fa9c5c"/><rect x="12.35" y="6.17" width="6.17" height="6.17" fill="#fa9c5c"/><rect x="12.35" width="6.17" height="6.17" fill="#1b0003"/><rect x="6.17" y="117.29" width="6.17" height="6.17" fill="#1b0003"/><rect x="6.17" y="111.12" width="6.17" height="6.17" fill="#a84a24"/><rect x="6.17" y="104.94" width="6.17" height="6.17" fill="#e86f3f"/><rect x="6.17" y="98.77" width="6.17" height="6.17" fill="#e86f3f"/><rect x="6.17" y="92.6" width="6.17" height="6.17" fill="#e86f3f"/><rect x="6.17" y="86.42" width="6.17" height="6.17" fill="#e86f3f"/><rect x="6.17" y="80.25" width="6.17" height="6.17" fill="#e86f3f"/><rect x="6.17" y="74.08" width="6.17" height="6.17" fill="#e86f3f"/><rect x="6.17" y="67.91" width="6.17" height="6.17" fill="#e86f3f"/><rect x="6.17" y="61.73" width="6.17" height="6.17" fill="#e86f3f"/><rect x="6.17" y="55.56" width="6.17" height="6.17" fill="#e86f3f"/><rect x="6.17" y="49.39" width="6.17" height="6.17" fill="#e86f3f"/><rect x="6.17" y="43.21" width="6.17" height="6.17" fill="#e86f3f"/><rect x="6.17" y="37.04" width="6.17" height="6.17" fill="#e86f3f"/><rect x="6.17" y="30.87" width="6.17" height="6.17" fill="#e86f3f"/><rect x="6.17" y="24.69" width="6.17" height="6.17" fill="#e86f3f"/><rect x="6.17" y="18.52" width="6.17" height="6.17" fill="#e86f3f"/><rect x="6.17" y="12.35" width="6.17" height="6.17" fill="#e86f3f"/><rect x="6.17" y="6.17" width="6.17" height="6.17" fill="#e86f3f"/><rect x="6.17" width="6.17" height="6.17" fill="#1b0003"/><rect y="111.12" width="6.17" height="6.17" fill="#1b0003"/><rect y="104.94" width="6.17" height="6.17" fill="#1b0003"/><rect y="98.77" width="6.17" height="6.17" fill="#1b0003"/><rect y="92.6" width="6.17" height="6.17" fill="#1b0003"/><rect y="86.42" width="6.17" height="6.17" fill="#1b0003"/><rect y="80.25" width="6.17" height="6.17" fill="#1b0003"/><rect y="74.08" width="6.17" height="6.17" fill="#1b0003"/><rect y="67.91" width="6.17" height="6.17" fill="#1b0003"/><rect y="61.73" width="6.17" height="6.17" fill="#1b0003"/><rect y="55.56" width="6.17" height="6.17" fill="#1b0003"/><rect y="49.39" width="6.17" height="6.17" fill="#1b0003"/><rect y="43.21" width="6.17" height="6.17" fill="#1b0003"/><rect y="37.04" width="6.17" height="6.17" fill="#1b0003"/><rect y="30.87" width="6.17" height="6.17" fill="#1b0003"/><rect y="24.69" width="6.17" height="6.17" fill="#1b0003"/><rect y="18.52" width="6.17" height="6.17" fill="#1b0003"/><rect y="12.35" width="6.17" height="6.17" fill="#1b0003"/><rect y="6.17" width="6.17" height="6.17" fill="#1b0003"/></g></g></g></svg>