<svg xmlns="http://www.w3.org/2000/svg" width="117.9" height="117.9" viewBox="0 0 117.9 117.9"><g id="Layer_2" data-name="Layer 2"><g id="items"><g id="Bow"><rect x="113.18" y="80.17" width="4.72" height="4.72" fill="#1b0003"/><rect x="113.18" y="75.45" width="4.72" height="4.72" fill="#1b0003"/><rect x="113.18" y="70.74" width="4.72" height="4.72" fill="#1b0003"/><rect x="113.18" y="66.02" width="4.72" height="4.72" fill="#1b0003"/><rect x="113.18" y="61.31" width="4.72" height="4.72" fill="#1b0003"/><rect x="113.18" y="56.59" width="4.72" height="4.72" fill="#1b0003"/><rect x="113.18" y="51.87" width="4.72" height="4.72" fill="#1b0003"/><rect x="113.18" y="47.16" width="4.72" height="4.72" fill="#1b0003"/><rect x="108.46" y="89.6" width="4.72" height="4.72" fill="#1b0003"/><rect x="108.46" y="84.89" width="4.72" height="4.72" fill="#1b0003"/><rect x="108.46" y="80.17" width="4.72" height="4.72" fill="#fa9c5c"/><rect x="108.46" y="75.45" width="4.72" height="4.72" fill="#fa9c5c"/><rect x="108.46" y="70.74" width="4.72" height="4.72" fill="#fa9c5c"/><rect x="108.46" y="66.02" width="4.72" height="4.72" fill="#fa9c5c"/><rect x="108.46" y="61.31" width="4.72" height="4.72" fill="#fa9c5c"/><rect x="108.46" y="56.59" width="4.72" height="4.72" fill="#fa9c5c"/><rect x="108.46" y="51.87" width="4.72" height="4.72" fill="#fa9c5c"/><rect x="108.46" y="47.16" width="4.72" height="4.72" fill="#fa9c5c"/><rect x="108.46" y="42.44" width="4.72" height="4.72" fill="#1b0003"/><rect x="108.46" y="37.73" width="4.72" height="4.72" fill="#1b0003"/><rect x="103.75" y="99.03" width="4.72" height="4.72" fill="#1b0003"/><rect x="103.75" y="94.32" width="4.72" height="4.72" fill="#1b0003"/><rect x="103.75" y="89.6" width="4.72" height="4.72" fill="#a84a24"/><rect x="103.75" y="84.89" width="4.72" height="4.72" fill="#fa9c5c"/><rect x="103.75" y="80.17" width="4.72" height="4.72" fill="#fa9c5c"/><rect x="103.75" y="75.45" width="4.72" height="4.72" fill="#e86f3f"/><rect x="103.75" y="70.74" width="4.72" height="4.72" fill="#e86f3f"/><rect x="103.75" y="66.02" width="4.72" height="4.72" fill="#e86f3f"/><rect x="103.75" y="61.31" width="4.72" height="4.72" fill="#e86f3f"/><rect x="103.75" y="56.59" width="4.72" height="4.72" fill="#e86f3f"/><rect x="103.75" y="51.87" width="4.72" height="4.72" fill="#e86f3f"/><rect x="103.75" y="47.16" width="4.72" height="4.72" fill="#fa9c5c"/><rect x="103.75" y="42.44" width="4.72" height="4.72" fill="#fa9c5c"/><rect x="103.75" y="37.73" width="4.72" height="4.72" fill="#fa9c5c"/><rect x="103.75" y="33.01" width="4.72" height="4.72" fill="#1b0003"/><rect x="99.03" y="108.46" width="4.72" height="4.72" fill="#1b0003"/><rect x="99.03" y="103.75" width="4.72" height="4.72" fill="#1b0003"/><rect x="99.03" y="99.03" width="4.72" height="4.72" fill="#a84a24"/><rect x="99.03" y="94.32" width="4.72" height="4.72" fill="#e86f3f"/><rect x="99.03" y="89.6" width="4.72" height="4.72" fill="#f2904e"/><rect x="99.03" y="84.89" width="4.72" height="4.72" fill="#f2904e"/><rect x="99.03" y="80.17" width="4.72" height="4.72" fill="#e86f3f"/><rect x="99.03" y="75.45" width="4.72" height="4.72" fill="#1b0003"/><rect x="99.03" y="70.74" width="4.72" height="4.72" fill="#1b0003"/><rect x="99.03" y="66.02" width="4.72" height="4.72" fill="#1b0003"/><rect x="99.03" y="61.31" width="4.72" height="4.72" fill="#1b0003"/><rect x="99.03" y="56.59" width="4.72" height="4.72" fill="#1b0003"/><rect x="99.03" y="51.87" width="4.72" height="4.72" fill="#1b0003"/><rect x="99.03" y="47.16" width="4.72" height="4.72" fill="#1b0003"/><rect x="99.03" y="42.44" width="4.72" height="4.72" fill="#e86f3f"/><rect x="99.03" y="37.73" width="4.72" height="4.72" fill="#f2904e"/><rect x="99.03" y="33.01" width="4.72" height="4.72" fill="#fa9c5c"/><rect x="99.03" y="28.3" width="4.72" height="4.72" fill="#1b0003"/><rect x="94.32" y="113.18" width="4.72" height="4.72" fill="#1b0003"/><rect x="94.32" y="108.46" width="4.72" height="4.72" fill="#a84a24"/><rect x="94.32" y="103.75" width="4.72" height="4.72" fill="#a84a24"/><rect x="94.32" y="99.03" width="4.72" height="4.72" fill="#a84a24"/><rect x="94.32" y="94.32" width="4.72" height="4.72" fill="#f2904e"/><rect x="94.32" y="89.6" width="4.72" height="4.72" fill="#f2904e"/><rect x="94.32" y="84.89" width="4.72" height="4.72" fill="#1b0003"/><rect x="94.32" y="80.17" width="4.72" height="4.72" fill="#1b0003"/><rect x="94.32" y="42.44" width="4.72" height="4.72" fill="#1b0003"/><rect x="94.32" y="37.73" width="4.72" height="4.72" fill="#1b0003"/><rect x="94.32" y="33.01" width="4.72" height="4.72" fill="#f2904e"/><rect x="94.32" y="28.3" width="4.72" height="4.72" fill="#fa9c5c"/><rect x="94.32" y="23.58" width="4.72" height="4.72" fill="#1b0003"/><rect x="89.6" y="113.18" width="4.72" height="4.72" fill="#1b0003"/><rect x="89.6" y="108.46" width="4.72" height="4.72" fill="#a84a24"/><rect x="89.6" y="103.75" width="4.72" height="4.72" fill="#a84a24"/><rect x="89.6" y="99.03" width="4.72" height="4.72" fill="#e86f3f"/><rect x="89.6" y="94.32" width="4.72" height="4.72" fill="#e86f3f"/><rect x="89.6" y="89.6" width="4.72" height="4.72" fill="#1b0003"/><rect x="89.6" y="33.01" width="4.72" height="4.72" fill="#1b0003"/><rect x="89.6" y="28.3" width="4.72" height="4.72" fill="#f2904e"/><rect x="89.6" y="23.58" width="4.72" height="4.72" fill="#fa9c5c"/><rect x="89.6" y="18.86" width="4.72" height="4.72" fill="#1b0003"/><rect x="84.89" y="108.46" width="4.72" height="4.72" fill="#1b0003"/><rect x="84.89" y="103.75" width="4.72" height="4.72" fill="#a84a24"/><rect x="84.89" y="99.03" width="4.72" height="4.72" fill="#a84a24"/><rect x="84.89" y="94.32" width="4.72" height="4.72" fill="#1b0003"/><rect x="84.89" y="28.3" width="4.72" height="4.72" fill="#1b0003"/><rect x="84.89" y="23.58" width="4.72" height="4.72" fill="#f2904e"/><rect x="84.89" y="18.86" width="4.72" height="4.72" fill="#fa9c5c"/><rect x="84.89" y="14.15" width="4.72" height="4.72" fill="#1b0003"/><rect x="80.17" y="103.75" width="4.72" height="4.72" fill="#1b0003"/><rect x="80.17" y="99.03" width="4.72" height="4.72" fill="#1b0003"/><rect x="80.17" y="94.32" width="4.72" height="4.72" fill="#e0bea4"/><rect x="80.17" y="89.6" width="4.72" height="4.72" fill="#1b0003"/><rect x="80.17" y="23.58" width="4.72" height="4.72" fill="#1b0003"/><rect x="80.17" y="18.86" width="4.72" height="4.72" fill="#f2904e"/><rect x="80.17" y="14.15" width="4.72" height="4.72" fill="#fa9c5c"/><rect x="80.17" y="9.43" width="4.72" height="4.72" fill="#1b0003"/><rect x="75.45" y="94.32" width="4.72" height="4.72" fill="#1b0003"/><rect x="75.45" y="89.6" width="4.72" height="4.72" fill="#e0bea4"/><rect x="75.45" y="84.89" width="4.72" height="4.72" fill="#1b0003"/><rect x="75.45" y="18.86" width="4.72" height="4.72" fill="#1b0003"/><rect x="75.45" y="14.15" width="4.72" height="4.72" fill="#f2904e"/><rect x="75.45" y="9.43" width="4.72" height="4.72" fill="#fa9c5c"/><rect x="75.45" y="4.72" width="4.72" height="4.72" fill="#1b0003"/><rect x="70.74" y="89.6" width="4.72" height="4.72" fill="#1b0003"/><rect x="70.74" y="84.89" width="4.72" height="4.72" fill="#e0bea4"/><rect x="70.74" y="80.17" width="4.72" height="4.72" fill="#1b0003"/><rect x="70.74" y="18.86" width="4.72" height="4.72" fill="#1b0003"/><rect x="70.74" y="14.15" width="4.72" height="4.72" fill="#e86f3f"/><rect x="70.74" y="9.43" width="4.72" height="4.72" fill="#fa9c5c"/><rect x="70.74" y="4.72" width="4.72" height="4.72" fill="#1b0003"/><rect x="66.02" y="84.89" width="4.72" height="4.72" fill="#1b0003"/><rect x="66.02" y="80.17" width="4.72" height="4.72" fill="#e0bea4"/><rect x="66.02" y="75.45" width="4.72" height="4.72" fill="#1b0003"/><rect x="66.02" y="14.15" width="4.72" height="4.72" fill="#1b0003"/><rect x="66.02" y="9.43" width="4.72" height="4.72" fill="#fa9c5c"/><rect x="66.02" y="4.72" width="4.72" height="4.72" fill="#fa9c5c"/><rect x="66.02" width="4.72" height="4.72" fill="#1b0003"/><rect x="61.31" y="80.17" width="4.72" height="4.72" fill="#1b0003"/><rect x="61.31" y="75.45" width="4.72" height="4.72" fill="#e0bea4"/><rect x="61.31" y="70.74" width="4.72" height="4.72" fill="#1b0003"/><rect x="61.31" y="14.15" width="4.72" height="4.72" fill="#1b0003"/><rect x="61.31" y="9.43" width="4.72" height="4.72" fill="#e86f3f"/><rect x="61.31" y="4.72" width="4.72" height="4.72" fill="#fa9c5c"/><rect x="61.31" width="4.72" height="4.72" fill="#1b0003"/><rect x="56.59" y="75.45" width="4.72" height="4.72" fill="#1b0003"/><rect x="56.59" y="70.74" width="4.72" height="4.72" fill="#e0bea4"/><rect x="56.59" y="66.02" width="4.72" height="4.72" fill="#1b0003"/><rect x="56.59" y="14.15" width="4.72" height="4.72" fill="#1b0003"/><rect x="56.59" y="9.43" width="4.72" height="4.72" fill="#e86f3f"/><rect x="56.59" y="4.72" width="4.72" height="4.72" fill="#fa9c5c"/><rect x="56.59" width="4.72" height="4.72" fill="#1b0003"/><rect x="51.87" y="70.74" width="4.72" height="4.72" fill="#1b0003"/><rect x="51.87" y="66.02" width="4.72" height="4.72" fill="#f9f2d4"/><rect x="51.87" y="61.31" width="4.72" height="4.72" fill="#1b0003"/><rect x="51.87" y="14.15" width="4.72" height="4.72" fill="#1b0003"/><rect x="51.87" y="9.43" width="4.72" height="4.72" fill="#e86f3f"/><rect x="51.87" y="4.72" width="4.72" height="4.72" fill="#fa9c5c"/><rect x="51.87" width="4.72" height="4.72" fill="#1b0003"/><rect x="47.16" y="66.02" width="4.72" height="4.72" fill="#1b0003"/><rect x="47.16" y="61.31" width="4.72" height="4.72" fill="#f9f2d4"/><rect x="47.16" y="56.59" width="4.72" height="4.72" fill="#1b0003"/><rect x="47.16" y="14.15" width="4.72" height="4.72" fill="#1b0003"/><rect x="47.16" y="9.43" width="4.72" height="4.72" fill="#e86f3f"/><rect x="47.16" y="4.72" width="4.72" height="4.72" fill="#fa9c5c"/><rect x="47.16" width="4.72" height="4.72" fill="#1b0003"/><rect x="42.44" y="61.31" width="4.72" height="4.72" fill="#1b0003"/><rect x="42.44" y="56.59" width="4.72" height="4.72" fill="#f9f2d4"/><rect x="42.44" y="51.87" width="4.72" height="4.72" fill="#1b0003"/><rect x="42.44" y="14.15" width="4.72" height="4.72" fill="#1b0003"/><rect x="42.44" y="9.43" width="4.72" height="4.72" fill="#e86f3f"/><rect x="42.44" y="4.72" width="4.72" height="4.72" fill="#fa9c5c"/><rect x="42.44" width="4.72" height="4.72" fill="#1b0003"/><rect x="37.73" y="56.59" width="4.72" height="4.72" fill="#1b0003"/><rect x="37.73" y="51.87" width="4.72" height="4.72" fill="#f9f2d4"/><rect x="37.73" y="47.16" width="4.72" height="4.72" fill="#1b0003"/><rect x="37.73" y="14.15" width="4.72" height="4.72" fill="#1b0003"/><rect x="37.73" y="9.43" width="4.72" height="4.72" fill="#e86f3f"/><rect x="37.73" y="4.72" width="4.72" height="4.72" fill="#fa9c5c"/><rect x="37.73" width="4.72" height="4.72" fill="#1b0003"/><rect x="33.01" y="51.87" width="4.72" height="4.72" fill="#1b0003"/><rect x="33.01" y="47.16" width="4.72" height="4.72" fill="#f9f2d4"/><rect x="33.01" y="42.44" width="4.72" height="4.72" fill="#1b0003"/><rect x="33.01" y="18.86" width="4.72" height="4.72" fill="#1b0003"/><rect x="33.01" y="14.15" width="4.72" height="4.72" fill="#f2904e"/><rect x="33.01" y="9.43" width="4.72" height="4.72" fill="#fa9c5c"/><rect x="33.01" y="4.72" width="4.72" height="4.72" fill="#fa9c5c"/><rect x="33.01" width="4.72" height="4.72" fill="#1b0003"/><rect x="28.3" y="47.16" width="4.72" height="4.72" fill="#1b0003"/><rect x="28.3" y="42.44" width="4.72" height="4.72" fill="#f9f2d4"/><rect x="28.3" y="37.73" width="4.72" height="4.72" fill="#1b0003"/><rect x="28.3" y="18.86" width="4.72" height="4.72" fill="#1b0003"/><rect x="28.3" y="14.15" width="4.72" height="4.72" fill="#e86f3f"/><rect x="28.3" y="9.43" width="4.72" height="4.72" fill="#fa9c5c"/><rect x="28.3" y="4.72" width="4.72" height="4.72" fill="#1b0003"/><rect x="23.58" y="42.44" width="4.72" height="4.72" fill="#1b0003"/><rect x="23.58" y="37.73" width="4.72" height="4.72" fill="#f9f2d4"/><rect x="23.58" y="33.01" width="4.72" height="4.72" fill="#1b0003"/><rect x="23.58" y="23.58" width="4.72" height="4.72" fill="#1b0003"/><rect x="23.58" y="18.86" width="4.72" height="4.72" fill="#e86f3f"/><rect x="23.58" y="14.15" width="4.72" height="4.72" fill="#fa9c5c"/><rect x="23.58" y="9.43" width="4.72" height="4.72" fill="#fa9c5c"/><rect x="23.58" y="4.72" width="4.72" height="4.72" fill="#1b0003"/><rect x="18.86" y="37.73" width="4.72" height="4.72" fill="#1b0003"/><rect x="18.86" y="33.01" width="4.72" height="4.72" fill="#f9f2d4"/><rect x="18.86" y="28.3" width="4.72" height="4.72" fill="#1b0003"/><rect x="18.86" y="23.58" width="4.72" height="4.72" fill="#a84a24"/><rect x="18.86" y="18.86" width="4.72" height="4.72" fill="#f2904e"/><rect x="18.86" y="14.15" width="4.72" height="4.72" fill="#fa9c5c"/><rect x="18.86" y="9.43" width="4.72" height="4.72" fill="#1b0003"/><rect x="14.15" y="33.01" width="4.72" height="4.72" fill="#1b0003"/><rect x="14.15" y="28.3" width="4.72" height="4.72" fill="#a84a24"/><rect x="14.15" y="23.58" width="4.72" height="4.72" fill="#e86f3f"/><rect x="14.15" y="18.86" width="4.72" height="4.72" fill="#f2904e"/><rect x="14.15" y="14.15" width="4.72" height="4.72" fill="#f2904e"/><rect x="14.15" y="9.43" width="4.72" height="4.72" fill="#1b0003"/><rect x="9.43" y="33.01" width="4.72" height="4.72" fill="#1b0003"/><rect x="9.43" y="28.3" width="4.72" height="4.72" fill="#a84a24"/><rect x="9.43" y="23.58" width="4.72" height="4.72" fill="#a84a24"/><rect x="9.43" y="18.86" width="4.72" height="4.72" fill="#e86f3f"/><rect x="9.43" y="14.15" width="4.72" height="4.72" fill="#1b0003"/><rect x="4.72" y="28.3" width="4.72" height="4.72" fill="#1b0003"/><rect x="4.72" y="23.58" width="4.72" height="4.72" fill="#a84a24"/><rect x="4.72" y="18.86" width="4.72" height="4.72" fill="#a84a24"/><rect x="4.72" y="14.15" width="4.72" height="4.72" fill="#1b0003"/><rect y="23.58" width="4.72" height="4.72" fill="#1b0003"/><rect y="18.86" width="4.72" height="4.72" fill="#1b0003"/></g></g></g></svg>