<svg xmlns="http://www.w3.org/2000/svg" width="130.25" height="117.23" viewBox="0 0 130.25 117.23"><g id="Layer_2" data-name="Layer 2"><g id="items"><g id="Chest"><rect x="123.74" y="104.2" width="6.51" height="6.51" fill="#1b0003"/><rect x="123.74" y="97.69" width="6.51" height="6.51" fill="#1b0003"/><rect x="123.74" y="91.18" width="6.51" height="6.51" fill="#1b0003"/><rect x="123.74" y="84.66" width="6.51" height="6.51" fill="#1b0003"/><rect x="123.74" y="78.15" width="6.51" height="6.51" fill="#1b0003"/><rect x="123.74" y="71.64" width="6.51" height="6.51" fill="#1b0003"/><rect x="123.74" y="65.13" width="6.51" height="6.51" fill="#1b0003"/><rect x="123.74" y="58.61" width="6.51" height="6.51" fill="#1b0003"/><rect x="123.74" y="52.1" width="6.51" height="6.51" fill="#1b0003"/><rect x="123.74" y="45.59" width="6.51" height="6.51" fill="#1b0003"/><rect x="123.74" y="39.08" width="6.51" height="6.51" fill="#1b0003"/><rect x="123.74" y="32.56" width="6.51" height="6.51" fill="#1b0003"/><rect x="123.74" y="26.05" width="6.51" height="6.51" fill="#1b0003"/><rect x="123.74" y="19.54" width="6.51" height="6.51" fill="#1b0003"/><rect x="117.23" y="110.72" width="6.51" height="6.51" fill="#1b0003"/><rect x="117.23" y="104.2" width="6.51" height="6.51" fill="#a84a24"/><rect x="117.23" y="97.69" width="6.51" height="6.51" fill="#a84a24"/><rect x="117.23" y="91.18" width="6.51" height="6.51" fill="#a84a24"/><rect x="117.23" y="84.66" width="6.51" height="6.51" fill="#a84a24"/><rect x="117.23" y="78.15" width="6.51" height="6.51" fill="#a84a24"/><rect x="117.23" y="71.64" width="6.51" height="6.51" fill="#a84a24"/><rect x="117.23" y="65.13" width="6.51" height="6.51" fill="#a84a24"/><rect x="117.23" y="58.61" width="6.51" height="6.51" fill="#a84a24"/><rect x="117.23" y="52.1" width="6.51" height="6.51" fill="#1b0003"/><rect x="117.23" y="45.59" width="6.51" height="6.51" fill="#d84b13"/><rect x="117.23" y="39.08" width="6.51" height="6.51" fill="#1b0003"/><rect x="117.23" y="32.56" width="6.51" height="6.51" fill="#a84a24"/><rect x="117.23" y="26.05" width="6.51" height="6.51" fill="#a84a24"/><rect x="117.23" y="19.54" width="6.51" height="6.51" fill="#a84a24"/><rect x="117.23" y="13.02" width="6.51" height="6.51" fill="#1b0003"/><rect x="110.72" y="110.72" width="6.51" height="6.51" fill="#1b0003"/><rect x="110.72" y="104.2" width="6.51" height="6.51" fill="#a84a24"/><rect x="110.72" y="97.69" width="6.51" height="6.51" fill="#a84a24"/><rect x="110.72" y="91.18" width="6.51" height="6.51" fill="#e86f3f"/><rect x="110.72" y="84.66" width="6.51" height="6.51" fill="#e86f3f"/><rect x="110.72" y="78.15" width="6.51" height="6.51" fill="#e86f3f"/><rect x="110.72" y="71.64" width="6.51" height="6.51" fill="#e86f3f"/><rect x="110.72" y="65.13" width="6.51" height="6.51" fill="#e86f3f"/><rect x="110.72" y="58.61" width="6.51" height="6.51" fill="#e86f3f"/><rect x="110.72" y="52.1" width="6.51" height="6.51" fill="#1b0003"/><rect x="110.72" y="45.59" width="6.51" height="6.51" fill="#d84b13"/><rect x="110.72" y="39.08" width="6.51" height="6.51" fill="#1b0003"/><rect x="110.72" y="32.56" width="6.51" height="6.51" fill="#e86f3f"/><rect x="110.72" y="26.05" width="6.51" height="6.51" fill="#a84a24"/><rect x="110.72" y="19.54" width="6.51" height="6.51" fill="#e86f3f"/><rect x="110.72" y="13.02" width="6.51" height="6.51" fill="#e86f3f"/><rect x="110.72" y="6.51" width="6.51" height="6.51" fill="#1b0003"/><rect x="104.2" y="110.72" width="6.51" height="6.51" fill="#1b0003"/><rect x="104.2" y="104.2" width="6.51" height="6.51" fill="#e86f3f"/><rect x="104.2" y="97.69" width="6.51" height="6.51" fill="#a84a24"/><rect x="104.2" y="91.18" width="6.51" height="6.51" fill="#e86f3f"/><rect x="104.2" y="84.66" width="6.51" height="6.51" fill="#fa9c5c"/><rect x="104.2" y="78.15" width="6.51" height="6.51" fill="#e86f3f"/><rect x="104.2" y="71.64" width="6.51" height="6.51" fill="#fa9c5c"/><rect x="104.2" y="65.13" width="6.51" height="6.51" fill="#fa9c5c"/><rect x="104.2" y="58.61" width="6.51" height="6.51" fill="#e86f3f"/><rect x="104.2" y="52.1" width="6.51" height="6.51" fill="#1b0003"/><rect x="104.2" y="45.59" width="6.51" height="6.51" fill="#db6d12"/><rect x="104.2" y="39.08" width="6.51" height="6.51" fill="#1b0003"/><rect x="104.2" y="32.56" width="6.51" height="6.51" fill="#a84a24"/><rect x="104.2" y="26.05" width="6.51" height="6.51" fill="#fa9c5c"/><rect x="104.2" y="19.54" width="6.51" height="6.51" fill="#e86f3f"/><rect x="104.2" y="13.02" width="6.51" height="6.51" fill="#fa9c5c"/><rect x="104.2" y="6.51" width="6.51" height="6.51" fill="#e86f3f"/><rect x="104.2" width="6.51" height="6.51" fill="#1b0003"/><rect x="97.69" y="110.72" width="6.51" height="6.51" fill="#1b0003"/><rect x="97.69" y="104.2" width="6.51" height="6.51" fill="#a84a24"/><rect x="97.69" y="97.69" width="6.51" height="6.51" fill="#e86f3f"/><rect x="97.69" y="91.18" width="6.51" height="6.51" fill="#fa9c5c"/><rect x="97.69" y="84.66" width="6.51" height="6.51" fill="#e86f3f"/><rect x="97.69" y="78.15" width="6.51" height="6.51" fill="#fa9c5c"/><rect x="97.69" y="71.64" width="6.51" height="6.51" fill="#fa9c5c"/><rect x="97.69" y="65.13" width="6.51" height="6.51" fill="#fa9c5c"/><rect x="97.69" y="58.61" width="6.51" height="6.51" fill="#e86f3f"/><rect x="97.69" y="52.1" width="6.51" height="6.51" fill="#1b0003"/><rect x="97.69" y="45.59" width="6.51" height="6.51" fill="#f7c45e"/><rect x="97.69" y="39.08" width="6.51" height="6.51" fill="#1b0003"/><rect x="97.69" y="32.56" width="6.51" height="6.51" fill="#e86f3f"/><rect x="97.69" y="26.05" width="6.51" height="6.51" fill="#e86f3f"/><rect x="97.69" y="19.54" width="6.51" height="6.51" fill="#fa9c5c"/><rect x="97.69" y="13.02" width="6.51" height="6.51" fill="#e86f3f"/><rect x="97.69" y="6.51" width="6.51" height="6.51" fill="#fa9c5c"/><rect x="97.69" width="6.51" height="6.51" fill="#1b0003"/><rect x="91.18" y="110.72" width="6.51" height="6.51" fill="#1b0003"/><rect x="91.18" y="104.2" width="6.51" height="6.51" fill="#e86f3f"/><rect x="91.18" y="97.69" width="6.51" height="6.51" fill="#fa9c5c"/><rect x="91.18" y="91.18" width="6.51" height="6.51" fill="#e86f3f"/><rect x="91.18" y="84.66" width="6.51" height="6.51" fill="#fa9c5c"/><rect x="91.18" y="78.15" width="6.51" height="6.51" fill="#fa9c5c"/><rect x="91.18" y="71.64" width="6.51" height="6.51" fill="#fa9c5c"/><rect x="91.18" y="65.13" width="6.51" height="6.51" fill="#fa9c5c"/><rect x="91.18" y="58.61" width="6.51" height="6.51" fill="#e86f3f"/><rect x="91.18" y="52.1" width="6.51" height="6.51" fill="#1b0003"/><rect x="91.18" y="45.59" width="6.51" height="6.51" fill="#f9f2d4"/><rect x="91.18" y="39.08" width="6.51" height="6.51" fill="#1b0003"/><rect x="91.18" y="32.56" width="6.51" height="6.51" fill="#e86f3f"/><rect x="91.18" y="26.05" width="6.51" height="6.51" fill="#fa9c5c"/><rect x="91.18" y="19.54" width="6.51" height="6.51" fill="#e86f3f"/><rect x="91.18" y="13.02" width="6.51" height="6.51" fill="#fa9c5c"/><rect x="91.18" y="6.51" width="6.51" height="6.51" fill="#fa9c5c"/><rect x="91.18" width="6.51" height="6.51" fill="#1b0003"/><rect x="84.66" y="110.72" width="6.51" height="6.51" fill="#1b0003"/><rect x="84.66" y="104.2" width="6.51" height="6.51" fill="#e86f3f"/><rect x="84.66" y="97.69" width="6.51" height="6.51" fill="#e86f3f"/><rect x="84.66" y="91.18" width="6.51" height="6.51" fill="#fa9c5c"/><rect x="84.66" y="84.66" width="6.51" height="6.51" fill="#fa9c5c"/><rect x="84.66" y="78.15" width="6.51" height="6.51" fill="#fa9c5c"/><rect x="84.66" y="71.64" width="6.51" height="6.51" fill="#fa9c5c"/><rect x="84.66" y="65.13" width="6.51" height="6.51" fill="#fa9c5c"/><rect x="84.66" y="58.61" width="6.51" height="6.51" fill="#e86f3f"/><rect x="84.66" y="52.1" width="6.51" height="6.51" fill="#1b0003"/><rect x="84.66" y="45.59" width="6.51" height="6.51" fill="#f7c45e"/><rect x="84.66" y="39.08" width="6.51" height="6.51" fill="#1b0003"/><rect x="84.66" y="32.56" width="6.51" height="6.51" fill="#e86f3f"/><rect x="84.66" y="26.05" width="6.51" height="6.51" fill="#e86f3f"/><rect x="84.66" y="19.54" width="6.51" height="6.51" fill="#fa9c5c"/><rect x="84.66" y="13.02" width="6.51" height="6.51" fill="#fa9c5c"/><rect x="84.66" y="6.51" width="6.51" height="6.51" fill="#fa9c5c"/><rect x="84.66" width="6.51" height="6.51" fill="#1b0003"/><rect x="78.15" y="110.72" width="6.51" height="6.51" fill="#1b0003"/><rect x="78.15" y="104.2" width="6.51" height="6.51" fill="#e86f3f"/><rect x="78.15" y="97.69" width="6.51" height="6.51" fill="#fa9c5c"/><rect x="78.15" y="91.18" width="6.51" height="6.51" fill="#fa9c5c"/><rect x="78.15" y="84.66" width="6.51" height="6.51" fill="#fa9c5c"/><rect x="78.15" y="78.15" width="6.51" height="6.51" fill="#fa9c5c"/><rect x="78.15" y="71.64" width="6.51" height="6.51" fill="#fa9c5c"/><rect x="78.15" y="65.13" width="6.51" height="6.51" fill="#e86f3f"/><rect x="78.15" y="58.61" width="6.51" height="6.51" fill="#e86f3f"/><rect x="78.15" y="52.1" width="6.51" height="6.51" fill="#1b0003"/><rect x="78.15" y="45.59" width="6.51" height="6.51" fill="#db6d12"/><rect x="78.15" y="39.08" width="6.51" height="6.51" fill="#1b0003"/><rect x="78.15" y="32.56" width="6.51" height="6.51" fill="#e86f3f"/><rect x="78.15" y="26.05" width="6.51" height="6.51" fill="#e86f3f"/><rect x="78.15" y="19.54" width="6.51" height="6.51" fill="#fa9c5c"/><rect x="78.15" y="13.02" width="6.51" height="6.51" fill="#fa9c5c"/><rect x="78.15" y="6.51" width="6.51" height="6.51" fill="#fa9c5c"/><rect x="78.15" width="6.51" height="6.51" fill="#1b0003"/><rect x="71.64" y="110.72" width="6.51" height="6.51" fill="#1b0003"/><rect x="71.64" y="104.2" width="6.51" height="6.51" fill="#e86f3f"/><rect x="71.64" y="97.69" width="6.51" height="6.51" fill="#fa9c5c"/><rect x="71.64" y="91.18" width="6.51" height="6.51" fill="#fa9c5c"/><rect x="71.64" y="84.66" width="6.51" height="6.51" fill="#fa9c5c"/><rect x="71.64" y="78.15" width="6.51" height="6.51" fill="#fa9c5c"/><rect x="71.64" y="71.64" width="6.51" height="6.51" fill="#fa9c5c"/><rect x="71.64" y="65.13" width="6.51" height="6.51" fill="#e86f3f"/><rect x="71.64" y="58.61" width="6.51" height="6.51" fill="#1b0003"/><rect x="71.64" y="52.1" width="6.51" height="6.51" fill="#1b0003"/><rect x="71.64" y="45.59" width="6.51" height="6.51" fill="#1b0003"/><rect x="71.64" y="39.08" width="6.51" height="6.51" fill="#1b0003"/><rect x="71.64" y="32.56" width="6.51" height="6.51" fill="#1b0003"/><rect x="71.64" y="26.05" width="6.51" height="6.51" fill="#1b0003"/><rect x="71.64" y="19.54" width="6.51" height="6.51" fill="#fa9c5c"/><rect x="71.64" y="13.02" width="6.51" height="6.51" fill="#fa9c5c"/><rect x="71.64" y="6.51" width="6.51" height="6.51" fill="#fa9c5c"/><rect x="71.64" width="6.51" height="6.51" fill="#1b0003"/><rect x="65.13" y="110.72" width="6.51" height="6.51" fill="#1b0003"/><rect x="65.13" y="104.2" width="6.51" height="6.51" fill="#e86f3f"/><rect x="65.13" y="97.69" width="6.51" height="6.51" fill="#fa9c5c"/><rect x="65.13" y="91.18" width="6.51" height="6.51" fill="#fa9c5c"/><rect x="65.13" y="84.66" width="6.51" height="6.51" fill="#fa9c5c"/><rect x="65.13" y="78.15" width="6.51" height="6.51" fill="#fa9c5c"/><rect x="65.13" y="71.64" width="6.51" height="6.51" fill="#fa9c5c"/><rect x="65.13" y="65.13" width="6.51" height="6.51" fill="#e86f3f"/><rect x="65.13" y="58.61" width="6.51" height="6.51" fill="#1b0003"/><rect x="65.13" y="52.1" width="6.51" height="6.51" fill="#db6d12"/><rect x="65.13" y="45.59" width="6.51" height="6.51" fill="#d84b13"/><rect x="65.13" y="39.08" width="6.51" height="6.51" fill="#d84b13"/><rect x="65.13" y="32.56" width="6.51" height="6.51" fill="#f7c45e"/><rect x="65.13" y="26.05" width="6.51" height="6.51" fill="#1b0003"/><rect x="65.13" y="19.54" width="6.51" height="6.51" fill="#fa9c5c"/><rect x="65.13" y="13.02" width="6.51" height="6.51" fill="#fa9c5c"/><rect x="65.13" y="6.51" width="6.51" height="6.51" fill="#fa9c5c"/><rect x="65.13" width="6.51" height="6.51" fill="#1b0003"/><rect x="58.61" y="110.72" width="6.51" height="6.51" fill="#1b0003"/><rect x="58.61" y="104.2" width="6.51" height="6.51" fill="#e86f3f"/><rect x="58.61" y="97.69" width="6.51" height="6.51" fill="#fa9c5c"/><rect x="58.61" y="91.18" width="6.51" height="6.51" fill="#fa9c5c"/><rect x="58.61" y="84.66" width="6.51" height="6.51" fill="#fa9c5c"/><rect x="58.61" y="78.15" width="6.51" height="6.51" fill="#fa9c5c"/><rect x="58.61" y="71.64" width="6.51" height="6.51" fill="#fa9c5c"/><rect x="58.61" y="65.13" width="6.51" height="6.51" fill="#e86f3f"/><rect x="58.61" y="58.61" width="6.51" height="6.51" fill="#1b0003"/><rect x="58.61" y="52.1" width="6.51" height="6.51" fill="#db6d12"/><rect x="58.61" y="45.59" width="6.51" height="6.51" fill="#d84b13"/><rect x="58.61" y="39.08" width="6.51" height="6.51" fill="#d84b13"/><rect x="58.61" y="32.56" width="6.51" height="6.51" fill="#f9f2d4"/><rect x="58.61" y="26.05" width="6.51" height="6.51" fill="#1b0003"/><rect x="58.61" y="19.54" width="6.51" height="6.51" fill="#fa9c5c"/><rect x="58.61" y="13.02" width="6.51" height="6.51" fill="#fa9c5c"/><rect x="58.61" y="6.51" width="6.51" height="6.51" fill="#fa9c5c"/><rect x="58.61" width="6.51" height="6.51" fill="#1b0003"/><rect x="52.1" y="110.72" width="6.51" height="6.51" fill="#1b0003"/><rect x="52.1" y="104.2" width="6.51" height="6.51" fill="#e86f3f"/><rect x="52.1" y="97.69" width="6.51" height="6.51" fill="#fa9c5c"/><rect x="52.1" y="91.18" width="6.51" height="6.51" fill="#fa9c5c"/><rect x="52.1" y="84.66" width="6.51" height="6.51" fill="#fa9c5c"/><rect x="52.1" y="78.15" width="6.51" height="6.51" fill="#fa9c5c"/><rect x="52.1" y="71.64" width="6.51" height="6.51" fill="#fa9c5c"/><rect x="52.1" y="65.13" width="6.51" height="6.51" fill="#e86f3f"/><rect x="52.1" y="58.61" width="6.51" height="6.51" fill="#1b0003"/><rect x="52.1" y="52.1" width="6.51" height="6.51" fill="#1b0003"/><rect x="52.1" y="45.59" width="6.51" height="6.51" fill="#1b0003"/><rect x="52.1" y="39.08" width="6.51" height="6.51" fill="#1b0003"/><rect x="52.1" y="32.56" width="6.51" height="6.51" fill="#1b0003"/><rect x="52.1" y="26.05" width="6.51" height="6.51" fill="#1b0003"/><rect x="52.1" y="19.54" width="6.51" height="6.51" fill="#fa9c5c"/><rect x="52.1" y="13.02" width="6.51" height="6.51" fill="#fa9c5c"/><rect x="52.1" y="6.51" width="6.51" height="6.51" fill="#fa9c5c"/><rect x="52.1" width="6.51" height="6.51" fill="#1b0003"/><rect x="45.59" y="110.72" width="6.51" height="6.51" fill="#1b0003"/><rect x="45.59" y="104.2" width="6.51" height="6.51" fill="#e86f3f"/><rect x="45.59" y="97.69" width="6.51" height="6.51" fill="#fa9c5c"/><rect x="45.59" y="91.18" width="6.51" height="6.51" fill="#fa9c5c"/><rect x="45.59" y="84.66" width="6.51" height="6.51" fill="#fa9c5c"/><rect x="45.59" y="78.15" width="6.51" height="6.51" fill="#fa9c5c"/><rect x="45.59" y="71.64" width="6.51" height="6.51" fill="#fa9c5c"/><rect x="45.59" y="65.13" width="6.51" height="6.51" fill="#e86f3f"/><rect x="45.59" y="58.61" width="6.51" height="6.51" fill="#e86f3f"/><rect x="45.59" y="52.1" width="6.51" height="6.51" fill="#1b0003"/><rect x="45.59" y="45.59" width="6.51" height="6.51" fill="#db6d12"/><rect x="45.59" y="39.08" width="6.51" height="6.51" fill="#1b0003"/><rect x="45.59" y="32.56" width="6.51" height="6.51" fill="#e86f3f"/><rect x="45.59" y="26.05" width="6.51" height="6.51" fill="#e86f3f"/><rect x="45.59" y="19.54" width="6.51" height="6.51" fill="#fa9c5c"/><rect x="45.59" y="13.02" width="6.51" height="6.51" fill="#fa9c5c"/><rect x="45.59" y="6.51" width="6.51" height="6.51" fill="#fa9c5c"/><rect x="45.59" width="6.51" height="6.51" fill="#1b0003"/><rect x="39.08" y="110.72" width="6.51" height="6.51" fill="#1b0003"/><rect x="39.08" y="104.2" width="6.51" height="6.51" fill="#e86f3f"/><rect x="39.08" y="97.69" width="6.51" height="6.51" fill="#fa9c5c"/><rect x="39.08" y="91.18" width="6.51" height="6.51" fill="#fa9c5c"/><rect x="39.08" y="84.66" width="6.51" height="6.51" fill="#fa9c5c"/><rect x="39.08" y="78.15" width="6.51" height="6.51" fill="#fa9c5c"/><rect x="39.08" y="71.64" width="6.51" height="6.51" fill="#fa9c5c"/><rect x="39.08" y="65.13" width="6.51" height="6.51" fill="#fa9c5c"/><rect x="39.08" y="58.61" width="6.51" height="6.51" fill="#e86f3f"/><rect x="39.08" y="52.1" width="6.51" height="6.51" fill="#1b0003"/><rect x="39.08" y="45.59" width="6.51" height="6.51" fill="#f7c45e"/><rect x="39.08" y="39.08" width="6.51" height="6.51" fill="#1b0003"/><rect x="39.08" y="32.56" width="6.51" height="6.51" fill="#e86f3f"/><rect x="39.08" y="26.05" width="6.51" height="6.51" fill="#fa9c5c"/><rect x="39.08" y="19.54" width="6.51" height="6.51" fill="#fa9c5c"/><rect x="39.08" y="13.02" width="6.51" height="6.51" fill="#fa9c5c"/><rect x="39.08" y="6.51" width="6.51" height="6.51" fill="#fa9c5c"/><rect x="39.08" width="6.51" height="6.51" fill="#1b0003"/><rect x="32.56" y="110.72" width="6.51" height="6.51" fill="#1b0003"/><rect x="32.56" y="104.2" width="6.51" height="6.51" fill="#e86f3f"/><rect x="32.56" y="97.69" width="6.51" height="6.51" fill="#fa9c5c"/><rect x="32.56" y="91.18" width="6.51" height="6.51" fill="#fa9c5c"/><rect x="32.56" y="84.66" width="6.51" height="6.51" fill="#fa9c5c"/><rect x="32.56" y="78.15" width="6.51" height="6.51" fill="#fa9c5c"/><rect x="32.56" y="71.64" width="6.51" height="6.51" fill="#fa9c5c"/><rect x="32.56" y="65.13" width="6.51" height="6.51" fill="#fa9c5c"/><rect x="32.56" y="58.61" width="6.51" height="6.51" fill="#e86f3f"/><rect x="32.56" y="52.1" width="6.51" height="6.51" fill="#1b0003"/><rect x="32.56" y="45.59" width="6.51" height="6.51" fill="#f7c45e"/><rect x="32.56" y="39.08" width="6.51" height="6.51" fill="#1b0003"/><rect x="32.56" y="32.56" width="6.51" height="6.51" fill="#e86f3f"/><rect x="32.56" y="26.05" width="6.51" height="6.51" fill="#fa9c5c"/><rect x="32.56" y="19.54" width="6.51" height="6.51" fill="#fa9c5c"/><rect x="32.56" y="13.02" width="6.51" height="6.51" fill="#fa9c5c"/><rect x="32.56" y="6.51" width="6.51" height="6.51" fill="#fa9c5c"/><rect x="32.56" width="6.51" height="6.51" fill="#1b0003"/><rect x="26.05" y="110.72" width="6.51" height="6.51" fill="#1b0003"/><rect x="26.05" y="104.2" width="6.51" height="6.51" fill="#e86f3f"/><rect x="26.05" y="97.69" width="6.51" height="6.51" fill="#fa9c5c"/><rect x="26.05" y="91.18" width="6.51" height="6.51" fill="#fa9c5c"/><rect x="26.05" y="84.66" width="6.51" height="6.51" fill="#fa9c5c"/><rect x="26.05" y="78.15" width="6.51" height="6.51" fill="#fa9c5c"/><rect x="26.05" y="71.64" width="6.51" height="6.51" fill="#fa9c5c"/><rect x="26.05" y="65.13" width="6.51" height="6.51" fill="#fa9c5c"/><rect x="26.05" y="58.61" width="6.51" height="6.51" fill="#e86f3f"/><rect x="26.05" y="52.1" width="6.51" height="6.51" fill="#1b0003"/><rect x="26.05" y="45.59" width="6.51" height="6.51" fill="#f7c45e"/><rect x="26.05" y="39.08" width="6.51" height="6.51" fill="#1b0003"/><rect x="26.05" y="32.56" width="6.51" height="6.51" fill="#e86f3f"/><rect x="26.05" y="26.05" width="6.51" height="6.51" fill="#fa9c5c"/><rect x="26.05" y="19.54" width="6.51" height="6.51" fill="#fa9c5c"/><rect x="26.05" y="13.02" width="6.51" height="6.51" fill="#fa9c5c"/><rect x="26.05" y="6.51" width="6.51" height="6.51" fill="#fa9c5c"/><rect x="26.05" width="6.51" height="6.51" fill="#1b0003"/><rect x="19.54" y="110.72" width="6.51" height="6.51" fill="#1b0003"/><rect x="19.54" y="104.2" width="6.51" height="6.51" fill="#e86f3f"/><rect x="19.54" y="97.69" width="6.51" height="6.51" fill="#fa9c5c"/><rect x="19.54" y="91.18" width="6.51" height="6.51" fill="#fa9c5c"/><rect x="19.54" y="84.66" width="6.51" height="6.51" fill="#fa9c5c"/><rect x="19.54" y="78.15" width="6.51" height="6.51" fill="#fa9c5c"/><rect x="19.54" y="71.64" width="6.51" height="6.51" fill="#fa9c5c"/><rect x="19.54" y="65.13" width="6.51" height="6.51" fill="#fa9c5c"/><rect x="19.54" y="58.61" width="6.51" height="6.51" fill="#e86f3f"/><rect x="19.54" y="52.1" width="6.51" height="6.51" fill="#1b0003"/><rect x="19.54" y="45.59" width="6.51" height="6.51" fill="#f9f2d4"/><rect x="19.54" y="39.08" width="6.51" height="6.51" fill="#1b0003"/><rect x="19.54" y="32.56" width="6.51" height="6.51" fill="#e86f3f"/><rect x="19.54" y="26.05" width="6.51" height="6.51" fill="#fa9c5c"/><rect x="19.54" y="19.54" width="6.51" height="6.51" fill="#fa9c5c"/><rect x="19.54" y="13.02" width="6.51" height="6.51" fill="#fa9c5c"/><rect x="19.54" y="6.51" width="6.51" height="6.51" fill="#fa9c5c"/><rect x="19.54" width="6.51" height="6.51" fill="#1b0003"/><rect x="13.02" y="110.72" width="6.51" height="6.51" fill="#1b0003"/><rect x="13.02" y="104.2" width="6.51" height="6.51" fill="#e86f3f"/><rect x="13.02" y="97.69" width="6.51" height="6.51" fill="#fa9c5c"/><rect x="13.02" y="91.18" width="6.51" height="6.51" fill="#fa9c5c"/><rect x="13.02" y="84.66" width="6.51" height="6.51" fill="#fa9c5c"/><rect x="13.02" y="78.15" width="6.51" height="6.51" fill="#fa9c5c"/><rect x="13.02" y="71.64" width="6.51" height="6.51" fill="#fa9c5c"/><rect x="13.02" y="65.13" width="6.51" height="6.51" fill="#fa9c5c"/><rect x="13.02" y="58.61" width="6.51" height="6.51" fill="#e86f3f"/><rect x="13.02" y="52.1" width="6.51" height="6.51" fill="#1b0003"/><rect x="13.02" y="45.59" width="6.51" height="6.51" fill="#f9f2d4"/><rect x="13.02" y="39.08" width="6.51" height="6.51" fill="#1b0003"/><rect x="13.02" y="32.56" width="6.51" height="6.51" fill="#e86f3f"/><rect x="13.02" y="26.05" width="6.51" height="6.51" fill="#fa9c5c"/><rect x="13.02" y="19.54" width="6.51" height="6.51" fill="#fa9c5c"/><rect x="13.02" y="13.02" width="6.51" height="6.51" fill="#fa9c5c"/><rect x="13.02" y="6.51" width="6.51" height="6.51" fill="#1b0003"/><rect x="6.51" y="110.72" width="6.51" height="6.51" fill="#1b0003"/><rect x="6.51" y="104.2" width="6.51" height="6.51" fill="#e86f3f"/><rect x="6.51" y="97.69" width="6.51" height="6.51" fill="#fa9c5c"/><rect x="6.51" y="91.18" width="6.51" height="6.51" fill="#fa9c5c"/><rect x="6.51" y="84.66" width="6.51" height="6.51" fill="#fa9c5c"/><rect x="6.51" y="78.15" width="6.51" height="6.51" fill="#fa9c5c"/><rect x="6.51" y="71.64" width="6.51" height="6.51" fill="#fa9c5c"/><rect x="6.51" y="65.13" width="6.51" height="6.51" fill="#fa9c5c"/><rect x="6.51" y="58.61" width="6.51" height="6.51" fill="#e86f3f"/><rect x="6.51" y="52.1" width="6.51" height="6.51" fill="#1b0003"/><rect x="6.51" y="45.59" width="6.51" height="6.51" fill="#f9f2d4"/><rect x="6.51" y="39.08" width="6.51" height="6.51" fill="#1b0003"/><rect x="6.51" y="32.56" width="6.51" height="6.51" fill="#e86f3f"/><rect x="6.51" y="26.05" width="6.51" height="6.51" fill="#fa9c5c"/><rect x="6.51" y="19.54" width="6.51" height="6.51" fill="#fa9c5c"/><rect x="6.51" y="13.02" width="6.51" height="6.51" fill="#1b0003"/><rect y="104.2" width="6.51" height="6.51" fill="#1b0003"/><rect y="97.69" width="6.51" height="6.51" fill="#1b0003"/><rect y="91.18" width="6.51" height="6.51" fill="#1b0003"/><rect y="84.66" width="6.51" height="6.51" fill="#1b0003"/><rect y="78.15" width="6.51" height="6.51" fill="#1b0003"/><rect y="71.64" width="6.51" height="6.51" fill="#1b0003"/><rect y="65.13" width="6.51" height="6.51" fill="#1b0003"/><rect y="58.61" width="6.51" height="6.51" fill="#1b0003"/><rect y="52.1" width="6.51" height="6.51" fill="#1b0003"/><rect y="45.59" width="6.51" height="6.51" fill="#1b0003"/><rect y="39.08" width="6.51" height="6.51" fill="#1b0003"/><rect y="32.56" width="6.51" height="6.51" fill="#1b0003"/><rect y="26.05" width="6.51" height="6.51" fill="#1b0003"/><rect y="19.54" width="6.51" height="6.51" fill="#1b0003"/></g></g></g></svg>