<svg xmlns="http://www.w3.org/2000/svg" width="129.01" height="129.01" viewBox="0 0 129.01 129.01"><g id="Layer_2" data-name="Layer 2"><g id="items"><g id="Chicken"><rect x="123.15" y="52.78" width="5.86" height="5.86" fill="#1b0003"/><rect x="123.15" y="46.91" width="5.86" height="5.86" fill="#1b0003"/><rect x="123.15" y="41.05" width="5.86" height="5.86" fill="#1b0003"/><rect x="123.15" y="35.19" width="5.86" height="5.86" fill="#1b0003"/><rect x="123.15" y="29.32" width="5.86" height="5.87" fill="#1b0003"/><rect x="123.15" y="23.46" width="5.86" height="5.86" fill="#1b0003"/><rect x="123.15" y="17.59" width="5.86" height="5.86" fill="#1b0003"/><rect x="117.28" y="58.64" width="5.87" height="5.86" fill="#1b0003"/><rect x="117.28" y="52.78" width="5.87" height="5.86" fill="#932f1f"/><rect x="117.28" y="46.91" width="5.87" height="5.86" fill="#932f1f"/><rect x="117.28" y="41.05" width="5.87" height="5.86" fill="#932f1f"/><rect x="117.28" y="35.19" width="5.87" height="5.86" fill="#7f1e14"/><rect x="117.28" y="29.32" width="5.87" height="5.87" fill="#7f1e14"/><rect x="117.28" y="23.46" width="5.87" height="5.86" fill="#7f1e14"/><rect x="117.28" y="17.59" width="5.87" height="5.86" fill="#7f1e14"/><rect x="117.28" y="11.73" width="5.87" height="5.86" fill="#1b0003"/><rect x="111.42" y="64.51" width="5.86" height="5.87" fill="#1b0003"/><rect x="111.42" y="58.64" width="5.86" height="5.86" fill="#932f1f"/><rect x="111.42" y="52.78" width="5.86" height="5.86" fill="#932f1f"/><rect x="111.42" y="46.91" width="5.86" height="5.86" fill="#7f1e14"/><rect x="111.42" y="41.05" width="5.86" height="5.86" fill="#7f1e14"/><rect x="111.42" y="35.19" width="5.86" height="5.86" fill="#7f1e14"/><rect x="111.42" y="29.32" width="5.86" height="5.87" fill="#7f1e14"/><rect x="111.42" y="23.46" width="5.86" height="5.86" fill="#7f1e14"/><rect x="111.42" y="17.59" width="5.86" height="5.86" fill="#7f1e14"/><rect x="111.42" y="11.73" width="5.86" height="5.86" fill="#932f1f"/><rect x="111.42" y="5.87" width="5.86" height="5.86" fill="#1b0003"/><rect x="105.55" y="70.37" width="5.86" height="5.86" fill="#1b0003"/><rect x="105.55" y="64.51" width="5.86" height="5.87" fill="#932f1f"/><rect x="105.55" y="58.64" width="5.86" height="5.86" fill="#932f1f"/><rect x="105.55" y="52.78" width="5.86" height="5.86" fill="#7f1e14"/><rect x="105.55" y="46.91" width="5.86" height="5.86" fill="#7f1e14"/><rect x="105.55" y="41.05" width="5.86" height="5.86" fill="#7f1e14"/><rect x="105.55" y="35.19" width="5.86" height="5.86" fill="#7f1e14"/><rect x="105.55" y="29.32" width="5.86" height="5.87" fill="#a84a24"/><rect x="105.55" y="23.46" width="5.86" height="5.86" fill="#a84a24"/><rect x="105.55" y="17.59" width="5.86" height="5.86" fill="#a84a24"/><rect x="105.55" y="11.73" width="5.86" height="5.86" fill="#a84a24"/><rect x="105.55" y="5.87" width="5.86" height="5.86" fill="#a84a24"/><rect x="105.55" width="5.86" height="5.87" fill="#1b0003"/><rect x="99.69" y="70.37" width="5.86" height="5.86" fill="#1b0003"/><rect x="99.69" y="64.51" width="5.86" height="5.87" fill="#932f1f"/><rect x="99.69" y="58.64" width="5.86" height="5.86" fill="#7f1e14"/><rect x="99.69" y="52.78" width="5.86" height="5.86" fill="#7f1e14"/><rect x="99.69" y="46.91" width="5.86" height="5.86" fill="#7f1e14"/><rect x="99.69" y="41.05" width="5.86" height="5.86" fill="#7f1e14"/><rect x="99.69" y="35.19" width="5.86" height="5.86" fill="#a84a24"/><rect x="99.69" y="29.32" width="5.86" height="5.87" fill="#a84a24"/><rect x="99.69" y="23.46" width="5.86" height="5.86" fill="#a84a24"/><rect x="99.69" y="17.59" width="5.86" height="5.86" fill="#a84a24"/><rect x="99.69" y="11.73" width="5.86" height="5.86" fill="#a84a24"/><rect x="99.69" y="5.87" width="5.86" height="5.86" fill="#a84a24"/><rect x="99.69" width="5.86" height="5.87" fill="#1b0003"/><rect x="93.83" y="76.23" width="5.86" height="5.86" fill="#1b0003"/><rect x="93.83" y="70.37" width="5.86" height="5.86" fill="#932f1f"/><rect x="93.83" y="64.51" width="5.86" height="5.87" fill="#932f1f"/><rect x="93.83" y="58.64" width="5.86" height="5.86" fill="#7f1e14"/><rect x="93.83" y="52.78" width="5.86" height="5.86" fill="#7f1e14"/><rect x="93.83" y="46.91" width="5.86" height="5.86" fill="#7f1e14"/><rect x="93.83" y="41.05" width="5.86" height="5.86" fill="#a84a24"/><rect x="93.83" y="35.19" width="5.86" height="5.86" fill="#932f1f"/><rect x="93.83" y="29.32" width="5.86" height="5.87" fill="#a84a24"/><rect x="93.83" y="23.46" width="5.86" height="5.86" fill="#a84a24"/><rect x="93.83" y="17.59" width="5.86" height="5.86" fill="#a84a24"/><rect x="93.83" y="11.73" width="5.86" height="5.86" fill="#f2904e"/><rect x="93.83" y="5.87" width="5.86" height="5.86" fill="#a84a24"/><rect x="93.83" width="5.86" height="5.87" fill="#1b0003"/><rect x="87.96" y="76.23" width="5.87" height="5.86" fill="#1b0003"/><rect x="87.96" y="70.37" width="5.87" height="5.86" fill="#932f1f"/><rect x="87.96" y="64.51" width="5.87" height="5.87" fill="#7f1e14"/><rect x="87.96" y="58.64" width="5.87" height="5.86" fill="#7f1e14"/><rect x="87.96" y="52.78" width="5.87" height="5.86" fill="#7f1e14"/><rect x="87.96" y="46.91" width="5.87" height="5.86" fill="#a84a24"/><rect x="87.96" y="41.05" width="5.87" height="5.86" fill="#a84a24"/><rect x="87.96" y="35.19" width="5.87" height="5.86" fill="#a84a24"/><rect x="87.96" y="29.32" width="5.87" height="5.87" fill="#a84a24"/><rect x="87.96" y="23.46" width="5.87" height="5.86" fill="#a84a24"/><rect x="87.96" y="17.59" width="5.87" height="5.86" fill="#a84a24"/><rect x="87.96" y="11.73" width="5.87" height="5.86" fill="#a84a24"/><rect x="87.96" y="5.87" width="5.87" height="5.86" fill="#932f1f"/><rect x="87.96" width="5.87" height="5.87" fill="#1b0003"/><rect x="82.1" y="76.23" width="5.86" height="5.86" fill="#1b0003"/><rect x="82.1" y="70.37" width="5.86" height="5.86" fill="#932f1f"/><rect x="82.1" y="64.51" width="5.86" height="5.87" fill="#7f1e14"/><rect x="82.1" y="58.64" width="5.86" height="5.86" fill="#7f1e14"/><rect x="82.1" y="52.78" width="5.86" height="5.86" fill="#7f1e14"/><rect x="82.1" y="46.91" width="5.86" height="5.86" fill="#a84a24"/><rect x="82.1" y="41.05" width="5.86" height="5.86" fill="#a84a24"/><rect x="82.1" y="35.19" width="5.86" height="5.86" fill="#a84a24"/><rect x="82.1" y="29.32" width="5.86" height="5.87" fill="#a84a24"/><rect x="82.1" y="23.46" width="5.86" height="5.86" fill="#a84a24"/><rect x="82.1" y="17.59" width="5.86" height="5.86" fill="#f2904e"/><rect x="82.1" y="11.73" width="5.86" height="5.86" fill="#a84a24"/><rect x="82.1" y="5.87" width="5.86" height="5.86" fill="#a84a24"/><rect x="82.1" width="5.86" height="5.87" fill="#1b0003"/><rect x="76.23" y="76.23" width="5.86" height="5.86" fill="#1b0003"/><rect x="76.23" y="70.37" width="5.86" height="5.86" fill="#932f1f"/><rect x="76.23" y="64.51" width="5.86" height="5.87" fill="#7f1e14"/><rect x="76.23" y="58.64" width="5.86" height="5.86" fill="#7f1e14"/><rect x="76.23" y="52.78" width="5.86" height="5.86" fill="#a84a24"/><rect x="76.23" y="46.91" width="5.86" height="5.86" fill="#a84a24"/><rect x="76.23" y="41.05" width="5.86" height="5.86" fill="#a84a24"/><rect x="76.23" y="35.19" width="5.86" height="5.86" fill="#a84a24"/><rect x="76.23" y="29.32" width="5.86" height="5.87" fill="#a84a24"/><rect x="76.23" y="23.46" width="5.86" height="5.86" fill="#f2904e"/><rect x="76.23" y="17.59" width="5.86" height="5.86" fill="#f2904e"/><rect x="76.23" y="11.73" width="5.86" height="5.86" fill="#f2904e"/><rect x="76.23" y="5.87" width="5.86" height="5.86" fill="#a84a24"/><rect x="76.23" width="5.86" height="5.87" fill="#1b0003"/><rect x="70.37" y="76.23" width="5.86" height="5.86" fill="#1b0003"/><rect x="70.37" y="70.37" width="5.86" height="5.86" fill="#932f1f"/><rect x="70.37" y="64.51" width="5.86" height="5.87" fill="#7f1e14"/><rect x="70.37" y="58.64" width="5.86" height="5.86" fill="#7f1e14"/><rect x="70.37" y="52.78" width="5.86" height="5.86" fill="#a84a24"/><rect x="70.37" y="46.91" width="5.86" height="5.86" fill="#a84a24"/><rect x="70.37" y="41.05" width="5.86" height="5.86" fill="#932f1f"/><rect x="70.37" y="35.19" width="5.86" height="5.86" fill="#a84a24"/><rect x="70.37" y="29.32" width="5.86" height="5.87" fill="#f2904e"/><rect x="70.37" y="23.46" width="5.86" height="5.86" fill="#f2904e"/><rect x="70.37" y="17.59" width="5.86" height="5.86" fill="#f2904e"/><rect x="70.37" y="11.73" width="5.86" height="5.86" fill="#a84a24"/><rect x="70.37" y="5.87" width="5.86" height="5.86" fill="#a84a24"/><rect x="70.37" width="5.86" height="5.87" fill="#1b0003"/><rect x="64.51" y="76.23" width="5.86" height="5.86" fill="#1b0003"/><rect x="64.51" y="70.37" width="5.86" height="5.86" fill="#932f1f"/><rect x="64.51" y="64.51" width="5.86" height="5.87" fill="#7f1e14"/><rect x="64.51" y="58.64" width="5.86" height="5.86" fill="#a84a24"/><rect x="64.51" y="52.78" width="5.86" height="5.86" fill="#a84a24"/><rect x="64.51" y="46.91" width="5.86" height="5.86" fill="#a84a24"/><rect x="64.51" y="41.05" width="5.86" height="5.86" fill="#a84a24"/><rect x="64.51" y="35.19" width="5.86" height="5.86" fill="#a84a24"/><rect x="64.51" y="29.32" width="5.86" height="5.87" fill="#f2904e"/><rect x="64.51" y="23.46" width="5.86" height="5.86" fill="#f2904e"/><rect x="64.51" y="17.59" width="5.86" height="5.86" fill="#f2904e"/><rect x="64.51" y="11.73" width="5.86" height="5.86" fill="#a84a24"/><rect x="64.51" y="5.87" width="5.86" height="5.86" fill="#1b0003"/><rect x="58.64" y="82.1" width="5.86" height="5.86" fill="#1b0003"/><rect x="58.64" y="76.23" width="5.86" height="5.86" fill="#932f1f"/><rect x="58.64" y="70.37" width="5.86" height="5.86" fill="#7f1e14"/><rect x="58.64" y="64.51" width="5.86" height="5.87" fill="#7f1e14"/><rect x="58.64" y="58.64" width="5.86" height="5.86" fill="#a84a24"/><rect x="58.64" y="52.78" width="5.86" height="5.86" fill="#a84a24"/><rect x="58.64" y="46.91" width="5.86" height="5.86" fill="#a84a24"/><rect x="58.64" y="41.05" width="5.86" height="5.86" fill="#a84a24"/><rect x="58.64" y="35.19" width="5.86" height="5.86" fill="#f2904e"/><rect x="58.64" y="29.32" width="5.86" height="5.87" fill="#a84a24"/><rect x="58.64" y="23.46" width="5.86" height="5.86" fill="#f2904e"/><rect x="58.64" y="17.59" width="5.86" height="5.86" fill="#a84a24"/><rect x="58.64" y="11.73" width="5.86" height="5.86" fill="#a84a24"/><rect x="58.64" y="5.87" width="5.86" height="5.86" fill="#1b0003"/><rect x="52.78" y="87.96" width="5.87" height="5.86" fill="#1b0003"/><rect x="52.78" y="82.1" width="5.87" height="5.86" fill="#932f1f"/><rect x="52.78" y="76.23" width="5.87" height="5.86" fill="#932f1f"/><rect x="52.78" y="70.37" width="5.87" height="5.86" fill="#7f1e14"/><rect x="52.78" y="64.51" width="5.87" height="5.87" fill="#a84a24"/><rect x="52.78" y="58.64" width="5.87" height="5.86" fill="#a84a24"/><rect x="52.78" y="52.78" width="5.87" height="5.86" fill="#a84a24"/><rect x="52.78" y="46.91" width="5.87" height="5.86" fill="#a84a24"/><rect x="52.78" y="41.05" width="5.87" height="5.86" fill="#a84a24"/><rect x="52.78" y="35.19" width="5.87" height="5.86" fill="#a84a24"/><rect x="52.78" y="29.32" width="5.87" height="5.87" fill="#a84a24"/><rect x="52.78" y="23.46" width="5.87" height="5.86" fill="#a84a24"/><rect x="52.78" y="17.59" width="5.87" height="5.86" fill="#1b0003"/><rect x="52.78" y="11.73" width="5.87" height="5.86" fill="#1b0003"/><rect x="46.91" y="87.96" width="5.86" height="5.86" fill="#1b0003"/><rect x="46.91" y="82.1" width="5.86" height="5.86" fill="#932f1f"/><rect x="46.91" y="76.23" width="5.86" height="5.86" fill="#932f1f"/><rect x="46.91" y="70.37" width="5.86" height="5.86" fill="#7f1e14"/><rect x="46.91" y="64.51" width="5.86" height="5.87" fill="#a84a24"/><rect x="46.91" y="58.64" width="5.86" height="5.86" fill="#1b0003"/><rect x="46.91" y="52.78" width="5.86" height="5.86" fill="#1b0003"/><rect x="46.91" y="46.91" width="5.86" height="5.86" fill="#1b0003"/><rect x="46.91" y="41.05" width="5.86" height="5.86" fill="#1b0003"/><rect x="46.91" y="35.19" width="5.86" height="5.86" fill="#1b0003"/><rect x="46.91" y="29.32" width="5.86" height="5.87" fill="#1b0003"/><rect x="46.91" y="23.46" width="5.86" height="5.86" fill="#1b0003"/><rect x="41.05" y="93.83" width="5.86" height="5.87" fill="#1b0003"/><rect x="41.05" y="87.96" width="5.86" height="5.86" fill="#e0bea4"/><rect x="41.05" y="82.1" width="5.86" height="5.86" fill="#1b0003"/><rect x="41.05" y="76.23" width="5.86" height="5.86" fill="#932f1f"/><rect x="41.05" y="70.37" width="5.86" height="5.86" fill="#7f1e14"/><rect x="41.05" y="64.51" width="5.86" height="5.87" fill="#1b0003"/><rect x="35.18" y="117.28" width="5.86" height="5.86" fill="#1b0003"/><rect x="35.18" y="111.42" width="5.86" height="5.86" fill="#1b0003"/><rect x="35.18" y="99.69" width="5.86" height="5.86" fill="#1b0003"/><rect x="35.18" y="105.56" width="5.86" height="5.86" fill="#1b0003"/><rect x="35.18" y="93.83" width="5.86" height="5.87" fill="#ead0b9"/><rect x="35.18" y="87.96" width="5.86" height="5.86" fill="#f9f2d4"/><rect x="35.18" y="82.1" width="5.86" height="5.86" fill="#1b0003"/><rect x="35.18" y="76.23" width="5.86" height="5.86" fill="#1b0003"/><rect x="35.18" y="70.37" width="5.86" height="5.86" fill="#1b0003"/><rect x="29.32" y="123.15" width="5.86" height="5.86" fill="#1b0003"/><rect x="29.32" y="117.28" width="5.86" height="5.86" fill="#e0bea4"/><rect x="29.32" y="111.42" width="5.86" height="5.86" fill="#ead0b9"/><rect x="29.32" y="105.56" width="5.86" height="5.86" fill="#e0bea4"/><rect x="29.32" y="99.69" width="5.86" height="5.86" fill="#ead0b9"/><rect x="29.32" y="93.83" width="5.86" height="5.87" fill="#f9f2d4"/><rect x="29.32" y="87.96" width="5.86" height="5.86" fill="#1b0003"/><rect x="23.46" y="123.15" width="5.87" height="5.86" fill="#1b0003"/><rect x="23.46" y="117.28" width="5.87" height="5.86" fill="#ead0b9"/><rect x="23.46" y="111.42" width="5.87" height="5.86" fill="#f9f2d4"/><rect x="23.46" y="105.56" width="5.87" height="5.86" fill="#f9f2d4"/><rect x="23.46" y="99.69" width="5.87" height="5.86" fill="#f9f2d4"/><rect x="23.46" y="93.83" width="5.87" height="5.87" fill="#1b0003"/><rect x="17.59" y="93.83" width="5.87" height="5.87" fill="#1b0003"/><rect x="17.59" y="117.28" width="5.86" height="5.86" fill="#1b0003"/><rect x="17.59" y="111.42" width="5.86" height="5.86" fill="#e0bea4"/><rect x="17.59" y="105.56" width="5.86" height="5.86" fill="#f9f2d4"/><rect x="17.59" y="99.69" width="5.86" height="5.86" fill="#e0bea4"/><rect x="11.73" y="111.42" width="5.86" height="5.86" fill="#1b0003"/><rect x="11.73" y="105.56" width="5.86" height="5.86" fill="#f9f2d4"/><rect x="11.73" y="99.69" width="5.86" height="5.86" fill="#f9f2d4"/><rect x="11.73" y="93.83" width="5.86" height="5.87" fill="#1b0003"/><rect x="5.86" y="111.42" width="5.86" height="5.86" fill="#1b0003"/><rect x="5.86" y="105.56" width="5.86" height="5.86" fill="#f9f2d4"/><rect x="5.86" y="99.69" width="5.86" height="5.86" fill="#f9f2d4"/><rect x="5.86" y="93.83" width="5.86" height="5.87" fill="#1b0003"/><rect y="105.56" width="5.86" height="5.86" fill="#1b0003"/><rect y="99.69" width="5.86" height="5.86" fill="#1b0003"/></g></g></g></svg>