<svg xmlns="http://www.w3.org/2000/svg" width="114.5" height="84.37" viewBox="0 0 114.5 84.37"><g id="Layer_2" data-name="Layer 2"><g id="items"><g id="Crown"><rect x="108.48" y="66.29" width="6.03" height="6.03" fill="#1b0003"/><rect x="108.48" y="60.27" width="6.03" height="6.03" fill="#1b0003"/><rect x="108.48" y="54.24" width="6.03" height="6.03" fill="#1b0003"/><rect x="108.48" y="48.21" width="6.03" height="6.03" fill="#1b0003"/><rect x="108.48" y="42.19" width="6.03" height="6.03" fill="#1b0003"/><rect x="108.48" y="36.16" width="6.03" height="6.03" fill="#1b0003"/><rect x="108.48" y="30.13" width="6.03" height="6.03" fill="#1b0003"/><rect x="108.48" y="24.11" width="6.03" height="6.03" fill="#1b0003"/><rect x="108.48" y="18.08" width="6.03" height="6.03" fill="#1b0003"/><rect x="108.48" y="12.05" width="6.03" height="6.03" fill="#1b0003"/><rect x="108.48" y="6.03" width="6.03" height="6.03" fill="#1b0003"/><rect x="108.48" width="6.03" height="6.03" fill="#1b0003"/><rect x="102.45" y="72.32" width="6.03" height="6.03" fill="#1b0003"/><rect x="102.45" y="66.29" width="6.03" height="6.03" fill="#db6d12"/><rect x="102.45" y="60.27" width="6.03" height="6.03" fill="#d84b13"/><rect x="102.45" y="54.24" width="6.03" height="6.03" fill="#db6d12"/><rect x="102.45" y="48.21" width="6.03" height="6.03" fill="#d84b13"/><rect x="102.45" y="42.19" width="6.03" height="6.03" fill="#db6d12"/><rect x="102.45" y="36.16" width="6.03" height="6.03" fill="#db6d12"/><rect x="102.45" y="30.13" width="6.03" height="6.03" fill="#db6d12"/><rect x="102.45" y="24.11" width="6.03" height="6.03" fill="#db6d12"/><rect x="102.45" y="18.08" width="6.03" height="6.03" fill="#db6d12"/><rect x="102.45" y="12.05" width="6.03" height="6.03" fill="#d84b13"/><rect x="102.45" y="6.03" width="6.03" height="6.03" fill="#f7c45e"/><rect x="102.45" width="6.03" height="6.03" fill="#1b0003"/><rect x="96.43" y="78.35" width="6.03" height="6.03" fill="#1b0003"/><rect x="96.43" y="72.32" width="6.03" height="6.03" fill="#db6d12"/><rect x="96.43" y="66.29" width="6.03" height="6.03" fill="#d84b13"/><rect x="96.43" y="60.27" width="6.03" height="6.03" fill="#db6d12"/><rect x="96.43" y="54.24" width="6.03" height="6.03" fill="#d84b13"/><rect x="96.43" y="48.21" width="6.03" height="6.03" fill="#db6d12"/><rect x="96.43" y="42.19" width="6.03" height="6.03" fill="#db6d12"/><rect x="96.43" y="36.16" width="6.03" height="6.03" fill="#db6d12"/><rect x="96.43" y="30.13" width="6.03" height="6.03" fill="#db6d12"/><rect x="96.43" y="24.11" width="6.03" height="6.03" fill="#d84b13"/><rect x="96.43" y="18.08" width="6.03" height="6.03" fill="#f7c45e"/><rect x="96.43" y="12.05" width="6.03" height="6.03" fill="#f7c45e"/><rect x="96.43" y="6.03" width="6.03" height="6.03" fill="#1b0003"/><rect x="90.4" y="78.35" width="6.03" height="6.03" fill="#1b0003"/><rect x="90.4" y="72.32" width="6.03" height="6.03" fill="#d84b13"/><rect x="90.4" y="66.29" width="6.03" height="6.03" fill="#db6d12"/><rect x="90.4" y="60.27" width="6.03" height="6.03" fill="#d84b13"/><rect x="90.4" y="54.24" width="6.03" height="6.03" fill="#db6d12"/><rect x="90.4" y="48.21" width="6.03" height="6.03" fill="#db6d12"/><rect x="90.4" y="42.19" width="6.03" height="6.03" fill="#db6d12"/><rect x="90.4" y="36.16" width="6.03" height="6.03" fill="#d84b13"/><rect x="90.4" y="30.13" width="6.03" height="6.03" fill="#d84b13"/><rect x="90.4" y="24.11" width="6.03" height="6.03" fill="#f7c45e"/><rect x="90.4" y="18.08" width="6.03" height="6.03" fill="#f7c45e"/><rect x="90.4" y="12.05" width="6.03" height="6.03" fill="#1b0003"/><rect x="84.37" y="78.35" width="6.03" height="6.03" fill="#1b0003"/><rect x="84.37" y="72.32" width="6.03" height="6.03" fill="#db6d12"/><rect x="84.37" y="66.29" width="6.03" height="6.03" fill="#d84b13"/><rect x="84.37" y="60.27" width="6.03" height="6.03" fill="#d84b13"/><rect x="84.37" y="54.24" width="6.03" height="6.03" fill="#d84b13"/><rect x="84.37" y="48.21" width="6.03" height="6.03" fill="#d84b13"/><rect x="84.37" y="42.19" width="6.03" height="6.03" fill="#d84b13"/><rect x="84.37" y="36.16" width="6.03" height="6.03" fill="#d84b13"/><rect x="84.37" y="30.13" width="6.03" height="6.03" fill="#f7c45e"/><rect x="84.37" y="24.11" width="6.03" height="6.03" fill="#f7c45e"/><rect x="84.37" y="18.08" width="6.03" height="6.03" fill="#1b0003"/><rect x="78.35" y="78.35" width="6.03" height="6.03" fill="#1b0003"/><rect x="78.35" y="72.32" width="6.03" height="6.03" fill="#d84b13"/><rect x="78.35" y="66.29" width="6.03" height="6.03" fill="#db6d12"/><rect x="78.35" y="60.27" width="6.03" height="6.03" fill="#d84b13"/><rect x="78.35" y="54.24" width="6.03" height="6.03" fill="#f7c45e"/><rect x="78.35" y="48.21" width="6.03" height="6.03" fill="#f7c45e"/><rect x="78.35" y="42.19" width="6.03" height="6.03" fill="#f7c45e"/><rect x="78.35" y="36.16" width="6.03" height="6.03" fill="#f7c45e"/><rect x="78.35" y="30.13" width="6.03" height="6.03" fill="#f7c45e"/><rect x="78.35" y="24.11" width="6.03" height="6.03" fill="#1b0003"/><rect x="72.32" y="78.35" width="6.03" height="6.03" fill="#1b0003"/><rect x="72.32" y="72.32" width="6.03" height="6.03" fill="#db6d12"/><rect x="72.32" y="66.29" width="6.03" height="6.03" fill="#d84b13"/><rect x="72.32" y="60.27" width="6.03" height="6.03" fill="#f7c45e"/><rect x="72.32" y="54.24" width="6.03" height="6.03" fill="#f7c45e"/><rect x="72.32" y="48.21" width="6.03" height="6.03" fill="#f7c45e"/><rect x="72.32" y="42.19" width="6.03" height="6.03" fill="#f7c45e"/><rect x="72.32" y="36.16" width="6.03" height="6.03" fill="#f7c45e"/><rect x="72.32" y="30.13" width="6.03" height="6.03" fill="#f7c45e"/><rect x="72.32" y="24.11" width="6.03" height="6.03" fill="#f7c45e"/><rect x="72.32" y="18.08" width="6.03" height="6.03" fill="#1b0003"/><rect x="66.29" y="78.35" width="6.03" height="6.03" fill="#1b0003"/><rect x="66.29" y="72.32" width="6.03" height="6.03" fill="#d84b13"/><rect x="66.29" y="66.29" width="6.03" height="6.03" fill="#f7c45e"/><rect x="66.29" y="60.27" width="6.03" height="6.03" fill="#f7c45e"/><rect x="66.29" y="54.24" width="6.03" height="6.03" fill="#f7c45e"/><rect x="66.29" y="48.21" width="6.03" height="6.03" fill="#1b0003"/><rect x="66.29" y="42.19" width="6.03" height="6.03" fill="#1b0003"/><rect x="66.29" y="36.16" width="6.03" height="6.03" fill="#1b0003"/><rect x="66.29" y="30.13" width="6.03" height="6.03" fill="#f7c45e"/><rect x="66.29" y="24.11" width="6.03" height="6.03" fill="#f7c45e"/><rect x="66.29" y="18.08" width="6.03" height="6.03" fill="#f7c45e"/><rect x="66.29" y="12.05" width="6.03" height="6.03" fill="#1b0003"/><rect x="60.27" y="78.35" width="6.03" height="6.03" fill="#1b0003"/><rect x="60.27" y="72.32" width="6.03" height="6.03" fill="#f7c45e"/><rect x="60.27" y="66.29" width="6.03" height="6.03" fill="#f7c45e"/><rect x="60.27" y="60.27" width="6.03" height="6.03" fill="#f7c45e"/><rect x="60.27" y="54.24" width="6.03" height="6.03" fill="#1b0003"/><rect x="60.27" y="48.21" width="6.03" height="6.03" fill="#b6294c"/><rect x="60.27" y="42.19" width="6.03" height="6.03" fill="#b6294c"/><rect x="60.27" y="36.16" width="6.03" height="6.03" fill="#db1943"/><rect x="60.27" y="30.13" width="6.03" height="6.03" fill="#1b0003"/><rect x="60.27" y="24.11" width="6.03" height="6.03" fill="#f7c45e"/><rect x="60.27" y="18.08" width="6.03" height="6.03" fill="#f7c45e"/><rect x="60.27" y="12.05" width="6.03" height="6.03" fill="#f7c45e"/><rect x="60.27" y="6.03" width="6.03" height="6.03" fill="#1b0003"/><rect x="54.24" y="78.35" width="6.03" height="6.03" fill="#1b0003"/><rect x="54.24" y="72.32" width="6.03" height="6.03" fill="#f7c45e"/><rect x="54.24" y="66.29" width="6.03" height="6.03" fill="#f7c45e"/><rect x="54.24" y="60.27" width="6.03" height="6.03" fill="#f7c45e"/><rect x="54.24" y="54.24" width="6.03" height="6.03" fill="#1b0003"/><rect x="54.24" y="48.21" width="6.03" height="6.03" fill="#b6294c"/><rect x="54.24" y="42.19" width="6.03" height="6.03" fill="#db1943"/><rect x="54.24" y="36.16" width="6.03" height="6.03" fill="#eb3824"/><rect x="54.24" y="30.13" width="6.03" height="6.03" fill="#1b0003"/><rect x="54.24" y="24.11" width="6.03" height="6.03" fill="#f7c45e"/><rect x="54.24" y="18.08" width="6.03" height="6.03" fill="#f7c45e"/><rect x="54.24" y="12.05" width="6.03" height="6.03" fill="#f7c45e"/><rect x="54.24" y="6.03" width="6.03" height="6.03" fill="#f9f2d4"/><rect x="54.24" width="6.03" height="6.03" fill="#1b0003"/><rect x="48.21" y="78.35" width="6.03" height="6.03" fill="#1b0003"/><rect x="48.21" y="72.32" width="6.03" height="6.03" fill="#f7c45e"/><rect x="48.21" y="66.29" width="6.03" height="6.03" fill="#f7c45e"/><rect x="48.21" y="60.27" width="6.03" height="6.03" fill="#f7c45e"/><rect x="48.21" y="54.24" width="6.03" height="6.03" fill="#1b0003"/><rect x="48.21" y="48.21" width="6.03" height="6.03" fill="#db1943"/><rect x="48.21" y="42.19" width="6.03" height="6.03" fill="#eb3824"/><rect x="48.21" y="36.16" width="6.03" height="6.03" fill="#f4b9b8"/><rect x="48.21" y="30.13" width="6.03" height="6.03" fill="#1b0003"/><rect x="48.21" y="24.11" width="6.03" height="6.03" fill="#f7c45e"/><rect x="48.21" y="18.08" width="6.03" height="6.03" fill="#f7c45e"/><rect x="48.21" y="12.05" width="6.03" height="6.03" fill="#f9f2d4"/><rect x="48.21" y="6.03" width="6.03" height="6.03" fill="#1b0003"/><rect x="42.19" y="78.35" width="6.03" height="6.03" fill="#1b0003"/><rect x="42.19" y="72.32" width="6.03" height="6.03" fill="#db6d12"/><rect x="42.19" y="66.29" width="6.03" height="6.03" fill="#f7c45e"/><rect x="42.19" y="60.27" width="6.03" height="6.03" fill="#f7c45e"/><rect x="42.19" y="54.24" width="6.03" height="6.03" fill="#f7c45e"/><rect x="42.19" y="48.21" width="6.03" height="6.03" fill="#1b0003"/><rect x="42.19" y="42.19" width="6.03" height="6.03" fill="#1b0003"/><rect x="42.19" y="36.16" width="6.03" height="6.03" fill="#1b0003"/><rect x="42.19" y="30.13" width="6.03" height="6.03" fill="#f7c45e"/><rect x="42.19" y="24.11" width="6.03" height="6.03" fill="#f7c45e"/><rect x="42.19" y="18.08" width="6.03" height="6.03" fill="#f9f2d4"/><rect x="42.19" y="12.05" width="6.03" height="6.03" fill="#1b0003"/><rect x="36.16" y="78.35" width="6.03" height="6.03" fill="#1b0003"/><rect x="36.16" y="72.32" width="6.03" height="6.03" fill="#db6d12"/><rect x="36.16" y="66.29" width="6.03" height="6.03" fill="#db6d12"/><rect x="36.16" y="60.27" width="6.03" height="6.03" fill="#f7c45e"/><rect x="36.16" y="54.24" width="6.03" height="6.03" fill="#f7c45e"/><rect x="36.16" y="48.21" width="6.03" height="6.03" fill="#f7c45e"/><rect x="36.16" y="42.19" width="6.03" height="6.03" fill="#f7c45e"/><rect x="36.16" y="36.16" width="6.03" height="6.03" fill="#f7c45e"/><rect x="36.16" y="30.13" width="6.03" height="6.03" fill="#f7c45e"/><rect x="36.16" y="24.11" width="6.03" height="6.03" fill="#f9f2d4"/><rect x="36.16" y="18.08" width="6.03" height="6.03" fill="#1b0003"/><rect x="30.13" y="78.35" width="6.03" height="6.03" fill="#1b0003"/><rect x="30.13" y="72.32" width="6.03" height="6.03" fill="#db6d12"/><rect x="30.13" y="66.29" width="6.03" height="6.03" fill="#db6d12"/><rect x="30.13" y="60.27" width="6.03" height="6.03" fill="#db6d12"/><rect x="30.13" y="54.24" width="6.03" height="6.03" fill="#f7c45e"/><rect x="30.13" y="48.21" width="6.03" height="6.03" fill="#f7c45e"/><rect x="30.13" y="42.19" width="6.03" height="6.03" fill="#f7c45e"/><rect x="30.13" y="36.16" width="6.03" height="6.03" fill="#f7c45e"/><rect x="30.13" y="30.13" width="6.03" height="6.03" fill="#f7c45e"/><rect x="30.13" y="24.11" width="6.03" height="6.03" fill="#1b0003"/><rect x="24.11" y="78.35" width="6.03" height="6.03" fill="#1b0003"/><rect x="24.11" y="72.32" width="6.03" height="6.03" fill="#db6d12"/><rect x="24.11" y="66.29" width="6.03" height="6.03" fill="#db6d12"/><rect x="24.11" y="60.27" width="6.03" height="6.03" fill="#db6d12"/><rect x="24.11" y="54.24" width="6.03" height="6.03" fill="#db6d12"/><rect x="24.11" y="48.21" width="6.03" height="6.03" fill="#db6d12"/><rect x="24.11" y="42.19" width="6.03" height="6.03" fill="#db6d12"/><rect x="24.11" y="36.16" width="6.03" height="6.03" fill="#db6d12"/><rect x="24.11" y="30.13" width="6.03" height="6.03" fill="#d84b13"/><rect x="24.11" y="24.11" width="6.03" height="6.03" fill="#f7c45e"/><rect x="24.11" y="18.08" width="6.03" height="6.03" fill="#1b0003"/><rect x="18.08" y="78.35" width="6.03" height="6.03" fill="#1b0003"/><rect x="18.08" y="72.32" width="6.03" height="6.03" fill="#db6d12"/><rect x="18.08" y="66.29" width="6.03" height="6.03" fill="#db6d12"/><rect x="18.08" y="60.27" width="6.03" height="6.03" fill="#db6d12"/><rect x="18.08" y="54.24" width="6.03" height="6.03" fill="#db6d12"/><rect x="18.08" y="48.21" width="6.03" height="6.03" fill="#db6d12"/><rect x="18.08" y="42.19" width="6.03" height="6.03" fill="#db6d12"/><rect x="18.08" y="36.16" width="6.03" height="6.03" fill="#db6d12"/><rect x="18.08" y="30.13" width="6.03" height="6.03" fill="#db6d12"/><rect x="18.08" y="24.11" width="6.03" height="6.03" fill="#d84b13"/><rect x="18.08" y="18.08" width="6.03" height="6.03" fill="#f7c45e"/><rect x="18.08" y="12.05" width="6.03" height="6.03" fill="#1b0003"/><rect x="12.05" y="78.35" width="6.03" height="6.03" fill="#1b0003"/><rect x="12.05" y="72.32" width="6.03" height="6.03" fill="#db6d12"/><rect x="12.05" y="66.29" width="6.03" height="6.03" fill="#db6d12"/><rect x="12.05" y="60.27" width="6.03" height="6.03" fill="#db6d12"/><rect x="12.05" y="54.24" width="6.03" height="6.03" fill="#db6d12"/><rect x="12.05" y="48.21" width="6.03" height="6.03" fill="#db6d12"/><rect x="12.05" y="42.19" width="6.03" height="6.03" fill="#db6d12"/><rect x="12.05" y="36.16" width="6.03" height="6.03" fill="#db6d12"/><rect x="12.05" y="30.13" width="6.03" height="6.03" fill="#db6d12"/><rect x="12.05" y="24.11" width="6.03" height="6.03" fill="#db6d12"/><rect x="12.05" y="18.08" width="6.03" height="6.03" fill="#d84b13"/><rect x="12.05" y="12.05" width="6.03" height="6.03" fill="#f7c45e"/><rect x="12.05" y="6.03" width="6.03" height="6.03" fill="#1b0003"/><rect x="6.03" y="72.32" width="6.03" height="6.03" fill="#1b0003"/><rect x="6.03" y="66.29" width="6.03" height="6.03" fill="#db6d12"/><rect x="6.03" y="60.27" width="6.03" height="6.03" fill="#db6d12"/><rect x="6.03" y="54.24" width="6.03" height="6.03" fill="#db6d12"/><rect x="6.03" y="48.21" width="6.03" height="6.03" fill="#db6d12"/><rect x="6.03" y="42.19" width="6.03" height="6.03" fill="#db6d12"/><rect x="6.03" y="36.16" width="6.03" height="6.03" fill="#db6d12"/><rect x="6.03" y="30.13" width="6.03" height="6.03" fill="#db6d12"/><rect x="6.03" y="24.11" width="6.03" height="6.03" fill="#db6d12"/><rect x="6.03" y="18.08" width="6.03" height="6.03" fill="#db6d12"/><rect x="6.03" y="12.05" width="6.03" height="6.03" fill="#d84b13"/><rect x="6.03" y="6.03" width="6.03" height="6.03" fill="#f7c45e"/><rect x="6.03" width="6.03" height="6.03" fill="#1b0003"/><rect y="66.29" width="6.03" height="6.03" fill="#1b0003"/><rect y="60.27" width="6.03" height="6.03" fill="#1b0003"/><rect y="54.24" width="6.03" height="6.03" fill="#1b0003"/><rect y="48.21" width="6.03" height="6.03" fill="#1b0003"/><rect y="42.19" width="6.03" height="6.03" fill="#1b0003"/><rect y="36.16" width="6.03" height="6.03" fill="#1b0003"/><rect y="30.13" width="6.03" height="6.03" fill="#1b0003"/><rect y="24.11" width="6.03" height="6.03" fill="#1b0003"/><rect y="18.08" width="6.03" height="6.03" fill="#1b0003"/><rect y="12.05" width="6.03" height="6.03" fill="#1b0003"/><rect y="6.03" width="6.03" height="6.03" fill="#1b0003"/><rect width="6.03" height="6.03" fill="#1b0003"/></g></g></g></svg>