<svg xmlns="http://www.w3.org/2000/svg" width="127.2" height="137.8" viewBox="0 0 127.2 137.8"><g id="Layer_2" data-name="Layer 2"><g id="items"><g id="Dagger"><rect x="121.9" y="21.2" width="5.3" height="5.3" fill="#1b0003"/><rect x="121.9" y="15.9" width="5.3" height="5.3" fill="#1b0003"/><rect x="121.9" y="10.6" width="5.3" height="5.3" fill="#1b0003"/><rect x="121.9" y="5.3" width="5.3" height="5.3" fill="#1b0003"/><rect x="121.9" width="5.3" height="5.3" fill="#1b0003"/><rect x="116.6" y="37.1" width="5.3" height="5.3" fill="#1b0003"/><rect x="116.6" y="31.8" width="5.3" height="5.3" fill="#1b0003"/><rect x="116.6" y="26.5" width="5.3" height="5.3" fill="#1b0003"/><rect x="116.6" y="21.2" width="5.3" height="5.3" fill="#f2fefe"/><rect x="116.6" y="15.9" width="5.3" height="5.3" fill="#f2fefe"/><rect x="116.6" y="10.6" width="5.3" height="5.3" fill="#f2fefe"/><rect x="116.6" y="5.3" width="5.3" height="5.3" fill="#f2fefe"/><rect x="116.6" width="5.3" height="5.3" fill="#1b0003"/><rect x="111.3" y="47.7" width="5.3" height="5.3" fill="#1b0003"/><rect x="111.3" y="42.4" width="5.3" height="5.3" fill="#1b0003"/><rect x="111.3" y="37.1" width="5.3" height="5.3" fill="#f2fefe"/><rect x="111.3" y="31.8" width="5.3" height="5.3" fill="#f2fefe"/><rect x="111.3" y="26.5" width="5.3" height="5.3" fill="#f2fefe"/><rect x="111.3" y="21.2" width="5.3" height="5.3" fill="#85a1c9"/><rect x="111.3" y="15.9" width="5.3" height="5.3" fill="#85a1c9"/><rect x="111.3" y="10.6" width="5.3" height="5.3" fill="#85a1c9"/><rect x="111.3" y="5.3" width="5.3" height="5.3" fill="#1b0003"/><rect x="106" y="58.3" width="5.3" height="5.3" fill="#1b0003"/><rect x="106" y="53" width="5.3" height="5.3" fill="#1b0003"/><rect x="106" y="47.7" width="5.3" height="5.3" fill="#f2fefe"/><rect x="106" y="42.4" width="5.3" height="5.3" fill="#f2fefe"/><rect x="106" y="37.1" width="5.3" height="5.3" fill="#bedbed"/><rect x="106" y="31.8" width="5.3" height="5.3" fill="#abcddd"/><rect x="106" y="26.5" width="5.3" height="5.3" fill="#abcddd"/><rect x="106" y="21.2" width="5.3" height="5.3" fill="#85a1c9"/><rect x="106" y="15.9" width="5.3" height="5.3" fill="#85a1c9"/><rect x="106" y="10.6" width="5.3" height="5.3" fill="#1b0003"/><rect x="100.7" y="63.6" width="5.3" height="5.3" fill="#1b0003"/><rect x="100.7" y="58.3" width="5.3" height="5.3" fill="#f2fefe"/><rect x="100.7" y="53" width="5.3" height="5.3" fill="#f2fefe"/><rect x="100.7" y="47.7" width="5.3" height="5.3" fill="#cfefff"/><rect x="100.7" y="42.4" width="5.3" height="5.3" fill="#bedbed"/><rect x="100.7" y="37.1" width="5.3" height="5.3" fill="#abcddd"/><rect x="100.7" y="31.8" width="5.3" height="5.3" fill="#abcddd"/><rect x="100.7" y="26.5" width="5.3" height="5.3" fill="#85a1c9"/><rect x="100.7" y="21.2" width="5.3" height="5.3" fill="#85a1c9"/><rect x="100.7" y="15.9" width="5.3" height="5.3" fill="#1b0003"/><rect x="95.4" y="68.9" width="5.3" height="5.3" fill="#1b0003"/><rect x="95.4" y="63.6" width="5.3" height="5.3" fill="#f2fefe"/><rect x="95.4" y="58.3" width="5.3" height="5.3" fill="#cfefff"/><rect x="95.4" y="53" width="5.3" height="5.3" fill="#bedbed"/><rect x="95.4" y="47.7" width="5.3" height="5.3" fill="#bedbed"/><rect x="95.4" y="42.4" width="5.3" height="5.3" fill="#abcddd"/><rect x="95.4" y="37.1" width="5.3" height="5.3" fill="#abcddd"/><rect x="95.4" y="31.8" width="5.3" height="5.3" fill="#85a1c9"/><rect x="95.4" y="26.5" width="5.3" height="5.3" fill="#85a1c9"/><rect x="95.4" y="21.2" width="5.3" height="5.3" fill="#1b0003"/><rect x="90.1" y="74.2" width="5.3" height="5.3" fill="#1b0003"/><rect x="90.1" y="68.9" width="5.3" height="5.3" fill="#f2fefe"/><rect x="90.1" y="63.6" width="5.3" height="5.3" fill="#cfefff"/><rect x="90.1" y="58.3" width="5.3" height="5.3" fill="#bedbed"/><rect x="90.1" y="53" width="5.3" height="5.3" fill="#bedbed"/><rect x="90.1" y="47.7" width="5.3" height="5.3" fill="#abcddd"/><rect x="90.1" y="42.4" width="5.3" height="5.3" fill="#abcddd"/><rect x="90.1" y="37.1" width="5.3" height="5.3" fill="#85a1c9"/><rect x="90.1" y="31.8" width="5.3" height="5.3" fill="#85a1c9"/><rect x="90.1" y="26.5" width="5.3" height="5.3" fill="#1b0003"/><rect x="84.8" y="79.5" width="5.3" height="5.3" fill="#1b0003"/><rect x="84.8" y="74.2" width="5.3" height="5.3" fill="#f2fefe"/><rect x="84.8" y="68.9" width="5.3" height="5.3" fill="#cfefff"/><rect x="84.8" y="63.6" width="5.3" height="5.3" fill="#bedbed"/><rect x="84.8" y="58.3" width="5.3" height="5.3" fill="#bedbed"/><rect x="84.8" y="53" width="5.3" height="5.3" fill="#bedbed"/><rect x="84.8" y="47.7" width="5.3" height="5.3" fill="#abcddd"/><rect x="84.8" y="42.4" width="5.3" height="5.3" fill="#85a1c9"/><rect x="84.8" y="37.1" width="5.3" height="5.3" fill="#85a1c9"/><rect x="84.8" y="31.8" width="5.3" height="5.3" fill="#1b0003"/><rect x="79.5" y="84.8" width="5.3" height="5.3" fill="#1b0003"/><rect x="79.5" y="79.5" width="5.3" height="5.3" fill="#f2fefe"/><rect x="79.5" y="74.2" width="5.3" height="5.3" fill="#cfefff"/><rect x="79.5" y="68.9" width="5.3" height="5.3" fill="#bedbed"/><rect x="79.5" y="63.6" width="5.3" height="5.3" fill="#bedbed"/><rect x="79.5" y="58.3" width="5.3" height="5.3" fill="#abcddd"/><rect x="79.5" y="53" width="5.3" height="5.3" fill="#abcddd"/><rect x="79.5" y="47.7" width="5.3" height="5.3" fill="#85a1c9"/><rect x="79.5" y="42.4" width="5.3" height="5.3" fill="#85a1c9"/><rect x="79.5" y="37.1" width="5.3" height="5.3" fill="#1b0003"/><rect x="74.2" y="90.1" width="5.3" height="5.3" fill="#1b0003"/><rect x="74.2" y="84.8" width="5.3" height="5.3" fill="#f2fefe"/><rect x="74.2" y="79.5" width="5.3" height="5.3" fill="#cfefff"/><rect x="74.2" y="74.2" width="5.3" height="5.3" fill="#bedbed"/><rect x="74.2" y="68.9" width="5.3" height="5.3" fill="#bedbed"/><rect x="74.2" y="63.6" width="5.3" height="5.3" fill="#abcddd"/><rect x="74.2" y="58.3" width="5.3" height="5.3" fill="#abcddd"/><rect x="74.2" y="53" width="5.3" height="5.3" fill="#85a1c9"/><rect x="74.2" y="47.7" width="5.3" height="5.3" fill="#85a1c9"/><rect x="74.2" y="42.4" width="5.3" height="5.3" fill="#1b0003"/><rect x="68.9" y="95.4" width="5.3" height="5.3" fill="#1b0003"/><rect x="68.9" y="90.1" width="5.3" height="5.3" fill="#f2fefe"/><rect x="68.9" y="84.8" width="5.3" height="5.3" fill="#cfefff"/><rect x="68.9" y="79.5" width="5.3" height="5.3" fill="#bedbed"/><rect x="68.9" y="74.2" width="5.3" height="5.3" fill="#bedbed"/><rect x="68.9" y="68.9" width="5.3" height="5.3" fill="#abcddd"/><rect x="68.9" y="63.6" width="5.3" height="5.3" fill="#abcddd"/><rect x="68.9" y="58.3" width="5.3" height="5.3" fill="#85a1c9"/><rect x="68.9" y="53" width="5.3" height="5.3" fill="#85a1c9"/><rect x="68.9" y="47.7" width="5.3" height="5.3" fill="#1b0003"/><rect x="63.6" y="100.7" width="5.3" height="5.3" fill="#1b0003"/><rect x="63.6" y="95.4" width="5.3" height="5.3" fill="#f2fefe"/><rect x="63.6" y="90.1" width="5.3" height="5.3" fill="#bedbed"/><rect x="63.6" y="84.8" width="5.3" height="5.3" fill="#bedbed"/><rect x="63.6" y="79.5" width="5.3" height="5.3" fill="#bedbed"/><rect x="63.6" y="74.2" width="5.3" height="5.3" fill="#85a1c9"/><rect x="63.6" y="68.9" width="5.3" height="5.3" fill="#abcddd"/><rect x="63.6" y="63.6" width="5.3" height="5.3" fill="#85a1c9"/><rect x="63.6" y="58.3" width="5.3" height="5.3" fill="#85a1c9"/><rect x="63.6" y="53" width="5.3" height="5.3" fill="#1b0003"/><rect x="58.3" y="106" width="5.3" height="5.3" fill="#1b0003"/><rect x="58.3" y="100.7" width="5.3" height="5.3" fill="#97bcd6"/><rect x="58.3" y="95.4" width="5.3" height="5.3" fill="#97bcd6"/><rect x="58.3" y="90.1" width="5.3" height="5.3" fill="#abcddd"/><rect x="58.3" y="84.8" width="5.3" height="5.3" fill="#abcddd"/><rect x="58.3" y="79.5" width="5.3" height="5.3" fill="#85a1c9"/><rect x="58.3" y="74.2" width="5.3" height="5.3" fill="#abcddd"/><rect x="58.3" y="68.9" width="5.3" height="5.3" fill="#85a1c9"/><rect x="58.3" y="63.6" width="5.3" height="5.3" fill="#85a1c9"/><rect x="58.3" y="58.3" width="5.3" height="5.3" fill="#1b0003"/><rect x="53" y="106" width="5.3" height="5.3" fill="#1b0003"/><rect x="53" y="100.7" width="5.3" height="5.3" fill="#97bcd6"/><rect x="53" y="95.4" width="5.3" height="5.3" fill="#85a1c9"/><rect x="53" y="90.1" width="5.3" height="5.3" fill="#85a1c9"/><rect x="53" y="84.8" width="5.3" height="5.3" fill="#85a1c9"/><rect x="53" y="79.5" width="5.3" height="5.3" fill="#bedbed"/><rect x="53" y="74.2" width="5.3" height="5.3" fill="#85a1c9"/><rect x="53" y="68.9" width="5.3" height="5.3" fill="#85a1c9"/><rect x="53" y="63.6" width="5.3" height="5.3" fill="#1b0003"/><rect x="47.7" y="100.7" width="5.3" height="5.3" fill="#1b0003"/><rect x="47.7" y="95.4" width="5.3" height="5.3" fill="#6a87af"/><rect x="47.7" y="90.1" width="5.3" height="5.3" fill="#85a1c9"/><rect x="47.7" y="84.8" width="5.3" height="5.3" fill="#85a1c9"/><rect x="47.7" y="79.5" width="5.3" height="5.3" fill="#85a1c9"/><rect x="47.7" y="74.2" width="5.3" height="5.3" fill="#6a87af"/><rect x="47.7" y="68.9" width="5.3" height="5.3" fill="#1b0003"/><rect x="42.4" y="106" width="5.3" height="5.3" fill="#1b0003"/><rect x="42.4" y="100.7" width="5.3" height="5.3" fill="#222230"/><rect x="42.4" y="95.4" width="5.3" height="5.3" fill="#1b0003"/><rect x="42.4" y="90.1" width="5.3" height="5.3" fill="#6a87af"/><rect x="42.4" y="84.8" width="5.3" height="5.3" fill="#6a87af"/><rect x="42.4" y="79.5" width="5.3" height="5.3" fill="#6a87af"/><rect x="42.4" y="74.2" width="5.3" height="5.3" fill="#1b0003"/><rect x="37.1" y="111.3" width="5.3" height="5.3" fill="#1b0003"/><rect x="37.1" y="106" width="5.3" height="5.3" fill="#222230"/><rect x="37.1" y="100.7" width="5.3" height="5.3" fill="#222230"/><rect x="37.1" y="95.4" width="5.3" height="5.3" fill="#3e3c51"/><rect x="37.1" y="90.1" width="5.3" height="5.3" fill="#1b0003"/><rect x="37.1" y="84.8" width="5.3" height="5.3" fill="#6a87af"/><rect x="37.1" y="79.5" width="5.3" height="5.3" fill="#1b0003"/><rect x="31.8" y="116.6" width="5.3" height="5.3" fill="#1b0003"/><rect x="31.8" y="111.3" width="5.3" height="5.3" fill="#222230"/><rect x="31.8" y="106" width="5.3" height="5.3" fill="#222230"/><rect x="31.8" y="100.7" width="5.3" height="5.3" fill="#3e3c51"/><rect x="31.8" y="95.4" width="5.3" height="5.3" fill="#5a5970"/><rect x="31.8" y="90.1" width="5.3" height="5.3" fill="#5a5970"/><rect x="31.8" y="84.8" width="5.3" height="5.3" fill="#1b0003"/><rect x="26.5" y="121.9" width="5.3" height="5.3" fill="#1b0003"/><rect x="26.5" y="116.6" width="5.3" height="5.3" fill="#222230"/><rect x="26.5" y="111.3" width="5.3" height="5.3" fill="#222230"/><rect x="26.5" y="106" width="5.3" height="5.3" fill="#3e3c51"/><rect x="26.5" y="100.7" width="5.3" height="5.3" fill="#5a5970"/><rect x="26.5" y="95.4" width="5.3" height="5.3" fill="#5a5970"/><rect x="26.5" y="90.1" width="5.3" height="5.3" fill="#1b0003"/><rect x="21.2" y="127.2" width="5.3" height="5.3" fill="#1b0003"/><rect x="21.2" y="121.9" width="5.3" height="5.3" fill="#222230"/><rect x="21.2" y="116.6" width="5.3" height="5.3" fill="#222230"/><rect x="21.2" y="111.3" width="5.3" height="5.3" fill="#3e3c51"/><rect x="21.2" y="106" width="5.3" height="5.3" fill="#5a5970"/><rect x="21.2" y="100.7" width="5.3" height="5.3" fill="#5a5970"/><rect x="21.2" y="95.4" width="5.3" height="5.3" fill="#1b0003"/><rect x="15.9" y="132.5" width="5.3" height="5.3" fill="#1b0003"/><rect x="15.9" y="127.2" width="5.3" height="5.3" fill="#222230"/><rect x="15.9" y="121.9" width="5.3" height="5.3" fill="#222230"/><rect x="15.9" y="116.6" width="5.3" height="5.3" fill="#3e3c51"/><rect x="15.9" y="111.3" width="5.3" height="5.3" fill="#3e3c51"/><rect x="15.9" y="106" width="5.3" height="5.3" fill="#5a5970"/><rect x="15.9" y="100.7" width="5.3" height="5.3" fill="#1b0003"/><rect x="10.6" y="132.5" width="5.3" height="5.3" fill="#1b0003"/><rect x="10.6" y="127.2" width="5.3" height="5.3" fill="#222230"/><rect x="10.6" y="121.9" width="5.3" height="5.3" fill="#3e3c51"/><rect x="10.6" y="116.6" width="5.3" height="5.3" fill="#3e3c51"/><rect x="10.6" y="111.3" width="5.3" height="5.3" fill="#5a5970"/><rect x="10.6" y="106" width="5.3" height="5.3" fill="#1b0003"/><rect x="5.3" y="127.2" width="5.3" height="5.3" fill="#1b0003"/><rect x="5.3" y="121.9" width="5.3" height="5.3" fill="#3e3c51"/><rect x="5.3" y="116.6" width="5.3" height="5.3" fill="#5a5970"/><rect x="5.3" y="111.3" width="5.3" height="5.3" fill="#1b0003"/><rect y="121.9" width="5.3" height="5.3" fill="#1b0003"/><rect y="116.6" width="5.3" height="5.3" fill="#1b0003"/></g></g></g></svg>