<svg xmlns="http://www.w3.org/2000/svg" width="123.49" height="102.01" viewBox="0 0 123.49 102.01"><g id="Layer_2" data-name="Layer 2"><g id="items"><g id="Diamond"><rect x="118.12" y="42.95" width="5.37" height="5.37" fill="#457bf9"/><rect x="118.12" y="37.58" width="5.37" height="5.37" fill="#457bf9"/><rect x="118.12" y="32.21" width="5.37" height="5.37" fill="#457bf9"/><rect x="118.12" y="26.85" width="5.37" height="5.37" fill="#1b0003"/><rect x="118.12" y="21.48" width="5.37" height="5.37" fill="#1b0003"/><rect x="112.75" y="48.32" width="5.37" height="5.37" fill="#457bf9"/><rect x="112.75" y="42.95" width="5.37" height="5.37" fill="#46abf7"/><rect x="112.75" y="37.58" width="5.37" height="5.37" fill="#457bf9"/><rect x="112.75" y="32.21" width="5.37" height="5.37" fill="#06def5"/><rect x="112.75" y="26.85" width="5.37" height="5.37" fill="#06def5"/><rect x="112.75" y="21.48" width="5.37" height="5.37" fill="#06def5"/><rect x="112.75" y="16.11" width="5.37" height="5.37" fill="#1b0003"/><rect x="107.38" y="53.69" width="5.37" height="5.37" fill="#457bf9"/><rect x="107.38" y="48.32" width="5.37" height="5.37" fill="#06def5"/><rect x="107.38" y="42.95" width="5.37" height="5.37" fill="#457bf9"/><rect x="107.38" y="37.58" width="5.37" height="5.37" fill="#457bf9"/><rect x="107.38" y="32.21" width="5.37" height="5.37" fill="#06def5"/><rect x="107.38" y="26.85" width="5.37" height="5.37" fill="#46abf7"/><rect x="107.38" y="21.48" width="5.37" height="5.37" fill="#06def5"/><rect x="107.38" y="16.11" width="5.37" height="5.37" fill="#06def5"/><rect x="107.38" y="10.74" width="5.37" height="5.37" fill="#1b0003"/><rect x="102.01" y="59.06" width="5.37" height="5.37" fill="#457bf9"/><rect x="102.01" y="53.69" width="5.37" height="5.37" fill="#06def5"/><rect x="102.01" y="48.32" width="5.37" height="5.37" fill="#457bf9"/><rect x="102.01" y="42.95" width="5.37" height="5.37" fill="#46abf7"/><rect x="102.01" y="37.58" width="5.37" height="5.37" fill="#457bf9"/><rect x="102.01" y="32.21" width="5.37" height="5.37" fill="#06def5"/><rect x="102.01" y="26.85" width="5.37" height="5.37" fill="#46abf7"/><rect x="102.01" y="21.48" width="5.37" height="5.37" fill="#46abf7"/><rect x="102.01" y="16.11" width="5.37" height="5.37" fill="#06def5"/><rect x="102.01" y="10.74" width="5.37" height="5.37" fill="#06def5"/><rect x="102.01" y="5.37" width="5.37" height="5.37" fill="#1b0003"/><rect x="96.64" y="64.43" width="5.37" height="5.37" fill="#457bf9"/><rect x="96.64" y="59.06" width="5.37" height="5.37" fill="#06def5"/><rect x="96.64" y="53.69" width="5.37" height="5.37" fill="#457bf9"/><rect x="96.64" y="48.32" width="5.37" height="5.37" fill="#46abf7"/><rect x="96.64" y="42.95" width="5.37" height="5.37" fill="#46abf7"/><rect x="96.64" y="37.58" width="5.37" height="5.37" fill="#457bf9"/><rect x="96.64" y="32.21" width="5.37" height="5.37" fill="#06def5"/><rect x="96.64" y="26.85" width="5.37" height="5.37" fill="#46abf7"/><rect x="96.64" y="21.48" width="5.37" height="5.37" fill="#46abf7"/><rect x="96.64" y="16.11" width="5.37" height="5.37" fill="#06def5"/><rect x="96.64" y="10.74" width="5.37" height="5.37" fill="#06def5"/><rect x="96.64" y="5.37" width="5.37" height="5.37" fill="#06def5"/><rect x="96.64" width="5.37" height="5.37" fill="#1b0003"/><rect x="91.27" y="69.8" width="5.37" height="5.37" fill="#457bf9"/><rect x="91.27" y="64.43" width="5.37" height="5.37" fill="#06def5"/><rect x="91.27" y="59.06" width="5.37" height="5.37" fill="#457bf9"/><rect x="91.27" y="53.69" width="5.37" height="5.37" fill="#46abf7"/><rect x="91.27" y="48.32" width="5.37" height="5.37" fill="#46abf7"/><rect x="91.27" y="42.95" width="5.37" height="5.37" fill="#46abf7"/><rect x="91.27" y="37.58" width="5.37" height="5.37" fill="#457bf9"/><rect x="91.27" y="32.21" width="5.37" height="5.37" fill="#06def5"/><rect x="91.27" y="26.85" width="5.37" height="5.37" fill="#46abf7"/><rect x="91.27" y="21.48" width="5.37" height="5.37" fill="#46abf7"/><rect x="91.27" y="16.11" width="5.37" height="5.37" fill="#46abf7"/><rect x="91.27" y="10.74" width="5.37" height="5.37" fill="#06def5"/><rect x="91.27" y="5.37" width="5.37" height="5.37" fill="#06def5"/><rect x="91.27" width="5.37" height="5.37" fill="#1b0003"/><rect x="85.9" y="75.17" width="5.37" height="5.37" fill="#457bf9"/><rect x="85.9" y="69.8" width="5.37" height="5.37" fill="#06def5"/><rect x="85.9" y="64.43" width="5.37" height="5.37" fill="#457bf9"/><rect x="85.9" y="59.06" width="5.37" height="5.37" fill="#46abf7"/><rect x="85.9" y="53.69" width="5.37" height="5.37" fill="#46abf7"/><rect x="85.9" y="48.32" width="5.37" height="5.37" fill="#46abf7"/><rect x="85.9" y="42.95" width="5.37" height="5.37" fill="#46abf7"/><rect x="85.9" y="37.58" width="5.37" height="5.37" fill="#457bf9"/><rect x="85.9" y="32.21" width="5.37" height="5.37" fill="#06def5"/><rect x="85.9" y="26.85" width="5.37" height="5.37" fill="#46abf7"/><rect x="85.9" y="21.48" width="5.37" height="5.37" fill="#46abf7"/><rect x="85.9" y="16.11" width="5.37" height="5.37" fill="#46abf7"/><rect x="85.9" y="10.74" width="5.37" height="5.37" fill="#46abf7"/><rect x="85.9" y="5.37" width="5.37" height="5.37" fill="#06def5"/><rect x="85.9" width="5.37" height="5.37" fill="#1b0003"/><rect x="80.54" y="80.53" width="5.37" height="5.37" fill="#1b0003"/><rect x="80.54" y="75.17" width="5.37" height="5.37" fill="#06def5"/><rect x="80.54" y="69.8" width="5.37" height="5.37" fill="#457bf9"/><rect x="80.54" y="64.43" width="5.37" height="5.37" fill="#46abf7"/><rect x="80.54" y="59.06" width="5.37" height="5.37" fill="#46abf7"/><rect x="80.54" y="53.69" width="5.37" height="5.37" fill="#46abf7"/><rect x="80.54" y="48.32" width="5.37" height="5.37" fill="#46abf7"/><rect x="80.54" y="42.95" width="5.37" height="5.37" fill="#457bf9"/><rect x="80.54" y="37.58" width="5.37" height="5.37" fill="#457bf9"/><rect x="80.54" y="32.21" width="5.37" height="5.37" fill="#06def5"/><rect x="80.54" y="26.85" width="5.37" height="5.37" fill="#46abf7"/><rect x="80.54" y="21.48" width="5.37" height="5.37" fill="#46abf7"/><rect x="80.54" y="16.11" width="5.37" height="5.37" fill="#46abf7"/><rect x="80.54" y="10.74" width="5.37" height="5.37" fill="#46abf7"/><rect x="80.54" y="5.37" width="5.37" height="5.37" fill="#06def5"/><rect x="80.54" width="5.37" height="5.37" fill="#1b0003"/><rect x="75.17" y="85.9" width="5.37" height="5.37" fill="#1b0003"/><rect x="75.17" y="80.53" width="5.37" height="5.37" fill="#06def5"/><rect x="75.17" y="75.17" width="5.37" height="5.37" fill="#457bf9"/><rect x="75.17" y="69.8" width="5.37" height="5.37" fill="#46abf7"/><rect x="75.17" y="64.43" width="5.37" height="5.37" fill="#46abf7"/><rect x="75.17" y="59.06" width="5.37" height="5.37" fill="#46abf7"/><rect x="75.17" y="53.69" width="5.37" height="5.37" fill="#46abf7"/><rect x="75.17" y="48.32" width="5.37" height="5.37" fill="#46abf7"/><rect x="75.17" y="42.95" width="5.37" height="5.37" fill="#457bf9"/><rect x="75.17" y="37.58" width="5.37" height="5.37" fill="#91fee7"/><rect x="75.17" y="32.21" width="5.37" height="5.37" fill="#06def5"/><rect x="75.17" y="26.85" width="5.37" height="5.37" fill="#46abf7"/><rect x="75.17" y="21.48" width="5.37" height="5.37" fill="#46abf7"/><rect x="75.17" y="16.11" width="5.37" height="5.37" fill="#46abf7"/><rect x="75.17" y="10.74" width="5.37" height="5.37" fill="#06def5"/><rect x="75.17" y="5.37" width="5.37" height="5.37" fill="#06def5"/><rect x="75.17" width="5.37" height="5.37" fill="#1b0003"/><rect x="69.8" y="91.27" width="5.37" height="5.37" fill="#1b0003"/><rect x="69.8" y="85.9" width="5.37" height="5.37" fill="#06def5"/><rect x="69.8" y="80.53" width="5.37" height="5.37" fill="#457bf9"/><rect x="69.8" y="75.17" width="5.37" height="5.37" fill="#457bf9"/><rect x="69.8" y="69.8" width="5.37" height="5.37" fill="#46abf7"/><rect x="69.8" y="64.43" width="5.37" height="5.37" fill="#46abf7"/><rect x="69.8" y="59.06" width="5.37" height="5.37" fill="#46abf7"/><rect x="69.8" y="53.69" width="5.37" height="5.37" fill="#46abf7"/><rect x="69.8" y="48.32" width="5.37" height="5.37" fill="#457bf9"/><rect x="69.8" y="42.95" width="5.37" height="5.37" fill="#457bf9"/><rect x="69.8" y="37.58" width="5.37" height="5.37" fill="#06def5"/><rect x="69.8" y="32.21" width="5.37" height="5.37" fill="#06def5"/><rect x="69.8" y="26.85" width="5.37" height="5.37" fill="#46abf7"/><rect x="69.8" y="21.48" width="5.37" height="5.37" fill="#06def5"/><rect x="69.8" y="16.11" width="5.37" height="5.37" fill="#06def5"/><rect x="69.8" y="10.74" width="5.37" height="5.37" fill="#06def5"/><rect x="69.8" y="5.37" width="5.37" height="5.37" fill="#06def5"/><rect x="69.8" width="5.37" height="5.37" fill="#1b0003"/><rect x="64.43" y="96.64" width="5.37" height="5.37" fill="#1b0003"/><rect x="64.43" y="91.27" width="5.37" height="5.37" fill="#06def5"/><rect x="64.43" y="85.9" width="5.37" height="5.37" fill="#06def5"/><rect x="64.43" y="80.53" width="5.37" height="5.37" fill="#457bf9"/><rect x="64.43" y="75.17" width="5.37" height="5.37" fill="#46abf7"/><rect x="64.43" y="69.8" width="5.37" height="5.37" fill="#46abf7"/><rect x="64.43" y="64.43" width="5.37" height="5.37" fill="#46abf7"/><rect x="64.43" y="59.06" width="5.37" height="5.37" fill="#46abf7"/><rect x="64.43" y="53.69" width="5.37" height="5.37" fill="#457bf9"/><rect x="64.43" y="48.32" width="5.37" height="5.37" fill="#457bf9"/><rect x="64.43" y="42.95" width="5.37" height="5.37" fill="#91fee7"/><rect x="64.43" y="37.58" width="5.37" height="5.37" fill="#06def5"/><rect x="64.43" y="32.21" width="5.37" height="5.37" fill="#06def5"/><rect x="64.43" y="26.85" width="5.37" height="5.37" fill="#06def5"/><rect x="64.43" y="21.48" width="5.37" height="5.37" fill="#06def5"/><rect x="64.43" y="16.11" width="5.37" height="5.37" fill="#06def5"/><rect x="64.43" y="10.74" width="5.37" height="5.37" fill="#91fee7"/><rect x="64.43" y="5.37" width="5.37" height="5.37" fill="#06def5"/><rect x="64.43" width="5.37" height="5.37" fill="#1b0003"/><rect x="59.06" y="96.64" width="5.37" height="5.37" fill="#1b0003"/><rect x="59.06" y="91.27" width="5.37" height="5.37" fill="#46abf7"/><rect x="59.06" y="85.9" width="5.37" height="5.37" fill="#457bf9"/><rect x="59.06" y="80.53" width="5.37" height="5.37" fill="#457bf9"/><rect x="59.06" y="75.17" width="5.37" height="5.37" fill="#457bf9"/><rect x="59.06" y="69.8" width="5.37" height="5.37" fill="#457bf9"/><rect x="59.06" y="64.43" width="5.37" height="5.37" fill="#457bf9"/><rect x="59.06" y="59.06" width="5.37" height="5.37" fill="#457bf9"/><rect x="59.06" y="53.69" width="5.37" height="5.37" fill="#457bf9"/><rect x="59.06" y="48.32" width="5.37" height="5.37" fill="#91fee7"/><rect x="59.06" y="42.95" width="5.37" height="5.37" fill="#06def5"/><rect x="59.06" y="37.58" width="5.37" height="5.37" fill="#06def5"/><rect x="59.06" y="32.21" width="5.37" height="5.37" fill="#06def5"/><rect x="59.06" y="26.85" width="5.37" height="5.37" fill="#91fee7"/><rect x="59.06" y="21.48" width="5.37" height="5.37" fill="#91fee7"/><rect x="59.06" y="16.11" width="5.37" height="5.37" fill="#a4f8d7"/><rect x="59.06" y="10.74" width="5.37" height="5.37" fill="#a4f8d7"/><rect x="59.06" y="5.37" width="5.37" height="5.37" fill="#a4f8d7"/><rect x="59.06" width="5.37" height="5.37" fill="#1b0003"/><rect x="53.69" y="96.64" width="5.37" height="5.37" fill="#1b0003"/><rect x="53.69" y="91.27" width="5.37" height="5.37" fill="#06def5"/><rect x="53.69" y="85.9" width="5.37" height="5.37" fill="#91fee7"/><rect x="53.69" y="80.53" width="5.37" height="5.37" fill="#91fee7"/><rect x="53.69" y="75.17" width="5.37" height="5.37" fill="#91fee7"/><rect x="53.69" y="69.8" width="5.37" height="5.37" fill="#91fee7"/><rect x="53.69" y="64.43" width="5.37" height="5.37" fill="#91fee7"/><rect x="53.69" y="59.06" width="5.37" height="5.37" fill="#91fee7"/><rect x="53.69" y="53.69" width="5.37" height="5.37" fill="#91fee7"/><rect x="53.69" y="48.32" width="5.37" height="5.37" fill="#91fee7"/><rect x="53.69" y="42.95" width="5.37" height="5.37" fill="#06def5"/><rect x="53.69" y="37.58" width="5.37" height="5.37" fill="#91fee7"/><rect x="53.69" y="32.21" width="5.37" height="5.37" fill="#91fee7"/><rect x="53.69" y="26.85" width="5.37" height="5.37" fill="#a4f8d7"/><rect x="53.69" y="21.48" width="5.37" height="5.37" fill="#a4f8d7"/><rect x="53.69" y="16.11" width="5.37" height="5.37" fill="#91fee7"/><rect x="53.69" y="10.74" width="5.37" height="5.37" fill="#a4f8d7"/><rect x="53.69" y="5.37" width="5.37" height="5.37" fill="#a4f8d7"/><rect x="53.69" width="5.37" height="5.37" fill="#1b0003"/><rect x="48.32" y="91.27" width="5.37" height="5.37" fill="#1b0003"/><rect x="48.32" y="85.9" width="5.37" height="5.37" fill="#06def5"/><rect x="48.32" y="80.53" width="5.37" height="5.37" fill="#46abf7"/><rect x="48.32" y="75.17" width="5.37" height="5.37" fill="#46abf7"/><rect x="48.32" y="69.8" width="5.37" height="5.37" fill="#46abf7"/><rect x="48.32" y="64.43" width="5.37" height="5.37" fill="#46abf7"/><rect x="48.32" y="59.06" width="5.37" height="5.37" fill="#46abf7"/><rect x="48.32" y="53.69" width="5.37" height="5.37" fill="#46abf7"/><rect x="48.32" y="48.32" width="5.37" height="5.37" fill="#f2fefe"/><rect x="48.32" y="42.95" width="5.37" height="5.37" fill="#91fee7"/><rect x="48.32" y="37.58" width="5.37" height="5.37" fill="#91fee7"/><rect x="48.32" y="32.21" width="5.37" height="5.37" fill="#f2fefe"/><rect x="48.32" y="26.85" width="5.37" height="5.37" fill="#f2fefe"/><rect x="48.32" y="21.48" width="5.37" height="5.37" fill="#a4f8d7"/><rect x="48.32" y="16.11" width="5.37" height="5.37" fill="#a4f8d7"/><rect x="48.32" y="10.74" width="5.37" height="5.37" fill="#a4f8d7"/><rect x="48.32" y="5.37" width="5.37" height="5.37" fill="#a4f8d7"/><rect x="48.32" width="5.37" height="5.37" fill="#46abf7"/><rect x="42.95" y="85.9" width="5.37" height="5.37" fill="#1b0003"/><rect x="42.95" y="80.53" width="5.37" height="5.37" fill="#06def5"/><rect x="42.95" y="75.17" width="5.37" height="5.37" fill="#06def5"/><rect x="42.95" y="69.8" width="5.37" height="5.37" fill="#46abf7"/><rect x="42.95" y="64.43" width="5.37" height="5.37" fill="#46abf7"/><rect x="42.95" y="59.06" width="5.37" height="5.37" fill="#46abf7"/><rect x="42.95" y="53.69" width="5.37" height="5.37" fill="#46abf7"/><rect x="42.95" y="48.32" width="5.37" height="5.37" fill="#46abf7"/><rect x="42.95" y="42.95" width="5.37" height="5.37" fill="#f2fefe"/><rect x="42.95" y="37.58" width="5.37" height="5.37" fill="#91fee7"/><rect x="42.95" y="32.21" width="5.37" height="5.37" fill="#a4f8d7"/><rect x="42.95" y="26.85" width="5.37" height="5.37" fill="#f2fefe"/><rect x="42.95" y="21.48" width="5.37" height="5.37" fill="#f2fefe"/><rect x="42.95" y="16.11" width="5.37" height="5.37" fill="#a4f8d7"/><rect x="42.95" y="10.74" width="5.37" height="5.37" fill="#a4f8d7"/><rect x="42.95" y="5.37" width="5.37" height="5.37" fill="#91fee7"/><rect x="42.95" width="5.37" height="5.37" fill="#46abf7"/><rect x="37.58" y="80.53" width="5.37" height="5.37" fill="#1b0003"/><rect x="37.58" y="75.17" width="5.37" height="5.37" fill="#06def5"/><rect x="37.58" y="69.8" width="5.37" height="5.37" fill="#46abf7"/><rect x="37.58" y="64.43" width="5.37" height="5.37" fill="#46abf7"/><rect x="37.58" y="59.06" width="5.37" height="5.37" fill="#46abf7"/><rect x="37.58" y="53.69" width="5.37" height="5.37" fill="#46abf7"/><rect x="37.58" y="48.32" width="5.37" height="5.37" fill="#46abf7"/><rect x="37.58" y="42.95" width="5.37" height="5.37" fill="#f2fefe"/><rect x="37.58" y="37.58" width="5.37" height="5.37" fill="#91fee7"/><rect x="37.58" y="32.21" width="5.37" height="5.37" fill="#a4f8d7"/><rect x="37.58" y="26.85" width="5.37" height="5.37" fill="#f2fefe"/><rect x="37.58" y="21.48" width="5.37" height="5.37" fill="#f2fefe"/><rect x="37.58" y="16.11" width="5.37" height="5.37" fill="#f2fefe"/><rect x="37.58" y="10.74" width="5.37" height="5.37" fill="#f2fefe"/><rect x="37.58" y="5.37" width="5.37" height="5.37" fill="#91fee7"/><rect x="37.58" width="5.37" height="5.37" fill="#46abf7"/><rect x="32.21" y="75.17" width="5.37" height="5.37" fill="#1b0003"/><rect x="32.21" y="69.8" width="5.37" height="5.37" fill="#06def5"/><rect x="32.21" y="64.43" width="5.37" height="5.37" fill="#46abf7"/><rect x="32.21" y="59.06" width="5.37" height="5.37" fill="#46abf7"/><rect x="32.21" y="53.69" width="5.37" height="5.37" fill="#46abf7"/><rect x="32.21" y="48.32" width="5.37" height="5.37" fill="#46abf7"/><rect x="32.21" y="42.95" width="5.37" height="5.37" fill="#46abf7"/><rect x="32.21" y="37.58" width="5.37" height="5.37" fill="#f2fefe"/><rect x="32.21" y="32.21" width="5.37" height="5.37" fill="#a4f8d7"/><rect x="32.21" y="26.85" width="5.37" height="5.37" fill="#f2fefe"/><rect x="32.21" y="21.48" width="5.37" height="5.37" fill="#f2fefe"/><rect x="32.21" y="16.11" width="5.37" height="5.37" fill="#f2fefe"/><rect x="32.21" y="10.74" width="5.37" height="5.37" fill="#f2fefe"/><rect x="32.21" y="5.37" width="5.37" height="5.37" fill="#91fee7"/><rect x="32.21" width="5.37" height="5.37" fill="#46abf7"/><rect x="26.85" y="69.8" width="5.37" height="5.37" fill="#1b0003"/><rect x="26.85" y="64.43" width="5.37" height="5.37" fill="#06def5"/><rect x="26.85" y="59.06" width="5.37" height="5.37" fill="#46abf7"/><rect x="26.85" y="53.69" width="5.37" height="5.37" fill="#46abf7"/><rect x="26.85" y="48.32" width="5.37" height="5.37" fill="#46abf7"/><rect x="26.85" y="42.95" width="5.37" height="5.37" fill="#46abf7"/><rect x="26.85" y="37.58" width="5.37" height="5.37" fill="#f2fefe"/><rect x="26.85" y="32.21" width="5.37" height="5.37" fill="#a4f8d7"/><rect x="26.85" y="26.85" width="5.37" height="5.37" fill="#f2fefe"/><rect x="26.85" y="21.48" width="5.37" height="5.37" fill="#f2fefe"/><rect x="26.85" y="16.11" width="5.37" height="5.37" fill="#f2fefe"/><rect x="26.85" y="10.74" width="5.37" height="5.37" fill="#f2fefe"/><rect x="26.85" y="5.37" width="5.37" height="5.37" fill="#91fee7"/><rect x="26.85" width="5.37" height="5.37" fill="#46abf7"/><rect x="21.48" y="64.43" width="5.37" height="5.37" fill="#1b0003"/><rect x="21.48" y="59.06" width="5.37" height="5.37" fill="#46abf7"/><rect x="21.48" y="53.69" width="5.37" height="5.37" fill="#46abf7"/><rect x="21.48" y="48.32" width="5.37" height="5.37" fill="#46abf7"/><rect x="21.48" y="42.95" width="5.37" height="5.37" fill="#46abf7"/><rect x="21.48" y="37.58" width="5.37" height="5.37" fill="#f2fefe"/><rect x="21.48" y="32.21" width="5.37" height="5.37" fill="#a4f8d7"/><rect x="21.48" y="26.85" width="5.37" height="5.37" fill="#a4f8d7"/><rect x="21.48" y="21.48" width="5.37" height="5.37" fill="#f2fefe"/><rect x="21.48" y="16.11" width="5.37" height="5.37" fill="#f2fefe"/><rect x="21.48" y="10.74" width="5.37" height="5.37" fill="#91fee7"/><rect x="21.48" y="5.37" width="5.37" height="5.37" fill="#91fee7"/><rect x="21.48" width="5.37" height="5.37" fill="#06def5"/><rect x="16.11" y="59.06" width="5.37" height="5.37" fill="#1b0003"/><rect x="16.11" y="53.69" width="5.37" height="5.37" fill="#46abf7"/><rect x="16.11" y="48.32" width="5.37" height="5.37" fill="#46abf7"/><rect x="16.11" y="42.95" width="5.37" height="5.37" fill="#46abf7"/><rect x="16.11" y="37.58" width="5.37" height="5.37" fill="#f2fefe"/><rect x="16.11" y="32.21" width="5.37" height="5.37" fill="#a4f8d7"/><rect x="16.11" y="26.85" width="5.37" height="5.37" fill="#f2fefe"/><rect x="16.11" y="21.48" width="5.37" height="5.37" fill="#f2fefe"/><rect x="16.11" y="16.11" width="5.37" height="5.37" fill="#91fee7"/><rect x="16.11" y="10.74" width="5.37" height="5.37" fill="#91fee7"/><rect x="16.11" y="5.37" width="5.37" height="5.37" fill="#46abf7"/><rect x="10.74" y="53.69" width="5.37" height="5.37" fill="#1b0003"/><rect x="10.74" y="48.32" width="5.37" height="5.37" fill="#46abf7"/><rect x="10.74" y="42.95" width="5.37" height="5.37" fill="#46abf7"/><rect x="10.74" y="37.58" width="5.37" height="5.37" fill="#f2fefe"/><rect x="10.74" y="32.21" width="5.37" height="5.37" fill="#f2fefe"/><rect x="10.74" y="26.85" width="5.37" height="5.37" fill="#f2fefe"/><rect x="10.74" y="21.48" width="5.37" height="5.37" fill="#91fee7"/><rect x="10.74" y="16.11" width="5.37" height="5.37" fill="#91fee7"/><rect x="10.74" y="10.74" width="5.37" height="5.37" fill="#06def5"/><rect x="5.37" y="48.32" width="5.37" height="5.37" fill="#457bf9"/><rect x="5.37" y="42.95" width="5.37" height="5.37" fill="#46abf7"/><rect x="5.37" y="37.58" width="5.37" height="5.37" fill="#91fee7"/><rect x="5.37" y="32.21" width="5.37" height="5.37" fill="#a4f8d7"/><rect x="5.37" y="26.85" width="5.37" height="5.37" fill="#a4f8d7"/><rect x="5.37" y="21.48" width="5.37" height="5.37" fill="#91fee7"/><rect x="5.37" y="16.11" width="5.37" height="5.37" fill="#06def5"/><rect y="42.95" width="5.37" height="5.37" fill="#457bf9"/><rect y="37.58" width="5.37" height="5.37" fill="#457bf9"/><rect y="32.21" width="5.37" height="5.37" fill="#46abf7"/><rect y="26.85" width="5.37" height="5.37" fill="#06def5"/><rect y="21.48" width="5.37" height="5.37" fill="#06def5"/></g></g></g></svg>