<svg xmlns="http://www.w3.org/2000/svg" width="103.09" height="97.36" viewBox="0 0 103.09 97.36"><g id="Layer_2" data-name="Layer 2"><g id="items"><g id="Emerald"><rect x="97.36" y="74.45" width="5.73" height="5.73" fill="#27937b"/><rect x="97.36" y="68.72" width="5.73" height="5.73" fill="#27937b"/><rect x="97.36" y="63" width="5.73" height="5.73" fill="#1b0003"/><rect x="97.36" y="57.27" width="5.73" height="5.73" fill="#1b0003"/><rect x="97.36" y="51.54" width="5.73" height="5.73" fill="#1b0003"/><rect x="97.36" y="45.82" width="5.73" height="5.73" fill="#1b0003"/><rect x="97.36" y="40.09" width="5.73" height="5.73" fill="#1b0003"/><rect x="97.36" y="34.36" width="5.73" height="5.73" fill="#1b0003"/><rect x="97.36" y="28.63" width="5.73" height="5.73" fill="#1b0003"/><rect x="97.36" y="22.91" width="5.73" height="5.73" fill="#1b0003"/><rect x="97.36" y="17.18" width="5.73" height="5.73" fill="#1b0003"/><rect x="91.63" y="80.18" width="5.73" height="5.73" fill="#1b0003"/><rect x="91.63" y="74.45" width="5.73" height="5.73" fill="#a0e84d"/><rect x="91.63" y="68.72" width="5.73" height="5.73" fill="#67ce3c"/><rect x="91.63" y="63" width="5.73" height="5.73" fill="#67ce3c"/><rect x="91.63" y="57.27" width="5.73" height="5.73" fill="#a0e84d"/><rect x="91.63" y="51.54" width="5.73" height="5.73" fill="#a0e84d"/><rect x="91.63" y="45.82" width="5.73" height="5.73" fill="#ccf45f"/><rect x="91.63" y="40.09" width="5.73" height="5.73" fill="#ccf45f"/><rect x="91.63" y="34.36" width="5.73" height="5.73" fill="#ccf45f"/><rect x="91.63" y="28.63" width="5.73" height="5.73" fill="#ccf45f"/><rect x="91.63" y="22.91" width="5.73" height="5.73" fill="#ccf45f"/><rect x="91.63" y="17.18" width="5.73" height="5.73" fill="#ccf45f"/><rect x="91.63" y="11.45" width="5.73" height="5.73" fill="#1b0003"/><rect x="85.9" y="85.9" width="5.73" height="5.73" fill="#1b0003"/><rect x="85.9" y="80.18" width="5.73" height="5.73" fill="#67ce3c"/><rect x="85.9" y="74.45" width="5.73" height="5.73" fill="#27937b"/><rect x="85.9" y="68.72" width="5.73" height="5.73" fill="#27937b"/><rect x="85.9" y="63" width="5.73" height="5.73" fill="#67ce3c"/><rect x="85.9" y="57.27" width="5.73" height="5.73" fill="#67ce3c"/><rect x="85.9" y="51.54" width="5.73" height="5.73" fill="#a0e84d"/><rect x="85.9" y="45.82" width="5.73" height="5.73" fill="#a0e84d"/><rect x="85.9" y="40.09" width="5.73" height="5.73" fill="#a0e84d"/><rect x="85.9" y="34.36" width="5.73" height="5.73" fill="#a0e84d"/><rect x="85.9" y="28.63" width="5.73" height="5.73" fill="#a0e84d"/><rect x="85.9" y="22.91" width="5.73" height="5.73" fill="#a0e84d"/><rect x="85.9" y="17.18" width="5.73" height="5.73" fill="#a0e84d"/><rect x="85.9" y="11.45" width="5.73" height="5.73" fill="#ccf45f"/><rect x="85.9" y="5.73" width="5.73" height="5.73" fill="#1b0003"/><rect x="80.18" y="91.63" width="5.73" height="5.73" fill="#27937b"/><rect x="80.18" y="85.9" width="5.73" height="5.73" fill="#67ce3c"/><rect x="80.18" y="80.18" width="5.73" height="5.73" fill="#67ce3c"/><rect x="80.18" y="74.45" width="5.73" height="5.73" fill="#27937b"/><rect x="80.18" y="68.72" width="5.73" height="5.73" fill="#27937b"/><rect x="80.18" y="63" width="5.73" height="5.73" fill="#27937b"/><rect x="80.18" y="57.27" width="5.73" height="5.73" fill="#27937b"/><rect x="80.18" y="51.54" width="5.73" height="5.73" fill="#27937b"/><rect x="80.18" y="45.82" width="5.73" height="5.73" fill="#27937b"/><rect x="80.18" y="40.09" width="5.73" height="5.73" fill="#67ce3c"/><rect x="80.18" y="34.36" width="5.73" height="5.73" fill="#67ce3c"/><rect x="80.18" y="28.63" width="5.73" height="5.73" fill="#67ce3c"/><rect x="80.18" y="22.91" width="5.73" height="5.73" fill="#67ce3c"/><rect x="80.18" y="17.18" width="5.73" height="5.73" fill="#ccf45f"/><rect x="80.18" y="11.45" width="5.73" height="5.73" fill="#ccf45f"/><rect x="80.18" y="5.73" width="5.73" height="5.73" fill="#ccf45f"/><rect x="80.18" width="5.73" height="5.73" fill="#1b0003"/><rect x="74.45" y="91.63" width="5.73" height="5.73" fill="#1b0003"/><rect x="74.45" y="85.9" width="5.73" height="5.73" fill="#67ce3c"/><rect x="74.45" y="80.18" width="5.73" height="5.73" fill="#27937b"/><rect x="74.45" y="74.45" width="5.73" height="5.73" fill="#27937b"/><rect x="74.45" y="68.72" width="5.73" height="5.73" fill="#67ce3c"/><rect x="74.45" y="63" width="5.73" height="5.73" fill="#ccf45f"/><rect x="74.45" y="57.27" width="5.73" height="5.73" fill="#ccf45f"/><rect x="74.45" y="51.54" width="5.73" height="5.73" fill="#ccf45f"/><rect x="74.45" y="45.82" width="5.73" height="5.73" fill="#ccf45f"/><rect x="74.45" y="40.09" width="5.73" height="5.73" fill="#ccf45f"/><rect x="74.45" y="34.36" width="5.73" height="5.73" fill="#ccf45f"/><rect x="74.45" y="28.63" width="5.73" height="5.73" fill="#ccf45f"/><rect x="74.45" y="22.91" width="5.73" height="5.73" fill="#ccf45f"/><rect x="74.45" y="17.18" width="5.73" height="5.73" fill="#67ce3c"/><rect x="74.45" y="11.45" width="5.73" height="5.73" fill="#ccf45f"/><rect x="74.45" y="5.73" width="5.73" height="5.73" fill="#ccf45f"/><rect x="74.45" width="5.73" height="5.73" fill="#1b0003"/><rect x="68.72" y="91.63" width="5.73" height="5.73" fill="#27937b"/><rect x="68.72" y="85.9" width="5.73" height="5.73" fill="#67ce3c"/><rect x="68.72" y="80.18" width="5.73" height="5.73" fill="#27937b"/><rect x="68.72" y="74.45" width="5.73" height="5.73" fill="#67ce3c"/><rect x="68.72" y="68.72" width="5.73" height="5.73" fill="#ccf45f"/><rect x="68.72" y="63" width="5.73" height="5.73" fill="#ccf45f"/><rect x="68.72" y="57.27" width="5.73" height="5.73" fill="#a0e84d"/><rect x="68.72" y="51.54" width="5.73" height="5.73" fill="#a0e84d"/><rect x="68.72" y="45.82" width="5.73" height="5.73" fill="#a0e84d"/><rect x="68.72" y="40.09" width="5.73" height="5.73" fill="#a0e84d"/><rect x="68.72" y="34.36" width="5.73" height="5.73" fill="#ccf45f"/><rect x="68.72" y="28.63" width="5.73" height="5.73" fill="#ccf45f"/><rect x="68.72" y="22.91" width="5.73" height="5.73" fill="#f7f7c1"/><rect x="68.72" y="17.18" width="5.73" height="5.73" fill="#67ce3c"/><rect x="68.72" y="11.45" width="5.73" height="5.73" fill="#ccf45f"/><rect x="68.72" y="5.73" width="5.73" height="5.73" fill="#ccf45f"/><rect x="68.72" width="5.73" height="5.73" fill="#1b0003"/><rect x="63" y="91.63" width="5.73" height="5.73" fill="#1b0003"/><rect x="63" y="85.9" width="5.73" height="5.73" fill="#67ce3c"/><rect x="63" y="80.18" width="5.73" height="5.73" fill="#67ce3c"/><rect x="63" y="74.45" width="5.73" height="5.73" fill="#67ce3c"/><rect x="63" y="68.72" width="5.73" height="5.73" fill="#ccf45f"/><rect x="63" y="63" width="5.73" height="5.73" fill="#a0e84d"/><rect x="63" y="57.27" width="5.73" height="5.73" fill="#a0e84d"/><rect x="63" y="51.54" width="5.73" height="5.73" fill="#a0e84d"/><rect x="63" y="45.82" width="5.73" height="5.73" fill="#a0e84d"/><rect x="63" y="40.09" width="5.73" height="5.73" fill="#a0e84d"/><rect x="63" y="34.36" width="5.73" height="5.73" fill="#ccf45f"/><rect x="63" y="28.63" width="5.73" height="5.73" fill="#ccf45f"/><rect x="63" y="22.91" width="5.73" height="5.73" fill="#f7f7c1"/><rect x="63" y="17.18" width="5.73" height="5.73" fill="#a0e84d"/><rect x="63" y="11.45" width="5.73" height="5.73" fill="#ccf45f"/><rect x="63" y="5.73" width="5.73" height="5.73" fill="#ccf45f"/><rect x="63" width="5.73" height="5.73" fill="#1b0003"/><rect x="57.27" y="91.63" width="5.73" height="5.73" fill="#1b0003"/><rect x="57.27" y="85.9" width="5.73" height="5.73" fill="#67ce3c"/><rect x="57.27" y="80.18" width="5.73" height="5.73" fill="#67ce3c"/><rect x="57.27" y="74.45" width="5.73" height="5.73" fill="#67ce3c"/><rect x="57.27" y="68.72" width="5.73" height="5.73" fill="#ccf45f"/><rect x="57.27" y="63" width="5.73" height="5.73" fill="#a0e84d"/><rect x="57.27" y="57.27" width="5.73" height="5.73" fill="#a0e84d"/><rect x="57.27" y="51.54" width="5.73" height="5.73" fill="#a0e84d"/><rect x="57.27" y="45.82" width="5.73" height="5.73" fill="#a0e84d"/><rect x="57.27" y="40.09" width="5.73" height="5.73" fill="#a0e84d"/><rect x="57.27" y="34.36" width="5.73" height="5.73" fill="#ccf45f"/><rect x="57.27" y="28.63" width="5.73" height="5.73" fill="#ccf45f"/><rect x="57.27" y="22.91" width="5.73" height="5.73" fill="#f7f7c1"/><rect x="57.27" y="17.18" width="5.73" height="5.73" fill="#a0e84d"/><rect x="57.27" y="11.45" width="5.73" height="5.73" fill="#ccf45f"/><rect x="57.27" y="5.73" width="5.73" height="5.73" fill="#ccf45f"/><rect x="57.27" width="5.73" height="5.73" fill="#1b0003"/><rect x="51.54" y="91.63" width="5.73" height="5.73" fill="#1b0003"/><rect x="51.54" y="85.9" width="5.73" height="5.73" fill="#67ce3c"/><rect x="51.54" y="80.18" width="5.73" height="5.73" fill="#67ce3c"/><rect x="51.54" y="74.45" width="5.73" height="5.73" fill="#67ce3c"/><rect x="51.54" y="68.72" width="5.73" height="5.73" fill="#ccf45f"/><rect x="51.54" y="63" width="5.73" height="5.73" fill="#a0e84d"/><rect x="51.54" y="57.27" width="5.73" height="5.73" fill="#a0e84d"/><rect x="51.54" y="51.54" width="5.73" height="5.73" fill="#a0e84d"/><rect x="51.54" y="45.82" width="5.73" height="5.73" fill="#a0e84d"/><rect x="51.54" y="40.09" width="5.73" height="5.73" fill="#ccf45f"/><rect x="51.54" y="34.36" width="5.73" height="5.73" fill="#ccf45f"/><rect x="51.54" y="28.63" width="5.73" height="5.73" fill="#ccf45f"/><rect x="51.54" y="22.91" width="5.73" height="5.73" fill="#f7f7c1"/><rect x="51.54" y="17.18" width="5.73" height="5.73" fill="#a0e84d"/><rect x="51.54" y="11.45" width="5.73" height="5.73" fill="#f2fefe"/><rect x="51.54" y="5.73" width="5.73" height="5.73" fill="#ccf45f"/><rect x="51.54" width="5.73" height="5.73" fill="#1b0003"/><rect x="45.82" y="91.63" width="5.73" height="5.73" fill="#1b0003"/><rect x="45.82" y="85.9" width="5.73" height="5.73" fill="#a0e84d"/><rect x="45.82" y="80.18" width="5.73" height="5.73" fill="#67ce3c"/><rect x="45.82" y="74.45" width="5.73" height="5.73" fill="#67ce3c"/><rect x="45.82" y="68.72" width="5.73" height="5.73" fill="#ccf45f"/><rect x="45.82" y="63" width="5.73" height="5.73" fill="#a0e84d"/><rect x="45.82" y="57.27" width="5.73" height="5.73" fill="#a0e84d"/><rect x="45.82" y="51.54" width="5.73" height="5.73" fill="#a0e84d"/><rect x="45.82" y="45.82" width="5.73" height="5.73" fill="#ccf45f"/><rect x="45.82" y="40.09" width="5.73" height="5.73" fill="#ccf45f"/><rect x="45.82" y="34.36" width="5.73" height="5.73" fill="#ccf45f"/><rect x="45.82" y="28.63" width="5.73" height="5.73" fill="#ccf45f"/><rect x="45.82" y="22.91" width="5.73" height="5.73" fill="#f7f7c1"/><rect x="45.82" y="17.18" width="5.73" height="5.73" fill="#a0e84d"/><rect x="45.82" y="11.45" width="5.73" height="5.73" fill="#ccf45f"/><rect x="45.82" y="5.73" width="5.73" height="5.73" fill="#ccf45f"/><rect x="45.82" width="5.73" height="5.73" fill="#1b0003"/><rect x="40.09" y="91.63" width="5.73" height="5.73" fill="#1b0003"/><rect x="40.09" y="85.9" width="5.73" height="5.73" fill="#a0e84d"/><rect x="40.09" y="80.18" width="5.73" height="5.73" fill="#a0e84d"/><rect x="40.09" y="74.45" width="5.73" height="5.73" fill="#67ce3c"/><rect x="40.09" y="68.72" width="5.73" height="5.73" fill="#ccf45f"/><rect x="40.09" y="63" width="5.73" height="5.73" fill="#ccf45f"/><rect x="40.09" y="57.27" width="5.73" height="5.73" fill="#a0e84d"/><rect x="40.09" y="51.54" width="5.73" height="5.73" fill="#ccf45f"/><rect x="40.09" y="45.82" width="5.73" height="5.73" fill="#ccf45f"/><rect x="40.09" y="40.09" width="5.73" height="5.73" fill="#ccf45f"/><rect x="40.09" y="34.36" width="5.73" height="5.73" fill="#ccf45f"/><rect x="40.09" y="28.63" width="5.73" height="5.73" fill="#ccf45f"/><rect x="40.09" y="22.91" width="5.73" height="5.73" fill="#f7f7c1"/><rect x="40.09" y="17.18" width="5.73" height="5.73" fill="#a0e84d"/><rect x="40.09" y="11.45" width="5.73" height="5.73" fill="#f7f7c1"/><rect x="40.09" y="5.73" width="5.73" height="5.73" fill="#ccf45f"/><rect x="40.09" width="5.73" height="5.73" fill="#1b0003"/><rect x="34.36" y="91.63" width="5.73" height="5.73" fill="#1b0003"/><rect x="34.36" y="85.9" width="5.73" height="5.73" fill="#a0e84d"/><rect x="34.36" y="80.18" width="5.73" height="5.73" fill="#a0e84d"/><rect x="34.36" y="74.45" width="5.73" height="5.73" fill="#67ce3c"/><rect x="34.36" y="68.72" width="5.73" height="5.73" fill="#ccf45f"/><rect x="34.36" y="63" width="5.73" height="5.73" fill="#ccf45f"/><rect x="34.36" y="57.27" width="5.73" height="5.73" fill="#ccf45f"/><rect x="34.36" y="51.54" width="5.73" height="5.73" fill="#ccf45f"/><rect x="34.36" y="45.82" width="5.73" height="5.73" fill="#ccf45f"/><rect x="34.36" y="40.09" width="5.73" height="5.73" fill="#ccf45f"/><rect x="34.36" y="34.36" width="5.73" height="5.73" fill="#ccf45f"/><rect x="34.36" y="28.63" width="5.73" height="5.73" fill="#f7f7c1"/><rect x="34.36" y="22.91" width="5.73" height="5.73" fill="#f2fefe"/><rect x="34.36" y="17.18" width="5.73" height="5.73" fill="#a0e84d"/><rect x="34.36" y="11.45" width="5.73" height="5.73" fill="#f2fefe"/><rect x="34.36" y="5.73" width="5.73" height="5.73" fill="#f7f7c1"/><rect x="34.36" width="5.73" height="5.73" fill="#1b0003"/><rect x="28.64" y="91.63" width="5.73" height="5.73" fill="#1b0003"/><rect x="28.64" y="85.9" width="5.73" height="5.73" fill="#a0e84d"/><rect x="28.64" y="80.18" width="5.73" height="5.73" fill="#a0e84d"/><rect x="28.64" y="74.45" width="5.73" height="5.73" fill="#67ce3c"/><rect x="28.64" y="68.72" width="5.73" height="5.73" fill="#ccf45f"/><rect x="28.64" y="63" width="5.73" height="5.73" fill="#ccf45f"/><rect x="28.64" y="57.27" width="5.73" height="5.73" fill="#ccf45f"/><rect x="28.64" y="51.54" width="5.73" height="5.73" fill="#ccf45f"/><rect x="28.64" y="45.82" width="5.73" height="5.73" fill="#ccf45f"/><rect x="28.64" y="40.09" width="5.73" height="5.73" fill="#ccf45f"/><rect x="28.64" y="34.36" width="5.73" height="5.73" fill="#f7f7c1"/><rect x="28.64" y="28.63" width="5.73" height="5.73" fill="#f2fefe"/><rect x="28.64" y="22.91" width="5.73" height="5.73" fill="#f7f7c1"/><rect x="28.64" y="17.18" width="5.73" height="5.73" fill="#a0e84d"/><rect x="28.64" y="11.45" width="5.73" height="5.73" fill="#f2fefe"/><rect x="28.64" y="5.73" width="5.73" height="5.73" fill="#f7f7c1"/><rect x="28.64" width="5.73" height="5.73" fill="#27937b"/><rect x="22.91" y="91.63" width="5.73" height="5.73" fill="#1b0003"/><rect x="22.91" y="85.9" width="5.73" height="5.73" fill="#a0e84d"/><rect x="22.91" y="80.18" width="5.73" height="5.73" fill="#ccf45f"/><rect x="22.91" y="74.45" width="5.73" height="5.73" fill="#67ce3c"/><rect x="22.91" y="68.72" width="5.73" height="5.73" fill="#67ce3c"/><rect x="22.91" y="63" width="5.73" height="5.73" fill="#f7f7c1"/><rect x="22.91" y="57.27" width="5.73" height="5.73" fill="#f7f7c1"/><rect x="22.91" y="51.54" width="5.73" height="5.73" fill="#f7f7c1"/><rect x="22.91" y="45.82" width="5.73" height="5.73" fill="#f2fefe"/><rect x="22.91" y="40.09" width="5.73" height="5.73" fill="#f7f7c1"/><rect x="22.91" y="34.36" width="5.73" height="5.73" fill="#f2fefe"/><rect x="22.91" y="28.63" width="5.73" height="5.73" fill="#f2fefe"/><rect x="22.91" y="22.91" width="5.73" height="5.73" fill="#a0e84d"/><rect x="22.91" y="17.18" width="5.73" height="5.73" fill="#a0e84d"/><rect x="22.91" y="11.45" width="5.73" height="5.73" fill="#f2fefe"/><rect x="22.91" y="5.73" width="5.73" height="5.73" fill="#f7f7c1"/><rect x="22.91" width="5.73" height="5.73" fill="#67ce3c"/><rect x="17.18" y="91.63" width="5.73" height="5.73" fill="#1b0003"/><rect x="17.18" y="85.9" width="5.73" height="5.73" fill="#ccf45f"/><rect x="17.18" y="80.18" width="5.73" height="5.73" fill="#ccf45f"/><rect x="17.18" y="74.45" width="5.73" height="5.73" fill="#ccf45f"/><rect x="17.18" y="68.72" width="5.73" height="5.73" fill="#67ce3c"/><rect x="17.18" y="63" width="5.73" height="5.73" fill="#67ce3c"/><rect x="17.18" y="57.27" width="5.73" height="5.73" fill="#a0e84d"/><rect x="17.18" y="51.54" width="5.73" height="5.73" fill="#a0e84d"/><rect x="17.18" y="45.82" width="5.73" height="5.73" fill="#a0e84d"/><rect x="17.18" y="40.09" width="5.73" height="5.73" fill="#a0e84d"/><rect x="17.18" y="34.36" width="5.73" height="5.73" fill="#a0e84d"/><rect x="17.18" y="28.63" width="5.73" height="5.73" fill="#a0e84d"/><rect x="17.18" y="22.91" width="5.73" height="5.73" fill="#a0e84d"/><rect x="17.18" y="17.18" width="5.73" height="5.73" fill="#f2fefe"/><rect x="17.18" y="11.45" width="5.73" height="5.73" fill="#f7f7c1"/><rect x="17.18" y="5.73" width="5.73" height="5.73" fill="#ccf45f"/><rect x="17.18" width="5.73" height="5.73" fill="#67ce3c"/><rect x="11.45" y="85.9" width="5.73" height="5.73" fill="#1b0003"/><rect x="11.45" y="80.18" width="5.73" height="5.73" fill="#ccf45f"/><rect x="11.45" y="74.45" width="5.73" height="5.73" fill="#ccf45f"/><rect x="11.45" y="68.72" width="5.73" height="5.73" fill="#ccf45f"/><rect x="11.45" y="63" width="5.73" height="5.73" fill="#ccf45f"/><rect x="11.45" y="57.27" width="5.73" height="5.73" fill="#ccf45f"/><rect x="11.45" y="51.54" width="5.73" height="5.73" fill="#f7f7c1"/><rect x="11.45" y="45.82" width="5.73" height="5.73" fill="#f7f7c1"/><rect x="11.45" y="40.09" width="5.73" height="5.73" fill="#f7f7c1"/><rect x="11.45" y="34.36" width="5.73" height="5.73" fill="#f2fefe"/><rect x="11.45" y="28.63" width="5.73" height="5.73" fill="#f7f7c1"/><rect x="11.45" y="22.91" width="5.73" height="5.73" fill="#f2fefe"/><rect x="11.45" y="17.18" width="5.73" height="5.73" fill="#f7f7c1"/><rect x="11.45" y="11.45" width="5.73" height="5.73" fill="#ccf45f"/><rect x="11.45" y="5.73" width="5.73" height="5.73" fill="#67ce3c"/><rect x="5.73" y="80.18" width="5.73" height="5.73" fill="#1b0003"/><rect x="5.73" y="74.45" width="5.73" height="5.73" fill="#ccf45f"/><rect x="5.73" y="68.72" width="5.73" height="5.73" fill="#ccf45f"/><rect x="5.73" y="63" width="5.73" height="5.73" fill="#ccf45f"/><rect x="5.73" y="57.27" width="5.73" height="5.73" fill="#ccf45f"/><rect x="5.73" y="51.54" width="5.73" height="5.73" fill="#ccf45f"/><rect x="5.73" y="45.82" width="5.73" height="5.73" fill="#ccf45f"/><rect x="5.73" y="40.09" width="5.73" height="5.73" fill="#ccf45f"/><rect x="5.73" y="34.36" width="5.73" height="5.73" fill="#f7f7c1"/><rect x="5.73" y="28.63" width="5.73" height="5.73" fill="#f7f7c1"/><rect x="5.73" y="22.91" width="5.73" height="5.73" fill="#f7f7c1"/><rect x="5.73" y="17.18" width="5.73" height="5.73" fill="#ccf45f"/><rect x="5.73" y="11.45" width="5.73" height="5.73" fill="#67ce3c"/><rect y="74.45" width="5.73" height="5.73" fill="#1b0003"/><rect y="68.72" width="5.73" height="5.73" fill="#1b0003"/><rect y="63" width="5.73" height="5.73" fill="#1b0003"/><rect y="57.27" width="5.73" height="5.73" fill="#1b0003"/><rect y="51.54" width="5.73" height="5.73" fill="#1b0003"/><rect y="45.82" width="5.73" height="5.73" fill="#1b0003"/><rect y="40.09" width="5.73" height="5.73" fill="#1b0003"/><rect y="34.36" width="5.73" height="5.73" fill="#1b0003"/><rect y="28.63" width="5.73" height="5.73" fill="#27937b"/><rect y="22.91" width="5.73" height="5.73" fill="#67ce3c"/><rect y="17.18" width="5.73" height="5.73" fill="#67ce3c"/></g></g></g></svg>