<svg xmlns="http://www.w3.org/2000/svg" width="110.3" height="145.13" viewBox="0 0 110.3 145.13"><g id="Layer_2" data-name="Layer 2"><g id="items"><g id="Empty_Potion_Bottle_1" data-name="Empty Potion Bottle 1"><rect x="104.49" y="133.52" width="5.81" height="5.81" fill="#1b0003"/><rect x="104.49" y="127.72" width="5.81" height="5.81" fill="#1b0003"/><rect x="104.49" y="121.91" width="5.81" height="5.81" fill="#1b0003"/><rect x="104.49" y="116.11" width="5.81" height="5.81" fill="#1b0003"/><rect x="104.49" y="110.3" width="5.81" height="5.81" fill="#1b0003"/><rect x="98.69" y="139.33" width="5.81" height="5.81" fill="#1b0003"/><rect x="98.69" y="133.52" width="5.81" height="5.81" fill="#6a87af"/><rect x="98.69" y="127.72" width="5.81" height="5.81" fill="#6a87af"/><rect x="98.69" y="121.91" width="5.81" height="5.81" fill="#a3c6e2"/><rect x="98.69" y="116.11" width="5.81" height="5.81" fill="#a3c6e2"/><rect x="98.69" y="110.3" width="5.81" height="5.81" fill="#a3c6e2"/><rect x="98.69" y="104.5" width="5.81" height="5.81" fill="#1b0003"/><rect x="98.69" y="98.69" width="5.81" height="5.81" fill="#1b0003"/><rect x="92.88" y="139.33" width="5.81" height="5.81" fill="#1b0003"/><rect x="92.88" y="133.52" width="5.81" height="5.81" fill="#6a87af"/><rect x="92.88" y="127.72" width="5.81" height="5.81" fill="#bedbed"/><rect x="92.88" y="121.91" width="5.81" height="5.81" fill="#bedbed"/><rect x="92.88" y="116.11" width="5.81" height="5.81" fill="#bedbed"/><rect x="92.88" y="110.3" width="5.81" height="5.81" fill="#bedbed"/><rect x="92.88" y="104.5" width="5.81" height="5.81" fill="#a3c6e2"/><rect x="92.88" y="98.69" width="5.81" height="5.81" fill="#a3c6e2"/><rect x="92.88" y="92.88" width="5.81" height="5.81" fill="#1b0003"/><rect x="87.08" y="139.33" width="5.81" height="5.81" fill="#1b0003"/><rect x="87.08" y="133.52" width="5.81" height="5.81" fill="#6a87af"/><rect x="87.08" y="127.72" width="5.81" height="5.81" fill="#a3c6e2"/><rect x="87.08" y="121.91" width="5.81" height="5.81" fill="#a3c6e2"/><rect x="87.08" y="116.11" width="5.81" height="5.81" fill="#a3c6e2"/><rect x="87.08" y="110.3" width="5.81" height="5.81" fill="#6a87af"/><rect x="87.08" y="104.5" width="5.81" height="5.81" fill="#e3f7ff"/><rect x="87.08" y="98.69" width="5.81" height="5.81" fill="#e3f7ff"/><rect x="87.08" y="92.88" width="5.81" height="5.81" fill="#a3c6e2"/><rect x="87.08" y="87.08" width="5.81" height="5.81" fill="#1b0003"/><rect x="81.27" y="139.33" width="5.81" height="5.81" fill="#1b0003"/><rect x="81.27" y="133.52" width="5.81" height="5.81" fill="#6a87af"/><rect x="81.27" y="127.72" width="5.81" height="5.81" fill="#a3c6e2"/><rect x="81.27" y="121.91" width="5.81" height="5.81" fill="#a3c6e2"/><rect x="81.27" y="116.11" width="5.81" height="5.81" fill="#a3c6e2"/><rect x="81.27" y="110.3" width="5.81" height="5.81" fill="#a3c6e2"/><rect x="81.27" y="104.5" width="5.81" height="5.81" fill="#6a87af"/><rect x="81.27" y="98.69" width="5.81" height="5.81" fill="#e3f7ff"/><rect x="81.27" y="92.88" width="5.81" height="5.81" fill="#e3f7ff"/><rect x="81.27" y="87.08" width="5.81" height="5.81" fill="#bedbed"/><rect x="81.27" y="81.27" width="5.81" height="5.81" fill="#1b0003"/><rect x="75.47" y="139.33" width="5.81" height="5.81" fill="#1b0003"/><rect x="75.47" y="133.52" width="5.81" height="5.81" fill="#6a87af"/><rect x="75.47" y="127.72" width="5.81" height="5.81" fill="#a3c6e2"/><rect x="75.47" y="121.91" width="5.81" height="5.81" fill="#bedbed"/><rect x="75.47" y="116.11" width="5.81" height="5.81" fill="#a3c6e2"/><rect x="75.47" y="110.3" width="5.81" height="5.81" fill="#bedbed"/><rect x="75.47" y="104.5" width="5.81" height="5.81" fill="#a3c6e2"/><rect x="75.47" y="98.69" width="5.81" height="5.81" fill="#6a87af"/><rect x="75.47" y="92.88" width="5.81" height="5.81" fill="#e3f7ff"/><rect x="75.47" y="87.08" width="5.81" height="5.81" fill="#e3f7ff"/><rect x="75.47" y="81.27" width="5.81" height="5.81" fill="#a3c6e2"/><rect x="75.47" y="75.47" width="5.81" height="5.81" fill="#1b0003"/><rect x="69.66" y="139.33" width="5.81" height="5.81" fill="#1b0003"/><rect x="69.66" y="133.52" width="5.81" height="5.81" fill="#6a87af"/><rect x="69.66" y="127.72" width="5.81" height="5.81" fill="#a3c6e2"/><rect x="69.66" y="121.91" width="5.81" height="5.81" fill="#a3c6e2"/><rect x="69.66" y="116.11" width="5.81" height="5.81" fill="#bedbed"/><rect x="69.66" y="110.3" width="5.81" height="5.81" fill="#a3c6e2"/><rect x="69.66" y="104.5" width="5.81" height="5.81" fill="#bedbed"/><rect x="69.66" y="98.69" width="5.81" height="5.81" fill="#a3c6e2"/><rect x="69.66" y="92.88" width="5.81" height="5.81" fill="#6a87af"/><rect x="69.66" y="87.08" width="5.81" height="5.81" fill="#e3f7ff"/><rect x="69.66" y="81.27" width="5.81" height="5.81" fill="#e3f7ff"/><rect x="69.66" y="75.47" width="5.81" height="5.81" fill="#a3c6e2"/><rect x="69.66" y="69.66" width="5.81" height="5.81" fill="#1b0003"/><rect x="69.66" y="17.42" width="5.81" height="5.81" fill="#1b0003"/><rect x="69.66" y="11.61" width="5.81" height="5.81" fill="#1b0003"/><rect x="63.86" y="139.33" width="5.81" height="5.81" fill="#1b0003"/><rect x="63.86" y="133.52" width="5.81" height="5.81" fill="#6a87af"/><rect x="63.86" y="127.72" width="5.81" height="5.81" fill="#a3c6e2"/><rect x="63.86" y="121.91" width="5.81" height="5.81" fill="#bedbed"/><rect x="63.86" y="116.11" width="5.81" height="5.81" fill="#a3c6e2"/><rect x="63.86" y="110.3" width="5.81" height="5.81" fill="#bedbed"/><rect x="63.86" y="104.5" width="5.81" height="5.81" fill="#a3c6e2"/><rect x="63.86" y="98.69" width="5.81" height="5.81" fill="#bedbed"/><rect x="63.86" y="92.88" width="5.81" height="5.81" fill="#a3c6e2"/><rect x="63.86" y="87.08" width="5.81" height="5.81" fill="#6a87af"/><rect x="63.86" y="81.27" width="5.81" height="5.81" fill="#e3f7ff"/><rect x="63.86" y="75.47" width="5.81" height="5.81" fill="#bedbed"/><rect x="63.86" y="69.66" width="5.81" height="5.81" fill="#a3c6e2"/><rect x="63.86" y="63.86" width="5.81" height="5.81" fill="#1b0003"/><rect x="63.86" y="58.05" width="5.81" height="5.81" fill="#1b0003"/><rect x="63.86" y="52.25" width="5.81" height="5.81" fill="#1b0003"/><rect x="63.86" y="46.44" width="5.81" height="5.81" fill="#1b0003"/><rect x="63.86" y="40.64" width="5.81" height="5.81" fill="#1b0003"/><rect x="63.86" y="34.83" width="5.81" height="5.81" fill="#1b0003"/><rect x="63.86" y="29.03" width="5.81" height="5.81" fill="#1b0003"/><rect x="63.86" y="23.22" width="5.81" height="5.81" fill="#1b0003"/><rect x="63.86" y="17.42" width="5.81" height="5.81" fill="#6a87af"/><rect x="63.86" y="11.61" width="5.81" height="5.81" fill="#1b0003"/><rect x="63.86" y="5.81" width="5.81" height="5.81" fill="#1b0003"/><rect x="58.05" y="17.42" width="5.81" height="5.81" fill="#7f1e14"/><rect x="58.05" y="11.61" width="5.81" height="5.81" fill="#1b0003"/><rect x="58.05" y="5.81" width="5.81" height="5.81" fill="#e86f3f"/><rect x="58.05" width="5.81" height="5.81" fill="#1b0003"/><rect x="58.05" y="139.33" width="5.81" height="5.81" fill="#1b0003"/><rect x="58.05" y="133.52" width="5.81" height="5.81" fill="#6a87af"/><rect x="58.05" y="127.72" width="5.81" height="5.81" fill="#a3c6e2"/><rect x="58.05" y="121.91" width="5.81" height="5.81" fill="#a3c6e2"/><rect x="58.05" y="116.11" width="5.81" height="5.81" fill="#bedbed"/><rect x="58.05" y="110.3" width="5.81" height="5.81" fill="#bedbed"/><rect x="58.05" y="104.5" width="5.81" height="5.81" fill="#bedbed"/><rect x="58.05" y="98.69" width="5.81" height="5.81" fill="#bedbed"/><rect x="58.05" y="92.88" width="5.81" height="5.81" fill="#a3c6e2"/><rect x="58.05" y="87.08" width="5.81" height="5.81" fill="#a3c6e2"/><rect x="58.05" y="81.27" width="5.81" height="5.81" fill="#6a87af"/><rect x="58.05" y="75.47" width="5.81" height="5.81" fill="#e3f7ff"/><rect x="58.05" y="69.66" width="5.81" height="5.81" fill="#bedbed"/><rect x="58.05" y="63.86" width="5.81" height="5.81" fill="#bedbed"/><rect x="58.05" y="58.05" width="5.81" height="5.81" fill="#a3c6e2"/><rect x="58.05" y="52.25" width="5.81" height="5.81" fill="#a3c6e2"/><rect x="58.05" y="46.44" width="5.81" height="5.81" fill="#bedbed"/><rect x="58.05" y="40.64" width="5.81" height="5.81" fill="#a3c6e2"/><rect x="58.05" y="34.83" width="5.81" height="5.81" fill="#a3c6e2"/><rect x="58.05" y="29.03" width="5.81" height="5.81" fill="#6a87af"/><rect x="58.05" y="23.22" width="5.81" height="5.81" fill="#6a87af"/><rect x="52.25" y="23.22" width="5.81" height="5.81" fill="#fff"/><rect x="52.25" y="17.42" width="5.81" height="5.81" fill="#7f1e14"/><rect x="52.25" y="11.61" width="5.81" height="5.81" fill="#1b0003"/><rect x="52.25" y="5.81" width="5.81" height="5.81" fill="#f2904e"/><rect x="52.25" width="5.81" height="5.81" fill="#1b0003"/><rect x="52.25" y="139.33" width="5.81" height="5.81" fill="#1b0003"/><rect x="52.25" y="133.52" width="5.81" height="5.81" fill="#6a87af"/><rect x="52.25" y="127.72" width="5.81" height="5.81" fill="#a3c6e2"/><rect x="52.25" y="121.91" width="5.81" height="5.81" fill="#bedbed"/><rect x="52.25" y="116.11" width="5.81" height="5.81" fill="#bedbed"/><rect x="52.25" y="110.3" width="5.81" height="5.81" fill="#bedbed"/><rect x="52.25" y="104.5" width="5.81" height="5.81" fill="#bedbed"/><rect x="52.25" y="98.69" width="5.81" height="5.81" fill="#a3c6e2"/><rect x="52.25" y="92.88" width="5.81" height="5.81" fill="#a3c6e2"/><rect x="52.25" y="87.08" width="5.81" height="5.81" fill="#a3c6e2"/><rect x="52.25" y="81.27" width="5.81" height="5.81" fill="#6a87af"/><rect x="52.25" y="75.47" width="5.81" height="5.81" fill="#fff"/><rect x="52.25" y="69.66" width="5.81" height="5.81" fill="#fff"/><rect x="52.25" y="63.86" width="5.81" height="5.81" fill="#fff"/><rect x="52.25" y="58.05" width="5.81" height="5.81" fill="#fff"/><rect x="52.25" y="52.25" width="5.81" height="5.81" fill="#fff"/><rect x="52.25" y="46.44" width="5.81" height="5.81" fill="#fff"/><rect x="52.25" y="40.64" width="5.81" height="5.81" fill="#fff"/><rect x="52.25" y="34.83" width="5.81" height="5.81" fill="#fff"/><rect x="52.25" y="29.03" width="5.81" height="5.81" fill="#fff"/><rect x="46.44" y="23.22" width="5.81" height="5.81" fill="#a3c6e2"/><rect x="46.44" y="17.42" width="5.81" height="5.81" fill="#7f1e14"/><rect x="46.44" y="11.61" width="5.81" height="5.81" fill="#1b0003"/><rect x="46.44" y="5.81" width="5.81" height="5.81" fill="#f2904e"/><rect x="46.44" width="5.81" height="5.81" fill="#1b0003"/><rect x="46.44" y="139.33" width="5.81" height="5.81" fill="#1b0003"/><rect x="46.44" y="133.52" width="5.81" height="5.81" fill="#a3c6e2"/><rect x="46.44" y="127.72" width="5.81" height="5.81" fill="#a3c6e2"/><rect x="46.44" y="121.91" width="5.81" height="5.81" fill="#bedbed"/><rect x="46.44" y="116.11" width="5.81" height="5.81" fill="#bedbed"/><rect x="46.44" y="110.3" width="5.81" height="5.81" fill="#bedbed"/><rect x="46.44" y="104.5" width="5.81" height="5.81" fill="#bedbed"/><rect x="46.44" y="98.69" width="5.81" height="5.81" fill="#a3c6e2"/><rect x="46.44" y="92.88" width="5.81" height="5.81" fill="#fff"/><rect x="46.44" y="87.08" width="5.81" height="5.81" fill="#a3c6e2"/><rect x="46.44" y="81.27" width="5.81" height="5.81" fill="#a3c6e2"/><rect x="46.44" y="75.47" width="5.81" height="5.81" fill="#a3c6e2"/><rect x="46.44" y="69.66" width="5.81" height="5.81" fill="#a3c6e2"/><rect x="46.44" y="63.86" width="5.81" height="5.81" fill="#a3c6e2"/><rect x="46.44" y="58.05" width="5.81" height="5.81" fill="#a3c6e2"/><rect x="46.44" y="52.25" width="5.81" height="5.81" fill="#a3c6e2"/><rect x="46.44" y="46.44" width="5.81" height="5.81" fill="#a3c6e2"/><rect x="46.44" y="40.64" width="5.81" height="5.81" fill="#a3c6e2"/><rect x="46.44" y="34.83" width="5.81" height="5.81" fill="#a3c6e2"/><rect x="46.44" y="29.03" width="5.81" height="5.81" fill="#a3c6e2"/><rect x="40.64" y="23.22" width="5.81" height="5.81" fill="#1b0003"/><rect x="40.64" y="17.42" width="5.81" height="5.81" fill="#bedbed"/><rect x="40.64" y="11.61" width="5.81" height="5.81" fill="#1b0003"/><rect x="40.64" y="5.81" width="5.81" height="5.81" fill="#1b0003"/><rect x="40.64" y="139.33" width="5.81" height="5.81" fill="#1b0003"/><rect x="40.64" y="133.52" width="5.81" height="5.81" fill="#a3c6e2"/><rect x="40.64" y="127.72" width="5.81" height="5.81" fill="#bedbed"/><rect x="40.64" y="121.91" width="5.81" height="5.81" fill="#bedbed"/><rect x="40.64" y="116.11" width="5.81" height="5.81" fill="#bedbed"/><rect x="40.64" y="110.3" width="5.81" height="5.81" fill="#bedbed"/><rect x="40.64" y="104.5" width="5.81" height="5.81" fill="#a3c6e2"/><rect x="40.64" y="98.69" width="5.81" height="5.81" fill="#a3c6e2"/><rect x="40.64" y="92.88" width="5.81" height="5.81" fill="#fff"/><rect x="40.64" y="87.08" width="5.81" height="5.81" fill="#fff"/><rect x="40.64" y="81.27" width="5.81" height="5.81" fill="#a3c6e2"/><rect x="40.64" y="75.47" width="5.81" height="5.81" fill="#a3c6e2"/><rect x="40.64" y="69.66" width="5.81" height="5.81" fill="#223c5b"/><rect x="40.64" y="63.86" width="5.81" height="5.81" fill="#1b0003"/><rect x="40.64" y="58.05" width="5.81" height="5.81" fill="#1b0003"/><rect x="40.64" y="52.25" width="5.81" height="5.81" fill="#1b0003"/><rect x="40.64" y="46.44" width="5.81" height="5.81" fill="#1b0003"/><rect x="40.64" y="40.64" width="5.81" height="5.81" fill="#1b0003"/><rect x="40.64" y="34.83" width="5.81" height="5.81" fill="#1b0003"/><rect x="40.64" y="29.03" width="5.81" height="5.81" fill="#1b0003"/><rect x="34.83" y="17.42" width="5.81" height="5.81" fill="#1b0003"/><rect x="34.83" y="11.61" width="5.81" height="5.81" fill="#1b0003"/><rect x="34.83" y="139.33" width="5.81" height="5.81" fill="#1b0003"/><rect x="34.83" y="133.52" width="5.81" height="5.81" fill="#a3c6e2"/><rect x="34.83" y="127.72" width="5.81" height="5.81" fill="#bedbed"/><rect x="34.83" y="121.91" width="5.81" height="5.81" fill="#bedbed"/><rect x="34.83" y="116.11" width="5.81" height="5.81" fill="#bedbed"/><rect x="34.83" y="110.3" width="5.81" height="5.81" fill="#a3c6e2"/><rect x="34.83" y="104.5" width="5.81" height="5.81" fill="#a3c6e2"/><rect x="34.83" y="98.69" width="5.81" height="5.81" fill="#fff"/><rect x="34.83" y="92.88" width="5.81" height="5.81" fill="#fff"/><rect x="34.83" y="87.08" width="5.81" height="5.81" fill="#fff"/><rect x="34.83" y="81.27" width="5.81" height="5.81" fill="#fff"/><rect x="34.83" y="75.47" width="5.81" height="5.81" fill="#a3c6e2"/><rect x="34.83" y="69.66" width="5.81" height="5.81" fill="#1b0003"/><rect x="29.03" y="139.33" width="5.81" height="5.81" fill="#1b0003"/><rect x="29.03" y="133.52" width="5.81" height="5.81" fill="#a3c6e2"/><rect x="29.03" y="127.72" width="5.81" height="5.81" fill="#bedbed"/><rect x="29.03" y="121.91" width="5.81" height="5.81" fill="#bedbed"/><rect x="29.03" y="116.11" width="5.81" height="5.81" fill="#bedbed"/><rect x="29.03" y="110.3" width="5.81" height="5.81" fill="#a3c6e2"/><rect x="29.03" y="104.5" width="5.81" height="5.81" fill="#fff"/><rect x="29.03" y="98.69" width="5.81" height="5.81" fill="#fff"/><rect x="29.03" y="92.88" width="5.81" height="5.81" fill="#fff"/><rect x="29.03" y="87.08" width="5.81" height="5.81" fill="#fff"/><rect x="29.03" y="81.27" width="5.81" height="5.81" fill="#a3c6e2"/><rect x="29.03" y="75.47" width="5.81" height="5.81" fill="#1b0003"/><rect x="23.22" y="139.33" width="5.81" height="5.81" fill="#1b0003"/><rect x="23.22" y="133.52" width="5.81" height="5.81" fill="#a3c6e2"/><rect x="23.22" y="127.72" width="5.81" height="5.81" fill="#bedbed"/><rect x="23.22" y="121.91" width="5.81" height="5.81" fill="#bedbed"/><rect x="23.22" y="116.11" width="5.81" height="5.81" fill="#a3c6e2"/><rect x="23.22" y="110.3" width="5.81" height="5.81" fill="#a3c6e2"/><rect x="23.22" y="104.5" width="5.81" height="5.81" fill="#fff"/><rect x="23.22" y="98.69" width="5.81" height="5.81" fill="#fff"/><rect x="23.22" y="92.88" width="5.81" height="5.81" fill="#fff"/><rect x="23.22" y="87.08" width="5.81" height="5.81" fill="#a3c6e2"/><rect x="23.22" y="81.27" width="5.81" height="5.81" fill="#1b0003"/><rect x="17.42" y="139.33" width="5.81" height="5.81" fill="#1b0003"/><rect x="17.42" y="133.52" width="5.81" height="5.81" fill="#a3c6e2"/><rect x="17.42" y="127.72" width="5.81" height="5.81" fill="#bedbed"/><rect x="17.42" y="121.91" width="5.81" height="5.81" fill="#bedbed"/><rect x="17.42" y="116.11" width="5.81" height="5.81" fill="#fff"/><rect x="17.42" y="110.3" width="5.81" height="5.81" fill="#fff"/><rect x="17.42" y="104.5" width="5.81" height="5.81" fill="#fff"/><rect x="17.42" y="98.69" width="5.81" height="5.81" fill="#fff"/><rect x="17.42" y="92.88" width="5.81" height="5.81" fill="#a3c6e2"/><rect x="17.42" y="87.08" width="5.81" height="5.81" fill="#1b0003"/><rect x="11.61" y="139.33" width="5.81" height="5.81" fill="#1b0003"/><rect x="11.61" y="133.52" width="5.81" height="5.81" fill="#a3c6e2"/><rect x="11.61" y="127.72" width="5.81" height="5.81" fill="#bedbed"/><rect x="11.61" y="121.91" width="5.81" height="5.81" fill="#a3c6e2"/><rect x="11.61" y="116.11" width="5.81" height="5.81" fill="#a3c6e2"/><rect x="11.61" y="110.3" width="5.81" height="5.81" fill="#a3c6e2"/><rect x="11.61" y="104.5" width="5.81" height="5.81" fill="#e3f7ff"/><rect x="11.61" y="98.69" width="5.81" height="5.81" fill="#e3f7ff"/><rect x="11.61" y="92.88" width="5.81" height="5.81" fill="#1b0003"/><rect x="5.81" y="139.33" width="5.81" height="5.81" fill="#1b0003"/><rect x="5.81" y="133.52" width="5.81" height="5.81" fill="#a3c6e2"/><rect x="5.81" y="127.72" width="5.81" height="5.81" fill="#a3c6e2"/><rect x="5.81" y="121.91" width="5.81" height="5.81" fill="#a3c6e2"/><rect x="5.81" y="116.11" width="5.81" height="5.81" fill="#a3c6e2"/><rect x="5.81" y="110.3" width="5.81" height="5.81" fill="#e3f7ff"/><rect x="5.81" y="104.5" width="5.81" height="5.81" fill="#1b0003"/><rect x="5.81" y="98.69" width="5.81" height="5.81" fill="#1b0003"/><rect y="133.52" width="5.81" height="5.81" fill="#1b0003"/><rect y="127.72" width="5.81" height="5.81" fill="#1b0003"/><rect y="121.91" width="5.81" height="5.81" fill="#1b0003"/><rect y="116.11" width="5.81" height="5.81" fill="#1b0003"/><rect y="110.3" width="5.81" height="5.81" fill="#1b0003"/></g></g></g></svg>