<svg xmlns="http://www.w3.org/2000/svg" width="101.59" height="145.13" viewBox="0 0 101.59 145.13"><g id="Layer_2" data-name="Layer 2"><g id="items"><g id="Empty_Potion_Bottle_2" data-name="Empty Potion Bottle 2"><rect x="96.76" y="106.43" width="4.84" height="4.84" fill="#1b0003"/><rect x="96.76" y="101.59" width="4.84" height="4.84" fill="#1b0003"/><rect x="96.76" y="96.75" width="4.84" height="4.84" fill="#1b0003"/><rect x="96.76" y="91.92" width="4.84" height="4.84" fill="#1b0003"/><rect x="91.92" y="116.11" width="4.84" height="4.84" fill="#1b0003"/><rect x="91.92" y="111.27" width="4.84" height="4.84" fill="#1b0003"/><rect x="91.92" y="106.43" width="4.84" height="4.84" fill="#6a87af"/><rect x="91.92" y="101.59" width="4.84" height="4.84" fill="#6a87af"/><rect x="91.92" y="96.75" width="4.84" height="4.84" fill="#6a87af"/><rect x="91.92" y="91.92" width="4.84" height="4.84" fill="#6a87af"/><rect x="91.92" y="87.08" width="4.84" height="4.84" fill="#1b0003"/><rect x="91.92" y="82.24" width="4.84" height="4.84" fill="#1b0003"/><rect x="87.08" y="125.78" width="4.84" height="4.84" fill="#1b0003"/><rect x="87.08" y="120.94" width="4.84" height="4.84" fill="#1b0003"/><rect x="87.08" y="116.11" width="4.84" height="4.84" fill="#6a87af"/><rect x="87.08" y="111.27" width="4.84" height="4.84" fill="#6a87af"/><rect x="87.08" y="106.43" width="4.84" height="4.84" fill="#a3c6e2"/><rect x="87.08" y="101.59" width="4.84" height="4.84" fill="#a3c6e2"/><rect x="87.08" y="96.75" width="4.84" height="4.84" fill="#a3c6e2"/><rect x="87.08" y="91.92" width="4.84" height="4.84" fill="#a3c6e2"/><rect x="87.08" y="87.08" width="4.84" height="4.84" fill="#6a87af"/><rect x="87.08" y="82.24" width="4.84" height="4.84" fill="#6a87af"/><rect x="87.08" y="77.4" width="4.84" height="4.84" fill="#1b0003"/><rect x="87.08" y="72.57" width="4.84" height="4.84" fill="#1b0003"/><rect x="82.24" y="130.62" width="4.84" height="4.84" fill="#1b0003"/><rect x="82.24" y="125.78" width="4.84" height="4.84" fill="#6a87af"/><rect x="82.24" y="120.94" width="4.84" height="4.84" fill="#6a87af"/><rect x="82.24" y="116.11" width="4.84" height="4.84" fill="#a3c6e2"/><rect x="82.24" y="111.27" width="4.84" height="4.84" fill="#a3c6e2"/><rect x="82.24" y="106.43" width="4.84" height="4.84" fill="#a3c6e2"/><rect x="82.24" y="101.59" width="4.84" height="4.84" fill="#a3c6e2"/><rect x="82.24" y="96.75" width="4.84" height="4.84" fill="#a3c6e2"/><rect x="82.24" y="91.92" width="4.84" height="4.84" fill="#a3c6e2"/><rect x="82.24" y="87.08" width="4.84" height="4.84" fill="#a3c6e2"/><rect x="82.24" y="82.24" width="4.84" height="4.84" fill="#a3c6e2"/><rect x="82.24" y="77.4" width="4.84" height="4.84" fill="#6a87af"/><rect x="82.24" y="72.57" width="4.84" height="4.84" fill="#6a87af"/><rect x="82.24" y="67.73" width="4.84" height="4.84" fill="#1b0003"/><rect x="77.4" y="135.46" width="4.84" height="4.84" fill="#1b0003"/><rect x="77.4" y="130.62" width="4.84" height="4.84" fill="#6a87af"/><rect x="77.4" y="125.78" width="4.84" height="4.84" fill="#a3c6e2"/><rect x="77.4" y="120.94" width="4.84" height="4.84" fill="#a3c6e2"/><rect x="77.4" y="116.11" width="4.84" height="4.84" fill="#a3c6e2"/><rect x="77.4" y="111.27" width="4.84" height="4.84" fill="#a3c6e2"/><rect x="77.4" y="106.43" width="4.84" height="4.84" fill="#a3c6e2"/><rect x="77.4" y="101.59" width="4.84" height="4.84" fill="#a3c6e2"/><rect x="77.4" y="96.75" width="4.84" height="4.84" fill="#a3c6e2"/><rect x="77.4" y="91.92" width="4.84" height="4.84" fill="#a3c6e2"/><rect x="77.4" y="87.08" width="4.84" height="4.84" fill="#fff"/><rect x="77.4" y="82.24" width="4.84" height="4.84" fill="#fff"/><rect x="77.4" y="77.4" width="4.84" height="4.84" fill="#fff"/><rect x="77.4" y="72.57" width="4.84" height="4.84" fill="#a3c6e2"/><rect x="77.4" y="67.73" width="4.84" height="4.84" fill="#a3c6e2"/><rect x="77.4" y="62.89" width="4.84" height="4.84" fill="#1b0003"/><rect x="72.57" y="135.46" width="4.84" height="4.84" fill="#1b0003"/><rect x="72.57" y="130.62" width="4.84" height="4.84" fill="#6a87af"/><rect x="72.57" y="125.78" width="4.84" height="4.84" fill="#a3c6e2"/><rect x="72.57" y="120.94" width="4.84" height="4.84" fill="#a3c6e2"/><rect x="72.57" y="116.11" width="4.84" height="4.84" fill="#a3c6e2"/><rect x="72.57" y="111.27" width="4.84" height="4.84" fill="#a3c6e2"/><rect x="72.57" y="106.43" width="4.84" height="4.84" fill="#a3c6e2"/><rect x="72.57" y="101.59" width="4.84" height="4.84" fill="#bedbed"/><rect x="72.57" y="96.75" width="4.84" height="4.84" fill="#a3c6e2"/><rect x="72.57" y="91.92" width="4.84" height="4.84" fill="#a3c6e2"/><rect x="72.57" y="87.08" width="4.84" height="4.84" fill="#a3c6e2"/><rect x="72.57" y="82.24" width="4.84" height="4.84" fill="#a3c6e2"/><rect x="72.57" y="77.4" width="4.84" height="4.84" fill="#fff"/><rect x="72.57" y="72.57" width="4.84" height="4.84" fill="#fff"/><rect x="72.57" y="67.73" width="4.84" height="4.84" fill="#a3c6e2"/><rect x="72.57" y="62.89" width="4.84" height="4.84" fill="#1b0003"/><rect x="67.73" y="140.29" width="4.84" height="4.84" fill="#1b0003"/><rect x="67.73" y="135.46" width="4.84" height="4.84" fill="#6a87af"/><rect x="67.73" y="130.62" width="4.84" height="4.84" fill="#a3c6e2"/><rect x="67.73" y="125.78" width="4.84" height="4.84" fill="#a3c6e2"/><rect x="67.73" y="120.94" width="4.84" height="4.84" fill="#a3c6e2"/><rect x="67.73" y="116.11" width="4.84" height="4.84" fill="#a3c6e2"/><rect x="67.73" y="111.27" width="4.84" height="4.84" fill="#a3c6e2"/><rect x="67.73" y="106.43" width="4.84" height="4.84" fill="#bedbed"/><rect x="67.73" y="101.59" width="4.84" height="4.84" fill="#a3c6e2"/><rect x="67.73" y="96.75" width="4.84" height="4.84" fill="#bedbed"/><rect x="67.73" y="91.92" width="4.84" height="4.84" fill="#a3c6e2"/><rect x="67.73" y="87.08" width="4.84" height="4.84" fill="#bedbed"/><rect x="67.73" y="82.24" width="4.84" height="4.84" fill="#a3c6e2"/><rect x="67.73" y="77.4" width="4.84" height="4.84" fill="#a3c6e2"/><rect x="67.73" y="72.57" width="4.84" height="4.84" fill="#fff"/><rect x="67.73" y="67.73" width="4.84" height="4.84" fill="#fff"/><rect x="67.73" y="62.89" width="4.84" height="4.84" fill="#a3c6e2"/><rect x="67.73" y="58.05" width="4.84" height="4.84" fill="#1b0003"/><rect x="62.89" y="140.29" width="4.84" height="4.84" fill="#1b0003"/><rect x="62.89" y="135.46" width="4.84" height="4.84" fill="#6a87af"/><rect x="62.89" y="130.62" width="4.84" height="4.84" fill="#a3c6e2"/><rect x="62.89" y="125.78" width="4.84" height="4.84" fill="#a3c6e2"/><rect x="62.89" y="120.94" width="4.84" height="4.84" fill="#a3c6e2"/><rect x="62.89" y="116.11" width="4.84" height="4.84" fill="#a3c6e2"/><rect x="62.89" y="111.27" width="4.84" height="4.84" fill="#bedbed"/><rect x="62.89" y="106.43" width="4.84" height="4.84" fill="#a3c6e2"/><rect x="62.89" y="101.59" width="4.84" height="4.84" fill="#bedbed"/><rect x="62.89" y="96.75" width="4.84" height="4.84" fill="#a3c6e2"/><rect x="62.89" y="91.92" width="4.84" height="4.84" fill="#bedbed"/><rect x="62.89" y="87.08" width="4.84" height="4.84" fill="#bedbed"/><rect x="62.89" y="82.24" width="4.84" height="4.84" fill="#a3c6e2"/><rect x="62.89" y="77.4" width="4.84" height="4.84" fill="#a3c6e2"/><rect x="62.89" y="72.57" width="4.84" height="4.84" fill="#a3c6e2"/><rect x="62.89" y="67.73" width="4.84" height="4.84" fill="#fff"/><rect x="62.89" y="62.89" width="4.84" height="4.84" fill="#a3c6e2"/><rect x="62.89" y="58.05" width="4.84" height="4.84" fill="#1b0003"/><rect x="62.89" y="14.51" width="4.84" height="4.84" fill="#1b0003"/><rect x="62.89" y="9.68" width="4.84" height="4.84" fill="#1b0003"/><rect x="58.05" y="140.29" width="4.84" height="4.84" fill="#1b0003"/><rect x="58.05" y="135.46" width="4.84" height="4.84" fill="#6a87af"/><rect x="58.05" y="130.62" width="4.84" height="4.84" fill="#a3c6e2"/><rect x="58.05" y="125.78" width="4.84" height="4.84" fill="#a3c6e2"/><rect x="58.05" y="120.94" width="4.84" height="4.84" fill="#a3c6e2"/><rect x="58.05" y="116.11" width="4.84" height="4.84" fill="#bedbed"/><rect x="58.05" y="111.27" width="4.84" height="4.84" fill="#a3c6e2"/><rect x="58.05" y="106.43" width="4.84" height="4.84" fill="#bedbed"/><rect x="58.05" y="101.59" width="4.84" height="4.84" fill="#a3c6e2"/><rect x="58.05" y="96.75" width="4.84" height="4.84" fill="#bedbed"/><rect x="58.05" y="91.92" width="4.84" height="4.84" fill="#bedbed"/><rect x="58.05" y="87.08" width="4.84" height="4.84" fill="#bedbed"/><rect x="58.05" y="82.24" width="4.84" height="4.84" fill="#bedbed"/><rect x="58.05" y="77.4" width="4.84" height="4.84" fill="#bedbed"/><rect x="58.05" y="72.57" width="4.84" height="4.84" fill="#a3c6e2"/><rect x="58.05" y="67.73" width="4.84" height="4.84" fill="#a3c6e2"/><rect x="58.05" y="62.89" width="4.84" height="4.84" fill="#bedbed"/><rect x="58.05" y="58.05" width="4.84" height="4.84" fill="#223c5b"/><rect x="58.05" y="53.22" width="4.84" height="4.84" fill="#1b0003"/><rect x="58.05" y="48.38" width="4.84" height="4.84" fill="#1b0003"/><rect x="58.05" y="43.54" width="4.84" height="4.84" fill="#1b0003"/><rect x="58.05" y="38.7" width="4.84" height="4.84" fill="#1b0003"/><rect x="58.05" y="33.86" width="4.84" height="4.84" fill="#1b0003"/><rect x="58.05" y="29.03" width="4.84" height="4.84" fill="#1b0003"/><rect x="58.05" y="24.19" width="4.84" height="4.84" fill="#1b0003"/><rect x="58.05" y="19.35" width="4.84" height="4.84" fill="#1b0003"/><rect x="58.05" y="14.51" width="4.84" height="4.84" fill="#6a87af"/><rect x="58.05" y="9.68" width="4.84" height="4.84" fill="#1b0003"/><rect x="58.05" y="4.84" width="4.84" height="4.84" fill="#1b0003"/><rect x="53.22" y="140.29" width="4.84" height="4.84" fill="#1b0003"/><rect x="53.22" y="135.46" width="4.84" height="4.84" fill="#6a87af"/><rect x="53.22" y="130.62" width="4.84" height="4.84" fill="#a3c6e2"/><rect x="53.22" y="125.78" width="4.84" height="4.84" fill="#a3c6e2"/><rect x="53.22" y="120.94" width="4.84" height="4.84" fill="#bedbed"/><rect x="53.22" y="116.11" width="4.84" height="4.84" fill="#a3c6e2"/><rect x="53.22" y="111.27" width="4.84" height="4.84" fill="#bedbed"/><rect x="53.22" y="106.43" width="4.84" height="4.84" fill="#a3c6e2"/><rect x="53.22" y="101.59" width="4.84" height="4.84" fill="#bedbed"/><rect x="53.22" y="96.75" width="4.84" height="4.84" fill="#bedbed"/><rect x="53.22" y="91.92" width="4.84" height="4.84" fill="#bedbed"/><rect x="53.22" y="87.08" width="4.84" height="4.84" fill="#bedbed"/><rect x="53.22" y="82.24" width="4.84" height="4.84" fill="#bedbed"/><rect x="53.22" y="77.4" width="4.84" height="4.84" fill="#bedbed"/><rect x="53.22" y="72.57" width="4.84" height="4.84" fill="#a3c6e2"/><rect x="53.22" y="67.73" width="4.84" height="4.84" fill="#a3c6e2"/><rect x="53.22" y="62.89" width="4.84" height="4.84" fill="#bedbed"/><rect x="53.22" y="58.05" width="4.84" height="4.84" fill="#bedbed"/><rect x="53.22" y="53.22" width="4.84" height="4.84" fill="#bedbed"/><rect x="53.22" y="48.38" width="4.84" height="4.84" fill="#bedbed"/><rect x="53.22" y="43.54" width="4.84" height="4.84" fill="#bedbed"/><rect x="53.22" y="38.7" width="4.84" height="4.84" fill="#bedbed"/><rect x="53.22" y="33.86" width="4.84" height="4.84" fill="#a3c6e2"/><rect x="53.22" y="29.03" width="4.84" height="4.84" fill="#a3c6e2"/><rect x="53.22" y="24.19" width="4.84" height="4.84" fill="#6a87af"/><rect x="53.22" y="19.35" width="4.84" height="4.84" fill="#6a87af"/><rect x="53.22" y="14.51" width="4.84" height="4.84" fill="#7f1e14"/><rect x="53.22" y="9.68" width="4.84" height="4.84" fill="#1b0003"/><rect x="53.22" y="4.84" width="4.84" height="4.84" fill="#e86f3f"/><rect x="53.22" width="4.84" height="4.84" fill="#1b0003"/><rect x="48.38" y="140.29" width="4.84" height="4.84" fill="#1b0003"/><rect x="48.38" y="135.46" width="4.84" height="4.84" fill="#6a87af"/><rect x="48.38" y="130.62" width="4.84" height="4.84" fill="#a3c6e2"/><rect x="48.38" y="125.78" width="4.84" height="4.84" fill="#a3c6e2"/><rect x="48.38" y="120.94" width="4.84" height="4.84" fill="#a3c6e2"/><rect x="48.38" y="116.11" width="4.84" height="4.84" fill="#bedbed"/><rect x="48.38" y="111.27" width="4.84" height="4.84" fill="#bedbed"/><rect x="48.38" y="106.43" width="4.84" height="4.84" fill="#bedbed"/><rect x="48.38" y="101.59" width="4.84" height="4.84" fill="#bedbed"/><rect x="48.38" y="96.75" width="4.84" height="4.84" fill="#bedbed"/><rect x="48.38" y="91.92" width="4.84" height="4.84" fill="#bedbed"/><rect x="48.38" y="87.08" width="4.84" height="4.84" fill="#bedbed"/><rect x="48.38" y="82.24" width="4.84" height="4.84" fill="#bedbed"/><rect x="48.38" y="77.4" width="4.84" height="4.84" fill="#bedbed"/><rect x="48.38" y="72.57" width="4.84" height="4.84" fill="#bedbed"/><rect x="48.38" y="67.73" width="4.84" height="4.84" fill="#a3c6e2"/><rect x="48.38" y="62.89" width="4.84" height="4.84" fill="#fff"/><rect x="48.38" y="58.05" width="4.84" height="4.84" fill="#fff"/><rect x="48.38" y="53.22" width="4.84" height="4.84" fill="#fff"/><rect x="48.38" y="48.38" width="4.84" height="4.84" fill="#fff"/><rect x="48.38" y="43.54" width="4.84" height="4.84" fill="#fff"/><rect x="48.38" y="38.7" width="4.84" height="4.84" fill="#fff"/><rect x="48.38" y="33.86" width="4.84" height="4.84" fill="#fff"/><rect x="48.38" y="29.03" width="4.84" height="4.84" fill="#fff"/><rect x="48.38" y="24.19" width="4.84" height="4.84" fill="#fff"/><rect x="48.38" y="19.35" width="4.84" height="4.84" fill="#fff"/><rect x="48.38" y="14.51" width="4.84" height="4.84" fill="#7f1e14"/><rect x="48.38" y="9.68" width="4.84" height="4.84" fill="#1b0003"/><rect x="48.38" y="4.84" width="4.84" height="4.84" fill="#f2904e"/><rect x="48.38" width="4.84" height="4.84" fill="#1b0003"/><rect x="43.54" y="140.29" width="4.84" height="4.84" fill="#1b0003"/><rect x="43.54" y="135.46" width="4.84" height="4.84" fill="#6a87af"/><rect x="43.54" y="130.62" width="4.84" height="4.84" fill="#a3c6e2"/><rect x="43.54" y="125.78" width="4.84" height="4.84" fill="#a3c6e2"/><rect x="43.54" y="120.94" width="4.84" height="4.84" fill="#bedbed"/><rect x="43.54" y="116.11" width="4.84" height="4.84" fill="#bedbed"/><rect x="43.54" y="111.27" width="4.84" height="4.84" fill="#bedbed"/><rect x="43.54" y="106.43" width="4.84" height="4.84" fill="#bedbed"/><rect x="43.54" y="101.59" width="4.84" height="4.84" fill="#bedbed"/><rect x="43.54" y="96.75" width="4.84" height="4.84" fill="#bedbed"/><rect x="43.54" y="91.92" width="4.84" height="4.84" fill="#bedbed"/><rect x="43.54" y="87.08" width="4.84" height="4.84" fill="#a3c6e2"/><rect x="43.54" y="82.24" width="4.84" height="4.84" fill="#a3c6e2"/><rect x="43.54" y="77.4" width="4.84" height="4.84" fill="#a3c6e2"/><rect x="43.54" y="72.57" width="4.84" height="4.84" fill="#e3f7ff"/><rect x="43.54" y="67.73" width="4.84" height="4.84" fill="#e3f7ff"/><rect x="43.54" y="62.89" width="4.84" height="4.84" fill="#a3c6e2"/><rect x="43.54" y="58.05" width="4.84" height="4.84" fill="#a3c6e2"/><rect x="43.54" y="53.22" width="4.84" height="4.84" fill="#a3c6e2"/><rect x="43.54" y="48.38" width="4.84" height="4.84" fill="#a3c6e2"/><rect x="43.54" y="43.54" width="4.84" height="4.84" fill="#a3c6e2"/><rect x="43.54" y="38.7" width="4.84" height="4.84" fill="#a3c6e2"/><rect x="43.54" y="33.86" width="4.84" height="4.84" fill="#a3c6e2"/><rect x="43.54" y="29.03" width="4.84" height="4.84" fill="#a3c6e2"/><rect x="43.54" y="24.19" width="4.84" height="4.84" fill="#a3c6e2"/><rect x="43.54" y="19.35" width="4.84" height="4.84" fill="#a3c6e2"/><rect x="43.54" y="14.51" width="4.84" height="4.84" fill="#7f1e14"/><rect x="43.54" y="9.68" width="4.84" height="4.84" fill="#1b0003"/><rect x="43.54" y="4.84" width="4.84" height="4.84" fill="#f2904e"/><rect x="43.54" width="4.84" height="4.84" fill="#1b0003"/><rect x="38.7" y="140.29" width="4.84" height="4.84" fill="#1b0003"/><rect x="38.7" y="135.46" width="4.84" height="4.84" fill="#6a87af"/><rect x="38.7" y="130.62" width="4.84" height="4.84" fill="#a3c6e2"/><rect x="38.7" y="125.78" width="4.84" height="4.84" fill="#a3c6e2"/><rect x="38.7" y="120.94" width="4.84" height="4.84" fill="#bedbed"/><rect x="38.7" y="116.11" width="4.84" height="4.84" fill="#bedbed"/><rect x="38.7" y="111.27" width="4.84" height="4.84" fill="#bedbed"/><rect x="38.7" y="106.43" width="4.84" height="4.84" fill="#bedbed"/><rect x="38.7" y="101.59" width="4.84" height="4.84" fill="#bedbed"/><rect x="38.7" y="96.75" width="4.84" height="4.84" fill="#bedbed"/><rect x="38.7" y="91.92" width="4.84" height="4.84" fill="#a3c6e2"/><rect x="38.7" y="87.08" width="4.84" height="4.84" fill="#a3c6e2"/><rect x="38.7" y="82.24" width="4.84" height="4.84" fill="#a3c6e2"/><rect x="38.7" y="77.4" width="4.84" height="4.84" fill="#fff"/><rect x="38.7" y="72.57" width="4.84" height="4.84" fill="#fff"/><rect x="38.7" y="67.73" width="4.84" height="4.84" fill="#e3f7ff"/><rect x="38.7" y="62.89" width="4.84" height="4.84" fill="#a3c6e2"/><rect x="38.7" y="58.05" width="4.84" height="4.84" fill="#223c5b"/><rect x="38.7" y="53.22" width="4.84" height="4.84" fill="#1b0003"/><rect x="38.7" y="48.38" width="4.84" height="4.84" fill="#1b0003"/><rect x="38.7" y="43.54" width="4.84" height="4.84" fill="#1b0003"/><rect x="38.7" y="38.7" width="4.84" height="4.84" fill="#1b0003"/><rect x="38.7" y="33.86" width="4.84" height="4.84" fill="#1b0003"/><rect x="38.7" y="29.03" width="4.84" height="4.84" fill="#1b0003"/><rect x="38.7" y="24.19" width="4.84" height="4.84" fill="#1b0003"/><rect x="38.7" y="19.35" width="4.84" height="4.84" fill="#1b0003"/><rect x="38.7" y="14.51" width="4.84" height="4.84" fill="#bedbed"/><rect x="38.7" y="9.68" width="4.84" height="4.84" fill="#1b0003"/><rect x="38.7" y="4.84" width="4.84" height="4.84" fill="#1b0003"/><rect x="33.86" y="140.29" width="4.84" height="4.84" fill="#1b0003"/><rect x="33.86" y="135.46" width="4.84" height="4.84" fill="#6a87af"/><rect x="33.86" y="130.62" width="4.84" height="4.84" fill="#a3c6e2"/><rect x="33.86" y="125.78" width="4.84" height="4.84" fill="#a3c6e2"/><rect x="33.86" y="120.94" width="4.84" height="4.84" fill="#bedbed"/><rect x="33.86" y="116.11" width="4.84" height="4.84" fill="#bedbed"/><rect x="33.86" y="111.27" width="4.84" height="4.84" fill="#bedbed"/><rect x="33.86" y="106.43" width="4.84" height="4.84" fill="#bedbed"/><rect x="33.86" y="101.59" width="4.84" height="4.84" fill="#bedbed"/><rect x="33.86" y="96.75" width="4.84" height="4.84" fill="#a3c6e2"/><rect x="33.86" y="91.92" width="4.84" height="4.84" fill="#a3c6e2"/><rect x="33.86" y="87.08" width="4.84" height="4.84" fill="#fff"/><rect x="33.86" y="82.24" width="4.84" height="4.84" fill="#fff"/><rect x="33.86" y="77.4" width="4.84" height="4.84" fill="#fff"/><rect x="33.86" y="72.57" width="4.84" height="4.84" fill="#fff"/><rect x="33.86" y="67.73" width="4.84" height="4.84" fill="#fff"/><rect x="33.86" y="62.89" width="4.84" height="4.84" fill="#a3c6e2"/><rect x="33.86" y="58.05" width="4.84" height="4.84" fill="#1b0003"/><rect x="33.86" y="14.51" width="4.84" height="4.84" fill="#1b0003"/><rect x="33.86" y="9.68" width="4.84" height="4.84" fill="#1b0003"/><rect x="29.03" y="140.29" width="4.84" height="4.84" fill="#1b0003"/><rect x="29.03" y="135.46" width="4.84" height="4.84" fill="#6a87af"/><rect x="29.03" y="130.62" width="4.84" height="4.84" fill="#a3c6e2"/><rect x="29.03" y="125.78" width="4.84" height="4.84" fill="#a3c6e2"/><rect x="29.03" y="120.94" width="4.84" height="4.84" fill="#a3c6e2"/><rect x="29.03" y="116.11" width="4.84" height="4.84" fill="#bedbed"/><rect x="29.03" y="111.27" width="4.84" height="4.84" fill="#bedbed"/><rect x="29.03" y="106.43" width="4.84" height="4.84" fill="#bedbed"/><rect x="29.03" y="101.59" width="4.84" height="4.84" fill="#a3c6e2"/><rect x="29.03" y="96.75" width="4.84" height="4.84" fill="#a3c6e2"/><rect x="29.03" y="91.92" width="4.84" height="4.84" fill="#a3c6e2"/><rect x="29.03" y="87.08" width="4.84" height="4.84" fill="#fff"/><rect x="29.03" y="82.24" width="4.84" height="4.84" fill="#fff"/><rect x="29.03" y="77.4" width="4.84" height="4.84" fill="#fff"/><rect x="29.03" y="72.57" width="4.84" height="4.84" fill="#fff"/><rect x="29.03" y="67.73" width="4.84" height="4.84" fill="#a3c6e2"/><rect x="29.03" y="62.89" width="4.84" height="4.84" fill="#6a87af"/><rect x="29.03" y="58.05" width="4.84" height="4.84" fill="#1b0003"/><rect x="24.19" y="140.29" width="4.84" height="4.84" fill="#1b0003"/><rect x="24.19" y="135.46" width="4.84" height="4.84" fill="#6a87af"/><rect x="24.19" y="130.62" width="4.84" height="4.84" fill="#6a87af"/><rect x="24.19" y="125.78" width="4.84" height="4.84" fill="#a3c6e2"/><rect x="24.19" y="120.94" width="4.84" height="4.84" fill="#a3c6e2"/><rect x="24.19" y="116.11" width="4.84" height="4.84" fill="#a3c6e2"/><rect x="24.19" y="111.27" width="4.84" height="4.84" fill="#a3c6e2"/><rect x="24.19" y="106.43" width="4.84" height="4.84" fill="#bedbed"/><rect x="24.19" y="101.59" width="4.84" height="4.84" fill="#a3c6e2"/><rect x="24.19" y="96.75" width="4.84" height="4.84" fill="#e3f7ff"/><rect x="24.19" y="91.92" width="4.84" height="4.84" fill="#fff"/><rect x="24.19" y="87.08" width="4.84" height="4.84" fill="#fff"/><rect x="24.19" y="82.24" width="4.84" height="4.84" fill="#fff"/><rect x="24.19" y="77.4" width="4.84" height="4.84" fill="#fff"/><rect x="24.19" y="72.57" width="4.84" height="4.84" fill="#a3c6e2"/><rect x="24.19" y="67.73" width="4.84" height="4.84" fill="#a3c6e2"/><rect x="24.19" y="62.89" width="4.84" height="4.84" fill="#1b0003"/><rect x="19.35" y="135.46" width="4.84" height="4.84" fill="#1b0003"/><rect x="19.35" y="130.62" width="4.84" height="4.84" fill="#6a87af"/><rect x="19.35" y="125.78" width="4.84" height="4.84" fill="#a3c6e2"/><rect x="19.35" y="120.94" width="4.84" height="4.84" fill="#a3c6e2"/><rect x="19.35" y="116.11" width="4.84" height="4.84" fill="#a3c6e2"/><rect x="19.35" y="111.27" width="4.84" height="4.84" fill="#a3c6e2"/><rect x="19.35" y="106.43" width="4.84" height="4.84" fill="#a3c6e2"/><rect x="19.35" y="101.59" width="4.84" height="4.84" fill="#a3c6e2"/><rect x="19.35" y="96.75" width="4.84" height="4.84" fill="#e3f7ff"/><rect x="19.35" y="91.92" width="4.84" height="4.84" fill="#e3f7ff"/><rect x="19.35" y="87.08" width="4.84" height="4.84" fill="#fff"/><rect x="19.35" y="82.24" width="4.84" height="4.84" fill="#fff"/><rect x="19.35" y="77.4" width="4.84" height="4.84" fill="#a3c6e2"/><rect x="19.35" y="72.57" width="4.84" height="4.84" fill="#a3c6e2"/><rect x="19.35" y="67.73" width="4.84" height="4.84" fill="#6a87af"/><rect x="19.35" y="62.89" width="4.84" height="4.84" fill="#1b0003"/><rect x="14.51" y="130.62" width="4.84" height="4.84" fill="#1b0003"/><rect x="14.51" y="125.78" width="4.84" height="4.84" fill="#6a87af"/><rect x="14.51" y="120.94" width="4.84" height="4.84" fill="#6a87af"/><rect x="14.51" y="116.11" width="4.84" height="4.84" fill="#a3c6e2"/><rect x="14.51" y="111.27" width="4.84" height="4.84" fill="#a3c6e2"/><rect x="14.51" y="106.43" width="4.84" height="4.84" fill="#a3c6e2"/><rect x="14.51" y="101.59" width="4.84" height="4.84" fill="#a3c6e2"/><rect x="14.51" y="96.75" width="4.84" height="4.84" fill="#a3c6e2"/><rect x="14.51" y="91.92" width="4.84" height="4.84" fill="#a3c6e2"/><rect x="14.51" y="87.08" width="4.84" height="4.84" fill="#e3f7ff"/><rect x="14.51" y="82.24" width="4.84" height="4.84" fill="#e3f7ff"/><rect x="14.51" y="77.4" width="4.84" height="4.84" fill="#a3c6e2"/><rect x="14.51" y="72.57" width="4.84" height="4.84" fill="#6a87af"/><rect x="14.51" y="67.73" width="4.84" height="4.84" fill="#1b0003"/><rect x="9.68" y="125.78" width="4.84" height="4.84" fill="#1b0003"/><rect x="9.68" y="120.94" width="4.84" height="4.84" fill="#1b0003"/><rect x="9.68" y="116.11" width="4.84" height="4.84" fill="#6a87af"/><rect x="9.68" y="111.27" width="4.84" height="4.84" fill="#6a87af"/><rect x="9.68" y="106.43" width="4.84" height="4.84" fill="#a3c6e2"/><rect x="9.68" y="101.59" width="4.84" height="4.84" fill="#a3c6e2"/><rect x="9.68" y="96.75" width="4.84" height="4.84" fill="#a3c6e2"/><rect x="9.68" y="91.92" width="4.84" height="4.84" fill="#a3c6e2"/><rect x="9.68" y="87.08" width="4.84" height="4.84" fill="#a3c6e2"/><rect x="9.68" y="82.24" width="4.84" height="4.84" fill="#6a87af"/><rect x="9.68" y="77.4" width="4.84" height="4.84" fill="#1b0003"/><rect x="9.68" y="72.57" width="4.84" height="4.84" fill="#1b0003"/><rect x="4.84" y="116.11" width="4.84" height="4.84" fill="#1b0003"/><rect x="4.84" y="111.27" width="4.84" height="4.84" fill="#1b0003"/><rect x="4.84" y="106.43" width="4.84" height="4.84" fill="#6a87af"/><rect x="4.84" y="101.59" width="4.84" height="4.84" fill="#6a87af"/><rect x="4.84" y="96.75" width="4.84" height="4.84" fill="#6a87af"/><rect x="4.84" y="91.92" width="4.84" height="4.84" fill="#6a87af"/><rect x="4.84" y="87.08" width="4.84" height="4.84" fill="#1b0003"/><rect x="4.84" y="82.24" width="4.84" height="4.84" fill="#1b0003"/><rect y="106.43" width="4.84" height="4.84" fill="#1b0003"/><rect y="101.59" width="4.84" height="4.84" fill="#1b0003"/><rect y="96.75" width="4.84" height="4.84" fill="#1b0003"/><rect y="91.92" width="4.84" height="4.84" fill="#1b0003"/></g></g></g></svg>