<svg xmlns="http://www.w3.org/2000/svg" width="155.6" height="126.78" viewBox="0 0 155.6 126.78"><g id="Layer_2" data-name="Layer 2"><g id="items"><g id="Fish"><rect x="149.84" y="57.63" width="5.76" height="5.76" fill="#1b0003"/><rect x="149.84" y="51.87" width="5.76" height="5.76" fill="#1b0003"/><rect x="149.84" y="46.1" width="5.76" height="5.76" fill="#1b0003"/><rect x="149.84" y="40.34" width="5.76" height="5.76" fill="#1b0003"/><rect x="149.84" y="34.58" width="5.76" height="5.76" fill="#1b0003"/><rect x="149.84" y="28.81" width="5.76" height="5.76" fill="#1b0003"/><rect x="149.84" y="23.05" width="5.76" height="5.76" fill="#1b0003"/><rect x="144.07" y="69.15" width="5.76" height="5.76" fill="#1b0003"/><rect x="144.07" y="63.39" width="5.76" height="5.76" fill="#1b0003"/><rect x="144.07" y="57.63" width="5.76" height="5.76" fill="#85a1c9"/><rect x="144.07" y="51.87" width="5.76" height="5.76" fill="#85a1c9"/><rect x="144.07" y="46.1" width="5.76" height="5.76" fill="#85a1c9"/><rect x="144.07" y="40.34" width="5.76" height="5.76" fill="#85a1c9"/><rect x="144.07" y="34.58" width="5.76" height="5.76" fill="#6a87af"/><rect x="144.07" y="28.81" width="5.76" height="5.76" fill="#6a87af"/><rect x="144.07" y="23.05" width="5.76" height="5.76" fill="#6a87af"/><rect x="144.07" y="17.29" width="5.76" height="5.76" fill="#1b0003"/><rect x="144.07" y="11.53" width="5.76" height="5.76" fill="#1b0003"/><rect x="138.31" y="74.92" width="5.76" height="5.76" fill="#1b0003"/><rect x="138.31" y="69.15" width="5.76" height="5.76" fill="#85a1c9"/><rect x="138.31" y="63.39" width="5.76" height="5.76" fill="#85a1c9"/><rect x="138.31" y="57.63" width="5.76" height="5.76" fill="#85a1c9"/><rect x="138.31" y="51.87" width="5.76" height="5.76" fill="#85a1c9"/><rect x="138.31" y="46.1" width="5.76" height="5.76" fill="#6a87af"/><rect x="138.31" y="40.34" width="5.76" height="5.76" fill="#6a87af"/><rect x="138.31" y="34.58" width="5.76" height="5.76" fill="#6a87af"/><rect x="138.31" y="28.81" width="5.76" height="5.76" fill="#6a87af"/><rect x="138.31" y="23.05" width="5.76" height="5.76" fill="#bedbed"/><rect x="138.31" y="17.29" width="5.76" height="5.76" fill="#bedbed"/><rect x="138.31" y="11.53" width="5.76" height="5.76" fill="#bedbed"/><rect x="138.31" y="5.76" width="5.76" height="5.76" fill="#1b0003"/><rect x="132.55" y="80.68" width="5.76" height="5.76" fill="#1b0003"/><rect x="132.55" y="74.92" width="5.76" height="5.76" fill="#85a1c9"/><rect x="132.55" y="69.15" width="5.76" height="5.76" fill="#85a1c9"/><rect x="132.55" y="63.39" width="5.76" height="5.76" fill="#85a1c9"/><rect x="132.55" y="57.63" width="5.76" height="5.76" fill="#6a87af"/><rect x="132.55" y="51.87" width="5.76" height="5.76" fill="#6a87af"/><rect x="132.55" y="46.1" width="5.76" height="5.76" fill="#6a87af"/><rect x="132.55" y="40.34" width="5.76" height="5.76" fill="#bedbed"/><rect x="132.55" y="34.58" width="5.76" height="5.76" fill="#6a87af"/><rect x="132.55" y="28.81" width="5.76" height="5.76" fill="#bedbed"/><rect x="132.55" y="23.05" width="5.76" height="5.76" fill="#bedbed"/><rect x="132.55" y="17.29" width="5.76" height="5.76" fill="#bedbed"/><rect x="132.55" y="11.53" width="5.76" height="5.76" fill="#bedbed"/><rect x="132.55" y="5.76" width="5.76" height="5.76" fill="#bedbed"/><rect x="132.55" width="5.76" height="5.76" fill="#1b0003"/><rect x="126.78" y="86.44" width="5.76" height="5.76" fill="#1b0003"/><rect x="126.78" y="80.68" width="5.76" height="5.76" fill="#85a1c9"/><rect x="126.78" y="74.92" width="5.76" height="5.76" fill="#85a1c9"/><rect x="126.78" y="69.15" width="5.76" height="5.76" fill="#85a1c9"/><rect x="126.78" y="63.39" width="5.76" height="5.76" fill="#6a87af"/><rect x="126.78" y="57.63" width="5.76" height="5.76" fill="#6a87af"/><rect x="126.78" y="51.87" width="5.76" height="5.76" fill="#6a87af"/><rect x="126.78" y="46.1" width="5.76" height="5.76" fill="#bedbed"/><rect x="126.78" y="40.34" width="5.76" height="5.76" fill="#bedbed"/><rect x="126.78" y="34.58" width="5.76" height="5.76" fill="#6a87af"/><rect x="126.78" y="28.81" width="5.76" height="5.76" fill="#bedbed"/><rect x="126.78" y="23.05" width="5.76" height="5.76" fill="#bedbed"/><rect x="126.78" y="17.29" width="5.76" height="5.76" fill="#bedbed"/><rect x="126.78" y="11.53" width="5.76" height="5.76" fill="#bedbed"/><rect x="126.78" y="5.76" width="5.76" height="5.76" fill="#bedbed"/><rect x="126.78" width="5.76" height="5.76" fill="#1b0003"/><rect x="121.02" y="92.21" width="5.76" height="5.76" fill="#1b0003"/><rect x="121.02" y="86.44" width="5.76" height="5.76" fill="#85a1c9"/><rect x="121.02" y="80.68" width="5.76" height="5.76" fill="#85a1c9"/><rect x="121.02" y="74.92" width="5.76" height="5.76" fill="#85a1c9"/><rect x="121.02" y="69.15" width="5.76" height="5.76" fill="#6a87af"/><rect x="121.02" y="63.39" width="5.76" height="5.76" fill="#6a87af"/><rect x="121.02" y="57.63" width="5.76" height="5.76" fill="#6a87af"/><rect x="121.02" y="51.87" width="5.76" height="5.76" fill="#bedbed"/><rect x="121.02" y="46.1" width="5.76" height="5.76" fill="#bedbed"/><rect x="121.02" y="40.34" width="5.76" height="5.76" fill="#bedbed"/><rect x="121.02" y="34.58" width="5.76" height="5.76" fill="#6a87af"/><rect x="121.02" y="28.81" width="5.76" height="5.76" fill="#bedbed"/><rect x="121.02" y="23.05" width="5.76" height="5.76" fill="#bedbed"/><rect x="121.02" y="17.29" width="5.76" height="5.76" fill="#bedbed"/><rect x="121.02" y="11.53" width="5.76" height="5.76" fill="#bedbed"/><rect x="121.02" y="5.76" width="5.76" height="5.76" fill="#bedbed"/><rect x="121.02" width="5.76" height="5.76" fill="#1b0003"/><rect x="115.26" y="92.21" width="5.76" height="5.76" fill="#1b0003"/><rect x="115.26" y="86.44" width="5.76" height="5.76" fill="#85a1c9"/><rect x="115.26" y="80.68" width="5.76" height="5.76" fill="#85a1c9"/><rect x="115.26" y="74.92" width="5.76" height="5.76" fill="#6a87af"/><rect x="115.26" y="69.15" width="5.76" height="5.76" fill="#6a87af"/><rect x="115.26" y="63.39" width="5.76" height="5.76" fill="#6a87af"/><rect x="115.26" y="57.63" width="5.76" height="5.76" fill="#bedbed"/><rect x="115.26" y="51.87" width="5.76" height="5.76" fill="#bedbed"/><rect x="115.26" y="46.1" width="5.76" height="5.76" fill="#bedbed"/><rect x="115.26" y="40.34" width="5.76" height="5.76" fill="#bedbed"/><rect x="115.26" y="34.58" width="5.76" height="5.76" fill="#6a87af"/><rect x="115.26" y="28.81" width="5.76" height="5.76" fill="#bedbed"/><rect x="115.26" y="23.05" width="5.76" height="5.76" fill="#bedbed"/><rect x="115.26" y="17.29" width="5.76" height="5.76" fill="#1b0003"/><rect x="115.26" y="11.53" width="5.76" height="5.76" fill="#bedbed"/><rect x="115.26" y="5.76" width="5.76" height="5.76" fill="#bedbed"/><rect x="115.26" width="5.76" height="5.76" fill="#1b0003"/><rect x="109.5" y="97.97" width="5.76" height="5.76" fill="#1b0003"/><rect x="109.5" y="92.21" width="5.76" height="5.76" fill="#85a1c9"/><rect x="109.5" y="86.44" width="5.76" height="5.76" fill="#85a1c9"/><rect x="109.5" y="80.68" width="5.76" height="5.76" fill="#85a1c9"/><rect x="109.5" y="74.92" width="5.76" height="5.76" fill="#6a87af"/><rect x="109.5" y="69.15" width="5.76" height="5.76" fill="#6a87af"/><rect x="109.5" y="63.39" width="5.76" height="5.76" fill="#bedbed"/><rect x="109.5" y="57.63" width="5.76" height="5.76" fill="#bedbed"/><rect x="109.5" y="51.87" width="5.76" height="5.76" fill="#bedbed"/><rect x="109.5" y="46.1" width="5.76" height="5.76" fill="#85a1c9"/><rect x="109.5" y="40.34" width="5.76" height="5.76" fill="#85a1c9"/><rect x="109.5" y="34.58" width="5.76" height="5.76" fill="#85a1c9"/><rect x="109.5" y="28.81" width="5.76" height="5.76" fill="#bedbed"/><rect x="109.5" y="23.05" width="5.76" height="5.76" fill="#bedbed"/><rect x="109.5" y="17.29" width="5.76" height="5.76" fill="#bedbed"/><rect x="109.5" y="11.53" width="5.76" height="5.76" fill="#bedbed"/><rect x="109.5" y="5.76" width="5.76" height="5.76" fill="#bedbed"/><rect x="109.5" width="5.76" height="5.76" fill="#1b0003"/><rect x="103.73" y="97.97" width="5.76" height="5.76" fill="#1b0003"/><rect x="103.73" y="92.21" width="5.76" height="5.76" fill="#85a1c9"/><rect x="103.73" y="86.44" width="5.76" height="5.76" fill="#85a1c9"/><rect x="103.73" y="80.68" width="5.76" height="5.76" fill="#6a87af"/><rect x="103.73" y="74.92" width="5.76" height="5.76" fill="#6a87af"/><rect x="103.73" y="69.15" width="5.76" height="5.76" fill="#6a87af"/><rect x="103.73" y="63.39" width="5.76" height="5.76" fill="#bedbed"/><rect x="103.73" y="57.63" width="5.76" height="5.76" fill="#bedbed"/><rect x="103.73" y="51.87" width="5.76" height="5.76" fill="#85a1c9"/><rect x="103.73" y="46.1" width="5.76" height="5.76" fill="#cfefff"/><rect x="103.73" y="40.34" width="5.76" height="5.76" fill="#cfefff"/><rect x="103.73" y="34.58" width="5.76" height="5.76" fill="#cfefff"/><rect x="103.73" y="28.81" width="5.76" height="5.76" fill="#6a87af"/><rect x="103.73" y="23.05" width="5.76" height="5.76" fill="#bedbed"/><rect x="103.73" y="17.29" width="5.76" height="5.76" fill="#bedbed"/><rect x="103.73" y="11.53" width="5.76" height="5.76" fill="#bedbed"/><rect x="103.73" y="5.76" width="5.76" height="5.76" fill="#1b0003"/><rect x="97.97" y="97.97" width="5.76" height="5.76" fill="#1b0003"/><rect x="97.97" y="92.21" width="5.76" height="5.76" fill="#85a1c9"/><rect x="97.97" y="86.44" width="5.76" height="5.76" fill="#85a1c9"/><rect x="97.97" y="80.68" width="5.76" height="5.76" fill="#6a87af"/><rect x="97.97" y="74.92" width="5.76" height="5.76" fill="#6a87af"/><rect x="97.97" y="69.15" width="5.76" height="5.76" fill="#bedbed"/><rect x="97.97" y="63.39" width="5.76" height="5.76" fill="#bedbed"/><rect x="97.97" y="57.63" width="5.76" height="5.76" fill="#85a1c9"/><rect x="97.97" y="51.87" width="5.76" height="5.76" fill="#cfefff"/><rect x="97.97" y="46.1" width="5.76" height="5.76" fill="#cfefff"/><rect x="97.97" y="40.34" width="5.76" height="5.76" fill="#cfefff"/><rect x="97.97" y="34.58" width="5.76" height="5.76" fill="#bedbed"/><rect x="97.97" y="28.81" width="5.76" height="5.76" fill="#6a87af"/><rect x="97.97" y="23.05" width="5.76" height="5.76" fill="#6a87af"/><rect x="97.97" y="17.29" width="5.76" height="5.76" fill="#bedbed"/><rect x="97.97" y="11.53" width="5.76" height="5.76" fill="#1b0003"/><rect x="92.21" y="97.97" width="5.76" height="5.76" fill="#1b0003"/><rect x="92.21" y="92.21" width="5.76" height="5.76" fill="#85a1c9"/><rect x="92.21" y="86.44" width="5.76" height="5.76" fill="#85a1c9"/><rect x="92.21" y="80.68" width="5.76" height="5.76" fill="#6a87af"/><rect x="92.21" y="74.92" width="5.76" height="5.76" fill="#bedbed"/><rect x="92.21" y="69.15" width="5.76" height="5.76" fill="#bedbed"/><rect x="92.21" y="63.39" width="5.76" height="5.76" fill="#85a1c9"/><rect x="92.21" y="57.63" width="5.76" height="5.76" fill="#cfefff"/><rect x="92.21" y="51.87" width="5.76" height="5.76" fill="#cfefff"/><rect x="92.21" y="46.1" width="5.76" height="5.76" fill="#cfefff"/><rect x="92.21" y="40.34" width="5.76" height="5.76" fill="#bedbed"/><rect x="92.21" y="34.58" width="5.76" height="5.76" fill="#bedbed"/><rect x="92.21" y="28.81" width="5.76" height="5.76" fill="#1b0003"/><rect x="92.21" y="23.05" width="5.76" height="5.76" fill="#1b0003"/><rect x="92.21" y="17.29" width="5.76" height="5.76" fill="#1b0003"/><rect x="86.44" y="97.97" width="5.76" height="5.76" fill="#1b0003"/><rect x="86.44" y="92.21" width="5.76" height="5.76" fill="#85a1c9"/><rect x="86.44" y="86.44" width="5.76" height="5.76" fill="#6a87af"/><rect x="86.44" y="80.68" width="5.76" height="5.76" fill="#6a87af"/><rect x="86.44" y="74.92" width="5.76" height="5.76" fill="#bedbed"/><rect x="86.44" y="69.15" width="5.76" height="5.76" fill="#85a1c9"/><rect x="86.44" y="63.39" width="5.76" height="5.76" fill="#cfefff"/><rect x="86.44" y="57.63" width="5.76" height="5.76" fill="#cfefff"/><rect x="86.44" y="51.87" width="5.76" height="5.76" fill="#cfefff"/><rect x="86.44" y="46.1" width="5.76" height="5.76" fill="#bedbed"/><rect x="86.44" y="40.34" width="5.76" height="5.76" fill="#bedbed"/><rect x="86.44" y="34.58" width="5.76" height="5.76" fill="#1b0003"/><rect x="86.44" y="28.81" width="5.76" height="5.76" fill="#1b0003"/><rect x="80.68" y="97.97" width="5.76" height="5.76" fill="#1b0003"/><rect x="80.68" y="92.21" width="5.76" height="5.76" fill="#85a1c9"/><rect x="80.68" y="86.44" width="5.76" height="5.76" fill="#6a87af"/><rect x="80.68" y="80.68" width="5.76" height="5.76" fill="#bedbed"/><rect x="80.68" y="74.92" width="5.76" height="5.76" fill="#bedbed"/><rect x="80.68" y="69.15" width="5.76" height="5.76" fill="#85a1c9"/><rect x="80.68" y="63.39" width="5.76" height="5.76" fill="#cfefff"/><rect x="80.68" y="57.63" width="5.76" height="5.76" fill="#cfefff"/><rect x="80.68" y="51.87" width="5.76" height="5.76" fill="#bedbed"/><rect x="80.68" y="46.1" width="5.76" height="5.76" fill="#bedbed"/><rect x="80.68" y="40.34" width="5.76" height="5.76" fill="#1b0003"/><rect x="80.68" y="34.58" width="5.76" height="5.76" fill="#85a1c9"/><rect x="80.68" y="28.81" width="5.76" height="5.76" fill="#1b0003"/><rect x="74.92" y="92.21" width="5.76" height="5.76" fill="#1b0003"/><rect x="74.92" y="86.44" width="5.76" height="5.76" fill="#6a87af"/><rect x="74.92" y="80.68" width="5.76" height="5.76" fill="#bedbed"/><rect x="74.92" y="74.92" width="5.76" height="5.76" fill="#85a1c9"/><rect x="74.92" y="69.15" width="5.76" height="5.76" fill="#cfefff"/><rect x="74.92" y="63.39" width="5.76" height="5.76" fill="#cfefff"/><rect x="74.92" y="57.63" width="5.76" height="5.76" fill="#bedbed"/><rect x="74.92" y="51.87" width="5.76" height="5.76" fill="#1b0003"/><rect x="74.92" y="46.1" width="5.76" height="5.76" fill="#1b0003"/><rect x="74.92" y="40.34" width="5.76" height="5.76" fill="#85a1c9"/><rect x="74.92" y="34.58" width="5.76" height="5.76" fill="#1b0003"/><rect x="69.15" y="92.21" width="5.76" height="5.76" fill="#1b0003"/><rect x="69.15" y="86.44" width="5.76" height="5.76" fill="#6a87af"/><rect x="69.15" y="80.68" width="5.76" height="5.76" fill="#6a87af"/><rect x="69.15" y="74.92" width="5.76" height="5.76" fill="#85a1c9"/><rect x="69.15" y="69.15" width="5.76" height="5.76" fill="#cfefff"/><rect x="69.15" y="63.39" width="5.76" height="5.76" fill="#cfefff"/><rect x="69.15" y="57.63" width="5.76" height="5.76" fill="#1b0003"/><rect x="69.15" y="51.87" width="5.76" height="5.76" fill="#85a1c9"/><rect x="69.15" y="46.1" width="5.76" height="5.76" fill="#85a1c9"/><rect x="69.15" y="40.34" width="5.76" height="5.76" fill="#85a1c9"/><rect x="69.15" y="34.58" width="5.76" height="5.76" fill="#1b0003"/><rect x="63.39" y="92.21" width="5.76" height="5.76" fill="#1b0003"/><rect x="63.39" y="86.44" width="5.76" height="5.76" fill="#6a87af"/><rect x="63.39" y="80.68" width="5.76" height="5.76" fill="#6a87af"/><rect x="63.39" y="74.92" width="5.76" height="5.76" fill="#85a1c9"/><rect x="63.39" y="69.15" width="5.76" height="5.76" fill="#cfefff"/><rect x="63.39" y="63.39" width="5.76" height="5.76" fill="#1b0003"/><rect x="63.39" y="51.87" width="5.76" height="5.76" fill="#1b0003"/><rect x="63.39" y="46.1" width="5.76" height="5.76" fill="#1b0003"/><rect x="63.39" y="40.34" width="5.76" height="5.76" fill="#85a1c9"/><rect x="63.39" y="34.58" width="5.76" height="5.76" fill="#1b0003"/><rect x="57.63" y="86.44" width="5.76" height="5.76" fill="#1b0003"/><rect x="57.63" y="80.68" width="5.76" height="5.76" fill="#6a87af"/><rect x="57.63" y="74.92" width="5.76" height="5.76" fill="#85a1c9"/><rect x="57.63" y="69.15" width="5.76" height="5.76" fill="#bedbed"/><rect x="57.63" y="63.39" width="5.76" height="5.76" fill="#1b0003"/><rect x="57.63" y="40.34" width="5.76" height="5.76" fill="#1b0003"/><rect x="51.87" y="86.44" width="5.76" height="5.76" fill="#1b0003"/><rect x="51.87" y="80.68" width="5.76" height="5.76" fill="#6a87af"/><rect x="51.87" y="74.92" width="5.76" height="5.76" fill="#bedbed"/><rect x="51.87" y="69.15" width="5.76" height="5.76" fill="#1b0003"/><rect x="46.1" y="86.44" width="5.76" height="5.76" fill="#1b0003"/><rect x="46.1" y="80.68" width="5.76" height="5.76" fill="#6a87af"/><rect x="46.1" y="74.92" width="5.76" height="5.76" fill="#bedbed"/><rect x="46.1" y="69.15" width="5.76" height="5.76" fill="#1b0003"/><rect x="40.34" y="92.21" width="5.76" height="5.76" fill="#1b0003"/><rect x="40.34" y="86.44" width="5.76" height="5.76" fill="#85a1c9"/><rect x="40.34" y="80.68" width="5.76" height="5.76" fill="#6a87af"/><rect x="40.34" y="74.92" width="5.76" height="5.76" fill="#bedbed"/><rect x="40.34" y="69.15" width="5.76" height="5.76" fill="#1b0003"/><rect x="34.58" y="103.73" width="5.76" height="5.76" fill="#1b0003"/><rect x="34.58" y="97.97" width="5.76" height="5.76" fill="#1b0003"/><rect x="34.58" y="92.21" width="5.76" height="5.76" fill="#85a1c9"/><rect x="34.58" y="86.44" width="5.76" height="5.76" fill="#85a1c9"/><rect x="34.58" y="80.68" width="5.76" height="5.76" fill="#6a87af"/><rect x="34.58" y="74.92" width="5.76" height="5.76" fill="#bedbed"/><rect x="34.58" y="69.15" width="5.76" height="5.76" fill="#1b0003"/><rect x="28.81" y="115.26" width="5.76" height="5.76" fill="#1b0003"/><rect x="28.81" y="109.49" width="5.76" height="5.76" fill="#1b0003"/><rect x="28.81" y="103.73" width="5.76" height="5.76" fill="#85a1c9"/><rect x="28.81" y="97.97" width="5.76" height="5.76" fill="#85a1c9"/><rect x="28.81" y="92.21" width="5.76" height="5.76" fill="#85a1c9"/><rect x="28.81" y="86.44" width="5.76" height="5.76" fill="#85a1c9"/><rect x="28.81" y="80.68" width="5.76" height="5.76" fill="#6a87af"/><rect x="28.81" y="74.92" width="5.76" height="5.76" fill="#bedbed"/><rect x="28.81" y="69.15" width="5.76" height="5.76" fill="#1b0003"/><rect x="23.05" y="121.02" width="5.76" height="5.76" fill="#1b0003"/><rect x="23.05" y="115.26" width="5.76" height="5.76" fill="#85a1c9"/><rect x="23.05" y="109.49" width="5.76" height="5.76" fill="#85a1c9"/><rect x="23.05" y="103.73" width="5.76" height="5.76" fill="#85a1c9"/><rect x="23.05" y="97.97" width="5.76" height="5.76" fill="#85a1c9"/><rect x="23.05" y="92.21" width="5.76" height="5.76" fill="#85a1c9"/><rect x="23.05" y="86.44" width="5.76" height="5.76" fill="#6a87af"/><rect x="23.05" y="80.68" width="5.76" height="5.76" fill="#bedbed"/><rect x="23.05" y="74.92" width="5.76" height="5.76" fill="#bedbed"/><rect x="23.05" y="69.15" width="5.76" height="5.76" fill="#cfefff"/><rect x="23.05" y="63.39" width="5.76" height="5.76" fill="#1b0003"/><rect x="17.29" y="115.26" width="5.76" height="5.76" fill="#1b0003"/><rect x="17.29" y="109.49" width="5.76" height="5.76" fill="#1b0003"/><rect x="17.29" y="103.73" width="5.76" height="5.76" fill="#1b0003"/><rect x="17.29" y="97.97" width="5.76" height="5.76" fill="#1b0003"/><rect x="17.29" y="92.21" width="5.76" height="5.76" fill="#6a87af"/><rect x="17.29" y="86.44" width="5.76" height="5.76" fill="#bedbed"/><rect x="17.29" y="80.68" width="5.76" height="5.76" fill="#bedbed"/><rect x="17.29" y="74.92" width="5.76" height="5.76" fill="#bedbed"/><rect x="17.29" y="69.15" width="5.76" height="5.76" fill="#cfefff"/><rect x="17.29" y="63.39" width="5.76" height="5.76" fill="#1b0003"/><rect x="11.53" y="92.21" width="5.76" height="5.76" fill="#1b0003"/><rect x="11.53" y="86.44" width="5.76" height="5.76" fill="#1b0003"/><rect x="11.53" y="80.68" width="5.76" height="5.76" fill="#bedbed"/><rect x="11.53" y="74.92" width="5.76" height="5.76" fill="#bedbed"/><rect x="11.53" y="69.15" width="5.76" height="5.76" fill="#cfefff"/><rect x="11.53" y="63.39" width="5.76" height="5.76" fill="#1b0003"/><rect x="5.76" y="80.68" width="5.76" height="5.76" fill="#1b0003"/><rect x="5.76" y="74.92" width="5.76" height="5.76" fill="#1b0003"/><rect x="5.76" y="69.15" width="5.76" height="5.76" fill="#bedbed"/><rect x="5.76" y="63.39" width="5.76" height="5.76" fill="#cfefff"/><rect x="5.76" y="57.63" width="5.76" height="5.76" fill="#1b0003"/><rect y="69.15" width="5.76" height="5.76" fill="#1b0003"/><rect y="63.39" width="5.76" height="5.76" fill="#1b0003"/><rect y="57.63" width="5.76" height="5.76" fill="#1b0003"/></g></g></g></svg>