<svg xmlns="http://www.w3.org/2000/svg" width="139.46" height="105.99" viewBox="0 0 139.46 105.99"><g id="Layer_2" data-name="Layer 2"><g id="items"><g id="Golden_Bar" data-name="Golden Bar"><rect x="133.89" y="50.21" width="5.58" height="5.58" fill="#1b0003"/><rect x="133.89" y="44.63" width="5.58" height="5.58" fill="#1b0003"/><rect x="133.89" y="39.05" width="5.58" height="5.58" fill="#1b0003"/><rect x="133.89" y="33.47" width="5.58" height="5.58" fill="#1b0003"/><rect x="133.89" y="27.89" width="5.58" height="5.58" fill="#1b0003"/><rect x="133.89" y="22.31" width="5.58" height="5.58" fill="#1b0003"/><rect x="133.89" y="16.74" width="5.58" height="5.58" fill="#1b0003"/><rect x="133.89" y="11.16" width="5.58" height="5.58" fill="#1b0003"/><rect x="133.89" y="5.58" width="5.58" height="5.58" fill="#1b0003"/><rect x="128.31" y="55.79" width="5.58" height="5.58" fill="#1b0003"/><rect x="128.31" y="50.21" width="5.58" height="5.58" fill="#d84b13"/><rect x="128.31" y="44.63" width="5.58" height="5.58" fill="#db6d12"/><rect x="128.31" y="39.05" width="5.58" height="5.58" fill="#db6d12"/><rect x="128.31" y="33.47" width="5.58" height="5.58" fill="#db6d12"/><rect x="128.31" y="27.89" width="5.58" height="5.58" fill="#db6d12"/><rect x="128.31" y="22.31" width="5.58" height="5.58" fill="#db6d12"/><rect x="128.31" y="16.74" width="5.58" height="5.58" fill="#db6d12"/><rect x="128.31" y="11.16" width="5.58" height="5.58" fill="#d84b13"/><rect x="128.31" y="5.58" width="5.58" height="5.58" fill="#f7c45e"/><rect x="128.31" width="5.58" height="5.58" fill="#1b0003"/><rect x="122.73" y="61.36" width="5.58" height="5.58" fill="#1b0003"/><rect x="122.73" y="55.79" width="5.58" height="5.58" fill="#d84b13"/><rect x="122.73" y="50.21" width="5.58" height="5.58" fill="#db6d12"/><rect x="122.73" y="44.63" width="5.58" height="5.58" fill="#db6d12"/><rect x="122.73" y="39.05" width="5.58" height="5.58" fill="#d84b13"/><rect x="122.73" y="33.47" width="5.58" height="5.58" fill="#d84b13"/><rect x="122.73" y="27.89" width="5.58" height="5.58" fill="#d84b13"/><rect x="122.73" y="22.31" width="5.58" height="5.58" fill="#d84b13"/><rect x="122.73" y="16.74" width="5.58" height="5.58" fill="#d84b13"/><rect x="122.73" y="11.16" width="5.58" height="5.58" fill="#f7c45e"/><rect x="122.73" y="5.58" width="5.58" height="5.58" fill="#f9f2d4"/><rect x="122.73" width="5.58" height="5.58" fill="#1b0003"/><rect x="117.15" y="66.94" width="5.58" height="5.58" fill="#1b0003"/><rect x="117.15" y="61.36" width="5.58" height="5.58" fill="#d84b13"/><rect x="117.15" y="55.79" width="5.58" height="5.58" fill="#db6d12"/><rect x="117.15" y="50.21" width="5.58" height="5.58" fill="#db6d12"/><rect x="117.15" y="44.63" width="5.58" height="5.58" fill="#d84b13"/><rect x="117.15" y="39.05" width="5.58" height="5.58" fill="#d84b13"/><rect x="117.15" y="33.47" width="5.58" height="5.58" fill="#d84b13"/><rect x="117.15" y="27.89" width="5.58" height="5.58" fill="#d84b13"/><rect x="117.15" y="22.31" width="5.58" height="5.58" fill="#db6d12"/><rect x="117.15" y="16.74" width="5.58" height="5.58" fill="#f7c45e"/><rect x="117.15" y="11.16" width="5.58" height="5.58" fill="#f9f2d4"/><rect x="117.15" y="5.58" width="5.58" height="5.58" fill="#f9f2d4"/><rect x="117.15" width="5.58" height="5.58" fill="#1b0003"/><rect x="111.57" y="72.52" width="5.58" height="5.58" fill="#1b0003"/><rect x="111.57" y="66.94" width="5.58" height="5.58" fill="#d84b13"/><rect x="111.57" y="61.36" width="5.58" height="5.58" fill="#db6d12"/><rect x="111.57" y="55.79" width="5.58" height="5.58" fill="#db6d12"/><rect x="111.57" y="50.21" width="5.58" height="5.58" fill="#d84b13"/><rect x="111.57" y="44.63" width="5.58" height="5.58" fill="#d84b13"/><rect x="111.57" y="39.05" width="5.58" height="5.58" fill="#d84b13"/><rect x="111.57" y="33.47" width="5.58" height="5.58" fill="#d84b13"/><rect x="111.57" y="27.89" width="5.58" height="5.58" fill="#db6d12"/><rect x="111.57" y="22.31" width="5.58" height="5.58" fill="#f7c45e"/><rect x="111.57" y="16.74" width="5.58" height="5.58" fill="#f9f2d4"/><rect x="111.57" y="11.16" width="5.58" height="5.58" fill="#f9f2d4"/><rect x="111.57" y="5.58" width="5.58" height="5.58" fill="#f9f2d4"/><rect x="111.57" width="5.58" height="5.58" fill="#1b0003"/><rect x="105.99" y="78.1" width="5.58" height="5.58" fill="#1b0003"/><rect x="105.99" y="72.52" width="5.58" height="5.58" fill="#d84b13"/><rect x="105.99" y="66.94" width="5.58" height="5.58" fill="#db6d12"/><rect x="105.99" y="61.36" width="5.58" height="5.58" fill="#db6d12"/><rect x="105.99" y="55.79" width="5.58" height="5.58" fill="#d84b13"/><rect x="105.99" y="50.21" width="5.58" height="5.58" fill="#d84b13"/><rect x="105.99" y="44.63" width="5.58" height="5.58" fill="#d84b13"/><rect x="105.99" y="39.05" width="5.58" height="5.58" fill="#d84b13"/><rect x="105.99" y="33.47" width="5.58" height="5.58" fill="#db6d12"/><rect x="105.99" y="27.89" width="5.58" height="5.58" fill="#f7c45e"/><rect x="105.99" y="22.31" width="5.58" height="5.58" fill="#f9f2d4"/><rect x="105.99" y="16.74" width="5.58" height="5.58" fill="#f9f2d4"/><rect x="105.99" y="11.16" width="5.58" height="5.58" fill="#f9f2d4"/><rect x="105.99" y="5.58" width="5.58" height="5.58" fill="#f9f2d4"/><rect x="105.99" width="5.58" height="5.58" fill="#1b0003"/><rect x="100.41" y="83.68" width="5.58" height="5.58" fill="#1b0003"/><rect x="100.41" y="78.1" width="5.58" height="5.58" fill="#d84b13"/><rect x="100.41" y="72.52" width="5.58" height="5.58" fill="#db6d12"/><rect x="100.41" y="66.94" width="5.58" height="5.58" fill="#db6d12"/><rect x="100.41" y="61.36" width="5.58" height="5.58" fill="#d84b13"/><rect x="100.41" y="55.79" width="5.58" height="5.58" fill="#d84b13"/><rect x="100.41" y="50.21" width="5.58" height="5.58" fill="#d84b13"/><rect x="100.41" y="44.63" width="5.58" height="5.58" fill="#d84b13"/><rect x="100.41" y="39.05" width="5.58" height="5.58" fill="#db6d12"/><rect x="100.41" y="33.47" width="5.58" height="5.58" fill="#f7c45e"/><rect x="100.41" y="27.89" width="5.58" height="5.58" fill="#f9f2d4"/><rect x="100.41" y="22.31" width="5.58" height="5.58" fill="#f9f2d4"/><rect x="100.41" y="16.74" width="5.58" height="5.58" fill="#f9f2d4"/><rect x="100.41" y="11.16" width="5.58" height="5.58" fill="#f7c45e"/><rect x="100.41" y="5.58" width="5.58" height="5.58" fill="#f9f2d4"/><rect x="100.41" width="5.58" height="5.58" fill="#1b0003"/><rect x="94.84" y="89.26" width="5.58" height="5.58" fill="#1b0003"/><rect x="94.84" y="83.68" width="5.58" height="5.58" fill="#d84b13"/><rect x="94.84" y="78.1" width="5.58" height="5.58" fill="#db6d12"/><rect x="94.84" y="72.52" width="5.58" height="5.58" fill="#d84b13"/><rect x="94.84" y="66.94" width="5.58" height="5.58" fill="#d84b13"/><rect x="94.84" y="61.36" width="5.58" height="5.58" fill="#d84b13"/><rect x="94.84" y="55.79" width="5.58" height="5.58" fill="#d84b13"/><rect x="94.84" y="50.21" width="5.58" height="5.58" fill="#d84b13"/><rect x="94.84" y="44.63" width="5.58" height="5.58" fill="#f7c45e"/><rect x="94.84" y="39.05" width="5.58" height="5.58" fill="#f7c45e"/><rect x="94.84" y="33.47" width="5.58" height="5.58" fill="#f9f2d4"/><rect x="94.84" y="27.89" width="5.58" height="5.58" fill="#f9f2d4"/><rect x="94.84" y="22.31" width="5.58" height="5.58" fill="#f9f2d4"/><rect x="94.84" y="16.74" width="5.58" height="5.58" fill="#f9f2d4"/><rect x="94.84" y="11.16" width="5.58" height="5.58" fill="#f7c45e"/><rect x="94.84" y="5.58" width="5.58" height="5.58" fill="#f9f2d4"/><rect x="94.84" width="5.58" height="5.58" fill="#1b0003"/><rect x="89.26" y="94.84" width="5.58" height="5.58" fill="#1b0003"/><rect x="89.26" y="89.26" width="5.58" height="5.58" fill="#d84b13"/><rect x="89.26" y="83.68" width="5.58" height="5.58" fill="#db6d12"/><rect x="89.26" y="78.1" width="5.58" height="5.58" fill="#d84b13"/><rect x="89.26" y="72.52" width="5.58" height="5.58" fill="#d84b13"/><rect x="89.26" y="66.94" width="5.58" height="5.58" fill="#d84b13"/><rect x="89.26" y="61.36" width="5.58" height="5.58" fill="#d84b13"/><rect x="89.26" y="55.79" width="5.58" height="5.58" fill="#d84b13"/><rect x="89.26" y="50.21" width="5.58" height="5.58" fill="#f7c45e"/><rect x="89.26" y="44.63" width="5.58" height="5.58" fill="#f9f2d4"/><rect x="89.26" y="39.05" width="5.58" height="5.58" fill="#f9f2d4"/><rect x="89.26" y="33.47" width="5.58" height="5.58" fill="#f9f2d4"/><rect x="89.26" y="27.89" width="5.58" height="5.58" fill="#f9f2d4"/><rect x="89.26" y="22.31" width="5.58" height="5.58" fill="#f9f2d4"/><rect x="89.26" y="16.74" width="5.58" height="5.58" fill="#f9f2d4"/><rect x="89.26" y="11.16" width="5.58" height="5.58" fill="#f7c45e"/><rect x="89.26" y="5.58" width="5.58" height="5.58" fill="#f9f2d4"/><rect x="89.26" width="5.58" height="5.58" fill="#1b0003"/><rect x="83.68" y="100.41" width="5.58" height="5.58" fill="#1b0003"/><rect x="83.68" y="94.84" width="5.58" height="5.58" fill="#f7c45e"/><rect x="83.68" y="89.26" width="5.58" height="5.58" fill="#f7c45e"/><rect x="83.68" y="83.68" width="5.58" height="5.58" fill="#f7c45e"/><rect x="83.68" y="78.1" width="5.58" height="5.58" fill="#f7c45e"/><rect x="83.68" y="72.52" width="5.58" height="5.58" fill="#f7c45e"/><rect x="83.68" y="66.94" width="5.58" height="5.58" fill="#f7c45e"/><rect x="83.68" y="61.36" width="5.58" height="5.58" fill="#f7c45e"/><rect x="83.68" y="55.79" width="5.58" height="5.58" fill="#f7c45e"/><rect x="83.68" y="50.21" width="5.58" height="5.58" fill="#f9f2d4"/><rect x="83.68" y="44.63" width="5.58" height="5.58" fill="#f9f2d4"/><rect x="83.68" y="39.05" width="5.58" height="5.58" fill="#f9f2d4"/><rect x="83.68" y="33.47" width="5.58" height="5.58" fill="#f9f2d4"/><rect x="83.68" y="27.89" width="5.58" height="5.58" fill="#f9f2d4"/><rect x="83.68" y="22.31" width="5.58" height="5.58" fill="#f9f2d4"/><rect x="83.68" y="16.74" width="5.58" height="5.58" fill="#f9f2d4"/><rect x="83.68" y="11.16" width="5.58" height="5.58" fill="#f7c45e"/><rect x="83.68" y="5.58" width="5.58" height="5.58" fill="#f9f2d4"/><rect x="83.68" width="5.58" height="5.58" fill="#1b0003"/><rect x="78.1" y="100.41" width="5.58" height="5.58" fill="#1b0003"/><rect x="78.1" y="94.84" width="5.58" height="5.58" fill="#db6d12"/><rect x="78.1" y="89.26" width="5.58" height="5.58" fill="#db6d12"/><rect x="78.1" y="83.68" width="5.58" height="5.58" fill="#db6d12"/><rect x="78.1" y="78.1" width="5.58" height="5.58" fill="#db6d12"/><rect x="78.1" y="72.52" width="5.58" height="5.58" fill="#db6d12"/><rect x="78.1" y="66.94" width="5.58" height="5.58" fill="#f7c45e"/><rect x="78.1" y="61.36" width="5.58" height="5.58" fill="#f7c45e"/><rect x="78.1" y="55.79" width="5.58" height="5.58" fill="#f9f2d4"/><rect x="78.1" y="50.21" width="5.58" height="5.58" fill="#f9f2d4"/><rect x="78.1" y="44.63" width="5.58" height="5.58" fill="#f9f2d4"/><rect x="78.1" y="39.05" width="5.58" height="5.58" fill="#f9f2d4"/><rect x="78.1" y="33.47" width="5.58" height="5.58" fill="#f9f2d4"/><rect x="78.1" y="27.89" width="5.58" height="5.58" fill="#f9f2d4"/><rect x="78.1" y="22.31" width="5.58" height="5.58" fill="#f9f2d4"/><rect x="78.1" y="16.74" width="5.58" height="5.58" fill="#f9f2d4"/><rect x="78.1" y="11.16" width="5.58" height="5.58" fill="#f7c45e"/><rect x="78.1" y="5.58" width="5.58" height="5.58" fill="#f9f2d4"/><rect x="78.1" width="5.58" height="5.58" fill="#1b0003"/><rect x="72.52" y="100.41" width="5.58" height="5.58" fill="#1b0003"/><rect x="72.52" y="94.84" width="5.58" height="5.58" fill="#ea942d"/><rect x="72.52" y="89.26" width="5.58" height="5.58" fill="#ea942d"/><rect x="72.52" y="83.68" width="5.58" height="5.58" fill="#ea942d"/><rect x="72.52" y="78.1" width="5.58" height="5.58" fill="#ea942d"/><rect x="72.52" y="72.52" width="5.58" height="5.58" fill="#ea942d"/><rect x="72.52" y="66.94" width="5.58" height="5.58" fill="#db6d12"/><rect x="72.52" y="61.36" width="5.58" height="5.58" fill="#f7c45e"/><rect x="72.52" y="55.79" width="5.58" height="5.58" fill="#f9f2d4"/><rect x="72.52" y="50.21" width="5.58" height="5.58" fill="#f9f2d4"/><rect x="72.52" y="44.63" width="5.58" height="5.58" fill="#f9f2d4"/><rect x="72.52" y="39.05" width="5.58" height="5.58" fill="#f9f2d4"/><rect x="72.52" y="33.47" width="5.58" height="5.58" fill="#f9f2d4"/><rect x="72.52" y="27.89" width="5.58" height="5.58" fill="#f9f2d4"/><rect x="72.52" y="22.31" width="5.58" height="5.58" fill="#f9f2d4"/><rect x="72.52" y="16.74" width="5.58" height="5.58" fill="#f9f2d4"/><rect x="72.52" y="11.16" width="5.58" height="5.58" fill="#f7c45e"/><rect x="72.52" y="5.58" width="5.58" height="5.58" fill="#f9f2d4"/><rect x="72.52" width="5.58" height="5.58" fill="#1b0003"/><rect x="66.94" y="100.41" width="5.58" height="5.58" fill="#1b0003"/><rect x="66.94" y="94.84" width="5.58" height="5.58" fill="#ea942d"/><rect x="66.94" y="89.26" width="5.58" height="5.58" fill="#ea942d"/><rect x="66.94" y="83.68" width="5.58" height="5.58" fill="#ea942d"/><rect x="66.94" y="78.1" width="5.58" height="5.58" fill="#ea942d"/><rect x="66.94" y="72.52" width="5.58" height="5.58" fill="#ea942d"/><rect x="66.94" y="66.94" width="5.58" height="5.58" fill="#db6d12"/><rect x="66.94" y="61.36" width="5.58" height="5.58" fill="#f7c45e"/><rect x="66.94" y="55.79" width="5.58" height="5.58" fill="#f9f2d4"/><rect x="66.94" y="50.21" width="5.58" height="5.58" fill="#f7c45e"/><rect x="66.94" y="44.63" width="5.58" height="5.58" fill="#f9f2d4"/><rect x="66.94" y="39.05" width="5.58" height="5.58" fill="#f9f2d4"/><rect x="66.94" y="33.47" width="5.58" height="5.58" fill="#f9f2d4"/><rect x="66.94" y="27.89" width="5.58" height="5.58" fill="#f9f2d4"/><rect x="66.94" y="22.31" width="5.58" height="5.58" fill="#f9f2d4"/><rect x="66.94" y="16.74" width="5.58" height="5.58" fill="#f7c45e"/><rect x="66.94" y="11.16" width="5.58" height="5.58" fill="#f7c45e"/><rect x="66.94" y="5.58" width="5.58" height="5.58" fill="#f9f2d4"/><rect x="66.94" width="5.58" height="5.58" fill="#1b0003"/><rect x="61.36" y="100.41" width="5.58" height="5.58" fill="#1b0003"/><rect x="61.36" y="94.84" width="5.58" height="5.58" fill="#ea942d"/><rect x="61.36" y="89.26" width="5.58" height="5.58" fill="#ea942d"/><rect x="61.36" y="83.68" width="5.58" height="5.58" fill="#ea942d"/><rect x="61.36" y="78.1" width="5.58" height="5.58" fill="#ea942d"/><rect x="61.36" y="72.52" width="5.58" height="5.58" fill="#ea942d"/><rect x="61.36" y="66.94" width="5.58" height="5.58" fill="#db6d12"/><rect x="61.36" y="61.36" width="5.58" height="5.58" fill="#f7c45e"/><rect x="61.36" y="55.79" width="5.58" height="5.58" fill="#f9f2d4"/><rect x="61.36" y="50.21" width="5.58" height="5.58" fill="#f7c45e"/><rect x="61.36" y="44.63" width="5.58" height="5.58" fill="#f9f2d4"/><rect x="61.36" y="39.05" width="5.58" height="5.58" fill="#f9f2d4"/><rect x="61.36" y="33.47" width="5.58" height="5.58" fill="#f9f2d4"/><rect x="61.36" y="27.89" width="5.58" height="5.58" fill="#f9f2d4"/><rect x="61.36" y="22.31" width="5.58" height="5.58" fill="#f7c45e"/><rect x="61.36" y="16.74" width="5.58" height="5.58" fill="#f7c45e"/><rect x="61.36" y="11.16" width="5.58" height="5.58" fill="#f9f2d4"/><rect x="61.36" y="5.58" width="5.58" height="5.58" fill="#f7c45e"/><rect x="61.36" width="5.58" height="5.58" fill="#1b0003"/><rect x="55.79" y="100.41" width="5.58" height="5.58" fill="#1b0003"/><rect x="55.79" y="94.84" width="5.58" height="5.58" fill="#ea942d"/><rect x="55.79" y="89.26" width="5.58" height="5.58" fill="#ea942d"/><rect x="55.79" y="83.68" width="5.58" height="5.58" fill="#ea942d"/><rect x="55.79" y="78.1" width="5.58" height="5.58" fill="#ea942d"/><rect x="55.79" y="72.52" width="5.58" height="5.58" fill="#ea942d"/><rect x="55.79" y="66.94" width="5.58" height="5.58" fill="#db6d12"/><rect x="55.79" y="61.36" width="5.58" height="5.58" fill="#f7c45e"/><rect x="55.79" y="55.79" width="5.58" height="5.58" fill="#f9f2d4"/><rect x="55.79" y="50.21" width="5.58" height="5.58" fill="#f7c45e"/><rect x="55.79" y="44.63" width="5.58" height="5.58" fill="#f9f2d4"/><rect x="55.79" y="39.05" width="5.58" height="5.58" fill="#f9f2d4"/><rect x="55.79" y="33.47" width="5.58" height="5.58" fill="#f9f2d4"/><rect x="55.79" y="27.89" width="5.58" height="5.58" fill="#f7c45e"/><rect x="55.79" y="22.31" width="5.58" height="5.58" fill="#f7c45e"/><rect x="55.79" y="16.74" width="5.58" height="5.58" fill="#f9f2d4"/><rect x="55.79" y="11.16" width="5.58" height="5.58" fill="#f7c45e"/><rect x="55.79" y="5.58" width="5.58" height="5.58" fill="#1b0003"/><rect x="50.21" y="100.41" width="5.58" height="5.58" fill="#1b0003"/><rect x="50.21" y="94.84" width="5.58" height="5.58" fill="#ea942d"/><rect x="50.21" y="89.26" width="5.58" height="5.58" fill="#ea942d"/><rect x="50.21" y="83.68" width="5.58" height="5.58" fill="#ea942d"/><rect x="50.21" y="78.1" width="5.58" height="5.58" fill="#ea942d"/><rect x="50.21" y="72.52" width="5.58" height="5.58" fill="#ea942d"/><rect x="50.21" y="66.94" width="5.58" height="5.58" fill="#db6d12"/><rect x="50.21" y="61.36" width="5.58" height="5.58" fill="#f7c45e"/><rect x="50.21" y="55.79" width="5.58" height="5.58" fill="#f9f2d4"/><rect x="50.21" y="50.21" width="5.58" height="5.58" fill="#f7c45e"/><rect x="50.21" y="44.63" width="5.58" height="5.58" fill="#f9f2d4"/><rect x="50.21" y="39.05" width="5.58" height="5.58" fill="#f9f2d4"/><rect x="50.21" y="33.47" width="5.58" height="5.58" fill="#f7c45e"/><rect x="50.21" y="27.89" width="5.58" height="5.58" fill="#f7c45e"/><rect x="50.21" y="22.31" width="5.58" height="5.58" fill="#f9f2d4"/><rect x="50.21" y="16.74" width="5.58" height="5.58" fill="#f7c45e"/><rect x="50.21" y="11.16" width="5.58" height="5.58" fill="#1b0003"/><rect x="44.63" y="100.41" width="5.58" height="5.58" fill="#1b0003"/><rect x="44.63" y="94.84" width="5.58" height="5.58" fill="#ea942d"/><rect x="44.63" y="89.26" width="5.58" height="5.58" fill="#ea942d"/><rect x="44.63" y="83.68" width="5.58" height="5.58" fill="#ea942d"/><rect x="44.63" y="78.1" width="5.58" height="5.58" fill="#ea942d"/><rect x="44.63" y="72.52" width="5.58" height="5.58" fill="#ea942d"/><rect x="44.63" y="66.94" width="5.58" height="5.58" fill="#db6d12"/><rect x="44.63" y="61.36" width="5.58" height="5.58" fill="#f7c45e"/><rect x="44.63" y="55.79" width="5.58" height="5.58" fill="#f9f2d4"/><rect x="44.63" y="50.21" width="5.58" height="5.58" fill="#f7c45e"/><rect x="44.63" y="44.63" width="5.58" height="5.58" fill="#f9f2d4"/><rect x="44.63" y="39.05" width="5.58" height="5.58" fill="#f7c45e"/><rect x="44.63" y="33.47" width="5.58" height="5.58" fill="#f7c45e"/><rect x="44.63" y="27.89" width="5.58" height="5.58" fill="#f9f2d4"/><rect x="44.63" y="22.31" width="5.58" height="5.58" fill="#f7c45e"/><rect x="44.63" y="16.74" width="5.58" height="5.58" fill="#1b0003"/><rect x="39.05" y="100.41" width="5.58" height="5.58" fill="#1b0003"/><rect x="39.05" y="94.84" width="5.58" height="5.58" fill="#ea942d"/><rect x="39.05" y="89.26" width="5.58" height="5.58" fill="#ea942d"/><rect x="39.05" y="83.68" width="5.58" height="5.58" fill="#ea942d"/><rect x="39.05" y="78.1" width="5.58" height="5.58" fill="#ea942d"/><rect x="39.05" y="72.52" width="5.58" height="5.58" fill="#ea942d"/><rect x="39.05" y="66.94" width="5.58" height="5.58" fill="#db6d12"/><rect x="39.05" y="61.36" width="5.58" height="5.58" fill="#f7c45e"/><rect x="39.05" y="55.79" width="5.58" height="5.58" fill="#f9f2d4"/><rect x="39.05" y="50.21" width="5.58" height="5.58" fill="#f7c45e"/><rect x="39.05" y="44.63" width="5.58" height="5.58" fill="#f7c45e"/><rect x="39.05" y="39.05" width="5.58" height="5.58" fill="#f7c45e"/><rect x="39.05" y="33.47" width="5.58" height="5.58" fill="#f9f2d4"/><rect x="39.05" y="27.89" width="5.58" height="5.58" fill="#f7c45e"/><rect x="39.05" y="22.31" width="5.58" height="5.58" fill="#1b0003"/><rect x="33.47" y="100.41" width="5.58" height="5.58" fill="#1b0003"/><rect x="33.47" y="94.84" width="5.58" height="5.58" fill="#ea942d"/><rect x="33.47" y="89.26" width="5.58" height="5.58" fill="#ea942d"/><rect x="33.47" y="83.68" width="5.58" height="5.58" fill="#ea942d"/><rect x="33.47" y="78.1" width="5.58" height="5.58" fill="#ea942d"/><rect x="33.47" y="72.52" width="5.58" height="5.58" fill="#ea942d"/><rect x="33.47" y="66.94" width="5.58" height="5.58" fill="#db6d12"/><rect x="33.47" y="61.36" width="5.58" height="5.58" fill="#f7c45e"/><rect x="33.47" y="55.79" width="5.58" height="5.58" fill="#f9f2d4"/><rect x="33.47" y="50.21" width="5.58" height="5.58" fill="#f7c45e"/><rect x="33.47" y="44.63" width="5.58" height="5.58" fill="#f7c45e"/><rect x="33.47" y="39.05" width="5.58" height="5.58" fill="#f9f2d4"/><rect x="33.47" y="33.47" width="5.58" height="5.58" fill="#f7c45e"/><rect x="33.47" y="27.89" width="5.58" height="5.58" fill="#1b0003"/><rect x="27.89" y="100.41" width="5.58" height="5.58" fill="#1b0003"/><rect x="27.89" y="94.84" width="5.58" height="5.58" fill="#ea942d"/><rect x="27.89" y="89.26" width="5.58" height="5.58" fill="#ea942d"/><rect x="27.89" y="83.68" width="5.58" height="5.58" fill="#ea942d"/><rect x="27.89" y="78.1" width="5.58" height="5.58" fill="#ea942d"/><rect x="27.89" y="72.52" width="5.58" height="5.58" fill="#ea942d"/><rect x="27.89" y="66.94" width="5.58" height="5.58" fill="#db6d12"/><rect x="27.89" y="61.36" width="5.58" height="5.58" fill="#f7c45e"/><rect x="27.89" y="55.79" width="5.58" height="5.58" fill="#f9f2d4"/><rect x="27.89" y="50.21" width="5.58" height="5.58" fill="#f7c45e"/><rect x="27.89" y="44.63" width="5.58" height="5.58" fill="#f9f2d4"/><rect x="27.89" y="39.05" width="5.58" height="5.58" fill="#f7c45e"/><rect x="27.89" y="33.47" width="5.58" height="5.58" fill="#1b0003"/><rect x="22.31" y="100.41" width="5.58" height="5.58" fill="#1b0003"/><rect x="22.31" y="94.84" width="5.58" height="5.58" fill="#db6d12"/><rect x="22.31" y="89.26" width="5.58" height="5.58" fill="#ea942d"/><rect x="22.31" y="83.68" width="5.58" height="5.58" fill="#ea942d"/><rect x="22.31" y="78.1" width="5.58" height="5.58" fill="#ea942d"/><rect x="22.31" y="72.52" width="5.58" height="5.58" fill="#ea942d"/><rect x="22.31" y="66.94" width="5.58" height="5.58" fill="#db6d12"/><rect x="22.31" y="61.36" width="5.58" height="5.58" fill="#f7c45e"/><rect x="22.31" y="55.79" width="5.58" height="5.58" fill="#f9f2d4"/><rect x="22.31" y="50.21" width="5.58" height="5.58" fill="#f9f2d4"/><rect x="22.31" y="44.63" width="5.58" height="5.58" fill="#f7c45e"/><rect x="22.31" y="39.05" width="5.58" height="5.58" fill="#1b0003"/><rect x="16.74" y="100.41" width="5.58" height="5.58" fill="#1b0003"/><rect x="16.74" y="94.84" width="5.58" height="5.58" fill="#ea942d"/><rect x="16.74" y="89.26" width="5.58" height="5.58" fill="#db6d12"/><rect x="16.74" y="83.68" width="5.58" height="5.58" fill="#ea942d"/><rect x="16.74" y="78.1" width="5.58" height="5.58" fill="#ea942d"/><rect x="16.74" y="72.52" width="5.58" height="5.58" fill="#ea942d"/><rect x="16.74" y="66.94" width="5.58" height="5.58" fill="#db6d12"/><rect x="16.74" y="61.36" width="5.58" height="5.58" fill="#f7c45e"/><rect x="16.74" y="55.79" width="5.58" height="5.58" fill="#f9f2d4"/><rect x="16.74" y="50.21" width="5.58" height="5.58" fill="#f7c45e"/><rect x="16.74" y="44.63" width="5.58" height="5.58" fill="#1b0003"/><rect x="11.16" y="100.41" width="5.58" height="5.58" fill="#1b0003"/><rect x="11.16" y="94.84" width="5.58" height="5.58" fill="#db6d12"/><rect x="11.16" y="89.26" width="5.58" height="5.58" fill="#ea942d"/><rect x="11.16" y="83.68" width="5.58" height="5.58" fill="#db6d12"/><rect x="11.16" y="78.1" width="5.58" height="5.58" fill="#ea942d"/><rect x="11.16" y="72.52" width="5.58" height="5.58" fill="#ea942d"/><rect x="11.16" y="66.94" width="5.58" height="5.58" fill="#db6d12"/><rect x="11.16" y="61.36" width="5.58" height="5.58" fill="#f7c45e"/><rect x="11.16" y="55.79" width="5.58" height="5.58" fill="#f7c45e"/><rect x="11.16" y="50.21" width="5.58" height="5.58" fill="#1b0003"/><rect x="5.58" y="100.41" width="5.58" height="5.58" fill="#1b0003"/><rect x="5.58" y="94.84" width="5.58" height="5.58" fill="#ea942d"/><rect x="5.58" y="89.26" width="5.58" height="5.58" fill="#db6d12"/><rect x="5.58" y="83.68" width="5.58" height="5.58" fill="#ea942d"/><rect x="5.58" y="78.1" width="5.58" height="5.58" fill="#db6d12"/><rect x="5.58" y="72.52" width="5.58" height="5.58" fill="#ea942d"/><rect x="5.58" y="66.94" width="5.58" height="5.58" fill="#db6d12"/><rect x="5.58" y="61.36" width="5.58" height="5.58" fill="#d84b13"/><rect x="5.58" y="55.79" width="5.58" height="5.58" fill="#1b0003"/><rect y="94.84" width="5.58" height="5.58" fill="#1b0003"/><rect y="89.26" width="5.58" height="5.58" fill="#1b0003"/><rect y="83.68" width="5.58" height="5.58" fill="#1b0003"/><rect y="78.1" width="5.58" height="5.58" fill="#1b0003"/><rect y="72.52" width="5.58" height="5.58" fill="#1b0003"/><rect y="66.94" width="5.58" height="5.58" fill="#1b0003"/><rect y="61.36" width="5.58" height="5.58" fill="#1b0003"/></g></g></g></svg>