<svg xmlns="http://www.w3.org/2000/svg" width="109.84" height="109.84" viewBox="0 0 109.84 109.84"><g id="Layer_2" data-name="Layer 2"><g id="items"><g id="Helmet"><rect x="104.06" y="92.5" width="5.78" height="5.78" fill="#1b0003"/><rect x="104.06" y="86.72" width="5.78" height="5.78" fill="#1b0003"/><rect x="104.06" y="80.94" width="5.78" height="5.78" fill="#1b0003"/><rect x="104.06" y="75.15" width="5.78" height="5.78" fill="#1b0003"/><rect x="104.06" y="69.37" width="5.78" height="5.78" fill="#1b0003"/><rect x="104.06" y="63.59" width="5.78" height="5.78" fill="#1b0003"/><rect x="104.06" y="57.81" width="5.78" height="5.78" fill="#1b0003"/><rect x="104.06" y="52.03" width="5.78" height="5.78" fill="#1b0003"/><rect x="104.06" y="46.25" width="5.78" height="5.78" fill="#1b0003"/><rect x="104.06" y="40.47" width="5.78" height="5.78" fill="#1b0003"/><rect x="104.06" y="34.69" width="5.78" height="5.78" fill="#1b0003"/><rect x="104.06" y="28.91" width="5.78" height="5.78" fill="#1b0003"/><rect x="98.28" y="92.5" width="5.78" height="5.78" fill="#1b0003"/><rect x="98.28" y="86.72" width="5.78" height="5.78" fill="#223c5b"/><rect x="98.28" y="80.94" width="5.78" height="5.78" fill="#223c5b"/><rect x="98.28" y="75.15" width="5.78" height="5.78" fill="#85a1c9"/><rect x="98.28" y="69.37" width="5.78" height="5.78" fill="#223c5b"/><rect x="98.28" y="63.59" width="5.78" height="5.78" fill="#85a1c9"/><rect x="98.28" y="57.81" width="5.78" height="5.78" fill="#85a1c9"/><rect x="98.28" y="52.03" width="5.78" height="5.78" fill="#85a1c9"/><rect x="98.28" y="46.25" width="5.78" height="5.78" fill="#85a1c9"/><rect x="98.28" y="40.47" width="5.78" height="5.78" fill="#85a1c9"/><rect x="98.28" y="34.69" width="5.78" height="5.78" fill="#e3f7ff"/><rect x="98.28" y="28.91" width="5.78" height="5.78" fill="#e3f7ff"/><rect x="98.28" y="23.12" width="5.78" height="5.78" fill="#1b0003"/><rect x="98.28" y="17.34" width="5.78" height="5.78" fill="#1b0003"/><rect x="92.5" y="98.28" width="5.78" height="5.78" fill="#1b0003"/><rect x="92.5" y="92.5" width="5.78" height="5.78" fill="#223c5b"/><rect x="92.5" y="86.72" width="5.78" height="5.78" fill="#223c5b"/><rect x="92.5" y="80.94" width="5.78" height="5.78" fill="#85a1c9"/><rect x="92.5" y="75.15" width="5.78" height="5.78" fill="#223c5b"/><rect x="92.5" y="69.37" width="5.78" height="5.78" fill="#85a1c9"/><rect x="92.5" y="63.59" width="5.78" height="5.78" fill="#85a1c9"/><rect x="92.5" y="57.81" width="5.78" height="5.78" fill="#85a1c9"/><rect x="92.5" y="52.03" width="5.78" height="5.78" fill="#85a1c9"/><rect x="92.5" y="46.25" width="5.78" height="5.78" fill="#85a1c9"/><rect x="92.5" y="40.47" width="5.78" height="5.78" fill="#85a1c9"/><rect x="92.5" y="34.69" width="5.78" height="5.78" fill="#85a1c9"/><rect x="92.5" y="28.91" width="5.78" height="5.78" fill="#85a1c9"/><rect x="92.5" y="23.12" width="5.78" height="5.78" fill="#e3f7ff"/><rect x="92.5" y="17.34" width="5.78" height="5.78" fill="#e3f7ff"/><rect x="92.5" y="11.56" width="5.78" height="5.78" fill="#1b0003"/><rect x="86.72" y="104.06" width="5.78" height="5.78" fill="#1b0003"/><rect x="86.72" y="98.28" width="5.78" height="5.78" fill="#223c5b"/><rect x="86.72" y="92.5" width="5.78" height="5.78" fill="#223c5b"/><rect x="86.72" y="86.72" width="5.78" height="5.78" fill="#85a1c9"/><rect x="86.72" y="80.94" width="5.78" height="5.78" fill="#223c5b"/><rect x="86.72" y="75.15" width="5.78" height="5.78" fill="#85a1c9"/><rect x="86.72" y="69.37" width="5.78" height="5.78" fill="#85a1c9"/><rect x="86.72" y="63.59" width="5.78" height="5.78" fill="#85a1c9"/><rect x="86.72" y="57.81" width="5.78" height="5.78" fill="#1b0003"/><rect x="86.72" y="52.03" width="5.78" height="5.78" fill="#1b0003"/><rect x="86.72" y="46.25" width="5.78" height="5.78" fill="#1b0003"/><rect x="86.72" y="40.47" width="5.78" height="5.78" fill="#85a1c9"/><rect x="86.72" y="34.69" width="5.78" height="5.78" fill="#85a1c9"/><rect x="86.72" y="28.91" width="5.78" height="5.78" fill="#85a1c9"/><rect x="86.72" y="23.12" width="5.78" height="5.78" fill="#85a1c9"/><rect x="86.72" y="17.34" width="5.78" height="5.78" fill="#e3f7ff"/><rect x="86.72" y="11.56" width="5.78" height="5.78" fill="#e3f7ff"/><rect x="86.72" y="5.78" width="5.78" height="5.78" fill="#1b0003"/><rect x="80.94" y="104.06" width="5.78" height="5.78" fill="#1b0003"/><rect x="80.94" y="98.28" width="5.78" height="5.78" fill="#223c5b"/><rect x="80.94" y="92.5" width="5.78" height="5.78" fill="#85a1c9"/><rect x="80.94" y="86.72" width="5.78" height="5.78" fill="#223c5b"/><rect x="80.94" y="80.94" width="5.78" height="5.78" fill="#85a1c9"/><rect x="80.94" y="75.15" width="5.78" height="5.78" fill="#85a1c9"/><rect x="80.94" y="69.37" width="5.78" height="5.78" fill="#85a1c9"/><rect x="80.94" y="63.59" width="5.78" height="5.78" fill="#1b0003"/><rect x="80.94" y="57.81" width="5.78" height="5.78" fill="#223c5b"/><rect x="80.94" y="52.03" width="5.78" height="5.78" fill="#223c5b"/><rect x="80.94" y="46.25" width="5.78" height="5.78" fill="#223c5b"/><rect x="80.94" y="40.47" width="5.78" height="5.78" fill="#1b0003"/><rect x="80.94" y="34.69" width="5.78" height="5.78" fill="#85a1c9"/><rect x="80.94" y="28.91" width="5.78" height="5.78" fill="#85a1c9"/><rect x="80.94" y="23.12" width="5.78" height="5.78" fill="#85a1c9"/><rect x="80.94" y="17.34" width="5.78" height="5.78" fill="#85a1c9"/><rect x="80.94" y="11.56" width="5.78" height="5.78" fill="#e3f7ff"/><rect x="80.94" y="5.78" width="5.78" height="5.78" fill="#1b0003"/><rect x="75.15" y="104.06" width="5.78" height="5.78" fill="#1b0003"/><rect x="75.15" y="98.28" width="5.78" height="5.78" fill="#85a1c9"/><rect x="75.15" y="92.5" width="5.78" height="5.78" fill="#223c5b"/><rect x="75.15" y="86.72" width="5.78" height="5.78" fill="#85a1c9"/><rect x="75.15" y="80.94" width="5.78" height="5.78" fill="#85a1c9"/><rect x="75.15" y="75.15" width="5.78" height="5.78" fill="#85a1c9"/><rect x="75.15" y="69.37" width="5.78" height="5.78" fill="#85a1c9"/><rect x="75.15" y="63.59" width="5.78" height="5.78" fill="#1b0003"/><rect x="75.15" y="57.81" width="5.78" height="5.78" fill="#223c5b"/><rect x="75.15" y="52.03" width="5.78" height="5.78" fill="#223c5b"/><rect x="75.15" y="46.25" width="5.78" height="5.78" fill="#223c5b"/><rect x="75.15" y="40.47" width="5.78" height="5.78" fill="#1b0003"/><rect x="75.15" y="34.69" width="5.78" height="5.78" fill="#85a1c9"/><rect x="75.15" y="28.91" width="5.78" height="5.78" fill="#85a1c9"/><rect x="75.15" y="23.12" width="5.78" height="5.78" fill="#85a1c9"/><rect x="75.15" y="17.34" width="5.78" height="5.78" fill="#bedbed"/><rect x="75.15" y="11.56" width="5.78" height="5.78" fill="#e3f7ff"/><rect x="75.15" y="5.78" width="5.78" height="5.78" fill="#e3f7ff"/><rect x="75.15" width="5.78" height="5.78" fill="#1b0003"/><rect x="69.37" y="98.28" width="5.78" height="5.78" fill="#1b0003"/><rect x="69.37" y="92.5" width="5.78" height="5.78" fill="#1b0003"/><rect x="69.37" y="86.72" width="5.78" height="5.78" fill="#1b0003"/><rect x="69.37" y="80.94" width="5.78" height="5.78" fill="#1b0003"/><rect x="69.37" y="75.15" width="5.78" height="5.78" fill="#1b0003"/><rect x="69.37" y="69.37" width="5.78" height="5.78" fill="#1b0003"/><rect x="69.37" y="63.59" width="5.78" height="5.78" fill="#1b0003"/><rect x="69.37" y="57.81" width="5.78" height="5.78" fill="#223c5b"/><rect x="69.37" y="52.03" width="5.78" height="5.78" fill="#223c5b"/><rect x="69.37" y="46.25" width="5.78" height="5.78" fill="#223c5b"/><rect x="69.37" y="40.47" width="5.78" height="5.78" fill="#1b0003"/><rect x="69.37" y="34.69" width="5.78" height="5.78" fill="#85a1c9"/><rect x="69.37" y="28.91" width="5.78" height="5.78" fill="#85a1c9"/><rect x="69.37" y="23.12" width="5.78" height="5.78" fill="#bedbed"/><rect x="69.37" y="17.34" width="5.78" height="5.78" fill="#bedbed"/><rect x="69.37" y="11.56" width="5.78" height="5.78" fill="#e3f7ff"/><rect x="69.37" y="5.78" width="5.78" height="5.78" fill="#e3f7ff"/><rect x="69.37" width="5.78" height="5.78" fill="#1b0003"/><rect x="63.59" y="98.28" width="5.78" height="5.78" fill="#1b0003"/><rect x="63.59" y="92.5" width="5.78" height="5.78" fill="#223c5b"/><rect x="63.59" y="86.72" width="5.78" height="5.78" fill="#223c5b"/><rect x="63.59" y="80.94" width="5.78" height="5.78" fill="#223c5b"/><rect x="63.59" y="75.15" width="5.78" height="5.78" fill="#223c5b"/><rect x="63.59" y="69.37" width="5.78" height="5.78" fill="#223c5b"/><rect x="63.59" y="63.59" width="5.78" height="5.78" fill="#223c5b"/><rect x="63.59" y="57.81" width="5.78" height="5.78" fill="#223c5b"/><rect x="63.59" y="52.03" width="5.78" height="5.78" fill="#223c5b"/><rect x="63.59" y="46.25" width="5.78" height="5.78" fill="#223c5b"/><rect x="63.59" y="40.47" width="5.78" height="5.78" fill="#1b0003"/><rect x="63.59" y="34.69" width="5.78" height="5.78" fill="#85a1c9"/><rect x="63.59" y="28.91" width="5.78" height="5.78" fill="#bedbed"/><rect x="63.59" y="23.12" width="5.78" height="5.78" fill="#bedbed"/><rect x="63.59" y="17.34" width="5.78" height="5.78" fill="#e3f7ff"/><rect x="63.59" y="11.56" width="5.78" height="5.78" fill="#e3f7ff"/><rect x="63.59" y="5.78" width="5.78" height="5.78" fill="#e3f7ff"/><rect x="63.59" width="5.78" height="5.78" fill="#1b0003"/><rect x="57.81" y="98.28" width="5.78" height="5.78" fill="#1b0003"/><rect x="57.81" y="92.5" width="5.78" height="5.78" fill="#223c5b"/><rect x="57.81" y="86.72" width="5.78" height="5.78" fill="#223c5b"/><rect x="57.81" y="80.94" width="5.78" height="5.78" fill="#223c5b"/><rect x="57.81" y="75.15" width="5.78" height="5.78" fill="#223c5b"/><rect x="57.81" y="69.37" width="5.78" height="5.78" fill="#223c5b"/><rect x="57.81" y="63.59" width="5.78" height="5.78" fill="#223c5b"/><rect x="57.81" y="57.81" width="5.78" height="5.78" fill="#223c5b"/><rect x="57.81" y="52.03" width="5.78" height="5.78" fill="#223c5b"/><rect x="57.81" y="46.25" width="5.78" height="5.78" fill="#223c5b"/><rect x="57.81" y="40.47" width="5.78" height="5.78" fill="#1b0003"/><rect x="57.81" y="34.69" width="5.78" height="5.78" fill="#85a1c9"/><rect x="57.81" y="28.91" width="5.78" height="5.78" fill="#bedbed"/><rect x="57.81" y="23.12" width="5.78" height="5.78" fill="#e3f7ff"/><rect x="57.81" y="17.34" width="5.78" height="5.78" fill="#e3f7ff"/><rect x="57.81" y="11.56" width="5.78" height="5.78" fill="#e3f7ff"/><rect x="57.81" y="5.78" width="5.78" height="5.78" fill="#e3f7ff"/><rect x="57.81" width="5.78" height="5.78" fill="#1b0003"/><rect x="52.03" y="98.28" width="5.78" height="5.78" fill="#1b0003"/><rect x="52.03" y="92.5" width="5.78" height="5.78" fill="#223c5b"/><rect x="52.03" y="86.72" width="5.78" height="5.78" fill="#223c5b"/><rect x="52.03" y="80.94" width="5.78" height="5.78" fill="#223c5b"/><rect x="52.03" y="75.15" width="5.78" height="5.78" fill="#223c5b"/><rect x="52.03" y="69.37" width="5.78" height="5.78" fill="#223c5b"/><rect x="52.03" y="63.59" width="5.78" height="5.78" fill="#223c5b"/><rect x="52.03" y="57.81" width="5.78" height="5.78" fill="#223c5b"/><rect x="52.03" y="52.03" width="5.78" height="5.78" fill="#223c5b"/><rect x="52.03" y="46.25" width="5.78" height="5.78" fill="#223c5b"/><rect x="52.03" y="40.47" width="5.78" height="5.78" fill="#1b0003"/><rect x="52.03" y="34.69" width="5.78" height="5.78" fill="#85a1c9"/><rect x="52.03" y="28.91" width="5.78" height="5.78" fill="#bedbed"/><rect x="52.03" y="23.12" width="5.78" height="5.78" fill="#e3f7ff"/><rect x="52.03" y="17.34" width="5.78" height="5.78" fill="#e3f7ff"/><rect x="52.03" y="11.56" width="5.78" height="5.78" fill="#e3f7ff"/><rect x="52.03" y="5.78" width="5.78" height="5.78" fill="#e3f7ff"/><rect x="52.03" width="5.78" height="5.78" fill="#1b0003"/><rect x="46.25" y="98.28" width="5.78" height="5.78" fill="#1b0003"/><rect x="46.25" y="92.5" width="5.78" height="5.78" fill="#223c5b"/><rect x="46.25" y="86.72" width="5.78" height="5.78" fill="#223c5b"/><rect x="46.25" y="80.94" width="5.78" height="5.78" fill="#223c5b"/><rect x="46.25" y="75.15" width="5.78" height="5.78" fill="#223c5b"/><rect x="46.25" y="69.37" width="5.78" height="5.78" fill="#223c5b"/><rect x="46.25" y="63.59" width="5.78" height="5.78" fill="#223c5b"/><rect x="46.25" y="57.81" width="5.78" height="5.78" fill="#223c5b"/><rect x="46.25" y="52.03" width="5.78" height="5.78" fill="#223c5b"/><rect x="46.25" y="46.25" width="5.78" height="5.78" fill="#223c5b"/><rect x="46.25" y="40.47" width="5.78" height="5.78" fill="#1b0003"/><rect x="46.25" y="34.69" width="5.78" height="5.78" fill="#85a1c9"/><rect x="46.25" y="28.91" width="5.78" height="5.78" fill="#bedbed"/><rect x="46.25" y="23.12" width="5.78" height="5.78" fill="#e3f7ff"/><rect x="46.25" y="17.34" width="5.78" height="5.78" fill="#e3f7ff"/><rect x="46.25" y="11.56" width="5.78" height="5.78" fill="#e3f7ff"/><rect x="46.25" y="5.78" width="5.78" height="5.78" fill="#e3f7ff"/><rect x="46.25" width="5.78" height="5.78" fill="#1b0003"/><rect x="40.47" y="98.28" width="5.78" height="5.78" fill="#1b0003"/><rect x="40.47" y="92.5" width="5.78" height="5.78" fill="#223c5b"/><rect x="40.47" y="86.72" width="5.78" height="5.78" fill="#223c5b"/><rect x="40.47" y="80.94" width="5.78" height="5.78" fill="#223c5b"/><rect x="40.47" y="75.15" width="5.78" height="5.78" fill="#223c5b"/><rect x="40.47" y="69.37" width="5.78" height="5.78" fill="#223c5b"/><rect x="40.47" y="63.59" width="5.78" height="5.78" fill="#223c5b"/><rect x="40.47" y="57.81" width="5.78" height="5.78" fill="#223c5b"/><rect x="40.47" y="52.03" width="5.78" height="5.78" fill="#223c5b"/><rect x="40.47" y="46.25" width="5.78" height="5.78" fill="#223c5b"/><rect x="40.47" y="40.47" width="5.78" height="5.78" fill="#1b0003"/><rect x="40.47" y="34.69" width="5.78" height="5.78" fill="#85a1c9"/><rect x="40.47" y="28.91" width="5.78" height="5.78" fill="#bedbed"/><rect x="40.47" y="23.12" width="5.78" height="5.78" fill="#e3f7ff"/><rect x="40.47" y="17.34" width="5.78" height="5.78" fill="#e3f7ff"/><rect x="40.47" y="11.56" width="5.78" height="5.78" fill="#e3f7ff"/><rect x="40.47" y="5.78" width="5.78" height="5.78" fill="#e3f7ff"/><rect x="40.47" width="5.78" height="5.78" fill="#1b0003"/><rect x="34.69" y="98.28" width="5.78" height="5.78" fill="#1b0003"/><rect x="34.69" y="92.5" width="5.78" height="5.78" fill="#1b0003"/><rect x="34.69" y="86.72" width="5.78" height="5.78" fill="#1b0003"/><rect x="34.69" y="80.94" width="5.78" height="5.78" fill="#1b0003"/><rect x="34.69" y="75.15" width="5.78" height="5.78" fill="#1b0003"/><rect x="34.69" y="69.37" width="5.78" height="5.78" fill="#1b0003"/><rect x="34.69" y="63.59" width="5.78" height="5.78" fill="#1b0003"/><rect x="34.69" y="57.81" width="5.78" height="5.78" fill="#223c5b"/><rect x="34.69" y="52.03" width="5.78" height="5.78" fill="#223c5b"/><rect x="34.69" y="46.25" width="5.78" height="5.78" fill="#223c5b"/><rect x="34.69" y="40.47" width="5.78" height="5.78" fill="#1b0003"/><rect x="34.69" y="34.69" width="5.78" height="5.78" fill="#85a1c9"/><rect x="34.69" y="28.91" width="5.78" height="5.78" fill="#bedbed"/><rect x="34.69" y="23.12" width="5.78" height="5.78" fill="#e3f7ff"/><rect x="34.69" y="17.34" width="5.78" height="5.78" fill="#e3f7ff"/><rect x="34.69" y="11.56" width="5.78" height="5.78" fill="#e3f7ff"/><rect x="34.69" y="5.78" width="5.78" height="5.78" fill="#e3f7ff"/><rect x="34.69" width="5.78" height="5.78" fill="#1b0003"/><rect x="28.91" y="104.06" width="5.78" height="5.78" fill="#1b0003"/><rect x="28.91" y="98.28" width="5.78" height="5.78" fill="#1b0003"/><rect x="28.91" y="92.5" width="5.78" height="5.78" fill="#85a1c9"/><rect x="28.91" y="86.72" width="5.78" height="5.78" fill="#85a1c9"/><rect x="28.91" y="80.94" width="5.78" height="5.78" fill="#85a1c9"/><rect x="28.91" y="75.15" width="5.78" height="5.78" fill="#85a1c9"/><rect x="28.91" y="69.37" width="5.78" height="5.78" fill="#85a1c9"/><rect x="28.91" y="63.59" width="5.78" height="5.78" fill="#1b0003"/><rect x="28.91" y="57.81" width="5.78" height="5.78" fill="#223c5b"/><rect x="28.91" y="52.03" width="5.78" height="5.78" fill="#223c5b"/><rect x="28.91" y="46.25" width="5.78" height="5.78" fill="#223c5b"/><rect x="28.91" y="40.47" width="5.78" height="5.78" fill="#1b0003"/><rect x="28.91" y="34.69" width="5.78" height="5.78" fill="#85a1c9"/><rect x="28.91" y="28.91" width="5.78" height="5.78" fill="#bedbed"/><rect x="28.91" y="23.12" width="5.78" height="5.78" fill="#e3f7ff"/><rect x="28.91" y="17.34" width="5.78" height="5.78" fill="#e3f7ff"/><rect x="28.91" y="11.56" width="5.78" height="5.78" fill="#e3f7ff"/><rect x="28.91" y="5.78" width="5.78" height="5.78" fill="#e3f7ff"/><rect x="28.91" width="5.78" height="5.78" fill="#1b0003"/><rect x="23.12" y="104.06" width="5.78" height="5.78" fill="#1b0003"/><rect x="23.12" y="98.28" width="5.78" height="5.78" fill="#85a1c9"/><rect x="23.12" y="92.5" width="5.78" height="5.78" fill="#bedbed"/><rect x="23.12" y="86.72" width="5.78" height="5.78" fill="#85a1c9"/><rect x="23.12" y="80.94" width="5.78" height="5.78" fill="#bedbed"/><rect x="23.12" y="75.15" width="5.78" height="5.78" fill="#85a1c9"/><rect x="23.12" y="69.37" width="5.78" height="5.78" fill="#85a1c9"/><rect x="23.12" y="63.59" width="5.78" height="5.78" fill="#1b0003"/><rect x="23.12" y="57.81" width="5.78" height="5.78" fill="#223c5b"/><rect x="23.12" y="52.03" width="5.78" height="5.78" fill="#223c5b"/><rect x="23.12" y="46.25" width="5.78" height="5.78" fill="#223c5b"/><rect x="23.12" y="40.47" width="5.78" height="5.78" fill="#1b0003"/><rect x="23.12" y="34.69" width="5.78" height="5.78" fill="#85a1c9"/><rect x="23.12" y="28.91" width="5.78" height="5.78" fill="#e3f7ff"/><rect x="23.12" y="23.12" width="5.78" height="5.78" fill="#e3f7ff"/><rect x="23.12" y="17.34" width="5.78" height="5.78" fill="#e3f7ff"/><rect x="23.12" y="11.56" width="5.78" height="5.78" fill="#e3f7ff"/><rect x="23.12" y="5.78" width="5.78" height="5.78" fill="#1b0003"/><rect x="17.34" y="104.06" width="5.78" height="5.78" fill="#1b0003"/><rect x="17.34" y="98.28" width="5.78" height="5.78" fill="#85a1c9"/><rect x="17.34" y="92.5" width="5.78" height="5.78" fill="#85a1c9"/><rect x="17.34" y="86.72" width="5.78" height="5.78" fill="#bedbed"/><rect x="17.34" y="80.94" width="5.78" height="5.78" fill="#85a1c9"/><rect x="17.34" y="75.15" width="5.78" height="5.78" fill="#e3f7ff"/><rect x="17.34" y="69.37" width="5.78" height="5.78" fill="#e3f7ff"/><rect x="17.34" y="63.59" width="5.78" height="5.78" fill="#85a1c9"/><rect x="17.34" y="57.81" width="5.78" height="5.78" fill="#1b0003"/><rect x="17.34" y="52.03" width="5.78" height="5.78" fill="#1b0003"/><rect x="17.34" y="46.25" width="5.78" height="5.78" fill="#1b0003"/><rect x="17.34" y="40.47" width="5.78" height="5.78" fill="#bedbed"/><rect x="17.34" y="34.69" width="5.78" height="5.78" fill="#e3f7ff"/><rect x="17.34" y="28.91" width="5.78" height="5.78" fill="#e3f7ff"/><rect x="17.34" y="23.12" width="5.78" height="5.78" fill="#e3f7ff"/><rect x="17.34" y="17.34" width="5.78" height="5.78" fill="#e3f7ff"/><rect x="17.34" y="11.56" width="5.78" height="5.78" fill="#e3f7ff"/><rect x="17.34" y="5.78" width="5.78" height="5.78" fill="#1b0003"/><rect x="11.56" y="98.28" width="5.78" height="5.78" fill="#1b0003"/><rect x="11.56" y="92.5" width="5.78" height="5.78" fill="#bedbed"/><rect x="11.56" y="86.72" width="5.78" height="5.78" fill="#85a1c9"/><rect x="11.56" y="80.94" width="5.78" height="5.78" fill="#bedbed"/><rect x="11.56" y="75.15" width="5.78" height="5.78" fill="#bedbed"/><rect x="11.56" y="69.37" width="5.78" height="5.78" fill="#e3f7ff"/><rect x="11.56" y="63.59" width="5.78" height="5.78" fill="#e3f7ff"/><rect x="11.56" y="57.81" width="5.78" height="5.78" fill="#e3f7ff"/><rect x="11.56" y="52.03" width="5.78" height="5.78" fill="#e3f7ff"/><rect x="11.56" y="46.25" width="5.78" height="5.78" fill="#e3f7ff"/><rect x="11.56" y="40.47" width="5.78" height="5.78" fill="#e3f7ff"/><rect x="11.56" y="34.69" width="5.78" height="5.78" fill="#e3f7ff"/><rect x="11.56" y="28.91" width="5.78" height="5.78" fill="#e3f7ff"/><rect x="11.56" y="23.12" width="5.78" height="5.78" fill="#e3f7ff"/><rect x="11.56" y="17.34" width="5.78" height="5.78" fill="#e3f7ff"/><rect x="11.56" y="11.56" width="5.78" height="5.78" fill="#1b0003"/><rect x="5.78" y="92.5" width="5.78" height="5.78" fill="#1b0003"/><rect x="5.78" y="86.72" width="5.78" height="5.78" fill="#bedbed"/><rect x="5.78" y="80.94" width="5.78" height="5.78" fill="#bedbed"/><rect x="5.78" y="75.15" width="5.78" height="5.78" fill="#bedbed"/><rect x="5.78" y="69.37" width="5.78" height="5.78" fill="#e3f7ff"/><rect x="5.78" y="63.59" width="5.78" height="5.78" fill="#e3f7ff"/><rect x="5.78" y="57.81" width="5.78" height="5.78" fill="#e3f7ff"/><rect x="5.78" y="52.03" width="5.78" height="5.78" fill="#e3f7ff"/><rect x="5.78" y="46.25" width="5.78" height="5.78" fill="#e3f7ff"/><rect x="5.78" y="40.47" width="5.78" height="5.78" fill="#e3f7ff"/><rect x="5.78" y="34.69" width="5.78" height="5.78" fill="#e3f7ff"/><rect x="5.78" y="28.91" width="5.78" height="5.78" fill="#e3f7ff"/><rect x="5.78" y="23.12" width="5.78" height="5.78" fill="#1b0003"/><rect x="5.78" y="17.34" width="5.78" height="5.78" fill="#1b0003"/><rect y="92.5" width="5.78" height="5.78" fill="#1b0003"/><rect y="86.72" width="5.78" height="5.78" fill="#1b0003"/><rect y="80.94" width="5.78" height="5.78" fill="#1b0003"/><rect y="75.15" width="5.78" height="5.78" fill="#1b0003"/><rect y="69.37" width="5.78" height="5.78" fill="#1b0003"/><rect y="63.59" width="5.78" height="5.78" fill="#1b0003"/><rect y="57.81" width="5.78" height="5.78" fill="#1b0003"/><rect y="52.03" width="5.78" height="5.78" fill="#1b0003"/><rect y="46.25" width="5.78" height="5.78" fill="#1b0003"/><rect y="40.47" width="5.78" height="5.78" fill="#1b0003"/><rect y="34.69" width="5.78" height="5.78" fill="#1b0003"/><rect y="28.91" width="5.78" height="5.78" fill="#1b0003"/></g></g></g></svg>