<svg xmlns="http://www.w3.org/2000/svg" width="75.79" height="135.33" viewBox="0 0 75.79 135.33"><g id="Layer_2" data-name="Layer 2"><g id="items"><g id="Question_Mark" data-name="Question Mark"><rect x="70.37" y="48.72" width="5.41" height="5.41" fill="#1b0003"/><rect x="70.37" y="43.31" width="5.41" height="5.41" fill="#1b0003"/><rect x="70.37" y="37.89" width="5.41" height="5.41" fill="#1b0003"/><rect x="70.37" y="32.48" width="5.41" height="5.41" fill="#1b0003"/><rect x="70.37" y="27.07" width="5.41" height="5.41" fill="#1b0003"/><rect x="70.37" y="21.65" width="5.41" height="5.41" fill="#1b0003"/><rect x="64.96" y="54.13" width="5.41" height="5.41" fill="#1b0003"/><rect x="64.96" y="48.72" width="5.41" height="5.41" fill="#27937b"/><rect x="64.96" y="43.31" width="5.41" height="5.41" fill="#27937b"/><rect x="64.96" y="37.89" width="5.41" height="5.41" fill="#67ce3c"/><rect x="64.96" y="32.48" width="5.41" height="5.41" fill="#67ce3c"/><rect x="64.96" y="27.07" width="5.41" height="5.41" fill="#67ce3c"/><rect x="64.96" y="21.65" width="5.41" height="5.41" fill="#67ce3c"/><rect x="64.96" y="16.24" width="5.41" height="5.41" fill="#1b0003"/><rect x="59.55" y="59.55" width="5.41" height="5.41" fill="#1b0003"/><rect x="59.55" y="54.13" width="5.41" height="5.41" fill="#27937b"/><rect x="59.55" y="48.72" width="5.41" height="5.41" fill="#67ce3c"/><rect x="59.55" y="43.31" width="5.41" height="5.41" fill="#67ce3c"/><rect x="59.55" y="37.89" width="5.41" height="5.41" fill="#67ce3c"/><rect x="59.55" y="32.48" width="5.41" height="5.41" fill="#67ce3c"/><rect x="59.55" y="27.07" width="5.41" height="5.41" fill="#67ce3c"/><rect x="59.55" y="21.65" width="5.41" height="5.41" fill="#67ce3c"/><rect x="59.55" y="16.24" width="5.41" height="5.41" fill="#67ce3c"/><rect x="59.55" y="10.83" width="5.41" height="5.41" fill="#1b0003"/><rect x="54.13" y="64.96" width="5.41" height="5.41" fill="#1b0003"/><rect x="54.13" y="59.55" width="5.41" height="5.41" fill="#27937b"/><rect x="54.13" y="54.13" width="5.41" height="5.41" fill="#67ce3c"/><rect x="54.13" y="48.72" width="5.41" height="5.41" fill="#67ce3c"/><rect x="54.13" y="43.31" width="5.41" height="5.41" fill="#a0e84d"/><rect x="54.13" y="37.89" width="5.41" height="5.41" fill="#a0e84d"/><rect x="54.13" y="32.48" width="5.41" height="5.41" fill="#a0e84d"/><rect x="54.13" y="27.07" width="5.41" height="5.41" fill="#67ce3c"/><rect x="54.13" y="21.65" width="5.41" height="5.41" fill="#67ce3c"/><rect x="54.13" y="16.24" width="5.41" height="5.41" fill="#67ce3c"/><rect x="54.13" y="10.83" width="5.41" height="5.41" fill="#67ce3c"/><rect x="54.13" y="5.41" width="5.41" height="5.41" fill="#1b0003"/><rect x="48.72" y="124.51" width="5.41" height="5.41" fill="#1b0003"/><rect x="48.72" y="119.09" width="5.41" height="5.41" fill="#1b0003"/><rect x="48.72" y="113.68" width="5.41" height="5.41" fill="#1b0003"/><rect x="48.72" y="97.44" width="5.41" height="5.41" fill="#1b0003"/><rect x="48.72" y="92.03" width="5.41" height="5.41" fill="#1b0003"/><rect x="48.72" y="86.61" width="5.41" height="5.41" fill="#1b0003"/><rect x="48.72" y="81.2" width="5.41" height="5.41" fill="#1b0003"/><rect x="48.72" y="75.79" width="5.41" height="5.41" fill="#1b0003"/><rect x="48.72" y="70.37" width="5.41" height="5.41" fill="#1b0003"/><rect x="48.72" y="64.96" width="5.41" height="5.41" fill="#27937b"/><rect x="48.72" y="59.55" width="5.41" height="5.41" fill="#67ce3c"/><rect x="48.72" y="54.13" width="5.41" height="5.41" fill="#a0e84d"/><rect x="48.72" y="48.72" width="5.41" height="5.41" fill="#a0e84d"/><rect x="48.72" y="43.31" width="5.41" height="5.41" fill="#1b0003"/><rect x="48.72" y="37.89" width="5.41" height="5.41" fill="#1b0003"/><rect x="48.72" y="32.48" width="5.41" height="5.41" fill="#1b0003"/><rect x="48.72" y="27.07" width="5.41" height="5.41" fill="#a0e84d"/><rect x="48.72" y="21.65" width="5.41" height="5.41" fill="#67ce3c"/><rect x="48.72" y="16.24" width="5.41" height="5.41" fill="#67ce3c"/><rect x="48.72" y="10.83" width="5.41" height="5.41" fill="#a0e84d"/><rect x="48.72" y="5.41" width="5.41" height="5.41" fill="#a0e84d"/><rect x="48.72" width="5.41" height="5.41" fill="#1b0003"/><rect x="43.31" y="129.92" width="5.41" height="5.41" fill="#1b0003"/><rect x="43.31" y="124.51" width="5.41" height="5.41" fill="#27937b"/><rect x="43.31" y="119.09" width="5.41" height="5.41" fill="#27937b"/><rect x="43.31" y="113.68" width="5.41" height="5.41" fill="#67ce3c"/><rect x="43.31" y="108.26" width="5.41" height="5.41" fill="#1b0003"/><rect x="43.31" y="97.44" width="5.41" height="5.41" fill="#1b0003"/><rect x="43.31" y="92.03" width="5.41" height="5.41" fill="#67ce3c"/><rect x="43.31" y="86.61" width="5.41" height="5.41" fill="#67ce3c"/><rect x="43.31" y="81.2" width="5.41" height="5.41" fill="#67ce3c"/><rect x="43.31" y="75.79" width="5.41" height="5.41" fill="#67ce3c"/><rect x="43.31" y="70.37" width="5.41" height="5.41" fill="#67ce3c"/><rect x="43.31" y="64.96" width="5.41" height="5.41" fill="#67ce3c"/><rect x="43.31" y="59.55" width="5.41" height="5.41" fill="#a0e84d"/><rect x="43.31" y="54.13" width="5.41" height="5.41" fill="#a0e84d"/><rect x="43.31" y="48.72" width="5.41" height="5.41" fill="#1b0003"/><rect x="43.31" y="27.07" width="5.41" height="5.41" fill="#1b0003"/><rect x="43.31" y="21.65" width="5.41" height="5.41" fill="#67ce3c"/><rect x="43.31" y="16.24" width="5.41" height="5.41" fill="#67ce3c"/><rect x="43.31" y="10.83" width="5.41" height="5.41" fill="#a0e84d"/><rect x="43.31" y="5.41" width="5.41" height="5.41" fill="#a0e84d"/><rect x="43.31" width="5.41" height="5.41" fill="#1b0003"/><rect x="37.89" y="129.92" width="5.41" height="5.41" fill="#1b0003"/><rect x="37.89" y="124.51" width="5.41" height="5.41" fill="#27937b"/><rect x="37.89" y="119.09" width="5.41" height="5.41" fill="#67ce3c"/><rect x="37.89" y="113.68" width="5.41" height="5.41" fill="#a0e84d"/><rect x="37.89" y="108.26" width="5.41" height="5.41" fill="#1b0003"/><rect x="37.89" y="97.44" width="5.41" height="5.41" fill="#1b0003"/><rect x="37.89" y="92.03" width="5.41" height="5.41" fill="#a0e84d"/><rect x="37.89" y="86.61" width="5.41" height="5.41" fill="#a0e84d"/><rect x="37.89" y="81.2" width="5.41" height="5.41" fill="#a0e84d"/><rect x="37.89" y="75.79" width="5.41" height="5.41" fill="#a0e84d"/><rect x="37.89" y="70.37" width="5.41" height="5.41" fill="#a0e84d"/><rect x="37.89" y="64.96" width="5.41" height="5.41" fill="#a0e84d"/><rect x="37.89" y="59.55" width="5.41" height="5.41" fill="#a0e84d"/><rect x="37.89" y="54.13" width="5.41" height="5.41" fill="#1b0003"/><rect x="37.89" y="21.65" width="5.41" height="5.41" fill="#1b0003"/><rect x="37.89" y="16.24" width="5.41" height="5.41" fill="#67ce3c"/><rect x="37.89" y="10.83" width="5.41" height="5.41" fill="#a0e84d"/><rect x="37.89" y="5.41" width="5.41" height="5.41" fill="#a0e84d"/><rect x="37.89" width="5.41" height="5.41" fill="#1b0003"/><rect x="32.48" y="129.92" width="5.41" height="5.41" fill="#1b0003"/><rect x="32.48" y="124.51" width="5.41" height="5.41" fill="#67ce3c"/><rect x="32.48" y="119.09" width="5.41" height="5.41" fill="#a0e84d"/><rect x="32.48" y="113.68" width="5.41" height="5.41" fill="#a0e84d"/><rect x="32.48" y="108.26" width="5.41" height="5.41" fill="#1b0003"/><rect x="32.48" y="97.44" width="5.41" height="5.41" fill="#1b0003"/><rect x="32.48" y="92.03" width="5.41" height="5.41" fill="#a0e84d"/><rect x="32.48" y="86.61" width="5.41" height="5.41" fill="#a0e84d"/><rect x="32.48" y="81.2" width="5.41" height="5.41" fill="#a0e84d"/><rect x="32.48" y="75.79" width="5.41" height="5.41" fill="#a0e84d"/><rect x="32.48" y="70.37" width="5.41" height="5.41" fill="#a0e84d"/><rect x="32.48" y="64.96" width="5.41" height="5.41" fill="#a0e84d"/><rect x="32.48" y="59.55" width="5.41" height="5.41" fill="#1b0003"/><rect x="32.48" y="21.65" width="5.41" height="5.41" fill="#1b0003"/><rect x="32.48" y="16.24" width="5.41" height="5.41" fill="#67ce3c"/><rect x="32.48" y="10.83" width="5.41" height="5.41" fill="#a0e84d"/><rect x="32.48" y="5.41" width="5.41" height="5.41" fill="#a0e84d"/><rect x="32.48" width="5.41" height="5.41" fill="#1b0003"/><rect x="27.07" y="124.51" width="5.41" height="5.41" fill="#1b0003"/><rect x="27.07" y="119.09" width="5.41" height="5.41" fill="#1b0003"/><rect x="27.07" y="113.68" width="5.41" height="5.41" fill="#1b0003"/><rect x="27.07" y="97.44" width="5.41" height="5.41" fill="#1b0003"/><rect x="27.07" y="92.03" width="5.41" height="5.41" fill="#1b0003"/><rect x="27.07" y="86.61" width="5.41" height="5.41" fill="#1b0003"/><rect x="27.07" y="81.2" width="5.41" height="5.41" fill="#1b0003"/><rect x="27.07" y="75.79" width="5.41" height="5.41" fill="#1b0003"/><rect x="27.07" y="70.37" width="5.41" height="5.41" fill="#1b0003"/><rect x="27.07" y="64.96" width="5.41" height="5.41" fill="#1b0003"/><rect x="27.07" y="21.65" width="5.41" height="5.41" fill="#1b0003"/><rect x="27.07" y="16.24" width="5.41" height="5.41" fill="#67ce3c"/><rect x="27.07" y="10.83" width="5.41" height="5.41" fill="#a0e84d"/><rect x="27.07" y="5.41" width="5.41" height="5.41" fill="#a0e84d"/><rect x="27.07" width="5.41" height="5.41" fill="#1b0003"/><rect x="21.65" y="27.07" width="5.41" height="5.41" fill="#1b0003"/><rect x="21.65" y="21.65" width="5.41" height="5.41" fill="#67ce3c"/><rect x="21.65" y="16.24" width="5.41" height="5.41" fill="#a0e84d"/><rect x="21.65" y="10.83" width="5.41" height="5.41" fill="#a0e84d"/><rect x="21.65" y="5.41" width="5.41" height="5.41" fill="#ccf45f"/><rect x="21.65" width="5.41" height="5.41" fill="#1b0003"/><rect x="16.24" y="37.89" width="5.41" height="5.41" fill="#1b0003"/><rect x="16.24" y="32.48" width="5.41" height="5.41" fill="#1b0003"/><rect x="16.24" y="27.07" width="5.41" height="5.41" fill="#67ce3c"/><rect x="16.24" y="21.65" width="5.41" height="5.41" fill="#a0e84d"/><rect x="16.24" y="16.24" width="5.41" height="5.41" fill="#a0e84d"/><rect x="16.24" y="10.83" width="5.41" height="5.41" fill="#ccf45f"/><rect x="16.24" y="5.41" width="5.41" height="5.41" fill="#1b0003"/><rect x="10.83" y="37.89" width="5.41" height="5.41" fill="#1b0003"/><rect x="10.83" y="32.48" width="5.41" height="5.41" fill="#67ce3c"/><rect x="10.83" y="27.07" width="5.41" height="5.41" fill="#a0e84d"/><rect x="10.83" y="21.65" width="5.41" height="5.41" fill="#a0e84d"/><rect x="10.83" y="16.24" width="5.41" height="5.41" fill="#ccf45f"/><rect x="10.83" y="10.83" width="5.41" height="5.41" fill="#1b0003"/><rect x="5.41" y="37.89" width="5.41" height="5.41" fill="#1b0003"/><rect x="5.41" y="32.48" width="5.41" height="5.41" fill="#a0e84d"/><rect x="5.41" y="27.07" width="5.41" height="5.41" fill="#a0e84d"/><rect x="5.41" y="21.65" width="5.41" height="5.41" fill="#ccf45f"/><rect x="5.41" y="16.24" width="5.41" height="5.41" fill="#1b0003"/><rect y="37.89" width="5.41" height="5.41" fill="#1b0003"/><rect y="32.48" width="5.41" height="5.41" fill="#1b0003"/><rect y="27.07" width="5.41" height="5.41" fill="#1b0003"/><rect y="21.65" width="5.41" height="5.41" fill="#1b0003"/></g></g></g></svg>