<svg xmlns="http://www.w3.org/2000/svg" width="71.97" height="116.26" viewBox="0 0 71.97 116.26"><g id="Layer_2" data-name="Layer 2"><g id="items"><g id="Ruby"><rect x="66.44" y="94.12" width="5.54" height="5.54" fill="#1b0003"/><rect x="66.44" y="88.58" width="5.54" height="5.54" fill="#1b0003"/><rect x="66.44" y="83.04" width="5.54" height="5.54" fill="#1b0003"/><rect x="66.44" y="77.51" width="5.54" height="5.54" fill="#1b0003"/><rect x="66.44" y="71.97" width="5.54" height="5.54" fill="#1b0003"/><rect x="66.44" y="66.44" width="5.54" height="5.54" fill="#1b0003"/><rect x="66.44" y="60.9" width="5.54" height="5.54" fill="#1b0003"/><rect x="66.44" y="55.36" width="5.54" height="5.54" fill="#1b0003"/><rect x="66.44" y="49.83" width="5.54" height="5.54" fill="#1b0003"/><rect x="66.44" y="44.29" width="5.54" height="5.54" fill="#1b0003"/><rect x="66.44" y="38.75" width="5.54" height="5.54" fill="#1b0003"/><rect x="66.44" y="33.22" width="5.54" height="5.54" fill="#1b0003"/><rect x="66.44" y="27.68" width="5.54" height="5.54" fill="#1b0003"/><rect x="66.44" y="22.15" width="5.54" height="5.54" fill="#1b0003"/><rect x="66.44" y="16.61" width="5.54" height="5.54" fill="#1b0003"/><rect x="60.9" y="99.65" width="5.54" height="5.54" fill="#1b0003"/><rect x="60.9" y="94.12" width="5.54" height="5.54" fill="#ef837b"/><rect x="60.9" y="88.58" width="5.54" height="5.54" fill="#eb3824"/><rect x="60.9" y="83.04" width="5.54" height="5.54" fill="#b51c48"/><rect x="60.9" y="77.51" width="5.54" height="5.54" fill="#b51c48"/><rect x="60.9" y="71.97" width="5.54" height="5.54" fill="#eb3824"/><rect x="60.9" y="66.44" width="5.54" height="5.54" fill="#db1943"/><rect x="60.9" y="60.9" width="5.54" height="5.54" fill="#db1943"/><rect x="60.9" y="55.36" width="5.54" height="5.54" fill="#db1943"/><rect x="60.9" y="49.83" width="5.54" height="5.54" fill="#db1943"/><rect x="60.9" y="44.29" width="5.54" height="5.54" fill="#db1943"/><rect x="60.9" y="38.75" width="5.54" height="5.54" fill="#db1943"/><rect x="60.9" y="33.22" width="5.54" height="5.54" fill="#db1943"/><rect x="60.9" y="27.68" width="5.54" height="5.54" fill="#db1943"/><rect x="60.9" y="22.15" width="5.54" height="5.54" fill="#db1943"/><rect x="60.9" y="16.61" width="5.54" height="5.54" fill="#b51c48"/><rect x="60.9" y="11.07" width="5.54" height="5.54" fill="#1b0003"/><rect x="55.36" y="105.19" width="5.54" height="5.54" fill="#1b0003"/><rect x="55.36" y="99.65" width="5.54" height="5.54" fill="#ef837b"/><rect x="55.36" y="94.12" width="5.54" height="5.54" fill="#b51c48"/><rect x="55.36" y="88.58" width="5.54" height="5.54" fill="#db1943"/><rect x="55.36" y="83.04" width="5.54" height="5.54" fill="#db1943"/><rect x="55.36" y="77.51" width="5.54" height="5.54" fill="#b51c48"/><rect x="55.36" y="71.97" width="5.54" height="5.54" fill="#b51c48"/><rect x="55.36" y="66.44" width="5.54" height="5.54" fill="#b51c48"/><rect x="55.36" y="60.9" width="5.54" height="5.54" fill="#b51c48"/><rect x="55.36" y="55.36" width="5.54" height="5.54" fill="#b51c48"/><rect x="55.36" y="49.83" width="5.54" height="5.54" fill="#b51c48"/><rect x="55.36" y="44.29" width="5.54" height="5.54" fill="#b51c48"/><rect x="55.36" y="38.75" width="5.54" height="5.54" fill="#b51c48"/><rect x="55.36" y="33.22" width="5.54" height="5.54" fill="#b51c48"/><rect x="55.36" y="27.68" width="5.54" height="5.54" fill="#a00721"/><rect x="55.36" y="22.15" width="5.54" height="5.54" fill="#a00721"/><rect x="55.36" y="16.61" width="5.54" height="5.54" fill="#a00721"/><rect x="55.36" y="11.07" width="5.54" height="5.54" fill="#b51c48"/><rect x="55.36" y="5.54" width="5.54" height="5.54" fill="#1b0003"/><rect x="49.83" y="110.73" width="5.54" height="5.54" fill="#1b0003"/><rect x="49.83" y="105.19" width="5.54" height="5.54" fill="#ef837b"/><rect x="49.83" y="99.65" width="5.54" height="5.54" fill="#b51c48"/><rect x="49.83" y="94.12" width="5.54" height="5.54" fill="#b51c48"/><rect x="49.83" y="88.58" width="5.54" height="5.54" fill="#db1943"/><rect x="49.83" y="83.04" width="5.54" height="5.54" fill="#eb3824"/><rect x="49.83" y="77.51" width="5.54" height="5.54" fill="#db1943"/><rect x="49.83" y="71.97" width="5.54" height="5.54" fill="#eb3824"/><rect x="49.83" y="66.44" width="5.54" height="5.54" fill="#db1943"/><rect x="49.83" y="60.9" width="5.54" height="5.54" fill="#eb3824"/><rect x="49.83" y="55.36" width="5.54" height="5.54" fill="#eb3824"/><rect x="49.83" y="49.83" width="5.54" height="5.54" fill="#eb3824"/><rect x="49.83" y="44.29" width="5.54" height="5.54" fill="#eb3824"/><rect x="49.83" y="38.75" width="5.54" height="5.54" fill="#eb3824"/><rect x="49.83" y="33.22" width="5.54" height="5.54" fill="#eb3824"/><rect x="49.83" y="27.68" width="5.54" height="5.54" fill="#eb3824"/><rect x="49.83" y="22.15" width="5.54" height="5.54" fill="#eb3824"/><rect x="49.83" y="16.61" width="5.54" height="5.54" fill="#a00721"/><rect x="49.83" y="11.07" width="5.54" height="5.54" fill="#b51c48"/><rect x="49.83" y="5.54" width="5.54" height="5.54" fill="#b51c48"/><rect x="49.83" width="5.54" height="5.54" fill="#1b0003"/><rect x="44.29" y="110.73" width="5.54" height="5.54" fill="#1b0003"/><rect x="44.29" y="105.19" width="5.54" height="5.54" fill="#eb3824"/><rect x="44.29" y="99.65" width="5.54" height="5.54" fill="#b51c48"/><rect x="44.29" y="94.12" width="5.54" height="5.54" fill="#db1943"/><rect x="44.29" y="88.58" width="5.54" height="5.54" fill="#eb3824"/><rect x="44.29" y="83.04" width="5.54" height="5.54" fill="#db1943"/><rect x="44.29" y="77.51" width="5.54" height="5.54" fill="#eb3824"/><rect x="44.29" y="71.97" width="5.54" height="5.54" fill="#db1943"/><rect x="44.29" y="66.44" width="5.54" height="5.54" fill="#eb3824"/><rect x="44.29" y="60.9" width="5.54" height="5.54" fill="#eb3824"/><rect x="44.29" y="55.36" width="5.54" height="5.54" fill="#eb3824"/><rect x="44.29" y="49.83" width="5.54" height="5.54" fill="#eb3824"/><rect x="44.29" y="44.29" width="5.54" height="5.54" fill="#eb3824"/><rect x="44.29" y="38.75" width="5.54" height="5.54" fill="#eb3824"/><rect x="44.29" y="33.22" width="5.54" height="5.54" fill="#eb3824"/><rect x="44.29" y="27.68" width="5.54" height="5.54" fill="#eb3824"/><rect x="44.29" y="22.15" width="5.54" height="5.54" fill="#ef837b"/><rect x="44.29" y="16.61" width="5.54" height="5.54" fill="#eb3824"/><rect x="44.29" y="11.07" width="5.54" height="5.54" fill="#b51c48"/><rect x="44.29" y="5.54" width="5.54" height="5.54" fill="#db1943"/><rect x="44.29" width="5.54" height="5.54" fill="#1b0003"/><rect x="38.75" y="110.73" width="5.54" height="5.54" fill="#1b0003"/><rect x="38.75" y="105.19" width="5.54" height="5.54" fill="#eb3824"/><rect x="38.75" y="99.65" width="5.54" height="5.54" fill="#b51c48"/><rect x="38.75" y="94.12" width="5.54" height="5.54" fill="#eb3824"/><rect x="38.75" y="88.58" width="5.54" height="5.54" fill="#db1943"/><rect x="38.75" y="83.04" width="5.54" height="5.54" fill="#eb3824"/><rect x="38.75" y="77.51" width="5.54" height="5.54" fill="#db1943"/><rect x="38.75" y="71.97" width="5.54" height="5.54" fill="#eb3824"/><rect x="38.75" y="66.44" width="5.54" height="5.54" fill="#eb3824"/><rect x="38.75" y="60.9" width="5.54" height="5.54" fill="#eb3824"/><rect x="38.75" y="55.36" width="5.54" height="5.54" fill="#eb3824"/><rect x="38.75" y="49.83" width="5.54" height="5.54" fill="#eb3824"/><rect x="38.75" y="44.29" width="5.54" height="5.54" fill="#eb3824"/><rect x="38.75" y="38.75" width="5.54" height="5.54" fill="#eb3824"/><rect x="38.75" y="33.22" width="5.54" height="5.54" fill="#eb3824"/><rect x="38.75" y="27.68" width="5.54" height="5.54" fill="#ef837b"/><rect x="38.75" y="22.15" width="5.54" height="5.54" fill="#ffebeb"/><rect x="38.75" y="16.61" width="5.54" height="5.54" fill="#eb3824"/><rect x="38.75" y="11.07" width="5.54" height="5.54" fill="#b51c48"/><rect x="38.75" y="5.54" width="5.54" height="5.54" fill="#db1943"/><rect x="38.75" width="5.54" height="5.54" fill="#1b0003"/><rect x="33.22" y="110.73" width="5.54" height="5.54" fill="#1b0003"/><rect x="33.22" y="105.19" width="5.54" height="5.54" fill="#db1943"/><rect x="33.22" y="99.65" width="5.54" height="5.54" fill="#b51c48"/><rect x="33.22" y="94.12" width="5.54" height="5.54" fill="#db1943"/><rect x="33.22" y="88.58" width="5.54" height="5.54" fill="#eb3824"/><rect x="33.22" y="83.04" width="5.54" height="5.54" fill="#db1943"/><rect x="33.22" y="77.51" width="5.54" height="5.54" fill="#eb3824"/><rect x="33.22" y="71.97" width="5.54" height="5.54" fill="#eb3824"/><rect x="33.22" y="66.44" width="5.54" height="5.54" fill="#eb3824"/><rect x="33.22" y="60.9" width="5.54" height="5.54" fill="#eb3824"/><rect x="33.22" y="55.36" width="5.54" height="5.54" fill="#eb3824"/><rect x="33.22" y="49.83" width="5.54" height="5.54" fill="#eb3824"/><rect x="33.22" y="44.29" width="5.54" height="5.54" fill="#f4b9b8"/><rect x="33.22" y="38.75" width="5.54" height="5.54" fill="#eb3824"/><rect x="33.22" y="33.22" width="5.54" height="5.54" fill="#ef837b"/><rect x="33.22" y="27.68" width="5.54" height="5.54" fill="#f4b9b8"/><rect x="33.22" y="22.15" width="5.54" height="5.54" fill="#ffebeb"/><rect x="33.22" y="16.61" width="5.54" height="5.54" fill="#eb3824"/><rect x="33.22" y="11.07" width="5.54" height="5.54" fill="#b51c48"/><rect x="33.22" y="5.54" width="5.54" height="5.54" fill="#ef837b"/><rect x="33.22" width="5.54" height="5.54" fill="#1b0003"/><rect x="27.68" y="110.73" width="5.54" height="5.54" fill="#1b0003"/><rect x="27.68" y="105.19" width="5.54" height="5.54" fill="#db1943"/><rect x="27.68" y="99.65" width="5.54" height="5.54" fill="#b51c48"/><rect x="27.68" y="94.12" width="5.54" height="5.54" fill="#eb3824"/><rect x="27.68" y="88.58" width="5.54" height="5.54" fill="#db1943"/><rect x="27.68" y="83.04" width="5.54" height="5.54" fill="#eb3824"/><rect x="27.68" y="77.51" width="5.54" height="5.54" fill="#eb3824"/><rect x="27.68" y="71.97" width="5.54" height="5.54" fill="#eb3824"/><rect x="27.68" y="66.44" width="5.54" height="5.54" fill="#eb3824"/><rect x="27.68" y="60.9" width="5.54" height="5.54" fill="#eb3824"/><rect x="27.68" y="55.36" width="5.54" height="5.54" fill="#eb3824"/><rect x="27.68" y="49.83" width="5.54" height="5.54" fill="#eb3824"/><rect x="27.68" y="44.29" width="5.54" height="5.54" fill="#eb3824"/><rect x="27.68" y="38.75" width="5.54" height="5.54" fill="#f4b9b8"/><rect x="27.68" y="33.22" width="5.54" height="5.54" fill="#f4b9b8"/><rect x="27.68" y="27.68" width="5.54" height="5.54" fill="#f4b9b8"/><rect x="27.68" y="22.15" width="5.54" height="5.54" fill="#ffebeb"/><rect x="27.68" y="16.61" width="5.54" height="5.54" fill="#eb3824"/><rect x="27.68" y="11.07" width="5.54" height="5.54" fill="#b51c48"/><rect x="27.68" y="5.54" width="5.54" height="5.54" fill="#ef837b"/><rect x="27.68" width="5.54" height="5.54" fill="#1b0003"/><rect x="22.15" y="110.73" width="5.54" height="5.54" fill="#1b0003"/><rect x="22.15" y="105.19" width="5.54" height="5.54" fill="#db1943"/><rect x="22.15" y="99.65" width="5.54" height="5.54" fill="#b51c48"/><rect x="22.15" y="94.12" width="5.54" height="5.54" fill="#db1943"/><rect x="22.15" y="88.58" width="5.54" height="5.54" fill="#eb3824"/><rect x="22.15" y="83.04" width="5.54" height="5.54" fill="#eb3824"/><rect x="22.15" y="77.51" width="5.54" height="5.54" fill="#ef837b"/><rect x="22.15" y="71.97" width="5.54" height="5.54" fill="#ef837b"/><rect x="22.15" y="66.44" width="5.54" height="5.54" fill="#ef837b"/><rect x="22.15" y="60.9" width="5.54" height="5.54" fill="#ef837b"/><rect x="22.15" y="55.36" width="5.54" height="5.54" fill="#ef837b"/><rect x="22.15" y="49.83" width="5.54" height="5.54" fill="#f4b9b8"/><rect x="22.15" y="44.29" width="5.54" height="5.54" fill="#f4b9b8"/><rect x="22.15" y="38.75" width="5.54" height="5.54" fill="#f4b9b8"/><rect x="22.15" y="33.22" width="5.54" height="5.54" fill="#ffebeb"/><rect x="22.15" y="27.68" width="5.54" height="5.54" fill="#ffebeb"/><rect x="22.15" y="22.15" width="5.54" height="5.54" fill="#eb3824"/><rect x="22.15" y="16.61" width="5.54" height="5.54" fill="#eb3824"/><rect x="22.15" y="11.07" width="5.54" height="5.54" fill="#f4b9b8"/><rect x="22.15" y="5.54" width="5.54" height="5.54" fill="#ef837b"/><rect x="22.15" width="5.54" height="5.54" fill="#1b0003"/><rect x="16.61" y="110.73" width="5.54" height="5.54" fill="#1b0003"/><rect x="16.61" y="105.19" width="5.54" height="5.54" fill="#b51c48"/><rect x="16.61" y="99.65" width="5.54" height="5.54" fill="#b51c48"/><rect x="16.61" y="94.12" width="5.54" height="5.54" fill="#a00721"/><rect x="16.61" y="88.58" width="5.54" height="5.54" fill="#eb3824"/><rect x="16.61" y="83.04" width="5.54" height="5.54" fill="#eb3824"/><rect x="16.61" y="77.51" width="5.54" height="5.54" fill="#eb3824"/><rect x="16.61" y="71.97" width="5.54" height="5.54" fill="#eb3824"/><rect x="16.61" y="66.44" width="5.54" height="5.54" fill="#eb3824"/><rect x="16.61" y="60.9" width="5.54" height="5.54" fill="#eb3824"/><rect x="16.61" y="55.36" width="5.54" height="5.54" fill="#eb3824"/><rect x="16.61" y="49.83" width="5.54" height="5.54" fill="#eb3824"/><rect x="16.61" y="44.29" width="5.54" height="5.54" fill="#eb3824"/><rect x="16.61" y="38.75" width="5.54" height="5.54" fill="#eb3824"/><rect x="16.61" y="33.22" width="5.54" height="5.54" fill="#eb3824"/><rect x="16.61" y="27.68" width="5.54" height="5.54" fill="#eb3824"/><rect x="16.61" y="22.15" width="5.54" height="5.54" fill="#eb3824"/><rect x="16.61" y="16.61" width="5.54" height="5.54" fill="#f4b9b8"/><rect x="16.61" y="11.07" width="5.54" height="5.54" fill="#ffebeb"/><rect x="16.61" y="5.54" width="5.54" height="5.54" fill="#db1943"/><rect x="16.61" width="5.54" height="5.54" fill="#1b0003"/><rect x="11.07" y="105.19" width="5.54" height="5.54" fill="#1b0003"/><rect x="11.07" y="99.65" width="5.54" height="5.54" fill="#b51c48"/><rect x="11.07" y="94.12" width="5.54" height="5.54" fill="#b51c48"/><rect x="11.07" y="88.58" width="5.54" height="5.54" fill="#a00721"/><rect x="11.07" y="83.04" width="5.54" height="5.54" fill="#a00721"/><rect x="11.07" y="77.51" width="5.54" height="5.54" fill="#a00721"/><rect x="11.07" y="71.97" width="5.54" height="5.54" fill="#b51c48"/><rect x="11.07" y="66.44" width="5.54" height="5.54" fill="#b51c48"/><rect x="11.07" y="60.9" width="5.54" height="5.54" fill="#b51c48"/><rect x="11.07" y="55.36" width="5.54" height="5.54" fill="#b51c48"/><rect x="11.07" y="49.83" width="5.54" height="5.54" fill="#b51c48"/><rect x="11.07" y="44.29" width="5.54" height="5.54" fill="#b51c48"/><rect x="11.07" y="38.75" width="5.54" height="5.54" fill="#b51c48"/><rect x="11.07" y="33.22" width="5.54" height="5.54" fill="#b51c48"/><rect x="11.07" y="27.68" width="5.54" height="5.54" fill="#f4b9b8"/><rect x="11.07" y="22.15" width="5.54" height="5.54" fill="#f4b9b8"/><rect x="11.07" y="16.61" width="5.54" height="5.54" fill="#ffebeb"/><rect x="11.07" y="11.07" width="5.54" height="5.54" fill="#db1943"/><rect x="11.07" y="5.54" width="5.54" height="5.54" fill="#1b0003"/><rect x="5.54" y="99.65" width="5.54" height="5.54" fill="#1b0003"/><rect x="5.54" y="94.12" width="5.54" height="5.54" fill="#db1943"/><rect x="5.54" y="88.58" width="5.54" height="5.54" fill="#db1943"/><rect x="5.54" y="83.04" width="5.54" height="5.54" fill="#eb3824"/><rect x="5.54" y="77.51" width="5.54" height="5.54" fill="#eb3824"/><rect x="5.54" y="71.97" width="5.54" height="5.54" fill="#eb3824"/><rect x="5.54" y="66.44" width="5.54" height="5.54" fill="#db1943"/><rect x="5.54" y="60.9" width="5.54" height="5.54" fill="#db1943"/><rect x="5.54" y="55.36" width="5.54" height="5.54" fill="#ef837b"/><rect x="5.54" y="49.83" width="5.54" height="5.54" fill="#ef837b"/><rect x="5.54" y="44.29" width="5.54" height="5.54" fill="#ef837b"/><rect x="5.54" y="38.75" width="5.54" height="5.54" fill="#ef837b"/><rect x="5.54" y="33.22" width="5.54" height="5.54" fill="#f4b9b8"/><rect x="5.54" y="27.68" width="5.54" height="5.54" fill="#ffebeb"/><rect x="5.54" y="22.15" width="5.54" height="5.54" fill="#ffebeb"/><rect x="5.54" y="16.61" width="5.54" height="5.54" fill="#db1943"/><rect x="5.54" y="11.07" width="5.54" height="5.54" fill="#1b0003"/><rect y="94.12" width="5.54" height="5.54" fill="#1b0003"/><rect y="88.58" width="5.54" height="5.54" fill="#1b0003"/><rect y="83.04" width="5.54" height="5.54" fill="#1b0003"/><rect y="77.51" width="5.54" height="5.54" fill="#1b0003"/><rect y="71.97" width="5.54" height="5.54" fill="#1b0003"/><rect y="66.44" width="5.54" height="5.54" fill="#1b0003"/><rect y="60.9" width="5.54" height="5.54" fill="#1b0003"/><rect y="55.36" width="5.54" height="5.54" fill="#1b0003"/><rect y="49.83" width="5.54" height="5.54" fill="#1b0003"/><rect y="44.29" width="5.54" height="5.54" fill="#1b0003"/><rect y="38.75" width="5.54" height="5.54" fill="#1b0003"/><rect y="33.22" width="5.54" height="5.54" fill="#1b0003"/><rect y="27.68" width="5.54" height="5.54" fill="#1b0003"/><rect y="22.15" width="5.54" height="5.54" fill="#1b0003"/><rect y="16.61" width="5.54" height="5.54" fill="#1b0003"/></g></g></g></svg>