<svg xmlns="http://www.w3.org/2000/svg" width="120.56" height="157.25" viewBox="0 0 120.56 157.25"><g id="Layer_2" data-name="Layer 2"><g id="items"><g id="Sack"><rect x="115.32" y="31.45" width="5.24" height="5.24" fill="#1b0003"/><rect x="115.32" y="26.21" width="5.24" height="5.24" fill="#1b0003"/><rect x="110.08" y="36.69" width="5.24" height="5.24" fill="#1b0003"/><rect x="110.08" y="31.45" width="5.24" height="5.24" fill="#e86f3f"/><rect x="110.08" y="26.21" width="5.24" height="5.24" fill="#a84a24"/><rect x="110.08" y="20.97" width="5.24" height="5.24" fill="#1b0003"/><rect x="104.84" y="136.29" width="5.24" height="5.24" fill="#1b0003"/><rect x="104.84" y="131.05" width="5.24" height="5.24" fill="#1b0003"/><rect x="104.84" y="125.8" width="5.24" height="5.24" fill="#1b0003"/><rect x="104.84" y="120.56" width="5.24" height="5.24" fill="#1b0003"/><rect x="104.84" y="115.32" width="5.24" height="5.24" fill="#1b0003"/><rect x="104.84" y="110.08" width="5.24" height="5.24" fill="#1b0003"/><rect x="104.84" y="104.84" width="5.24" height="5.24" fill="#1b0003"/><rect x="104.84" y="99.59" width="5.24" height="5.24" fill="#1b0003"/><rect x="104.84" y="62.9" width="5.24" height="5.24" fill="#1b0003"/><rect x="104.84" y="36.69" width="5.24" height="5.24" fill="#1b0003"/><rect x="104.84" y="31.45" width="5.24" height="5.24" fill="#a84a24"/><rect x="104.84" y="26.21" width="5.24" height="5.24" fill="#a84a24"/><rect x="104.84" y="20.97" width="5.24" height="5.24" fill="#1b0003"/><rect x="99.59" y="141.53" width="5.24" height="5.24" fill="#1b0003"/><rect x="99.59" y="136.29" width="5.24" height="5.24" fill="#e86f3f"/><rect x="99.59" y="131.05" width="5.24" height="5.24" fill="#a84a24"/><rect x="99.59" y="125.8" width="5.24" height="5.24" fill="#e86f3f"/><rect x="99.59" y="120.56" width="5.24" height="5.24" fill="#e86f3f"/><rect x="99.59" y="115.32" width="5.24" height="5.24" fill="#e86f3f"/><rect x="99.59" y="110.08" width="5.24" height="5.24" fill="#e86f3f"/><rect x="99.59" y="104.84" width="5.24" height="5.24" fill="#e86f3f"/><rect x="99.59" y="99.59" width="5.24" height="5.24" fill="#e86f3f"/><rect x="99.59" y="94.35" width="5.24" height="5.24" fill="#1b0003"/><rect x="99.59" y="89.11" width="5.24" height="5.24" fill="#1b0003"/><rect x="99.59" y="68.14" width="5.24" height="5.24" fill="#1b0003"/><rect x="99.59" y="62.9" width="5.24" height="5.24" fill="#eb3824"/><rect x="99.59" y="57.66" width="5.24" height="5.24" fill="#1b0003"/><rect x="99.59" y="41.93" width="5.24" height="5.24" fill="#1b0003"/><rect x="99.59" y="36.69" width="5.24" height="5.24" fill="#e86f3f"/><rect x="99.59" y="31.45" width="5.24" height="5.24" fill="#a84a24"/><rect x="99.59" y="26.21" width="5.24" height="5.24" fill="#e86f3f"/><rect x="99.59" y="20.97" width="5.24" height="5.24" fill="#e86f3f"/><rect x="99.59" y="15.73" width="5.24" height="5.24" fill="#1b0003"/><rect x="94.35" y="146.77" width="5.24" height="5.24" fill="#1b0003"/><rect x="94.35" y="141.53" width="5.24" height="5.24" fill="#e86f3f"/><rect x="94.35" y="136.29" width="5.24" height="5.24" fill="#a84a24"/><rect x="94.35" y="131.05" width="5.24" height="5.24" fill="#e86f3f"/><rect x="94.35" y="125.8" width="5.24" height="5.24" fill="#a84a24"/><rect x="94.35" y="120.56" width="5.24" height="5.24" fill="#a84a24"/><rect x="94.35" y="115.32" width="5.24" height="5.24" fill="#a84a24"/><rect x="94.35" y="110.08" width="5.24" height="5.24" fill="#a84a24"/><rect x="94.35" y="104.84" width="5.24" height="5.24" fill="#a84a24"/><rect x="94.35" y="99.59" width="5.24" height="5.24" fill="#a84a24"/><rect x="94.35" y="94.35" width="5.24" height="5.24" fill="#e86f3f"/><rect x="94.35" y="89.11" width="5.24" height="5.24" fill="#e86f3f"/><rect x="94.35" y="83.87" width="5.24" height="5.24" fill="#1b0003"/><rect x="94.35" y="62.9" width="5.24" height="5.24" fill="#1b0003"/><rect x="94.35" y="57.66" width="5.24" height="5.24" fill="#b6294c"/><rect x="94.35" y="52.42" width="5.24" height="5.24" fill="#1b0003"/><rect x="94.35" y="41.93" width="5.24" height="5.24" fill="#1b0003"/><rect x="94.35" y="36.69" width="5.24" height="5.24" fill="#a84a24"/><rect x="94.35" y="31.45" width="5.24" height="5.24" fill="#a84a24"/><rect x="94.35" y="26.21" width="5.24" height="5.24" fill="#e86f3f"/><rect x="94.35" y="20.97" width="5.24" height="5.24" fill="#e86f3f"/><rect x="94.35" y="15.73" width="5.24" height="5.24" fill="#e86f3f"/><rect x="94.35" y="10.48" width="5.24" height="5.24" fill="#1b0003"/><rect x="89.11" y="152.01" width="5.24" height="5.24" fill="#1b0003"/><rect x="89.11" y="146.77" width="5.24" height="5.24" fill="#e86f3f"/><rect x="89.11" y="141.53" width="5.24" height="5.24" fill="#a84a24"/><rect x="89.11" y="136.29" width="5.24" height="5.24" fill="#e86f3f"/><rect x="89.11" y="131.05" width="5.24" height="5.24" fill="#a84a24"/><rect x="89.11" y="125.8" width="5.24" height="5.24" fill="#a84a24"/><rect x="89.11" y="120.56" width="5.24" height="5.24" fill="#a84a24"/><rect x="89.11" y="115.32" width="5.24" height="5.24" fill="#a84a24"/><rect x="89.11" y="110.08" width="5.24" height="5.24" fill="#a84a24"/><rect x="89.11" y="104.84" width="5.24" height="5.24" fill="#a84a24"/><rect x="89.11" y="99.59" width="5.24" height="5.24" fill="#a84a24"/><rect x="89.11" y="94.35" width="5.24" height="5.24" fill="#a84a24"/><rect x="89.11" y="89.11" width="5.24" height="5.24" fill="#a84a24"/><rect x="89.11" y="83.87" width="5.24" height="5.24" fill="#a84a24"/><rect x="89.11" y="78.63" width="5.24" height="5.24" fill="#1b0003"/><rect x="89.11" y="73.39" width="5.24" height="5.24" fill="#1b0003"/><rect x="89.11" y="57.66" width="5.24" height="5.24" fill="#1b0003"/><rect x="89.11" y="52.42" width="5.24" height="5.24" fill="#b6294c"/><rect x="89.11" y="47.18" width="5.24" height="5.24" fill="#1b0003"/><rect x="89.11" y="41.93" width="5.24" height="5.24" fill="#1b0003"/><rect x="89.11" y="36.69" width="5.24" height="5.24" fill="#a84a24"/><rect x="89.11" y="31.45" width="5.24" height="5.24" fill="#e86f3f"/><rect x="89.11" y="26.21" width="5.24" height="5.24" fill="#e86f3f"/><rect x="89.11" y="20.97" width="5.24" height="5.24" fill="#e86f3f"/><rect x="89.11" y="15.73" width="5.24" height="5.24" fill="#fa9c5c"/><rect x="89.11" y="10.48" width="5.24" height="5.24" fill="#1b0003"/><rect x="83.87" y="152.01" width="5.24" height="5.24" fill="#1b0003"/><rect x="83.87" y="146.77" width="5.24" height="5.24" fill="#a84a24"/><rect x="83.87" y="141.53" width="5.24" height="5.24" fill="#e86f3f"/><rect x="83.87" y="136.29" width="5.24" height="5.24" fill="#a84a24"/><rect x="83.87" y="131.05" width="5.24" height="5.24" fill="#a84a24"/><rect x="83.87" y="125.8" width="5.24" height="5.24" fill="#a84a24"/><rect x="83.87" y="120.56" width="5.24" height="5.24" fill="#a84a24"/><rect x="83.87" y="115.32" width="5.24" height="5.24" fill="#a84a24"/><rect x="83.87" y="110.08" width="5.24" height="5.24" fill="#a84a24"/><rect x="83.87" y="104.84" width="5.24" height="5.24" fill="#a84a24"/><rect x="83.87" y="99.59" width="5.24" height="5.24" fill="#a84a24"/><rect x="83.87" y="94.35" width="5.24" height="5.24" fill="#a84a24"/><rect x="83.87" y="89.11" width="5.24" height="5.24" fill="#a84a24"/><rect x="83.87" y="83.87" width="5.24" height="5.24" fill="#a84a24"/><rect x="83.87" y="78.63" width="5.24" height="5.24" fill="#a84a24"/><rect x="83.87" y="73.39" width="5.24" height="5.24" fill="#a84a24"/><rect x="83.87" y="68.14" width="5.24" height="5.24" fill="#1b0003"/><rect x="83.87" y="62.9" width="5.24" height="5.24" fill="#1b0003"/><rect x="83.87" y="57.66" width="5.24" height="5.24" fill="#1b0003"/><rect x="83.87" y="52.42" width="5.24" height="5.24" fill="#1b0003"/><rect x="83.87" y="47.18" width="5.24" height="5.24" fill="#1b0003"/><rect x="83.87" y="41.93" width="5.24" height="5.24" fill="#1b0003"/><rect x="83.87" y="36.69" width="5.24" height="5.24" fill="#a84a24"/><rect x="83.87" y="31.45" width="5.24" height="5.24" fill="#e86f3f"/><rect x="83.87" y="26.21" width="5.24" height="5.24" fill="#e86f3f"/><rect x="83.87" y="20.97" width="5.24" height="5.24" fill="#fa9c5c"/><rect x="83.87" y="15.73" width="5.24" height="5.24" fill="#fa9c5c"/><rect x="83.87" y="10.48" width="5.24" height="5.24" fill="#fa9c5c"/><rect x="83.87" y="5.24" width="5.24" height="5.24" fill="#1b0003"/><rect x="78.63" y="152.01" width="5.24" height="5.24" fill="#1b0003"/><rect x="78.63" y="146.77" width="5.24" height="5.24" fill="#a84a24"/><rect x="78.63" y="141.53" width="5.24" height="5.24" fill="#a84a24"/><rect x="78.63" y="136.29" width="5.24" height="5.24" fill="#a84a24"/><rect x="78.63" y="131.05" width="5.24" height="5.24" fill="#a84a24"/><rect x="78.63" y="125.8" width="5.24" height="5.24" fill="#a84a24"/><rect x="78.63" y="120.56" width="5.24" height="5.24" fill="#a84a24"/><rect x="78.63" y="115.32" width="5.24" height="5.24" fill="#e86f3f"/><rect x="78.63" y="110.08" width="5.24" height="5.24" fill="#a84a24"/><rect x="78.63" y="104.84" width="5.24" height="5.24" fill="#a84a24"/><rect x="78.63" y="99.59" width="5.24" height="5.24" fill="#a84a24"/><rect x="78.63" y="94.35" width="5.24" height="5.24" fill="#a84a24"/><rect x="78.63" y="89.11" width="5.24" height="5.24" fill="#a84a24"/><rect x="78.63" y="83.87" width="5.24" height="5.24" fill="#a84a24"/><rect x="78.63" y="78.63" width="5.24" height="5.24" fill="#a84a24"/><rect x="78.63" y="73.39" width="5.24" height="5.24" fill="#a84a24"/><rect x="78.63" y="68.14" width="5.24" height="5.24" fill="#a84a24"/><rect x="78.63" y="62.9" width="5.24" height="5.24" fill="#a84a24"/><rect x="78.63" y="57.66" width="5.24" height="5.24" fill="#a84a24"/><rect x="78.63" y="52.42" width="5.24" height="5.24" fill="#1b0003"/><rect x="78.63" y="47.18" width="5.24" height="5.24" fill="#b6294c"/><rect x="78.63" y="41.93" width="5.24" height="5.24" fill="#1b0003"/><rect x="78.63" y="36.69" width="5.24" height="5.24" fill="#a84a24"/><rect x="78.63" y="31.45" width="5.24" height="5.24" fill="#e86f3f"/><rect x="78.63" y="26.21" width="5.24" height="5.24" fill="#e86f3f"/><rect x="78.63" y="20.97" width="5.24" height="5.24" fill="#fa9c5c"/><rect x="78.63" y="15.73" width="5.24" height="5.24" fill="#fa9c5c"/><rect x="78.63" y="10.48" width="5.24" height="5.24" fill="#fa9c5c"/><rect x="78.63" y="5.24" width="5.24" height="5.24" fill="#1b0003"/><rect x="73.39" y="152.01" width="5.24" height="5.24" fill="#1b0003"/><rect x="73.39" y="146.77" width="5.24" height="5.24" fill="#a84a24"/><rect x="73.39" y="141.53" width="5.24" height="5.24" fill="#a84a24"/><rect x="73.39" y="136.29" width="5.24" height="5.24" fill="#a84a24"/><rect x="73.39" y="131.05" width="5.24" height="5.24" fill="#a84a24"/><rect x="73.39" y="125.8" width="5.24" height="5.24" fill="#a84a24"/><rect x="73.39" y="120.56" width="5.24" height="5.24" fill="#e86f3f"/><rect x="73.39" y="115.32" width="5.24" height="5.24" fill="#a84a24"/><rect x="73.39" y="110.08" width="5.24" height="5.24" fill="#e86f3f"/><rect x="73.39" y="104.84" width="5.24" height="5.24" fill="#e86f3f"/><rect x="73.39" y="99.59" width="5.24" height="5.24" fill="#e86f3f"/><rect x="73.39" y="94.35" width="5.24" height="5.24" fill="#e86f3f"/><rect x="73.39" y="89.11" width="5.24" height="5.24" fill="#e86f3f"/><rect x="73.39" y="83.87" width="5.24" height="5.24" fill="#a84a24"/><rect x="73.39" y="78.63" width="5.24" height="5.24" fill="#a84a24"/><rect x="73.39" y="73.39" width="5.24" height="5.24" fill="#a84a24"/><rect x="73.39" y="68.14" width="5.24" height="5.24" fill="#a84a24"/><rect x="73.39" y="62.9" width="5.24" height="5.24" fill="#a84a24"/><rect x="73.39" y="57.66" width="5.24" height="5.24" fill="#e86f3f"/><rect x="73.39" y="52.42" width="5.24" height="5.24" fill="#1b0003"/><rect x="73.39" y="47.18" width="5.24" height="5.24" fill="#b6294c"/><rect x="73.39" y="41.93" width="5.24" height="5.24" fill="#1b0003"/><rect x="73.39" y="36.69" width="5.24" height="5.24" fill="#1b0003"/><rect x="73.39" y="31.45" width="5.24" height="5.24" fill="#e86f3f"/><rect x="73.39" y="26.21" width="5.24" height="5.24" fill="#fa9c5c"/><rect x="73.39" y="20.97" width="5.24" height="5.24" fill="#fa9c5c"/><rect x="73.39" y="15.73" width="5.24" height="5.24" fill="#fa9c5c"/><rect x="73.39" y="10.48" width="5.24" height="5.24" fill="#fa9c5c"/><rect x="73.39" y="5.24" width="5.24" height="5.24" fill="#1b0003"/><rect x="68.14" y="152.01" width="5.24" height="5.24" fill="#1b0003"/><rect x="68.14" y="146.77" width="5.24" height="5.24" fill="#a84a24"/><rect x="68.14" y="141.53" width="5.24" height="5.24" fill="#a84a24"/><rect x="68.14" y="136.29" width="5.24" height="5.24" fill="#a84a24"/><rect x="68.14" y="131.05" width="5.24" height="5.24" fill="#a84a24"/><rect x="68.14" y="125.8" width="5.24" height="5.24" fill="#e86f3f"/><rect x="68.14" y="120.56" width="5.24" height="5.24" fill="#a84a24"/><rect x="68.14" y="115.32" width="5.24" height="5.24" fill="#fa9c5c"/><rect x="68.14" y="110.08" width="5.24" height="5.24" fill="#e86f3f"/><rect x="68.14" y="104.84" width="5.24" height="5.24" fill="#e86f3f"/><rect x="68.14" y="99.59" width="5.24" height="5.24" fill="#e86f3f"/><rect x="68.14" y="94.35" width="5.24" height="5.24" fill="#e86f3f"/><rect x="68.14" y="89.11" width="5.24" height="5.24" fill="#e86f3f"/><rect x="68.14" y="83.87" width="5.24" height="5.24" fill="#e86f3f"/><rect x="68.14" y="78.63" width="5.24" height="5.24" fill="#e86f3f"/><rect x="68.14" y="73.39" width="5.24" height="5.24" fill="#e86f3f"/><rect x="68.14" y="68.14" width="5.24" height="5.24" fill="#e86f3f"/><rect x="68.14" y="62.9" width="5.24" height="5.24" fill="#e86f3f"/><rect x="68.14" y="57.66" width="5.24" height="5.24" fill="#fa9c5c"/><rect x="68.14" y="52.42" width="5.24" height="5.24" fill="#1b0003"/><rect x="68.14" y="47.18" width="5.24" height="5.24" fill="#b6294c"/><rect x="68.14" y="41.93" width="5.24" height="5.24" fill="#b6294c"/><rect x="68.14" y="36.69" width="5.24" height="5.24" fill="#1b0003"/><rect x="68.14" y="31.45" width="5.24" height="5.24" fill="#1b0003"/><rect x="68.14" y="26.21" width="5.24" height="5.24" fill="#fa9c5c"/><rect x="68.14" y="20.97" width="5.24" height="5.24" fill="#fa9c5c"/><rect x="68.14" y="15.73" width="5.24" height="5.24" fill="#fa9c5c"/><rect x="68.14" y="10.48" width="5.24" height="5.24" fill="#fa9c5c"/><rect x="68.14" y="5.24" width="5.24" height="5.24" fill="#fa9c5c"/><rect x="68.14" width="5.24" height="5.24" fill="#1b0003"/><rect x="62.9" y="152.01" width="5.24" height="5.24" fill="#1b0003"/><rect x="62.9" y="146.77" width="5.24" height="5.24" fill="#a84a24"/><rect x="62.9" y="141.53" width="5.24" height="5.24" fill="#a84a24"/><rect x="62.9" y="136.29" width="5.24" height="5.24" fill="#a84a24"/><rect x="62.9" y="131.05" width="5.24" height="5.24" fill="#e86f3f"/><rect x="62.9" y="125.8" width="5.24" height="5.24" fill="#a84a24"/><rect x="62.9" y="120.56" width="5.24" height="5.24" fill="#fa9c5c"/><rect x="62.9" y="115.32" width="5.24" height="5.24" fill="#e86f3f"/><rect x="62.9" y="110.08" width="5.24" height="5.24" fill="#fa9c5c"/><rect x="62.9" y="104.84" width="5.24" height="5.24" fill="#e86f3f"/><rect x="62.9" y="99.59" width="5.24" height="5.24" fill="#fa9c5c"/><rect x="62.9" y="94.35" width="5.24" height="5.24" fill="#fa9c5c"/><rect x="62.9" y="89.11" width="5.24" height="5.24" fill="#e86f3f"/><rect x="62.9" y="83.87" width="5.24" height="5.24" fill="#e86f3f"/><rect x="62.9" y="78.63" width="5.24" height="5.24" fill="#e86f3f"/><rect x="62.9" y="73.39" width="5.24" height="5.24" fill="#e86f3f"/><rect x="62.9" y="68.14" width="5.24" height="5.24" fill="#fa9c5c"/><rect x="62.9" y="62.9" width="5.24" height="5.24" fill="#fa9c5c"/><rect x="62.9" y="57.66" width="5.24" height="5.24" fill="#fa9c5c"/><rect x="62.9" y="52.42" width="5.24" height="5.24" fill="#fa9c5c"/><rect x="62.9" y="47.18" width="5.24" height="5.24" fill="#1b0003"/><rect x="62.9" y="41.93" width="5.24" height="5.24" fill="#eb3824"/><rect x="62.9" y="36.69" width="5.24" height="5.24" fill="#eb3824"/><rect x="62.9" y="31.45" width="5.24" height="5.24" fill="#1b0003"/><rect x="62.9" y="26.21" width="5.24" height="5.24" fill="#1b0003"/><rect x="62.9" y="20.97" width="5.24" height="5.24" fill="#1b0003"/><rect x="62.9" y="15.73" width="5.24" height="5.24" fill="#1b0003"/><rect x="62.9" y="10.48" width="5.24" height="5.24" fill="#1b0003"/><rect x="62.9" y="5.24" width="5.24" height="5.24" fill="#1b0003"/><rect x="57.66" y="152.01" width="5.24" height="5.24" fill="#1b0003"/><rect x="57.66" y="146.77" width="5.24" height="5.24" fill="#a84a24"/><rect x="57.66" y="141.53" width="5.24" height="5.24" fill="#a84a24"/><rect x="57.66" y="136.29" width="5.24" height="5.24" fill="#e86f3f"/><rect x="57.66" y="131.05" width="5.24" height="5.24" fill="#a84a24"/><rect x="57.66" y="125.8" width="5.24" height="5.24" fill="#fa9c5c"/><rect x="57.66" y="120.56" width="5.24" height="5.24" fill="#e86f3f"/><rect x="57.66" y="115.32" width="5.24" height="5.24" fill="#fa9c5c"/><rect x="57.66" y="110.08" width="5.24" height="5.24" fill="#e86f3f"/><rect x="57.66" y="104.84" width="5.24" height="5.24" fill="#fa9c5c"/><rect x="57.66" y="99.59" width="5.24" height="5.24" fill="#fa9c5c"/><rect x="57.66" y="94.35" width="5.24" height="5.24" fill="#fa9c5c"/><rect x="57.66" y="89.11" width="5.24" height="5.24" fill="#fa9c5c"/><rect x="57.66" y="83.87" width="5.24" height="5.24" fill="#fa9c5c"/><rect x="57.66" y="78.63" width="5.24" height="5.24" fill="#fa9c5c"/><rect x="57.66" y="73.39" width="5.24" height="5.24" fill="#fa9c5c"/><rect x="57.66" y="68.14" width="5.24" height="5.24" fill="#fa9c5c"/><rect x="57.66" y="62.9" width="5.24" height="5.24" fill="#fa9c5c"/><rect x="57.66" y="57.66" width="5.24" height="5.24" fill="#fa9c5c"/><rect x="57.66" y="52.42" width="5.24" height="5.24" fill="#fa9c5c"/><rect x="57.66" y="47.18" width="5.24" height="5.24" fill="#fa9c5c"/><rect x="57.66" y="41.93" width="5.24" height="5.24" fill="#1b0003"/><rect x="57.66" y="36.69" width="5.24" height="5.24" fill="#1b0003"/><rect x="52.42" y="152.01" width="5.24" height="5.24" fill="#1b0003"/><rect x="52.42" y="146.77" width="5.24" height="5.24" fill="#a84a24"/><rect x="52.42" y="141.53" width="5.24" height="5.24" fill="#e86f3f"/><rect x="52.42" y="136.29" width="5.24" height="5.24" fill="#a84a24"/><rect x="52.42" y="131.05" width="5.24" height="5.24" fill="#e86f3f"/><rect x="52.42" y="125.8" width="5.24" height="5.24" fill="#e86f3f"/><rect x="52.42" y="120.56" width="5.24" height="5.24" fill="#fa9c5c"/><rect x="52.42" y="115.32" width="5.24" height="5.24" fill="#e86f3f"/><rect x="52.42" y="110.08" width="5.24" height="5.24" fill="#fa9c5c"/><rect x="52.42" y="104.84" width="5.24" height="5.24" fill="#fa9c5c"/><rect x="52.42" y="99.59" width="5.24" height="5.24" fill="#fa9c5c"/><rect x="52.42" y="94.35" width="5.24" height="5.24" fill="#fa9c5c"/><rect x="52.42" y="89.11" width="5.24" height="5.24" fill="#fa9c5c"/><rect x="52.42" y="83.87" width="5.24" height="5.24" fill="#e86f3f"/><rect x="52.42" y="78.63" width="5.24" height="5.24" fill="#e86f3f"/><rect x="52.42" y="73.39" width="5.24" height="5.24" fill="#fa9c5c"/><rect x="52.42" y="68.14" width="5.24" height="5.24" fill="#e86f3f"/><rect x="52.42" y="62.9" width="5.24" height="5.24" fill="#fa9c5c"/><rect x="52.42" y="57.66" width="5.24" height="5.24" fill="#fa9c5c"/><rect x="52.42" y="52.42" width="5.24" height="5.24" fill="#fa9c5c"/><rect x="52.42" y="47.18" width="5.24" height="5.24" fill="#fa9c5c"/><rect x="52.42" y="41.93" width="5.24" height="5.24" fill="#1b0003"/><rect x="47.18" y="152.01" width="5.24" height="5.24" fill="#1b0003"/><rect x="47.18" y="146.77" width="5.24" height="5.24" fill="#a84a24"/><rect x="47.18" y="141.53" width="5.24" height="5.24" fill="#a84a24"/><rect x="47.18" y="136.29" width="5.24" height="5.24" fill="#e86f3f"/><rect x="47.18" y="131.05" width="5.24" height="5.24" fill="#e86f3f"/><rect x="47.18" y="125.8" width="5.24" height="5.24" fill="#fa9c5c"/><rect x="47.18" y="120.56" width="5.24" height="5.24" fill="#e86f3f"/><rect x="47.18" y="115.32" width="5.24" height="5.24" fill="#fa9c5c"/><rect x="47.18" y="110.08" width="5.24" height="5.24" fill="#fa9c5c"/><rect x="47.18" y="104.84" width="5.24" height="5.24" fill="#fa9c5c"/><rect x="47.18" y="99.59" width="5.24" height="5.24" fill="#fa9c5c"/><rect x="47.18" y="94.35" width="5.24" height="5.24" fill="#fa9c5c"/><rect x="47.18" y="89.11" width="5.24" height="5.24" fill="#fa9c5c"/><rect x="47.18" y="83.87" width="5.24" height="5.24" fill="#fa9c5c"/><rect x="47.18" y="78.63" width="5.24" height="5.24" fill="#e86f3f"/><rect x="47.18" y="73.39" width="5.24" height="5.24" fill="#e86f3f"/><rect x="47.18" y="68.14" width="5.24" height="5.24" fill="#fa9c5c"/><rect x="47.18" y="62.9" width="5.24" height="5.24" fill="#fa9c5c"/><rect x="47.18" y="57.66" width="5.24" height="5.24" fill="#fa9c5c"/><rect x="47.18" y="52.42" width="5.24" height="5.24" fill="#fa9c5c"/><rect x="47.18" y="47.18" width="5.24" height="5.24" fill="#fa9c5c"/><rect x="47.18" y="41.93" width="5.24" height="5.24" fill="#1b0003"/><rect x="41.93" y="152.01" width="5.24" height="5.24" fill="#1b0003"/><rect x="41.93" y="146.77" width="5.24" height="5.24" fill="#a84a24"/><rect x="41.93" y="141.53" width="5.24" height="5.24" fill="#e86f3f"/><rect x="41.93" y="136.29" width="5.24" height="5.24" fill="#e86f3f"/><rect x="41.93" y="131.05" width="5.24" height="5.24" fill="#fa9c5c"/><rect x="41.93" y="125.8" width="5.24" height="5.24" fill="#e86f3f"/><rect x="41.93" y="120.56" width="5.24" height="5.24" fill="#fa9c5c"/><rect x="41.93" y="115.32" width="5.24" height="5.24" fill="#fa9c5c"/><rect x="41.93" y="110.08" width="5.24" height="5.24" fill="#fa9c5c"/><rect x="41.93" y="104.84" width="5.24" height="5.24" fill="#fa9c5c"/><rect x="41.93" y="99.59" width="5.24" height="5.24" fill="#e86f3f"/><rect x="41.93" y="94.35" width="5.24" height="5.24" fill="#e86f3f"/><rect x="41.93" y="89.11" width="5.24" height="5.24" fill="#fa9c5c"/><rect x="41.93" y="83.87" width="5.24" height="5.24" fill="#e86f3f"/><rect x="41.93" y="78.63" width="5.24" height="5.24" fill="#fa9c5c"/><rect x="41.93" y="73.39" width="5.24" height="5.24" fill="#e86f3f"/><rect x="41.93" y="68.14" width="5.24" height="5.24" fill="#fa9c5c"/><rect x="41.93" y="62.9" width="5.24" height="5.24" fill="#fa9c5c"/><rect x="41.93" y="57.66" width="5.24" height="5.24" fill="#fa9c5c"/><rect x="41.93" y="52.42" width="5.24" height="5.24" fill="#fa9c5c"/><rect x="41.93" y="47.18" width="5.24" height="5.24" fill="#1b0003"/><rect x="36.69" y="152.01" width="5.24" height="5.24" fill="#1b0003"/><rect x="36.69" y="146.77" width="5.24" height="5.24" fill="#e86f3f"/><rect x="36.69" y="141.53" width="5.24" height="5.24" fill="#e86f3f"/><rect x="36.69" y="136.29" width="5.24" height="5.24" fill="#e86f3f"/><rect x="36.69" y="131.05" width="5.24" height="5.24" fill="#e86f3f"/><rect x="36.69" y="125.8" width="5.24" height="5.24" fill="#fa9c5c"/><rect x="36.69" y="120.56" width="5.24" height="5.24" fill="#fa9c5c"/><rect x="36.69" y="115.32" width="5.24" height="5.24" fill="#fa9c5c"/><rect x="36.69" y="110.08" width="5.24" height="5.24" fill="#fa9c5c"/><rect x="36.69" y="104.84" width="5.24" height="5.24" fill="#e86f3f"/><rect x="36.69" y="99.59" width="5.24" height="5.24" fill="#fa9c5c"/><rect x="36.69" y="94.35" width="5.24" height="5.24" fill="#fa9c5c"/><rect x="36.69" y="89.11" width="5.24" height="5.24" fill="#e86f3f"/><rect x="36.69" y="83.87" width="5.24" height="5.24" fill="#fa9c5c"/><rect x="36.69" y="78.63" width="5.24" height="5.24" fill="#fa9c5c"/><rect x="36.69" y="73.39" width="5.24" height="5.24" fill="#e86f3f"/><rect x="36.69" y="68.14" width="5.24" height="5.24" fill="#fa9c5c"/><rect x="36.69" y="62.9" width="5.24" height="5.24" fill="#fa9c5c"/><rect x="36.69" y="57.66" width="5.24" height="5.24" fill="#fa9c5c"/><rect x="36.69" y="52.42" width="5.24" height="5.24" fill="#1b0003"/><rect x="31.45" y="152.01" width="5.24" height="5.24" fill="#1b0003"/><rect x="31.45" y="146.77" width="5.24" height="5.24" fill="#e86f3f"/><rect x="31.45" y="141.53" width="5.24" height="5.24" fill="#e86f3f"/><rect x="31.45" y="136.29" width="5.24" height="5.24" fill="#e86f3f"/><rect x="31.45" y="131.05" width="5.24" height="5.24" fill="#fa9c5c"/><rect x="31.45" y="125.8" width="5.24" height="5.24" fill="#fa9c5c"/><rect x="31.45" y="120.56" width="5.24" height="5.24" fill="#fa9c5c"/><rect x="31.45" y="115.32" width="5.24" height="5.24" fill="#fa9c5c"/><rect x="31.45" y="110.08" width="5.24" height="5.24" fill="#fa9c5c"/><rect x="31.45" y="104.84" width="5.24" height="5.24" fill="#e86f3f"/><rect x="31.45" y="99.59" width="5.24" height="5.24" fill="#fa9c5c"/><rect x="31.45" y="94.35" width="5.24" height="5.24" fill="#e86f3f"/><rect x="31.45" y="89.11" width="5.24" height="5.24" fill="#fa9c5c"/><rect x="31.45" y="83.87" width="5.24" height="5.24" fill="#e86f3f"/><rect x="31.45" y="78.63" width="5.24" height="5.24" fill="#e86f3f"/><rect x="31.45" y="73.39" width="5.24" height="5.24" fill="#fa9c5c"/><rect x="31.45" y="68.14" width="5.24" height="5.24" fill="#fa9c5c"/><rect x="31.45" y="62.9" width="5.24" height="5.24" fill="#fa9c5c"/><rect x="31.45" y="57.66" width="5.24" height="5.24" fill="#1b0003"/><rect x="26.21" y="152.01" width="5.24" height="5.24" fill="#1b0003"/><rect x="26.21" y="146.77" width="5.24" height="5.24" fill="#e86f3f"/><rect x="26.21" y="141.53" width="5.24" height="5.24" fill="#e86f3f"/><rect x="26.21" y="136.29" width="5.24" height="5.24" fill="#e86f3f"/><rect x="26.21" y="131.05" width="5.24" height="5.24" fill="#fa9c5c"/><rect x="26.21" y="125.8" width="5.24" height="5.24" fill="#fa9c5c"/><rect x="26.21" y="120.56" width="5.24" height="5.24" fill="#fa9c5c"/><rect x="26.21" y="115.32" width="5.24" height="5.24" fill="#fa9c5c"/><rect x="26.21" y="110.08" width="5.24" height="5.24" fill="#fa9c5c"/><rect x="26.21" y="104.84" width="5.24" height="5.24" fill="#fa9c5c"/><rect x="26.21" y="99.59" width="5.24" height="5.24" fill="#e86f3f"/><rect x="26.21" y="94.35" width="5.24" height="5.24" fill="#fa9c5c"/><rect x="26.21" y="89.11" width="5.24" height="5.24" fill="#fa9c5c"/><rect x="26.21" y="83.87" width="5.24" height="5.24" fill="#fa9c5c"/><rect x="26.21" y="78.63" width="5.24" height="5.24" fill="#fa9c5c"/><rect x="26.21" y="73.39" width="5.24" height="5.24" fill="#fa9c5c"/><rect x="26.21" y="68.14" width="5.24" height="5.24" fill="#fa9c5c"/><rect x="26.21" y="62.9" width="5.24" height="5.24" fill="#1b0003"/><rect x="20.97" y="152.01" width="5.24" height="5.24" fill="#1b0003"/><rect x="20.97" y="146.77" width="5.24" height="5.24" fill="#e86f3f"/><rect x="20.97" y="141.53" width="5.24" height="5.24" fill="#e86f3f"/><rect x="20.97" y="136.29" width="5.24" height="5.24" fill="#e86f3f"/><rect x="20.97" y="131.05" width="5.24" height="5.24" fill="#fa9c5c"/><rect x="20.97" y="125.8" width="5.24" height="5.24" fill="#fa9c5c"/><rect x="20.97" y="120.56" width="5.24" height="5.24" fill="#fa9c5c"/><rect x="20.97" y="115.32" width="5.24" height="5.24" fill="#fa9c5c"/><rect x="20.97" y="110.08" width="5.24" height="5.24" fill="#fa9c5c"/><rect x="20.97" y="104.84" width="5.24" height="5.24" fill="#e86f3f"/><rect x="20.97" y="99.59" width="5.24" height="5.24" fill="#fa9c5c"/><rect x="20.97" y="94.35" width="5.24" height="5.24" fill="#e86f3f"/><rect x="20.97" y="89.11" width="5.24" height="5.24" fill="#fa9c5c"/><rect x="20.97" y="83.87" width="5.24" height="5.24" fill="#fa9c5c"/><rect x="20.97" y="78.63" width="5.24" height="5.24" fill="#fa9c5c"/><rect x="20.97" y="73.39" width="5.24" height="5.24" fill="#fa9c5c"/><rect x="20.97" y="68.14" width="5.24" height="5.24" fill="#1b0003"/><rect x="15.73" y="146.77" width="5.24" height="5.24" fill="#1b0003"/><rect x="15.73" y="141.53" width="5.24" height="5.24" fill="#e86f3f"/><rect x="15.73" y="136.29" width="5.24" height="5.24" fill="#e86f3f"/><rect x="15.73" y="131.05" width="5.24" height="5.24" fill="#fa9c5c"/><rect x="15.73" y="125.8" width="5.24" height="5.24" fill="#fa9c5c"/><rect x="15.73" y="120.56" width="5.24" height="5.24" fill="#fa9c5c"/><rect x="15.73" y="115.32" width="5.24" height="5.24" fill="#fa9c5c"/><rect x="15.73" y="110.08" width="5.24" height="5.24" fill="#fa9c5c"/><rect x="15.73" y="104.84" width="5.24" height="5.24" fill="#fa9c5c"/><rect x="15.73" y="99.59" width="5.24" height="5.24" fill="#fa9c5c"/><rect x="15.73" y="94.35" width="5.24" height="5.24" fill="#fa9c5c"/><rect x="15.73" y="89.11" width="5.24" height="5.24" fill="#fa9c5c"/><rect x="15.73" y="83.87" width="5.24" height="5.24" fill="#fa9c5c"/><rect x="15.73" y="78.63" width="5.24" height="5.24" fill="#fa9c5c"/><rect x="15.73" y="73.39" width="5.24" height="5.24" fill="#1b0003"/><rect x="10.48" y="141.53" width="5.24" height="5.24" fill="#1b0003"/><rect x="10.48" y="136.29" width="5.24" height="5.24" fill="#e86f3f"/><rect x="10.48" y="131.05" width="5.24" height="5.24" fill="#fa9c5c"/><rect x="10.48" y="125.8" width="5.24" height="5.24" fill="#fa9c5c"/><rect x="10.48" y="120.56" width="5.24" height="5.24" fill="#fa9c5c"/><rect x="10.48" y="115.32" width="5.24" height="5.24" fill="#fa9c5c"/><rect x="10.48" y="110.08" width="5.24" height="5.24" fill="#fa9c5c"/><rect x="10.48" y="104.84" width="5.24" height="5.24" fill="#fa9c5c"/><rect x="10.48" y="99.59" width="5.24" height="5.24" fill="#fa9c5c"/><rect x="10.48" y="94.35" width="5.24" height="5.24" fill="#fa9c5c"/><rect x="10.48" y="89.11" width="5.24" height="5.24" fill="#fa9c5c"/><rect x="10.48" y="83.87" width="5.24" height="5.24" fill="#fa9c5c"/><rect x="10.48" y="78.63" width="5.24" height="5.24" fill="#1b0003"/><rect x="5.24" y="136.29" width="5.24" height="5.24" fill="#1b0003"/><rect x="5.24" y="131.05" width="5.24" height="5.24" fill="#1b0003"/><rect x="5.24" y="125.8" width="5.24" height="5.24" fill="#fa9c5c"/><rect x="5.24" y="120.56" width="5.24" height="5.24" fill="#fa9c5c"/><rect x="5.24" y="115.32" width="5.24" height="5.24" fill="#fa9c5c"/><rect x="5.24" y="110.08" width="5.24" height="5.24" fill="#fa9c5c"/><rect x="5.24" y="104.84" width="5.24" height="5.24" fill="#fa9c5c"/><rect x="5.24" y="99.59" width="5.24" height="5.24" fill="#fa9c5c"/><rect x="5.24" y="94.35" width="5.24" height="5.24" fill="#fa9c5c"/><rect x="5.24" y="89.11" width="5.24" height="5.24" fill="#1b0003"/><rect x="5.24" y="83.87" width="5.24" height="5.24" fill="#1b0003"/><rect y="125.8" width="5.24" height="5.24" fill="#1b0003"/><rect y="120.56" width="5.24" height="5.24" fill="#1b0003"/><rect y="115.32" width="5.24" height="5.24" fill="#1b0003"/><rect y="110.08" width="5.24" height="5.24" fill="#1b0003"/><rect y="104.84" width="5.24" height="5.24" fill="#1b0003"/><rect y="99.59" width="5.24" height="5.24" fill="#1b0003"/><rect y="94.35" width="5.24" height="5.24" fill="#1b0003"/></g></g></g></svg>