<svg xmlns="http://www.w3.org/2000/svg" width="124.69" height="124.69" viewBox="0 0 124.69 124.69"><g id="Layer_2" data-name="Layer 2"><g id="items"><g id="Shield"><rect x="120.39" y="81.69" width="4.3" height="4.3" fill="#1b0003"/><rect x="120.39" y="77.39" width="4.3" height="4.3" fill="#1b0003"/><rect x="120.39" y="73.09" width="4.3" height="4.3" fill="#1b0003"/><rect x="120.39" y="68.79" width="4.3" height="4.3" fill="#1b0003"/><rect x="120.39" y="64.49" width="4.3" height="4.3" fill="#1b0003"/><rect x="120.39" y="60.2" width="4.3" height="4.3" fill="#1b0003"/><rect x="120.39" y="55.9" width="4.3" height="4.3" fill="#1b0003"/><rect x="120.39" y="51.6" width="4.3" height="4.3" fill="#1b0003"/><rect x="120.39" y="47.3" width="4.3" height="4.3" fill="#1b0003"/><rect x="120.39" y="43" width="4.3" height="4.3" fill="#1b0003"/><rect x="120.39" y="38.7" width="4.3" height="4.3" fill="#1b0003"/><rect x="120.39" y="34.4" width="4.3" height="4.3" fill="#1b0003"/><rect x="116.09" y="90.29" width="4.3" height="4.3" fill="#1b0003"/><rect x="116.09" y="85.99" width="4.3" height="4.3" fill="#1b0003"/><rect x="116.09" y="81.69" width="4.3" height="4.3" fill="#6a87af"/><rect x="116.09" y="77.39" width="4.3" height="4.3" fill="#6a87af"/><rect x="116.09" y="73.09" width="4.3" height="4.3" fill="#85a1c9"/><rect x="116.09" y="68.79" width="4.3" height="4.3" fill="#85a1c9"/><rect x="116.09" y="64.49" width="4.3" height="4.3" fill="#85a1c9"/><rect x="116.09" y="60.2" width="4.3" height="4.3" fill="#85a1c9"/><rect x="116.09" y="55.9" width="4.3" height="4.3" fill="#85a1c9"/><rect x="116.09" y="51.6" width="4.3" height="4.3" fill="#85a1c9"/><rect x="116.09" y="47.3" width="4.3" height="4.3" fill="#85a1c9"/><rect x="116.09" y="43" width="4.3" height="4.3" fill="#85a1c9"/><rect x="116.09" y="38.7" width="4.3" height="4.3" fill="#85a1c9"/><rect x="116.09" y="34.4" width="4.3" height="4.3" fill="#97bcd6"/><rect x="116.09" y="30.1" width="4.3" height="4.3" fill="#1b0003"/><rect x="116.09" y="25.8" width="4.3" height="4.3" fill="#1b0003"/><rect x="111.79" y="98.89" width="4.3" height="4.3" fill="#1b0003"/><rect x="111.79" y="94.59" width="4.3" height="4.3" fill="#1b0003"/><rect x="111.79" y="90.29" width="4.3" height="4.3" fill="#6a87af"/><rect x="111.79" y="85.99" width="4.3" height="4.3" fill="#223c5b"/><rect x="111.79" y="81.69" width="4.3" height="4.3" fill="#223c5b"/><rect x="111.79" y="77.39" width="4.3" height="4.3" fill="#1b0003"/><rect x="111.79" y="73.09" width="4.3" height="4.3" fill="#1b0003"/><rect x="111.79" y="68.79" width="4.3" height="4.3" fill="#1b0003"/><rect x="111.79" y="64.49" width="4.3" height="4.3" fill="#1b0003"/><rect x="111.79" y="60.2" width="4.3" height="4.3" fill="#1b0003"/><rect x="111.79" y="55.9" width="4.3" height="4.3" fill="#1b0003"/><rect x="111.79" y="51.6" width="4.3" height="4.3" fill="#1b0003"/><rect x="111.79" y="47.3" width="4.3" height="4.3" fill="#1b0003"/><rect x="111.79" y="43" width="4.3" height="4.3" fill="#1b0003"/><rect x="111.79" y="38.7" width="4.3" height="4.3" fill="#85a1c9"/><rect x="111.79" y="34.4" width="4.3" height="4.3" fill="#85a1c9"/><rect x="111.79" y="30.1" width="4.3" height="4.3" fill="#97bcd6"/><rect x="111.79" y="25.8" width="4.3" height="4.3" fill="#97bcd6"/><rect x="111.79" y="21.5" width="4.3" height="4.3" fill="#1b0003"/><rect x="107.49" y="103.19" width="4.3" height="4.3" fill="#1b0003"/><rect x="107.49" y="98.89" width="4.3" height="4.3" fill="#6a87af"/><rect x="107.49" y="94.59" width="4.3" height="4.3" fill="#6a87af"/><rect x="107.49" y="90.29" width="4.3" height="4.3" fill="#223c5b"/><rect x="107.49" y="85.99" width="4.3" height="4.3" fill="#1b0003"/><rect x="107.49" y="81.69" width="4.3" height="4.3" fill="#1b0003"/><rect x="107.49" y="77.39" width="4.3" height="4.3" fill="#a84a24"/><rect x="107.49" y="73.09" width="4.3" height="4.3" fill="#e86f3f"/><rect x="107.49" y="68.79" width="4.3" height="4.3" fill="#e86f3f"/><rect x="107.49" y="64.49" width="4.3" height="4.3" fill="#e86f3f"/><rect x="107.49" y="60.2" width="4.3" height="4.3" fill="#e86f3f"/><rect x="107.49" y="55.9" width="4.3" height="4.3" fill="#ef8741"/><rect x="107.49" y="51.6" width="4.3" height="4.3" fill="#ef8741"/><rect x="107.49" y="47.3" width="4.3" height="4.3" fill="#ef8741"/><rect x="107.49" y="43" width="4.3" height="4.3" fill="#ef8741"/><rect x="107.49" y="38.7" width="4.3" height="4.3" fill="#1b0003"/><rect x="107.49" y="34.4" width="4.3" height="4.3" fill="#1b0003"/><rect x="107.49" y="30.1" width="4.3" height="4.3" fill="#85a1c9"/><rect x="107.49" y="25.8" width="4.3" height="4.3" fill="#97bcd6"/><rect x="107.49" y="21.5" width="4.3" height="4.3" fill="#cfefff"/><rect x="107.49" y="17.2" width="4.3" height="4.3" fill="#1b0003"/><rect x="103.19" y="107.49" width="4.3" height="4.3" fill="#1b0003"/><rect x="103.19" y="103.19" width="4.3" height="4.3" fill="#6a87af"/><rect x="103.19" y="98.89" width="4.3" height="4.3" fill="#6a87af"/><rect x="103.19" y="94.59" width="4.3" height="4.3" fill="#223c5b"/><rect x="103.19" y="90.29" width="4.3" height="4.3" fill="#1b0003"/><rect x="103.19" y="85.99" width="4.3" height="4.3" fill="#a84a24"/><rect x="103.19" y="81.69" width="4.3" height="4.3" fill="#e86f3f"/><rect x="103.19" y="77.39" width="4.3" height="4.3" fill="#a84a24"/><rect x="103.19" y="73.09" width="4.3" height="4.3" fill="#e86f3f"/><rect x="103.19" y="68.79" width="4.3" height="4.3" fill="#e86f3f"/><rect x="103.19" y="64.49" width="4.3" height="4.3" fill="#ef8741"/><rect x="103.19" y="60.2" width="4.3" height="4.3" fill="#ef8741"/><rect x="103.19" y="55.9" width="4.3" height="4.3" fill="#ef8741"/><rect x="103.19" y="51.6" width="4.3" height="4.3" fill="#ef8741"/><rect x="103.19" y="47.3" width="4.3" height="4.3" fill="#fa9c5c"/><rect x="103.19" y="43" width="4.3" height="4.3" fill="#fa9c5c"/><rect x="103.19" y="38.7" width="4.3" height="4.3" fill="#fa9c5c"/><rect x="103.19" y="34.4" width="4.3" height="4.3" fill="#fa9c5c"/><rect x="103.19" y="30.1" width="4.3" height="4.3" fill="#1b0003"/><rect x="103.19" y="25.8" width="4.3" height="4.3" fill="#85a1c9"/><rect x="103.19" y="21.5" width="4.3" height="4.3" fill="#97bcd6"/><rect x="103.19" y="17.2" width="4.3" height="4.3" fill="#cfefff"/><rect x="103.19" y="12.9" width="4.3" height="4.3" fill="#1b0003"/><rect x="98.89" y="111.79" width="4.3" height="4.3" fill="#1b0003"/><rect x="98.89" y="107.49" width="4.3" height="4.3" fill="#6a87af"/><rect x="98.89" y="103.19" width="4.3" height="4.3" fill="#6a87af"/><rect x="98.89" y="98.89" width="4.3" height="4.3" fill="#223c5b"/><rect x="98.89" y="94.59" width="4.3" height="4.3" fill="#1b0003"/><rect x="98.89" y="90.29" width="4.3" height="4.3" fill="#a84a24"/><rect x="98.89" y="85.99" width="4.3" height="4.3" fill="#a84a24"/><rect x="98.89" y="81.69" width="4.3" height="4.3" fill="#a84a24"/><rect x="98.89" y="77.39" width="4.3" height="4.3" fill="#a84a24"/><rect x="98.89" y="73.09" width="4.3" height="4.3" fill="#a84a24"/><rect x="98.89" y="68.79" width="4.3" height="4.3" fill="#a84a24"/><rect x="98.89" y="64.49" width="4.3" height="4.3" fill="#a84a24"/><rect x="98.89" y="60.2" width="4.3" height="4.3" fill="#a84a24"/><rect x="98.89" y="55.9" width="4.3" height="4.3" fill="#a84a24"/><rect x="98.89" y="51.6" width="4.3" height="4.3" fill="#a84a24"/><rect x="98.89" y="47.3" width="4.3" height="4.3" fill="#a84a24"/><rect x="98.89" y="43" width="4.3" height="4.3" fill="#a84a24"/><rect x="98.89" y="38.7" width="4.3" height="4.3" fill="#a84a24"/><rect x="98.89" y="34.4" width="4.3" height="4.3" fill="#a84a24"/><rect x="98.89" y="30.1" width="4.3" height="4.3" fill="#a84a24"/><rect x="98.89" y="25.8" width="4.3" height="4.3" fill="#1b0003"/><rect x="98.89" y="21.5" width="4.3" height="4.3" fill="#85a1c9"/><rect x="98.89" y="17.2" width="4.3" height="4.3" fill="#97bcd6"/><rect x="98.89" y="12.9" width="4.3" height="4.3" fill="#cfefff"/><rect x="98.89" y="8.6" width="4.3" height="4.3" fill="#1b0003"/><rect x="94.59" y="111.79" width="4.3" height="4.3" fill="#1b0003"/><rect x="94.59" y="107.49" width="4.3" height="4.3" fill="#6a87af"/><rect x="94.59" y="103.19" width="4.3" height="4.3" fill="#223c5b"/><rect x="94.59" y="98.89" width="4.3" height="4.3" fill="#1b0003"/><rect x="94.59" y="94.59" width="4.3" height="4.3" fill="#a84a24"/><rect x="94.59" y="90.29" width="4.3" height="4.3" fill="#a84a24"/><rect x="94.59" y="85.99" width="4.3" height="4.3" fill="#e86f3f"/><rect x="94.59" y="81.69" width="4.3" height="4.3" fill="#e86f3f"/><rect x="94.59" y="77.39" width="4.3" height="4.3" fill="#e86f3f"/><rect x="94.59" y="73.09" width="4.3" height="4.3" fill="#e86f3f"/><rect x="94.59" y="68.79" width="4.3" height="4.3" fill="#ef8741"/><rect x="94.59" y="64.49" width="4.3" height="4.3" fill="#ef8741"/><rect x="94.59" y="60.2" width="4.3" height="4.3" fill="#ef8741"/><rect x="94.59" y="55.9" width="4.3" height="4.3" fill="#ef8741"/><rect x="94.59" y="51.6" width="4.3" height="4.3" fill="#fa9c5c"/><rect x="94.59" y="47.3" width="4.3" height="4.3" fill="#fa9c5c"/><rect x="94.59" y="43" width="4.3" height="4.3" fill="#fa9c5c"/><rect x="94.59" y="38.7" width="4.3" height="4.3" fill="#fa9c5c"/><rect x="94.59" y="34.4" width="4.3" height="4.3" fill="#fa9c5c"/><rect x="94.59" y="30.1" width="4.3" height="4.3" fill="#fa9c5c"/><rect x="94.59" y="25.8" width="4.3" height="4.3" fill="#fa9c5c"/><rect x="94.59" y="21.5" width="4.3" height="4.3" fill="#1b0003"/><rect x="94.59" y="17.2" width="4.3" height="4.3" fill="#85a1c9"/><rect x="94.59" y="12.9" width="4.3" height="4.3" fill="#97bcd6"/><rect x="94.59" y="8.6" width="4.3" height="4.3" fill="#cfefff"/><rect x="94.59" y="4.3" width="4.3" height="4.3" fill="#1b0003"/><rect x="90.29" y="116.09" width="4.3" height="4.3" fill="#1b0003"/><rect x="90.29" y="111.79" width="4.3" height="4.3" fill="#6a87af"/><rect x="90.29" y="107.49" width="4.3" height="4.3" fill="#223c5b"/><rect x="90.29" y="103.19" width="4.3" height="4.3" fill="#1b0003"/><rect x="90.29" y="98.89" width="4.3" height="4.3" fill="#a84a24"/><rect x="90.29" y="94.59" width="4.3" height="4.3" fill="#a84a24"/><rect x="90.29" y="90.29" width="4.3" height="4.3" fill="#e86f3f"/><rect x="90.29" y="85.99" width="4.3" height="4.3" fill="#a84a24"/><rect x="90.29" y="81.69" width="4.3" height="4.3" fill="#e86f3f"/><rect x="90.29" y="77.39" width="4.3" height="4.3" fill="#e86f3f"/><rect x="90.29" y="73.09" width="4.3" height="4.3" fill="#ef8741"/><rect x="90.29" y="68.79" width="4.3" height="4.3" fill="#ef8741"/><rect x="90.29" y="64.49" width="4.3" height="4.3" fill="#ef8741"/><rect x="90.29" y="60.2" width="4.3" height="4.3" fill="#ef8741"/><rect x="90.29" y="55.9" width="4.3" height="4.3" fill="#fa9c5c"/><rect x="90.29" y="51.6" width="4.3" height="4.3" fill="#fa9c5c"/><rect x="90.29" y="47.3" width="4.3" height="4.3" fill="#fa9c5c"/><rect x="90.29" y="43" width="4.3" height="4.3" fill="#fa9c5c"/><rect x="90.29" y="38.7" width="4.3" height="4.3" fill="#fa9c5c"/><rect x="90.29" y="34.4" width="4.3" height="4.3" fill="#fa9c5c"/><rect x="90.29" y="30.1" width="4.3" height="4.3" fill="#fa9c5c"/><rect x="90.29" y="25.8" width="4.3" height="4.3" fill="#fa9c5c"/><rect x="90.29" y="21.5" width="4.3" height="4.3" fill="#fa9c5c"/><rect x="90.29" y="17.2" width="4.3" height="4.3" fill="#1b0003"/><rect x="90.29" y="12.9" width="4.3" height="4.3" fill="#85a1c9"/><rect x="90.29" y="8.6" width="4.3" height="4.3" fill="#cfefff"/><rect x="90.29" y="4.3" width="4.3" height="4.3" fill="#1b0003"/><rect x="85.99" y="116.09" width="4.3" height="4.3" fill="#1b0003"/><rect x="85.99" y="111.79" width="4.3" height="4.3" fill="#6a87af"/><rect x="85.99" y="107.49" width="4.3" height="4.3" fill="#1b0003"/><rect x="85.99" y="103.19" width="4.3" height="4.3" fill="#a84a24"/><rect x="85.99" y="98.89" width="4.3" height="4.3" fill="#a84a24"/><rect x="85.99" y="94.59" width="4.3" height="4.3" fill="#e86f3f"/><rect x="85.99" y="90.29" width="4.3" height="4.3" fill="#a84a24"/><rect x="85.99" y="85.99" width="4.3" height="4.3" fill="#e86f3f"/><rect x="85.99" y="81.69" width="4.3" height="4.3" fill="#e86f3f"/><rect x="85.99" y="77.39" width="4.3" height="4.3" fill="#ef8741"/><rect x="85.99" y="73.09" width="4.3" height="4.3" fill="#ef8741"/><rect x="85.99" y="68.79" width="4.3" height="4.3" fill="#ef8741"/><rect x="85.99" y="64.49" width="4.3" height="4.3" fill="#ef8741"/><rect x="85.99" y="60.2" width="4.3" height="4.3" fill="#fa9c5c"/><rect x="85.99" y="55.9" width="4.3" height="4.3" fill="#fa9c5c"/><rect x="85.99" y="51.6" width="4.3" height="4.3" fill="#fa9c5c"/><rect x="85.99" y="47.3" width="4.3" height="4.3" fill="#fa9c5c"/><rect x="85.99" y="43" width="4.3" height="4.3" fill="#fa9c5c"/><rect x="85.99" y="38.7" width="4.3" height="4.3" fill="#fa9c5c"/><rect x="85.99" y="34.4" width="4.3" height="4.3" fill="#fa9c5c"/><rect x="85.99" y="30.1" width="4.3" height="4.3" fill="#fa9c5c"/><rect x="85.99" y="25.8" width="4.3" height="4.3" fill="#fa9c5c"/><rect x="85.99" y="21.5" width="4.3" height="4.3" fill="#fa9c5c"/><rect x="85.99" y="17.2" width="4.3" height="4.3" fill="#fa9c5c"/><rect x="85.99" y="12.9" width="4.3" height="4.3" fill="#1b0003"/><rect x="85.99" y="8.6" width="4.3" height="4.3" fill="#97bcd6"/><rect x="85.99" y="4.3" width="4.3" height="4.3" fill="#cfefff"/><rect x="85.99" width="4.3" height="4.3" fill="#1b0003"/><rect x="81.69" y="120.39" width="4.3" height="4.3" fill="#1b0003"/><rect x="81.69" y="116.09" width="4.3" height="4.3" fill="#6a87af"/><rect x="81.69" y="111.79" width="4.3" height="4.3" fill="#1b0003"/><rect x="81.69" y="107.49" width="4.3" height="4.3" fill="#a84a24"/><rect x="81.69" y="103.19" width="4.3" height="4.3" fill="#a84a24"/><rect x="81.69" y="98.89" width="4.3" height="4.3" fill="#a84a24"/><rect x="81.69" y="94.59" width="4.3" height="4.3" fill="#a84a24"/><rect x="81.69" y="90.29" width="4.3" height="4.3" fill="#a84a24"/><rect x="81.69" y="85.99" width="4.3" height="4.3" fill="#a84a24"/><rect x="81.69" y="81.69" width="4.3" height="4.3" fill="#a84a24"/><rect x="81.69" y="77.39" width="4.3" height="4.3" fill="#a84a24"/><rect x="81.69" y="73.09" width="4.3" height="4.3" fill="#a84a24"/><rect x="81.69" y="68.79" width="4.3" height="4.3" fill="#a84a24"/><rect x="81.69" y="64.49" width="4.3" height="4.3" fill="#a84a24"/><rect x="81.69" y="60.2" width="4.3" height="4.3" fill="#a84a24"/><rect x="81.69" y="55.9" width="4.3" height="4.3" fill="#a84a24"/><rect x="81.69" y="51.6" width="4.3" height="4.3" fill="#a84a24"/><rect x="81.69" y="47.3" width="4.3" height="4.3" fill="#a84a24"/><rect x="81.69" y="43" width="4.3" height="4.3" fill="#a84a24"/><rect x="81.69" y="38.7" width="4.3" height="4.3" fill="#a84a24"/><rect x="81.69" y="34.4" width="4.3" height="4.3" fill="#a84a24"/><rect x="81.69" y="30.1" width="4.3" height="4.3" fill="#a84a24"/><rect x="81.69" y="25.8" width="4.3" height="4.3" fill="#a84a24"/><rect x="81.69" y="21.5" width="4.3" height="4.3" fill="#a84a24"/><rect x="81.69" y="17.2" width="4.3" height="4.3" fill="#a84a24"/><rect x="81.69" y="12.9" width="4.3" height="4.3" fill="#1b0003"/><rect x="81.69" y="8.6" width="4.3" height="4.3" fill="#97bcd6"/><rect x="81.69" y="4.3" width="4.3" height="4.3" fill="#cfefff"/><rect x="81.69" width="4.3" height="4.3" fill="#1b0003"/><rect x="77.39" y="120.39" width="4.3" height="4.3" fill="#1b0003"/><rect x="77.39" y="116.09" width="4.3" height="4.3" fill="#6a87af"/><rect x="77.39" y="111.79" width="4.3" height="4.3" fill="#1b0003"/><rect x="77.39" y="107.49" width="4.3" height="4.3" fill="#a84a24"/><rect x="77.39" y="103.19" width="4.3" height="4.3" fill="#a84a24"/><rect x="77.39" y="98.89" width="4.3" height="4.3" fill="#e86f3f"/><rect x="77.39" y="94.59" width="4.3" height="4.3" fill="#a84a24"/><rect x="77.39" y="90.29" width="4.3" height="4.3" fill="#e86f3f"/><rect x="77.39" y="85.99" width="4.3" height="4.3" fill="#e86f3f"/><rect x="77.39" y="81.69" width="4.3" height="4.3" fill="#e86f3f"/><rect x="77.39" y="77.39" width="4.3" height="4.3" fill="#ef8741"/><rect x="77.39" y="73.09" width="4.3" height="4.3" fill="#ef8741"/><rect x="77.39" y="68.79" width="4.3" height="4.3" fill="#ef8741"/><rect x="77.39" y="64.49" width="4.3" height="4.3" fill="#ef8741"/><rect x="77.39" y="60.2" width="4.3" height="4.3" fill="#ef8741"/><rect x="77.39" y="55.9" width="4.3" height="4.3" fill="#fa9c5c"/><rect x="77.39" y="51.6" width="4.3" height="4.3" fill="#fa9c5c"/><rect x="77.39" y="47.3" width="4.3" height="4.3" fill="#fa9c5c"/><rect x="77.39" y="43" width="4.3" height="4.3" fill="#fa9c5c"/><rect x="77.39" y="38.7" width="4.3" height="4.3" fill="#fa9c5c"/><rect x="77.39" y="34.4" width="4.3" height="4.3" fill="#fa9c5c"/><rect x="77.39" y="30.1" width="4.3" height="4.3" fill="#fa9c5c"/><rect x="77.39" y="25.8" width="4.3" height="4.3" fill="#fa9c5c"/><rect x="77.39" y="21.5" width="4.3" height="4.3" fill="#fa9c5c"/><rect x="77.39" y="17.2" width="4.3" height="4.3" fill="#fa9c5c"/><rect x="77.39" y="12.9" width="4.3" height="4.3" fill="#fa9c5c"/><rect x="77.39" y="8.6" width="4.3" height="4.3" fill="#1b0003"/><rect x="77.39" y="4.3" width="4.3" height="4.3" fill="#cfefff"/><rect x="77.39" width="4.3" height="4.3" fill="#1b0003"/><rect x="73.09" y="120.39" width="4.3" height="4.3" fill="#1b0003"/><rect x="73.09" y="116.09" width="4.3" height="4.3" fill="#6a87af"/><rect x="73.09" y="111.79" width="4.3" height="4.3" fill="#1b0003"/><rect x="73.09" y="107.49" width="4.3" height="4.3" fill="#a84a24"/><rect x="73.09" y="103.19" width="4.3" height="4.3" fill="#e86f3f"/><rect x="73.09" y="98.89" width="4.3" height="4.3" fill="#a84a24"/><rect x="73.09" y="94.59" width="4.3" height="4.3" fill="#e86f3f"/><rect x="73.09" y="90.29" width="4.3" height="4.3" fill="#e86f3f"/><rect x="73.09" y="85.99" width="4.3" height="4.3" fill="#e86f3f"/><rect x="73.09" y="81.69" width="4.3" height="4.3" fill="#ef8741"/><rect x="73.09" y="77.39" width="4.3" height="4.3" fill="#ef8741"/><rect x="73.09" y="73.09" width="4.3" height="4.3" fill="#ef8741"/><rect x="73.09" y="68.79" width="4.3" height="4.3" fill="#ef8741"/><rect x="73.09" y="64.49" width="4.3" height="4.3" fill="#fa9c5c"/><rect x="73.09" y="60.2" width="4.3" height="4.3" fill="#fa9c5c"/><rect x="73.09" y="55.9" width="4.3" height="4.3" fill="#fa9c5c"/><rect x="73.09" y="51.6" width="4.3" height="4.3" fill="#fa9c5c"/><rect x="73.09" y="47.3" width="4.3" height="4.3" fill="#fa9c5c"/><rect x="73.09" y="43" width="4.3" height="4.3" fill="#fa9c5c"/><rect x="73.09" y="38.7" width="4.3" height="4.3" fill="#fa9c5c"/><rect x="73.09" y="34.4" width="4.3" height="4.3" fill="#fa9c5c"/><rect x="73.09" y="30.1" width="4.3" height="4.3" fill="#fa9c5c"/><rect x="73.09" y="25.8" width="4.3" height="4.3" fill="#fa9c5c"/><rect x="73.09" y="21.5" width="4.3" height="4.3" fill="#fa9c5c"/><rect x="73.09" y="17.2" width="4.3" height="4.3" fill="#fa9c5c"/><rect x="73.09" y="12.9" width="4.3" height="4.3" fill="#fa9c5c"/><rect x="73.09" y="8.6" width="4.3" height="4.3" fill="#1b0003"/><rect x="73.09" y="4.3" width="4.3" height="4.3" fill="#cfefff"/><rect x="73.09" width="4.3" height="4.3" fill="#1b0003"/><rect x="68.79" y="120.39" width="4.3" height="4.3" fill="#1b0003"/><rect x="68.79" y="116.09" width="4.3" height="4.3" fill="#6a87af"/><rect x="68.79" y="111.79" width="4.3" height="4.3" fill="#1b0003"/><rect x="68.79" y="107.49" width="4.3" height="4.3" fill="#a84a24"/><rect x="68.79" y="103.19" width="4.3" height="4.3" fill="#a84a24"/><rect x="68.79" y="98.89" width="4.3" height="4.3" fill="#e86f3f"/><rect x="68.79" y="94.59" width="4.3" height="4.3" fill="#a84a24"/><rect x="68.79" y="90.29" width="4.3" height="4.3" fill="#e86f3f"/><rect x="68.79" y="85.99" width="4.3" height="4.3" fill="#e86f3f"/><rect x="68.79" y="81.69" width="4.3" height="4.3" fill="#ef8741"/><rect x="68.79" y="77.39" width="4.3" height="4.3" fill="#ef8741"/><rect x="68.79" y="73.09" width="4.3" height="4.3" fill="#ef8741"/><rect x="68.79" y="68.79" width="4.3" height="4.3" fill="#fa9c5c"/><rect x="68.79" y="64.49" width="4.3" height="4.3" fill="#fa9c5c"/><rect x="68.79" y="60.2" width="4.3" height="4.3" fill="#fa9c5c"/><rect x="68.79" y="55.9" width="4.3" height="4.3" fill="#fa9c5c"/><rect x="68.79" y="51.6" width="4.3" height="4.3" fill="#fa9c5c"/><rect x="68.79" y="47.3" width="4.3" height="4.3" fill="#fa9c5c"/><rect x="68.79" y="43" width="4.3" height="4.3" fill="#fa9c5c"/><rect x="68.79" y="38.7" width="4.3" height="4.3" fill="#fa9c5c"/><rect x="68.79" y="34.4" width="4.3" height="4.3" fill="#fa9c5c"/><rect x="68.79" y="30.1" width="4.3" height="4.3" fill="#fa9c5c"/><rect x="68.79" y="25.8" width="4.3" height="4.3" fill="#fa9c5c"/><rect x="68.79" y="21.5" width="4.3" height="4.3" fill="#fa9c5c"/><rect x="68.79" y="17.2" width="4.3" height="4.3" fill="#fa9c5c"/><rect x="68.79" y="12.9" width="4.3" height="4.3" fill="#fa9c5c"/><rect x="68.79" y="8.6" width="4.3" height="4.3" fill="#1b0003"/><rect x="68.79" y="4.3" width="4.3" height="4.3" fill="#cfefff"/><rect x="68.79" width="4.3" height="4.3" fill="#1b0003"/><rect x="64.49" y="120.39" width="4.3" height="4.3" fill="#1b0003"/><rect x="64.49" y="116.09" width="4.3" height="4.3" fill="#6a87af"/><rect x="64.49" y="111.79" width="4.3" height="4.3" fill="#1b0003"/><rect x="64.49" y="107.49" width="4.3" height="4.3" fill="#a84a24"/><rect x="64.49" y="103.19" width="4.3" height="4.3" fill="#a84a24"/><rect x="64.49" y="98.89" width="4.3" height="4.3" fill="#a84a24"/><rect x="64.49" y="94.59" width="4.3" height="4.3" fill="#a84a24"/><rect x="64.49" y="90.29" width="4.3" height="4.3" fill="#a84a24"/><rect x="64.49" y="85.99" width="4.3" height="4.3" fill="#a84a24"/><rect x="64.49" y="81.69" width="4.3" height="4.3" fill="#a84a24"/><rect x="64.49" y="77.39" width="4.3" height="4.3" fill="#a84a24"/><rect x="64.49" y="73.09" width="4.3" height="4.3" fill="#a84a24"/><rect x="64.49" y="68.79" width="4.3" height="4.3" fill="#a84a24"/><rect x="64.49" y="64.49" width="4.3" height="4.3" fill="#a84a24"/><rect x="64.49" y="60.2" width="4.3" height="4.3" fill="#a84a24"/><rect x="64.49" y="55.9" width="4.3" height="4.3" fill="#a84a24"/><rect x="64.49" y="51.6" width="4.3" height="4.3" fill="#a84a24"/><rect x="64.49" y="47.3" width="4.3" height="4.3" fill="#a84a24"/><rect x="64.49" y="43" width="4.3" height="4.3" fill="#a84a24"/><rect x="64.49" y="38.7" width="4.3" height="4.3" fill="#a84a24"/><rect x="64.49" y="34.4" width="4.3" height="4.3" fill="#a84a24"/><rect x="64.49" y="30.1" width="4.3" height="4.3" fill="#a84a24"/><rect x="64.49" y="25.8" width="4.3" height="4.3" fill="#a84a24"/><rect x="64.49" y="21.5" width="4.3" height="4.3" fill="#a84a24"/><rect x="64.49" y="17.2" width="4.3" height="4.3" fill="#a84a24"/><rect x="64.49" y="12.9" width="4.3" height="4.3" fill="#a84a24"/><rect x="64.49" y="8.6" width="4.3" height="4.3" fill="#1b0003"/><rect x="64.49" y="4.3" width="4.3" height="4.3" fill="#cfefff"/><rect x="64.49" width="4.3" height="4.3" fill="#1b0003"/><rect x="60.2" y="120.39" width="4.3" height="4.3" fill="#1b0003"/><rect x="60.2" y="116.09" width="4.3" height="4.3" fill="#6a87af"/><rect x="60.2" y="111.79" width="4.3" height="4.3" fill="#1b0003"/><rect x="60.2" y="107.49" width="4.3" height="4.3" fill="#a84a24"/><rect x="60.2" y="103.19" width="4.3" height="4.3" fill="#a84a24"/><rect x="60.2" y="98.89" width="4.3" height="4.3" fill="#e86f3f"/><rect x="60.2" y="94.59" width="4.3" height="4.3" fill="#a84a24"/><rect x="60.2" y="90.29" width="4.3" height="4.3" fill="#e86f3f"/><rect x="60.2" y="85.99" width="4.3" height="4.3" fill="#ef8741"/><rect x="60.2" y="81.69" width="4.3" height="4.3" fill="#ef8741"/><rect x="60.2" y="77.39" width="4.3" height="4.3" fill="#ef8741"/><rect x="60.2" y="73.09" width="4.3" height="4.3" fill="#ef8741"/><rect x="60.2" y="68.79" width="4.3" height="4.3" fill="#fa9c5c"/><rect x="60.2" y="64.49" width="4.3" height="4.3" fill="#fa9c5c"/><rect x="60.2" y="60.2" width="4.3" height="4.3" fill="#fa9c5c"/><rect x="60.2" y="55.9" width="4.3" height="4.3" fill="#fa9c5c"/><rect x="60.2" y="51.6" width="4.3" height="4.3" fill="#fa9c5c"/><rect x="60.2" y="47.3" width="4.3" height="4.3" fill="#fa9c5c"/><rect x="60.2" y="43" width="4.3" height="4.3" fill="#fa9c5c"/><rect x="60.2" y="38.7" width="4.3" height="4.3" fill="#fa9c5c"/><rect x="60.2" y="34.4" width="4.3" height="4.3" fill="#fa9c5c"/><rect x="60.2" y="30.1" width="4.3" height="4.3" fill="#fa9c5c"/><rect x="60.2" y="25.8" width="4.3" height="4.3" fill="#fa9c5c"/><rect x="60.2" y="21.5" width="4.3" height="4.3" fill="#fa9c5c"/><rect x="60.2" y="17.2" width="4.3" height="4.3" fill="#fa9c5c"/><rect x="60.2" y="12.9" width="4.3" height="4.3" fill="#fa9c5c"/><rect x="60.2" y="8.6" width="4.3" height="4.3" fill="#1b0003"/><rect x="60.2" y="4.3" width="4.3" height="4.3" fill="#cfefff"/><rect x="60.2" width="4.3" height="4.3" fill="#1b0003"/><rect x="55.9" y="120.39" width="4.3" height="4.3" fill="#1b0003"/><rect x="55.9" y="116.09" width="4.3" height="4.3" fill="#6a87af"/><rect x="55.9" y="111.79" width="4.3" height="4.3" fill="#1b0003"/><rect x="55.9" y="107.49" width="4.3" height="4.3" fill="#a84a24"/><rect x="55.9" y="103.19" width="4.3" height="4.3" fill="#e86f3f"/><rect x="55.9" y="98.89" width="4.3" height="4.3" fill="#a84a24"/><rect x="55.9" y="94.59" width="4.3" height="4.3" fill="#e86f3f"/><rect x="55.9" y="90.29" width="4.3" height="4.3" fill="#e86f3f"/><rect x="55.9" y="85.99" width="4.3" height="4.3" fill="#e86f3f"/><rect x="55.9" y="81.69" width="4.3" height="4.3" fill="#ef8741"/><rect x="55.9" y="77.39" width="4.3" height="4.3" fill="#ef8741"/><rect x="55.9" y="73.09" width="4.3" height="4.3" fill="#ef8741"/><rect x="55.9" y="68.79" width="4.3" height="4.3" fill="#ef8741"/><rect x="55.9" y="64.49" width="4.3" height="4.3" fill="#fa9c5c"/><rect x="55.9" y="60.2" width="4.3" height="4.3" fill="#fa9c5c"/><rect x="55.9" y="55.9" width="4.3" height="4.3" fill="#fa9c5c"/><rect x="55.9" y="51.6" width="4.3" height="4.3" fill="#fa9c5c"/><rect x="55.9" y="47.3" width="4.3" height="4.3" fill="#fa9c5c"/><rect x="55.9" y="43" width="4.3" height="4.3" fill="#fa9c5c"/><rect x="55.9" y="38.7" width="4.3" height="4.3" fill="#fa9c5c"/><rect x="55.9" y="34.4" width="4.3" height="4.3" fill="#fa9c5c"/><rect x="55.9" y="30.1" width="4.3" height="4.3" fill="#fa9c5c"/><rect x="55.9" y="25.8" width="4.3" height="4.3" fill="#fa9c5c"/><rect x="55.9" y="21.5" width="4.3" height="4.3" fill="#fa9c5c"/><rect x="55.9" y="17.2" width="4.3" height="4.3" fill="#fa9c5c"/><rect x="55.9" y="12.9" width="4.3" height="4.3" fill="#fa9c5c"/><rect x="55.9" y="8.6" width="4.3" height="4.3" fill="#1b0003"/><rect x="55.9" y="4.3" width="4.3" height="4.3" fill="#cfefff"/><rect x="55.9" width="4.3" height="4.3" fill="#1b0003"/><rect x="51.6" y="120.39" width="4.3" height="4.3" fill="#1b0003"/><rect x="51.6" y="116.09" width="4.3" height="4.3" fill="#6a87af"/><rect x="51.6" y="111.79" width="4.3" height="4.3" fill="#1b0003"/><rect x="51.6" y="107.49" width="4.3" height="4.3" fill="#a84a24"/><rect x="51.6" y="103.19" width="4.3" height="4.3" fill="#a84a24"/><rect x="51.6" y="98.89" width="4.3" height="4.3" fill="#e86f3f"/><rect x="51.6" y="94.59" width="4.3" height="4.3" fill="#a84a24"/><rect x="51.6" y="90.29" width="4.3" height="4.3" fill="#e86f3f"/><rect x="51.6" y="85.99" width="4.3" height="4.3" fill="#e86f3f"/><rect x="51.6" y="81.69" width="4.3" height="4.3" fill="#ef8741"/><rect x="51.6" y="77.39" width="4.3" height="4.3" fill="#ef8741"/><rect x="51.6" y="73.09" width="4.3" height="4.3" fill="#ef8741"/><rect x="51.6" y="68.79" width="4.3" height="4.3" fill="#ef8741"/><rect x="51.6" y="64.49" width="4.3" height="4.3" fill="#ef8741"/><rect x="51.6" y="60.2" width="4.3" height="4.3" fill="#ef8741"/><rect x="51.6" y="55.9" width="4.3" height="4.3" fill="#fa9c5c"/><rect x="51.6" y="51.6" width="4.3" height="4.3" fill="#fa9c5c"/><rect x="51.6" y="47.3" width="4.3" height="4.3" fill="#fa9c5c"/><rect x="51.6" y="43" width="4.3" height="4.3" fill="#fa9c5c"/><rect x="51.6" y="38.7" width="4.3" height="4.3" fill="#fa9c5c"/><rect x="51.6" y="34.4" width="4.3" height="4.3" fill="#fa9c5c"/><rect x="51.6" y="30.1" width="4.3" height="4.3" fill="#fa9c5c"/><rect x="51.6" y="25.8" width="4.3" height="4.3" fill="#fa9c5c"/><rect x="51.6" y="21.5" width="4.3" height="4.3" fill="#fa9c5c"/><rect x="51.6" y="17.2" width="4.3" height="4.3" fill="#fa9c5c"/><rect x="51.6" y="12.9" width="4.3" height="4.3" fill="#fa9c5c"/><rect x="51.6" y="8.6" width="4.3" height="4.3" fill="#1b0003"/><rect x="51.6" y="4.3" width="4.3" height="4.3" fill="#cfefff"/><rect x="51.6" width="4.3" height="4.3" fill="#1b0003"/><rect x="47.3" y="120.39" width="4.3" height="4.3" fill="#1b0003"/><rect x="47.3" y="116.09" width="4.3" height="4.3" fill="#6a87af"/><rect x="47.3" y="111.79" width="4.3" height="4.3" fill="#1b0003"/><rect x="47.3" y="107.49" width="4.3" height="4.3" fill="#a84a24"/><rect x="47.3" y="103.19" width="4.3" height="4.3" fill="#a84a24"/><rect x="47.3" y="98.89" width="4.3" height="4.3" fill="#a84a24"/><rect x="47.3" y="94.59" width="4.3" height="4.3" fill="#a84a24"/><rect x="47.3" y="90.29" width="4.3" height="4.3" fill="#a84a24"/><rect x="47.3" y="85.99" width="4.3" height="4.3" fill="#a84a24"/><rect x="47.3" y="81.69" width="4.3" height="4.3" fill="#a84a24"/><rect x="47.3" y="77.39" width="4.3" height="4.3" fill="#a84a24"/><rect x="47.3" y="73.09" width="4.3" height="4.3" fill="#a84a24"/><rect x="47.3" y="68.79" width="4.3" height="4.3" fill="#a84a24"/><rect x="47.3" y="64.49" width="4.3" height="4.3" fill="#a84a24"/><rect x="47.3" y="60.2" width="4.3" height="4.3" fill="#a84a24"/><rect x="47.3" y="55.9" width="4.3" height="4.3" fill="#a84a24"/><rect x="47.3" y="51.6" width="4.3" height="4.3" fill="#a84a24"/><rect x="47.3" y="47.3" width="4.3" height="4.3" fill="#a84a24"/><rect x="47.3" y="43" width="4.3" height="4.3" fill="#a84a24"/><rect x="47.3" y="38.7" width="4.3" height="4.3" fill="#a84a24"/><rect x="47.3" y="34.4" width="4.3" height="4.3" fill="#a84a24"/><rect x="47.3" y="30.1" width="4.3" height="4.3" fill="#a84a24"/><rect x="47.3" y="25.8" width="4.3" height="4.3" fill="#a84a24"/><rect x="47.3" y="21.5" width="4.3" height="4.3" fill="#a84a24"/><rect x="47.3" y="17.2" width="4.3" height="4.3" fill="#a84a24"/><rect x="47.3" y="12.9" width="4.3" height="4.3" fill="#a84a24"/><rect x="47.3" y="8.6" width="4.3" height="4.3" fill="#1b0003"/><rect x="47.3" y="4.3" width="4.3" height="4.3" fill="#cfefff"/><rect x="47.3" width="4.3" height="4.3" fill="#1b0003"/><rect x="43" y="120.39" width="4.3" height="4.3" fill="#1b0003"/><rect x="43" y="116.09" width="4.3" height="4.3" fill="#6a87af"/><rect x="43" y="111.79" width="4.3" height="4.3" fill="#1b0003"/><rect x="43" y="107.49" width="4.3" height="4.3" fill="#a84a24"/><rect x="43" y="103.19" width="4.3" height="4.3" fill="#a84a24"/><rect x="43" y="98.89" width="4.3" height="4.3" fill="#e86f3f"/><rect x="43" y="94.59" width="4.3" height="4.3" fill="#a84a24"/><rect x="43" y="90.29" width="4.3" height="4.3" fill="#e86f3f"/><rect x="43" y="85.99" width="4.3" height="4.3" fill="#e86f3f"/><rect x="43" y="81.69" width="4.3" height="4.3" fill="#e86f3f"/><rect x="43" y="77.39" width="4.3" height="4.3" fill="#ef8741"/><rect x="43" y="73.09" width="4.3" height="4.3" fill="#ef8741"/><rect x="43" y="68.79" width="4.3" height="4.3" fill="#ef8741"/><rect x="43" y="64.49" width="4.3" height="4.3" fill="#fa9c5c"/><rect x="43" y="60.2" width="4.3" height="4.3" fill="#fa9c5c"/><rect x="43" y="55.9" width="4.3" height="4.3" fill="#fa9c5c"/><rect x="43" y="51.6" width="4.3" height="4.3" fill="#fa9c5c"/><rect x="43" y="47.3" width="4.3" height="4.3" fill="#fa9c5c"/><rect x="43" y="43" width="4.3" height="4.3" fill="#fa9c5c"/><rect x="43" y="38.7" width="4.3" height="4.3" fill="#fa9c5c"/><rect x="43" y="34.4" width="4.3" height="4.3" fill="#fa9c5c"/><rect x="43" y="30.1" width="4.3" height="4.3" fill="#fa9c5c"/><rect x="43" y="25.8" width="4.3" height="4.3" fill="#fa9c5c"/><rect x="43" y="21.5" width="4.3" height="4.3" fill="#fa9c5c"/><rect x="43" y="17.2" width="4.3" height="4.3" fill="#fa9c5c"/><rect x="43" y="12.9" width="4.3" height="4.3" fill="#fa9c5c"/><rect x="43" y="8.6" width="4.3" height="4.3" fill="#1b0003"/><rect x="43" y="4.3" width="4.3" height="4.3" fill="#cfefff"/><rect x="43" width="4.3" height="4.3" fill="#1b0003"/><rect x="38.7" y="120.39" width="4.3" height="4.3" fill="#1b0003"/><rect x="38.7" y="116.09" width="4.3" height="4.3" fill="#6a87af"/><rect x="38.7" y="111.79" width="4.3" height="4.3" fill="#223c5b"/><rect x="38.7" y="107.49" width="4.3" height="4.3" fill="#1b0003"/><rect x="38.7" y="103.19" width="4.3" height="4.3" fill="#a84a24"/><rect x="38.7" y="98.89" width="4.3" height="4.3" fill="#a84a24"/><rect x="38.7" y="94.59" width="4.3" height="4.3" fill="#e86f3f"/><rect x="38.7" y="90.29" width="4.3" height="4.3" fill="#a84a24"/><rect x="38.7" y="85.99" width="4.3" height="4.3" fill="#e86f3f"/><rect x="38.7" y="81.69" width="4.3" height="4.3" fill="#e86f3f"/><rect x="38.7" y="77.39" width="4.3" height="4.3" fill="#e86f3f"/><rect x="38.7" y="73.09" width="4.3" height="4.3" fill="#ef8741"/><rect x="38.7" y="68.79" width="4.3" height="4.3" fill="#ef8741"/><rect x="38.7" y="64.49" width="4.3" height="4.3" fill="#ef8741"/><rect x="38.7" y="60.2" width="4.3" height="4.3" fill="#fa9c5c"/><rect x="38.7" y="55.9" width="4.3" height="4.3" fill="#fa9c5c"/><rect x="38.7" y="51.6" width="4.3" height="4.3" fill="#fa9c5c"/><rect x="38.7" y="47.3" width="4.3" height="4.3" fill="#fa9c5c"/><rect x="38.7" y="43" width="4.3" height="4.3" fill="#fa9c5c"/><rect x="38.7" y="38.7" width="4.3" height="4.3" fill="#fa9c5c"/><rect x="38.7" y="34.4" width="4.3" height="4.3" fill="#fa9c5c"/><rect x="38.7" y="30.1" width="4.3" height="4.3" fill="#fa9c5c"/><rect x="38.7" y="25.8" width="4.3" height="4.3" fill="#fa9c5c"/><rect x="38.7" y="21.5" width="4.3" height="4.3" fill="#fa9c5c"/><rect x="38.7" y="17.2" width="4.3" height="4.3" fill="#fa9c5c"/><rect x="38.7" y="12.9" width="4.3" height="4.3" fill="#1b0003"/><rect x="38.7" y="8.6" width="4.3" height="4.3" fill="#97bcd6"/><rect x="38.7" y="4.3" width="4.3" height="4.3" fill="#cfefff"/><rect x="38.7" width="4.3" height="4.3" fill="#1b0003"/><rect x="34.4" y="116.09" width="4.3" height="4.3" fill="#1b0003"/><rect x="34.4" y="111.79" width="4.3" height="4.3" fill="#223c5b"/><rect x="34.4" y="107.49" width="4.3" height="4.3" fill="#1b0003"/><rect x="34.4" y="103.19" width="4.3" height="4.3" fill="#a84a24"/><rect x="34.4" y="98.89" width="4.3" height="4.3" fill="#a84a24"/><rect x="34.4" y="94.59" width="4.3" height="4.3" fill="#a84a24"/><rect x="34.4" y="90.29" width="4.3" height="4.3" fill="#e86f3f"/><rect x="34.4" y="85.99" width="4.3" height="4.3" fill="#a84a24"/><rect x="34.4" y="81.69" width="4.3" height="4.3" fill="#e86f3f"/><rect x="34.4" y="77.39" width="4.3" height="4.3" fill="#e86f3f"/><rect x="34.4" y="73.09" width="4.3" height="4.3" fill="#ef8741"/><rect x="34.4" y="68.79" width="4.3" height="4.3" fill="#ef8741"/><rect x="34.4" y="64.49" width="4.3" height="4.3" fill="#ef8741"/><rect x="34.4" y="60.2" width="4.3" height="4.3" fill="#ef8741"/><rect x="34.4" y="55.9" width="4.3" height="4.3" fill="#ef8741"/><rect x="34.4" y="51.6" width="4.3" height="4.3" fill="#ef8741"/><rect x="34.4" y="47.3" width="4.3" height="4.3" fill="#ef8741"/><rect x="34.4" y="43" width="4.3" height="4.3" fill="#fa9c5c"/><rect x="34.4" y="38.7" width="4.3" height="4.3" fill="#fa9c5c"/><rect x="34.4" y="34.4" width="4.3" height="4.3" fill="#fa9c5c"/><rect x="34.4" y="30.1" width="4.3" height="4.3" fill="#fa9c5c"/><rect x="34.4" y="25.8" width="4.3" height="4.3" fill="#fa9c5c"/><rect x="34.4" y="21.5" width="4.3" height="4.3" fill="#fa9c5c"/><rect x="34.4" y="17.2" width="4.3" height="4.3" fill="#fa9c5c"/><rect x="34.4" y="12.9" width="4.3" height="4.3" fill="#1b0003"/><rect x="34.4" y="8.6" width="4.3" height="4.3" fill="#97bcd6"/><rect x="34.4" y="4.3" width="4.3" height="4.3" fill="#cfefff"/><rect x="34.4" width="4.3" height="4.3" fill="#1b0003"/><rect x="30.1" y="116.09" width="4.3" height="4.3" fill="#1b0003"/><rect x="30.1" y="111.79" width="4.3" height="4.3" fill="#6a87af"/><rect x="30.1" y="107.49" width="4.3" height="4.3" fill="#223c5b"/><rect x="30.1" y="103.19" width="4.3" height="4.3" fill="#1b0003"/><rect x="30.1" y="98.89" width="4.3" height="4.3" fill="#a84a24"/><rect x="30.1" y="94.59" width="4.3" height="4.3" fill="#a84a24"/><rect x="30.1" y="90.29" width="4.3" height="4.3" fill="#a84a24"/><rect x="30.1" y="85.99" width="4.3" height="4.3" fill="#a84a24"/><rect x="30.1" y="81.69" width="4.3" height="4.3" fill="#a84a24"/><rect x="30.1" y="77.39" width="4.3" height="4.3" fill="#a84a24"/><rect x="30.1" y="73.09" width="4.3" height="4.3" fill="#a84a24"/><rect x="30.1" y="68.79" width="4.3" height="4.3" fill="#a84a24"/><rect x="30.1" y="64.49" width="4.3" height="4.3" fill="#a84a24"/><rect x="30.1" y="60.2" width="4.3" height="4.3" fill="#a84a24"/><rect x="30.1" y="55.9" width="4.3" height="4.3" fill="#a84a24"/><rect x="30.1" y="51.6" width="4.3" height="4.3" fill="#a84a24"/><rect x="30.1" y="47.3" width="4.3" height="4.3" fill="#a84a24"/><rect x="30.1" y="43" width="4.3" height="4.3" fill="#a84a24"/><rect x="30.1" y="38.7" width="4.3" height="4.3" fill="#a84a24"/><rect x="30.1" y="34.4" width="4.3" height="4.3" fill="#a84a24"/><rect x="30.1" y="30.1" width="4.3" height="4.3" fill="#a84a24"/><rect x="30.1" y="25.8" width="4.3" height="4.3" fill="#a84a24"/><rect x="30.1" y="21.5" width="4.3" height="4.3" fill="#a84a24"/><rect x="30.1" y="17.2" width="4.3" height="4.3" fill="#1b0003"/><rect x="30.1" y="12.9" width="4.3" height="4.3" fill="#97bcd6"/><rect x="30.1" y="8.6" width="4.3" height="4.3" fill="#cfefff"/><rect x="30.1" y="4.3" width="4.3" height="4.3" fill="#1b0003"/><rect x="25.8" y="111.79" width="4.3" height="4.3" fill="#1b0003"/><rect x="25.8" y="107.49" width="4.3" height="4.3" fill="#6a87af"/><rect x="25.8" y="103.19" width="4.3" height="4.3" fill="#223c5b"/><rect x="25.8" y="98.89" width="4.3" height="4.3" fill="#1b0003"/><rect x="25.8" y="94.59" width="4.3" height="4.3" fill="#a84a24"/><rect x="25.8" y="90.29" width="4.3" height="4.3" fill="#a84a24"/><rect x="25.8" y="85.99" width="4.3" height="4.3" fill="#a84a24"/><rect x="25.8" y="81.69" width="4.3" height="4.3" fill="#a84a24"/><rect x="25.8" y="77.39" width="4.3" height="4.3" fill="#e86f3f"/><rect x="25.8" y="73.09" width="4.3" height="4.3" fill="#ef8741"/><rect x="25.8" y="68.79" width="4.3" height="4.3" fill="#ef8741"/><rect x="25.8" y="64.49" width="4.3" height="4.3" fill="#ef8741"/><rect x="25.8" y="60.2" width="4.3" height="4.3" fill="#fa9c5c"/><rect x="25.8" y="55.9" width="4.3" height="4.3" fill="#fa9c5c"/><rect x="25.8" y="51.6" width="4.3" height="4.3" fill="#fa9c5c"/><rect x="25.8" y="47.3" width="4.3" height="4.3" fill="#fa9c5c"/><rect x="25.8" y="43" width="4.3" height="4.3" fill="#fa9c5c"/><rect x="25.8" y="38.7" width="4.3" height="4.3" fill="#fa9c5c"/><rect x="25.8" y="34.4" width="4.3" height="4.3" fill="#fa9c5c"/><rect x="25.8" y="30.1" width="4.3" height="4.3" fill="#fa9c5c"/><rect x="25.8" y="25.8" width="4.3" height="4.3" fill="#fa9c5c"/><rect x="25.8" y="21.5" width="4.3" height="4.3" fill="#1b0003"/><rect x="25.8" y="17.2" width="4.3" height="4.3" fill="#97bcd6"/><rect x="25.8" y="12.9" width="4.3" height="4.3" fill="#97bcd6"/><rect x="25.8" y="8.6" width="4.3" height="4.3" fill="#cfefff"/><rect x="25.8" y="4.3" width="4.3" height="4.3" fill="#1b0003"/><rect x="21.5" y="111.79" width="4.3" height="4.3" fill="#1b0003"/><rect x="21.5" y="107.49" width="4.3" height="4.3" fill="#6a87af"/><rect x="21.5" y="103.19" width="4.3" height="4.3" fill="#6a87af"/><rect x="21.5" y="98.89" width="4.3" height="4.3" fill="#223c5b"/><rect x="21.5" y="94.59" width="4.3" height="4.3" fill="#1b0003"/><rect x="21.5" y="90.29" width="4.3" height="4.3" fill="#a84a24"/><rect x="21.5" y="85.99" width="4.3" height="4.3" fill="#a84a24"/><rect x="21.5" y="81.69" width="4.3" height="4.3" fill="#a84a24"/><rect x="21.5" y="77.39" width="4.3" height="4.3" fill="#e86f3f"/><rect x="21.5" y="73.09" width="4.3" height="4.3" fill="#e86f3f"/><rect x="21.5" y="68.79" width="4.3" height="4.3" fill="#ef8741"/><rect x="21.5" y="64.49" width="4.3" height="4.3" fill="#ef8741"/><rect x="21.5" y="60.2" width="4.3" height="4.3" fill="#ef8741"/><rect x="21.5" y="55.9" width="4.3" height="4.3" fill="#ef8741"/><rect x="21.5" y="51.6" width="4.3" height="4.3" fill="#ef8741"/><rect x="21.5" y="47.3" width="4.3" height="4.3" fill="#ef8741"/><rect x="21.5" y="43" width="4.3" height="4.3" fill="#fa9c5c"/><rect x="21.5" y="38.7" width="4.3" height="4.3" fill="#fa9c5c"/><rect x="21.5" y="34.4" width="4.3" height="4.3" fill="#fa9c5c"/><rect x="21.5" y="30.1" width="4.3" height="4.3" fill="#fa9c5c"/><rect x="21.5" y="25.8" width="4.3" height="4.3" fill="#1b0003"/><rect x="21.5" y="21.5" width="4.3" height="4.3" fill="#97bcd6"/><rect x="21.5" y="17.2" width="4.3" height="4.3" fill="#97bcd6"/><rect x="21.5" y="12.9" width="4.3" height="4.3" fill="#cfefff"/><rect x="21.5" y="8.6" width="4.3" height="4.3" fill="#1b0003"/><rect x="17.2" y="107.49" width="4.3" height="4.3" fill="#1b0003"/><rect x="17.2" y="103.19" width="4.3" height="4.3" fill="#6a87af"/><rect x="17.2" y="98.89" width="4.3" height="4.3" fill="#6a87af"/><rect x="17.2" y="94.59" width="4.3" height="4.3" fill="#223c5b"/><rect x="17.2" y="90.29" width="4.3" height="4.3" fill="#1b0003"/><rect x="17.2" y="85.99" width="4.3" height="4.3" fill="#a84a24"/><rect x="17.2" y="81.69" width="4.3" height="4.3" fill="#a84a24"/><rect x="17.2" y="77.39" width="4.3" height="4.3" fill="#a84a24"/><rect x="17.2" y="73.09" width="4.3" height="4.3" fill="#a84a24"/><rect x="17.2" y="68.79" width="4.3" height="4.3" fill="#a84a24"/><rect x="17.2" y="64.49" width="4.3" height="4.3" fill="#a84a24"/><rect x="17.2" y="60.2" width="4.3" height="4.3" fill="#a84a24"/><rect x="17.2" y="55.9" width="4.3" height="4.3" fill="#a84a24"/><rect x="17.2" y="51.6" width="4.3" height="4.3" fill="#a84a24"/><rect x="17.2" y="47.3" width="4.3" height="4.3" fill="#a84a24"/><rect x="17.2" y="43" width="4.3" height="4.3" fill="#a84a24"/><rect x="17.2" y="38.7" width="4.3" height="4.3" fill="#a84a24"/><rect x="17.2" y="34.4" width="4.3" height="4.3" fill="#a84a24"/><rect x="17.2" y="30.1" width="4.3" height="4.3" fill="#1b0003"/><rect x="17.2" y="25.8" width="4.3" height="4.3" fill="#85a1c9"/><rect x="17.2" y="21.5" width="4.3" height="4.3" fill="#97bcd6"/><rect x="17.2" y="17.2" width="4.3" height="4.3" fill="#cfefff"/><rect x="17.2" y="12.9" width="4.3" height="4.3" fill="#1b0003"/><rect x="12.9" y="103.19" width="4.3" height="4.3" fill="#1b0003"/><rect x="12.9" y="98.89" width="4.3" height="4.3" fill="#6a87af"/><rect x="12.9" y="94.59" width="4.3" height="4.3" fill="#6a87af"/><rect x="12.9" y="90.29" width="4.3" height="4.3" fill="#223c5b"/><rect x="12.9" y="85.99" width="4.3" height="4.3" fill="#1b0003"/><rect x="12.9" y="81.69" width="4.3" height="4.3" fill="#1b0003"/><rect x="12.9" y="77.39" width="4.3" height="4.3" fill="#a84a24"/><rect x="12.9" y="73.09" width="4.3" height="4.3" fill="#a84a24"/><rect x="12.9" y="68.79" width="4.3" height="4.3" fill="#e86f3f"/><rect x="12.9" y="64.49" width="4.3" height="4.3" fill="#e86f3f"/><rect x="12.9" y="60.2" width="4.3" height="4.3" fill="#ef8741"/><rect x="12.9" y="55.9" width="4.3" height="4.3" fill="#ef8741"/><rect x="12.9" y="51.6" width="4.3" height="4.3" fill="#ef8741"/><rect x="12.9" y="47.3" width="4.3" height="4.3" fill="#fa9c5c"/><rect x="12.9" y="43" width="4.3" height="4.3" fill="#fa9c5c"/><rect x="12.9" y="38.7" width="4.3" height="4.3" fill="#1b0003"/><rect x="12.9" y="34.4" width="4.3" height="4.3" fill="#1b0003"/><rect x="12.9" y="30.1" width="4.3" height="4.3" fill="#85a1c9"/><rect x="12.9" y="25.8" width="4.3" height="4.3" fill="#85a1c9"/><rect x="12.9" y="21.5" width="4.3" height="4.3" fill="#cfefff"/><rect x="12.9" y="17.2" width="4.3" height="4.3" fill="#1b0003"/><rect x="8.6" y="98.89" width="4.3" height="4.3" fill="#1b0003"/><rect x="8.6" y="94.59" width="4.3" height="4.3" fill="#1b0003"/><rect x="8.6" y="90.29" width="4.3" height="4.3" fill="#6a87af"/><rect x="8.6" y="85.99" width="4.3" height="4.3" fill="#6a87af"/><rect x="8.6" y="81.69" width="4.3" height="4.3" fill="#223c5b"/><rect x="8.6" y="77.39" width="4.3" height="4.3" fill="#1b0003"/><rect x="8.6" y="73.09" width="4.3" height="4.3" fill="#1b0003"/><rect x="8.6" y="68.79" width="4.3" height="4.3" fill="#1b0003"/><rect x="8.6" y="64.49" width="4.3" height="4.3" fill="#1b0003"/><rect x="8.6" y="60.2" width="4.3" height="4.3" fill="#1b0003"/><rect x="8.6" y="55.9" width="4.3" height="4.3" fill="#1b0003"/><rect x="8.6" y="51.6" width="4.3" height="4.3" fill="#1b0003"/><rect x="8.6" y="47.3" width="4.3" height="4.3" fill="#1b0003"/><rect x="8.6" y="43" width="4.3" height="4.3" fill="#1b0003"/><rect x="8.6" y="38.7" width="4.3" height="4.3" fill="#85a1c9"/><rect x="8.6" y="34.4" width="4.3" height="4.3" fill="#85a1c9"/><rect x="8.6" y="30.1" width="4.3" height="4.3" fill="#97bcd6"/><rect x="8.6" y="25.8" width="4.3" height="4.3" fill="#97bcd6"/><rect x="8.6" y="21.5" width="4.3" height="4.3" fill="#1b0003"/><rect x="4.3" y="90.29" width="4.3" height="4.3" fill="#1b0003"/><rect x="4.3" y="85.99" width="4.3" height="4.3" fill="#1b0003"/><rect x="4.3" y="81.69" width="4.3" height="4.3" fill="#6a87af"/><rect x="4.3" y="77.39" width="4.3" height="4.3" fill="#6a87af"/><rect x="4.3" y="73.09" width="4.3" height="4.3" fill="#6a87af"/><rect x="4.3" y="68.79" width="4.3" height="4.3" fill="#6a87af"/><rect x="4.3" y="64.49" width="4.3" height="4.3" fill="#6a87af"/><rect x="4.3" y="60.2" width="4.3" height="4.3" fill="#6a87af"/><rect x="4.3" y="55.9" width="4.3" height="4.3" fill="#85a1c9"/><rect x="4.3" y="51.6" width="4.3" height="4.3" fill="#85a1c9"/><rect x="4.3" y="47.3" width="4.3" height="4.3" fill="#85a1c9"/><rect x="4.3" y="43" width="4.3" height="4.3" fill="#85a1c9"/><rect x="4.3" y="38.7" width="4.3" height="4.3" fill="#85a1c9"/><rect x="4.3" y="34.4" width="4.3" height="4.3" fill="#97bcd6"/><rect x="4.3" y="30.1" width="4.3" height="4.3" fill="#1b0003"/><rect x="4.3" y="25.8" width="4.3" height="4.3" fill="#1b0003"/><rect y="81.69" width="4.3" height="4.3" fill="#1b0003"/><rect y="77.39" width="4.3" height="4.3" fill="#1b0003"/><rect y="73.09" width="4.3" height="4.3" fill="#1b0003"/><rect y="68.79" width="4.3" height="4.3" fill="#1b0003"/><rect y="64.49" width="4.3" height="4.3" fill="#1b0003"/><rect y="60.2" width="4.3" height="4.3" fill="#1b0003"/><rect y="55.9" width="4.3" height="4.3" fill="#1b0003"/><rect y="51.6" width="4.3" height="4.3" fill="#1b0003"/><rect y="47.3" width="4.3" height="4.3" fill="#1b0003"/><rect y="43" width="4.3" height="4.3" fill="#1b0003"/><rect y="38.7" width="4.3" height="4.3" fill="#1b0003"/><rect y="34.4" width="4.3" height="4.3" fill="#1b0003"/></g></g></g></svg>