<svg xmlns="http://www.w3.org/2000/svg" width="134.36" height="121.35" viewBox="0 0 134.36 121.35"><g id="Layer_2" data-name="Layer 2"><g id="items"><g id="Silver_Key" data-name="Silver Key"><rect y="95.35" width="4.33" height="4.33" fill="#1b0003"/><rect x="4.33" y="99.68" width="4.33" height="4.33" fill="#1b0003"/><rect x="4.33" y="95.35" width="4.33" height="4.33" fill="#223c5b"/><rect x="4.33" y="91.01" width="4.33" height="4.33" fill="#1b0003"/><rect x="8.67" y="104.02" width="4.33" height="4.33" fill="#1b0003"/><rect x="8.67" y="99.68" width="4.33" height="4.33" fill="#223c5b"/><rect x="8.67" y="95.35" width="4.33" height="4.33" fill="#223c5b"/><rect x="8.67" y="91.01" width="4.33" height="4.33" fill="#cfefff"/><rect x="8.67" y="86.68" width="4.33" height="4.33" fill="#1b0003"/><rect x="13" y="108.35" width="4.33" height="4.33" fill="#1b0003"/><rect x="13" y="104.02" width="4.33" height="4.33" fill="#223c5b"/><rect x="13" y="99.68" width="4.33" height="4.33" fill="#223c5b"/><rect x="13" y="95.35" width="4.33" height="4.33" fill="#cfefff"/><rect x="13" y="91.01" width="4.33" height="4.33" fill="#1b0003"/><rect x="13" y="82.35" width="4.33" height="4.33" fill="#1b0003"/><rect x="17.34" y="112.69" width="4.33" height="4.33" fill="#1b0003"/><rect x="17.34" y="108.35" width="4.33" height="4.33" fill="#223c5b"/><rect x="17.34" y="104.02" width="4.33" height="4.33" fill="#223c5b"/><rect x="17.34" y="99.68" width="4.33" height="4.33" fill="#cfefff"/><rect x="17.34" y="95.35" width="4.33" height="4.33" fill="#1b0003"/><rect x="17.34" y="86.68" width="4.33" height="4.33" fill="#1b0003"/><rect x="17.34" y="82.35" width="4.33" height="4.33" fill="#223c5b"/><rect x="17.34" y="78.01" width="4.33" height="4.33" fill="#1b0003"/><rect x="21.67" y="117.02" width="4.33" height="4.33" fill="#1b0003"/><rect x="21.67" y="112.69" width="4.33" height="4.33" fill="#223c5b"/><rect x="21.67" y="108.35" width="4.33" height="4.33" fill="#223c5b"/><rect x="21.67" y="104.02" width="4.33" height="4.33" fill="#85a1c9"/><rect x="21.67" y="99.68" width="4.33" height="4.33" fill="#1b0003"/><rect x="21.67" y="91.01" width="4.33" height="4.33" fill="#1b0003"/><rect x="21.67" y="86.68" width="4.33" height="4.33" fill="#223c5b"/><rect x="21.67" y="82.35" width="4.33" height="4.33" fill="#85a1c9"/><rect x="21.67" y="78.01" width="4.33" height="4.33" fill="#cfefff"/><rect x="21.67" y="73.68" width="4.33" height="4.33" fill="#1b0003"/><rect x="26" y="112.69" width="4.33" height="4.33" fill="#1b0003"/><rect x="26" y="108.35" width="4.33" height="4.33" fill="#223c5b"/><rect x="26" y="104.02" width="4.33" height="4.33" fill="#6a87af"/><rect x="26" y="99.68" width="4.33" height="4.33" fill="#85a1c9"/><rect x="26" y="95.35" width="4.33" height="4.33" fill="#1b0003"/><rect x="26" y="91.01" width="4.33" height="4.33" fill="#223c5b"/><rect x="26" y="86.68" width="4.33" height="4.33" fill="#85a1c9"/><rect x="26" y="82.35" width="4.33" height="4.33" fill="#cfefff"/><rect x="26" y="78.01" width="4.33" height="4.33" fill="#1b0003"/><rect x="26" y="69.34" width="4.33" height="4.33" fill="#1b0003"/><rect x="30.34" y="108.35" width="4.33" height="4.33" fill="#1b0003"/><rect x="30.34" y="104.02" width="4.33" height="4.33" fill="#6a87af"/><rect x="30.34" y="99.68" width="4.33" height="4.33" fill="#6a87af"/><rect x="30.34" y="95.35" width="4.33" height="4.33" fill="#85a1c9"/><rect x="30.34" y="91.01" width="4.33" height="4.33" fill="#223c5b"/><rect x="30.34" y="86.68" width="4.33" height="4.33" fill="#cfefff"/><rect x="30.34" y="82.35" width="4.33" height="4.33" fill="#1b0003"/><rect x="30.34" y="73.68" width="4.33" height="4.33" fill="#1b0003"/><rect x="30.34" y="69.34" width="4.33" height="4.33" fill="#223c5b"/><rect x="30.34" y="65.01" width="4.33" height="4.33" fill="#1b0003"/><rect x="34.67" y="104.02" width="4.33" height="4.33" fill="#1b0003"/><rect x="34.67" y="99.68" width="4.33" height="4.33" fill="#6a87af"/><rect x="34.67" y="95.35" width="4.33" height="4.33" fill="#6a87af"/><rect x="34.67" y="91.01" width="4.33" height="4.33" fill="#85a1c9"/><rect x="34.67" y="86.68" width="4.33" height="4.33" fill="#1b0003"/><rect x="34.67" y="78.01" width="4.33" height="4.33" fill="#1b0003"/><rect x="34.67" y="73.68" width="4.33" height="4.33" fill="#223c5b"/><rect x="34.67" y="69.34" width="4.33" height="4.33" fill="#85a1c9"/><rect x="34.67" y="65.01" width="4.33" height="4.33" fill="#cfefff"/><rect x="34.67" y="60.68" width="4.33" height="4.33" fill="#1b0003"/><rect x="39.01" y="99.68" width="4.33" height="4.33" fill="#1b0003"/><rect x="39.01" y="95.35" width="4.33" height="4.33" fill="#6a87af"/><rect x="39.01" y="91.01" width="4.33" height="4.33" fill="#6a87af"/><rect x="39.01" y="86.68" width="4.33" height="4.33" fill="#85a1c9"/><rect x="39.01" y="82.35" width="4.33" height="4.33" fill="#1b0003"/><rect x="39.01" y="78.01" width="4.33" height="4.33" fill="#223c5b"/><rect x="39.01" y="73.68" width="4.33" height="4.33" fill="#85a1c9"/><rect x="39.01" y="69.34" width="4.33" height="4.33" fill="#cfefff"/><rect x="39.01" y="65.01" width="4.33" height="4.33" fill="#1b0003"/><rect x="43.34" y="95.35" width="4.33" height="4.33" fill="#1b0003"/><rect x="43.34" y="91.01" width="4.33" height="4.33" fill="#6a87af"/><rect x="43.34" y="86.68" width="4.33" height="4.33" fill="#6a87af"/><rect x="43.34" y="82.35" width="4.33" height="4.33" fill="#85a1c9"/><rect x="43.34" y="78.01" width="4.33" height="4.33" fill="#223c5b"/><rect x="43.34" y="73.68" width="4.33" height="4.33" fill="#cfefff"/><rect x="43.34" y="69.34" width="4.33" height="4.33" fill="#1b0003"/><rect x="47.67" y="91.01" width="4.33" height="4.33" fill="#1b0003"/><rect x="47.67" y="86.68" width="4.33" height="4.33" fill="#6a87af"/><rect x="47.67" y="82.35" width="4.33" height="4.33" fill="#6a87af"/><rect x="47.67" y="78.01" width="4.33" height="4.33" fill="#85a1c9"/><rect x="47.67" y="73.68" width="4.33" height="4.33" fill="#1b0003"/><rect x="52.01" y="86.68" width="4.33" height="4.33" fill="#1b0003"/><rect x="52.01" y="82.35" width="4.33" height="4.33" fill="#6a87af"/><rect x="52.01" y="78.01" width="4.33" height="4.33" fill="#6a87af"/><rect x="52.01" y="73.68" width="4.33" height="4.33" fill="#85a1c9"/><rect x="52.01" y="69.34" width="4.33" height="4.33" fill="#1b0003"/><rect x="56.34" y="82.35" width="4.33" height="4.33" fill="#1b0003"/><rect x="56.34" y="78.01" width="4.33" height="4.33" fill="#6a87af"/><rect x="56.34" y="73.68" width="4.33" height="4.33" fill="#6a87af"/><rect x="56.34" y="69.34" width="4.33" height="4.33" fill="#85a1c9"/><rect x="56.34" y="65.01" width="4.33" height="4.33" fill="#1b0003"/><rect x="60.68" y="78.01" width="4.33" height="4.33" fill="#1b0003"/><rect x="60.68" y="73.68" width="4.33" height="4.33" fill="#6a87af"/><rect x="60.68" y="69.34" width="4.33" height="4.33" fill="#6a87af"/><rect x="60.68" y="65.01" width="4.33" height="4.33" fill="#85a1c9"/><rect x="60.68" y="60.68" width="4.33" height="4.33" fill="#1b0003"/><rect x="65.01" y="73.68" width="4.33" height="4.33" fill="#1b0003"/><rect x="65.01" y="69.34" width="4.33" height="4.33" fill="#6a87af"/><rect x="65.01" y="65.01" width="4.33" height="4.33" fill="#6a87af"/><rect x="65.01" y="60.68" width="4.33" height="4.33" fill="#85a1c9"/><rect x="65.01" y="56.34" width="4.33" height="4.33" fill="#1b0003"/><rect x="69.34" y="69.34" width="4.33" height="4.33" fill="#1b0003"/><rect x="69.34" y="65.01" width="4.33" height="4.33" fill="#6a87af"/><rect x="69.34" y="60.68" width="4.33" height="4.33" fill="#6a87af"/><rect x="69.34" y="56.34" width="4.33" height="4.33" fill="#cfefff"/><rect x="69.34" y="52.01" width="4.33" height="4.33" fill="#1b0003"/><rect x="69.34" y="39.01" width="4.33" height="4.33" fill="#1b0003"/><rect x="69.34" y="34.67" width="4.33" height="4.33" fill="#1b0003"/><rect x="69.34" y="30.34" width="4.33" height="4.33" fill="#1b0003"/><rect x="69.34" y="26" width="4.33" height="4.33" fill="#1b0003"/><rect x="69.34" y="21.67" width="4.33" height="4.33" fill="#1b0003"/><rect x="73.68" y="65.01" width="4.33" height="4.33" fill="#1b0003"/><rect x="73.68" y="60.68" width="4.33" height="4.33" fill="#6a87af"/><rect x="73.68" y="56.34" width="4.33" height="4.33" fill="#6a87af"/><rect x="73.68" y="52.01" width="4.33" height="4.33" fill="#cfefff"/><rect x="73.68" y="47.67" width="4.33" height="4.33" fill="#1b0003"/><rect x="73.68" y="43.34" width="4.33" height="4.33" fill="#1b0003"/><rect x="73.68" y="39.01" width="4.33" height="4.33" fill="#223c5b"/><rect x="73.68" y="34.67" width="4.33" height="4.33" fill="#223c5b"/><rect x="73.68" y="30.34" width="4.33" height="4.33" fill="#223c5b"/><rect x="73.68" y="26" width="4.33" height="4.33" fill="#223c5b"/><rect x="73.68" y="21.67" width="4.33" height="4.33" fill="#223c5b"/><rect x="73.68" y="17.34" width="4.33" height="4.33" fill="#1b0003"/><rect x="73.68" y="13" width="4.33" height="4.33" fill="#1b0003"/><rect x="78.01" y="60.68" width="4.33" height="4.33" fill="#1b0003"/><rect x="78.01" y="56.34" width="4.33" height="4.33" fill="#6a87af"/><rect x="78.01" y="52.01" width="4.33" height="4.33" fill="#6a87af"/><rect x="78.01" y="47.67" width="4.33" height="4.33" fill="#6a87af"/><rect x="78.01" y="43.34" width="4.33" height="4.33" fill="#223c5b"/><rect x="78.01" y="39.01" width="4.33" height="4.33" fill="#cfefff"/><rect x="78.01" y="34.67" width="4.33" height="4.33" fill="#cfefff"/><rect x="78.01" y="30.34" width="4.33" height="4.33" fill="#cfefff"/><rect x="78.01" y="26" width="4.33" height="4.33" fill="#6a87af"/><rect x="78.01" y="21.67" width="4.33" height="4.33" fill="#6a87af"/><rect x="78.01" y="17.34" width="4.33" height="4.33" fill="#85a1c9"/><rect x="78.01" y="13" width="4.33" height="4.33" fill="#85a1c9"/><rect x="78.01" y="8.67" width="4.33" height="4.33" fill="#1b0003"/><rect x="82.35" y="56.34" width="4.33" height="4.33" fill="#1b0003"/><rect x="82.35" y="52.01" width="4.33" height="4.33" fill="#223c5b"/><rect x="82.35" y="47.67" width="4.33" height="4.33" fill="#6a87af"/><rect x="82.35" y="43.34" width="4.33" height="4.33" fill="#cfefff"/><rect x="82.35" y="39.01" width="4.33" height="4.33" fill="#1b0003"/><rect x="82.35" y="34.67" width="4.33" height="4.33" fill="#1b0003"/><rect x="82.35" y="30.34" width="4.33" height="4.33" fill="#1b0003"/><rect x="82.35" y="26" width="4.33" height="4.33" fill="#1b0003"/><rect x="82.35" y="21.67" width="4.33" height="4.33" fill="#1b0003"/><rect x="82.35" y="17.34" width="4.33" height="4.33" fill="#85a1c9"/><rect x="82.35" y="13" width="4.33" height="4.33" fill="#85a1c9"/><rect x="82.35" y="8.67" width="4.33" height="4.33" fill="#85a1c9"/><rect x="82.35" y="4.33" width="4.33" height="4.33" fill="#1b0003"/><rect x="86.68" y="56.34" width="4.33" height="4.33" fill="#1b0003"/><rect x="86.68" y="52.01" width="4.33" height="4.33" fill="#223c5b"/><rect x="86.68" y="47.67" width="4.33" height="4.33" fill="#cfefff"/><rect x="86.68" y="43.34" width="4.33" height="4.33" fill="#1b0003"/><rect x="86.68" y="17.34" width="4.33" height="4.33" fill="#1b0003"/><rect x="86.68" y="13" width="4.33" height="4.33" fill="#85a1c9"/><rect x="86.68" y="8.67" width="4.33" height="4.33" fill="#85a1c9"/><rect x="86.68" y="4.33" width="4.33" height="4.33" fill="#1b0003"/><rect x="91.01" y="60.68" width="4.33" height="4.33" fill="#1b0003"/><rect x="91.01" y="56.34" width="4.33" height="4.33" fill="#223c5b"/><rect x="91.01" y="52.01" width="4.33" height="4.33" fill="#cfefff"/><rect x="91.01" y="47.67" width="4.33" height="4.33" fill="#1b0003"/><rect x="91.01" y="13" width="4.33" height="4.33" fill="#1b0003"/><rect x="91.01" y="8.67" width="4.33" height="4.33" fill="#85a1c9"/><rect x="91.01" y="4.33" width="4.33" height="4.33" fill="#cfefff"/><rect x="91.01" width="4.33" height="4.33" fill="#1b0003"/><rect x="95.35" y="60.68" width="4.33" height="4.33" fill="#1b0003"/><rect x="95.35" y="56.34" width="4.33" height="4.33" fill="#223c5b"/><rect x="95.35" y="52.01" width="4.33" height="4.33" fill="#cfefff"/><rect x="95.35" y="47.67" width="4.33" height="4.33" fill="#1b0003"/><rect x="95.35" y="13" width="4.33" height="4.33" fill="#1b0003"/><rect x="95.35" y="8.67" width="4.33" height="4.33" fill="#85a1c9"/><rect x="95.35" y="4.33" width="4.33" height="4.33" fill="#cfefff"/><rect x="95.35" width="4.33" height="4.33" fill="#1b0003"/><rect x="99.68" y="60.68" width="4.33" height="4.33" fill="#1b0003"/><rect x="99.68" y="56.34" width="4.33" height="4.33" fill="#223c5b"/><rect x="99.68" y="52.01" width="4.33" height="4.33" fill="#cfefff"/><rect x="99.68" y="47.67" width="4.33" height="4.33" fill="#1b0003"/><rect x="99.68" y="13" width="4.33" height="4.33" fill="#1b0003"/><rect x="99.68" y="8.67" width="4.33" height="4.33" fill="#85a1c9"/><rect x="99.68" y="4.33" width="4.33" height="4.33" fill="#cfefff"/><rect x="99.68" width="4.33" height="4.33" fill="#1b0003"/><rect x="104.02" y="60.68" width="4.33" height="4.33" fill="#1b0003"/><rect x="104.02" y="56.34" width="4.33" height="4.33" fill="#223c5b"/><rect x="104.02" y="52.01" width="4.33" height="4.33" fill="#cfefff"/><rect x="104.02" y="47.67" width="4.33" height="4.33" fill="#1b0003"/><rect x="104.02" y="13" width="4.33" height="4.33" fill="#1b0003"/><rect x="104.02" y="8.67" width="4.33" height="4.33" fill="#85a1c9"/><rect x="104.02" y="4.33" width="4.33" height="4.33" fill="#cfefff"/><rect x="104.02" width="4.33" height="4.33" fill="#1b0003"/><rect x="108.35" y="47.67" width="4.33" height="4.33" fill="#1b0003"/><rect x="108.35" y="13" width="4.33" height="4.33" fill="#1b0003"/><rect x="108.35" y="8.67" width="4.33" height="4.33" fill="#85a1c9"/><rect x="108.35" y="4.33" width="4.33" height="4.33" fill="#cfefff"/><rect x="108.35" width="4.33" height="4.33" fill="#1b0003"/><rect x="108.35" y="60.68" width="4.33" height="4.33" fill="#1b0003"/><rect x="108.35" y="56.34" width="4.33" height="4.33" fill="#223c5b"/><rect x="108.35" y="52.01" width="4.33" height="4.33" fill="#6a87af"/><rect x="112.69" y="52.01" width="4.33" height="4.33" fill="#6a87af"/><rect x="112.69" y="47.67" width="4.33" height="4.33" fill="#6a87af"/><rect x="112.69" y="43.34" width="4.33" height="4.33" fill="#1b0003"/><rect x="112.69" y="17.34" width="4.33" height="4.33" fill="#1b0003"/><rect x="112.69" y="13" width="4.33" height="4.33" fill="#85a1c9"/><rect x="112.69" y="8.67" width="4.33" height="4.33" fill="#cfefff"/><rect x="112.69" y="4.33" width="4.33" height="4.33" fill="#1b0003"/><rect x="112.69" y="56.34" width="4.33" height="4.33" fill="#1b0003"/><rect x="117.02" y="52.01" width="4.33" height="4.33" fill="#223c5b"/><rect x="117.02" y="47.67" width="4.33" height="4.33" fill="#6a87af"/><rect x="117.02" y="43.34" width="4.33" height="4.33" fill="#85a1c9"/><rect x="117.02" y="39.01" width="4.33" height="4.33" fill="#1b0003"/><rect x="117.02" y="34.67" width="4.33" height="4.33" fill="#1b0003"/><rect x="117.02" y="30.34" width="4.33" height="4.33" fill="#1b0003"/><rect x="117.02" y="26" width="4.33" height="4.33" fill="#1b0003"/><rect x="117.02" y="21.67" width="4.33" height="4.33" fill="#1b0003"/><rect x="117.02" y="17.34" width="4.33" height="4.33" fill="#85a1c9"/><rect x="117.02" y="13" width="4.33" height="4.33" fill="#85a1c9"/><rect x="117.02" y="8.67" width="4.33" height="4.33" fill="#cfefff"/><rect x="117.02" y="4.33" width="4.33" height="4.33" fill="#1b0003"/><rect x="117.02" y="56.34" width="4.33" height="4.33" fill="#1b0003"/><rect x="121.35" y="52.01" width="4.33" height="4.33" fill="#1b0003"/><rect x="121.35" y="47.67" width="4.33" height="4.33" fill="#223c5b"/><rect x="121.35" y="43.34" width="4.33" height="4.33" fill="#85a1c9"/><rect x="121.35" y="39.01" width="4.33" height="4.33" fill="#85a1c9"/><rect x="121.35" y="34.67" width="4.33" height="4.33" fill="#85a1c9"/><rect x="121.35" y="30.34" width="4.33" height="4.33" fill="#85a1c9"/><rect x="121.35" y="26" width="4.33" height="4.33" fill="#85a1c9"/><rect x="121.35" y="21.67" width="4.33" height="4.33" fill="#85a1c9"/><rect x="121.35" y="17.34" width="4.33" height="4.33" fill="#cfefff"/><rect x="121.35" y="13" width="4.33" height="4.33" fill="#cfefff"/><rect x="121.35" y="8.67" width="4.33" height="4.33" fill="#1b0003"/><rect x="125.69" y="47.67" width="4.33" height="4.33" fill="#1b0003"/><rect x="125.69" y="43.34" width="4.33" height="4.33" fill="#1b0003"/><rect x="125.69" y="39.01" width="4.33" height="4.33" fill="#85a1c9"/><rect x="125.69" y="34.67" width="4.33" height="4.33" fill="#85a1c9"/><rect x="125.69" y="30.34" width="4.33" height="4.33" fill="#cfefff"/><rect x="125.69" y="26" width="4.33" height="4.33" fill="#cfefff"/><rect x="125.69" y="21.67" width="4.33" height="4.33" fill="#cfefff"/><rect x="125.69" y="17.34" width="4.33" height="4.33" fill="#1b0003"/><rect x="125.69" y="13" width="4.33" height="4.33" fill="#1b0003"/><rect x="130.02" y="39.01" width="4.33" height="4.33" fill="#1b0003"/><rect x="130.02" y="34.67" width="4.33" height="4.33" fill="#1b0003"/><rect x="130.02" y="30.34" width="4.33" height="4.33" fill="#1b0003"/><rect x="130.02" y="26" width="4.33" height="4.33" fill="#1b0003"/><rect x="130.02" y="21.67" width="4.33" height="4.33" fill="#1b0003"/></g></g></g></svg>