<svg xmlns="http://www.w3.org/2000/svg" width="135.56" height="103.03" viewBox="0 0 135.56 103.03"><g id="Layer_2" data-name="Layer 2"><g id="items"><g id="Silver_Bar" data-name="Silver Bar"><rect x="130.14" y="48.8" width="5.42" height="5.42" fill="#1b0003"/><rect x="130.14" y="43.38" width="5.42" height="5.42" fill="#1b0003"/><rect x="130.14" y="37.96" width="5.42" height="5.42" fill="#1b0003"/><rect x="130.14" y="32.54" width="5.42" height="5.42" fill="#1b0003"/><rect x="130.14" y="27.11" width="5.42" height="5.42" fill="#1b0003"/><rect x="130.14" y="21.69" width="5.42" height="5.42" fill="#1b0003"/><rect x="130.14" y="16.27" width="5.42" height="5.42" fill="#1b0003"/><rect x="130.14" y="10.85" width="5.42" height="5.42" fill="#1b0003"/><rect x="130.14" y="5.42" width="5.42" height="5.42" fill="#1b0003"/><rect x="124.72" y="54.23" width="5.42" height="5.42" fill="#1b0003"/><rect x="124.72" y="48.8" width="5.42" height="5.42" fill="#6a87af"/><rect x="124.72" y="43.38" width="5.42" height="5.42" fill="#5d7da3"/><rect x="124.72" y="37.96" width="5.42" height="5.42" fill="#5d7da3"/><rect x="124.72" y="32.54" width="5.42" height="5.42" fill="#5d7da3"/><rect x="124.72" y="27.11" width="5.42" height="5.42" fill="#5d7da3"/><rect x="124.72" y="21.69" width="5.42" height="5.42" fill="#5d7da3"/><rect x="124.72" y="16.27" width="5.42" height="5.42" fill="#5d7da3"/><rect x="124.72" y="10.85" width="5.42" height="5.42" fill="#6a87af"/><rect x="124.72" y="5.42" width="5.42" height="5.42" fill="#6a87af"/><rect x="124.72" width="5.42" height="5.42" fill="#1b0003"/><rect x="119.3" y="59.65" width="5.42" height="5.42" fill="#1b0003"/><rect x="119.3" y="54.23" width="5.42" height="5.42" fill="#6a87af"/><rect x="119.3" y="48.8" width="5.42" height="5.42" fill="#5d7da3"/><rect x="119.3" y="43.38" width="5.42" height="5.42" fill="#50759b"/><rect x="119.3" y="37.96" width="5.42" height="5.42" fill="#50759b"/><rect x="119.3" y="32.54" width="5.42" height="5.42" fill="#50759b"/><rect x="119.3" y="27.11" width="5.42" height="5.42" fill="#50759b"/><rect x="119.3" y="21.69" width="5.42" height="5.42" fill="#50759b"/><rect x="119.3" y="16.27" width="5.42" height="5.42" fill="#50759b"/><rect x="119.3" y="10.85" width="5.42" height="5.42" fill="#bedbed"/><rect x="119.3" y="5.42" width="5.42" height="5.42" fill="#e3f7ff"/><rect x="119.3" width="5.42" height="5.42" fill="#1b0003"/><rect x="113.87" y="65.07" width="5.42" height="5.42" fill="#1b0003"/><rect x="113.87" y="59.65" width="5.42" height="5.42" fill="#6a87af"/><rect x="113.87" y="54.23" width="5.42" height="5.42" fill="#5d7da3"/><rect x="113.87" y="48.8" width="5.42" height="5.42" fill="#5d7da3"/><rect x="113.87" y="43.38" width="5.42" height="5.42" fill="#50759b"/><rect x="113.87" y="37.96" width="5.42" height="5.42" fill="#50759b"/><rect x="113.87" y="32.54" width="5.42" height="5.42" fill="#50759b"/><rect x="113.87" y="27.11" width="5.42" height="5.42" fill="#50759b"/><rect x="113.87" y="21.69" width="5.42" height="5.42" fill="#6a87af"/><rect x="113.87" y="16.27" width="5.42" height="5.42" fill="#bedbed"/><rect x="113.87" y="10.85" width="5.42" height="5.42" fill="#e3f7ff"/><rect x="113.87" y="5.42" width="5.42" height="5.42" fill="#e3f7ff"/><rect x="113.87" width="5.42" height="5.42" fill="#1b0003"/><rect x="108.45" y="70.49" width="5.42" height="5.42" fill="#1b0003"/><rect x="108.45" y="65.07" width="5.42" height="5.42" fill="#6a87af"/><rect x="108.45" y="59.65" width="5.42" height="5.42" fill="#5d7da3"/><rect x="108.45" y="54.23" width="5.42" height="5.42" fill="#5d7da3"/><rect x="108.45" y="48.8" width="5.42" height="5.42" fill="#50759b"/><rect x="108.45" y="43.38" width="5.42" height="5.42" fill="#50759b"/><rect x="108.45" y="37.96" width="5.42" height="5.42" fill="#50759b"/><rect x="108.45" y="32.54" width="5.42" height="5.42" fill="#50759b"/><rect x="108.45" y="27.11" width="5.42" height="5.42" fill="#6a87af"/><rect x="108.45" y="21.69" width="5.42" height="5.42" fill="#bedbed"/><rect x="108.45" y="16.27" width="5.42" height="5.42" fill="#e3f7ff"/><rect x="108.45" y="10.85" width="5.42" height="5.42" fill="#e3f7ff"/><rect x="108.45" y="5.42" width="5.42" height="5.42" fill="#e3f7ff"/><rect x="108.45" width="5.42" height="5.42" fill="#1b0003"/><rect x="103.03" y="75.92" width="5.42" height="5.42" fill="#1b0003"/><rect x="103.03" y="70.49" width="5.42" height="5.42" fill="#6a87af"/><rect x="103.03" y="65.07" width="5.42" height="5.42" fill="#5d7da3"/><rect x="103.03" y="59.65" width="5.42" height="5.42" fill="#5d7da3"/><rect x="103.03" y="54.23" width="5.42" height="5.42" fill="#50759b"/><rect x="103.03" y="48.8" width="5.42" height="5.42" fill="#50759b"/><rect x="103.03" y="43.38" width="5.42" height="5.42" fill="#50759b"/><rect x="103.03" y="37.96" width="5.42" height="5.42" fill="#50759b"/><rect x="103.03" y="32.54" width="5.42" height="5.42" fill="#6a87af"/><rect x="103.03" y="27.11" width="5.42" height="5.42" fill="#bedbed"/><rect x="103.03" y="21.69" width="5.42" height="5.42" fill="#e3f7ff"/><rect x="103.03" y="16.27" width="5.42" height="5.42" fill="#e3f7ff"/><rect x="103.03" y="10.85" width="5.42" height="5.42" fill="#e3f7ff"/><rect x="103.03" y="5.42" width="5.42" height="5.42" fill="#e3f7ff"/><rect x="103.03" width="5.42" height="5.42" fill="#1b0003"/><rect x="97.61" y="81.34" width="5.42" height="5.42" fill="#1b0003"/><rect x="97.61" y="75.92" width="5.42" height="5.42" fill="#6a87af"/><rect x="97.61" y="70.49" width="5.42" height="5.42" fill="#5d7da3"/><rect x="97.61" y="65.07" width="5.42" height="5.42" fill="#5d7da3"/><rect x="97.61" y="59.65" width="5.42" height="5.42" fill="#50759b"/><rect x="97.61" y="54.23" width="5.42" height="5.42" fill="#50759b"/><rect x="97.61" y="48.8" width="5.42" height="5.42" fill="#50759b"/><rect x="97.61" y="43.38" width="5.42" height="5.42" fill="#50759b"/><rect x="97.61" y="37.96" width="5.42" height="5.42" fill="#6a87af"/><rect x="97.61" y="32.54" width="5.42" height="5.42" fill="#bedbed"/><rect x="97.61" y="27.11" width="5.42" height="5.42" fill="#e3f7ff"/><rect x="97.61" y="21.69" width="5.42" height="5.42" fill="#e3f7ff"/><rect x="97.61" y="16.27" width="5.42" height="5.42" fill="#e3f7ff"/><rect x="97.61" y="10.85" width="5.42" height="5.42" fill="#bedbed"/><rect x="97.61" y="5.42" width="5.42" height="5.42" fill="#e3f7ff"/><rect x="97.61" width="5.42" height="5.42" fill="#1b0003"/><rect x="92.18" y="86.76" width="5.42" height="5.42" fill="#1b0003"/><rect x="92.18" y="81.34" width="5.42" height="5.42" fill="#6a87af"/><rect x="92.18" y="75.92" width="5.42" height="5.42" fill="#5d7da3"/><rect x="92.18" y="70.49" width="5.42" height="5.42" fill="#5d7da3"/><rect x="92.18" y="65.07" width="5.42" height="5.42" fill="#50759b"/><rect x="92.18" y="59.65" width="5.42" height="5.42" fill="#50759b"/><rect x="92.18" y="54.23" width="5.42" height="5.42" fill="#50759b"/><rect x="92.18" y="48.8" width="5.42" height="5.42" fill="#50759b"/><rect x="92.18" y="43.38" width="5.42" height="5.42" fill="#bedbed"/><rect x="92.18" y="37.96" width="5.42" height="5.42" fill="#bedbed"/><rect x="92.18" y="32.54" width="5.42" height="5.42" fill="#e3f7ff"/><rect x="92.18" y="27.11" width="5.42" height="5.42" fill="#e3f7ff"/><rect x="92.18" y="21.69" width="5.42" height="5.42" fill="#e3f7ff"/><rect x="92.18" y="16.27" width="5.42" height="5.42" fill="#e3f7ff"/><rect x="92.18" y="10.85" width="5.42" height="5.42" fill="#bedbed"/><rect x="92.18" y="5.42" width="5.42" height="5.42" fill="#e3f7ff"/><rect x="92.18" width="5.42" height="5.42" fill="#1b0003"/><rect x="86.76" y="92.18" width="5.42" height="5.42" fill="#1b0003"/><rect x="86.76" y="86.76" width="5.42" height="5.42" fill="#6a87af"/><rect x="86.76" y="81.34" width="5.42" height="5.42" fill="#6a87af"/><rect x="86.76" y="75.92" width="5.42" height="5.42" fill="#5d7da3"/><rect x="86.76" y="70.49" width="5.42" height="5.42" fill="#50759b"/><rect x="86.76" y="65.07" width="5.42" height="5.42" fill="#50759b"/><rect x="86.76" y="59.65" width="5.42" height="5.42" fill="#50759b"/><rect x="86.76" y="54.23" width="5.42" height="5.42" fill="#50759b"/><rect x="86.76" y="48.8" width="5.42" height="5.42" fill="#bedbed"/><rect x="86.76" y="43.38" width="5.42" height="5.42" fill="#e3f7ff"/><rect x="86.76" y="37.96" width="5.42" height="5.42" fill="#e3f7ff"/><rect x="86.76" y="32.54" width="5.42" height="5.42" fill="#e3f7ff"/><rect x="86.76" y="27.11" width="5.42" height="5.42" fill="#e3f7ff"/><rect x="86.76" y="21.69" width="5.42" height="5.42" fill="#e3f7ff"/><rect x="86.76" y="16.27" width="5.42" height="5.42" fill="#e3f7ff"/><rect x="86.76" y="10.85" width="5.42" height="5.42" fill="#bedbed"/><rect x="86.76" y="5.42" width="5.42" height="5.42" fill="#e3f7ff"/><rect x="86.76" width="5.42" height="5.42" fill="#1b0003"/><rect x="81.34" y="97.61" width="5.42" height="5.42" fill="#1b0003"/><rect x="81.34" y="92.18" width="5.42" height="5.42" fill="#bedbed"/><rect x="81.34" y="86.76" width="5.42" height="5.42" fill="#bedbed"/><rect x="81.34" y="81.34" width="5.42" height="5.42" fill="#bedbed"/><rect x="81.34" y="75.92" width="5.42" height="5.42" fill="#bedbed"/><rect x="81.34" y="70.49" width="5.42" height="5.42" fill="#bedbed"/><rect x="81.34" y="65.07" width="5.42" height="5.42" fill="#bedbed"/><rect x="81.34" y="59.65" width="5.42" height="5.42" fill="#bedbed"/><rect x="81.34" y="54.23" width="5.42" height="5.42" fill="#bedbed"/><rect x="81.34" y="48.8" width="5.42" height="5.42" fill="#e3f7ff"/><rect x="81.34" y="43.38" width="5.42" height="5.42" fill="#e3f7ff"/><rect x="81.34" y="37.96" width="5.42" height="5.42" fill="#e3f7ff"/><rect x="81.34" y="32.54" width="5.42" height="5.42" fill="#e3f7ff"/><rect x="81.34" y="27.11" width="5.42" height="5.42" fill="#e3f7ff"/><rect x="81.34" y="21.69" width="5.42" height="5.42" fill="#e3f7ff"/><rect x="81.34" y="16.27" width="5.42" height="5.42" fill="#e3f7ff"/><rect x="81.34" y="10.85" width="5.42" height="5.42" fill="#bedbed"/><rect x="81.34" y="5.42" width="5.42" height="5.42" fill="#e3f7ff"/><rect x="81.34" width="5.42" height="5.42" fill="#1b0003"/><rect x="75.92" y="97.61" width="5.42" height="5.42" fill="#1b0003"/><rect x="75.92" y="92.18" width="5.42" height="5.42" fill="#85a1c9"/><rect x="75.92" y="86.76" width="5.42" height="5.42" fill="#85a1c9"/><rect x="75.92" y="81.34" width="5.42" height="5.42" fill="#85a1c9"/><rect x="75.92" y="75.92" width="5.42" height="5.42" fill="#85a1c9"/><rect x="75.92" y="70.49" width="5.42" height="5.42" fill="#85a1c9"/><rect x="75.92" y="65.07" width="5.42" height="5.42" fill="#bedbed"/><rect x="75.92" y="59.65" width="5.42" height="5.42" fill="#bedbed"/><rect x="75.92" y="54.23" width="5.42" height="5.42" fill="#e3f7ff"/><rect x="75.92" y="48.8" width="5.42" height="5.42" fill="#e3f7ff"/><rect x="75.92" y="43.38" width="5.42" height="5.42" fill="#e3f7ff"/><rect x="75.92" y="37.96" width="5.42" height="5.42" fill="#e3f7ff"/><rect x="75.92" y="32.54" width="5.42" height="5.42" fill="#e3f7ff"/><rect x="75.92" y="27.11" width="5.42" height="5.42" fill="#e3f7ff"/><rect x="75.92" y="21.69" width="5.42" height="5.42" fill="#e3f7ff"/><rect x="75.92" y="16.27" width="5.42" height="5.42" fill="#e3f7ff"/><rect x="75.92" y="10.85" width="5.42" height="5.42" fill="#bedbed"/><rect x="75.92" y="5.42" width="5.42" height="5.42" fill="#e3f7ff"/><rect x="75.92" width="5.42" height="5.42" fill="#1b0003"/><rect x="70.49" y="97.61" width="5.42" height="5.42" fill="#1b0003"/><rect x="70.49" y="92.18" width="5.42" height="5.42" fill="#6a87af"/><rect x="70.49" y="86.76" width="5.42" height="5.42" fill="#6a87af"/><rect x="70.49" y="81.34" width="5.42" height="5.42" fill="#6a87af"/><rect x="70.49" y="75.92" width="5.42" height="5.42" fill="#6a87af"/><rect x="70.49" y="70.49" width="5.42" height="5.42" fill="#6a87af"/><rect x="70.49" y="65.07" width="5.42" height="5.42" fill="#85a1c9"/><rect x="70.49" y="59.65" width="5.42" height="5.42" fill="#bedbed"/><rect x="70.49" y="54.23" width="5.42" height="5.42" fill="#e3f7ff"/><rect x="70.49" y="48.8" width="5.42" height="5.42" fill="#e3f7ff"/><rect x="70.49" y="43.38" width="5.42" height="5.42" fill="#e3f7ff"/><rect x="70.49" y="37.96" width="5.42" height="5.42" fill="#e3f7ff"/><rect x="70.49" y="32.54" width="5.42" height="5.42" fill="#e3f7ff"/><rect x="70.49" y="27.11" width="5.42" height="5.42" fill="#e3f7ff"/><rect x="70.49" y="21.69" width="5.42" height="5.42" fill="#e3f7ff"/><rect x="70.49" y="16.27" width="5.42" height="5.42" fill="#e3f7ff"/><rect x="70.49" y="10.85" width="5.42" height="5.42" fill="#bedbed"/><rect x="70.49" y="5.42" width="5.42" height="5.42" fill="#e3f7ff"/><rect x="70.49" width="5.42" height="5.42" fill="#1b0003"/><rect x="65.07" y="97.61" width="5.42" height="5.42" fill="#1b0003"/><rect x="65.07" y="92.18" width="5.42" height="5.42" fill="#6a87af"/><rect x="65.07" y="86.76" width="5.42" height="5.42" fill="#6a87af"/><rect x="65.07" y="81.34" width="5.42" height="5.42" fill="#6a87af"/><rect x="65.07" y="75.92" width="5.42" height="5.42" fill="#6a87af"/><rect x="65.07" y="70.49" width="5.42" height="5.42" fill="#6a87af"/><rect x="65.07" y="65.07" width="5.42" height="5.42" fill="#85a1c9"/><rect x="65.07" y="59.65" width="5.42" height="5.42" fill="#bedbed"/><rect x="65.07" y="54.23" width="5.42" height="5.42" fill="#e3f7ff"/><rect x="65.07" y="48.8" width="5.42" height="5.42" fill="#bedbed"/><rect x="65.07" y="43.38" width="5.42" height="5.42" fill="#e3f7ff"/><rect x="65.07" y="37.96" width="5.42" height="5.42" fill="#e3f7ff"/><rect x="65.07" y="32.54" width="5.42" height="5.42" fill="#e3f7ff"/><rect x="65.07" y="27.11" width="5.42" height="5.42" fill="#e3f7ff"/><rect x="65.07" y="21.69" width="5.42" height="5.42" fill="#e3f7ff"/><rect x="65.07" y="16.27" width="5.42" height="5.42" fill="#bedbed"/><rect x="65.07" y="10.85" width="5.42" height="5.42" fill="#bedbed"/><rect x="65.07" y="5.42" width="5.42" height="5.42" fill="#e3f7ff"/><rect x="65.07" width="5.42" height="5.42" fill="#1b0003"/><rect x="59.65" y="97.61" width="5.42" height="5.42" fill="#1b0003"/><rect x="59.65" y="92.18" width="5.42" height="5.42" fill="#6a87af"/><rect x="59.65" y="86.76" width="5.42" height="5.42" fill="#6a87af"/><rect x="59.65" y="81.34" width="5.42" height="5.42" fill="#6a87af"/><rect x="59.65" y="75.92" width="5.42" height="5.42" fill="#6a87af"/><rect x="59.65" y="70.49" width="5.42" height="5.42" fill="#6a87af"/><rect x="59.65" y="65.07" width="5.42" height="5.42" fill="#85a1c9"/><rect x="59.65" y="59.65" width="5.42" height="5.42" fill="#bedbed"/><rect x="59.65" y="54.23" width="5.42" height="5.42" fill="#e3f7ff"/><rect x="59.65" y="48.8" width="5.42" height="5.42" fill="#bedbed"/><rect x="59.65" y="43.38" width="5.42" height="5.42" fill="#e3f7ff"/><rect x="59.65" y="37.96" width="5.42" height="5.42" fill="#e3f7ff"/><rect x="59.65" y="32.54" width="5.42" height="5.42" fill="#e3f7ff"/><rect x="59.65" y="27.11" width="5.42" height="5.42" fill="#e3f7ff"/><rect x="59.65" y="21.69" width="5.42" height="5.42" fill="#bedbed"/><rect x="59.65" y="16.27" width="5.42" height="5.42" fill="#bedbed"/><rect x="59.65" y="10.85" width="5.42" height="5.42" fill="#e3f7ff"/><rect x="59.65" y="5.42" width="5.42" height="5.42" fill="#bedbed"/><rect x="59.65" width="5.42" height="5.42" fill="#1b0003"/><rect x="54.23" y="97.61" width="5.42" height="5.42" fill="#1b0003"/><rect x="54.23" y="92.18" width="5.42" height="5.42" fill="#6a87af"/><rect x="54.23" y="86.76" width="5.42" height="5.42" fill="#6a87af"/><rect x="54.23" y="81.34" width="5.42" height="5.42" fill="#6a87af"/><rect x="54.23" y="75.92" width="5.42" height="5.42" fill="#6a87af"/><rect x="54.23" y="70.49" width="5.42" height="5.42" fill="#6a87af"/><rect x="54.23" y="65.07" width="5.42" height="5.42" fill="#85a1c9"/><rect x="54.23" y="59.65" width="5.42" height="5.42" fill="#bedbed"/><rect x="54.23" y="54.23" width="5.42" height="5.42" fill="#e3f7ff"/><rect x="54.23" y="48.8" width="5.42" height="5.42" fill="#bedbed"/><rect x="54.23" y="43.38" width="5.42" height="5.42" fill="#e3f7ff"/><rect x="54.23" y="37.96" width="5.42" height="5.42" fill="#e3f7ff"/><rect x="54.23" y="32.54" width="5.42" height="5.42" fill="#e3f7ff"/><rect x="54.23" y="27.11" width="5.42" height="5.42" fill="#bedbed"/><rect x="54.23" y="21.69" width="5.42" height="5.42" fill="#bedbed"/><rect x="54.23" y="16.27" width="5.42" height="5.42" fill="#e3f7ff"/><rect x="54.23" y="10.85" width="5.42" height="5.42" fill="#bedbed"/><rect x="54.23" y="5.42" width="5.42" height="5.42" fill="#1b0003"/><rect x="48.8" y="97.61" width="5.42" height="5.42" fill="#1b0003"/><rect x="48.8" y="92.18" width="5.42" height="5.42" fill="#6a87af"/><rect x="48.8" y="86.76" width="5.42" height="5.42" fill="#6a87af"/><rect x="48.8" y="81.34" width="5.42" height="5.42" fill="#6a87af"/><rect x="48.8" y="75.92" width="5.42" height="5.42" fill="#6a87af"/><rect x="48.8" y="70.49" width="5.42" height="5.42" fill="#6a87af"/><rect x="48.8" y="65.07" width="5.42" height="5.42" fill="#85a1c9"/><rect x="48.8" y="59.65" width="5.42" height="5.42" fill="#bedbed"/><rect x="48.8" y="54.23" width="5.42" height="5.42" fill="#e3f7ff"/><rect x="48.8" y="48.8" width="5.42" height="5.42" fill="#bedbed"/><rect x="48.8" y="43.38" width="5.42" height="5.42" fill="#e3f7ff"/><rect x="48.8" y="37.96" width="5.42" height="5.42" fill="#e3f7ff"/><rect x="48.8" y="32.54" width="5.42" height="5.42" fill="#bedbed"/><rect x="48.8" y="27.11" width="5.42" height="5.42" fill="#bedbed"/><rect x="48.8" y="21.69" width="5.42" height="5.42" fill="#e3f7ff"/><rect x="48.8" y="16.27" width="5.42" height="5.42" fill="#bedbed"/><rect x="48.8" y="10.85" width="5.42" height="5.42" fill="#1b0003"/><rect x="43.38" y="97.61" width="5.42" height="5.42" fill="#1b0003"/><rect x="43.38" y="92.18" width="5.42" height="5.42" fill="#6a87af"/><rect x="43.38" y="86.76" width="5.42" height="5.42" fill="#6a87af"/><rect x="43.38" y="81.34" width="5.42" height="5.42" fill="#6a87af"/><rect x="43.38" y="75.92" width="5.42" height="5.42" fill="#6a87af"/><rect x="43.38" y="70.49" width="5.42" height="5.42" fill="#6a87af"/><rect x="43.38" y="65.07" width="5.42" height="5.42" fill="#85a1c9"/><rect x="43.38" y="59.65" width="5.42" height="5.42" fill="#bedbed"/><rect x="43.38" y="54.23" width="5.42" height="5.42" fill="#e3f7ff"/><rect x="43.38" y="48.8" width="5.42" height="5.42" fill="#bedbed"/><rect x="43.38" y="43.38" width="5.42" height="5.42" fill="#e3f7ff"/><rect x="43.38" y="37.96" width="5.42" height="5.42" fill="#bedbed"/><rect x="43.38" y="32.54" width="5.42" height="5.42" fill="#bedbed"/><rect x="43.38" y="27.11" width="5.42" height="5.42" fill="#e3f7ff"/><rect x="43.38" y="21.69" width="5.42" height="5.42" fill="#bedbed"/><rect x="43.38" y="16.27" width="5.42" height="5.42" fill="#1b0003"/><rect x="37.96" y="97.61" width="5.42" height="5.42" fill="#1b0003"/><rect x="37.96" y="92.18" width="5.42" height="5.42" fill="#6a87af"/><rect x="37.96" y="86.76" width="5.42" height="5.42" fill="#6a87af"/><rect x="37.96" y="81.34" width="5.42" height="5.42" fill="#6a87af"/><rect x="37.96" y="75.92" width="5.42" height="5.42" fill="#6a87af"/><rect x="37.96" y="70.49" width="5.42" height="5.42" fill="#6a87af"/><rect x="37.96" y="65.07" width="5.42" height="5.42" fill="#85a1c9"/><rect x="37.96" y="59.65" width="5.42" height="5.42" fill="#bedbed"/><rect x="37.96" y="54.23" width="5.42" height="5.42" fill="#e3f7ff"/><rect x="37.96" y="48.8" width="5.42" height="5.42" fill="#bedbed"/><rect x="37.96" y="43.38" width="5.42" height="5.42" fill="#bedbed"/><rect x="37.96" y="37.96" width="5.42" height="5.42" fill="#bedbed"/><rect x="37.96" y="32.54" width="5.42" height="5.42" fill="#e3f7ff"/><rect x="37.96" y="27.11" width="5.42" height="5.42" fill="#bedbed"/><rect x="37.96" y="21.69" width="5.42" height="5.42" fill="#1b0003"/><rect x="32.54" y="97.61" width="5.42" height="5.42" fill="#1b0003"/><rect x="32.54" y="92.18" width="5.42" height="5.42" fill="#6a87af"/><rect x="32.54" y="86.76" width="5.42" height="5.42" fill="#6a87af"/><rect x="32.54" y="81.34" width="5.42" height="5.42" fill="#6a87af"/><rect x="32.54" y="75.92" width="5.42" height="5.42" fill="#6a87af"/><rect x="32.54" y="70.49" width="5.42" height="5.42" fill="#6a87af"/><rect x="32.54" y="65.07" width="5.42" height="5.42" fill="#85a1c9"/><rect x="32.54" y="59.65" width="5.42" height="5.42" fill="#bedbed"/><rect x="32.54" y="54.23" width="5.42" height="5.42" fill="#e3f7ff"/><rect x="32.54" y="48.8" width="5.42" height="5.42" fill="#bedbed"/><rect x="32.54" y="43.38" width="5.42" height="5.42" fill="#bedbed"/><rect x="32.54" y="37.96" width="5.42" height="5.42" fill="#e3f7ff"/><rect x="32.54" y="32.54" width="5.42" height="5.42" fill="#bedbed"/><rect x="32.54" y="27.11" width="5.42" height="5.42" fill="#1b0003"/><rect x="27.11" y="97.61" width="5.42" height="5.42" fill="#1b0003"/><rect x="27.11" y="92.18" width="5.42" height="5.42" fill="#85a1c9"/><rect x="27.11" y="86.76" width="5.42" height="5.42" fill="#6a87af"/><rect x="27.11" y="81.34" width="5.42" height="5.42" fill="#6a87af"/><rect x="27.11" y="75.92" width="5.42" height="5.42" fill="#6a87af"/><rect x="27.11" y="70.49" width="5.42" height="5.42" fill="#6a87af"/><rect x="27.11" y="65.07" width="5.42" height="5.42" fill="#85a1c9"/><rect x="27.11" y="59.65" width="5.42" height="5.42" fill="#bedbed"/><rect x="27.11" y="54.23" width="5.42" height="5.42" fill="#e3f7ff"/><rect x="27.11" y="48.8" width="5.42" height="5.42" fill="#bedbed"/><rect x="27.11" y="43.38" width="5.42" height="5.42" fill="#e3f7ff"/><rect x="27.11" y="37.96" width="5.42" height="5.42" fill="#bedbed"/><rect x="27.11" y="32.54" width="5.42" height="5.42" fill="#1b0003"/><rect x="21.69" y="97.61" width="5.42" height="5.42" fill="#1b0003"/><rect x="21.69" y="92.18" width="5.42" height="5.42" fill="#6a87af"/><rect x="21.69" y="86.76" width="5.42" height="5.42" fill="#85a1c9"/><rect x="21.69" y="81.34" width="5.42" height="5.42" fill="#6a87af"/><rect x="21.69" y="75.92" width="5.42" height="5.42" fill="#6a87af"/><rect x="21.69" y="70.49" width="5.42" height="5.42" fill="#6a87af"/><rect x="21.69" y="65.07" width="5.42" height="5.42" fill="#85a1c9"/><rect x="21.69" y="59.65" width="5.42" height="5.42" fill="#bedbed"/><rect x="21.69" y="54.23" width="5.42" height="5.42" fill="#e3f7ff"/><rect x="21.69" y="48.8" width="5.42" height="5.42" fill="#e3f7ff"/><rect x="21.69" y="43.38" width="5.42" height="5.42" fill="#bedbed"/><rect x="21.69" y="37.96" width="5.42" height="5.42" fill="#1b0003"/><rect x="16.27" y="97.61" width="5.42" height="5.42" fill="#1b0003"/><rect x="16.27" y="92.18" width="5.42" height="5.42" fill="#85a1c9"/><rect x="16.27" y="86.76" width="5.42" height="5.42" fill="#6a87af"/><rect x="16.27" y="81.34" width="5.42" height="5.42" fill="#85a1c9"/><rect x="16.27" y="75.92" width="5.42" height="5.42" fill="#6a87af"/><rect x="16.27" y="70.49" width="5.42" height="5.42" fill="#6a87af"/><rect x="16.27" y="65.07" width="5.42" height="5.42" fill="#85a1c9"/><rect x="16.27" y="59.65" width="5.42" height="5.42" fill="#bedbed"/><rect x="16.27" y="54.23" width="5.42" height="5.42" fill="#e3f7ff"/><rect x="16.27" y="48.8" width="5.42" height="5.42" fill="#bedbed"/><rect x="16.27" y="43.38" width="5.42" height="5.42" fill="#1b0003"/><rect x="10.84" y="97.61" width="5.42" height="5.42" fill="#1b0003"/><rect x="10.84" y="92.18" width="5.42" height="5.42" fill="#6a87af"/><rect x="10.84" y="86.76" width="5.42" height="5.42" fill="#85a1c9"/><rect x="10.84" y="81.34" width="5.42" height="5.42" fill="#6a87af"/><rect x="10.84" y="75.92" width="5.42" height="5.42" fill="#85a1c9"/><rect x="10.84" y="70.49" width="5.42" height="5.42" fill="#6a87af"/><rect x="10.84" y="65.07" width="5.42" height="5.42" fill="#85a1c9"/><rect x="10.84" y="59.65" width="5.42" height="5.42" fill="#bedbed"/><rect x="10.84" y="54.23" width="5.42" height="5.42" fill="#bedbed"/><rect x="10.84" y="48.8" width="5.42" height="5.42" fill="#1b0003"/><rect x="5.42" y="97.61" width="5.42" height="5.42" fill="#1b0003"/><rect x="5.42" y="92.18" width="5.42" height="5.42" fill="#85a1c9"/><rect x="5.42" y="86.76" width="5.42" height="5.42" fill="#6a87af"/><rect x="5.42" y="81.34" width="5.42" height="5.42" fill="#85a1c9"/><rect x="5.42" y="75.92" width="5.42" height="5.42" fill="#6a87af"/><rect x="5.42" y="70.49" width="5.42" height="5.42" fill="#85a1c9"/><rect x="5.42" y="65.07" width="5.42" height="5.42" fill="#85a1c9"/><rect x="5.42" y="59.65" width="5.42" height="5.42" fill="#223c5b"/><rect x="5.42" y="54.23" width="5.42" height="5.42" fill="#1b0003"/><rect y="92.18" width="5.42" height="5.42" fill="#1b0003"/><rect y="86.76" width="5.42" height="5.42" fill="#1b0003"/><rect y="81.34" width="5.42" height="5.42" fill="#1b0003"/><rect y="75.92" width="5.42" height="5.42" fill="#1b0003"/><rect y="70.49" width="5.42" height="5.42" fill="#1b0003"/><rect y="65.07" width="5.42" height="5.42" fill="#1b0003"/><rect y="59.65" width="5.42" height="5.42" fill="#1b0003"/></g></g></g></svg>