<svg xmlns="http://www.w3.org/2000/svg" width="111.26" height="111.26" viewBox="0 0 111.26 111.26"><g id="Layer_2" data-name="Layer 2"><g id="items"><g id="Star"><rect x="107.14" y="45.33" width="4.12" height="4.12" fill="#1b0003"/><rect x="107.14" y="41.21" width="4.12" height="4.12" fill="#1b0003"/><rect x="103.02" y="49.45" width="4.12" height="4.12" fill="#1b0003"/><rect x="103.02" y="45.33" width="4.12" height="4.12" fill="#ea942d"/><rect x="103.02" y="41.21" width="4.12" height="4.12" fill="#ea942d"/><rect x="103.02" y="37.09" width="4.12" height="4.12" fill="#1b0003"/><rect x="98.9" y="53.57" width="4.12" height="4.12" fill="#1b0003"/><rect x="98.9" y="49.45" width="4.12" height="4.12" fill="#ea942d"/><rect x="98.9" y="45.33" width="4.12" height="4.12" fill="#ea942d"/><rect x="98.9" y="41.21" width="4.12" height="4.12" fill="#ea942d"/><rect x="98.9" y="37.09" width="4.12" height="4.12" fill="#1b0003"/><rect x="94.78" y="57.69" width="4.12" height="4.12" fill="#1b0003"/><rect x="94.78" y="53.57" width="4.12" height="4.12" fill="#ea942d"/><rect x="94.78" y="49.45" width="4.12" height="4.12" fill="#ea942d"/><rect x="94.78" y="45.33" width="4.12" height="4.12" fill="#ea942d"/><rect x="94.78" y="41.21" width="4.12" height="4.12" fill="#ea942d"/><rect x="94.78" y="37.09" width="4.12" height="4.12" fill="#1b0003"/><rect x="90.65" y="103.02" width="4.12" height="4.12" fill="#1b0003"/><rect x="90.65" y="98.9" width="4.12" height="4.12" fill="#1b0003"/><rect x="90.65" y="94.78" width="4.12" height="4.12" fill="#1b0003"/><rect x="90.65" y="90.65" width="4.12" height="4.12" fill="#1b0003"/><rect x="90.65" y="61.81" width="4.12" height="4.12" fill="#1b0003"/><rect x="90.65" y="57.69" width="4.12" height="4.12" fill="#ea942d"/><rect x="90.65" y="53.57" width="4.12" height="4.12" fill="#ea942d"/><rect x="90.65" y="49.45" width="4.12" height="4.12" fill="#ea942d"/><rect x="90.65" y="45.33" width="4.12" height="4.12" fill="#ea942d"/><rect x="90.65" y="41.21" width="4.12" height="4.12" fill="#ea942d"/><rect x="90.65" y="37.09" width="4.12" height="4.12" fill="#1b0003"/><rect x="86.53" y="107.14" width="4.12" height="4.12" fill="#1b0003"/><rect x="86.53" y="103.02" width="4.12" height="4.12" fill="#f7c45e"/><rect x="86.53" y="98.9" width="4.12" height="4.12" fill="#f7c45e"/><rect x="86.53" y="94.78" width="4.12" height="4.12" fill="#f7c45e"/><rect x="86.53" y="90.65" width="4.12" height="4.12" fill="#f7c45e"/><rect x="86.53" y="86.53" width="4.12" height="4.12" fill="#1b0003"/><rect x="86.53" y="82.41" width="4.12" height="4.12" fill="#1b0003"/><rect x="86.53" y="78.29" width="4.12" height="4.12" fill="#1b0003"/><rect x="86.53" y="65.93" width="4.12" height="4.12" fill="#1b0003"/><rect x="86.53" y="61.81" width="4.12" height="4.12" fill="#db6d12"/><rect x="86.53" y="57.69" width="4.12" height="4.12" fill="#ea942d"/><rect x="86.53" y="53.57" width="4.12" height="4.12" fill="#ea942d"/><rect x="86.53" y="49.45" width="4.12" height="4.12" fill="#db6d12"/><rect x="86.53" y="45.33" width="4.12" height="4.12" fill="#ea942d"/><rect x="86.53" y="41.21" width="4.12" height="4.12" fill="#ea942d"/><rect x="86.53" y="37.09" width="4.12" height="4.12" fill="#1b0003"/><rect x="82.41" y="107.14" width="4.12" height="4.12" fill="#1b0003"/><rect x="82.41" y="103.02" width="4.12" height="4.12" fill="#ea942d"/><rect x="82.41" y="98.9" width="4.12" height="4.12" fill="#db6d12"/><rect x="82.41" y="94.78" width="4.12" height="4.12" fill="#f7c45e"/><rect x="82.41" y="90.65" width="4.12" height="4.12" fill="#f7c45e"/><rect x="82.41" y="86.53" width="4.12" height="4.12" fill="#f7c45e"/><rect x="82.41" y="82.41" width="4.12" height="4.12" fill="#f7c45e"/><rect x="82.41" y="78.29" width="4.12" height="4.12" fill="#f7c45e"/><rect x="82.41" y="74.17" width="4.12" height="4.12" fill="#1b0003"/><rect x="82.41" y="70.05" width="4.12" height="4.12" fill="#1b0003"/><rect x="82.41" y="65.93" width="4.12" height="4.12" fill="#db6d12"/><rect x="82.41" y="61.81" width="4.12" height="4.12" fill="#ea942d"/><rect x="82.41" y="57.69" width="4.12" height="4.12" fill="#ea942d"/><rect x="82.41" y="53.57" width="4.12" height="4.12" fill="#db6d12"/><rect x="82.41" y="49.45" width="4.12" height="4.12" fill="#f7c45e"/><rect x="82.41" y="45.33" width="4.12" height="4.12" fill="#db6d12"/><rect x="82.41" y="41.21" width="4.12" height="4.12" fill="#ea942d"/><rect x="82.41" y="37.09" width="4.12" height="4.12" fill="#1b0003"/><rect x="78.29" y="103.02" width="4.12" height="4.12" fill="#1b0003"/><rect x="78.29" y="98.9" width="4.12" height="4.12" fill="#ea942d"/><rect x="78.29" y="94.78" width="4.12" height="4.12" fill="#ea942d"/><rect x="78.29" y="90.65" width="4.12" height="4.12" fill="#ea942d"/><rect x="78.29" y="86.53" width="4.12" height="4.12" fill="#db6d12"/><rect x="78.29" y="82.41" width="4.12" height="4.12" fill="#f7c45e"/><rect x="78.29" y="78.29" width="4.12" height="4.12" fill="#f7c45e"/><rect x="78.29" y="74.17" width="4.12" height="4.12" fill="#f7c45e"/><rect x="78.29" y="70.05" width="4.12" height="4.12" fill="#ea942d"/><rect x="78.29" y="65.93" width="4.12" height="4.12" fill="#ea942d"/><rect x="78.29" y="61.81" width="4.12" height="4.12" fill="#ea942d"/><rect x="78.29" y="57.69" width="4.12" height="4.12" fill="#db6d12"/><rect x="78.29" y="53.57" width="4.12" height="4.12" fill="#f7c45e"/><rect x="78.29" y="49.45" width="4.12" height="4.12" fill="#f7c45e"/><rect x="78.29" y="45.33" width="4.12" height="4.12" fill="#db6d12"/><rect x="78.29" y="41.21" width="4.12" height="4.12" fill="#ea942d"/><rect x="78.29" y="37.09" width="4.12" height="4.12" fill="#ea942d"/><rect x="78.29" y="32.97" width="4.12" height="4.12" fill="#1b0003"/><rect x="74.17" y="103.02" width="4.12" height="4.12" fill="#1b0003"/><rect x="74.17" y="98.9" width="4.12" height="4.12" fill="#ea942d"/><rect x="74.17" y="94.78" width="4.12" height="4.12" fill="#ea942d"/><rect x="74.17" y="90.65" width="4.12" height="4.12" fill="#ea942d"/><rect x="74.17" y="86.53" width="4.12" height="4.12" fill="#ea942d"/><rect x="74.17" y="82.41" width="4.12" height="4.12" fill="#ea942d"/><rect x="74.17" y="78.29" width="4.12" height="4.12" fill="#ea942d"/><rect x="74.17" y="74.17" width="4.12" height="4.12" fill="#ea942d"/><rect x="74.17" y="70.05" width="4.12" height="4.12" fill="#ea942d"/><rect x="74.17" y="65.93" width="4.12" height="4.12" fill="#ea942d"/><rect x="74.17" y="61.81" width="4.12" height="4.12" fill="#db6d12"/><rect x="74.17" y="57.69" width="4.12" height="4.12" fill="#f7c45e"/><rect x="74.17" y="53.57" width="4.12" height="4.12" fill="#f7c45e"/><rect x="74.17" y="49.45" width="4.12" height="4.12" fill="#f7c45e"/><rect x="74.17" y="45.33" width="4.12" height="4.12" fill="#db6d12"/><rect x="74.17" y="41.21" width="4.12" height="4.12" fill="#ea942d"/><rect x="74.17" y="37.09" width="4.12" height="4.12" fill="#ea942d"/><rect x="74.17" y="32.97" width="4.12" height="4.12" fill="#1b0003"/><rect x="70.05" y="98.9" width="4.12" height="4.12" fill="#1b0003"/><rect x="70.05" y="94.78" width="4.12" height="4.12" fill="#ea942d"/><rect x="70.05" y="90.65" width="4.12" height="4.12" fill="#ea942d"/><rect x="70.05" y="86.53" width="4.12" height="4.12" fill="#ea942d"/><rect x="70.05" y="82.41" width="4.12" height="4.12" fill="#ea942d"/><rect x="70.05" y="78.29" width="4.12" height="4.12" fill="#ea942d"/><rect x="70.05" y="74.17" width="4.12" height="4.12" fill="#ea942d"/><rect x="70.05" y="70.05" width="4.12" height="4.12" fill="#ea942d"/><rect x="70.05" y="65.93" width="4.12" height="4.12" fill="#ea942d"/><rect x="70.05" y="61.81" width="4.12" height="4.12" fill="#db6d12"/><rect x="70.05" y="57.69" width="4.12" height="4.12" fill="#f7c45e"/><rect x="70.05" y="53.57" width="4.12" height="4.12" fill="#f7c45e"/><rect x="70.05" y="49.45" width="4.12" height="4.12" fill="#f7c45e"/><rect x="70.05" y="45.33" width="4.12" height="4.12" fill="#db6d12"/><rect x="70.05" y="41.21" width="4.12" height="4.12" fill="#ea942d"/><rect x="70.05" y="37.09" width="4.12" height="4.12" fill="#ea942d"/><rect x="70.05" y="32.97" width="4.12" height="4.12" fill="#ea942d"/><rect x="70.05" y="28.84" width="4.12" height="4.12" fill="#1b0003"/><rect x="70.05" y="24.72" width="4.12" height="4.12" fill="#1b0003"/><rect x="65.93" y="94.78" width="4.12" height="4.12" fill="#1b0003"/><rect x="65.93" y="90.65" width="4.12" height="4.12" fill="#ea942d"/><rect x="65.93" y="86.53" width="4.12" height="4.12" fill="#ea942d"/><rect x="65.93" y="82.41" width="4.12" height="4.12" fill="#ea942d"/><rect x="65.93" y="78.29" width="4.12" height="4.12" fill="#ea942d"/><rect x="65.93" y="74.17" width="4.12" height="4.12" fill="#ea942d"/><rect x="65.93" y="70.05" width="4.12" height="4.12" fill="#ea942d"/><rect x="65.93" y="65.93" width="4.12" height="4.12" fill="#db6d12"/><rect x="65.93" y="61.81" width="4.12" height="4.12" fill="#f7c45e"/><rect x="65.93" y="57.69" width="4.12" height="4.12" fill="#f7c45e"/><rect x="65.93" y="53.57" width="4.12" height="4.12" fill="#f7c45e"/><rect x="65.93" y="49.45" width="4.12" height="4.12" fill="#f7c45e"/><rect x="65.93" y="45.33" width="4.12" height="4.12" fill="#f7c45e"/><rect x="65.93" y="41.21" width="4.12" height="4.12" fill="#db6d12"/><rect x="65.93" y="37.09" width="4.12" height="4.12" fill="#ea942d"/><rect x="65.93" y="32.97" width="4.12" height="4.12" fill="#ea942d"/><rect x="65.93" y="28.84" width="4.12" height="4.12" fill="#ea942d"/><rect x="65.93" y="24.72" width="4.12" height="4.12" fill="#ea942d"/><rect x="65.93" y="20.6" width="4.12" height="4.12" fill="#1b0003"/><rect x="65.93" y="16.48" width="4.12" height="4.12" fill="#1b0003"/><rect x="61.81" y="94.78" width="4.12" height="4.12" fill="#1b0003"/><rect x="61.81" y="90.65" width="4.12" height="4.12" fill="#ea942d"/><rect x="61.81" y="86.53" width="4.12" height="4.12" fill="#ea942d"/><rect x="61.81" y="82.41" width="4.12" height="4.12" fill="#ea942d"/><rect x="61.81" y="78.29" width="4.12" height="4.12" fill="#ea942d"/><rect x="61.81" y="74.17" width="4.12" height="4.12" fill="#ea942d"/><rect x="61.81" y="70.05" width="4.12" height="4.12" fill="#db6d12"/><rect x="61.81" y="65.93" width="4.12" height="4.12" fill="#f7c45e"/><rect x="61.81" y="61.81" width="4.12" height="4.12" fill="#f7c45e"/><rect x="61.81" y="57.69" width="4.12" height="4.12" fill="#f7c45e"/><rect x="61.81" y="53.57" width="4.12" height="4.12" fill="#f7c45e"/><rect x="61.81" y="49.45" width="4.12" height="4.12" fill="#f7c45e"/><rect x="61.81" y="45.33" width="4.12" height="4.12" fill="#f7c45e"/><rect x="61.81" y="41.21" width="4.12" height="4.12" fill="#f7c45e"/><rect x="61.81" y="37.09" width="4.12" height="4.12" fill="#db6d12"/><rect x="61.81" y="32.97" width="4.12" height="4.12" fill="#db6d12"/><rect x="61.81" y="28.84" width="4.12" height="4.12" fill="#ea942d"/><rect x="61.81" y="24.72" width="4.12" height="4.12" fill="#ea942d"/><rect x="61.81" y="20.6" width="4.12" height="4.12" fill="#ea942d"/><rect x="61.81" y="16.48" width="4.12" height="4.12" fill="#ea942d"/><rect x="61.81" y="12.36" width="4.12" height="4.12" fill="#1b0003"/><rect x="61.81" y="8.24" width="4.12" height="4.12" fill="#1b0003"/><rect x="57.69" y="90.65" width="4.12" height="4.12" fill="#1b0003"/><rect x="57.69" y="86.53" width="4.12" height="4.12" fill="#ea942d"/><rect x="57.69" y="82.41" width="4.12" height="4.12" fill="#ea942d"/><rect x="57.69" y="78.29" width="4.12" height="4.12" fill="#ea942d"/><rect x="57.69" y="74.17" width="4.12" height="4.12" fill="#db6d12"/><rect x="57.69" y="70.05" width="4.12" height="4.12" fill="#f7c45e"/><rect x="57.69" y="65.93" width="4.12" height="4.12" fill="#f7c45e"/><rect x="57.69" y="61.81" width="4.12" height="4.12" fill="#f7c45e"/><rect x="57.69" y="57.69" width="4.12" height="4.12" fill="#f7c45e"/><rect x="57.69" y="53.57" width="4.12" height="4.12" fill="#f7c45e"/><rect x="57.69" y="49.45" width="4.12" height="4.12" fill="#f7c45e"/><rect x="57.69" y="45.33" width="4.12" height="4.12" fill="#f7c45e"/><rect x="57.69" y="41.21" width="4.12" height="4.12" fill="#f7c45e"/><rect x="57.69" y="37.09" width="4.12" height="4.12" fill="#f7c45e"/><rect x="57.69" y="32.97" width="4.12" height="4.12" fill="#f7c45e"/><rect x="57.69" y="28.84" width="4.12" height="4.12" fill="#db6d12"/><rect x="57.69" y="24.72" width="4.12" height="4.12" fill="#db6d12"/><rect x="57.69" y="20.6" width="4.12" height="4.12" fill="#db6d12"/><rect x="57.69" y="16.48" width="4.12" height="4.12" fill="#ea942d"/><rect x="57.69" y="12.36" width="4.12" height="4.12" fill="#ea942d"/><rect x="57.69" y="8.24" width="4.12" height="4.12" fill="#ea942d"/><rect x="57.69" y="4.12" width="4.12" height="4.12" fill="#1b0003"/><rect x="53.57" y="90.65" width="4.12" height="4.12" fill="#1b0003"/><rect x="53.57" y="86.53" width="4.12" height="4.12" fill="#ea942d"/><rect x="53.57" y="82.41" width="4.12" height="4.12" fill="#ea942d"/><rect x="53.57" y="78.29" width="4.12" height="4.12" fill="#ea942d"/><rect x="53.57" y="74.17" width="4.12" height="4.12" fill="#db6d12"/><rect x="53.57" y="70.05" width="4.12" height="4.12" fill="#f7c45e"/><rect x="53.57" y="65.93" width="4.12" height="4.12" fill="#f7c45e"/><rect x="53.57" y="61.81" width="4.12" height="4.12" fill="#f7c45e"/><rect x="53.57" y="57.69" width="4.12" height="4.12" fill="#f7c45e"/><rect x="53.57" y="53.57" width="4.12" height="4.12" fill="#f7c45e"/><rect x="53.57" y="49.45" width="4.12" height="4.12" fill="#f7c45e"/><rect x="53.57" y="45.33" width="4.12" height="4.12" fill="#f7c45e"/><rect x="53.57" y="41.21" width="4.12" height="4.12" fill="#f7c45e"/><rect x="53.57" y="37.09" width="4.12" height="4.12" fill="#f7c45e"/><rect x="53.57" y="32.97" width="4.12" height="4.12" fill="#f7c45e"/><rect x="53.57" y="28.84" width="4.12" height="4.12" fill="#f7c45e"/><rect x="53.57" y="24.72" width="4.12" height="4.12" fill="#f7c45e"/><rect x="53.57" y="20.6" width="4.12" height="4.12" fill="#f7c45e"/><rect x="53.57" y="16.48" width="4.12" height="4.12" fill="#db6d12"/><rect x="53.57" y="12.36" width="4.12" height="4.12" fill="#ea942d"/><rect x="53.57" y="8.24" width="4.12" height="4.12" fill="#ea942d"/><rect x="53.57" y="4.12" width="4.12" height="4.12" fill="#ea942d"/><rect x="53.57" width="4.12" height="4.12" fill="#1b0003"/><rect x="49.45" y="90.65" width="4.12" height="4.12" fill="#1b0003"/><rect x="49.45" y="86.53" width="4.12" height="4.12" fill="#ea942d"/><rect x="49.45" y="82.41" width="4.12" height="4.12" fill="#ea942d"/><rect x="49.45" y="78.29" width="4.12" height="4.12" fill="#db6d12"/><rect x="49.45" y="74.17" width="4.12" height="4.12" fill="#f7c45e"/><rect x="49.45" y="70.05" width="4.12" height="4.12" fill="#f7c45e"/><rect x="49.45" y="65.93" width="4.12" height="4.12" fill="#f7c45e"/><rect x="49.45" y="61.81" width="4.12" height="4.12" fill="#f7c45e"/><rect x="49.45" y="57.69" width="4.12" height="4.12" fill="#f7c45e"/><rect x="49.45" y="53.57" width="4.12" height="4.12" fill="#f7c45e"/><rect x="49.45" y="49.45" width="4.12" height="4.12" fill="#f7c45e"/><rect x="49.45" y="45.33" width="4.12" height="4.12" fill="#f7c45e"/><rect x="49.45" y="41.21" width="4.12" height="4.12" fill="#f7c45e"/><rect x="49.45" y="37.09" width="4.12" height="4.12" fill="#f7c45e"/><rect x="49.45" y="32.97" width="4.12" height="4.12" fill="#f7c45e"/><rect x="49.45" y="28.84" width="4.12" height="4.12" fill="#f7c45e"/><rect x="49.45" y="24.72" width="4.12" height="4.12" fill="#f7c45e"/><rect x="49.45" y="20.6" width="4.12" height="4.12" fill="#f9f2d4"/><rect x="49.45" y="16.48" width="4.12" height="4.12" fill="#f9f2d4"/><rect x="49.45" y="12.36" width="4.12" height="4.12" fill="#db6d12"/><rect x="49.45" y="8.24" width="4.12" height="4.12" fill="#db6d12"/><rect x="49.45" y="4.12" width="4.12" height="4.12" fill="#1b0003"/><rect x="45.33" y="94.78" width="4.12" height="4.12" fill="#1b0003"/><rect x="45.33" y="90.65" width="4.12" height="4.12" fill="#ea942d"/><rect x="45.33" y="86.53" width="4.12" height="4.12" fill="#ea942d"/><rect x="45.33" y="82.41" width="4.12" height="4.12" fill="#db6d12"/><rect x="45.33" y="78.29" width="4.12" height="4.12" fill="#f7c45e"/><rect x="45.33" y="74.17" width="4.12" height="4.12" fill="#f7c45e"/><rect x="45.33" y="70.05" width="4.12" height="4.12" fill="#f7c45e"/><rect x="45.33" y="65.93" width="4.12" height="4.12" fill="#f7c45e"/><rect x="45.33" y="61.81" width="4.12" height="4.12" fill="#f7c45e"/><rect x="45.33" y="57.69" width="4.12" height="4.12" fill="#f7c45e"/><rect x="45.33" y="53.57" width="4.12" height="4.12" fill="#f7c45e"/><rect x="45.33" y="49.45" width="4.12" height="4.12" fill="#f9f2d4"/><rect x="45.33" y="45.33" width="4.12" height="4.12" fill="#f7c45e"/><rect x="45.33" y="41.21" width="4.12" height="4.12" fill="#f7c45e"/><rect x="45.33" y="37.09" width="4.12" height="4.12" fill="#f7c45e"/><rect x="45.33" y="32.97" width="4.12" height="4.12" fill="#f7c45e"/><rect x="45.33" y="28.84" width="4.12" height="4.12" fill="#f7c45e"/><rect x="45.33" y="24.72" width="4.12" height="4.12" fill="#f9f2d4"/><rect x="45.33" y="20.6" width="4.12" height="4.12" fill="#f9f2d4"/><rect x="45.33" y="16.48" width="4.12" height="4.12" fill="#f9f2d4"/><rect x="45.33" y="12.36" width="4.12" height="4.12" fill="#1b0003"/><rect x="45.33" y="8.24" width="4.12" height="4.12" fill="#1b0003"/><rect x="41.21" y="94.78" width="4.12" height="4.12" fill="#1b0003"/><rect x="41.21" y="90.65" width="4.12" height="4.12" fill="#ea942d"/><rect x="41.21" y="86.53" width="4.12" height="4.12" fill="#ea942d"/><rect x="41.21" y="82.41" width="4.12" height="4.12" fill="#db6d12"/><rect x="41.21" y="78.29" width="4.12" height="4.12" fill="#f7c45e"/><rect x="41.21" y="74.17" width="4.12" height="4.12" fill="#f7c45e"/><rect x="41.21" y="70.05" width="4.12" height="4.12" fill="#f7c45e"/><rect x="41.21" y="65.93" width="4.12" height="4.12" fill="#f7c45e"/><rect x="41.21" y="61.81" width="4.12" height="4.12" fill="#f7c45e"/><rect x="41.21" y="57.69" width="4.12" height="4.12" fill="#f7c45e"/><rect x="41.21" y="53.57" width="4.12" height="4.12" fill="#f7c45e"/><rect x="41.21" y="49.45" width="4.12" height="4.12" fill="#f7c45e"/><rect x="41.21" y="45.33" width="4.12" height="4.12" fill="#f7c45e"/><rect x="41.21" y="41.21" width="4.12" height="4.12" fill="#f7c45e"/><rect x="41.21" y="37.09" width="4.12" height="4.12" fill="#f7c45e"/><rect x="41.21" y="32.97" width="4.12" height="4.12" fill="#f9f2d4"/><rect x="41.21" y="28.84" width="4.12" height="4.12" fill="#f9f2d4"/><rect x="41.21" y="24.72" width="4.12" height="4.12" fill="#f9f2d4"/><rect x="41.21" y="20.6" width="4.12" height="4.12" fill="#1b0003"/><rect x="41.21" y="16.48" width="4.12" height="4.12" fill="#1b0003"/><rect x="37.09" y="98.9" width="4.12" height="4.12" fill="#1b0003"/><rect x="37.09" y="94.78" width="4.12" height="4.12" fill="#ea942d"/><rect x="37.09" y="90.65" width="4.12" height="4.12" fill="#ea942d"/><rect x="37.09" y="86.53" width="4.12" height="4.12" fill="#db6d12"/><rect x="37.09" y="82.41" width="4.12" height="4.12" fill="#f7c45e"/><rect x="37.09" y="78.29" width="4.12" height="4.12" fill="#f7c45e"/><rect x="37.09" y="74.17" width="4.12" height="4.12" fill="#f7c45e"/><rect x="37.09" y="70.05" width="4.12" height="4.12" fill="#f7c45e"/><rect x="37.09" y="65.93" width="4.12" height="4.12" fill="#f7c45e"/><rect x="37.09" y="61.81" width="4.12" height="4.12" fill="#f7c45e"/><rect x="37.09" y="57.69" width="4.12" height="4.12" fill="#f7c45e"/><rect x="37.09" y="53.57" width="4.12" height="4.12" fill="#f7c45e"/><rect x="37.09" y="49.45" width="4.12" height="4.12" fill="#f7c45e"/><rect x="37.09" y="45.33" width="4.12" height="4.12" fill="#f9f2d4"/><rect x="37.09" y="41.21" width="4.12" height="4.12" fill="#f9f2d4"/><rect x="37.09" y="37.09" width="4.12" height="4.12" fill="#f9f2d4"/><rect x="37.09" y="32.97" width="4.12" height="4.12" fill="#f9f2d4"/><rect x="37.09" y="28.84" width="4.12" height="4.12" fill="#1b0003"/><rect x="37.09" y="24.72" width="4.12" height="4.12" fill="#1b0003"/><rect x="32.97" y="103.02" width="4.12" height="4.12" fill="#1b0003"/><rect x="32.97" y="98.9" width="4.12" height="4.12" fill="#ea942d"/><rect x="32.97" y="94.78" width="4.12" height="4.12" fill="#ea942d"/><rect x="32.97" y="90.65" width="4.12" height="4.12" fill="#db6d12"/><rect x="32.97" y="86.53" width="4.12" height="4.12" fill="#f7c45e"/><rect x="32.97" y="82.41" width="4.12" height="4.12" fill="#f7c45e"/><rect x="32.97" y="78.29" width="4.12" height="4.12" fill="#f7c45e"/><rect x="32.97" y="74.17" width="4.12" height="4.12" fill="#f7c45e"/><rect x="32.97" y="70.05" width="4.12" height="4.12" fill="#f7c45e"/><rect x="32.97" y="65.93" width="4.12" height="4.12" fill="#f7c45e"/><rect x="32.97" y="61.81" width="4.12" height="4.12" fill="#f7c45e"/><rect x="32.97" y="57.69" width="4.12" height="4.12" fill="#f7c45e"/><rect x="32.97" y="53.57" width="4.12" height="4.12" fill="#f7c45e"/><rect x="32.97" y="49.45" width="4.12" height="4.12" fill="#f7c45e"/><rect x="32.97" y="45.33" width="4.12" height="4.12" fill="#f7c45e"/><rect x="32.97" y="41.21" width="4.12" height="4.12" fill="#f9f2d4"/><rect x="32.97" y="37.09" width="4.12" height="4.12" fill="#f9f2d4"/><rect x="32.97" y="32.97" width="4.12" height="4.12" fill="#1b0003"/><rect x="28.84" y="103.02" width="4.12" height="4.12" fill="#1b0003"/><rect x="28.84" y="98.9" width="4.12" height="4.12" fill="#db6d12"/><rect x="28.84" y="94.78" width="4.12" height="4.12" fill="#db6d12"/><rect x="28.84" y="90.65" width="4.12" height="4.12" fill="#f7c45e"/><rect x="28.84" y="86.53" width="4.12" height="4.12" fill="#f7c45e"/><rect x="28.84" y="82.41" width="4.12" height="4.12" fill="#f7c45e"/><rect x="28.84" y="78.29" width="4.12" height="4.12" fill="#f7c45e"/><rect x="28.84" y="74.17" width="4.12" height="4.12" fill="#f7c45e"/><rect x="28.84" y="70.05" width="4.12" height="4.12" fill="#f7c45e"/><rect x="28.84" y="65.93" width="4.12" height="4.12" fill="#f7c45e"/><rect x="28.84" y="61.81" width="4.12" height="4.12" fill="#f7c45e"/><rect x="28.84" y="57.69" width="4.12" height="4.12" fill="#f7c45e"/><rect x="28.84" y="53.57" width="4.12" height="4.12" fill="#f7c45e"/><rect x="28.84" y="49.45" width="4.12" height="4.12" fill="#f7c45e"/><rect x="28.84" y="45.33" width="4.12" height="4.12" fill="#f9f2d4"/><rect x="28.84" y="41.21" width="4.12" height="4.12" fill="#f9f2d4"/><rect x="28.84" y="37.09" width="4.12" height="4.12" fill="#f9f2d4"/><rect x="28.84" y="32.97" width="4.12" height="4.12" fill="#1b0003"/><rect x="24.72" y="107.14" width="4.12" height="4.12" fill="#1b0003"/><rect x="24.72" y="103.02" width="4.12" height="4.12" fill="#f7c45e"/><rect x="24.72" y="98.9" width="4.12" height="4.12" fill="#f7c45e"/><rect x="24.72" y="94.78" width="4.12" height="4.12" fill="#f7c45e"/><rect x="24.72" y="90.65" width="4.12" height="4.12" fill="#f7c45e"/><rect x="24.72" y="86.53" width="4.12" height="4.12" fill="#f7c45e"/><rect x="24.72" y="82.41" width="4.12" height="4.12" fill="#f7c45e"/><rect x="24.72" y="78.29" width="4.12" height="4.12" fill="#f7c45e"/><rect x="24.72" y="74.17" width="4.12" height="4.12" fill="#1b0003"/><rect x="24.72" y="70.05" width="4.12" height="4.12" fill="#1b0003"/><rect x="24.72" y="65.93" width="4.12" height="4.12" fill="#f7c45e"/><rect x="24.72" y="61.81" width="4.12" height="4.12" fill="#f7c45e"/><rect x="24.72" y="57.69" width="4.12" height="4.12" fill="#f7c45e"/><rect x="24.72" y="53.57" width="4.12" height="4.12" fill="#f7c45e"/><rect x="24.72" y="49.45" width="4.12" height="4.12" fill="#f7c45e"/><rect x="24.72" y="45.33" width="4.12" height="4.12" fill="#f9f2d4"/><rect x="24.72" y="41.21" width="4.12" height="4.12" fill="#f9f2d4"/><rect x="24.72" y="37.09" width="4.12" height="4.12" fill="#1b0003"/><rect x="20.6" y="107.14" width="4.12" height="4.12" fill="#1b0003"/><rect x="20.6" y="103.02" width="4.12" height="4.12" fill="#f7c45e"/><rect x="20.6" y="98.9" width="4.12" height="4.12" fill="#f7c45e"/><rect x="20.6" y="94.78" width="4.12" height="4.12" fill="#f7c45e"/><rect x="20.6" y="90.65" width="4.12" height="4.12" fill="#f7c45e"/><rect x="20.6" y="86.53" width="4.12" height="4.12" fill="#1b0003"/><rect x="20.6" y="82.41" width="4.12" height="4.12" fill="#1b0003"/><rect x="20.6" y="78.29" width="4.12" height="4.12" fill="#1b0003"/><rect x="20.6" y="65.93" width="4.12" height="4.12" fill="#1b0003"/><rect x="20.6" y="61.81" width="4.12" height="4.12" fill="#f7c45e"/><rect x="20.6" y="57.69" width="4.12" height="4.12" fill="#f7c45e"/><rect x="20.6" y="53.57" width="4.12" height="4.12" fill="#f7c45e"/><rect x="20.6" y="49.45" width="4.12" height="4.12" fill="#f7c45e"/><rect x="20.6" y="45.33" width="4.12" height="4.12" fill="#f9f2d4"/><rect x="20.6" y="41.21" width="4.12" height="4.12" fill="#f9f2d4"/><rect x="20.6" y="37.09" width="4.12" height="4.12" fill="#1b0003"/><rect x="16.48" y="103.02" width="4.12" height="4.12" fill="#1b0003"/><rect x="16.48" y="98.9" width="4.12" height="4.12" fill="#1b0003"/><rect x="16.48" y="94.78" width="4.12" height="4.12" fill="#1b0003"/><rect x="16.48" y="90.65" width="4.12" height="4.12" fill="#1b0003"/><rect x="16.48" y="61.81" width="4.12" height="4.12" fill="#1b0003"/><rect x="16.48" y="57.69" width="4.12" height="4.12" fill="#f7c45e"/><rect x="16.48" y="53.57" width="4.12" height="4.12" fill="#f7c45e"/><rect x="16.48" y="49.45" width="4.12" height="4.12" fill="#f7c45e"/><rect x="16.48" y="45.33" width="4.12" height="4.12" fill="#f9f2d4"/><rect x="16.48" y="41.21" width="4.12" height="4.12" fill="#f9f2d4"/><rect x="16.48" y="37.09" width="4.12" height="4.12" fill="#1b0003"/><rect x="12.36" y="57.69" width="4.12" height="4.12" fill="#1b0003"/><rect x="12.36" y="53.57" width="4.12" height="4.12" fill="#f7c45e"/><rect x="12.36" y="49.45" width="4.12" height="4.12" fill="#f7c45e"/><rect x="12.36" y="45.33" width="4.12" height="4.12" fill="#f9f2d4"/><rect x="12.36" y="41.21" width="4.12" height="4.12" fill="#f9f2d4"/><rect x="12.36" y="37.09" width="4.12" height="4.12" fill="#1b0003"/><rect x="8.24" y="53.57" width="4.12" height="4.12" fill="#1b0003"/><rect x="8.24" y="49.45" width="4.12" height="4.12" fill="#f7c45e"/><rect x="8.24" y="45.33" width="4.12" height="4.12" fill="#f9f2d4"/><rect x="8.24" y="41.21" width="4.12" height="4.12" fill="#f9f2d4"/><rect x="8.24" y="37.09" width="4.12" height="4.12" fill="#1b0003"/><rect x="4.12" y="49.45" width="4.12" height="4.12" fill="#1b0003"/><rect x="4.12" y="45.33" width="4.12" height="4.12" fill="#f9f2d4"/><rect x="4.12" y="41.21" width="4.12" height="4.12" fill="#f9f2d4"/><rect x="4.12" y="37.09" width="4.12" height="4.12" fill="#1b0003"/><rect y="45.33" width="4.12" height="4.12" fill="#1b0003"/><rect y="41.21" width="4.12" height="4.12" fill="#1b0003"/></g></g></g></svg>