<svg xmlns="http://www.w3.org/2000/svg" width="138.15" height="138.15" viewBox="0 0 138.15 138.15"><g id="Layer_2" data-name="Layer 2"><g id="items"><g id="Sword"><rect x="132.84" y="26.57" width="5.31" height="5.31" fill="#1b0003"/><rect x="132.84" y="21.25" width="5.31" height="5.31" fill="#1b0003"/><rect x="132.84" y="15.94" width="5.31" height="5.31" fill="#1b0003"/><rect x="132.84" y="10.63" width="5.31" height="5.31" fill="#1b0003"/><rect x="132.84" y="5.31" width="5.31" height="5.31" fill="#1b0003"/><rect x="132.84" width="5.31" height="5.31" fill="#1b0003"/><rect x="127.52" y="31.88" width="5.31" height="5.31" fill="#1b0003"/><rect x="127.52" y="26.57" width="5.31" height="5.31" fill="#cfefff"/><rect x="127.52" y="21.25" width="5.31" height="5.31" fill="#cfefff"/><rect x="127.52" y="15.94" width="5.31" height="5.31" fill="#cfefff"/><rect x="127.52" y="10.63" width="5.31" height="5.31" fill="#cfefff"/><rect x="127.52" y="5.31" width="5.31" height="5.31" fill="#cfefff"/><rect x="127.52" width="5.31" height="5.31" fill="#1b0003"/><rect x="122.21" y="37.19" width="5.31" height="5.31" fill="#1b0003"/><rect x="122.21" y="31.88" width="5.31" height="5.31" fill="#97bcd6"/><rect x="122.21" y="26.57" width="5.31" height="5.31" fill="#85a1c9"/><rect x="122.21" y="21.25" width="5.31" height="5.31" fill="#85a1c9"/><rect x="122.21" y="15.94" width="5.31" height="5.31" fill="#85a1c9"/><rect x="122.21" y="10.63" width="5.31" height="5.31" fill="#6a87af"/><rect x="122.21" y="5.31" width="5.31" height="5.31" fill="#cfefff"/><rect x="122.21" width="5.31" height="5.31" fill="#1b0003"/><rect x="116.9" y="42.51" width="5.31" height="5.31" fill="#1b0003"/><rect x="116.9" y="37.19" width="5.31" height="5.31" fill="#97bcd6"/><rect x="116.9" y="31.88" width="5.31" height="5.31" fill="#85a1c9"/><rect x="116.9" y="26.57" width="5.31" height="5.31" fill="#85a1c9"/><rect x="116.9" y="21.25" width="5.31" height="5.31" fill="#85a1c9"/><rect x="116.9" y="15.94" width="5.31" height="5.31" fill="#6a87af"/><rect x="116.9" y="10.63" width="5.31" height="5.31" fill="#bedbed"/><rect x="116.9" y="5.31" width="5.31" height="5.31" fill="#cfefff"/><rect x="116.9" width="5.31" height="5.31" fill="#1b0003"/><rect x="111.58" y="47.82" width="5.31" height="5.31" fill="#1b0003"/><rect x="111.58" y="42.51" width="5.31" height="5.31" fill="#97bcd6"/><rect x="111.58" y="37.19" width="5.31" height="5.31" fill="#85a1c9"/><rect x="111.58" y="31.88" width="5.31" height="5.31" fill="#85a1c9"/><rect x="111.58" y="26.57" width="5.31" height="5.31" fill="#85a1c9"/><rect x="111.58" y="21.25" width="5.31" height="5.31" fill="#6a87af"/><rect x="111.58" y="15.94" width="5.31" height="5.31" fill="#97bcd6"/><rect x="111.58" y="10.63" width="5.31" height="5.31" fill="#bedbed"/><rect x="111.58" y="5.31" width="5.31" height="5.31" fill="#cfefff"/><rect x="111.58" width="5.31" height="5.31" fill="#1b0003"/><rect x="106.27" y="53.13" width="5.31" height="5.31" fill="#1b0003"/><rect x="106.27" y="47.82" width="5.31" height="5.31" fill="#97bcd6"/><rect x="106.27" y="42.51" width="5.31" height="5.31" fill="#85a1c9"/><rect x="106.27" y="37.19" width="5.31" height="5.31" fill="#85a1c9"/><rect x="106.27" y="31.88" width="5.31" height="5.31" fill="#85a1c9"/><rect x="106.27" y="26.57" width="5.31" height="5.31" fill="#85a1c9"/><rect x="106.27" y="21.25" width="5.31" height="5.31" fill="#97bcd6"/><rect x="106.27" y="15.94" width="5.31" height="5.31" fill="#97bcd6"/><rect x="106.27" y="10.63" width="5.31" height="5.31" fill="#bedbed"/><rect x="106.27" y="5.31" width="5.31" height="5.31" fill="#cfefff"/><rect x="106.27" width="5.31" height="5.31" fill="#1b0003"/><rect x="100.95" y="58.45" width="5.31" height="5.31" fill="#1b0003"/><rect x="100.95" y="53.13" width="5.31" height="5.31" fill="#97bcd6"/><rect x="100.95" y="47.82" width="5.31" height="5.31" fill="#85a1c9"/><rect x="100.95" y="42.51" width="5.31" height="5.31" fill="#85a1c9"/><rect x="100.95" y="37.19" width="5.31" height="5.31" fill="#85a1c9"/><rect x="100.95" y="31.88" width="5.31" height="5.31" fill="#6a87af"/><rect x="100.95" y="26.57" width="5.31" height="5.31" fill="#97bcd6"/><rect x="100.95" y="21.25" width="5.31" height="5.31" fill="#97bcd6"/><rect x="100.95" y="15.94" width="5.31" height="5.31" fill="#bedbed"/><rect x="100.95" y="10.63" width="5.31" height="5.31" fill="#cfefff"/><rect x="100.95" y="5.31" width="5.31" height="5.31" fill="#1b0003"/><rect x="95.64" y="63.76" width="5.31" height="5.31" fill="#1b0003"/><rect x="95.64" y="58.45" width="5.31" height="5.31" fill="#97bcd6"/><rect x="95.64" y="53.13" width="5.31" height="5.31" fill="#85a1c9"/><rect x="95.64" y="47.82" width="5.31" height="5.31" fill="#85a1c9"/><rect x="95.64" y="42.51" width="5.31" height="5.31" fill="#85a1c9"/><rect x="95.64" y="37.19" width="5.31" height="5.31" fill="#85a1c9"/><rect x="95.64" y="31.88" width="5.31" height="5.31" fill="#97bcd6"/><rect x="95.64" y="26.57" width="5.31" height="5.31" fill="#97bcd6"/><rect x="95.64" y="21.25" width="5.31" height="5.31" fill="#bedbed"/><rect x="95.64" y="15.94" width="5.31" height="5.31" fill="#cfefff"/><rect x="95.64" y="10.63" width="5.31" height="5.31" fill="#1b0003"/><rect x="90.33" y="69.08" width="5.31" height="5.31" fill="#1b0003"/><rect x="90.33" y="63.76" width="5.31" height="5.31" fill="#97bcd6"/><rect x="90.33" y="58.45" width="5.31" height="5.31" fill="#85a1c9"/><rect x="90.33" y="53.13" width="5.31" height="5.31" fill="#85a1c9"/><rect x="90.33" y="47.82" width="5.31" height="5.31" fill="#85a1c9"/><rect x="90.33" y="42.51" width="5.31" height="5.31" fill="#6a87af"/><rect x="90.33" y="37.19" width="5.31" height="5.31" fill="#97bcd6"/><rect x="90.33" y="31.88" width="5.31" height="5.31" fill="#97bcd6"/><rect x="90.33" y="26.57" width="5.31" height="5.31" fill="#bedbed"/><rect x="90.33" y="21.25" width="5.31" height="5.31" fill="#cfefff"/><rect x="90.33" y="15.94" width="5.31" height="5.31" fill="#1b0003"/><rect x="85.02" y="74.39" width="5.31" height="5.31" fill="#1b0003"/><rect x="85.02" y="69.08" width="5.31" height="5.31" fill="#97bcd6"/><rect x="85.02" y="63.76" width="5.31" height="5.31" fill="#85a1c9"/><rect x="85.02" y="58.45" width="5.31" height="5.31" fill="#85a1c9"/><rect x="85.02" y="53.13" width="5.31" height="5.31" fill="#85a1c9"/><rect x="85.02" y="47.82" width="5.31" height="5.31" fill="#6a87af"/><rect x="85.02" y="42.51" width="5.31" height="5.31" fill="#97bcd6"/><rect x="85.02" y="37.19" width="5.31" height="5.31" fill="#97bcd6"/><rect x="85.02" y="31.88" width="5.31" height="5.31" fill="#bedbed"/><rect x="85.02" y="26.57" width="5.31" height="5.31" fill="#cfefff"/><rect x="85.02" y="21.25" width="5.31" height="5.31" fill="#1b0003"/><rect x="79.7" y="111.58" width="5.31" height="5.31" fill="#1b0003"/><rect x="79.7" y="106.27" width="5.31" height="5.31" fill="#1b0003"/><rect x="79.7" y="79.7" width="5.31" height="5.31" fill="#1b0003"/><rect x="79.7" y="74.39" width="5.31" height="5.31" fill="#97bcd6"/><rect x="79.7" y="69.08" width="5.31" height="5.31" fill="#6a87af"/><rect x="79.7" y="63.76" width="5.31" height="5.31" fill="#85a1c9"/><rect x="79.7" y="58.45" width="5.31" height="5.31" fill="#85a1c9"/><rect x="79.7" y="53.13" width="5.31" height="5.31" fill="#6a87af"/><rect x="79.7" y="47.82" width="5.31" height="5.31" fill="#97bcd6"/><rect x="79.7" y="42.51" width="5.31" height="5.31" fill="#97bcd6"/><rect x="79.7" y="37.19" width="5.31" height="5.31" fill="#97bcd6"/><rect x="79.7" y="31.88" width="5.31" height="5.31" fill="#bedbed"/><rect x="79.7" y="26.57" width="5.31" height="5.31" fill="#1b0003"/><rect x="74.39" y="111.58" width="5.31" height="5.31" fill="#1b0003"/><rect x="74.39" y="106.27" width="5.31" height="5.31" fill="#222230"/><rect x="74.39" y="100.96" width="5.31" height="5.31" fill="#1b0003"/><rect x="74.39" y="85.02" width="5.31" height="5.31" fill="#1b0003"/><rect x="74.39" y="79.7" width="5.31" height="5.31" fill="#97bcd6"/><rect x="74.39" y="74.39" width="5.31" height="5.31" fill="#6a87af"/><rect x="74.39" y="69.08" width="5.31" height="5.31" fill="#85a1c9"/><rect x="74.39" y="63.76" width="5.31" height="5.31" fill="#6a87af"/><rect x="74.39" y="58.45" width="5.31" height="5.31" fill="#6a87af"/><rect x="74.39" y="53.13" width="5.31" height="5.31" fill="#97bcd6"/><rect x="74.39" y="47.82" width="5.31" height="5.31" fill="#97bcd6"/><rect x="74.39" y="42.51" width="5.31" height="5.31" fill="#97bcd6"/><rect x="74.39" y="37.19" width="5.31" height="5.31" fill="#bedbed"/><rect x="74.39" y="31.88" width="5.31" height="5.31" fill="#1b0003"/><rect x="69.07" y="111.58" width="5.31" height="5.31" fill="#1b0003"/><rect x="69.07" y="106.27" width="5.31" height="5.31" fill="#222230"/><rect x="69.07" y="100.96" width="5.31" height="5.31" fill="#222230"/><rect x="69.07" y="95.64" width="5.31" height="5.31" fill="#1b0003"/><rect x="69.07" y="90.33" width="5.31" height="5.31" fill="#1b0003"/><rect x="69.07" y="85.02" width="5.31" height="5.31" fill="#6a87af"/><rect x="69.07" y="79.7" width="5.31" height="5.31" fill="#6a87af"/><rect x="69.07" y="74.39" width="5.31" height="5.31" fill="#85a1c9"/><rect x="69.07" y="69.08" width="5.31" height="5.31" fill="#6a87af"/><rect x="69.07" y="63.76" width="5.31" height="5.31" fill="#6a87af"/><rect x="69.07" y="58.45" width="5.31" height="5.31" fill="#97bcd6"/><rect x="69.07" y="53.13" width="5.31" height="5.31" fill="#97bcd6"/><rect x="69.07" y="47.82" width="5.31" height="5.31" fill="#97bcd6"/><rect x="69.07" y="42.51" width="5.31" height="5.31" fill="#bedbed"/><rect x="69.07" y="37.19" width="5.31" height="5.31" fill="#1b0003"/><rect x="63.76" y="111.58" width="5.31" height="5.31" fill="#1b0003"/><rect x="63.76" y="106.27" width="5.31" height="5.31" fill="#222230"/><rect x="63.76" y="100.96" width="5.31" height="5.31" fill="#222230"/><rect x="63.76" y="95.64" width="5.31" height="5.31" fill="#222230"/><rect x="63.76" y="90.33" width="5.31" height="5.31" fill="#1b0003"/><rect x="63.76" y="85.02" width="5.31" height="5.31" fill="#6a87af"/><rect x="63.76" y="79.7" width="5.31" height="5.31" fill="#6a87af"/><rect x="63.76" y="74.39" width="5.31" height="5.31" fill="#6a87af"/><rect x="63.76" y="69.08" width="5.31" height="5.31" fill="#6a87af"/><rect x="63.76" y="63.76" width="5.31" height="5.31" fill="#85a1c9"/><rect x="63.76" y="58.45" width="5.31" height="5.31" fill="#97bcd6"/><rect x="63.76" y="53.13" width="5.31" height="5.31" fill="#97bcd6"/><rect x="63.76" y="47.82" width="5.31" height="5.31" fill="#bedbed"/><rect x="63.76" y="42.51" width="5.31" height="5.31" fill="#1b0003"/><rect x="58.45" y="106.27" width="5.31" height="5.31" fill="#1b0003"/><rect x="58.45" y="100.96" width="5.31" height="5.31" fill="#222230"/><rect x="58.45" y="95.64" width="5.31" height="5.31" fill="#222230"/><rect x="58.45" y="90.33" width="5.31" height="5.31" fill="#3e3c51"/><rect x="58.45" y="85.02" width="5.31" height="5.31" fill="#1b0003"/><rect x="58.45" y="79.7" width="5.31" height="5.31" fill="#6a87af"/><rect x="58.45" y="74.39" width="5.31" height="5.31" fill="#6a87af"/><rect x="58.45" y="69.08" width="5.31" height="5.31" fill="#6a87af"/><rect x="58.45" y="63.76" width="5.31" height="5.31" fill="#85a1c9"/><rect x="58.45" y="58.45" width="5.31" height="5.31" fill="#97bcd6"/><rect x="58.45" y="53.13" width="5.31" height="5.31" fill="#bedbed"/><rect x="58.45" y="47.82" width="5.31" height="5.31" fill="#1b0003"/><rect x="53.13" y="100.96" width="5.31" height="5.31" fill="#1b0003"/><rect x="53.13" y="95.64" width="5.31" height="5.31" fill="#222230"/><rect x="53.13" y="90.33" width="5.31" height="5.31" fill="#222230"/><rect x="53.13" y="85.02" width="5.31" height="5.31" fill="#3e3c51"/><rect x="53.13" y="79.7" width="5.31" height="5.31" fill="#1b0003"/><rect x="53.13" y="74.39" width="5.31" height="5.31" fill="#6a87af"/><rect x="53.13" y="69.08" width="5.31" height="5.31" fill="#6a87af"/><rect x="53.13" y="63.76" width="5.31" height="5.31" fill="#85a1c9"/><rect x="53.13" y="58.45" width="5.31" height="5.31" fill="#97bcd6"/><rect x="53.13" y="53.13" width="5.31" height="5.31" fill="#1b0003"/><rect x="47.82" y="95.64" width="5.31" height="5.31" fill="#1b0003"/><rect x="47.82" y="90.33" width="5.31" height="5.31" fill="#222230"/><rect x="47.82" y="85.02" width="5.31" height="5.31" fill="#3e3c51"/><rect x="47.82" y="79.7" width="5.31" height="5.31" fill="#3e3c51"/><rect x="47.82" y="74.39" width="5.31" height="5.31" fill="#1b0003"/><rect x="47.82" y="69.08" width="5.31" height="5.31" fill="#6a87af"/><rect x="47.82" y="63.76" width="5.31" height="5.31" fill="#6a87af"/><rect x="47.82" y="58.45" width="5.31" height="5.31" fill="#1b0003"/><rect x="42.51" y="100.96" width="5.31" height="5.31" fill="#1b0003"/><rect x="42.51" y="95.64" width="5.31" height="5.31" fill="#7f1e14"/><rect x="42.51" y="90.33" width="5.31" height="5.31" fill="#1b0003"/><rect x="42.51" y="85.02" width="5.31" height="5.31" fill="#222230"/><rect x="42.51" y="79.7" width="5.31" height="5.31" fill="#3e3c51"/><rect x="42.51" y="74.39" width="5.31" height="5.31" fill="#3e3c51"/><rect x="42.51" y="69.08" width="5.31" height="5.31" fill="#1b0003"/><rect x="42.51" y="63.76" width="5.31" height="5.31" fill="#1b0003"/><rect x="37.19" y="106.27" width="5.31" height="5.31" fill="#1b0003"/><rect x="37.19" y="100.96" width="5.31" height="5.31" fill="#7f1e14"/><rect x="37.19" y="95.64" width="5.31" height="5.31" fill="#932f1f"/><rect x="37.19" y="90.33" width="5.31" height="5.31" fill="#a84a24"/><rect x="37.19" y="85.02" width="5.31" height="5.31" fill="#1b0003"/><rect x="37.19" y="79.7" width="5.31" height="5.31" fill="#3e3c51"/><rect x="37.19" y="74.39" width="5.31" height="5.31" fill="#5a5970"/><rect x="37.19" y="69.08" width="5.31" height="5.31" fill="#3e3c51"/><rect x="37.19" y="63.76" width="5.31" height="5.31" fill="#1b0003"/><rect x="31.88" y="111.58" width="5.31" height="5.31" fill="#1b0003"/><rect x="31.88" y="106.27" width="5.31" height="5.31" fill="#7f1e14"/><rect x="31.88" y="100.96" width="5.31" height="5.31" fill="#932f1f"/><rect x="31.88" y="95.64" width="5.31" height="5.31" fill="#a84a24"/><rect x="31.88" y="90.33" width="5.31" height="5.31" fill="#1b0003"/><rect x="31.88" y="79.7" width="5.31" height="5.31" fill="#1b0003"/><rect x="31.88" y="74.39" width="5.31" height="5.31" fill="#3e3c51"/><rect x="31.88" y="69.08" width="5.31" height="5.31" fill="#5a5970"/><rect x="31.88" y="63.76" width="5.31" height="5.31" fill="#5a5970"/><rect x="31.88" y="58.45" width="5.31" height="5.31" fill="#1b0003"/><rect x="26.57" y="116.9" width="5.31" height="5.31" fill="#1b0003"/><rect x="26.57" y="111.58" width="5.31" height="5.31" fill="#7f1e14"/><rect x="26.57" y="106.27" width="5.31" height="5.31" fill="#932f1f"/><rect x="26.57" y="100.96" width="5.31" height="5.31" fill="#a84a24"/><rect x="26.57" y="95.64" width="5.31" height="5.31" fill="#1b0003"/><rect x="26.57" y="74.39" width="5.31" height="5.31" fill="#1b0003"/><rect x="26.57" y="69.08" width="5.31" height="5.31" fill="#5a5970"/><rect x="26.57" y="63.76" width="5.31" height="5.31" fill="#5a5970"/><rect x="26.57" y="58.45" width="5.31" height="5.31" fill="#5a5970"/><rect x="26.57" y="53.13" width="5.31" height="5.31" fill="#1b0003"/><rect x="21.25" y="127.52" width="5.31" height="5.31" fill="#1b0003"/><rect x="21.25" y="122.21" width="5.31" height="5.31" fill="#1b0003"/><rect x="21.25" y="116.9" width="5.31" height="5.31" fill="#1b0003"/><rect x="21.25" y="111.58" width="5.31" height="5.31" fill="#932f1f"/><rect x="21.25" y="106.27" width="5.31" height="5.31" fill="#a84a24"/><rect x="21.25" y="100.96" width="5.31" height="5.31" fill="#1b0003"/><rect x="21.25" y="69.08" width="5.31" height="5.31" fill="#1b0003"/><rect x="21.25" y="63.76" width="5.31" height="5.31" fill="#1b0003"/><rect x="21.25" y="58.45" width="5.31" height="5.31" fill="#1b0003"/><rect x="21.25" y="53.13" width="5.31" height="5.31" fill="#1b0003"/><rect x="15.94" y="132.84" width="5.31" height="5.31" fill="#1b0003"/><rect x="15.94" y="127.52" width="5.31" height="5.31" fill="#6a87af"/><rect x="15.94" y="122.21" width="5.31" height="5.31" fill="#6a87af"/><rect x="15.94" y="116.9" width="5.31" height="5.31" fill="#6a87af"/><rect x="15.94" y="111.58" width="5.31" height="5.31" fill="#1b0003"/><rect x="15.94" y="106.27" width="5.31" height="5.31" fill="#1b0003"/><rect x="10.63" y="132.84" width="5.31" height="5.31" fill="#1b0003"/><rect x="10.63" y="127.52" width="5.31" height="5.31" fill="#6a87af"/><rect x="10.63" y="122.21" width="5.31" height="5.31" fill="#97bcd6"/><rect x="10.63" y="116.9" width="5.31" height="5.31" fill="#97bcd6"/><rect x="10.63" y="111.58" width="5.31" height="5.31" fill="#1b0003"/><rect x="5.31" y="132.84" width="5.31" height="5.31" fill="#1b0003"/><rect x="5.31" y="127.52" width="5.31" height="5.31" fill="#6a87af"/><rect x="5.31" y="122.21" width="5.31" height="5.31" fill="#97bcd6"/><rect x="5.31" y="116.9" width="5.31" height="5.31" fill="#cfefff"/><rect x="5.31" y="111.58" width="5.31" height="5.31" fill="#1b0003"/><rect y="127.52" width="5.31" height="5.31" fill="#1b0003"/><rect y="122.21" width="5.31" height="5.31" fill="#1b0003"/><rect y="116.9" width="5.31" height="5.31" fill="#1b0003"/></g></g></g></svg>