<svg xmlns="http://www.w3.org/2000/svg" width="100.78" height="143.98" viewBox="0 0 100.78 143.98"><g id="Layer_2" data-name="Layer 2"><g id="items"><g id="Yellow_Potion" data-name="Yellow Potion"><rect x="95.98" y="105.58" width="4.8" height="4.8" fill="#1b0003"/><rect x="95.98" y="100.78" width="4.8" height="4.8" fill="#1b0003"/><rect x="95.98" y="95.98" width="4.8" height="4.8" fill="#1b0003"/><rect x="95.98" y="91.18" width="4.8" height="4.8" fill="#1b0003"/><rect x="91.18" y="115.18" width="4.8" height="4.8" fill="#1b0003"/><rect x="91.18" y="110.38" width="4.8" height="4.8" fill="#1b0003"/><rect x="91.18" y="105.58" width="4.8" height="4.8" fill="#6a87af"/><rect x="91.18" y="100.78" width="4.8" height="4.8" fill="#6a87af"/><rect x="91.18" y="95.98" width="4.8" height="4.8" fill="#6a87af"/><rect x="91.18" y="91.18" width="4.8" height="4.8" fill="#6a87af"/><rect x="91.18" y="86.39" width="4.8" height="4.8" fill="#1b0003"/><rect x="91.18" y="81.59" width="4.8" height="4.8" fill="#1b0003"/><rect x="86.39" y="124.78" width="4.8" height="4.8" fill="#1b0003"/><rect x="86.39" y="119.98" width="4.8" height="4.8" fill="#1b0003"/><rect x="86.39" y="115.18" width="4.8" height="4.8" fill="#6a87af"/><rect x="86.39" y="110.38" width="4.8" height="4.8" fill="#6a87af"/><rect x="86.39" y="105.58" width="4.8" height="4.8" fill="#f7c45e"/><rect x="86.39" y="100.78" width="4.8" height="4.8" fill="#f7c45e"/><rect x="86.39" y="95.98" width="4.8" height="4.8" fill="#f7c45e"/><rect x="86.39" y="91.18" width="4.8" height="4.8" fill="#f7c45e"/><rect x="86.39" y="86.39" width="4.8" height="4.8" fill="#6a87af"/><rect x="86.39" y="81.59" width="4.8" height="4.8" fill="#6a87af"/><rect x="86.39" y="76.79" width="4.8" height="4.8" fill="#1b0003"/><rect x="86.39" y="71.99" width="4.8" height="4.8" fill="#1b0003"/><rect x="81.59" y="129.58" width="4.8" height="4.8" fill="#1b0003"/><rect x="81.59" y="124.78" width="4.8" height="4.8" fill="#6a87af"/><rect x="81.59" y="119.98" width="4.8" height="4.8" fill="#6a87af"/><rect x="81.59" y="115.18" width="4.8" height="4.8" fill="#f7c45e"/><rect x="81.59" y="110.38" width="4.8" height="4.8" fill="#f7c45e"/><rect x="81.59" y="105.58" width="4.8" height="4.8" fill="#f7c45e"/><rect x="81.59" y="100.78" width="4.8" height="4.8" fill="#f9f2d4"/><rect x="81.59" y="95.98" width="4.8" height="4.8" fill="#f9f2d4"/><rect x="81.59" y="91.18" width="4.8" height="4.8" fill="#f9f2d4"/><rect x="81.59" y="86.39" width="4.8" height="4.8" fill="#f9f2d4"/><rect x="81.59" y="81.59" width="4.8" height="4.8" fill="#f9f2d4"/><rect x="81.59" y="76.79" width="4.8" height="4.8" fill="#6a87af"/><rect x="81.59" y="71.99" width="4.8" height="4.8" fill="#6a87af"/><rect x="81.59" y="67.19" width="4.8" height="4.8" fill="#1b0003"/><rect x="76.79" y="134.38" width="4.8" height="4.8" fill="#1b0003"/><rect x="76.79" y="129.58" width="4.8" height="4.8" fill="#6a87af"/><rect x="76.79" y="124.78" width="4.8" height="4.8" fill="#f7c45e"/><rect x="76.79" y="119.98" width="4.8" height="4.8" fill="#f7c45e"/><rect x="76.79" y="115.18" width="4.8" height="4.8" fill="#f7c45e"/><rect x="76.79" y="110.38" width="4.8" height="4.8" fill="#ea942d"/><rect x="76.79" y="105.58" width="4.8" height="4.8" fill="#ea942d"/><rect x="76.79" y="100.78" width="4.8" height="4.8" fill="#ea942d"/><rect x="76.79" y="95.98" width="4.8" height="4.8" fill="#db6d12"/><rect x="76.79" y="91.18" width="4.8" height="4.8" fill="#ea942d"/><rect x="76.79" y="86.39" width="4.8" height="4.8" fill="#fff"/><rect x="76.79" y="81.59" width="4.8" height="4.8" fill="#fff"/><rect x="76.79" y="76.79" width="4.8" height="4.8" fill="#fff"/><rect x="76.79" y="71.99" width="4.8" height="4.8" fill="#f9f2d4"/><rect x="76.79" y="67.19" width="4.8" height="4.8" fill="#a3c6e2"/><rect x="76.79" y="62.39" width="4.8" height="4.8" fill="#1b0003"/><rect x="71.99" y="134.38" width="4.8" height="4.8" fill="#1b0003"/><rect x="71.99" y="129.58" width="4.8" height="4.8" fill="#6a87af"/><rect x="71.99" y="124.78" width="4.8" height="4.8" fill="#f7c45e"/><rect x="71.99" y="119.98" width="4.8" height="4.8" fill="#ea942d"/><rect x="71.99" y="115.18" width="4.8" height="4.8" fill="#ea942d"/><rect x="71.99" y="110.38" width="4.8" height="4.8" fill="#ea942d"/><rect x="71.99" y="105.58" width="4.8" height="4.8" fill="#ea942d"/><rect x="71.99" y="100.78" width="4.8" height="4.8" fill="#db6d12"/><rect x="71.99" y="95.98" width="4.8" height="4.8" fill="#db6d12"/><rect x="71.99" y="91.18" width="4.8" height="4.8" fill="#db6d12"/><rect x="71.99" y="86.39" width="4.8" height="4.8" fill="#db6d12"/><rect x="71.99" y="81.59" width="4.8" height="4.8" fill="#db6d12"/><rect x="71.99" y="76.79" width="4.8" height="4.8" fill="#fff"/><rect x="71.99" y="71.99" width="4.8" height="4.8" fill="#fff"/><rect x="71.99" y="67.19" width="4.8" height="4.8" fill="#a3c6e2"/><rect x="71.99" y="62.39" width="4.8" height="4.8" fill="#1b0003"/><rect x="67.19" y="139.18" width="4.8" height="4.8" fill="#1b0003"/><rect x="67.19" y="134.38" width="4.8" height="4.8" fill="#6a87af"/><rect x="67.19" y="129.58" width="4.8" height="4.8" fill="#f7c45e"/><rect x="67.19" y="124.78" width="4.8" height="4.8" fill="#ea942d"/><rect x="67.19" y="119.98" width="4.8" height="4.8" fill="#ea942d"/><rect x="67.19" y="115.18" width="4.8" height="4.8" fill="#ea942d"/><rect x="67.19" y="110.38" width="4.8" height="4.8" fill="#db6d12"/><rect x="67.19" y="105.58" width="4.8" height="4.8" fill="#db6d12"/><rect x="67.19" y="100.78" width="4.8" height="4.8" fill="#db6d12"/><rect x="67.19" y="95.98" width="4.8" height="4.8" fill="#db6d12"/><rect x="67.19" y="91.18" width="4.8" height="4.8" fill="#db6d12"/><rect x="67.19" y="86.39" width="4.8" height="4.8" fill="#db6d12"/><rect x="67.19" y="81.59" width="4.8" height="4.8" fill="#db6d12"/><rect x="67.19" y="76.79" width="4.8" height="4.8" fill="#db6d12"/><rect x="67.19" y="71.99" width="4.8" height="4.8" fill="#fff"/><rect x="67.19" y="67.19" width="4.8" height="4.8" fill="#fff"/><rect x="67.19" y="62.39" width="4.8" height="4.8" fill="#a3c6e2"/><rect x="67.19" y="57.59" width="4.8" height="4.8" fill="#1b0003"/><rect x="62.39" y="139.18" width="4.8" height="4.8" fill="#1b0003"/><rect x="62.39" y="134.38" width="4.8" height="4.8" fill="#6a87af"/><rect x="62.39" y="129.58" width="4.8" height="4.8" fill="#f7c45e"/><rect x="62.39" y="124.78" width="4.8" height="4.8" fill="#ea942d"/><rect x="62.39" y="119.98" width="4.8" height="4.8" fill="#ea942d"/><rect x="62.39" y="115.18" width="4.8" height="4.8" fill="#db6d12"/><rect x="62.39" y="110.38" width="4.8" height="4.8" fill="#db6d12"/><rect x="62.39" y="105.58" width="4.8" height="4.8" fill="#db6d12"/><rect x="62.39" y="100.78" width="4.8" height="4.8" fill="#db6d12"/><rect x="62.39" y="95.98" width="4.8" height="4.8" fill="#db6d12"/><rect x="62.39" y="91.18" width="4.8" height="4.8" fill="#f7c45e"/><rect x="62.39" y="86.39" width="4.8" height="4.8" fill="#db6d12"/><rect x="62.39" y="81.59" width="4.8" height="4.8" fill="#db6d12"/><rect x="62.39" y="76.79" width="4.8" height="4.8" fill="#db6d12"/><rect x="62.39" y="71.99" width="4.8" height="4.8" fill="#db6d12"/><rect x="62.39" y="67.19" width="4.8" height="4.8" fill="#fff"/><rect x="62.39" y="62.39" width="4.8" height="4.8" fill="#a3c6e2"/><rect x="62.39" y="57.59" width="4.8" height="4.8" fill="#1b0003"/><rect x="62.39" y="14.4" width="4.8" height="4.8" fill="#1b0003"/><rect x="62.39" y="9.6" width="4.8" height="4.8" fill="#1b0003"/><rect x="57.59" y="139.18" width="4.8" height="4.8" fill="#1b0003"/><rect x="57.59" y="134.38" width="4.8" height="4.8" fill="#6a87af"/><rect x="57.59" y="129.58" width="4.8" height="4.8" fill="#f7c45e"/><rect x="57.59" y="124.78" width="4.8" height="4.8" fill="#ea942d"/><rect x="57.59" y="119.98" width="4.8" height="4.8" fill="#db6d12"/><rect x="57.59" y="115.18" width="4.8" height="4.8" fill="#db6d12"/><rect x="57.59" y="110.38" width="4.8" height="4.8" fill="#db6d12"/><rect x="57.59" y="105.58" width="4.8" height="4.8" fill="#f7c45e"/><rect x="57.59" y="100.78" width="4.8" height="4.8" fill="#db6d12"/><rect x="57.59" y="95.98" width="4.8" height="4.8" fill="#f7c45e"/><rect x="57.59" y="91.18" width="4.8" height="4.8" fill="#db6d12"/><rect x="57.59" y="86.39" width="4.8" height="4.8" fill="#f7c45e"/><rect x="57.59" y="81.59" width="4.8" height="4.8" fill="#f7c45e"/><rect x="57.59" y="76.79" width="4.8" height="4.8" fill="#f7c45e"/><rect x="57.59" y="71.99" width="4.8" height="4.8" fill="#db6d12"/><rect x="57.59" y="67.19" width="4.8" height="4.8" fill="#f7c45e"/><rect x="57.59" y="62.39" width="4.8" height="4.8" fill="#bedbed"/><rect x="57.59" y="57.59" width="4.8" height="4.8" fill="#223c5b"/><rect x="57.59" y="52.79" width="4.8" height="4.8" fill="#1b0003"/><rect x="57.59" y="47.99" width="4.8" height="4.8" fill="#1b0003"/><rect x="57.59" y="43.19" width="4.8" height="4.8" fill="#1b0003"/><rect x="57.59" y="38.39" width="4.8" height="4.8" fill="#1b0003"/><rect x="57.59" y="33.59" width="4.8" height="4.8" fill="#1b0003"/><rect x="57.59" y="28.8" width="4.8" height="4.8" fill="#1b0003"/><rect x="57.59" y="24" width="4.8" height="4.8" fill="#1b0003"/><rect x="57.59" y="19.2" width="4.8" height="4.8" fill="#1b0003"/><rect x="57.59" y="14.4" width="4.8" height="4.8" fill="#6a87af"/><rect x="57.59" y="9.6" width="4.8" height="4.8" fill="#1b0003"/><rect x="57.59" y="4.8" width="4.8" height="4.8" fill="#1b0003"/><rect x="52.79" y="139.18" width="4.8" height="4.8" fill="#1b0003"/><rect x="52.79" y="134.38" width="4.8" height="4.8" fill="#6a87af"/><rect x="52.79" y="129.58" width="4.8" height="4.8" fill="#f7c45e"/><rect x="52.79" y="124.78" width="4.8" height="4.8" fill="#ea942d"/><rect x="52.79" y="119.98" width="4.8" height="4.8" fill="#db6d12"/><rect x="52.79" y="115.18" width="4.8" height="4.8" fill="#db6d12"/><rect x="52.79" y="110.38" width="4.8" height="4.8" fill="#f7c45e"/><rect x="52.79" y="105.58" width="4.8" height="4.8" fill="#db6d12"/><rect x="52.79" y="100.78" width="4.8" height="4.8" fill="#f7c45e"/><rect x="52.79" y="95.98" width="4.8" height="4.8" fill="#db6d12"/><rect x="52.79" y="91.18" width="4.8" height="4.8" fill="#f7c45e"/><rect x="52.79" y="86.39" width="4.8" height="4.8" fill="#f7c45e"/><rect x="52.79" y="81.59" width="4.8" height="4.8" fill="#f7c45e"/><rect x="52.79" y="76.79" width="4.8" height="4.8" fill="#f7c45e"/><rect x="52.79" y="71.99" width="4.8" height="4.8" fill="#f7c45e"/><rect x="52.79" y="67.19" width="4.8" height="4.8" fill="#f9f2d4"/><rect x="52.79" y="62.39" width="4.8" height="4.8" fill="#bedbed"/><rect x="52.79" y="57.59" width="4.8" height="4.8" fill="#bedbed"/><rect x="52.79" y="52.79" width="4.8" height="4.8" fill="#bedbed"/><rect x="52.79" y="47.99" width="4.8" height="4.8" fill="#bedbed"/><rect x="52.79" y="43.19" width="4.8" height="4.8" fill="#bedbed"/><rect x="52.79" y="38.39" width="4.8" height="4.8" fill="#bedbed"/><rect x="52.79" y="33.59" width="4.8" height="4.8" fill="#a3c6e2"/><rect x="52.79" y="28.8" width="4.8" height="4.8" fill="#a3c6e2"/><rect x="52.79" y="24" width="4.8" height="4.8" fill="#6a87af"/><rect x="52.79" y="19.2" width="4.8" height="4.8" fill="#6a87af"/><rect x="52.79" y="14.4" width="4.8" height="4.8" fill="#7f1e14"/><rect x="52.79" y="9.6" width="4.8" height="4.8" fill="#1b0003"/><rect x="52.79" y="4.8" width="4.8" height="4.8" fill="#e86f3f"/><rect x="52.79" width="4.8" height="4.8" fill="#1b0003"/><rect x="47.99" y="139.18" width="4.8" height="4.8" fill="#1b0003"/><rect x="47.99" y="134.38" width="4.8" height="4.8" fill="#6a87af"/><rect x="47.99" y="129.58" width="4.8" height="4.8" fill="#f7c45e"/><rect x="47.99" y="124.78" width="4.8" height="4.8" fill="#db6d12"/><rect x="47.99" y="119.98" width="4.8" height="4.8" fill="#db6d12"/><rect x="47.99" y="115.18" width="4.8" height="4.8" fill="#f7c45e"/><rect x="47.99" y="110.38" width="4.8" height="4.8" fill="#db6d12"/><rect x="47.99" y="105.58" width="4.8" height="4.8" fill="#f7c45e"/><rect x="47.99" y="100.78" width="4.8" height="4.8" fill="#db6d12"/><rect x="47.99" y="95.98" width="4.8" height="4.8" fill="#f7c45e"/><rect x="47.99" y="91.18" width="4.8" height="4.8" fill="#f7c45e"/><rect x="47.99" y="86.39" width="4.8" height="4.8" fill="#f7c45e"/><rect x="47.99" y="81.59" width="4.8" height="4.8" fill="#f7c45e"/><rect x="47.99" y="76.79" width="4.8" height="4.8" fill="#f7c45e"/><rect x="47.99" y="71.99" width="4.8" height="4.8" fill="#f7c45e"/><rect x="47.99" y="67.19" width="4.8" height="4.8" fill="#f9f2d4"/><rect x="47.99" y="62.39" width="4.8" height="4.8" fill="#fff"/><rect x="47.99" y="57.59" width="4.8" height="4.8" fill="#fff"/><rect x="47.99" y="52.79" width="4.8" height="4.8" fill="#fff"/><rect x="47.99" y="47.99" width="4.8" height="4.8" fill="#fff"/><rect x="47.99" y="43.19" width="4.8" height="4.8" fill="#fff"/><rect x="47.99" y="38.39" width="4.8" height="4.8" fill="#fff"/><rect x="47.99" y="33.59" width="4.8" height="4.8" fill="#fff"/><rect x="47.99" y="28.8" width="4.8" height="4.8" fill="#fff"/><rect x="47.99" y="24" width="4.8" height="4.8" fill="#fff"/><rect x="47.99" y="19.2" width="4.8" height="4.8" fill="#fff"/><rect x="47.99" y="14.4" width="4.8" height="4.8" fill="#7f1e14"/><rect x="47.99" y="9.6" width="4.8" height="4.8" fill="#1b0003"/><rect x="47.99" y="4.8" width="4.8" height="4.8" fill="#e86f3f"/><rect x="47.99" width="4.8" height="4.8" fill="#1b0003"/><rect x="43.19" y="139.18" width="4.8" height="4.8" fill="#1b0003"/><rect x="43.19" y="134.38" width="4.8" height="4.8" fill="#6a87af"/><rect x="43.19" y="129.58" width="4.8" height="4.8" fill="#f7c45e"/><rect x="43.19" y="124.78" width="4.8" height="4.8" fill="#db6d12"/><rect x="43.19" y="119.98" width="4.8" height="4.8" fill="#db6d12"/><rect x="43.19" y="115.18" width="4.8" height="4.8" fill="#db6d12"/><rect x="43.19" y="110.38" width="4.8" height="4.8" fill="#f7c45e"/><rect x="43.19" y="105.58" width="4.8" height="4.8" fill="#db6d12"/><rect x="43.19" y="100.78" width="4.8" height="4.8" fill="#f7c45e"/><rect x="43.19" y="95.98" width="4.8" height="4.8" fill="#f7c45e"/><rect x="43.19" y="91.18" width="4.8" height="4.8" fill="#f7c45e"/><rect x="43.19" y="86.39" width="4.8" height="4.8" fill="#f7c45e"/><rect x="43.19" y="81.59" width="4.8" height="4.8" fill="#f7c45e"/><rect x="43.19" y="76.79" width="4.8" height="4.8" fill="#f7c45e"/><rect x="43.19" y="71.99" width="4.8" height="4.8" fill="#f9f2d4"/><rect x="43.19" y="67.19" width="4.8" height="4.8" fill="#f9f2d4"/><rect x="43.19" y="62.39" width="4.8" height="4.8" fill="#a3c6e2"/><rect x="43.19" y="57.59" width="4.8" height="4.8" fill="#a3c6e2"/><rect x="43.19" y="52.79" width="4.8" height="4.8" fill="#a3c6e2"/><rect x="43.19" y="47.99" width="4.8" height="4.8" fill="#a3c6e2"/><rect x="43.19" y="43.19" width="4.8" height="4.8" fill="#a3c6e2"/><rect x="43.19" y="38.39" width="4.8" height="4.8" fill="#a3c6e2"/><rect x="43.19" y="33.59" width="4.8" height="4.8" fill="#a3c6e2"/><rect x="43.19" y="28.8" width="4.8" height="4.8" fill="#a3c6e2"/><rect x="43.19" y="24" width="4.8" height="4.8" fill="#a3c6e2"/><rect x="43.19" y="19.2" width="4.8" height="4.8" fill="#a3c6e2"/><rect x="43.19" y="14.4" width="4.8" height="4.8" fill="#7f1e14"/><rect x="43.19" y="9.6" width="4.8" height="4.8" fill="#1b0003"/><rect x="43.19" y="4.8" width="4.8" height="4.8" fill="#f2904e"/><rect x="43.19" width="4.8" height="4.8" fill="#1b0003"/><rect x="38.39" y="139.18" width="4.8" height="4.8" fill="#1b0003"/><rect x="38.39" y="134.38" width="4.8" height="4.8" fill="#6a87af"/><rect x="38.39" y="129.58" width="4.8" height="4.8" fill="#f7c45e"/><rect x="38.39" y="124.78" width="4.8" height="4.8" fill="#db6d12"/><rect x="38.39" y="119.98" width="4.8" height="4.8" fill="#db6d12"/><rect x="38.39" y="115.18" width="4.8" height="4.8" fill="#f7c45e"/><rect x="38.39" y="110.38" width="4.8" height="4.8" fill="#db6d12"/><rect x="38.39" y="105.58" width="4.8" height="4.8" fill="#f7c45e"/><rect x="38.39" y="100.78" width="4.8" height="4.8" fill="#f7c45e"/><rect x="38.39" y="95.98" width="4.8" height="4.8" fill="#f7c45e"/><rect x="38.39" y="91.18" width="4.8" height="4.8" fill="#f7c45e"/><rect x="38.39" y="86.39" width="4.8" height="4.8" fill="#f7c45e"/><rect x="38.39" y="81.59" width="4.8" height="4.8" fill="#f9f2d4"/><rect x="38.39" y="76.79" width="4.8" height="4.8" fill="#fff"/><rect x="38.39" y="71.99" width="4.8" height="4.8" fill="#fff"/><rect x="38.39" y="67.19" width="4.8" height="4.8" fill="#f9f2d4"/><rect x="38.39" y="62.39" width="4.8" height="4.8" fill="#a3c6e2"/><rect x="38.39" y="57.59" width="4.8" height="4.8" fill="#223c5b"/><rect x="38.39" y="52.79" width="4.8" height="4.8" fill="#1b0003"/><rect x="38.39" y="47.99" width="4.8" height="4.8" fill="#1b0003"/><rect x="38.39" y="43.19" width="4.8" height="4.8" fill="#1b0003"/><rect x="38.39" y="38.39" width="4.8" height="4.8" fill="#1b0003"/><rect x="38.39" y="33.59" width="4.8" height="4.8" fill="#1b0003"/><rect x="38.39" y="28.8" width="4.8" height="4.8" fill="#1b0003"/><rect x="38.39" y="24" width="4.8" height="4.8" fill="#1b0003"/><rect x="38.39" y="19.2" width="4.8" height="4.8" fill="#1b0003"/><rect x="38.39" y="14.4" width="4.8" height="4.8" fill="#bedbed"/><rect x="38.39" y="9.6" width="4.8" height="4.8" fill="#1b0003"/><rect x="38.39" y="4.8" width="4.8" height="4.8" fill="#1b0003"/><rect x="33.59" y="139.18" width="4.8" height="4.8" fill="#1b0003"/><rect x="33.59" y="134.38" width="4.8" height="4.8" fill="#6a87af"/><rect x="33.59" y="129.58" width="4.8" height="4.8" fill="#f7c45e"/><rect x="33.59" y="124.78" width="4.8" height="4.8" fill="#db6d12"/><rect x="33.59" y="119.98" width="4.8" height="4.8" fill="#f7c45e"/><rect x="33.59" y="115.18" width="4.8" height="4.8" fill="#db6d12"/><rect x="33.59" y="110.38" width="4.8" height="4.8" fill="#f7c45e"/><rect x="33.59" y="105.58" width="4.8" height="4.8" fill="#f7c45e"/><rect x="33.59" y="100.78" width="4.8" height="4.8" fill="#f7c45e"/><rect x="33.59" y="95.98" width="4.8" height="4.8" fill="#f9f2d4"/><rect x="33.59" y="91.18" width="4.8" height="4.8" fill="#f9f2d4"/><rect x="33.59" y="86.39" width="4.8" height="4.8" fill="#fff"/><rect x="33.59" y="81.59" width="4.8" height="4.8" fill="#fff"/><rect x="33.59" y="76.79" width="4.8" height="4.8" fill="#fff"/><rect x="33.59" y="71.99" width="4.8" height="4.8" fill="#fff"/><rect x="33.59" y="67.19" width="4.8" height="4.8" fill="#fff"/><rect x="33.59" y="62.39" width="4.8" height="4.8" fill="#a3c6e2"/><rect x="33.59" y="57.59" width="4.8" height="4.8" fill="#1b0003"/><rect x="33.59" y="14.4" width="4.8" height="4.8" fill="#1b0003"/><rect x="33.59" y="9.6" width="4.8" height="4.8" fill="#1b0003"/><rect x="28.8" y="139.18" width="4.8" height="4.8" fill="#1b0003"/><rect x="28.8" y="134.38" width="4.8" height="4.8" fill="#bedbed"/><rect x="28.8" y="129.58" width="4.8" height="4.8" fill="#f7c45e"/><rect x="28.8" y="124.78" width="4.8" height="4.8" fill="#f7c45e"/><rect x="28.8" y="119.98" width="4.8" height="4.8" fill="#f7c45e"/><rect x="28.8" y="115.18" width="4.8" height="4.8" fill="#f7c45e"/><rect x="28.8" y="110.38" width="4.8" height="4.8" fill="#f7c45e"/><rect x="28.8" y="105.58" width="4.8" height="4.8" fill="#f9f2d4"/><rect x="28.8" y="100.78" width="4.8" height="4.8" fill="#f9f2d4"/><rect x="28.8" y="95.98" width="4.8" height="4.8" fill="#f9f2d4"/><rect x="28.8" y="91.18" width="4.8" height="4.8" fill="#f9f2d4"/><rect x="28.8" y="86.39" width="4.8" height="4.8" fill="#fff"/><rect x="28.8" y="81.59" width="4.8" height="4.8" fill="#fff"/><rect x="28.8" y="76.79" width="4.8" height="4.8" fill="#fff"/><rect x="28.8" y="71.99" width="4.8" height="4.8" fill="#fff"/><rect x="28.8" y="67.19" width="4.8" height="4.8" fill="#f9f2d4"/><rect x="28.8" y="62.39" width="4.8" height="4.8" fill="#6a87af"/><rect x="28.8" y="57.59" width="4.8" height="4.8" fill="#1b0003"/><rect x="24" y="139.18" width="4.8" height="4.8" fill="#1b0003"/><rect x="24" y="134.38" width="4.8" height="4.8" fill="#bedbed"/><rect x="24" y="129.58" width="4.8" height="4.8" fill="#f7c45e"/><rect x="24" y="124.78" width="4.8" height="4.8" fill="#f7c45e"/><rect x="24" y="119.98" width="4.8" height="4.8" fill="#f9f2d4"/><rect x="24" y="115.18" width="4.8" height="4.8" fill="#f9f2d4"/><rect x="24" y="110.38" width="4.8" height="4.8" fill="#f9f2d4"/><rect x="24" y="105.58" width="4.8" height="4.8" fill="#f9f2d4"/><rect x="24" y="100.78" width="4.8" height="4.8" fill="#f9f2d4"/><rect x="24" y="95.98" width="4.8" height="4.8" fill="#f9f2d4"/><rect x="24" y="91.18" width="4.8" height="4.8" fill="#fff"/><rect x="24" y="86.39" width="4.8" height="4.8" fill="#fff"/><rect x="24" y="81.59" width="4.8" height="4.8" fill="#fff"/><rect x="24" y="76.79" width="4.8" height="4.8" fill="#fff"/><rect x="24" y="71.99" width="4.8" height="4.8" fill="#f9f2d4"/><rect x="24" y="67.19" width="4.8" height="4.8" fill="#a3c6e2"/><rect x="24" y="62.39" width="4.8" height="4.8" fill="#1b0003"/><rect x="19.2" y="134.38" width="4.8" height="4.8" fill="#1b0003"/><rect x="19.2" y="129.58" width="4.8" height="4.8" fill="#bedbed"/><rect x="19.2" y="124.78" width="4.8" height="4.8" fill="#f7c45e"/><rect x="19.2" y="119.98" width="4.8" height="4.8" fill="#f7c45e"/><rect x="19.2" y="115.18" width="4.8" height="4.8" fill="#f9f2d4"/><rect x="19.2" y="110.38" width="4.8" height="4.8" fill="#f9f2d4"/><rect x="19.2" y="105.58" width="4.8" height="4.8" fill="#f9f2d4"/><rect x="19.2" y="100.78" width="4.8" height="4.8" fill="#f9f2d4"/><rect x="19.2" y="95.98" width="4.8" height="4.8" fill="#f9f2d4"/><rect x="19.2" y="91.18" width="4.8" height="4.8" fill="#f9f2d4"/><rect x="19.2" y="86.39" width="4.8" height="4.8" fill="#fff"/><rect x="19.2" y="81.59" width="4.8" height="4.8" fill="#fff"/><rect x="19.2" y="76.79" width="4.8" height="4.8" fill="#f9f2d4"/><rect x="19.2" y="71.99" width="4.8" height="4.8" fill="#a3c6e2"/><rect x="19.2" y="67.19" width="4.8" height="4.8" fill="#6a87af"/><rect x="19.2" y="62.39" width="4.8" height="4.8" fill="#1b0003"/><rect x="14.4" y="129.58" width="4.8" height="4.8" fill="#1b0003"/><rect x="14.4" y="124.78" width="4.8" height="4.8" fill="#bedbed"/><rect x="14.4" y="119.98" width="4.8" height="4.8" fill="#bedbed"/><rect x="14.4" y="115.18" width="4.8" height="4.8" fill="#f7c45e"/><rect x="14.4" y="110.38" width="4.8" height="4.8" fill="#f9f2d4"/><rect x="14.4" y="105.58" width="4.8" height="4.8" fill="#f9f2d4"/><rect x="14.4" y="100.78" width="4.8" height="4.8" fill="#f9f2d4"/><rect x="14.4" y="95.98" width="4.8" height="4.8" fill="#f9f2d4"/><rect x="14.4" y="91.18" width="4.8" height="4.8" fill="#f9f2d4"/><rect x="14.4" y="86.39" width="4.8" height="4.8" fill="#f9f2d4"/><rect x="14.4" y="81.59" width="4.8" height="4.8" fill="#f9f2d4"/><rect x="14.4" y="76.79" width="4.8" height="4.8" fill="#a3c6e2"/><rect x="14.4" y="71.99" width="4.8" height="4.8" fill="#6a87af"/><rect x="14.4" y="67.19" width="4.8" height="4.8" fill="#1b0003"/><rect x="9.6" y="124.78" width="4.8" height="4.8" fill="#1b0003"/><rect x="9.6" y="119.98" width="4.8" height="4.8" fill="#1b0003"/><rect x="9.6" y="115.18" width="4.8" height="4.8" fill="#bedbed"/><rect x="9.6" y="110.38" width="4.8" height="4.8" fill="#bedbed"/><rect x="9.6" y="105.58" width="4.8" height="4.8" fill="#f9f2d4"/><rect x="9.6" y="100.78" width="4.8" height="4.8" fill="#f9f2d4"/><rect x="9.6" y="95.98" width="4.8" height="4.8" fill="#f9f2d4"/><rect x="9.6" y="91.18" width="4.8" height="4.8" fill="#f9f2d4"/><rect x="9.6" y="86.39" width="4.8" height="4.8" fill="#a3c6e2"/><rect x="9.6" y="81.59" width="4.8" height="4.8" fill="#6a87af"/><rect x="9.6" y="76.79" width="4.8" height="4.8" fill="#1b0003"/><rect x="9.6" y="71.99" width="4.8" height="4.8" fill="#1b0003"/><rect x="4.8" y="115.18" width="4.8" height="4.8" fill="#1b0003"/><rect x="4.8" y="110.38" width="4.8" height="4.8" fill="#1b0003"/><rect x="4.8" y="105.58" width="4.8" height="4.8" fill="#6a87af"/><rect x="4.8" y="100.78" width="4.8" height="4.8" fill="#6a87af"/><rect x="4.8" y="95.98" width="4.8" height="4.8" fill="#6a87af"/><rect x="4.8" y="91.18" width="4.8" height="4.8" fill="#6a87af"/><rect x="4.8" y="86.39" width="4.8" height="4.8" fill="#1b0003"/><rect x="4.8" y="81.59" width="4.8" height="4.8" fill="#1b0003"/><rect y="105.58" width="4.8" height="4.8" fill="#1b0003"/><rect y="100.78" width="4.8" height="4.8" fill="#1b0003"/><rect y="95.98" width="4.8" height="4.8" fill="#1b0003"/><rect y="91.18" width="4.8" height="4.8" fill="#1b0003"/></g></g></g></svg>