<svg xmlns="http://www.w3.org/2000/svg" width="130.18" height="130.18" viewBox="0 0 130.18 130.18"><g id="Layer_2" data-name="Layer 2"><g id="items"><g id="Arrow"><path d="M31.15,130.18H9.43v-4.71H4.72v-4.72H0V99H4.72V94.32H9.43V89.6h9.43V84.89h4.72V80.17H28.3V75.45H33V70.74h4.72V66h4.71V61.31h4.72V56.59h4.71V51.87h4.72V47.16h4.72V42.44H66V37.73h4.72V33h4.71V28.29h4.72V23.58h4.72V18.86H89.6V4.72h4.72V0h35.86V35.86h-4.72v4.72H111.32v4.71H106.6V50h-4.71v4.72H97.17v4.71H92.45v4.72H87.74v4.71H83v4.72H78.31v4.72H73.59V83H68.87v4.72H64.16v4.71H59.44v4.72H54.73v4.72H50v4.71H45.3v4.72H40.58v9.43H35.86v4.72H31.15ZM111.32,18.86h1.86V17h-1.86Z" fill="#fff"/><g id="Arrow-2" data-name="Arrow"><rect x="116.96" y="22.65" width="4.72" height="4.72" fill="#1b0003"/><rect x="116.96" y="17.93" width="4.72" height="4.72" fill="#1b0003"/><rect x="116.96" y="13.22" width="4.72" height="4.72" fill="#1b0003"/><rect x="116.96" y="8.5" width="4.72" height="4.72" fill="#1b0003"/><rect x="112.25" y="27.36" width="4.72" height="4.72" fill="#1b0003"/><rect x="112.25" y="22.65" width="4.72" height="4.72" fill="#6a87af"/><rect x="112.25" y="17.93" width="4.72" height="4.72" fill="#6a87af"/><rect x="112.25" y="13.22" width="4.72" height="4.72" fill="#bedbed"/><rect x="112.25" y="8.5" width="4.72" height="4.72" fill="#1b0003"/><rect x="107.53" y="22.65" width="4.72" height="4.72" fill="#1b0003"/><rect x="107.53" y="17.93" width="4.72" height="4.72" fill="#85a1c9"/><rect x="107.53" y="13.22" width="4.72" height="4.72" fill="#bedbed"/><rect x="107.53" y="8.5" width="4.72" height="4.72" fill="#1b0003"/><rect x="102.82" y="27.36" width="4.72" height="4.72" fill="#1b0003"/><rect x="102.82" y="22.65" width="4.72" height="4.72" fill="#e86f3f"/><rect x="102.82" y="17.93" width="4.72" height="4.72" fill="#1b0003"/><rect x="102.82" y="13.22" width="4.72" height="4.72" fill="#bedbed"/><rect x="102.82" y="8.5" width="4.72" height="4.72" fill="#1b0003"/><rect x="98.1" y="32.08" width="4.72" height="4.72" fill="#1b0003"/><rect x="98.1" y="27.36" width="4.72" height="4.72" fill="#e86f3f"/><rect x="98.1" y="22.65" width="4.72" height="4.72" fill="#1b0003"/><rect x="98.1" y="13.22" width="4.72" height="4.72" fill="#1b0003"/><rect x="93.39" y="36.79" width="4.72" height="4.72" fill="#1b0003"/><rect x="93.39" y="32.08" width="4.72" height="4.72" fill="#e86f3f"/><rect x="93.39" y="27.36" width="4.72" height="4.72" fill="#1b0003"/><rect x="88.67" y="41.51" width="4.72" height="4.72" fill="#1b0003"/><rect x="88.67" y="36.79" width="4.72" height="4.72" fill="#e86f3f"/><rect x="88.67" y="32.08" width="4.72" height="4.72" fill="#1b0003"/><rect x="83.95" y="46.23" width="4.72" height="4.72" fill="#1b0003"/><rect x="83.95" y="41.51" width="4.72" height="4.72" fill="#ef8741"/><rect x="83.95" y="36.79" width="4.72" height="4.72" fill="#1b0003"/><rect x="79.24" y="50.94" width="4.72" height="4.72" fill="#1b0003"/><rect x="79.24" y="46.23" width="4.72" height="4.72" fill="#ef8741"/><rect x="79.24" y="41.51" width="4.72" height="4.72" fill="#1b0003"/><rect x="74.52" y="55.66" width="4.72" height="4.72" fill="#1b0003"/><rect x="74.52" y="50.94" width="4.72" height="4.72" fill="#fa9c5c"/><rect x="74.52" y="46.23" width="4.72" height="4.72" fill="#1b0003"/><rect x="69.81" y="60.37" width="4.72" height="4.72" fill="#1b0003"/><rect x="69.81" y="55.66" width="4.72" height="4.72" fill="#fa9c5c"/><rect x="69.81" y="50.94" width="4.72" height="4.72" fill="#1b0003"/><rect x="65.09" y="65.09" width="4.72" height="4.72" fill="#1b0003"/><rect x="65.09" y="60.37" width="4.72" height="4.72" fill="#fa9c5c"/><rect x="65.09" y="55.66" width="4.72" height="4.72" fill="#1b0003"/><rect x="60.37" y="69.81" width="4.72" height="4.72" fill="#1b0003"/><rect x="60.37" y="65.09" width="4.72" height="4.72" fill="#fa9c5c"/><rect x="60.37" y="60.37" width="4.72" height="4.72" fill="#1b0003"/><rect x="55.66" y="74.52" width="4.72" height="4.72" fill="#1b0003"/><rect x="55.66" y="69.81" width="4.72" height="4.72" fill="#ef8741"/><rect x="55.66" y="65.09" width="4.72" height="4.72" fill="#1b0003"/><rect x="50.94" y="79.24" width="4.72" height="4.72" fill="#1b0003"/><rect x="50.94" y="74.52" width="4.72" height="4.72" fill="#ef8741"/><rect x="50.94" y="69.81" width="4.72" height="4.72" fill="#1b0003"/><rect x="46.23" y="83.95" width="4.72" height="4.72" fill="#1b0003"/><rect x="46.23" y="79.24" width="4.72" height="4.72" fill="#e86f3f"/><rect x="46.23" y="74.52" width="4.72" height="4.72" fill="#1b0003"/><rect x="41.51" y="88.67" width="4.72" height="4.72" fill="#1b0003"/><rect x="41.51" y="83.95" width="4.72" height="4.72" fill="#e86f3f"/><rect x="41.51" y="79.24" width="4.72" height="4.72" fill="#1b0003"/><rect x="36.8" y="93.39" width="4.72" height="4.72" fill="#1b0003"/><rect x="36.8" y="88.67" width="4.72" height="4.72" fill="#e86f3f"/><rect x="36.8" y="83.95" width="4.72" height="4.72" fill="#1b0003"/><rect x="32.08" y="98.1" width="4.72" height="4.72" fill="#1b0003"/><rect x="32.08" y="93.39" width="4.72" height="4.72" fill="#e86f3f"/><rect x="32.08" y="88.67" width="4.72" height="4.72" fill="#1b0003"/><rect x="27.36" y="107.53" width="4.72" height="4.72" fill="#1b0003"/><rect x="27.36" y="102.82" width="4.72" height="4.72" fill="#1b0003"/><rect x="27.36" y="98.1" width="4.72" height="4.72" fill="#1b0003"/><rect x="27.36" y="93.39" width="4.72" height="4.72" fill="#1b0003"/><rect x="22.65" y="112.25" width="4.72" height="4.72" fill="#1b0003"/><rect x="22.65" y="107.53" width="4.72" height="4.72" fill="#b6294c"/><rect x="22.65" y="102.82" width="4.72" height="4.72" fill="#db1943"/><rect x="22.65" y="98.1" width="4.72" height="4.72" fill="#1b0003"/><rect x="17.93" y="116.97" width="4.72" height="4.72" fill="#1b0003"/><rect x="17.93" y="112.25" width="4.72" height="4.72" fill="#b6294c"/><rect x="17.93" y="107.53" width="4.72" height="4.72" fill="#db1943"/><rect x="17.93" y="102.82" width="4.72" height="4.72" fill="#eb3824"/><rect x="17.93" y="98.1" width="4.72" height="4.72" fill="#1b0003"/><rect x="13.22" y="112.25" width="4.72" height="4.72" fill="#1b0003"/><rect x="13.22" y="107.53" width="4.72" height="4.72" fill="#eb3824"/><rect x="13.22" y="102.82" width="4.72" height="4.72" fill="#1b0003"/><rect x="8.5" y="107.53" width="4.72" height="4.72" fill="#1b0003"/></g></g></g></g></svg>