<svg xmlns="http://www.w3.org/2000/svg" width="134.9" height="134.9" viewBox="0 0 134.9 134.9"><g id="Layer_2" data-name="Layer 2"><g id="items"><g id="Bow"><path d="M130.18,47.16V37.73h-4.72V33h-4.71V28.29H116V23.58h-4.71V18.86H106.6V14.15h-4.71V9.43H97.17V4.72H87.74V0H33V4.72H23.58V9.43H14.15v4.72H4.72v4.71H0V45.29H4.72V50H9.43v4.72h9.43v4.71h4.72v4.72h4.71v4.71H33v4.72h4.72v4.72h4.71V83h4.72v4.72h4.71v4.71h4.72v4.72h4.72v4.72H66v4.71h4.72v4.72h4.71V116h4.72v9.43h4.72v4.72H89.6v4.72H116v-4.72h4.72v-9.43h4.71v-9.43h4.72v-9.43h4.72V47.16ZM23.58,33H21.72V31.15h1.86ZM50,17H70.74v1.86H50ZM99,80.17H87.74V75.45H83V70.74H78.31V66H73.59V61.31H68.87V56.59H64.16V51.87H59.44V47.16H54.73V35.86h16v4.72h9.43v4.71h4.72V50H89.6v4.72h4.72v9.43H99Zm4.72,33h-1.86v-1.86h1.86ZM117.9,84.89H116V64.16h1.87Z" fill="#fff"/><g id="Bow-2" data-name="Bow"><rect x="121.68" y="88.67" width="4.72" height="4.72" fill="#1b0003"/><rect x="121.68" y="83.95" width="4.72" height="4.72" fill="#1b0003"/><rect x="121.68" y="79.24" width="4.72" height="4.72" fill="#1b0003"/><rect x="121.68" y="74.52" width="4.72" height="4.72" fill="#1b0003"/><rect x="121.68" y="69.81" width="4.72" height="4.72" fill="#1b0003"/><rect x="121.68" y="65.09" width="4.72" height="4.72" fill="#1b0003"/><rect x="121.68" y="60.37" width="4.72" height="4.72" fill="#1b0003"/><rect x="121.68" y="55.66" width="4.72" height="4.72" fill="#1b0003"/><rect x="116.96" y="98.1" width="4.72" height="4.72" fill="#1b0003"/><rect x="116.96" y="93.39" width="4.72" height="4.72" fill="#1b0003"/><rect x="116.96" y="88.67" width="4.72" height="4.72" fill="#fa9c5c"/><rect x="116.96" y="83.95" width="4.72" height="4.72" fill="#fa9c5c"/><rect x="116.96" y="79.24" width="4.72" height="4.72" fill="#fa9c5c"/><rect x="116.96" y="74.52" width="4.72" height="4.72" fill="#fa9c5c"/><rect x="116.96" y="69.81" width="4.72" height="4.72" fill="#fa9c5c"/><rect x="116.96" y="65.09" width="4.72" height="4.72" fill="#fa9c5c"/><rect x="116.96" y="60.37" width="4.72" height="4.72" fill="#fa9c5c"/><rect x="116.96" y="55.66" width="4.72" height="4.72" fill="#fa9c5c"/><rect x="116.96" y="50.94" width="4.72" height="4.72" fill="#1b0003"/><rect x="116.96" y="46.23" width="4.72" height="4.72" fill="#1b0003"/><rect x="112.25" y="107.53" width="4.72" height="4.72" fill="#1b0003"/><rect x="112.25" y="102.82" width="4.72" height="4.72" fill="#1b0003"/><rect x="112.25" y="98.1" width="4.72" height="4.72" fill="#a84a24"/><rect x="112.25" y="93.39" width="4.72" height="4.72" fill="#fa9c5c"/><rect x="112.25" y="88.67" width="4.72" height="4.72" fill="#fa9c5c"/><rect x="112.25" y="83.95" width="4.72" height="4.72" fill="#e86f3f"/><rect x="112.25" y="79.24" width="4.72" height="4.72" fill="#e86f3f"/><rect x="112.25" y="74.52" width="4.72" height="4.72" fill="#e86f3f"/><rect x="112.25" y="69.81" width="4.72" height="4.72" fill="#e86f3f"/><rect x="112.25" y="65.09" width="4.72" height="4.72" fill="#e86f3f"/><rect x="112.25" y="60.37" width="4.72" height="4.72" fill="#e86f3f"/><rect x="112.25" y="55.66" width="4.72" height="4.72" fill="#fa9c5c"/><rect x="112.25" y="50.94" width="4.72" height="4.72" fill="#fa9c5c"/><rect x="112.25" y="46.23" width="4.72" height="4.72" fill="#fa9c5c"/><rect x="112.25" y="41.51" width="4.72" height="4.72" fill="#1b0003"/><rect x="107.53" y="116.96" width="4.72" height="4.72" fill="#1b0003"/><rect x="107.53" y="112.25" width="4.72" height="4.72" fill="#1b0003"/><rect x="107.53" y="107.53" width="4.72" height="4.72" fill="#a84a24"/><rect x="107.53" y="102.82" width="4.72" height="4.72" fill="#e86f3f"/><rect x="107.53" y="98.1" width="4.72" height="4.72" fill="#f2904e"/><rect x="107.53" y="93.39" width="4.72" height="4.72" fill="#f2904e"/><rect x="107.53" y="88.67" width="4.72" height="4.72" fill="#e86f3f"/><rect x="107.53" y="83.95" width="4.72" height="4.72" fill="#1b0003"/><rect x="107.53" y="79.24" width="4.72" height="4.72" fill="#1b0003"/><rect x="107.53" y="74.52" width="4.72" height="4.72" fill="#1b0003"/><rect x="107.53" y="69.81" width="4.72" height="4.72" fill="#1b0003"/><rect x="107.53" y="65.09" width="4.72" height="4.72" fill="#1b0003"/><rect x="107.53" y="60.37" width="4.72" height="4.72" fill="#1b0003"/><rect x="107.53" y="55.66" width="4.72" height="4.72" fill="#1b0003"/><rect x="107.53" y="50.94" width="4.72" height="4.72" fill="#e86f3f"/><rect x="107.53" y="46.23" width="4.72" height="4.72" fill="#f2904e"/><rect x="107.53" y="41.51" width="4.72" height="4.72" fill="#fa9c5c"/><rect x="107.53" y="36.79" width="4.72" height="4.72" fill="#1b0003"/><rect x="102.82" y="121.68" width="4.72" height="4.72" fill="#1b0003"/><rect x="102.82" y="116.96" width="4.72" height="4.72" fill="#a84a24"/><rect x="102.82" y="112.25" width="4.72" height="4.72" fill="#a84a24"/><rect x="102.82" y="107.53" width="4.72" height="4.72" fill="#a84a24"/><rect x="102.82" y="102.82" width="4.72" height="4.72" fill="#f2904e"/><rect x="102.82" y="98.1" width="4.72" height="4.72" fill="#f2904e"/><rect x="102.82" y="93.39" width="4.72" height="4.72" fill="#1b0003"/><rect x="102.82" y="88.67" width="4.72" height="4.72" fill="#1b0003"/><rect x="102.82" y="50.94" width="4.72" height="4.72" fill="#1b0003"/><rect x="102.82" y="46.23" width="4.72" height="4.72" fill="#1b0003"/><rect x="102.82" y="41.51" width="4.72" height="4.72" fill="#f2904e"/><rect x="102.82" y="36.79" width="4.72" height="4.72" fill="#fa9c5c"/><rect x="102.82" y="32.08" width="4.72" height="4.72" fill="#1b0003"/><rect x="98.1" y="121.68" width="4.72" height="4.72" fill="#1b0003"/><rect x="98.1" y="116.96" width="4.72" height="4.72" fill="#a84a24"/><rect x="98.1" y="112.25" width="4.72" height="4.72" fill="#a84a24"/><rect x="98.1" y="107.53" width="4.72" height="4.72" fill="#e86f3f"/><rect x="98.1" y="102.82" width="4.72" height="4.72" fill="#e86f3f"/><rect x="98.1" y="98.1" width="4.72" height="4.72" fill="#1b0003"/><rect x="98.1" y="41.51" width="4.72" height="4.72" fill="#1b0003"/><rect x="98.1" y="36.79" width="4.72" height="4.72" fill="#f2904e"/><rect x="98.1" y="32.08" width="4.72" height="4.72" fill="#fa9c5c"/><rect x="98.1" y="27.36" width="4.72" height="4.72" fill="#1b0003"/><rect x="93.39" y="116.96" width="4.72" height="4.72" fill="#1b0003"/><rect x="93.39" y="112.25" width="4.72" height="4.72" fill="#a84a24"/><rect x="93.39" y="107.53" width="4.72" height="4.72" fill="#a84a24"/><rect x="93.39" y="102.82" width="4.72" height="4.72" fill="#1b0003"/><rect x="93.39" y="36.79" width="4.72" height="4.72" fill="#1b0003"/><rect x="93.39" y="32.08" width="4.72" height="4.72" fill="#f2904e"/><rect x="93.39" y="27.36" width="4.72" height="4.72" fill="#fa9c5c"/><rect x="93.39" y="22.65" width="4.72" height="4.72" fill="#1b0003"/><rect x="88.67" y="112.25" width="4.72" height="4.72" fill="#1b0003"/><rect x="88.67" y="107.53" width="4.72" height="4.72" fill="#1b0003"/><rect x="88.67" y="102.82" width="4.72" height="4.72" fill="#e0bea4"/><rect x="88.67" y="98.1" width="4.72" height="4.72" fill="#1b0003"/><rect x="88.67" y="32.08" width="4.72" height="4.72" fill="#1b0003"/><rect x="88.67" y="27.36" width="4.72" height="4.72" fill="#f2904e"/><rect x="88.67" y="22.65" width="4.72" height="4.72" fill="#fa9c5c"/><rect x="88.67" y="17.93" width="4.72" height="4.72" fill="#1b0003"/><rect x="83.95" y="102.82" width="4.72" height="4.72" fill="#1b0003"/><rect x="83.95" y="98.1" width="4.72" height="4.72" fill="#e0bea4"/><rect x="83.95" y="93.39" width="4.72" height="4.72" fill="#1b0003"/><rect x="83.95" y="27.36" width="4.72" height="4.72" fill="#1b0003"/><rect x="83.95" y="22.65" width="4.72" height="4.72" fill="#f2904e"/><rect x="83.95" y="17.93" width="4.72" height="4.72" fill="#fa9c5c"/><rect x="83.95" y="13.22" width="4.72" height="4.72" fill="#1b0003"/><rect x="79.24" y="98.1" width="4.72" height="4.72" fill="#1b0003"/><rect x="79.24" y="93.39" width="4.72" height="4.72" fill="#e0bea4"/><rect x="79.24" y="88.67" width="4.72" height="4.72" fill="#1b0003"/><rect x="79.24" y="27.36" width="4.72" height="4.72" fill="#1b0003"/><rect x="79.24" y="22.65" width="4.72" height="4.72" fill="#e86f3f"/><rect x="79.24" y="17.93" width="4.72" height="4.72" fill="#fa9c5c"/><rect x="79.24" y="13.22" width="4.72" height="4.72" fill="#1b0003"/><rect x="74.52" y="93.39" width="4.72" height="4.72" fill="#1b0003"/><rect x="74.52" y="88.67" width="4.72" height="4.72" fill="#e0bea4"/><rect x="74.52" y="83.95" width="4.72" height="4.72" fill="#1b0003"/><rect x="74.52" y="22.65" width="4.72" height="4.72" fill="#1b0003"/><rect x="74.52" y="17.93" width="4.72" height="4.72" fill="#fa9c5c"/><rect x="74.52" y="13.22" width="4.72" height="4.72" fill="#fa9c5c"/><rect x="74.52" y="8.5" width="4.72" height="4.72" fill="#1b0003"/><rect x="69.81" y="88.67" width="4.72" height="4.72" fill="#1b0003"/><rect x="69.81" y="83.95" width="4.72" height="4.72" fill="#e0bea4"/><rect x="69.81" y="79.24" width="4.72" height="4.72" fill="#1b0003"/><rect x="69.81" y="22.65" width="4.72" height="4.72" fill="#1b0003"/><rect x="69.81" y="17.93" width="4.72" height="4.72" fill="#e86f3f"/><rect x="69.81" y="13.22" width="4.72" height="4.72" fill="#fa9c5c"/><rect x="69.81" y="8.5" width="4.72" height="4.72" fill="#1b0003"/><rect x="65.09" y="83.95" width="4.72" height="4.72" fill="#1b0003"/><rect x="65.09" y="79.24" width="4.72" height="4.72" fill="#e0bea4"/><rect x="65.09" y="74.52" width="4.72" height="4.72" fill="#1b0003"/><rect x="65.09" y="22.65" width="4.72" height="4.72" fill="#1b0003"/><rect x="65.09" y="17.93" width="4.72" height="4.72" fill="#e86f3f"/><rect x="65.09" y="13.22" width="4.72" height="4.72" fill="#fa9c5c"/><rect x="65.09" y="8.5" width="4.72" height="4.72" fill="#1b0003"/><rect x="60.37" y="79.24" width="4.72" height="4.72" fill="#1b0003"/><rect x="60.37" y="74.52" width="4.72" height="4.72" fill="#f9f2d4"/><rect x="60.37" y="69.81" width="4.72" height="4.72" fill="#1b0003"/><rect x="60.37" y="22.65" width="4.72" height="4.72" fill="#1b0003"/><rect x="60.37" y="17.93" width="4.72" height="4.72" fill="#e86f3f"/><rect x="60.37" y="13.22" width="4.72" height="4.72" fill="#fa9c5c"/><rect x="60.37" y="8.5" width="4.72" height="4.72" fill="#1b0003"/><rect x="55.66" y="74.52" width="4.72" height="4.72" fill="#1b0003"/><rect x="55.66" y="69.81" width="4.72" height="4.72" fill="#f9f2d4"/><rect x="55.66" y="65.09" width="4.72" height="4.72" fill="#1b0003"/><rect x="55.66" y="22.65" width="4.72" height="4.72" fill="#1b0003"/><rect x="55.66" y="17.93" width="4.72" height="4.72" fill="#e86f3f"/><rect x="55.66" y="13.22" width="4.72" height="4.72" fill="#fa9c5c"/><rect x="55.66" y="8.5" width="4.72" height="4.72" fill="#1b0003"/><rect x="50.94" y="69.81" width="4.72" height="4.72" fill="#1b0003"/><rect x="50.94" y="65.09" width="4.72" height="4.72" fill="#f9f2d4"/><rect x="50.94" y="60.37" width="4.72" height="4.72" fill="#1b0003"/><rect x="50.94" y="22.65" width="4.72" height="4.72" fill="#1b0003"/><rect x="50.94" y="17.93" width="4.72" height="4.72" fill="#e86f3f"/><rect x="50.94" y="13.22" width="4.72" height="4.72" fill="#fa9c5c"/><rect x="50.94" y="8.5" width="4.72" height="4.72" fill="#1b0003"/><rect x="46.23" y="65.09" width="4.72" height="4.72" fill="#1b0003"/><rect x="46.23" y="60.37" width="4.72" height="4.72" fill="#f9f2d4"/><rect x="46.23" y="55.66" width="4.72" height="4.72" fill="#1b0003"/><rect x="46.23" y="22.65" width="4.72" height="4.72" fill="#1b0003"/><rect x="46.23" y="17.93" width="4.72" height="4.72" fill="#e86f3f"/><rect x="46.23" y="13.22" width="4.72" height="4.72" fill="#fa9c5c"/><rect x="46.23" y="8.5" width="4.72" height="4.72" fill="#1b0003"/><rect x="41.51" y="60.37" width="4.72" height="4.72" fill="#1b0003"/><rect x="41.51" y="55.66" width="4.72" height="4.72" fill="#f9f2d4"/><rect x="41.51" y="50.94" width="4.72" height="4.72" fill="#1b0003"/><rect x="41.51" y="27.36" width="4.72" height="4.72" fill="#1b0003"/><rect x="41.51" y="22.65" width="4.72" height="4.72" fill="#f2904e"/><rect x="41.51" y="17.93" width="4.72" height="4.72" fill="#fa9c5c"/><rect x="41.51" y="13.22" width="4.72" height="4.72" fill="#fa9c5c"/><rect x="41.51" y="8.5" width="4.72" height="4.72" fill="#1b0003"/><rect x="36.8" y="55.66" width="4.72" height="4.72" fill="#1b0003"/><rect x="36.8" y="50.94" width="4.72" height="4.72" fill="#f9f2d4"/><rect x="36.8" y="46.23" width="4.72" height="4.72" fill="#1b0003"/><rect x="36.8" y="27.36" width="4.72" height="4.72" fill="#1b0003"/><rect x="36.8" y="22.65" width="4.72" height="4.72" fill="#e86f3f"/><rect x="36.8" y="17.93" width="4.72" height="4.72" fill="#fa9c5c"/><rect x="36.8" y="13.22" width="4.72" height="4.72" fill="#1b0003"/><rect x="32.08" y="50.94" width="4.72" height="4.72" fill="#1b0003"/><rect x="32.08" y="46.23" width="4.72" height="4.72" fill="#f9f2d4"/><rect x="32.08" y="41.51" width="4.72" height="4.72" fill="#1b0003"/><rect x="32.08" y="32.08" width="4.72" height="4.72" fill="#1b0003"/><rect x="32.08" y="27.36" width="4.72" height="4.72" fill="#e86f3f"/><rect x="32.08" y="22.65" width="4.72" height="4.72" fill="#fa9c5c"/><rect x="32.08" y="17.93" width="4.72" height="4.72" fill="#fa9c5c"/><rect x="32.08" y="13.22" width="4.72" height="4.72" fill="#1b0003"/><rect x="27.36" y="46.23" width="4.72" height="4.72" fill="#1b0003"/><rect x="27.36" y="41.51" width="4.72" height="4.72" fill="#f9f2d4"/><rect x="27.36" y="36.79" width="4.72" height="4.72" fill="#1b0003"/><rect x="27.36" y="32.08" width="4.72" height="4.72" fill="#a84a24"/><rect x="27.36" y="27.36" width="4.72" height="4.72" fill="#f2904e"/><rect x="27.36" y="22.65" width="4.72" height="4.72" fill="#fa9c5c"/><rect x="27.36" y="17.93" width="4.72" height="4.72" fill="#1b0003"/><rect x="22.65" y="41.51" width="4.72" height="4.72" fill="#1b0003"/><rect x="22.65" y="36.79" width="4.72" height="4.72" fill="#a84a24"/><rect x="22.65" y="32.08" width="4.72" height="4.72" fill="#e86f3f"/><rect x="22.65" y="27.36" width="4.72" height="4.72" fill="#f2904e"/><rect x="22.65" y="22.65" width="4.72" height="4.72" fill="#f2904e"/><rect x="22.65" y="17.93" width="4.72" height="4.72" fill="#1b0003"/><rect x="17.93" y="41.51" width="4.72" height="4.72" fill="#1b0003"/><rect x="17.93" y="36.79" width="4.72" height="4.72" fill="#a84a24"/><rect x="17.93" y="32.08" width="4.72" height="4.72" fill="#a84a24"/><rect x="17.93" y="27.36" width="4.72" height="4.72" fill="#e86f3f"/><rect x="17.93" y="22.65" width="4.72" height="4.72" fill="#1b0003"/><rect x="13.22" y="36.79" width="4.72" height="4.72" fill="#1b0003"/><rect x="13.22" y="32.08" width="4.72" height="4.72" fill="#a84a24"/><rect x="13.22" y="27.36" width="4.72" height="4.72" fill="#a84a24"/><rect x="13.22" y="22.65" width="4.72" height="4.72" fill="#1b0003"/><rect x="8.5" y="32.08" width="4.72" height="4.72" fill="#1b0003"/><rect x="8.5" y="27.36" width="4.72" height="4.72" fill="#1b0003"/></g></g></g></g></svg>