<svg xmlns="http://www.w3.org/2000/svg" width="147.25" height="134.23" viewBox="0 0 147.25 134.23"><g id="Layer_2" data-name="Layer 2"><g id="items"><g id="Chest"><path d="M140.74,134.23H6.51v-6.52H0V19.54H6.51V13H13V6.51h6.52V0H127.71V6.51h6.52V13h6.51v6.52h6.51V127.71h-6.51Zm-117.23-17H123.74v-6.52h6.51V36.54h-6.51V30h-6.51V23.51h-6.52V17H36.54v6.51H30V30H23.51v6.52H17v74.17h6.51Z" fill="#fff"/><g id="Chest-2" data-name="Chest"><rect x="132.24" y="112.7" width="6.51" height="6.51" fill="#1b0003"/><rect x="132.24" y="106.19" width="6.51" height="6.51" fill="#1b0003"/><rect x="132.24" y="99.68" width="6.51" height="6.51" fill="#1b0003"/><rect x="132.24" y="93.16" width="6.51" height="6.51" fill="#1b0003"/><rect x="132.24" y="86.65" width="6.51" height="6.51" fill="#1b0003"/><rect x="132.24" y="80.14" width="6.51" height="6.51" fill="#1b0003"/><rect x="132.24" y="73.63" width="6.51" height="6.51" fill="#1b0003"/><rect x="132.24" y="67.11" width="6.51" height="6.51" fill="#1b0003"/><rect x="132.24" y="60.6" width="6.51" height="6.51" fill="#1b0003"/><rect x="132.24" y="54.09" width="6.51" height="6.51" fill="#1b0003"/><rect x="132.24" y="47.58" width="6.51" height="6.51" fill="#1b0003"/><rect x="132.24" y="41.06" width="6.51" height="6.51" fill="#1b0003"/><rect x="132.24" y="34.55" width="6.51" height="6.51" fill="#1b0003"/><rect x="132.24" y="28.04" width="6.51" height="6.51" fill="#1b0003"/><rect x="125.73" y="119.22" width="6.51" height="6.51" fill="#1b0003"/><rect x="125.73" y="112.7" width="6.51" height="6.51" fill="#a84a24"/><rect x="125.73" y="106.19" width="6.51" height="6.51" fill="#a84a24"/><rect x="125.73" y="99.68" width="6.51" height="6.51" fill="#a84a24"/><rect x="125.73" y="93.16" width="6.51" height="6.51" fill="#a84a24"/><rect x="125.73" y="86.65" width="6.51" height="6.51" fill="#a84a24"/><rect x="125.73" y="80.14" width="6.51" height="6.51" fill="#a84a24"/><rect x="125.73" y="73.63" width="6.51" height="6.51" fill="#a84a24"/><rect x="125.73" y="67.11" width="6.51" height="6.51" fill="#a84a24"/><rect x="125.73" y="60.6" width="6.51" height="6.51" fill="#1b0003"/><rect x="125.73" y="54.09" width="6.51" height="6.51" fill="#d84b13"/><rect x="125.73" y="47.58" width="6.51" height="6.51" fill="#1b0003"/><rect x="125.73" y="41.06" width="6.51" height="6.51" fill="#a84a24"/><rect x="125.73" y="34.55" width="6.51" height="6.51" fill="#a84a24"/><rect x="125.73" y="28.04" width="6.51" height="6.51" fill="#a84a24"/><rect x="125.73" y="21.52" width="6.51" height="6.51" fill="#1b0003"/><rect x="119.22" y="119.22" width="6.51" height="6.51" fill="#1b0003"/><rect x="119.22" y="112.7" width="6.51" height="6.51" fill="#a84a24"/><rect x="119.22" y="106.19" width="6.51" height="6.51" fill="#a84a24"/><rect x="119.22" y="99.68" width="6.51" height="6.51" fill="#e86f3f"/><rect x="119.22" y="93.16" width="6.51" height="6.51" fill="#e86f3f"/><rect x="119.22" y="86.65" width="6.51" height="6.51" fill="#e86f3f"/><rect x="119.22" y="80.14" width="6.51" height="6.51" fill="#e86f3f"/><rect x="119.22" y="73.63" width="6.51" height="6.51" fill="#e86f3f"/><rect x="119.22" y="67.11" width="6.51" height="6.51" fill="#e86f3f"/><rect x="119.22" y="60.6" width="6.51" height="6.51" fill="#1b0003"/><rect x="119.22" y="54.09" width="6.51" height="6.51" fill="#d84b13"/><rect x="119.22" y="47.58" width="6.51" height="6.51" fill="#1b0003"/><rect x="119.22" y="41.06" width="6.51" height="6.51" fill="#e86f3f"/><rect x="119.22" y="34.55" width="6.51" height="6.51" fill="#a84a24"/><rect x="119.22" y="28.04" width="6.51" height="6.51" fill="#e86f3f"/><rect x="119.22" y="21.52" width="6.51" height="6.51" fill="#e86f3f"/><rect x="119.22" y="15.01" width="6.51" height="6.51" fill="#1b0003"/><rect x="112.7" y="119.22" width="6.51" height="6.51" fill="#1b0003"/><rect x="112.7" y="112.7" width="6.51" height="6.51" fill="#e86f3f"/><rect x="112.7" y="106.19" width="6.51" height="6.51" fill="#a84a24"/><rect x="112.7" y="99.68" width="6.51" height="6.51" fill="#e86f3f"/><rect x="112.7" y="93.16" width="6.51" height="6.51" fill="#fa9c5c"/><rect x="112.7" y="86.65" width="6.51" height="6.51" fill="#e86f3f"/><rect x="112.7" y="80.14" width="6.51" height="6.51" fill="#fa9c5c"/><rect x="112.7" y="73.63" width="6.51" height="6.51" fill="#fa9c5c"/><rect x="112.7" y="67.11" width="6.51" height="6.51" fill="#e86f3f"/><rect x="112.7" y="60.6" width="6.51" height="6.51" fill="#1b0003"/><rect x="112.7" y="54.09" width="6.51" height="6.51" fill="#db6d12"/><rect x="112.7" y="47.58" width="6.51" height="6.51" fill="#1b0003"/><rect x="112.7" y="41.06" width="6.51" height="6.51" fill="#a84a24"/><rect x="112.7" y="34.55" width="6.51" height="6.51" fill="#fa9c5c"/><rect x="112.7" y="28.04" width="6.51" height="6.51" fill="#e86f3f"/><rect x="112.7" y="21.52" width="6.51" height="6.51" fill="#fa9c5c"/><rect x="112.7" y="15.01" width="6.51" height="6.51" fill="#e86f3f"/><rect x="112.7" y="8.5" width="6.51" height="6.51" fill="#1b0003"/><rect x="106.19" y="119.22" width="6.51" height="6.51" fill="#1b0003"/><rect x="106.19" y="112.7" width="6.51" height="6.51" fill="#a84a24"/><rect x="106.19" y="106.19" width="6.51" height="6.51" fill="#e86f3f"/><rect x="106.19" y="99.68" width="6.51" height="6.51" fill="#fa9c5c"/><rect x="106.19" y="93.16" width="6.51" height="6.51" fill="#e86f3f"/><rect x="106.19" y="86.65" width="6.51" height="6.51" fill="#fa9c5c"/><rect x="106.19" y="80.14" width="6.51" height="6.51" fill="#fa9c5c"/><rect x="106.19" y="73.63" width="6.51" height="6.51" fill="#fa9c5c"/><rect x="106.19" y="67.11" width="6.51" height="6.51" fill="#e86f3f"/><rect x="106.19" y="60.6" width="6.51" height="6.51" fill="#1b0003"/><rect x="106.19" y="54.09" width="6.51" height="6.51" fill="#f7c45e"/><rect x="106.19" y="47.58" width="6.51" height="6.51" fill="#1b0003"/><rect x="106.19" y="41.06" width="6.51" height="6.51" fill="#e86f3f"/><rect x="106.19" y="34.55" width="6.51" height="6.51" fill="#e86f3f"/><rect x="106.19" y="28.04" width="6.51" height="6.51" fill="#fa9c5c"/><rect x="106.19" y="21.52" width="6.51" height="6.51" fill="#e86f3f"/><rect x="106.19" y="15.01" width="6.51" height="6.51" fill="#fa9c5c"/><rect x="106.19" y="8.5" width="6.51" height="6.51" fill="#1b0003"/><rect x="99.68" y="119.22" width="6.51" height="6.51" fill="#1b0003"/><rect x="99.68" y="112.7" width="6.51" height="6.51" fill="#e86f3f"/><rect x="99.68" y="106.19" width="6.51" height="6.51" fill="#fa9c5c"/><rect x="99.68" y="99.68" width="6.51" height="6.51" fill="#e86f3f"/><rect x="99.68" y="93.16" width="6.51" height="6.51" fill="#fa9c5c"/><rect x="99.68" y="86.65" width="6.51" height="6.51" fill="#fa9c5c"/><rect x="99.68" y="80.14" width="6.51" height="6.51" fill="#fa9c5c"/><rect x="99.68" y="73.63" width="6.51" height="6.51" fill="#fa9c5c"/><rect x="99.68" y="67.11" width="6.51" height="6.51" fill="#e86f3f"/><rect x="99.68" y="60.6" width="6.51" height="6.51" fill="#1b0003"/><rect x="99.68" y="54.09" width="6.51" height="6.51" fill="#f9f2d4"/><rect x="99.68" y="47.58" width="6.51" height="6.51" fill="#1b0003"/><rect x="99.68" y="41.06" width="6.51" height="6.51" fill="#e86f3f"/><rect x="99.68" y="34.55" width="6.51" height="6.51" fill="#fa9c5c"/><rect x="99.68" y="28.04" width="6.51" height="6.51" fill="#e86f3f"/><rect x="99.68" y="21.52" width="6.51" height="6.51" fill="#fa9c5c"/><rect x="99.68" y="15.01" width="6.51" height="6.51" fill="#fa9c5c"/><rect x="99.68" y="8.5" width="6.51" height="6.51" fill="#1b0003"/><rect x="93.16" y="119.22" width="6.51" height="6.51" fill="#1b0003"/><rect x="93.16" y="112.7" width="6.51" height="6.51" fill="#e86f3f"/><rect x="93.16" y="106.19" width="6.51" height="6.51" fill="#e86f3f"/><rect x="93.16" y="99.68" width="6.51" height="6.51" fill="#fa9c5c"/><rect x="93.16" y="93.16" width="6.51" height="6.51" fill="#fa9c5c"/><rect x="93.16" y="86.65" width="6.51" height="6.51" fill="#fa9c5c"/><rect x="93.16" y="80.14" width="6.51" height="6.51" fill="#fa9c5c"/><rect x="93.16" y="73.63" width="6.51" height="6.51" fill="#fa9c5c"/><rect x="93.16" y="67.11" width="6.51" height="6.51" fill="#e86f3f"/><rect x="93.16" y="60.6" width="6.51" height="6.51" fill="#1b0003"/><rect x="93.16" y="54.09" width="6.51" height="6.51" fill="#f7c45e"/><rect x="93.16" y="47.58" width="6.51" height="6.51" fill="#1b0003"/><rect x="93.16" y="41.06" width="6.51" height="6.51" fill="#e86f3f"/><rect x="93.16" y="34.55" width="6.51" height="6.51" fill="#e86f3f"/><rect x="93.16" y="28.04" width="6.51" height="6.51" fill="#fa9c5c"/><rect x="93.16" y="21.52" width="6.51" height="6.51" fill="#fa9c5c"/><rect x="93.16" y="15.01" width="6.51" height="6.51" fill="#fa9c5c"/><rect x="93.16" y="8.5" width="6.51" height="6.51" fill="#1b0003"/><rect x="86.65" y="119.22" width="6.51" height="6.51" fill="#1b0003"/><rect x="86.65" y="112.7" width="6.51" height="6.51" fill="#e86f3f"/><rect x="86.65" y="106.19" width="6.51" height="6.51" fill="#fa9c5c"/><rect x="86.65" y="99.68" width="6.51" height="6.51" fill="#fa9c5c"/><rect x="86.65" y="93.16" width="6.51" height="6.51" fill="#fa9c5c"/><rect x="86.65" y="86.65" width="6.51" height="6.51" fill="#fa9c5c"/><rect x="86.65" y="80.14" width="6.51" height="6.51" fill="#fa9c5c"/><rect x="86.65" y="73.63" width="6.51" height="6.51" fill="#e86f3f"/><rect x="86.65" y="67.11" width="6.51" height="6.51" fill="#e86f3f"/><rect x="86.65" y="60.6" width="6.51" height="6.51" fill="#1b0003"/><rect x="86.65" y="54.09" width="6.51" height="6.51" fill="#db6d12"/><rect x="86.65" y="47.58" width="6.51" height="6.51" fill="#1b0003"/><rect x="86.65" y="41.06" width="6.51" height="6.51" fill="#e86f3f"/><rect x="86.65" y="34.55" width="6.51" height="6.51" fill="#e86f3f"/><rect x="86.65" y="28.04" width="6.51" height="6.51" fill="#fa9c5c"/><rect x="86.65" y="21.52" width="6.51" height="6.51" fill="#fa9c5c"/><rect x="86.65" y="15.01" width="6.51" height="6.51" fill="#fa9c5c"/><rect x="86.65" y="8.5" width="6.51" height="6.51" fill="#1b0003"/><rect x="80.14" y="119.22" width="6.51" height="6.51" fill="#1b0003"/><rect x="80.14" y="112.7" width="6.51" height="6.51" fill="#e86f3f"/><rect x="80.14" y="106.19" width="6.51" height="6.51" fill="#fa9c5c"/><rect x="80.14" y="99.68" width="6.51" height="6.51" fill="#fa9c5c"/><rect x="80.14" y="93.16" width="6.51" height="6.51" fill="#fa9c5c"/><rect x="80.14" y="86.65" width="6.51" height="6.51" fill="#fa9c5c"/><rect x="80.14" y="80.14" width="6.51" height="6.51" fill="#fa9c5c"/><rect x="80.14" y="73.63" width="6.51" height="6.51" fill="#e86f3f"/><rect x="80.14" y="67.11" width="6.51" height="6.51" fill="#1b0003"/><rect x="80.14" y="60.6" width="6.51" height="6.51" fill="#1b0003"/><rect x="80.14" y="54.09" width="6.51" height="6.51" fill="#1b0003"/><rect x="80.14" y="47.58" width="6.51" height="6.51" fill="#1b0003"/><rect x="80.14" y="41.06" width="6.51" height="6.51" fill="#1b0003"/><rect x="80.14" y="34.55" width="6.51" height="6.51" fill="#1b0003"/><rect x="80.14" y="28.04" width="6.51" height="6.51" fill="#fa9c5c"/><rect x="80.14" y="21.52" width="6.51" height="6.51" fill="#fa9c5c"/><rect x="80.14" y="15.01" width="6.51" height="6.51" fill="#fa9c5c"/><rect x="80.14" y="8.5" width="6.51" height="6.51" fill="#1b0003"/><rect x="73.63" y="119.22" width="6.51" height="6.51" fill="#1b0003"/><rect x="73.63" y="112.7" width="6.51" height="6.51" fill="#e86f3f"/><rect x="73.63" y="106.19" width="6.51" height="6.51" fill="#fa9c5c"/><rect x="73.63" y="99.68" width="6.51" height="6.51" fill="#fa9c5c"/><rect x="73.63" y="93.16" width="6.51" height="6.51" fill="#fa9c5c"/><rect x="73.63" y="86.65" width="6.51" height="6.51" fill="#fa9c5c"/><rect x="73.63" y="80.14" width="6.51" height="6.51" fill="#fa9c5c"/><rect x="73.63" y="73.63" width="6.51" height="6.51" fill="#e86f3f"/><rect x="73.63" y="67.11" width="6.51" height="6.51" fill="#1b0003"/><rect x="73.63" y="60.6" width="6.51" height="6.51" fill="#db6d12"/><rect x="73.63" y="54.09" width="6.51" height="6.51" fill="#d84b13"/><rect x="73.63" y="47.58" width="6.51" height="6.51" fill="#d84b13"/><rect x="73.63" y="41.06" width="6.51" height="6.51" fill="#f7c45e"/><rect x="73.63" y="34.55" width="6.51" height="6.51" fill="#1b0003"/><rect x="73.63" y="28.04" width="6.51" height="6.51" fill="#fa9c5c"/><rect x="73.63" y="21.52" width="6.51" height="6.51" fill="#fa9c5c"/><rect x="73.63" y="15.01" width="6.51" height="6.51" fill="#fa9c5c"/><rect x="73.63" y="8.5" width="6.51" height="6.51" fill="#1b0003"/><rect x="67.11" y="119.22" width="6.51" height="6.51" fill="#1b0003"/><rect x="67.11" y="112.7" width="6.51" height="6.51" fill="#e86f3f"/><rect x="67.11" y="106.19" width="6.51" height="6.51" fill="#fa9c5c"/><rect x="67.11" y="99.68" width="6.51" height="6.51" fill="#fa9c5c"/><rect x="67.11" y="93.16" width="6.51" height="6.51" fill="#fa9c5c"/><rect x="67.11" y="86.65" width="6.51" height="6.51" fill="#fa9c5c"/><rect x="67.11" y="80.14" width="6.51" height="6.51" fill="#fa9c5c"/><rect x="67.11" y="73.63" width="6.51" height="6.51" fill="#e86f3f"/><rect x="67.11" y="67.11" width="6.51" height="6.51" fill="#1b0003"/><rect x="67.11" y="60.6" width="6.51" height="6.51" fill="#db6d12"/><rect x="67.11" y="54.09" width="6.51" height="6.51" fill="#d84b13"/><rect x="67.11" y="47.58" width="6.51" height="6.51" fill="#d84b13"/><rect x="67.11" y="41.06" width="6.51" height="6.51" fill="#f9f2d4"/><rect x="67.11" y="34.55" width="6.51" height="6.51" fill="#1b0003"/><rect x="67.11" y="28.04" width="6.51" height="6.51" fill="#fa9c5c"/><rect x="67.11" y="21.52" width="6.51" height="6.51" fill="#fa9c5c"/><rect x="67.11" y="15.01" width="6.51" height="6.51" fill="#fa9c5c"/><rect x="67.11" y="8.5" width="6.51" height="6.51" fill="#1b0003"/><rect x="60.6" y="119.22" width="6.51" height="6.51" fill="#1b0003"/><rect x="60.6" y="112.7" width="6.51" height="6.51" fill="#e86f3f"/><rect x="60.6" y="106.19" width="6.51" height="6.51" fill="#fa9c5c"/><rect x="60.6" y="99.68" width="6.51" height="6.51" fill="#fa9c5c"/><rect x="60.6" y="93.16" width="6.51" height="6.51" fill="#fa9c5c"/><rect x="60.6" y="86.65" width="6.51" height="6.51" fill="#fa9c5c"/><rect x="60.6" y="80.14" width="6.51" height="6.51" fill="#fa9c5c"/><rect x="60.6" y="73.63" width="6.51" height="6.51" fill="#e86f3f"/><rect x="60.6" y="67.11" width="6.51" height="6.51" fill="#1b0003"/><rect x="60.6" y="60.6" width="6.51" height="6.51" fill="#1b0003"/><rect x="60.6" y="54.09" width="6.51" height="6.51" fill="#1b0003"/><rect x="60.6" y="47.58" width="6.51" height="6.51" fill="#1b0003"/><rect x="60.6" y="41.06" width="6.51" height="6.51" fill="#1b0003"/><rect x="60.6" y="34.55" width="6.51" height="6.51" fill="#1b0003"/><rect x="60.6" y="28.04" width="6.51" height="6.51" fill="#fa9c5c"/><rect x="60.6" y="21.52" width="6.51" height="6.51" fill="#fa9c5c"/><rect x="60.6" y="15.01" width="6.51" height="6.51" fill="#fa9c5c"/><rect x="60.6" y="8.5" width="6.51" height="6.51" fill="#1b0003"/><rect x="54.09" y="119.22" width="6.51" height="6.51" fill="#1b0003"/><rect x="54.09" y="112.7" width="6.51" height="6.51" fill="#e86f3f"/><rect x="54.09" y="106.19" width="6.51" height="6.51" fill="#fa9c5c"/><rect x="54.09" y="99.68" width="6.51" height="6.51" fill="#fa9c5c"/><rect x="54.09" y="93.16" width="6.51" height="6.51" fill="#fa9c5c"/><rect x="54.09" y="86.65" width="6.51" height="6.51" fill="#fa9c5c"/><rect x="54.09" y="80.14" width="6.51" height="6.51" fill="#fa9c5c"/><rect x="54.09" y="73.63" width="6.51" height="6.51" fill="#e86f3f"/><rect x="54.09" y="67.11" width="6.51" height="6.51" fill="#e86f3f"/><rect x="54.09" y="60.6" width="6.51" height="6.51" fill="#1b0003"/><rect x="54.09" y="54.09" width="6.51" height="6.51" fill="#db6d12"/><rect x="54.09" y="47.58" width="6.51" height="6.51" fill="#1b0003"/><rect x="54.09" y="41.06" width="6.51" height="6.51" fill="#e86f3f"/><rect x="54.09" y="34.55" width="6.51" height="6.51" fill="#e86f3f"/><rect x="54.09" y="28.04" width="6.51" height="6.51" fill="#fa9c5c"/><rect x="54.09" y="21.52" width="6.51" height="6.51" fill="#fa9c5c"/><rect x="54.09" y="15.01" width="6.51" height="6.51" fill="#fa9c5c"/><rect x="54.09" y="8.5" width="6.51" height="6.51" fill="#1b0003"/><rect x="47.58" y="119.22" width="6.51" height="6.51" fill="#1b0003"/><rect x="47.58" y="112.7" width="6.51" height="6.51" fill="#e86f3f"/><rect x="47.58" y="106.19" width="6.51" height="6.51" fill="#fa9c5c"/><rect x="47.58" y="99.68" width="6.51" height="6.51" fill="#fa9c5c"/><rect x="47.58" y="93.16" width="6.51" height="6.51" fill="#fa9c5c"/><rect x="47.58" y="86.65" width="6.51" height="6.51" fill="#fa9c5c"/><rect x="47.58" y="80.14" width="6.51" height="6.51" fill="#fa9c5c"/><rect x="47.58" y="73.63" width="6.51" height="6.51" fill="#fa9c5c"/><rect x="47.58" y="67.11" width="6.51" height="6.51" fill="#e86f3f"/><rect x="47.58" y="60.6" width="6.51" height="6.51" fill="#1b0003"/><rect x="47.58" y="54.09" width="6.51" height="6.51" fill="#f7c45e"/><rect x="47.58" y="47.58" width="6.51" height="6.51" fill="#1b0003"/><rect x="47.58" y="41.06" width="6.51" height="6.51" fill="#e86f3f"/><rect x="47.58" y="34.55" width="6.51" height="6.51" fill="#fa9c5c"/><rect x="47.58" y="28.04" width="6.51" height="6.51" fill="#fa9c5c"/><rect x="47.58" y="21.52" width="6.51" height="6.51" fill="#fa9c5c"/><rect x="47.58" y="15.01" width="6.51" height="6.51" fill="#fa9c5c"/><rect x="47.58" y="8.5" width="6.51" height="6.51" fill="#1b0003"/><rect x="41.06" y="119.22" width="6.51" height="6.51" fill="#1b0003"/><rect x="41.06" y="112.7" width="6.51" height="6.51" fill="#e86f3f"/><rect x="41.06" y="106.19" width="6.51" height="6.51" fill="#fa9c5c"/><rect x="41.06" y="99.68" width="6.51" height="6.51" fill="#fa9c5c"/><rect x="41.06" y="93.16" width="6.51" height="6.51" fill="#fa9c5c"/><rect x="41.06" y="86.65" width="6.51" height="6.51" fill="#fa9c5c"/><rect x="41.06" y="80.14" width="6.51" height="6.51" fill="#fa9c5c"/><rect x="41.06" y="73.63" width="6.51" height="6.51" fill="#fa9c5c"/><rect x="41.06" y="67.11" width="6.51" height="6.51" fill="#e86f3f"/><rect x="41.06" y="60.6" width="6.51" height="6.51" fill="#1b0003"/><rect x="41.06" y="54.09" width="6.51" height="6.51" fill="#f7c45e"/><rect x="41.06" y="47.58" width="6.51" height="6.51" fill="#1b0003"/><rect x="41.06" y="41.06" width="6.51" height="6.51" fill="#e86f3f"/><rect x="41.06" y="34.55" width="6.51" height="6.51" fill="#fa9c5c"/><rect x="41.06" y="28.04" width="6.51" height="6.51" fill="#fa9c5c"/><rect x="41.06" y="21.52" width="6.51" height="6.51" fill="#fa9c5c"/><rect x="41.06" y="15.01" width="6.51" height="6.51" fill="#fa9c5c"/><rect x="41.06" y="8.5" width="6.51" height="6.51" fill="#1b0003"/><rect x="34.55" y="119.22" width="6.51" height="6.51" fill="#1b0003"/><rect x="34.55" y="112.7" width="6.51" height="6.51" fill="#e86f3f"/><rect x="34.55" y="106.19" width="6.51" height="6.51" fill="#fa9c5c"/><rect x="34.55" y="99.68" width="6.51" height="6.51" fill="#fa9c5c"/><rect x="34.55" y="93.16" width="6.51" height="6.51" fill="#fa9c5c"/><rect x="34.55" y="86.65" width="6.51" height="6.51" fill="#fa9c5c"/><rect x="34.55" y="80.14" width="6.51" height="6.51" fill="#fa9c5c"/><rect x="34.55" y="73.63" width="6.51" height="6.51" fill="#fa9c5c"/><rect x="34.55" y="67.11" width="6.51" height="6.51" fill="#e86f3f"/><rect x="34.55" y="60.6" width="6.51" height="6.51" fill="#1b0003"/><rect x="34.55" y="54.09" width="6.51" height="6.51" fill="#f7c45e"/><rect x="34.55" y="47.58" width="6.51" height="6.51" fill="#1b0003"/><rect x="34.55" y="41.06" width="6.51" height="6.51" fill="#e86f3f"/><rect x="34.55" y="34.55" width="6.51" height="6.51" fill="#fa9c5c"/><rect x="34.55" y="28.04" width="6.51" height="6.51" fill="#fa9c5c"/><rect x="34.55" y="21.52" width="6.51" height="6.51" fill="#fa9c5c"/><rect x="34.55" y="15.01" width="6.51" height="6.51" fill="#fa9c5c"/><rect x="34.55" y="8.5" width="6.51" height="6.51" fill="#1b0003"/><rect x="28.04" y="119.22" width="6.51" height="6.51" fill="#1b0003"/><rect x="28.04" y="112.7" width="6.51" height="6.51" fill="#e86f3f"/><rect x="28.04" y="106.19" width="6.51" height="6.51" fill="#fa9c5c"/><rect x="28.04" y="99.68" width="6.51" height="6.51" fill="#fa9c5c"/><rect x="28.04" y="93.16" width="6.51" height="6.51" fill="#fa9c5c"/><rect x="28.04" y="86.65" width="6.51" height="6.51" fill="#fa9c5c"/><rect x="28.04" y="80.14" width="6.51" height="6.51" fill="#fa9c5c"/><rect x="28.04" y="73.63" width="6.51" height="6.51" fill="#fa9c5c"/><rect x="28.04" y="67.11" width="6.51" height="6.51" fill="#e86f3f"/><rect x="28.04" y="60.6" width="6.51" height="6.51" fill="#1b0003"/><rect x="28.04" y="54.09" width="6.51" height="6.51" fill="#f9f2d4"/><rect x="28.04" y="47.58" width="6.51" height="6.51" fill="#1b0003"/><rect x="28.04" y="41.06" width="6.51" height="6.51" fill="#e86f3f"/><rect x="28.04" y="34.55" width="6.51" height="6.51" fill="#fa9c5c"/><rect x="28.04" y="28.04" width="6.51" height="6.51" fill="#fa9c5c"/><rect x="28.04" y="21.52" width="6.51" height="6.51" fill="#fa9c5c"/><rect x="28.04" y="15.01" width="6.51" height="6.51" fill="#fa9c5c"/><rect x="28.04" y="8.5" width="6.51" height="6.51" fill="#1b0003"/><rect x="21.52" y="119.22" width="6.51" height="6.51" fill="#1b0003"/><rect x="21.52" y="112.7" width="6.51" height="6.51" fill="#e86f3f"/><rect x="21.52" y="106.19" width="6.51" height="6.51" fill="#fa9c5c"/><rect x="21.52" y="99.68" width="6.51" height="6.51" fill="#fa9c5c"/><rect x="21.52" y="93.16" width="6.51" height="6.51" fill="#fa9c5c"/><rect x="21.52" y="86.65" width="6.51" height="6.51" fill="#fa9c5c"/><rect x="21.52" y="80.14" width="6.51" height="6.51" fill="#fa9c5c"/><rect x="21.52" y="73.63" width="6.51" height="6.51" fill="#fa9c5c"/><rect x="21.52" y="67.11" width="6.51" height="6.51" fill="#e86f3f"/><rect x="21.52" y="60.6" width="6.51" height="6.51" fill="#1b0003"/><rect x="21.52" y="54.09" width="6.51" height="6.51" fill="#f9f2d4"/><rect x="21.52" y="47.58" width="6.51" height="6.51" fill="#1b0003"/><rect x="21.52" y="41.06" width="6.51" height="6.51" fill="#e86f3f"/><rect x="21.52" y="34.55" width="6.51" height="6.51" fill="#fa9c5c"/><rect x="21.52" y="28.04" width="6.51" height="6.51" fill="#fa9c5c"/><rect x="21.52" y="21.52" width="6.51" height="6.51" fill="#fa9c5c"/><rect x="21.52" y="15.01" width="6.51" height="6.51" fill="#1b0003"/><rect x="15.01" y="119.22" width="6.51" height="6.51" fill="#1b0003"/><rect x="15.01" y="112.7" width="6.51" height="6.51" fill="#e86f3f"/><rect x="15.01" y="106.19" width="6.51" height="6.51" fill="#fa9c5c"/><rect x="15.01" y="99.68" width="6.51" height="6.51" fill="#fa9c5c"/><rect x="15.01" y="93.16" width="6.51" height="6.51" fill="#fa9c5c"/><rect x="15.01" y="86.65" width="6.51" height="6.51" fill="#fa9c5c"/><rect x="15.01" y="80.14" width="6.51" height="6.51" fill="#fa9c5c"/><rect x="15.01" y="73.63" width="6.51" height="6.51" fill="#fa9c5c"/><rect x="15.01" y="67.11" width="6.51" height="6.51" fill="#e86f3f"/><rect x="15.01" y="60.6" width="6.51" height="6.51" fill="#1b0003"/><rect x="15.01" y="54.09" width="6.51" height="6.51" fill="#f9f2d4"/><rect x="15.01" y="47.58" width="6.51" height="6.51" fill="#1b0003"/><rect x="15.01" y="41.06" width="6.51" height="6.51" fill="#e86f3f"/><rect x="15.01" y="34.55" width="6.51" height="6.51" fill="#fa9c5c"/><rect x="15.01" y="28.04" width="6.51" height="6.51" fill="#fa9c5c"/><rect x="15.01" y="21.52" width="6.51" height="6.51" fill="#1b0003"/><rect x="8.5" y="112.7" width="6.51" height="6.51" fill="#1b0003"/><rect x="8.5" y="106.19" width="6.51" height="6.51" fill="#1b0003"/><rect x="8.5" y="99.68" width="6.51" height="6.51" fill="#1b0003"/><rect x="8.5" y="93.16" width="6.51" height="6.51" fill="#1b0003"/><rect x="8.5" y="86.65" width="6.51" height="6.51" fill="#1b0003"/><rect x="8.5" y="80.14" width="6.51" height="6.51" fill="#1b0003"/><rect x="8.5" y="73.63" width="6.51" height="6.51" fill="#1b0003"/><rect x="8.5" y="67.11" width="6.51" height="6.51" fill="#1b0003"/><rect x="8.5" y="60.6" width="6.51" height="6.51" fill="#1b0003"/><rect x="8.5" y="54.09" width="6.51" height="6.51" fill="#1b0003"/><rect x="8.5" y="47.58" width="6.51" height="6.51" fill="#1b0003"/><rect x="8.5" y="41.06" width="6.51" height="6.51" fill="#1b0003"/><rect x="8.5" y="34.55" width="6.51" height="6.51" fill="#1b0003"/><rect x="8.5" y="28.04" width="6.51" height="6.51" fill="#1b0003"/></g></g></g></g></svg>