<svg xmlns="http://www.w3.org/2000/svg" width="129.95" height="129.95" viewBox="0 0 129.95 129.95"><g id="Layer_2" data-name="Layer 2"><g id="items"><g id="Coin"><path d="M88.88,130H41.07v-5.13H30.8v-5.14H20.54v-5.13H15.4v-5.14H10.27V99.15H5.13V88.88H0V41.07H5.13V30.8h5.14V20.54H15.4V15.4h5.14V10.27H30.8V5.13H41.07V0H88.88V5.13H99.15v5.14h10.26V15.4h5.14v5.14h5.13V30.8h5.14V41.07H130V88.88h-5.13V99.15h-5.14v10.26h-5.13v5.14h-5.14v5.13H99.15v5.14H88.88ZM58.07,113H71.88v-5.13H82.15v-5.14H92.41V97.55h5.14V92.41h5.13V82.15h5.14V71.88H113V58.07h-5.13V47.8h-5.14V37.54H97.55V32.4H92.41V27.27H82.15V22.13H71.88V17H58.07v5.13H47.8v5.14H37.54V32.4H32.4v5.14H27.27V47.8H22.13V58.07H17V71.88h5.13V82.15h5.14V92.41H32.4v5.14h5.14v5.13H47.8v5.14H58.07Z" fill="#fff"/><g id="Coin-2" data-name="Coin"><rect x="116.32" y="75.24" width="5.13" height="5.13" fill="#1b0003"/><rect x="116.32" y="70.11" width="5.13" height="5.13" fill="#1b0003"/><rect x="116.32" y="64.97" width="5.13" height="5.13" fill="#1b0003"/><rect x="116.32" y="59.84" width="5.13" height="5.13" fill="#1b0003"/><rect x="116.32" y="54.71" width="5.13" height="5.13" fill="#1b0003"/><rect x="116.32" y="49.57" width="5.13" height="5.13" fill="#1b0003"/><rect x="111.18" y="85.51" width="5.13" height="5.13" fill="#1b0003"/><rect x="111.18" y="80.38" width="5.13" height="5.13" fill="#1b0003"/><rect x="111.18" y="75.24" width="5.13" height="5.13" fill="#d84b13"/><rect x="111.18" y="70.11" width="5.13" height="5.13" fill="#d84b13"/><rect x="111.18" y="64.97" width="5.13" height="5.13" fill="#d84b13"/><rect x="111.18" y="59.84" width="5.13" height="5.13" fill="#db6d12"/><rect x="111.18" y="54.71" width="5.13" height="5.13" fill="#db6d12"/><rect x="111.18" y="49.57" width="5.13" height="5.13" fill="#db6d12"/><rect x="111.18" y="44.44" width="5.13" height="5.13" fill="#1b0003"/><rect x="111.18" y="39.3" width="5.13" height="5.13" fill="#1b0003"/><rect x="106.05" y="95.78" width="5.13" height="5.13" fill="#1b0003"/><rect x="106.05" y="90.64" width="5.13" height="5.13" fill="#1b0003"/><rect x="106.05" y="85.51" width="5.13" height="5.13" fill="#d84b13"/><rect x="106.05" y="80.38" width="5.13" height="5.13" fill="#d84b13"/><rect x="106.05" y="75.24" width="5.13" height="5.13" fill="#d84b13"/><rect x="106.05" y="70.11" width="5.13" height="5.13" fill="#f7c45e"/><rect x="106.05" y="64.97" width="5.13" height="5.13" fill="#f7c45e"/><rect x="106.05" y="59.84" width="5.13" height="5.13" fill="#f7c45e"/><rect x="106.05" y="54.71" width="5.13" height="5.13" fill="#f7c45e"/><rect x="106.05" y="49.57" width="5.13" height="5.13" fill="#f7c45e"/><rect x="106.05" y="44.44" width="5.13" height="5.13" fill="#f7c45e"/><rect x="106.05" y="39.3" width="5.13" height="5.13" fill="#db6d12"/><rect x="106.05" y="34.17" width="5.13" height="5.13" fill="#1b0003"/><rect x="106.05" y="29.04" width="5.13" height="5.13" fill="#1b0003"/><rect x="100.91" y="100.91" width="5.13" height="5.13" fill="#1b0003"/><rect x="100.91" y="95.78" width="5.13" height="5.13" fill="#d84b13"/><rect x="100.91" y="90.64" width="5.13" height="5.13" fill="#f7c45e"/><rect x="100.91" y="85.51" width="5.13" height="5.13" fill="#f7c45e"/><rect x="100.91" y="80.38" width="5.13" height="5.13" fill="#f7c45e"/><rect x="100.91" y="75.24" width="5.13" height="5.13" fill="#f7c45e"/><rect x="100.91" y="70.11" width="5.13" height="5.13" fill="#f7c45e"/><rect x="100.91" y="64.97" width="5.13" height="5.13" fill="#f7c45e"/><rect x="100.91" y="59.84" width="5.13" height="5.13" fill="#f7c45e"/><rect x="100.91" y="54.71" width="5.13" height="5.13" fill="#f7c45e"/><rect x="100.91" y="49.57" width="5.13" height="5.13" fill="#f7c45e"/><rect x="100.91" y="44.44" width="5.13" height="5.13" fill="#f7c45e"/><rect x="100.91" y="39.3" width="5.13" height="5.13" fill="#f7c45e"/><rect x="100.91" y="34.17" width="5.13" height="5.13" fill="#f7c45e"/><rect x="100.91" y="29.04" width="5.13" height="5.13" fill="#ffefa1"/><rect x="100.91" y="23.9" width="5.13" height="5.13" fill="#1b0003"/><rect x="95.78" y="106.05" width="5.13" height="5.13" fill="#1b0003"/><rect x="95.78" y="100.91" width="5.13" height="5.13" fill="#d84b13"/><rect x="95.78" y="95.78" width="5.13" height="5.13" fill="#f7c45e"/><rect x="95.78" y="90.64" width="5.13" height="5.13" fill="#f7c45e"/><rect x="95.78" y="85.51" width="5.13" height="5.13" fill="#f7c45e"/><rect x="95.78" y="80.38" width="5.13" height="5.13" fill="#f9f2d4"/><rect x="95.78" y="75.24" width="5.13" height="5.13" fill="#f9f2d4"/><rect x="95.78" y="70.11" width="5.13" height="5.13" fill="#f9f2d4"/><rect x="95.78" y="64.97" width="5.13" height="5.13" fill="#f9f2d4"/><rect x="95.78" y="59.84" width="5.13" height="5.13" fill="#f9f2d4"/><rect x="95.78" y="54.71" width="5.13" height="5.13" fill="#f9f2d4"/><rect x="95.78" y="49.57" width="5.13" height="5.13" fill="#f7c45e"/><rect x="95.78" y="44.44" width="5.13" height="5.13" fill="#f7c45e"/><rect x="95.78" y="39.3" width="5.13" height="5.13" fill="#f7c45e"/><rect x="95.78" y="34.17" width="5.13" height="5.13" fill="#f7c45e"/><rect x="95.78" y="29.04" width="5.13" height="5.13" fill="#f7c45e"/><rect x="95.78" y="23.9" width="5.13" height="5.13" fill="#f7c45e"/><rect x="95.78" y="18.77" width="5.13" height="5.13" fill="#1b0003"/><rect x="90.65" y="106.05" width="5.13" height="5.13" fill="#1b0003"/><rect x="90.65" y="100.91" width="5.13" height="5.13" fill="#db6d12"/><rect x="90.65" y="95.78" width="5.13" height="5.13" fill="#f7c45e"/><rect x="90.65" y="90.64" width="5.13" height="5.13" fill="#f7c45e"/><rect x="90.65" y="85.51" width="5.13" height="5.13" fill="#f9f2d4"/><rect x="90.65" y="80.38" width="5.13" height="5.13" fill="#f9f2d4"/><rect x="90.65" y="75.24" width="5.13" height="5.13" fill="#f9f2d4"/><rect x="90.65" y="70.11" width="5.13" height="5.13" fill="#f7c45e"/><rect x="90.65" y="64.97" width="5.13" height="5.13" fill="#f9f2d4"/><rect x="90.65" y="59.84" width="5.13" height="5.13" fill="#f7c45e"/><rect x="90.65" y="54.71" width="5.13" height="5.13" fill="#f7c45e"/><rect x="90.65" y="49.57" width="5.13" height="5.13" fill="#f9f2d4"/><rect x="90.65" y="44.44" width="5.13" height="5.13" fill="#f7c45e"/><rect x="90.65" y="39.3" width="5.13" height="5.13" fill="#f7c45e"/><rect x="90.65" y="34.17" width="5.13" height="5.13" fill="#f7c45e"/><rect x="90.65" y="29.04" width="5.13" height="5.13" fill="#f9f2d4"/><rect x="90.65" y="23.9" width="5.13" height="5.13" fill="#f9f2d4"/><rect x="90.65" y="18.77" width="5.13" height="5.13" fill="#1b0003"/><rect x="85.51" y="111.18" width="5.13" height="5.13" fill="#1b0003"/><rect x="85.51" y="106.05" width="5.13" height="5.13" fill="#db6d12"/><rect x="85.51" y="100.91" width="5.13" height="5.13" fill="#f7c45e"/><rect x="85.51" y="95.78" width="5.13" height="5.13" fill="#f7c45e"/><rect x="85.51" y="90.64" width="5.13" height="5.13" fill="#f9f2d4"/><rect x="85.51" y="85.51" width="5.13" height="5.13" fill="#f9f2d4"/><rect x="85.51" y="80.38" width="5.13" height="5.13" fill="#f9f2d4"/><rect x="85.51" y="75.24" width="5.13" height="5.13" fill="#f7c45e"/><rect x="85.51" y="70.11" width="5.13" height="5.13" fill="#f9f2d4"/><rect x="85.51" y="64.97" width="5.13" height="5.13" fill="#f7c45e"/><rect x="85.51" y="59.84" width="5.13" height="5.13" fill="#f7c45e"/><rect x="85.51" y="54.71" width="5.13" height="5.13" fill="#f7c45e"/><rect x="85.51" y="49.57" width="5.13" height="5.13" fill="#f7c45e"/><rect x="85.51" y="44.44" width="5.13" height="5.13" fill="#f7c45e"/><rect x="85.51" y="39.3" width="5.13" height="5.13" fill="#db6d12"/><rect x="85.51" y="34.17" width="5.13" height="5.13" fill="#f7c45e"/><rect x="85.51" y="29.04" width="5.13" height="5.13" fill="#f7c45e"/><rect x="85.51" y="23.9" width="5.13" height="5.13" fill="#f9f2d4"/><rect x="85.51" y="18.77" width="5.13" height="5.13" fill="#f9f2d4"/><rect x="85.51" y="13.63" width="5.13" height="5.13" fill="#1b0003"/><rect x="80.38" y="111.18" width="5.13" height="5.13" fill="#1b0003"/><rect x="80.38" y="106.05" width="5.13" height="5.13" fill="#d84b13"/><rect x="80.38" y="100.91" width="5.13" height="5.13" fill="#f7c45e"/><rect x="80.38" y="95.78" width="5.13" height="5.13" fill="#f7c45e"/><rect x="80.38" y="90.64" width="5.13" height="5.13" fill="#f9f2d4"/><rect x="80.38" y="85.51" width="5.13" height="5.13" fill="#f9f2d4"/><rect x="80.38" y="80.38" width="5.13" height="5.13" fill="#f7c45e"/><rect x="80.38" y="75.24" width="5.13" height="5.13" fill="#f9f2d4"/><rect x="80.38" y="70.11" width="5.13" height="5.13" fill="#f7c45e"/><rect x="80.38" y="64.97" width="5.13" height="5.13" fill="#f7c45e"/><rect x="80.38" y="59.84" width="5.13" height="5.13" fill="#f7c45e"/><rect x="80.38" y="54.71" width="5.13" height="5.13" fill="#f7c45e"/><rect x="80.38" y="49.57" width="5.13" height="5.13" fill="#f7c45e"/><rect x="80.38" y="44.44" width="5.13" height="5.13" fill="#f7c45e"/><rect x="80.38" y="39.3" width="5.13" height="5.13" fill="#f7c45e"/><rect x="80.38" y="34.17" width="5.13" height="5.13" fill="#db6d12"/><rect x="80.38" y="29.04" width="5.13" height="5.13" fill="#f7c45e"/><rect x="80.38" y="23.9" width="5.13" height="5.13" fill="#f7c45e"/><rect x="80.38" y="18.77" width="5.13" height="5.13" fill="#f7c45e"/><rect x="80.38" y="13.63" width="5.13" height="5.13" fill="#1b0003"/><rect x="75.24" y="116.32" width="5.13" height="5.13" fill="#1b0003"/><rect x="75.24" y="111.18" width="5.13" height="5.13" fill="#d84b13"/><rect x="75.24" y="106.05" width="5.13" height="5.13" fill="#d84b13"/><rect x="75.24" y="100.91" width="5.13" height="5.13" fill="#f7c45e"/><rect x="75.24" y="95.78" width="5.13" height="5.13" fill="#f9f2d4"/><rect x="75.24" y="90.64" width="5.13" height="5.13" fill="#f9f2d4"/><rect x="75.24" y="85.51" width="5.13" height="5.13" fill="#f7c45e"/><rect x="75.24" y="80.38" width="5.13" height="5.13" fill="#f9f2d4"/><rect x="75.24" y="75.24" width="5.13" height="5.13" fill="#f7c45e"/><rect x="75.24" y="70.11" width="5.13" height="5.13" fill="#f7c45e"/><rect x="75.24" y="64.97" width="5.13" height="5.13" fill="#f7c45e"/><rect x="75.24" y="59.84" width="5.13" height="5.13" fill="#f7c45e"/><rect x="75.24" y="54.71" width="5.13" height="5.13" fill="#f7c45e"/><rect x="75.24" y="49.57" width="5.13" height="5.13" fill="#f7c45e"/><rect x="75.24" y="44.44" width="5.13" height="5.13" fill="#f7c45e"/><rect x="75.24" y="39.3" width="5.13" height="5.13" fill="#f7c45e"/><rect x="75.24" y="34.17" width="5.13" height="5.13" fill="#db6d12"/><rect x="75.24" y="29.04" width="5.13" height="5.13" fill="#f7c45e"/><rect x="75.24" y="23.9" width="5.13" height="5.13" fill="#f7c45e"/><rect x="75.24" y="18.77" width="5.13" height="5.13" fill="#f7c45e"/><rect x="75.24" y="13.63" width="5.13" height="5.13" fill="#f7c45e"/><rect x="75.24" y="8.5" width="5.13" height="5.13" fill="#1b0003"/><rect x="70.11" y="116.32" width="5.13" height="5.13" fill="#1b0003"/><rect x="70.11" y="111.18" width="5.13" height="5.13" fill="#d84b13"/><rect x="70.11" y="106.05" width="5.13" height="5.13" fill="#f7c45e"/><rect x="70.11" y="100.91" width="5.13" height="5.13" fill="#f7c45e"/><rect x="70.11" y="95.78" width="5.13" height="5.13" fill="#f9f2d4"/><rect x="70.11" y="90.64" width="5.13" height="5.13" fill="#f7c45e"/><rect x="70.11" y="85.51" width="5.13" height="5.13" fill="#f9f2d4"/><rect x="70.11" y="80.38" width="5.13" height="5.13" fill="#f7c45e"/><rect x="70.11" y="75.24" width="5.13" height="5.13" fill="#f7c45e"/><rect x="70.11" y="70.11" width="5.13" height="5.13" fill="#f7c45e"/><rect x="70.11" y="64.97" width="5.13" height="5.13" fill="#f7c45e"/><rect x="70.11" y="59.84" width="5.13" height="5.13" fill="#f7c45e"/><rect x="70.11" y="54.71" width="5.13" height="5.13" fill="#f7c45e"/><rect x="70.11" y="49.57" width="5.13" height="5.13" fill="#f7c45e"/><rect x="70.11" y="44.44" width="5.13" height="5.13" fill="#f7c45e"/><rect x="70.11" y="39.3" width="5.13" height="5.13" fill="#f7c45e"/><rect x="70.11" y="34.17" width="5.13" height="5.13" fill="#f7c45e"/><rect x="70.11" y="29.04" width="5.13" height="5.13" fill="#db6d12"/><rect x="70.11" y="23.9" width="5.13" height="5.13" fill="#f7c45e"/><rect x="70.11" y="18.77" width="5.13" height="5.13" fill="#f7c45e"/><rect x="70.11" y="13.63" width="5.13" height="5.13" fill="#ffefa1"/><rect x="70.11" y="8.5" width="5.13" height="5.13" fill="#1b0003"/><rect x="64.97" y="116.32" width="5.13" height="5.13" fill="#1b0003"/><rect x="64.97" y="111.18" width="5.13" height="5.13" fill="#d84b13"/><rect x="64.97" y="106.05" width="5.13" height="5.13" fill="#f7c45e"/><rect x="64.97" y="100.91" width="5.13" height="5.13" fill="#f7c45e"/><rect x="64.97" y="95.78" width="5.13" height="5.13" fill="#f9f2d4"/><rect x="64.97" y="90.64" width="5.13" height="5.13" fill="#f9f2d4"/><rect x="64.97" y="85.51" width="5.13" height="5.13" fill="#f7c45e"/><rect x="64.97" y="80.38" width="5.13" height="5.13" fill="#f7c45e"/><rect x="64.97" y="75.24" width="5.13" height="5.13" fill="#f7c45e"/><rect x="64.97" y="70.11" width="5.13" height="5.13" fill="#f7c45e"/><rect x="64.97" y="64.97" width="5.13" height="5.13" fill="#f7c45e"/><rect x="64.97" y="59.84" width="5.13" height="5.13" fill="#f7c45e"/><rect x="64.97" y="54.71" width="5.13" height="5.13" fill="#f7c45e"/><rect x="64.97" y="49.57" width="5.13" height="5.13" fill="#f7c45e"/><rect x="64.97" y="44.44" width="5.13" height="5.13" fill="#f7c45e"/><rect x="64.97" y="39.3" width="5.13" height="5.13" fill="#f7c45e"/><rect x="64.97" y="34.17" width="5.13" height="5.13" fill="#f7c45e"/><rect x="64.97" y="29.04" width="5.13" height="5.13" fill="#db6d12"/><rect x="64.97" y="23.9" width="5.13" height="5.13" fill="#f7c45e"/><rect x="64.97" y="18.77" width="5.13" height="5.13" fill="#f7c45e"/><rect x="64.97" y="13.63" width="5.13" height="5.13" fill="#ffefa1"/><rect x="64.97" y="8.5" width="5.13" height="5.13" fill="#1b0003"/><rect x="59.84" y="116.32" width="5.13" height="5.13" fill="#1b0003"/><rect x="59.84" y="111.18" width="5.13" height="5.13" fill="#d84b13"/><rect x="59.84" y="106.05" width="5.13" height="5.13" fill="#f7c45e"/><rect x="59.84" y="100.91" width="5.13" height="5.13" fill="#f7c45e"/><rect x="59.84" y="95.78" width="5.13" height="5.13" fill="#f9f2d4"/><rect x="59.84" y="90.64" width="5.13" height="5.13" fill="#f7c45e"/><rect x="59.84" y="85.51" width="5.13" height="5.13" fill="#f7c45e"/><rect x="59.84" y="80.38" width="5.13" height="5.13" fill="#f7c45e"/><rect x="59.84" y="75.24" width="5.13" height="5.13" fill="#f7c45e"/><rect x="59.84" y="70.11" width="5.13" height="5.13" fill="#f7c45e"/><rect x="59.84" y="64.97" width="5.13" height="5.13" fill="#f7c45e"/><rect x="59.84" y="59.84" width="5.13" height="5.13" fill="#f7c45e"/><rect x="59.84" y="54.71" width="5.13" height="5.13" fill="#f7c45e"/><rect x="59.84" y="49.57" width="5.13" height="5.13" fill="#f7c45e"/><rect x="59.84" y="44.44" width="5.13" height="5.13" fill="#f7c45e"/><rect x="59.84" y="39.3" width="5.13" height="5.13" fill="#f7c45e"/><rect x="59.84" y="34.17" width="5.13" height="5.13" fill="#f7c45e"/><rect x="59.84" y="29.04" width="5.13" height="5.13" fill="#db6d12"/><rect x="59.84" y="23.9" width="5.13" height="5.13" fill="#f7c45e"/><rect x="59.84" y="18.77" width="5.13" height="5.13" fill="#f7c45e"/><rect x="59.84" y="13.63" width="5.13" height="5.13" fill="#ffefa1"/><rect x="59.84" y="8.5" width="5.13" height="5.13" fill="#1b0003"/><rect x="54.71" y="116.32" width="5.13" height="5.13" fill="#1b0003"/><rect x="54.71" y="111.18" width="5.13" height="5.13" fill="#db6d12"/><rect x="54.71" y="106.05" width="5.13" height="5.13" fill="#f7c45e"/><rect x="54.71" y="100.91" width="5.13" height="5.13" fill="#f7c45e"/><rect x="54.71" y="95.78" width="5.13" height="5.13" fill="#f9f2d4"/><rect x="54.71" y="90.64" width="5.13" height="5.13" fill="#f7c45e"/><rect x="54.71" y="85.51" width="5.13" height="5.13" fill="#f7c45e"/><rect x="54.71" y="80.38" width="5.13" height="5.13" fill="#f7c45e"/><rect x="54.71" y="75.24" width="5.13" height="5.13" fill="#f7c45e"/><rect x="54.71" y="70.11" width="5.13" height="5.13" fill="#f7c45e"/><rect x="54.71" y="64.97" width="5.13" height="5.13" fill="#f7c45e"/><rect x="54.71" y="59.84" width="5.13" height="5.13" fill="#f7c45e"/><rect x="54.71" y="54.71" width="5.13" height="5.13" fill="#f7c45e"/><rect x="54.71" y="49.57" width="5.13" height="5.13" fill="#f7c45e"/><rect x="54.71" y="44.44" width="5.13" height="5.13" fill="#f7c45e"/><rect x="54.71" y="39.3" width="5.13" height="5.13" fill="#f7c45e"/><rect x="54.71" y="34.17" width="5.13" height="5.13" fill="#db6d12"/><rect x="54.71" y="29.04" width="5.13" height="5.13" fill="#db6d12"/><rect x="54.71" y="23.9" width="5.13" height="5.13" fill="#f7c45e"/><rect x="54.71" y="18.77" width="5.13" height="5.13" fill="#f7c45e"/><rect x="54.71" y="13.63" width="5.13" height="5.13" fill="#ffefa1"/><rect x="54.71" y="8.5" width="5.13" height="5.13" fill="#db6d12"/><rect x="49.57" y="116.32" width="5.13" height="5.13" fill="#1b0003"/><rect x="49.57" y="111.18" width="5.13" height="5.13" fill="#db6d12"/><rect x="49.57" y="106.05" width="5.13" height="5.13" fill="#f7c45e"/><rect x="49.57" y="100.91" width="5.13" height="5.13" fill="#f7c45e"/><rect x="49.57" y="95.78" width="5.13" height="5.13" fill="#f7c45e"/><rect x="49.57" y="90.64" width="5.13" height="5.13" fill="#f7c45e"/><rect x="49.57" y="85.51" width="5.13" height="5.13" fill="#f7c45e"/><rect x="49.57" y="80.38" width="5.13" height="5.13" fill="#f7c45e"/><rect x="49.57" y="75.24" width="5.13" height="5.13" fill="#f7c45e"/><rect x="49.57" y="70.11" width="5.13" height="5.13" fill="#f7c45e"/><rect x="49.57" y="64.97" width="5.13" height="5.13" fill="#f7c45e"/><rect x="49.57" y="59.84" width="5.13" height="5.13" fill="#f7c45e"/><rect x="49.57" y="54.71" width="5.13" height="5.13" fill="#f7c45e"/><rect x="49.57" y="49.57" width="5.13" height="5.13" fill="#f7c45e"/><rect x="49.57" y="44.44" width="5.13" height="5.13" fill="#f7c45e"/><rect x="49.57" y="39.3" width="5.13" height="5.13" fill="#f7c45e"/><rect x="49.57" y="34.17" width="5.13" height="5.13" fill="#db6d12"/><rect x="49.57" y="29.04" width="5.13" height="5.13" fill="#f7c45e"/><rect x="49.57" y="23.9" width="5.13" height="5.13" fill="#f7c45e"/><rect x="49.57" y="18.77" width="5.13" height="5.13" fill="#ffefa1"/><rect x="49.57" y="13.63" width="5.13" height="5.13" fill="#ffefa1"/><rect x="49.57" y="8.5" width="5.13" height="5.13" fill="#db6d12"/><rect x="44.44" y="111.18" width="5.13" height="5.13" fill="#1b0003"/><rect x="44.44" y="106.05" width="5.13" height="5.13" fill="#f7c45e"/><rect x="44.44" y="100.91" width="5.13" height="5.13" fill="#f7c45e"/><rect x="44.44" y="95.78" width="5.13" height="5.13" fill="#f7c45e"/><rect x="44.44" y="90.64" width="5.13" height="5.13" fill="#db6d12"/><rect x="44.44" y="85.51" width="5.13" height="5.13" fill="#f7c45e"/><rect x="44.44" y="80.38" width="5.13" height="5.13" fill="#f7c45e"/><rect x="44.44" y="75.24" width="5.13" height="5.13" fill="#f7c45e"/><rect x="44.44" y="70.11" width="5.13" height="5.13" fill="#f7c45e"/><rect x="44.44" y="64.97" width="5.13" height="5.13" fill="#f7c45e"/><rect x="44.44" y="59.84" width="5.13" height="5.13" fill="#f7c45e"/><rect x="44.44" y="54.71" width="5.13" height="5.13" fill="#f7c45e"/><rect x="44.44" y="49.57" width="5.13" height="5.13" fill="#f7c45e"/><rect x="44.44" y="44.44" width="5.13" height="5.13" fill="#f7c45e"/><rect x="44.44" y="39.3" width="5.13" height="5.13" fill="#db6d12"/><rect x="44.44" y="34.17" width="5.13" height="5.13" fill="#db6d12"/><rect x="44.44" y="29.04" width="5.13" height="5.13" fill="#f7c45e"/><rect x="44.44" y="23.9" width="5.13" height="5.13" fill="#f7c45e"/><rect x="44.44" y="18.77" width="5.13" height="5.13" fill="#ffefa1"/><rect x="44.44" y="13.63" width="5.13" height="5.13" fill="#db6d12"/><rect x="39.3" y="34.17" width="5.13" height="5.13" fill="#db6d12"/><rect x="39.3" y="29.04" width="5.13" height="5.13" fill="#f7c45e"/><rect x="39.3" y="23.9" width="5.13" height="5.13" fill="#f7c45e"/><rect x="39.3" y="18.77" width="5.13" height="5.13" fill="#ffefa1"/><rect x="39.3" y="13.63" width="5.13" height="5.13" fill="#f7c45e"/><rect x="39.3" y="111.18" width="5.13" height="5.13" fill="#1b0003"/><rect x="39.3" y="106.05" width="5.13" height="5.13" fill="#db6d12"/><rect x="39.3" y="100.91" width="5.13" height="5.13" fill="#f7c45e"/><rect x="39.3" y="95.78" width="5.13" height="5.13" fill="#f7c45e"/><rect x="39.3" y="90.64" width="5.13" height="5.13" fill="#f7c45e"/><rect x="39.3" y="85.51" width="5.13" height="5.13" fill="#db6d12"/><rect x="39.3" y="80.38" width="5.13" height="5.13" fill="#f7c45e"/><rect x="39.3" y="75.24" width="5.13" height="5.13" fill="#f7c45e"/><rect x="39.3" y="70.11" width="5.13" height="5.13" fill="#f7c45e"/><rect x="39.3" y="64.97" width="5.13" height="5.13" fill="#f7c45e"/><rect x="39.3" y="59.84" width="5.13" height="5.13" fill="#f7c45e"/><rect x="39.3" y="54.71" width="5.13" height="5.13" fill="#f7c45e"/><rect x="39.3" y="49.57" width="5.13" height="5.13" fill="#f7c45e"/><rect x="39.3" y="44.44" width="5.13" height="5.13" fill="#db6d12"/><rect x="39.3" y="39.3" width="5.13" height="5.13" fill="#db6d12"/><rect x="34.17" y="39.3" width="5.13" height="5.13" fill="#db6d12"/><rect x="34.17" y="34.17" width="5.13" height="5.13" fill="#f7c45e"/><rect x="34.17" y="29.04" width="5.13" height="5.13" fill="#f7c45e"/><rect x="34.17" y="23.9" width="5.13" height="5.13" fill="#ffefa1"/><rect x="34.17" y="18.77" width="5.13" height="5.13" fill="#f7c45e"/><rect x="34.17" y="106.05" width="5.13" height="5.13" fill="#1b0003"/><rect x="34.17" y="100.91" width="5.13" height="5.13" fill="#f7c45e"/><rect x="34.17" y="95.78" width="5.13" height="5.13" fill="#f7c45e"/><rect x="34.17" y="90.64" width="5.13" height="5.13" fill="#f7c45e"/><rect x="34.17" y="85.51" width="5.13" height="5.13" fill="#f7c45e"/><rect x="34.17" y="80.38" width="5.13" height="5.13" fill="#db6d12"/><rect x="34.17" y="75.24" width="5.13" height="5.13" fill="#db6d12"/><rect x="34.17" y="70.11" width="5.13" height="5.13" fill="#f7c45e"/><rect x="34.17" y="64.97" width="5.13" height="5.13" fill="#f7c45e"/><rect x="34.17" y="59.84" width="5.13" height="5.13" fill="#f7c45e"/><rect x="34.17" y="54.71" width="5.13" height="5.13" fill="#db6d12"/><rect x="34.17" y="49.57" width="5.13" height="5.13" fill="#db6d12"/><rect x="34.17" y="44.44" width="5.13" height="5.13" fill="#db6d12"/><rect x="29.04" y="39.3" width="5.13" height="5.13" fill="#f7c45e"/><rect x="29.04" y="34.17" width="5.13" height="5.13" fill="#f7c45e"/><rect x="29.04" y="29.04" width="5.13" height="5.13" fill="#f9f2d4"/><rect x="29.04" y="23.9" width="5.13" height="5.13" fill="#f9f2d4"/><rect x="29.04" y="18.77" width="5.13" height="5.13" fill="#f7c45e"/><rect x="29.04" y="106.05" width="5.13" height="5.13" fill="#1b0003"/><rect x="29.04" y="100.91" width="5.13" height="5.13" fill="#db6d12"/><rect x="29.04" y="95.78" width="5.13" height="5.13" fill="#f7c45e"/><rect x="29.04" y="90.64" width="5.13" height="5.13" fill="#f7c45e"/><rect x="29.04" y="85.51" width="5.13" height="5.13" fill="#f7c45e"/><rect x="29.04" y="80.38" width="5.13" height="5.13" fill="#f7c45e"/><rect x="29.04" y="75.24" width="5.13" height="5.13" fill="#f7c45e"/><rect x="29.04" y="70.11" width="5.13" height="5.13" fill="#db6d12"/><rect x="29.04" y="64.97" width="5.13" height="5.13" fill="#db6d12"/><rect x="29.04" y="59.84" width="5.13" height="5.13" fill="#db6d12"/><rect x="29.04" y="54.71" width="5.13" height="5.13" fill="#db6d12"/><rect x="29.04" y="49.57" width="5.13" height="5.13" fill="#db6d12"/><rect x="29.04" y="44.44" width="5.13" height="5.13" fill="#f7c45e"/><rect x="23.9" y="39.3" width="5.13" height="5.13" fill="#f7c45e"/><rect x="23.9" y="34.17" width="5.13" height="5.13" fill="#f9f2d4"/><rect x="23.9" y="29.04" width="5.13" height="5.13" fill="#f9f2d4"/><rect x="23.9" y="23.9" width="5.13" height="5.13" fill="#f7c45e"/><rect x="23.9" y="100.91" width="5.13" height="5.13" fill="#1b0003"/><rect x="23.9" y="95.78" width="5.13" height="5.13" fill="#ffefa1"/><rect x="23.9" y="90.64" width="5.13" height="5.13" fill="#f7c45e"/><rect x="23.9" y="85.51" width="5.13" height="5.13" fill="#f7c45e"/><rect x="23.9" y="80.38" width="5.13" height="5.13" fill="#f7c45e"/><rect x="23.9" y="75.24" width="5.13" height="5.13" fill="#f7c45e"/><rect x="23.9" y="70.11" width="5.13" height="5.13" fill="#f7c45e"/><rect x="23.9" y="64.97" width="5.13" height="5.13" fill="#f7c45e"/><rect x="23.9" y="59.84" width="5.13" height="5.13" fill="#f7c45e"/><rect x="23.9" y="54.71" width="5.13" height="5.13" fill="#f7c45e"/><rect x="23.9" y="49.57" width="5.13" height="5.13" fill="#f7c45e"/><rect x="23.9" y="44.44" width="5.13" height="5.13" fill="#f7c45e"/><rect x="18.77" y="39.3" width="5.13" height="5.13" fill="#f9f2d4"/><rect x="18.77" y="34.17" width="5.13" height="5.13" fill="#f7c45e"/><rect x="18.77" y="29.04" width="5.13" height="5.13" fill="#f7c45e"/><rect x="18.77" y="95.78" width="5.13" height="5.13" fill="#1b0003"/><rect x="18.77" y="90.64" width="5.13" height="5.13" fill="#1b0003"/><rect x="18.77" y="85.51" width="5.13" height="5.13" fill="#ffefa1"/><rect x="18.77" y="80.38" width="5.13" height="5.13" fill="#f7c45e"/><rect x="18.77" y="75.24" width="5.13" height="5.13" fill="#f7c45e"/><rect x="18.77" y="70.11" width="5.13" height="5.13" fill="#f7c45e"/><rect x="18.77" y="64.97" width="5.13" height="5.13" fill="#f7c45e"/><rect x="18.77" y="59.84" width="5.13" height="5.13" fill="#f7c45e"/><rect x="18.77" y="54.71" width="5.13" height="5.13" fill="#f7c45e"/><rect x="18.77" y="49.57" width="5.13" height="5.13" fill="#f7c45e"/><rect x="18.77" y="44.44" width="5.13" height="5.13" fill="#ffefa1"/><rect x="13.63" y="39.3" width="5.13" height="5.13" fill="#f7c45e"/><rect x="13.63" y="85.51" width="5.13" height="5.13" fill="#1b0003"/><rect x="13.63" y="80.38" width="5.13" height="5.13" fill="#1b0003"/><rect x="13.63" y="75.24" width="5.13" height="5.13" fill="#ffefa1"/><rect x="13.63" y="70.11" width="5.13" height="5.13" fill="#f7c45e"/><rect x="13.63" y="64.97" width="5.13" height="5.13" fill="#f7c45e"/><rect x="13.63" y="59.84" width="5.13" height="5.13" fill="#f7c45e"/><rect x="13.63" y="54.71" width="5.13" height="5.13" fill="#ffefa1"/><rect x="13.63" y="49.57" width="5.13" height="5.13" fill="#ffefa1"/><rect x="13.63" y="44.44" width="5.13" height="5.13" fill="#db6d12"/><rect x="8.5" y="75.24" width="5.13" height="5.13" fill="#1b0003"/><rect x="8.5" y="70.11" width="5.13" height="5.13" fill="#1b0003"/><rect x="8.5" y="64.97" width="5.13" height="5.13" fill="#1b0003"/><rect x="8.5" y="59.84" width="5.13" height="5.13" fill="#db6d12"/><rect x="8.5" y="54.71" width="5.13" height="5.13" fill="#db6d12"/><rect x="8.5" y="49.57" width="5.13" height="5.13" fill="#f7c45e"/></g></g></g></g></svg>