<svg xmlns="http://www.w3.org/2000/svg" width="131.5" height="101.37" viewBox="0 0 131.5 101.37"><g id="Layer_2" data-name="Layer 2"><g id="items"><g id="Crown"><path d="M102.45,0V6h-6v6H83.29V6h-6V0h-23V6h-6v6H35.08V6h-6V0H0V89.32H6v6h6v6h107.4v-6h6v-6h6V0Zm12,72.32h-6v6h-6v6H29.05v-6H23v-6H17V23h1.08v6h6v6h6v6h23v-6h6v-6h6V23h1.08v6h6v6h6v6h23v-6h6v-6h6V23h1.07Z" fill="#fff"/><g id="Crown-2" data-name="Crown"><rect x="116.98" y="74.79" width="6.03" height="6.03" fill="#1b0003"/><rect x="116.98" y="68.77" width="6.03" height="6.03" fill="#1b0003"/><rect x="116.98" y="62.74" width="6.03" height="6.03" fill="#1b0003"/><rect x="116.98" y="56.71" width="6.03" height="6.03" fill="#1b0003"/><rect x="116.98" y="50.69" width="6.03" height="6.03" fill="#1b0003"/><rect x="116.98" y="44.66" width="6.03" height="6.03" fill="#1b0003"/><rect x="116.98" y="38.63" width="6.03" height="6.03" fill="#1b0003"/><rect x="116.98" y="32.61" width="6.03" height="6.03" fill="#1b0003"/><rect x="116.98" y="26.58" width="6.03" height="6.03" fill="#1b0003"/><rect x="116.98" y="20.55" width="6.03" height="6.03" fill="#1b0003"/><rect x="116.98" y="14.53" width="6.03" height="6.03" fill="#1b0003"/><rect x="116.98" y="8.5" width="6.03" height="6.03" fill="#1b0003"/><rect x="110.95" y="80.82" width="6.03" height="6.03" fill="#1b0003"/><rect x="110.95" y="74.79" width="6.03" height="6.03" fill="#db6d12"/><rect x="110.95" y="68.77" width="6.03" height="6.03" fill="#d84b13"/><rect x="110.95" y="62.74" width="6.03" height="6.03" fill="#db6d12"/><rect x="110.95" y="56.71" width="6.03" height="6.03" fill="#d84b13"/><rect x="110.95" y="50.69" width="6.03" height="6.03" fill="#db6d12"/><rect x="110.95" y="44.66" width="6.03" height="6.03" fill="#db6d12"/><rect x="110.95" y="38.63" width="6.03" height="6.03" fill="#db6d12"/><rect x="110.95" y="32.61" width="6.03" height="6.03" fill="#db6d12"/><rect x="110.95" y="26.58" width="6.03" height="6.03" fill="#db6d12"/><rect x="110.95" y="20.55" width="6.03" height="6.03" fill="#d84b13"/><rect x="110.95" y="14.53" width="6.03" height="6.03" fill="#f7c45e"/><rect x="110.95" y="8.5" width="6.03" height="6.03" fill="#1b0003"/><rect x="104.93" y="86.85" width="6.03" height="6.03" fill="#1b0003"/><rect x="104.93" y="80.82" width="6.03" height="6.03" fill="#db6d12"/><rect x="104.93" y="74.79" width="6.03" height="6.03" fill="#d84b13"/><rect x="104.93" y="68.77" width="6.03" height="6.03" fill="#db6d12"/><rect x="104.93" y="62.74" width="6.03" height="6.03" fill="#d84b13"/><rect x="104.93" y="56.71" width="6.03" height="6.03" fill="#db6d12"/><rect x="104.93" y="50.69" width="6.03" height="6.03" fill="#db6d12"/><rect x="104.93" y="44.66" width="6.03" height="6.03" fill="#db6d12"/><rect x="104.93" y="38.63" width="6.03" height="6.03" fill="#db6d12"/><rect x="104.93" y="32.61" width="6.03" height="6.03" fill="#d84b13"/><rect x="104.93" y="26.58" width="6.03" height="6.03" fill="#f7c45e"/><rect x="104.93" y="20.55" width="6.03" height="6.03" fill="#f7c45e"/><rect x="104.93" y="14.53" width="6.03" height="6.03" fill="#1b0003"/><rect x="98.9" y="86.85" width="6.03" height="6.03" fill="#1b0003"/><rect x="98.9" y="80.82" width="6.03" height="6.03" fill="#d84b13"/><rect x="98.9" y="74.79" width="6.03" height="6.03" fill="#db6d12"/><rect x="98.9" y="68.77" width="6.03" height="6.03" fill="#d84b13"/><rect x="98.9" y="62.74" width="6.03" height="6.03" fill="#db6d12"/><rect x="98.9" y="56.71" width="6.03" height="6.03" fill="#db6d12"/><rect x="98.9" y="50.69" width="6.03" height="6.03" fill="#db6d12"/><rect x="98.9" y="44.66" width="6.03" height="6.03" fill="#d84b13"/><rect x="98.9" y="38.63" width="6.03" height="6.03" fill="#d84b13"/><rect x="98.9" y="32.61" width="6.03" height="6.03" fill="#f7c45e"/><rect x="98.9" y="26.58" width="6.03" height="6.03" fill="#f7c45e"/><rect x="98.9" y="20.55" width="6.03" height="6.03" fill="#1b0003"/><rect x="92.87" y="86.85" width="6.03" height="6.03" fill="#1b0003"/><rect x="92.87" y="80.82" width="6.03" height="6.03" fill="#db6d12"/><rect x="92.87" y="74.79" width="6.03" height="6.03" fill="#d84b13"/><rect x="92.87" y="68.77" width="6.03" height="6.03" fill="#d84b13"/><rect x="92.87" y="62.74" width="6.03" height="6.03" fill="#d84b13"/><rect x="92.87" y="56.71" width="6.03" height="6.03" fill="#d84b13"/><rect x="92.87" y="50.69" width="6.03" height="6.03" fill="#d84b13"/><rect x="92.87" y="44.66" width="6.03" height="6.03" fill="#d84b13"/><rect x="92.87" y="38.63" width="6.03" height="6.03" fill="#f7c45e"/><rect x="92.87" y="32.61" width="6.03" height="6.03" fill="#f7c45e"/><rect x="92.87" y="26.58" width="6.03" height="6.03" fill="#1b0003"/><rect x="86.85" y="86.85" width="6.03" height="6.03" fill="#1b0003"/><rect x="86.85" y="80.82" width="6.03" height="6.03" fill="#d84b13"/><rect x="86.85" y="74.79" width="6.03" height="6.03" fill="#db6d12"/><rect x="86.85" y="68.77" width="6.03" height="6.03" fill="#d84b13"/><rect x="86.85" y="62.74" width="6.03" height="6.03" fill="#f7c45e"/><rect x="86.85" y="56.71" width="6.03" height="6.03" fill="#f7c45e"/><rect x="86.85" y="50.69" width="6.03" height="6.03" fill="#f7c45e"/><rect x="86.85" y="44.66" width="6.03" height="6.03" fill="#f7c45e"/><rect x="86.85" y="38.63" width="6.03" height="6.03" fill="#f7c45e"/><rect x="86.85" y="32.61" width="6.03" height="6.03" fill="#1b0003"/><rect x="80.82" y="86.85" width="6.03" height="6.03" fill="#1b0003"/><rect x="80.82" y="80.82" width="6.03" height="6.03" fill="#db6d12"/><rect x="80.82" y="74.79" width="6.03" height="6.03" fill="#d84b13"/><rect x="80.82" y="68.77" width="6.03" height="6.03" fill="#f7c45e"/><rect x="80.82" y="62.74" width="6.03" height="6.03" fill="#f7c45e"/><rect x="80.82" y="56.71" width="6.03" height="6.03" fill="#f7c45e"/><rect x="80.82" y="50.69" width="6.03" height="6.03" fill="#f7c45e"/><rect x="80.82" y="44.66" width="6.03" height="6.03" fill="#f7c45e"/><rect x="80.82" y="38.63" width="6.03" height="6.03" fill="#f7c45e"/><rect x="80.82" y="32.61" width="6.03" height="6.03" fill="#f7c45e"/><rect x="80.82" y="26.58" width="6.03" height="6.03" fill="#1b0003"/><rect x="74.79" y="86.85" width="6.03" height="6.03" fill="#1b0003"/><rect x="74.79" y="80.82" width="6.03" height="6.03" fill="#d84b13"/><rect x="74.79" y="74.79" width="6.03" height="6.03" fill="#f7c45e"/><rect x="74.79" y="68.77" width="6.03" height="6.03" fill="#f7c45e"/><rect x="74.79" y="62.74" width="6.03" height="6.03" fill="#f7c45e"/><rect x="74.79" y="56.71" width="6.03" height="6.03" fill="#1b0003"/><rect x="74.79" y="50.69" width="6.03" height="6.03" fill="#1b0003"/><rect x="74.79" y="44.66" width="6.03" height="6.03" fill="#1b0003"/><rect x="74.79" y="38.63" width="6.03" height="6.03" fill="#f7c45e"/><rect x="74.79" y="32.61" width="6.03" height="6.03" fill="#f7c45e"/><rect x="74.79" y="26.58" width="6.03" height="6.03" fill="#f7c45e"/><rect x="74.79" y="20.55" width="6.03" height="6.03" fill="#1b0003"/><rect x="68.77" y="86.85" width="6.03" height="6.03" fill="#1b0003"/><rect x="68.77" y="80.82" width="6.03" height="6.03" fill="#f7c45e"/><rect x="68.77" y="74.79" width="6.03" height="6.03" fill="#f7c45e"/><rect x="68.77" y="68.77" width="6.03" height="6.03" fill="#f7c45e"/><rect x="68.77" y="62.74" width="6.03" height="6.03" fill="#1b0003"/><rect x="68.77" y="56.71" width="6.03" height="6.03" fill="#b6294c"/><rect x="68.77" y="50.69" width="6.03" height="6.03" fill="#b6294c"/><rect x="68.77" y="44.66" width="6.03" height="6.03" fill="#db1943"/><rect x="68.77" y="38.63" width="6.03" height="6.03" fill="#1b0003"/><rect x="68.77" y="32.61" width="6.03" height="6.03" fill="#f7c45e"/><rect x="68.77" y="26.58" width="6.03" height="6.03" fill="#f7c45e"/><rect x="68.77" y="20.55" width="6.03" height="6.03" fill="#f7c45e"/><rect x="68.77" y="14.53" width="6.03" height="6.03" fill="#1b0003"/><rect x="62.74" y="86.85" width="6.03" height="6.03" fill="#1b0003"/><rect x="62.74" y="80.82" width="6.03" height="6.03" fill="#f7c45e"/><rect x="62.74" y="74.79" width="6.03" height="6.03" fill="#f7c45e"/><rect x="62.74" y="68.77" width="6.03" height="6.03" fill="#f7c45e"/><rect x="62.74" y="62.74" width="6.03" height="6.03" fill="#1b0003"/><rect x="62.74" y="56.71" width="6.03" height="6.03" fill="#b6294c"/><rect x="62.74" y="50.69" width="6.03" height="6.03" fill="#db1943"/><rect x="62.74" y="44.66" width="6.03" height="6.03" fill="#eb3824"/><rect x="62.74" y="38.63" width="6.03" height="6.03" fill="#1b0003"/><rect x="62.74" y="32.61" width="6.03" height="6.03" fill="#f7c45e"/><rect x="62.74" y="26.58" width="6.03" height="6.03" fill="#f7c45e"/><rect x="62.74" y="20.55" width="6.03" height="6.03" fill="#f7c45e"/><rect x="62.74" y="14.53" width="6.03" height="6.03" fill="#f9f2d4"/><rect x="62.74" y="8.5" width="6.03" height="6.03" fill="#1b0003"/><rect x="56.71" y="86.85" width="6.03" height="6.03" fill="#1b0003"/><rect x="56.71" y="80.82" width="6.03" height="6.03" fill="#f7c45e"/><rect x="56.71" y="74.79" width="6.03" height="6.03" fill="#f7c45e"/><rect x="56.71" y="68.77" width="6.03" height="6.03" fill="#f7c45e"/><rect x="56.71" y="62.74" width="6.03" height="6.03" fill="#1b0003"/><rect x="56.71" y="56.71" width="6.03" height="6.03" fill="#db1943"/><rect x="56.71" y="50.69" width="6.03" height="6.03" fill="#eb3824"/><rect x="56.71" y="44.66" width="6.03" height="6.03" fill="#f4b9b8"/><rect x="56.71" y="38.63" width="6.03" height="6.03" fill="#1b0003"/><rect x="56.71" y="32.61" width="6.03" height="6.03" fill="#f7c45e"/><rect x="56.71" y="26.58" width="6.03" height="6.03" fill="#f7c45e"/><rect x="56.71" y="20.55" width="6.03" height="6.03" fill="#f9f2d4"/><rect x="56.71" y="14.53" width="6.03" height="6.03" fill="#1b0003"/><rect x="50.69" y="86.85" width="6.03" height="6.03" fill="#1b0003"/><rect x="50.69" y="80.82" width="6.03" height="6.03" fill="#db6d12"/><rect x="50.69" y="74.79" width="6.03" height="6.03" fill="#f7c45e"/><rect x="50.69" y="68.77" width="6.03" height="6.03" fill="#f7c45e"/><rect x="50.69" y="62.74" width="6.03" height="6.03" fill="#f7c45e"/><rect x="50.69" y="56.71" width="6.03" height="6.03" fill="#1b0003"/><rect x="50.69" y="50.69" width="6.03" height="6.03" fill="#1b0003"/><rect x="50.69" y="44.66" width="6.03" height="6.03" fill="#1b0003"/><rect x="50.69" y="38.63" width="6.03" height="6.03" fill="#f7c45e"/><rect x="50.69" y="32.61" width="6.03" height="6.03" fill="#f7c45e"/><rect x="50.69" y="26.58" width="6.03" height="6.03" fill="#f9f2d4"/><rect x="50.69" y="20.55" width="6.03" height="6.03" fill="#1b0003"/><rect x="44.66" y="86.85" width="6.03" height="6.03" fill="#1b0003"/><rect x="44.66" y="80.82" width="6.03" height="6.03" fill="#db6d12"/><rect x="44.66" y="74.79" width="6.03" height="6.03" fill="#db6d12"/><rect x="44.66" y="68.77" width="6.03" height="6.03" fill="#f7c45e"/><rect x="44.66" y="62.74" width="6.03" height="6.03" fill="#f7c45e"/><rect x="44.66" y="56.71" width="6.03" height="6.03" fill="#f7c45e"/><rect x="44.66" y="50.69" width="6.03" height="6.03" fill="#f7c45e"/><rect x="44.66" y="44.66" width="6.03" height="6.03" fill="#f7c45e"/><rect x="44.66" y="38.63" width="6.03" height="6.03" fill="#f7c45e"/><rect x="44.66" y="32.61" width="6.03" height="6.03" fill="#f9f2d4"/><rect x="44.66" y="26.58" width="6.03" height="6.03" fill="#1b0003"/><rect x="38.63" y="86.85" width="6.03" height="6.03" fill="#1b0003"/><rect x="38.63" y="80.82" width="6.03" height="6.03" fill="#db6d12"/><rect x="38.63" y="74.79" width="6.03" height="6.03" fill="#db6d12"/><rect x="38.63" y="68.77" width="6.03" height="6.03" fill="#db6d12"/><rect x="38.63" y="62.74" width="6.03" height="6.03" fill="#f7c45e"/><rect x="38.63" y="56.71" width="6.03" height="6.03" fill="#f7c45e"/><rect x="38.63" y="50.69" width="6.03" height="6.03" fill="#f7c45e"/><rect x="38.63" y="44.66" width="6.03" height="6.03" fill="#f7c45e"/><rect x="38.63" y="38.63" width="6.03" height="6.03" fill="#f7c45e"/><rect x="38.63" y="32.61" width="6.03" height="6.03" fill="#1b0003"/><rect x="32.61" y="86.85" width="6.03" height="6.03" fill="#1b0003"/><rect x="32.61" y="80.82" width="6.03" height="6.03" fill="#db6d12"/><rect x="32.61" y="74.79" width="6.03" height="6.03" fill="#db6d12"/><rect x="32.61" y="68.77" width="6.03" height="6.03" fill="#db6d12"/><rect x="32.61" y="62.74" width="6.03" height="6.03" fill="#db6d12"/><rect x="32.61" y="56.71" width="6.03" height="6.03" fill="#db6d12"/><rect x="32.61" y="50.69" width="6.03" height="6.03" fill="#db6d12"/><rect x="32.61" y="44.66" width="6.03" height="6.03" fill="#db6d12"/><rect x="32.61" y="38.63" width="6.03" height="6.03" fill="#d84b13"/><rect x="32.61" y="32.61" width="6.03" height="6.03" fill="#f7c45e"/><rect x="32.61" y="26.58" width="6.03" height="6.03" fill="#1b0003"/><rect x="26.58" y="86.85" width="6.03" height="6.03" fill="#1b0003"/><rect x="26.58" y="80.82" width="6.03" height="6.03" fill="#db6d12"/><rect x="26.58" y="74.79" width="6.03" height="6.03" fill="#db6d12"/><rect x="26.58" y="68.77" width="6.03" height="6.03" fill="#db6d12"/><rect x="26.58" y="62.74" width="6.03" height="6.03" fill="#db6d12"/><rect x="26.58" y="56.71" width="6.03" height="6.03" fill="#db6d12"/><rect x="26.58" y="50.69" width="6.03" height="6.03" fill="#db6d12"/><rect x="26.58" y="44.66" width="6.03" height="6.03" fill="#db6d12"/><rect x="26.58" y="38.63" width="6.03" height="6.03" fill="#db6d12"/><rect x="26.58" y="32.61" width="6.03" height="6.03" fill="#d84b13"/><rect x="26.58" y="26.58" width="6.03" height="6.03" fill="#f7c45e"/><rect x="26.58" y="20.55" width="6.03" height="6.03" fill="#1b0003"/><rect x="20.55" y="86.85" width="6.03" height="6.03" fill="#1b0003"/><rect x="20.55" y="80.82" width="6.03" height="6.03" fill="#db6d12"/><rect x="20.55" y="74.79" width="6.03" height="6.03" fill="#db6d12"/><rect x="20.55" y="68.77" width="6.03" height="6.03" fill="#db6d12"/><rect x="20.55" y="62.74" width="6.03" height="6.03" fill="#db6d12"/><rect x="20.55" y="56.71" width="6.03" height="6.03" fill="#db6d12"/><rect x="20.55" y="50.69" width="6.03" height="6.03" fill="#db6d12"/><rect x="20.55" y="44.66" width="6.03" height="6.03" fill="#db6d12"/><rect x="20.55" y="38.63" width="6.03" height="6.03" fill="#db6d12"/><rect x="20.55" y="32.61" width="6.03" height="6.03" fill="#db6d12"/><rect x="20.55" y="26.58" width="6.03" height="6.03" fill="#d84b13"/><rect x="20.55" y="20.55" width="6.03" height="6.03" fill="#f7c45e"/><rect x="20.55" y="14.53" width="6.03" height="6.03" fill="#1b0003"/><rect x="14.53" y="80.82" width="6.03" height="6.03" fill="#1b0003"/><rect x="14.53" y="74.79" width="6.03" height="6.03" fill="#db6d12"/><rect x="14.53" y="68.77" width="6.03" height="6.03" fill="#db6d12"/><rect x="14.53" y="62.74" width="6.03" height="6.03" fill="#db6d12"/><rect x="14.53" y="56.71" width="6.03" height="6.03" fill="#db6d12"/><rect x="14.53" y="50.69" width="6.03" height="6.03" fill="#db6d12"/><rect x="14.53" y="44.66" width="6.03" height="6.03" fill="#db6d12"/><rect x="14.53" y="38.63" width="6.03" height="6.03" fill="#db6d12"/><rect x="14.53" y="32.61" width="6.03" height="6.03" fill="#db6d12"/><rect x="14.53" y="26.58" width="6.03" height="6.03" fill="#db6d12"/><rect x="14.53" y="20.55" width="6.03" height="6.03" fill="#d84b13"/><rect x="14.53" y="14.53" width="6.03" height="6.03" fill="#f7c45e"/><rect x="14.53" y="8.5" width="6.03" height="6.03" fill="#1b0003"/><rect x="8.5" y="74.79" width="6.03" height="6.03" fill="#1b0003"/><rect x="8.5" y="68.77" width="6.03" height="6.03" fill="#1b0003"/><rect x="8.5" y="62.74" width="6.03" height="6.03" fill="#1b0003"/><rect x="8.5" y="56.71" width="6.03" height="6.03" fill="#1b0003"/><rect x="8.5" y="50.69" width="6.03" height="6.03" fill="#1b0003"/><rect x="8.5" y="44.66" width="6.03" height="6.03" fill="#1b0003"/><rect x="8.5" y="38.63" width="6.03" height="6.03" fill="#1b0003"/><rect x="8.5" y="32.61" width="6.03" height="6.03" fill="#1b0003"/><rect x="8.5" y="26.58" width="6.03" height="6.03" fill="#1b0003"/><rect x="8.5" y="20.55" width="6.03" height="6.03" fill="#1b0003"/><rect x="8.5" y="14.53" width="6.03" height="6.03" fill="#1b0003"/><rect x="8.5" y="8.5" width="6.03" height="6.03" fill="#1b0003"/></g></g></g></g></svg>