<svg xmlns="http://www.w3.org/2000/svg" width="140.49" height="119.01" viewBox="0 0 140.49 119.01"><g id="Layer_2" data-name="Layer 2"><g id="items"><g id="Diamond"><path d="M86.8,119H53.69v-5.37H48.32v-5.37H43V102.9H37.58V97.54H32.21V92.17H26.85V86.8H21.48V81.43H16.11V76.06H10.74V70.69H5.37V65.32H0V21.48H5.37V16.11h5.37V10.74h5.37V5.37h5.37V0H119V5.37h5.37v5.37h5.37v5.37h5.37v5.37h5.37V65.32h-5.37v5.37h-5.37v5.37h-5.37v5.37H119V86.8h-5.37v5.37h-5.37v5.37H102.9v5.36H97.54v5.37H92.17v5.37H86.8ZM70.69,96.64h4.48V91.27h5.37V85.9H85.9V80.54h5.37V75.17h5.37V69.8H102V64.43h5.37V59.06h5.37V53.69h5.37V48.32h5.37V38.48h-5.37V33.11h-5.37V27.74h-5.37V22.37H102V17H38.48v5.37H33.11v5.37H27.74v5.37H22.37v5.37H17v9.84h5.37v5.37h5.37v5.37h5.37v5.37h5.37V69.8h5.37v5.37h5.36v5.37h5.37V85.9H60v5.37h5.37v5.37Z" fill="#fff"/><g id="Diamond-2" data-name="Diamond"><rect x="126.62" y="51.45" width="5.37" height="5.37" fill="#457bf9"/><rect x="126.62" y="46.08" width="5.37" height="5.37" fill="#457bf9"/><rect x="126.62" y="40.71" width="5.37" height="5.37" fill="#457bf9"/><rect x="126.62" y="35.35" width="5.37" height="5.37" fill="#1b0003"/><rect x="126.62" y="29.98" width="5.37" height="5.37" fill="#1b0003"/><rect x="121.25" y="56.82" width="5.37" height="5.37" fill="#457bf9"/><rect x="121.25" y="51.45" width="5.37" height="5.37" fill="#46abf7"/><rect x="121.25" y="46.08" width="5.37" height="5.37" fill="#457bf9"/><rect x="121.25" y="40.71" width="5.37" height="5.37" fill="#06def5"/><rect x="121.25" y="35.35" width="5.37" height="5.37" fill="#06def5"/><rect x="121.25" y="29.98" width="5.37" height="5.37" fill="#06def5"/><rect x="121.25" y="24.61" width="5.37" height="5.37" fill="#1b0003"/><rect x="115.88" y="62.19" width="5.37" height="5.37" fill="#457bf9"/><rect x="115.88" y="56.82" width="5.37" height="5.37" fill="#06def5"/><rect x="115.88" y="51.45" width="5.37" height="5.37" fill="#457bf9"/><rect x="115.88" y="46.08" width="5.37" height="5.37" fill="#457bf9"/><rect x="115.88" y="40.71" width="5.37" height="5.37" fill="#06def5"/><rect x="115.88" y="35.35" width="5.37" height="5.37" fill="#46abf7"/><rect x="115.88" y="29.98" width="5.37" height="5.37" fill="#06def5"/><rect x="115.88" y="24.61" width="5.37" height="5.37" fill="#06def5"/><rect x="115.88" y="19.24" width="5.37" height="5.37" fill="#1b0003"/><rect x="110.51" y="67.56" width="5.37" height="5.37" fill="#457bf9"/><rect x="110.51" y="62.19" width="5.37" height="5.37" fill="#06def5"/><rect x="110.51" y="56.82" width="5.37" height="5.37" fill="#457bf9"/><rect x="110.51" y="51.45" width="5.37" height="5.37" fill="#46abf7"/><rect x="110.51" y="46.08" width="5.37" height="5.37" fill="#457bf9"/><rect x="110.51" y="40.71" width="5.37" height="5.37" fill="#06def5"/><rect x="110.51" y="35.35" width="5.37" height="5.37" fill="#46abf7"/><rect x="110.51" y="29.98" width="5.37" height="5.37" fill="#46abf7"/><rect x="110.51" y="24.61" width="5.37" height="5.37" fill="#06def5"/><rect x="110.51" y="19.24" width="5.37" height="5.37" fill="#06def5"/><rect x="110.51" y="13.87" width="5.37" height="5.37" fill="#1b0003"/><rect x="105.14" y="72.93" width="5.37" height="5.37" fill="#457bf9"/><rect x="105.14" y="67.56" width="5.37" height="5.37" fill="#06def5"/><rect x="105.14" y="62.19" width="5.37" height="5.37" fill="#457bf9"/><rect x="105.14" y="56.82" width="5.37" height="5.37" fill="#46abf7"/><rect x="105.14" y="51.45" width="5.37" height="5.37" fill="#46abf7"/><rect x="105.14" y="46.08" width="5.37" height="5.37" fill="#457bf9"/><rect x="105.14" y="40.71" width="5.37" height="5.37" fill="#06def5"/><rect x="105.14" y="35.35" width="5.37" height="5.37" fill="#46abf7"/><rect x="105.14" y="29.98" width="5.37" height="5.37" fill="#46abf7"/><rect x="105.14" y="24.61" width="5.37" height="5.37" fill="#06def5"/><rect x="105.14" y="19.24" width="5.37" height="5.37" fill="#06def5"/><rect x="105.14" y="13.87" width="5.37" height="5.37" fill="#06def5"/><rect x="105.14" y="8.5" width="5.37" height="5.37" fill="#1b0003"/><rect x="99.77" y="78.3" width="5.37" height="5.37" fill="#457bf9"/><rect x="99.77" y="72.93" width="5.37" height="5.37" fill="#06def5"/><rect x="99.77" y="67.56" width="5.37" height="5.37" fill="#457bf9"/><rect x="99.77" y="62.19" width="5.37" height="5.37" fill="#46abf7"/><rect x="99.77" y="56.82" width="5.37" height="5.37" fill="#46abf7"/><rect x="99.77" y="51.45" width="5.37" height="5.37" fill="#46abf7"/><rect x="99.77" y="46.08" width="5.37" height="5.37" fill="#457bf9"/><rect x="99.77" y="40.71" width="5.37" height="5.37" fill="#06def5"/><rect x="99.77" y="35.35" width="5.37" height="5.37" fill="#46abf7"/><rect x="99.77" y="29.98" width="5.37" height="5.37" fill="#46abf7"/><rect x="99.77" y="24.61" width="5.37" height="5.37" fill="#46abf7"/><rect x="99.77" y="19.24" width="5.37" height="5.37" fill="#06def5"/><rect x="99.77" y="13.87" width="5.37" height="5.37" fill="#06def5"/><rect x="99.77" y="8.5" width="5.37" height="5.37" fill="#1b0003"/><rect x="94.4" y="83.67" width="5.37" height="5.37" fill="#457bf9"/><rect x="94.4" y="78.3" width="5.37" height="5.37" fill="#06def5"/><rect x="94.4" y="72.93" width="5.37" height="5.37" fill="#457bf9"/><rect x="94.4" y="67.56" width="5.37" height="5.37" fill="#46abf7"/><rect x="94.4" y="62.19" width="5.37" height="5.37" fill="#46abf7"/><rect x="94.4" y="56.82" width="5.37" height="5.37" fill="#46abf7"/><rect x="94.4" y="51.45" width="5.37" height="5.37" fill="#46abf7"/><rect x="94.4" y="46.08" width="5.37" height="5.37" fill="#457bf9"/><rect x="94.4" y="40.71" width="5.37" height="5.37" fill="#06def5"/><rect x="94.4" y="35.35" width="5.37" height="5.37" fill="#46abf7"/><rect x="94.4" y="29.98" width="5.37" height="5.37" fill="#46abf7"/><rect x="94.4" y="24.61" width="5.37" height="5.37" fill="#46abf7"/><rect x="94.4" y="19.24" width="5.37" height="5.37" fill="#46abf7"/><rect x="94.4" y="13.87" width="5.37" height="5.37" fill="#06def5"/><rect x="94.4" y="8.5" width="5.37" height="5.37" fill="#1b0003"/><rect x="89.04" y="89.04" width="5.37" height="5.37" fill="#1b0003"/><rect x="89.04" y="83.67" width="5.37" height="5.37" fill="#06def5"/><rect x="89.04" y="78.3" width="5.37" height="5.37" fill="#457bf9"/><rect x="89.04" y="72.93" width="5.37" height="5.37" fill="#46abf7"/><rect x="89.04" y="67.56" width="5.37" height="5.37" fill="#46abf7"/><rect x="89.04" y="62.19" width="5.37" height="5.37" fill="#46abf7"/><rect x="89.04" y="56.82" width="5.37" height="5.37" fill="#46abf7"/><rect x="89.04" y="51.45" width="5.37" height="5.37" fill="#457bf9"/><rect x="89.04" y="46.08" width="5.37" height="5.37" fill="#457bf9"/><rect x="89.04" y="40.71" width="5.37" height="5.37" fill="#06def5"/><rect x="89.04" y="35.35" width="5.37" height="5.37" fill="#46abf7"/><rect x="89.04" y="29.98" width="5.37" height="5.37" fill="#46abf7"/><rect x="89.04" y="24.61" width="5.37" height="5.37" fill="#46abf7"/><rect x="89.04" y="19.24" width="5.37" height="5.37" fill="#46abf7"/><rect x="89.04" y="13.87" width="5.37" height="5.37" fill="#06def5"/><rect x="89.04" y="8.5" width="5.37" height="5.37" fill="#1b0003"/><rect x="83.67" y="94.4" width="5.37" height="5.37" fill="#1b0003"/><rect x="83.67" y="89.04" width="5.37" height="5.37" fill="#06def5"/><rect x="83.67" y="83.67" width="5.37" height="5.37" fill="#457bf9"/><rect x="83.67" y="78.3" width="5.37" height="5.37" fill="#46abf7"/><rect x="83.67" y="72.93" width="5.37" height="5.37" fill="#46abf7"/><rect x="83.67" y="67.56" width="5.37" height="5.37" fill="#46abf7"/><rect x="83.67" y="62.19" width="5.37" height="5.37" fill="#46abf7"/><rect x="83.67" y="56.82" width="5.37" height="5.37" fill="#46abf7"/><rect x="83.67" y="51.45" width="5.37" height="5.37" fill="#457bf9"/><rect x="83.67" y="46.08" width="5.37" height="5.37" fill="#91fee7"/><rect x="83.67" y="40.71" width="5.37" height="5.37" fill="#06def5"/><rect x="83.67" y="35.35" width="5.37" height="5.37" fill="#46abf7"/><rect x="83.67" y="29.98" width="5.37" height="5.37" fill="#46abf7"/><rect x="83.67" y="24.61" width="5.37" height="5.37" fill="#46abf7"/><rect x="83.67" y="19.24" width="5.37" height="5.37" fill="#06def5"/><rect x="83.67" y="13.87" width="5.37" height="5.37" fill="#06def5"/><rect x="83.67" y="8.5" width="5.37" height="5.37" fill="#1b0003"/><rect x="78.3" y="99.77" width="5.37" height="5.37" fill="#1b0003"/><rect x="78.3" y="94.4" width="5.37" height="5.37" fill="#06def5"/><rect x="78.3" y="89.04" width="5.37" height="5.37" fill="#457bf9"/><rect x="78.3" y="83.67" width="5.37" height="5.37" fill="#457bf9"/><rect x="78.3" y="78.3" width="5.37" height="5.37" fill="#46abf7"/><rect x="78.3" y="72.93" width="5.37" height="5.37" fill="#46abf7"/><rect x="78.3" y="67.56" width="5.37" height="5.37" fill="#46abf7"/><rect x="78.3" y="62.19" width="5.37" height="5.37" fill="#46abf7"/><rect x="78.3" y="56.82" width="5.37" height="5.37" fill="#457bf9"/><rect x="78.3" y="51.45" width="5.37" height="5.37" fill="#457bf9"/><rect x="78.3" y="46.08" width="5.37" height="5.37" fill="#06def5"/><rect x="78.3" y="40.71" width="5.37" height="5.37" fill="#06def5"/><rect x="78.3" y="35.35" width="5.37" height="5.37" fill="#46abf7"/><rect x="78.3" y="29.98" width="5.37" height="5.37" fill="#06def5"/><rect x="78.3" y="24.61" width="5.37" height="5.37" fill="#06def5"/><rect x="78.3" y="19.24" width="5.37" height="5.37" fill="#06def5"/><rect x="78.3" y="13.87" width="5.37" height="5.37" fill="#06def5"/><rect x="78.3" y="8.5" width="5.37" height="5.37" fill="#1b0003"/><rect x="72.93" y="105.14" width="5.37" height="5.37" fill="#1b0003"/><rect x="72.93" y="99.77" width="5.37" height="5.37" fill="#06def5"/><rect x="72.93" y="94.4" width="5.37" height="5.37" fill="#06def5"/><rect x="72.93" y="89.04" width="5.37" height="5.37" fill="#457bf9"/><rect x="72.93" y="83.67" width="5.37" height="5.37" fill="#46abf7"/><rect x="72.93" y="78.3" width="5.37" height="5.37" fill="#46abf7"/><rect x="72.93" y="72.93" width="5.37" height="5.37" fill="#46abf7"/><rect x="72.93" y="67.56" width="5.37" height="5.37" fill="#46abf7"/><rect x="72.93" y="62.19" width="5.37" height="5.37" fill="#457bf9"/><rect x="72.93" y="56.82" width="5.37" height="5.37" fill="#457bf9"/><rect x="72.93" y="51.45" width="5.37" height="5.37" fill="#91fee7"/><rect x="72.93" y="46.08" width="5.37" height="5.37" fill="#06def5"/><rect x="72.93" y="40.71" width="5.37" height="5.37" fill="#06def5"/><rect x="72.93" y="35.35" width="5.37" height="5.37" fill="#06def5"/><rect x="72.93" y="29.98" width="5.37" height="5.37" fill="#06def5"/><rect x="72.93" y="24.61" width="5.37" height="5.37" fill="#06def5"/><rect x="72.93" y="19.24" width="5.37" height="5.37" fill="#91fee7"/><rect x="72.93" y="13.87" width="5.37" height="5.37" fill="#06def5"/><rect x="72.93" y="8.5" width="5.37" height="5.37" fill="#1b0003"/><rect x="67.56" y="105.14" width="5.37" height="5.37" fill="#1b0003"/><rect x="67.56" y="99.77" width="5.37" height="5.37" fill="#46abf7"/><rect x="67.56" y="94.4" width="5.37" height="5.37" fill="#457bf9"/><rect x="67.56" y="89.04" width="5.37" height="5.37" fill="#457bf9"/><rect x="67.56" y="83.67" width="5.37" height="5.37" fill="#457bf9"/><rect x="67.56" y="78.3" width="5.37" height="5.37" fill="#457bf9"/><rect x="67.56" y="72.93" width="5.37" height="5.37" fill="#457bf9"/><rect x="67.56" y="67.56" width="5.37" height="5.37" fill="#457bf9"/><rect x="67.56" y="62.19" width="5.37" height="5.37" fill="#457bf9"/><rect x="67.56" y="56.82" width="5.37" height="5.37" fill="#91fee7"/><rect x="67.56" y="51.45" width="5.37" height="5.37" fill="#06def5"/><rect x="67.56" y="46.08" width="5.37" height="5.37" fill="#06def5"/><rect x="67.56" y="40.71" width="5.37" height="5.37" fill="#06def5"/><rect x="67.56" y="35.35" width="5.37" height="5.37" fill="#91fee7"/><rect x="67.56" y="29.98" width="5.37" height="5.37" fill="#91fee7"/><rect x="67.56" y="24.61" width="5.37" height="5.37" fill="#a4f8d7"/><rect x="67.56" y="19.24" width="5.37" height="5.37" fill="#a4f8d7"/><rect x="67.56" y="13.87" width="5.37" height="5.37" fill="#a4f8d7"/><rect x="67.56" y="8.5" width="5.37" height="5.37" fill="#1b0003"/><rect x="62.19" y="105.14" width="5.37" height="5.37" fill="#1b0003"/><rect x="62.19" y="99.77" width="5.37" height="5.37" fill="#06def5"/><rect x="62.19" y="94.4" width="5.37" height="5.37" fill="#91fee7"/><rect x="62.19" y="89.04" width="5.37" height="5.37" fill="#91fee7"/><rect x="62.19" y="83.67" width="5.37" height="5.37" fill="#91fee7"/><rect x="62.19" y="78.3" width="5.37" height="5.37" fill="#91fee7"/><rect x="62.19" y="72.93" width="5.37" height="5.37" fill="#91fee7"/><rect x="62.19" y="67.56" width="5.37" height="5.37" fill="#91fee7"/><rect x="62.19" y="62.19" width="5.37" height="5.37" fill="#91fee7"/><rect x="62.19" y="56.82" width="5.37" height="5.37" fill="#91fee7"/><rect x="62.19" y="51.45" width="5.37" height="5.37" fill="#06def5"/><rect x="62.19" y="46.08" width="5.37" height="5.37" fill="#91fee7"/><rect x="62.19" y="40.71" width="5.37" height="5.37" fill="#91fee7"/><rect x="62.19" y="35.35" width="5.37" height="5.37" fill="#a4f8d7"/><rect x="62.19" y="29.98" width="5.37" height="5.37" fill="#a4f8d7"/><rect x="62.19" y="24.61" width="5.37" height="5.37" fill="#91fee7"/><rect x="62.19" y="19.24" width="5.37" height="5.37" fill="#a4f8d7"/><rect x="62.19" y="13.87" width="5.37" height="5.37" fill="#a4f8d7"/><rect x="62.19" y="8.5" width="5.37" height="5.37" fill="#1b0003"/><rect x="56.82" y="99.77" width="5.37" height="5.37" fill="#1b0003"/><rect x="56.82" y="94.4" width="5.37" height="5.37" fill="#06def5"/><rect x="56.82" y="89.04" width="5.37" height="5.37" fill="#46abf7"/><rect x="56.82" y="83.67" width="5.37" height="5.37" fill="#46abf7"/><rect x="56.82" y="78.3" width="5.37" height="5.37" fill="#46abf7"/><rect x="56.82" y="72.93" width="5.37" height="5.37" fill="#46abf7"/><rect x="56.82" y="67.56" width="5.37" height="5.37" fill="#46abf7"/><rect x="56.82" y="62.19" width="5.37" height="5.37" fill="#46abf7"/><rect x="56.82" y="56.82" width="5.37" height="5.37" fill="#f2fefe"/><rect x="56.82" y="51.45" width="5.37" height="5.37" fill="#91fee7"/><rect x="56.82" y="46.08" width="5.37" height="5.37" fill="#91fee7"/><rect x="56.82" y="40.71" width="5.37" height="5.37" fill="#f2fefe"/><rect x="56.82" y="35.35" width="5.37" height="5.37" fill="#f2fefe"/><rect x="56.82" y="29.98" width="5.37" height="5.37" fill="#a4f8d7"/><rect x="56.82" y="24.61" width="5.37" height="5.37" fill="#a4f8d7"/><rect x="56.82" y="19.24" width="5.37" height="5.37" fill="#a4f8d7"/><rect x="56.82" y="13.87" width="5.37" height="5.37" fill="#a4f8d7"/><rect x="56.82" y="8.5" width="5.37" height="5.37" fill="#46abf7"/><rect x="51.45" y="94.4" width="5.37" height="5.37" fill="#1b0003"/><rect x="51.45" y="89.04" width="5.37" height="5.37" fill="#06def5"/><rect x="51.45" y="83.67" width="5.37" height="5.37" fill="#06def5"/><rect x="51.45" y="78.3" width="5.37" height="5.37" fill="#46abf7"/><rect x="51.45" y="72.93" width="5.37" height="5.37" fill="#46abf7"/><rect x="51.45" y="67.56" width="5.37" height="5.37" fill="#46abf7"/><rect x="51.45" y="62.19" width="5.37" height="5.37" fill="#46abf7"/><rect x="51.45" y="56.82" width="5.37" height="5.37" fill="#46abf7"/><rect x="51.45" y="51.45" width="5.37" height="5.37" fill="#f2fefe"/><rect x="51.45" y="46.08" width="5.37" height="5.37" fill="#91fee7"/><rect x="51.45" y="40.71" width="5.37" height="5.37" fill="#a4f8d7"/><rect x="51.45" y="35.35" width="5.37" height="5.37" fill="#f2fefe"/><rect x="51.45" y="29.98" width="5.37" height="5.37" fill="#f2fefe"/><rect x="51.45" y="24.61" width="5.37" height="5.37" fill="#a4f8d7"/><rect x="51.45" y="19.24" width="5.37" height="5.37" fill="#a4f8d7"/><rect x="51.45" y="13.87" width="5.37" height="5.37" fill="#91fee7"/><rect x="51.45" y="8.5" width="5.37" height="5.37" fill="#46abf7"/><rect x="46.08" y="89.04" width="5.37" height="5.37" fill="#1b0003"/><rect x="46.08" y="83.67" width="5.37" height="5.37" fill="#06def5"/><rect x="46.08" y="78.3" width="5.37" height="5.37" fill="#46abf7"/><rect x="46.08" y="72.93" width="5.37" height="5.37" fill="#46abf7"/><rect x="46.08" y="67.56" width="5.37" height="5.37" fill="#46abf7"/><rect x="46.08" y="62.19" width="5.37" height="5.37" fill="#46abf7"/><rect x="46.08" y="56.82" width="5.37" height="5.37" fill="#46abf7"/><rect x="46.08" y="51.45" width="5.37" height="5.37" fill="#f2fefe"/><rect x="46.08" y="46.08" width="5.37" height="5.37" fill="#91fee7"/><rect x="46.08" y="40.71" width="5.37" height="5.37" fill="#a4f8d7"/><rect x="46.08" y="35.35" width="5.37" height="5.37" fill="#f2fefe"/><rect x="46.08" y="29.98" width="5.37" height="5.37" fill="#f2fefe"/><rect x="46.08" y="24.61" width="5.37" height="5.37" fill="#f2fefe"/><rect x="46.08" y="19.24" width="5.37" height="5.37" fill="#f2fefe"/><rect x="46.08" y="13.87" width="5.37" height="5.37" fill="#91fee7"/><rect x="46.08" y="8.5" width="5.37" height="5.37" fill="#46abf7"/><rect x="40.71" y="83.67" width="5.37" height="5.37" fill="#1b0003"/><rect x="40.71" y="78.3" width="5.37" height="5.37" fill="#06def5"/><rect x="40.71" y="72.93" width="5.37" height="5.37" fill="#46abf7"/><rect x="40.71" y="67.56" width="5.37" height="5.37" fill="#46abf7"/><rect x="40.71" y="62.19" width="5.37" height="5.37" fill="#46abf7"/><rect x="40.71" y="56.82" width="5.37" height="5.37" fill="#46abf7"/><rect x="40.71" y="51.45" width="5.37" height="5.37" fill="#46abf7"/><rect x="40.71" y="46.08" width="5.37" height="5.37" fill="#f2fefe"/><rect x="40.71" y="40.71" width="5.37" height="5.37" fill="#a4f8d7"/><rect x="40.71" y="35.35" width="5.37" height="5.37" fill="#f2fefe"/><rect x="40.71" y="29.98" width="5.37" height="5.37" fill="#f2fefe"/><rect x="40.71" y="24.61" width="5.37" height="5.37" fill="#f2fefe"/><rect x="40.71" y="19.24" width="5.37" height="5.37" fill="#f2fefe"/><rect x="40.71" y="13.87" width="5.37" height="5.37" fill="#91fee7"/><rect x="40.71" y="8.5" width="5.37" height="5.37" fill="#46abf7"/><rect x="35.35" y="78.3" width="5.37" height="5.37" fill="#1b0003"/><rect x="35.35" y="72.93" width="5.37" height="5.37" fill="#06def5"/><rect x="35.35" y="67.56" width="5.37" height="5.37" fill="#46abf7"/><rect x="35.35" y="62.19" width="5.37" height="5.37" fill="#46abf7"/><rect x="35.35" y="56.82" width="5.37" height="5.37" fill="#46abf7"/><rect x="35.35" y="51.45" width="5.37" height="5.37" fill="#46abf7"/><rect x="35.35" y="46.08" width="5.37" height="5.37" fill="#f2fefe"/><rect x="35.35" y="40.71" width="5.37" height="5.37" fill="#a4f8d7"/><rect x="35.35" y="35.35" width="5.37" height="5.37" fill="#f2fefe"/><rect x="35.35" y="29.98" width="5.37" height="5.37" fill="#f2fefe"/><rect x="35.35" y="24.61" width="5.37" height="5.37" fill="#f2fefe"/><rect x="35.35" y="19.24" width="5.37" height="5.37" fill="#f2fefe"/><rect x="35.35" y="13.87" width="5.37" height="5.37" fill="#91fee7"/><rect x="35.35" y="8.5" width="5.37" height="5.37" fill="#46abf7"/><rect x="29.98" y="72.93" width="5.37" height="5.37" fill="#1b0003"/><rect x="29.98" y="67.56" width="5.37" height="5.37" fill="#46abf7"/><rect x="29.98" y="62.19" width="5.37" height="5.37" fill="#46abf7"/><rect x="29.98" y="56.82" width="5.37" height="5.37" fill="#46abf7"/><rect x="29.98" y="51.45" width="5.37" height="5.37" fill="#46abf7"/><rect x="29.98" y="46.08" width="5.37" height="5.37" fill="#f2fefe"/><rect x="29.98" y="40.71" width="5.37" height="5.37" fill="#a4f8d7"/><rect x="29.98" y="35.35" width="5.37" height="5.37" fill="#a4f8d7"/><rect x="29.98" y="29.98" width="5.37" height="5.37" fill="#f2fefe"/><rect x="29.98" y="24.61" width="5.37" height="5.37" fill="#f2fefe"/><rect x="29.98" y="19.24" width="5.37" height="5.37" fill="#91fee7"/><rect x="29.98" y="13.87" width="5.37" height="5.37" fill="#91fee7"/><rect x="29.98" y="8.5" width="5.37" height="5.37" fill="#06def5"/><rect x="24.61" y="67.56" width="5.37" height="5.37" fill="#1b0003"/><rect x="24.61" y="62.19" width="5.37" height="5.37" fill="#46abf7"/><rect x="24.61" y="56.82" width="5.37" height="5.37" fill="#46abf7"/><rect x="24.61" y="51.45" width="5.37" height="5.37" fill="#46abf7"/><rect x="24.61" y="46.08" width="5.37" height="5.37" fill="#f2fefe"/><rect x="24.61" y="40.71" width="5.37" height="5.37" fill="#a4f8d7"/><rect x="24.61" y="35.35" width="5.37" height="5.37" fill="#f2fefe"/><rect x="24.61" y="29.98" width="5.37" height="5.37" fill="#f2fefe"/><rect x="24.61" y="24.61" width="5.37" height="5.37" fill="#91fee7"/><rect x="24.61" y="19.24" width="5.37" height="5.37" fill="#91fee7"/><rect x="24.61" y="13.87" width="5.37" height="5.37" fill="#46abf7"/><rect x="19.24" y="62.19" width="5.37" height="5.37" fill="#1b0003"/><rect x="19.24" y="56.82" width="5.37" height="5.37" fill="#46abf7"/><rect x="19.24" y="51.45" width="5.37" height="5.37" fill="#46abf7"/><rect x="19.24" y="46.08" width="5.37" height="5.37" fill="#f2fefe"/><rect x="19.24" y="40.71" width="5.37" height="5.37" fill="#f2fefe"/><rect x="19.24" y="35.35" width="5.37" height="5.37" fill="#f2fefe"/><rect x="19.24" y="29.98" width="5.37" height="5.37" fill="#91fee7"/><rect x="19.24" y="24.61" width="5.37" height="5.37" fill="#91fee7"/><rect x="19.24" y="19.24" width="5.37" height="5.37" fill="#06def5"/><rect x="13.87" y="56.82" width="5.37" height="5.37" fill="#457bf9"/><rect x="13.87" y="51.45" width="5.37" height="5.37" fill="#46abf7"/><rect x="13.87" y="46.08" width="5.37" height="5.37" fill="#91fee7"/><rect x="13.87" y="40.71" width="5.37" height="5.37" fill="#a4f8d7"/><rect x="13.87" y="35.35" width="5.37" height="5.37" fill="#a4f8d7"/><rect x="13.87" y="29.98" width="5.37" height="5.37" fill="#91fee7"/><rect x="13.87" y="24.61" width="5.37" height="5.37" fill="#06def5"/><rect x="8.5" y="51.45" width="5.37" height="5.37" fill="#457bf9"/><rect x="8.5" y="46.08" width="5.37" height="5.37" fill="#457bf9"/><rect x="8.5" y="40.71" width="5.37" height="5.37" fill="#46abf7"/><rect x="8.5" y="35.35" width="5.37" height="5.37" fill="#06def5"/><rect x="8.5" y="29.98" width="5.37" height="5.37" fill="#06def5"/></g></g></g></g></svg>