<svg xmlns="http://www.w3.org/2000/svg" width="94.71" height="156.89" viewBox="0 0 94.71 156.89"><g id="Layer_2" data-name="Layer 2"><g id="items"><g id="Exclamation_Mark" data-name="Exclamation Mark"><path d="M0,0V37.72H5.18V53.27h5.18V68.81h5.18V84.35h5.18V94.71H25.9v10.37h5.19v14.08H25.9v32.55h5.19v5.18H63.63v-5.18h5.18V119.16H63.63V105.08h5.18V94.71H74V84.35h5.18V68.81h5.18V53.27h5.18V37.72h5.18V0ZM77.71,20.72H72.53V36.27H67.35V51.81H62.17V67.35H57V77.71H51.81V88.08H42.9V77.71H37.72V67.35H32.54V51.81H27.36V36.27H22.18V20.72H17V17H77.71Z" fill="#fff"/><g id="Exclamation_Mark-2" data-name="Exclamation Mark"><rect x="81.03" y="24.04" width="5.18" height="5.18" fill="#1b0003"/><rect x="81.03" y="18.86" width="5.18" height="5.18" fill="#1b0003"/><rect x="81.03" y="13.68" width="5.18" height="5.18" fill="#1b0003"/><rect x="81.03" y="8.5" width="5.18" height="5.18" fill="#1b0003"/><rect x="75.85" y="39.59" width="5.18" height="5.18" fill="#1b0003"/><rect x="75.85" y="34.4" width="5.18" height="5.18" fill="#1b0003"/><rect x="75.85" y="29.22" width="5.18" height="5.18" fill="#1b0003"/><rect x="75.85" y="24.04" width="5.18" height="5.18" fill="#d84b13"/><rect x="75.85" y="18.86" width="5.18" height="5.18" fill="#d84b13"/><rect x="75.85" y="13.68" width="5.18" height="5.18" fill="#d84b13"/><rect x="75.85" y="8.5" width="5.18" height="5.18" fill="#1b0003"/><rect x="70.67" y="55.13" width="5.18" height="5.18" fill="#1b0003"/><rect x="70.67" y="49.95" width="5.18" height="5.18" fill="#1b0003"/><rect x="70.67" y="44.77" width="5.18" height="5.18" fill="#1b0003"/><rect x="70.67" y="39.59" width="5.18" height="5.18" fill="#d84b13"/><rect x="70.67" y="34.4" width="5.18" height="5.18" fill="#d84b13"/><rect x="70.67" y="29.22" width="5.18" height="5.18" fill="#d84b13"/><rect x="70.67" y="24.04" width="5.18" height="5.18" fill="#d84b13"/><rect x="70.67" y="18.86" width="5.18" height="5.18" fill="#db6d12"/><rect x="70.67" y="13.68" width="5.18" height="5.18" fill="#db6d12"/><rect x="70.67" y="8.5" width="5.18" height="5.18" fill="#1b0003"/><rect x="65.49" y="70.67" width="5.18" height="5.18" fill="#1b0003"/><rect x="65.49" y="65.49" width="5.18" height="5.18" fill="#1b0003"/><rect x="65.49" y="60.31" width="5.18" height="5.18" fill="#1b0003"/><rect x="65.49" y="55.13" width="5.18" height="5.18" fill="#d84b13"/><rect x="65.49" y="49.95" width="5.18" height="5.18" fill="#d84b13"/><rect x="65.49" y="44.77" width="5.18" height="5.18" fill="#d84b13"/><rect x="65.49" y="39.59" width="5.18" height="5.18" fill="#d84b13"/><rect x="65.49" y="34.4" width="5.18" height="5.18" fill="#db6d12"/><rect x="65.49" y="29.22" width="5.18" height="5.18" fill="#db6d12"/><rect x="65.49" y="24.04" width="5.18" height="5.18" fill="#db6d12"/><rect x="65.49" y="18.86" width="5.18" height="5.18" fill="#db6d12"/><rect x="65.49" y="13.68" width="5.18" height="5.18" fill="#db6d12"/><rect x="65.49" y="8.5" width="5.18" height="5.18" fill="#1b0003"/><rect x="60.31" y="81.03" width="5.18" height="5.18" fill="#1b0003"/><rect x="60.31" y="75.85" width="5.18" height="5.18" fill="#1b0003"/><rect x="60.31" y="70.67" width="5.18" height="5.18" fill="#d84b13"/><rect x="60.31" y="65.49" width="5.18" height="5.18" fill="#d84b13"/><rect x="60.31" y="60.31" width="5.18" height="5.18" fill="#d84b13"/><rect x="60.31" y="55.13" width="5.18" height="5.18" fill="#d84b13"/><rect x="60.31" y="49.95" width="5.18" height="5.18" fill="#db6d12"/><rect x="60.31" y="44.77" width="5.18" height="5.18" fill="#db6d12"/><rect x="60.31" y="39.59" width="5.18" height="5.18" fill="#db6d12"/><rect x="60.31" y="34.4" width="5.18" height="5.18" fill="#db6d12"/><rect x="60.31" y="29.22" width="5.18" height="5.18" fill="#db6d12"/><rect x="60.31" y="24.04" width="5.18" height="5.18" fill="#db6d12"/><rect x="60.31" y="18.86" width="5.18" height="5.18" fill="#db6d12"/><rect x="60.31" y="13.68" width="5.18" height="5.18" fill="#db6d12"/><rect x="60.31" y="8.5" width="5.18" height="5.18" fill="#1b0003"/><rect x="55.13" y="138.02" width="5.18" height="5.18" fill="#1b0003"/><rect x="55.13" y="132.84" width="5.18" height="5.18" fill="#1b0003"/><rect x="55.13" y="127.66" width="5.18" height="5.18" fill="#1b0003"/><rect x="55.13" y="91.4" width="5.18" height="5.18" fill="#1b0003"/><rect x="55.13" y="86.21" width="5.18" height="5.18" fill="#1b0003"/><rect x="55.13" y="81.03" width="5.18" height="5.18" fill="#d84b13"/><rect x="55.13" y="75.85" width="5.18" height="5.18" fill="#d84b13"/><rect x="55.13" y="70.67" width="5.18" height="5.18" fill="#d84b13"/><rect x="55.13" y="65.49" width="5.18" height="5.18" fill="#db6d12"/><rect x="55.13" y="60.31" width="5.18" height="5.18" fill="#db6d12"/><rect x="55.13" y="55.13" width="5.18" height="5.18" fill="#db6d12"/><rect x="55.13" y="49.95" width="5.18" height="5.18" fill="#db6d12"/><rect x="55.13" y="44.77" width="5.18" height="5.18" fill="#db6d12"/><rect x="55.13" y="39.59" width="5.18" height="5.18" fill="#db6d12"/><rect x="55.13" y="34.4" width="5.18" height="5.18" fill="#db6d12"/><rect x="55.13" y="29.22" width="5.18" height="5.18" fill="#f7c45e"/><rect x="55.13" y="24.04" width="5.18" height="5.18" fill="#f7c45e"/><rect x="55.13" y="18.86" width="5.18" height="5.18" fill="#f7c45e"/><rect x="55.13" y="13.68" width="5.18" height="5.18" fill="#f7c45e"/><rect x="55.13" y="8.5" width="5.18" height="5.18" fill="#1b0003"/><rect x="49.95" y="143.21" width="5.18" height="5.18" fill="#1b0003"/><rect x="49.95" y="138.02" width="5.18" height="5.18" fill="#d84b13"/><rect x="49.95" y="132.84" width="5.18" height="5.18" fill="#d84b13"/><rect x="49.95" y="127.66" width="5.18" height="5.18" fill="#db6d12"/><rect x="49.95" y="122.48" width="5.18" height="5.18" fill="#1b0003"/><rect x="49.95" y="101.76" width="5.18" height="5.18" fill="#1b0003"/><rect x="49.95" y="96.58" width="5.18" height="5.18" fill="#1b0003"/><rect x="49.95" y="91.4" width="5.18" height="5.18" fill="#d84b13"/><rect x="49.95" y="86.21" width="5.18" height="5.18" fill="#d84b13"/><rect x="49.95" y="81.03" width="5.18" height="5.18" fill="#d84b13"/><rect x="49.95" y="75.85" width="5.18" height="5.18" fill="#d84b13"/><rect x="49.95" y="70.67" width="5.18" height="5.18" fill="#db6d12"/><rect x="49.95" y="65.49" width="5.18" height="5.18" fill="#db6d12"/><rect x="49.95" y="60.31" width="5.18" height="5.18" fill="#db6d12"/><rect x="49.95" y="55.13" width="5.18" height="5.18" fill="#db6d12"/><rect x="49.95" y="49.95" width="5.18" height="5.18" fill="#db6d12"/><rect x="49.95" y="44.77" width="5.18" height="5.18" fill="#f7c45e"/><rect x="49.95" y="39.59" width="5.18" height="5.18" fill="#f7c45e"/><rect x="49.95" y="34.4" width="5.18" height="5.18" fill="#f7c45e"/><rect x="49.95" y="29.22" width="5.18" height="5.18" fill="#f7c45e"/><rect x="49.95" y="24.04" width="5.18" height="5.18" fill="#f7c45e"/><rect x="49.95" y="18.86" width="5.18" height="5.18" fill="#f7c45e"/><rect x="49.95" y="13.68" width="5.18" height="5.18" fill="#f7c45e"/><rect x="49.95" y="8.5" width="5.18" height="5.18" fill="#1b0003"/><rect x="44.77" y="143.21" width="5.18" height="5.18" fill="#1b0003"/><rect x="44.77" y="138.02" width="5.18" height="5.18" fill="#d84b13"/><rect x="44.77" y="132.84" width="5.18" height="5.18" fill="#db6d12"/><rect x="44.77" y="127.66" width="5.18" height="5.18" fill="#f7c45e"/><rect x="44.77" y="122.48" width="5.18" height="5.18" fill="#1b0003"/><rect x="44.77" y="106.94" width="5.18" height="5.18" fill="#1b0003"/><rect x="44.77" y="101.76" width="5.18" height="5.18" fill="#d84b13"/><rect x="44.77" y="96.58" width="5.18" height="5.18" fill="#d84b13"/><rect x="44.77" y="91.4" width="5.18" height="5.18" fill="#d84b13"/><rect x="44.77" y="86.21" width="5.18" height="5.18" fill="#db6d12"/><rect x="44.77" y="81.03" width="5.18" height="5.18" fill="#d84b13"/><rect x="44.77" y="75.85" width="5.18" height="5.18" fill="#db6d12"/><rect x="44.77" y="70.67" width="5.18" height="5.18" fill="#db6d12"/><rect x="44.77" y="65.49" width="5.18" height="5.18" fill="#db6d12"/><rect x="44.77" y="60.31" width="5.18" height="5.18" fill="#db6d12"/><rect x="44.77" y="55.13" width="5.18" height="5.18" fill="#f7c45e"/><rect x="44.77" y="49.95" width="5.18" height="5.18" fill="#f7c45e"/><rect x="44.77" y="44.77" width="5.18" height="5.18" fill="#f7c45e"/><rect x="44.77" y="39.59" width="5.18" height="5.18" fill="#f7c45e"/><rect x="44.77" y="34.4" width="5.18" height="5.18" fill="#f7c45e"/><rect x="44.77" y="29.22" width="5.18" height="5.18" fill="#f7c45e"/><rect x="44.77" y="24.04" width="5.18" height="5.18" fill="#f7c45e"/><rect x="44.77" y="18.86" width="5.18" height="5.18" fill="#f7c45e"/><rect x="44.77" y="13.68" width="5.18" height="5.18" fill="#f7c45e"/><rect x="44.77" y="8.5" width="5.18" height="5.18" fill="#1b0003"/><rect x="39.59" y="143.21" width="5.18" height="5.18" fill="#1b0003"/><rect x="39.59" y="138.02" width="5.18" height="5.18" fill="#db6d12"/><rect x="39.59" y="132.84" width="5.18" height="5.18" fill="#f7c45e"/><rect x="39.59" y="127.66" width="5.18" height="5.18" fill="#f9f2d4"/><rect x="39.59" y="122.48" width="5.18" height="5.18" fill="#1b0003"/><rect x="39.59" y="101.76" width="5.18" height="5.18" fill="#1b0003"/><rect x="39.59" y="96.58" width="5.18" height="5.18" fill="#1b0003"/><rect x="39.59" y="91.4" width="5.18" height="5.18" fill="#db6d12"/><rect x="39.59" y="86.21" width="5.18" height="5.18" fill="#d84b13"/><rect x="39.59" y="81.03" width="5.18" height="5.18" fill="#db6d12"/><rect x="39.59" y="75.85" width="5.18" height="5.18" fill="#db6d12"/><rect x="39.59" y="70.67" width="5.18" height="5.18" fill="#f7c45e"/><rect x="39.59" y="65.49" width="5.18" height="5.18" fill="#db6d12"/><rect x="39.59" y="60.31" width="5.18" height="5.18" fill="#f7c45e"/><rect x="39.59" y="55.13" width="5.18" height="5.18" fill="#f7c45e"/><rect x="39.59" y="49.95" width="5.18" height="5.18" fill="#f7c45e"/><rect x="39.59" y="44.77" width="5.18" height="5.18" fill="#f7c45e"/><rect x="39.59" y="39.59" width="5.18" height="5.18" fill="#f7c45e"/><rect x="39.59" y="34.4" width="5.18" height="5.18" fill="#f7c45e"/><rect x="39.59" y="29.22" width="5.18" height="5.18" fill="#f7c45e"/><rect x="39.59" y="24.04" width="5.18" height="5.18" fill="#f7c45e"/><rect x="39.59" y="18.86" width="5.18" height="5.18" fill="#f7c45e"/><rect x="39.59" y="13.68" width="5.18" height="5.18" fill="#f9f2d4"/><rect x="39.59" y="8.5" width="5.18" height="5.18" fill="#1b0003"/><rect x="34.41" y="138.02" width="5.18" height="5.18" fill="#1b0003"/><rect x="34.41" y="132.84" width="5.18" height="5.18" fill="#1b0003"/><rect x="34.41" y="127.66" width="5.18" height="5.18" fill="#1b0003"/><rect x="34.41" y="91.4" width="5.18" height="5.18" fill="#1b0003"/><rect x="34.41" y="86.21" width="5.18" height="5.18" fill="#1b0003"/><rect x="34.41" y="81.03" width="5.18" height="5.18" fill="#db6d12"/><rect x="34.41" y="75.85" width="5.18" height="5.18" fill="#f7c45e"/><rect x="34.41" y="70.67" width="5.18" height="5.18" fill="#db6d12"/><rect x="34.41" y="65.49" width="5.18" height="5.18" fill="#f7c45e"/><rect x="34.41" y="60.31" width="5.18" height="5.18" fill="#f7c45e"/><rect x="34.41" y="55.13" width="5.18" height="5.18" fill="#f7c45e"/><rect x="34.41" y="49.95" width="5.18" height="5.18" fill="#f7c45e"/><rect x="34.41" y="44.77" width="5.18" height="5.18" fill="#f7c45e"/><rect x="34.41" y="39.59" width="5.18" height="5.18" fill="#f7c45e"/><rect x="34.41" y="34.4" width="5.18" height="5.18" fill="#f7c45e"/><rect x="34.41" y="29.22" width="5.18" height="5.18" fill="#f7c45e"/><rect x="34.41" y="24.04" width="5.18" height="5.18" fill="#f7c45e"/><rect x="34.41" y="18.86" width="5.18" height="5.18" fill="#f9f2d4"/><rect x="34.41" y="13.68" width="5.18" height="5.18" fill="#f7c45e"/><rect x="34.41" y="8.5" width="5.18" height="5.18" fill="#1b0003"/><rect x="29.22" y="81.03" width="5.18" height="5.18" fill="#1b0003"/><rect x="29.22" y="75.85" width="5.18" height="5.18" fill="#1b0003"/><rect x="29.22" y="70.67" width="5.18" height="5.18" fill="#f7c45e"/><rect x="29.22" y="65.49" width="5.18" height="5.18" fill="#f7c45e"/><rect x="29.22" y="60.31" width="5.18" height="5.18" fill="#f7c45e"/><rect x="29.22" y="55.13" width="5.18" height="5.18" fill="#f7c45e"/><rect x="29.22" y="49.95" width="5.18" height="5.18" fill="#f7c45e"/><rect x="29.22" y="44.77" width="5.18" height="5.18" fill="#f7c45e"/><rect x="29.22" y="39.59" width="5.18" height="5.18" fill="#f7c45e"/><rect x="29.22" y="34.4" width="5.18" height="5.18" fill="#f7c45e"/><rect x="29.22" y="29.22" width="5.18" height="5.18" fill="#f7c45e"/><rect x="29.22" y="24.04" width="5.18" height="5.18" fill="#f9f2d4"/><rect x="29.22" y="18.86" width="5.18" height="5.18" fill="#f7c45e"/><rect x="29.22" y="13.68" width="5.18" height="5.18" fill="#f9f2d4"/><rect x="29.22" y="8.5" width="5.18" height="5.18" fill="#1b0003"/><rect x="24.04" y="70.67" width="5.18" height="5.18" fill="#1b0003"/><rect x="24.04" y="65.49" width="5.18" height="5.18" fill="#1b0003"/><rect x="24.04" y="60.31" width="5.18" height="5.18" fill="#1b0003"/><rect x="24.04" y="55.13" width="5.18" height="5.18" fill="#f7c45e"/><rect x="24.04" y="49.95" width="5.18" height="5.18" fill="#f7c45e"/><rect x="24.04" y="44.77" width="5.18" height="5.18" fill="#f7c45e"/><rect x="24.04" y="39.59" width="5.18" height="5.18" fill="#f7c45e"/><rect x="24.04" y="34.4" width="5.18" height="5.18" fill="#f7c45e"/><rect x="24.04" y="29.22" width="5.18" height="5.18" fill="#f9f2d4"/><rect x="24.04" y="24.04" width="5.18" height="5.18" fill="#f7c45e"/><rect x="24.04" y="18.86" width="5.18" height="5.18" fill="#f9f2d4"/><rect x="24.04" y="13.68" width="5.18" height="5.18" fill="#f9f2d4"/><rect x="24.04" y="8.5" width="5.18" height="5.18" fill="#1b0003"/><rect x="18.86" y="55.13" width="5.18" height="5.18" fill="#1b0003"/><rect x="18.86" y="49.95" width="5.18" height="5.18" fill="#1b0003"/><rect x="18.86" y="44.77" width="5.18" height="5.18" fill="#1b0003"/><rect x="18.86" y="39.59" width="5.18" height="5.18" fill="#f7c45e"/><rect x="18.86" y="34.4" width="5.18" height="5.18" fill="#f9f2d4"/><rect x="18.86" y="29.22" width="5.18" height="5.18" fill="#f7c45e"/><rect x="18.86" y="24.04" width="5.18" height="5.18" fill="#f9f2d4"/><rect x="18.86" y="18.86" width="5.18" height="5.18" fill="#f9f2d4"/><rect x="18.86" y="13.68" width="5.18" height="5.18" fill="#f9f2d4"/><rect x="18.86" y="8.5" width="5.18" height="5.18" fill="#1b0003"/><rect x="13.68" y="39.59" width="5.18" height="5.18" fill="#1b0003"/><rect x="13.68" y="34.4" width="5.18" height="5.18" fill="#1b0003"/><rect x="13.68" y="29.22" width="5.18" height="5.18" fill="#1b0003"/><rect x="13.68" y="24.04" width="5.18" height="5.18" fill="#f9f2d4"/><rect x="13.68" y="18.86" width="5.18" height="5.18" fill="#f9f2d4"/><rect x="13.68" y="13.68" width="5.18" height="5.18" fill="#f9f2d4"/><rect x="13.68" y="8.5" width="5.18" height="5.18" fill="#1b0003"/><rect x="8.5" y="24.04" width="5.18" height="5.18" fill="#1b0003"/><rect x="8.5" y="18.86" width="5.18" height="5.18" fill="#1b0003"/><rect x="8.5" y="13.68" width="5.18" height="5.18" fill="#1b0003"/><rect x="8.5" y="8.5" width="5.18" height="5.18" fill="#1b0003"/></g></g></g></g></svg>