<svg xmlns="http://www.w3.org/2000/svg" width="172.6" height="143.78" viewBox="0 0 172.6 143.78"><g id="Layer_2" data-name="Layer 2"><g id="items"><g id="Fish"><path d="M166.84,23.05V11.53h-5.77V5.76h-5.76V0H109.5V5.76h-5.77v5.77H98v5.76H92.21V28.81H80.68v5.77H63.39v5.76H57.63V69.15H45.81V63.39H28.53V57.63H0V91.92H5.76v11.52h5.77V115h5.76V138h5.76v5.76H45.81V138h5.77V126.49h5.76V115H80.68v5.76h51.58V115h11.52v-5.76h5.77v-5.77h5.76V97.68h5.76V91.92h5.77V80.39h5.76V23.05ZM155.6,63.39h-5.76V74.92h-5.77v5.76h-5.76v5.76h-5.76v5.77h-5.77V98H115.26v5.76H97.68V98H80.39V92.21H46.1V98H40.34v11.52H34.58V121h-.29V98H28.53V86.44H22.76v-6h6v5.76H74.63V80.39H86.15V57.63H80.39V51.58H97.68V45.81h11.53V34.29H115V28.53h5.76V22.76h5.77V17h11.81v5.76h5.76v5.77h5.77V40.05h5.76Z" fill="#fff"/><g id="Fish-2" data-name="Fish"><rect x="158.34" y="66.13" width="5.76" height="5.76" fill="#1b0003"/><rect x="158.34" y="60.37" width="5.76" height="5.76" fill="#1b0003"/><rect x="158.34" y="54.6" width="5.76" height="5.76" fill="#1b0003"/><rect x="158.34" y="48.84" width="5.76" height="5.76" fill="#1b0003"/><rect x="158.34" y="43.08" width="5.76" height="5.76" fill="#1b0003"/><rect x="158.34" y="37.31" width="5.76" height="5.76" fill="#1b0003"/><rect x="158.34" y="31.55" width="5.76" height="5.76" fill="#1b0003"/><rect x="152.57" y="77.65" width="5.76" height="5.76" fill="#1b0003"/><rect x="152.57" y="71.89" width="5.76" height="5.76" fill="#1b0003"/><rect x="152.57" y="66.13" width="5.76" height="5.76" fill="#85a1c9"/><rect x="152.57" y="60.37" width="5.76" height="5.76" fill="#85a1c9"/><rect x="152.57" y="54.6" width="5.76" height="5.76" fill="#85a1c9"/><rect x="152.57" y="48.84" width="5.76" height="5.76" fill="#85a1c9"/><rect x="152.57" y="43.08" width="5.76" height="5.76" fill="#6a87af"/><rect x="152.57" y="37.31" width="5.76" height="5.76" fill="#6a87af"/><rect x="152.57" y="31.55" width="5.76" height="5.76" fill="#6a87af"/><rect x="152.57" y="25.79" width="5.76" height="5.76" fill="#1b0003"/><rect x="152.57" y="20.03" width="5.76" height="5.76" fill="#1b0003"/><rect x="146.81" y="83.42" width="5.76" height="5.76" fill="#1b0003"/><rect x="146.81" y="77.65" width="5.76" height="5.76" fill="#85a1c9"/><rect x="146.81" y="71.89" width="5.76" height="5.76" fill="#85a1c9"/><rect x="146.81" y="66.13" width="5.76" height="5.76" fill="#85a1c9"/><rect x="146.81" y="60.37" width="5.76" height="5.76" fill="#85a1c9"/><rect x="146.81" y="54.6" width="5.76" height="5.76" fill="#6a87af"/><rect x="146.81" y="48.84" width="5.76" height="5.76" fill="#6a87af"/><rect x="146.81" y="43.08" width="5.76" height="5.76" fill="#6a87af"/><rect x="146.81" y="37.31" width="5.76" height="5.76" fill="#6a87af"/><rect x="146.81" y="31.55" width="5.76" height="5.76" fill="#bedbed"/><rect x="146.81" y="25.79" width="5.76" height="5.76" fill="#bedbed"/><rect x="146.81" y="20.03" width="5.76" height="5.76" fill="#bedbed"/><rect x="146.81" y="14.26" width="5.76" height="5.76" fill="#1b0003"/><rect x="141.05" y="89.18" width="5.76" height="5.76" fill="#1b0003"/><rect x="141.05" y="83.42" width="5.76" height="5.76" fill="#85a1c9"/><rect x="141.05" y="77.65" width="5.76" height="5.76" fill="#85a1c9"/><rect x="141.05" y="71.89" width="5.76" height="5.76" fill="#85a1c9"/><rect x="141.05" y="66.13" width="5.76" height="5.76" fill="#6a87af"/><rect x="141.05" y="60.37" width="5.76" height="5.76" fill="#6a87af"/><rect x="141.05" y="54.6" width="5.76" height="5.76" fill="#6a87af"/><rect x="141.05" y="48.84" width="5.76" height="5.76" fill="#bedbed"/><rect x="141.05" y="43.08" width="5.76" height="5.76" fill="#6a87af"/><rect x="141.05" y="37.31" width="5.76" height="5.76" fill="#bedbed"/><rect x="141.05" y="31.55" width="5.76" height="5.76" fill="#bedbed"/><rect x="141.05" y="25.79" width="5.76" height="5.76" fill="#bedbed"/><rect x="141.05" y="20.03" width="5.76" height="5.76" fill="#bedbed"/><rect x="141.05" y="14.26" width="5.76" height="5.76" fill="#bedbed"/><rect x="141.05" y="8.5" width="5.76" height="5.76" fill="#1b0003"/><rect x="135.28" y="94.94" width="5.76" height="5.76" fill="#1b0003"/><rect x="135.28" y="89.18" width="5.76" height="5.76" fill="#85a1c9"/><rect x="135.28" y="83.42" width="5.76" height="5.76" fill="#85a1c9"/><rect x="135.28" y="77.65" width="5.76" height="5.76" fill="#85a1c9"/><rect x="135.28" y="71.89" width="5.76" height="5.76" fill="#6a87af"/><rect x="135.28" y="66.13" width="5.76" height="5.76" fill="#6a87af"/><rect x="135.28" y="60.37" width="5.76" height="5.76" fill="#6a87af"/><rect x="135.28" y="54.6" width="5.76" height="5.76" fill="#bedbed"/><rect x="135.28" y="48.84" width="5.76" height="5.76" fill="#bedbed"/><rect x="135.28" y="43.08" width="5.76" height="5.76" fill="#6a87af"/><rect x="135.28" y="37.31" width="5.76" height="5.76" fill="#bedbed"/><rect x="135.28" y="31.55" width="5.76" height="5.76" fill="#bedbed"/><rect x="135.28" y="25.79" width="5.76" height="5.76" fill="#bedbed"/><rect x="135.28" y="20.03" width="5.76" height="5.76" fill="#bedbed"/><rect x="135.28" y="14.26" width="5.76" height="5.76" fill="#bedbed"/><rect x="135.28" y="8.5" width="5.76" height="5.76" fill="#1b0003"/><rect x="129.52" y="100.71" width="5.76" height="5.76" fill="#1b0003"/><rect x="129.52" y="94.94" width="5.76" height="5.76" fill="#85a1c9"/><rect x="129.52" y="89.18" width="5.76" height="5.76" fill="#85a1c9"/><rect x="129.52" y="83.42" width="5.76" height="5.76" fill="#85a1c9"/><rect x="129.52" y="77.65" width="5.76" height="5.76" fill="#6a87af"/><rect x="129.52" y="71.89" width="5.76" height="5.76" fill="#6a87af"/><rect x="129.52" y="66.13" width="5.76" height="5.76" fill="#6a87af"/><rect x="129.52" y="60.37" width="5.76" height="5.76" fill="#bedbed"/><rect x="129.52" y="54.6" width="5.76" height="5.76" fill="#bedbed"/><rect x="129.52" y="48.84" width="5.76" height="5.76" fill="#bedbed"/><rect x="129.52" y="43.08" width="5.76" height="5.76" fill="#6a87af"/><rect x="129.52" y="37.31" width="5.76" height="5.76" fill="#bedbed"/><rect x="129.52" y="31.55" width="5.76" height="5.76" fill="#bedbed"/><rect x="129.52" y="25.79" width="5.76" height="5.76" fill="#bedbed"/><rect x="129.52" y="20.03" width="5.76" height="5.76" fill="#bedbed"/><rect x="129.52" y="14.26" width="5.76" height="5.76" fill="#bedbed"/><rect x="129.52" y="8.5" width="5.76" height="5.76" fill="#1b0003"/><rect x="123.76" y="100.71" width="5.76" height="5.76" fill="#1b0003"/><rect x="123.76" y="94.94" width="5.76" height="5.76" fill="#85a1c9"/><rect x="123.76" y="89.18" width="5.76" height="5.76" fill="#85a1c9"/><rect x="123.76" y="83.42" width="5.76" height="5.76" fill="#6a87af"/><rect x="123.76" y="77.65" width="5.76" height="5.76" fill="#6a87af"/><rect x="123.76" y="71.89" width="5.76" height="5.76" fill="#6a87af"/><rect x="123.76" y="66.13" width="5.76" height="5.76" fill="#bedbed"/><rect x="123.76" y="60.37" width="5.76" height="5.76" fill="#bedbed"/><rect x="123.76" y="54.6" width="5.76" height="5.76" fill="#bedbed"/><rect x="123.76" y="48.84" width="5.76" height="5.76" fill="#bedbed"/><rect x="123.76" y="43.08" width="5.76" height="5.76" fill="#6a87af"/><rect x="123.76" y="37.31" width="5.76" height="5.76" fill="#bedbed"/><rect x="123.76" y="31.55" width="5.76" height="5.76" fill="#bedbed"/><rect x="123.76" y="25.79" width="5.76" height="5.76" fill="#1b0003"/><rect x="123.76" y="20.03" width="5.76" height="5.76" fill="#bedbed"/><rect x="123.76" y="14.26" width="5.76" height="5.76" fill="#bedbed"/><rect x="123.76" y="8.5" width="5.76" height="5.76" fill="#1b0003"/><rect x="118" y="106.47" width="5.76" height="5.76" fill="#1b0003"/><rect x="118" y="100.71" width="5.76" height="5.76" fill="#85a1c9"/><rect x="118" y="94.94" width="5.76" height="5.76" fill="#85a1c9"/><rect x="118" y="89.18" width="5.76" height="5.76" fill="#85a1c9"/><rect x="118" y="83.42" width="5.76" height="5.76" fill="#6a87af"/><rect x="118" y="77.65" width="5.76" height="5.76" fill="#6a87af"/><rect x="118" y="71.89" width="5.76" height="5.76" fill="#bedbed"/><rect x="118" y="66.13" width="5.76" height="5.76" fill="#bedbed"/><rect x="118" y="60.37" width="5.76" height="5.76" fill="#bedbed"/><rect x="118" y="54.6" width="5.76" height="5.76" fill="#85a1c9"/><rect x="118" y="48.84" width="5.76" height="5.76" fill="#85a1c9"/><rect x="118" y="43.08" width="5.76" height="5.76" fill="#85a1c9"/><rect x="118" y="37.31" width="5.76" height="5.76" fill="#bedbed"/><rect x="118" y="31.55" width="5.76" height="5.76" fill="#bedbed"/><rect x="118" y="25.79" width="5.76" height="5.76" fill="#bedbed"/><rect x="118" y="20.03" width="5.76" height="5.76" fill="#bedbed"/><rect x="118" y="14.26" width="5.76" height="5.76" fill="#bedbed"/><rect x="118" y="8.5" width="5.76" height="5.76" fill="#1b0003"/><rect x="112.23" y="106.47" width="5.76" height="5.76" fill="#1b0003"/><rect x="112.23" y="100.71" width="5.76" height="5.76" fill="#85a1c9"/><rect x="112.23" y="94.94" width="5.76" height="5.76" fill="#85a1c9"/><rect x="112.23" y="89.18" width="5.76" height="5.76" fill="#6a87af"/><rect x="112.23" y="83.42" width="5.76" height="5.76" fill="#6a87af"/><rect x="112.23" y="77.65" width="5.76" height="5.76" fill="#6a87af"/><rect x="112.23" y="71.89" width="5.76" height="5.76" fill="#bedbed"/><rect x="112.23" y="66.13" width="5.76" height="5.76" fill="#bedbed"/><rect x="112.23" y="60.37" width="5.76" height="5.76" fill="#85a1c9"/><rect x="112.23" y="54.6" width="5.76" height="5.76" fill="#cfefff"/><rect x="112.23" y="48.84" width="5.76" height="5.76" fill="#cfefff"/><rect x="112.23" y="43.08" width="5.76" height="5.76" fill="#cfefff"/><rect x="112.23" y="37.31" width="5.76" height="5.76" fill="#6a87af"/><rect x="112.23" y="31.55" width="5.76" height="5.76" fill="#bedbed"/><rect x="112.23" y="25.79" width="5.76" height="5.76" fill="#bedbed"/><rect x="112.23" y="20.03" width="5.76" height="5.76" fill="#bedbed"/><rect x="112.23" y="14.26" width="5.76" height="5.76" fill="#1b0003"/><rect x="106.47" y="106.47" width="5.76" height="5.76" fill="#1b0003"/><rect x="106.47" y="100.71" width="5.76" height="5.76" fill="#85a1c9"/><rect x="106.47" y="94.94" width="5.76" height="5.76" fill="#85a1c9"/><rect x="106.47" y="89.18" width="5.76" height="5.76" fill="#6a87af"/><rect x="106.47" y="83.42" width="5.76" height="5.76" fill="#6a87af"/><rect x="106.47" y="77.65" width="5.76" height="5.76" fill="#bedbed"/><rect x="106.47" y="71.89" width="5.76" height="5.76" fill="#bedbed"/><rect x="106.47" y="66.13" width="5.76" height="5.76" fill="#85a1c9"/><rect x="106.47" y="60.37" width="5.76" height="5.76" fill="#cfefff"/><rect x="106.47" y="54.6" width="5.76" height="5.76" fill="#cfefff"/><rect x="106.47" y="48.84" width="5.76" height="5.76" fill="#cfefff"/><rect x="106.47" y="43.08" width="5.76" height="5.76" fill="#bedbed"/><rect x="106.47" y="37.31" width="5.76" height="5.76" fill="#6a87af"/><rect x="106.47" y="31.55" width="5.76" height="5.76" fill="#6a87af"/><rect x="106.47" y="25.79" width="5.76" height="5.76" fill="#bedbed"/><rect x="106.47" y="20.03" width="5.76" height="5.76" fill="#1b0003"/><rect x="100.71" y="106.47" width="5.76" height="5.76" fill="#1b0003"/><rect x="100.71" y="100.71" width="5.76" height="5.76" fill="#85a1c9"/><rect x="100.71" y="94.94" width="5.76" height="5.76" fill="#85a1c9"/><rect x="100.71" y="89.18" width="5.76" height="5.76" fill="#6a87af"/><rect x="100.71" y="83.42" width="5.76" height="5.76" fill="#bedbed"/><rect x="100.71" y="77.65" width="5.76" height="5.76" fill="#bedbed"/><rect x="100.71" y="71.89" width="5.76" height="5.76" fill="#85a1c9"/><rect x="100.71" y="66.13" width="5.76" height="5.76" fill="#cfefff"/><rect x="100.71" y="60.37" width="5.76" height="5.76" fill="#cfefff"/><rect x="100.71" y="54.6" width="5.76" height="5.76" fill="#cfefff"/><rect x="100.71" y="48.84" width="5.76" height="5.76" fill="#bedbed"/><rect x="100.71" y="43.08" width="5.76" height="5.76" fill="#bedbed"/><rect x="100.71" y="37.31" width="5.76" height="5.76" fill="#1b0003"/><rect x="100.71" y="31.55" width="5.76" height="5.76" fill="#1b0003"/><rect x="100.71" y="25.79" width="5.76" height="5.76" fill="#1b0003"/><rect x="94.94" y="106.47" width="5.76" height="5.76" fill="#1b0003"/><rect x="94.94" y="100.71" width="5.76" height="5.76" fill="#85a1c9"/><rect x="94.94" y="94.94" width="5.76" height="5.76" fill="#6a87af"/><rect x="94.94" y="89.18" width="5.76" height="5.76" fill="#6a87af"/><rect x="94.94" y="83.42" width="5.76" height="5.76" fill="#bedbed"/><rect x="94.94" y="77.65" width="5.76" height="5.76" fill="#85a1c9"/><rect x="94.94" y="71.89" width="5.76" height="5.76" fill="#cfefff"/><rect x="94.94" y="66.13" width="5.76" height="5.76" fill="#cfefff"/><rect x="94.94" y="60.37" width="5.76" height="5.76" fill="#cfefff"/><rect x="94.94" y="54.6" width="5.76" height="5.76" fill="#bedbed"/><rect x="94.94" y="48.84" width="5.76" height="5.76" fill="#bedbed"/><rect x="94.94" y="43.08" width="5.76" height="5.76" fill="#1b0003"/><rect x="94.94" y="37.31" width="5.76" height="5.76" fill="#1b0003"/><rect x="89.18" y="106.47" width="5.76" height="5.76" fill="#1b0003"/><rect x="89.18" y="100.71" width="5.76" height="5.76" fill="#85a1c9"/><rect x="89.18" y="94.94" width="5.76" height="5.76" fill="#6a87af"/><rect x="89.18" y="89.18" width="5.76" height="5.76" fill="#bedbed"/><rect x="89.18" y="83.42" width="5.76" height="5.76" fill="#bedbed"/><rect x="89.18" y="77.65" width="5.76" height="5.76" fill="#85a1c9"/><rect x="89.18" y="71.89" width="5.76" height="5.76" fill="#cfefff"/><rect x="89.18" y="66.13" width="5.76" height="5.76" fill="#cfefff"/><rect x="89.18" y="60.37" width="5.76" height="5.76" fill="#bedbed"/><rect x="89.18" y="54.6" width="5.76" height="5.76" fill="#bedbed"/><rect x="89.18" y="48.84" width="5.76" height="5.76" fill="#1b0003"/><rect x="89.18" y="43.08" width="5.76" height="5.76" fill="#85a1c9"/><rect x="89.18" y="37.31" width="5.76" height="5.76" fill="#1b0003"/><rect x="83.42" y="100.71" width="5.76" height="5.76" fill="#1b0003"/><rect x="83.42" y="94.94" width="5.76" height="5.76" fill="#6a87af"/><rect x="83.42" y="89.18" width="5.76" height="5.76" fill="#bedbed"/><rect x="83.42" y="83.42" width="5.76" height="5.76" fill="#85a1c9"/><rect x="83.42" y="77.65" width="5.76" height="5.76" fill="#cfefff"/><rect x="83.42" y="71.89" width="5.76" height="5.76" fill="#cfefff"/><rect x="83.42" y="66.13" width="5.76" height="5.76" fill="#bedbed"/><rect x="83.42" y="60.37" width="5.76" height="5.76" fill="#1b0003"/><rect x="83.42" y="54.6" width="5.76" height="5.76" fill="#1b0003"/><rect x="83.42" y="48.84" width="5.76" height="5.76" fill="#85a1c9"/><rect x="83.42" y="43.08" width="5.76" height="5.76" fill="#1b0003"/><rect x="77.65" y="100.71" width="5.76" height="5.76" fill="#1b0003"/><rect x="77.65" y="94.94" width="5.76" height="5.76" fill="#6a87af"/><rect x="77.65" y="89.18" width="5.76" height="5.76" fill="#6a87af"/><rect x="77.65" y="83.42" width="5.76" height="5.76" fill="#85a1c9"/><rect x="77.65" y="77.65" width="5.76" height="5.76" fill="#cfefff"/><rect x="77.65" y="71.89" width="5.76" height="5.76" fill="#cfefff"/><rect x="77.65" y="66.13" width="5.76" height="5.76" fill="#1b0003"/><rect x="77.65" y="60.37" width="5.76" height="5.76" fill="#85a1c9"/><rect x="77.65" y="54.6" width="5.76" height="5.76" fill="#85a1c9"/><rect x="77.65" y="48.84" width="5.76" height="5.76" fill="#85a1c9"/><rect x="77.65" y="43.08" width="5.76" height="5.76" fill="#1b0003"/><rect x="71.89" y="100.71" width="5.76" height="5.76" fill="#1b0003"/><rect x="71.89" y="94.94" width="5.76" height="5.76" fill="#6a87af"/><rect x="71.89" y="89.18" width="5.76" height="5.76" fill="#6a87af"/><rect x="71.89" y="83.42" width="5.76" height="5.76" fill="#85a1c9"/><rect x="71.89" y="77.65" width="5.76" height="5.76" fill="#cfefff"/><rect x="71.89" y="71.89" width="5.76" height="5.76" fill="#1b0003"/><rect x="71.89" y="60.37" width="5.76" height="5.76" fill="#1b0003"/><rect x="71.89" y="54.6" width="5.76" height="5.76" fill="#1b0003"/><rect x="71.89" y="48.84" width="5.76" height="5.76" fill="#85a1c9"/><rect x="71.89" y="43.08" width="5.76" height="5.76" fill="#1b0003"/><rect x="66.13" y="94.94" width="5.76" height="5.76" fill="#1b0003"/><rect x="66.13" y="89.18" width="5.76" height="5.76" fill="#6a87af"/><rect x="66.13" y="83.42" width="5.76" height="5.76" fill="#85a1c9"/><rect x="66.13" y="77.65" width="5.76" height="5.76" fill="#bedbed"/><rect x="66.13" y="71.89" width="5.76" height="5.76" fill="#1b0003"/><rect x="66.13" y="48.84" width="5.76" height="5.76" fill="#1b0003"/><rect x="60.37" y="94.94" width="5.76" height="5.76" fill="#1b0003"/><rect x="60.37" y="89.18" width="5.76" height="5.76" fill="#6a87af"/><rect x="60.37" y="83.42" width="5.76" height="5.76" fill="#bedbed"/><rect x="60.37" y="77.65" width="5.76" height="5.76" fill="#1b0003"/><rect x="54.6" y="94.94" width="5.76" height="5.76" fill="#1b0003"/><rect x="54.6" y="89.18" width="5.76" height="5.76" fill="#6a87af"/><rect x="54.6" y="83.42" width="5.76" height="5.76" fill="#bedbed"/><rect x="54.6" y="77.65" width="5.76" height="5.76" fill="#1b0003"/><rect x="48.84" y="100.71" width="5.76" height="5.76" fill="#1b0003"/><rect x="48.84" y="94.94" width="5.76" height="5.76" fill="#85a1c9"/><rect x="48.84" y="89.18" width="5.76" height="5.76" fill="#6a87af"/><rect x="48.84" y="83.42" width="5.76" height="5.76" fill="#bedbed"/><rect x="48.84" y="77.65" width="5.76" height="5.76" fill="#1b0003"/><rect x="43.08" y="112.23" width="5.76" height="5.76" fill="#1b0003"/><rect x="43.08" y="106.47" width="5.76" height="5.76" fill="#1b0003"/><rect x="43.08" y="100.71" width="5.76" height="5.76" fill="#85a1c9"/><rect x="43.08" y="94.94" width="5.76" height="5.76" fill="#85a1c9"/><rect x="43.08" y="89.18" width="5.76" height="5.76" fill="#6a87af"/><rect x="43.08" y="83.42" width="5.76" height="5.76" fill="#bedbed"/><rect x="43.08" y="77.65" width="5.76" height="5.76" fill="#1b0003"/><rect x="37.31" y="123.76" width="5.76" height="5.76" fill="#1b0003"/><rect x="37.31" y="117.99" width="5.76" height="5.76" fill="#1b0003"/><rect x="37.31" y="112.23" width="5.76" height="5.76" fill="#85a1c9"/><rect x="37.31" y="106.47" width="5.76" height="5.76" fill="#85a1c9"/><rect x="37.31" y="100.71" width="5.76" height="5.76" fill="#85a1c9"/><rect x="37.31" y="94.94" width="5.76" height="5.76" fill="#85a1c9"/><rect x="37.31" y="89.18" width="5.76" height="5.76" fill="#6a87af"/><rect x="37.31" y="83.42" width="5.76" height="5.76" fill="#bedbed"/><rect x="37.31" y="77.65" width="5.76" height="5.76" fill="#1b0003"/><rect x="31.55" y="129.52" width="5.76" height="5.76" fill="#1b0003"/><rect x="31.55" y="123.76" width="5.76" height="5.76" fill="#85a1c9"/><rect x="31.55" y="117.99" width="5.76" height="5.76" fill="#85a1c9"/><rect x="31.55" y="112.23" width="5.76" height="5.76" fill="#85a1c9"/><rect x="31.55" y="106.47" width="5.76" height="5.76" fill="#85a1c9"/><rect x="31.55" y="100.71" width="5.76" height="5.76" fill="#85a1c9"/><rect x="31.55" y="94.94" width="5.76" height="5.76" fill="#6a87af"/><rect x="31.55" y="89.18" width="5.76" height="5.76" fill="#bedbed"/><rect x="31.55" y="83.42" width="5.76" height="5.76" fill="#bedbed"/><rect x="31.55" y="77.65" width="5.76" height="5.76" fill="#cfefff"/><rect x="31.55" y="71.89" width="5.76" height="5.76" fill="#1b0003"/><rect x="25.79" y="123.76" width="5.76" height="5.76" fill="#1b0003"/><rect x="25.79" y="117.99" width="5.76" height="5.76" fill="#1b0003"/><rect x="25.79" y="112.23" width="5.76" height="5.76" fill="#1b0003"/><rect x="25.79" y="106.47" width="5.76" height="5.76" fill="#1b0003"/><rect x="25.79" y="100.71" width="5.76" height="5.76" fill="#6a87af"/><rect x="25.79" y="94.94" width="5.76" height="5.76" fill="#bedbed"/><rect x="25.79" y="89.18" width="5.76" height="5.76" fill="#bedbed"/><rect x="25.79" y="83.42" width="5.76" height="5.76" fill="#bedbed"/><rect x="25.79" y="77.65" width="5.76" height="5.76" fill="#cfefff"/><rect x="25.79" y="71.89" width="5.76" height="5.76" fill="#1b0003"/><rect x="20.03" y="100.71" width="5.76" height="5.76" fill="#1b0003"/><rect x="20.03" y="94.94" width="5.76" height="5.76" fill="#1b0003"/><rect x="20.03" y="89.18" width="5.76" height="5.76" fill="#bedbed"/><rect x="20.03" y="83.42" width="5.76" height="5.76" fill="#bedbed"/><rect x="20.03" y="77.65" width="5.76" height="5.76" fill="#cfefff"/><rect x="20.03" y="71.89" width="5.76" height="5.76" fill="#1b0003"/><rect x="14.26" y="89.18" width="5.76" height="5.76" fill="#1b0003"/><rect x="14.26" y="83.42" width="5.76" height="5.76" fill="#1b0003"/><rect x="14.26" y="77.65" width="5.76" height="5.76" fill="#bedbed"/><rect x="14.26" y="71.89" width="5.76" height="5.76" fill="#cfefff"/><rect x="14.26" y="66.13" width="5.76" height="5.76" fill="#1b0003"/><rect x="8.5" y="77.65" width="5.76" height="5.76" fill="#1b0003"/><rect x="8.5" y="71.89" width="5.76" height="5.76" fill="#1b0003"/><rect x="8.5" y="66.13" width="5.76" height="5.76" fill="#1b0003"/></g></g></g></g></svg>