<svg xmlns="http://www.w3.org/2000/svg" width="153.8" height="140.56" viewBox="0 0 153.8 140.56"><g id="Layer_2" data-name="Layer 2"><g id="items"><g id="Golden_Key" data-name="Golden Key"><path d="M43.48,140.56H22.06v-4.41H17.65v-4.42H13.24v-4.41H8.83v-4.41H4.41V118.5H0V97.08H4.41V92.67H8.83V88.26h4.41V83.84h4.41V79.43h4.41V75h4.42V70.61h4.41V66.19H35.3V61.78H56.72v4.41h5.06V61.78h4.41V57.37h4.42V22.06H75V13.24h4.41V8.83h4.41V4.41h8.83V0h39.06V4.41h8.83V8.83H145v4.41h4.41v8.82h4.42V61.13h-4.42V70H145v4.42h-4.41v4.41h-8.83v4.41H96.43v4.42H92V92H87.61v4.41H83.19v4.41H78.78v4.42H74.37v4.41H70v4.41H65.54v4.42H61.13v4.41H56.72v4.41H52.3v4.41H47.89v4.42H43.48Zm0-34.65h.65v-.65h-.65ZM56.72,92.67h.65V92h-.65Zm53-26.48h5.06v-.65h-5.06ZM92,61.78h.65v-.65H92Zm17.65-13.24h5.06V44.13h4.42V39.06h-4.42V34.65h-5.06v4.41h-4.41v5.07h4.41Zm26.48-4.41h.65V39.06h-.65Zm-48.54,0h.65V39.06h-.65Zm22.06-26.48h5.06V17h-5.06Z" fill="#fff"/><g id="Golden_Key-2" data-name="Golden Key"><rect x="8.5" y="105.58" width="4.41" height="4.41" fill="#1b0003"/><rect x="12.91" y="110" width="4.41" height="4.41" fill="#1b0003"/><rect x="12.91" y="105.58" width="4.41" height="4.41" fill="#d84b13"/><rect x="12.91" y="101.17" width="4.41" height="4.41" fill="#1b0003"/><rect x="17.33" y="114.41" width="4.41" height="4.41" fill="#1b0003"/><rect x="17.33" y="110" width="4.41" height="4.41" fill="#d84b13"/><rect x="17.33" y="105.58" width="4.41" height="4.41" fill="#db6d12"/><rect x="17.33" y="101.17" width="4.41" height="4.41" fill="#ffefa1"/><rect x="17.33" y="96.76" width="4.41" height="4.41" fill="#1b0003"/><rect x="21.74" y="118.82" width="4.41" height="4.41" fill="#1b0003"/><rect x="21.74" y="114.41" width="4.41" height="4.41" fill="#d84b13"/><rect x="21.74" y="110" width="4.41" height="4.41" fill="#db6d12"/><rect x="21.74" y="105.58" width="4.41" height="4.41" fill="#ffefa1"/><rect x="21.74" y="101.17" width="4.41" height="4.41" fill="#1b0003"/><rect x="21.74" y="92.34" width="4.41" height="4.41" fill="#1b0003"/><rect x="26.15" y="123.23" width="4.41" height="4.41" fill="#1b0003"/><rect x="26.15" y="118.82" width="4.41" height="4.41" fill="#d84b13"/><rect x="26.15" y="114.41" width="4.41" height="4.41" fill="#db6d12"/><rect x="26.15" y="110" width="4.41" height="4.41" fill="#ffefa1"/><rect x="26.15" y="105.58" width="4.41" height="4.41" fill="#1b0003"/><rect x="26.15" y="96.76" width="4.41" height="4.41" fill="#1b0003"/><rect x="26.15" y="92.34" width="4.41" height="4.41" fill="#db6d12"/><rect x="26.15" y="87.93" width="4.41" height="4.41" fill="#1b0003"/><rect x="30.56" y="127.65" width="4.41" height="4.41" fill="#1b0003"/><rect x="30.56" y="123.23" width="4.41" height="4.41" fill="#d84b13"/><rect x="30.56" y="118.82" width="4.41" height="4.41" fill="#d84b13"/><rect x="30.56" y="114.41" width="4.41" height="4.41" fill="#f7c45e"/><rect x="30.56" y="110" width="4.41" height="4.41" fill="#1b0003"/><rect x="30.56" y="101.17" width="4.41" height="4.41" fill="#1b0003"/><rect x="30.56" y="96.76" width="4.41" height="4.41" fill="#db6d12"/><rect x="30.56" y="92.34" width="4.41" height="4.41" fill="#f7c45e"/><rect x="30.56" y="87.93" width="4.41" height="4.41" fill="#ffefa1"/><rect x="30.56" y="83.52" width="4.41" height="4.41" fill="#1b0003"/><rect x="34.98" y="123.23" width="4.41" height="4.41" fill="#1b0003"/><rect x="34.98" y="118.82" width="4.41" height="4.41" fill="#d84b13"/><rect x="34.98" y="114.41" width="4.41" height="4.41" fill="#db6d12"/><rect x="34.98" y="110" width="4.41" height="4.41" fill="#f7c45e"/><rect x="34.98" y="105.58" width="4.41" height="4.41" fill="#1b0003"/><rect x="34.98" y="101.17" width="4.41" height="4.41" fill="#db6d12"/><rect x="34.98" y="96.76" width="4.41" height="4.41" fill="#f7c45e"/><rect x="34.98" y="92.34" width="4.41" height="4.41" fill="#ffefa1"/><rect x="34.98" y="87.93" width="4.41" height="4.41" fill="#1b0003"/><rect x="34.98" y="79.11" width="4.41" height="4.41" fill="#1b0003"/><rect x="39.39" y="118.82" width="4.41" height="4.41" fill="#1b0003"/><rect x="39.39" y="114.41" width="4.41" height="4.41" fill="#db6d12"/><rect x="39.39" y="110" width="4.41" height="4.41" fill="#db6d12"/><rect x="39.39" y="105.58" width="4.41" height="4.41" fill="#f7c45e"/><rect x="39.39" y="101.17" width="4.41" height="4.41" fill="#db6d12"/><rect x="39.39" y="96.76" width="4.41" height="4.41" fill="#ffefa1"/><rect x="39.39" y="92.34" width="4.41" height="4.41" fill="#1b0003"/><rect x="39.39" y="83.52" width="4.41" height="4.41" fill="#1b0003"/><rect x="39.39" y="79.11" width="4.41" height="4.41" fill="#db6d12"/><rect x="39.39" y="74.69" width="4.41" height="4.41" fill="#1b0003"/><rect x="43.8" y="114.41" width="4.41" height="4.41" fill="#1b0003"/><rect x="43.8" y="110" width="4.41" height="4.41" fill="#db6d12"/><rect x="43.8" y="105.58" width="4.41" height="4.41" fill="#db6d12"/><rect x="43.8" y="101.17" width="4.41" height="4.41" fill="#f7c45e"/><rect x="43.8" y="96.76" width="4.41" height="4.41" fill="#1b0003"/><rect x="43.8" y="87.93" width="4.41" height="4.41" fill="#1b0003"/><rect x="43.8" y="83.52" width="4.41" height="4.41" fill="#db6d12"/><rect x="43.8" y="79.11" width="4.41" height="4.41" fill="#f7c45e"/><rect x="43.8" y="74.69" width="4.41" height="4.41" fill="#ffefa1"/><rect x="43.8" y="70.28" width="4.41" height="4.41" fill="#1b0003"/><rect x="48.22" y="110" width="4.41" height="4.41" fill="#1b0003"/><rect x="48.22" y="105.58" width="4.41" height="4.41" fill="#db6d12"/><rect x="48.22" y="101.17" width="4.41" height="4.41" fill="#db6d12"/><rect x="48.22" y="96.76" width="4.41" height="4.41" fill="#f7c45e"/><rect x="48.22" y="92.34" width="4.41" height="4.41" fill="#1b0003"/><rect x="48.22" y="87.93" width="4.41" height="4.41" fill="#db6d12"/><rect x="48.22" y="83.52" width="4.41" height="4.41" fill="#f7c45e"/><rect x="48.22" y="79.11" width="4.41" height="4.41" fill="#ffefa1"/><rect x="48.22" y="74.69" width="4.41" height="4.41" fill="#1b0003"/><rect x="52.63" y="105.58" width="4.41" height="4.41" fill="#1b0003"/><rect x="52.63" y="101.17" width="4.41" height="4.41" fill="#db6d12"/><rect x="52.63" y="96.76" width="4.41" height="4.41" fill="#db6d12"/><rect x="52.63" y="92.34" width="4.41" height="4.41" fill="#f7c45e"/><rect x="52.63" y="87.93" width="4.41" height="4.41" fill="#db6d12"/><rect x="52.63" y="83.52" width="4.41" height="4.41" fill="#ffefa1"/><rect x="52.63" y="79.11" width="4.41" height="4.41" fill="#1b0003"/><rect x="57.04" y="101.17" width="4.41" height="4.41" fill="#1b0003"/><rect x="57.04" y="96.76" width="4.41" height="4.41" fill="#db6d12"/><rect x="57.04" y="92.34" width="4.41" height="4.41" fill="#db6d12"/><rect x="57.04" y="87.93" width="4.41" height="4.41" fill="#f7c45e"/><rect x="57.04" y="83.52" width="4.41" height="4.41" fill="#1b0003"/><rect x="61.45" y="96.76" width="4.41" height="4.41" fill="#1b0003"/><rect x="61.45" y="92.34" width="4.41" height="4.41" fill="#db6d12"/><rect x="61.45" y="87.93" width="4.41" height="4.41" fill="#db6d12"/><rect x="61.45" y="83.52" width="4.41" height="4.41" fill="#f7c45e"/><rect x="61.45" y="79.11" width="4.41" height="4.41" fill="#1b0003"/><rect x="65.87" y="92.34" width="4.41" height="4.41" fill="#1b0003"/><rect x="65.87" y="87.93" width="4.41" height="4.41" fill="#db6d12"/><rect x="65.87" y="83.52" width="4.41" height="4.41" fill="#db6d12"/><rect x="65.87" y="79.11" width="4.41" height="4.41" fill="#f7c45e"/><rect x="65.87" y="74.69" width="4.41" height="4.41" fill="#1b0003"/><rect x="70.28" y="87.93" width="4.41" height="4.41" fill="#1b0003"/><rect x="70.28" y="83.52" width="4.41" height="4.41" fill="#db6d12"/><rect x="70.28" y="79.11" width="4.41" height="4.41" fill="#db6d12"/><rect x="70.28" y="74.69" width="4.41" height="4.41" fill="#f7c45e"/><rect x="70.28" y="70.28" width="4.41" height="4.41" fill="#1b0003"/><rect x="74.69" y="83.52" width="4.41" height="4.41" fill="#1b0003"/><rect x="74.69" y="79.11" width="4.41" height="4.41" fill="#db6d12"/><rect x="74.69" y="74.69" width="4.41" height="4.41" fill="#db6d12"/><rect x="74.69" y="70.28" width="4.41" height="4.41" fill="#f7c45e"/><rect x="74.69" y="65.87" width="4.41" height="4.41" fill="#1b0003"/><rect x="79.11" y="79.11" width="4.41" height="4.41" fill="#1b0003"/><rect x="79.11" y="74.69" width="4.41" height="4.41" fill="#db6d12"/><rect x="79.11" y="70.28" width="4.41" height="4.41" fill="#db6d12"/><rect x="79.11" y="65.87" width="4.41" height="4.41" fill="#f7c45e"/><rect x="79.11" y="61.45" width="4.41" height="4.41" fill="#1b0003"/><rect x="79.11" y="48.22" width="4.41" height="4.41" fill="#1b0003"/><rect x="79.11" y="43.8" width="4.41" height="4.41" fill="#1b0003"/><rect x="79.11" y="39.39" width="4.41" height="4.41" fill="#1b0003"/><rect x="79.11" y="34.98" width="4.41" height="4.41" fill="#1b0003"/><rect x="79.11" y="30.56" width="4.41" height="4.41" fill="#1b0003"/><rect x="83.52" y="74.69" width="4.41" height="4.41" fill="#1b0003"/><rect x="83.52" y="70.28" width="4.41" height="4.41" fill="#db6d12"/><rect x="83.52" y="65.87" width="4.41" height="4.41" fill="#db6d12"/><rect x="83.52" y="61.45" width="4.41" height="4.41" fill="#f7c45e"/><rect x="83.52" y="57.04" width="4.41" height="4.41" fill="#1b0003"/><rect x="83.52" y="52.63" width="4.41" height="4.41" fill="#1b0003"/><rect x="83.52" y="48.22" width="4.41" height="4.41" fill="#db6d12"/><rect x="83.52" y="43.8" width="4.41" height="4.41" fill="#db6d12"/><rect x="83.52" y="39.39" width="4.41" height="4.41" fill="#db6d12"/><rect x="83.52" y="34.98" width="4.41" height="4.41" fill="#db6d12"/><rect x="83.52" y="30.56" width="4.41" height="4.41" fill="#db6d12"/><rect x="83.52" y="26.15" width="4.41" height="4.41" fill="#1b0003"/><rect x="83.52" y="21.74" width="4.41" height="4.41" fill="#1b0003"/><rect x="87.93" y="70.28" width="4.41" height="4.41" fill="#1b0003"/><rect x="87.93" y="65.87" width="4.41" height="4.41" fill="#db6d12"/><rect x="87.93" y="61.45" width="4.41" height="4.41" fill="#db6d12"/><rect x="87.93" y="57.04" width="4.41" height="4.41" fill="#db6d12"/><rect x="87.93" y="52.63" width="4.41" height="4.41" fill="#d84b13"/><rect x="87.93" y="48.22" width="4.41" height="4.41" fill="#d84b13"/><rect x="87.93" y="43.8" width="4.41" height="4.41" fill="#d84b13"/><rect x="87.93" y="39.39" width="4.41" height="4.41" fill="#d84b13"/><rect x="87.93" y="34.98" width="4.41" height="4.41" fill="#d84b13"/><rect x="87.93" y="30.56" width="4.41" height="4.41" fill="#d84b13"/><rect x="87.93" y="26.15" width="4.41" height="4.41" fill="#f7c45e"/><rect x="87.93" y="21.74" width="4.41" height="4.41" fill="#f7c45e"/><rect x="87.93" y="17.33" width="4.41" height="4.41" fill="#1b0003"/><rect x="92.34" y="65.87" width="4.41" height="4.41" fill="#1b0003"/><rect x="92.34" y="61.45" width="4.41" height="4.41" fill="#d84b13"/><rect x="92.34" y="57.04" width="4.41" height="4.41" fill="#db6d12"/><rect x="92.34" y="52.63" width="4.41" height="4.41" fill="#ffefa1"/><rect x="92.34" y="48.22" width="4.41" height="4.41" fill="#1b0003"/><rect x="92.34" y="43.8" width="4.41" height="4.41" fill="#1b0003"/><rect x="92.34" y="39.39" width="4.41" height="4.41" fill="#1b0003"/><rect x="92.34" y="34.98" width="4.41" height="4.41" fill="#1b0003"/><rect x="92.34" y="30.56" width="4.41" height="4.41" fill="#1b0003"/><rect x="92.34" y="26.15" width="4.41" height="4.41" fill="#f7c45e"/><rect x="92.34" y="21.74" width="4.41" height="4.41" fill="#f7c45e"/><rect x="92.34" y="17.33" width="4.41" height="4.41" fill="#f7c45e"/><rect x="92.34" y="12.91" width="4.41" height="4.41" fill="#1b0003"/><rect x="96.76" y="65.87" width="4.41" height="4.41" fill="#1b0003"/><rect x="96.76" y="61.45" width="4.41" height="4.41" fill="#db6d12"/><rect x="96.76" y="57.04" width="4.41" height="4.41" fill="#ffefa1"/><rect x="96.76" y="52.63" width="4.41" height="4.41" fill="#1b0003"/><rect x="96.76" y="26.15" width="4.41" height="4.41" fill="#1b0003"/><rect x="96.76" y="21.74" width="4.41" height="4.41" fill="#f7c45e"/><rect x="96.76" y="17.33" width="4.41" height="4.41" fill="#f7c45e"/><rect x="96.76" y="12.91" width="4.41" height="4.41" fill="#1b0003"/><rect x="101.17" y="70.28" width="4.41" height="4.41" fill="#1b0003"/><rect x="101.17" y="65.87" width="4.41" height="4.41" fill="#d84b13"/><rect x="101.17" y="61.45" width="4.41" height="4.41" fill="#ffefa1"/><rect x="101.17" y="57.04" width="4.41" height="4.41" fill="#1b0003"/><rect x="101.17" y="21.74" width="4.41" height="4.41" fill="#1b0003"/><rect x="101.17" y="17.33" width="4.41" height="4.41" fill="#f7c45e"/><rect x="101.17" y="12.91" width="4.41" height="4.41" fill="#ffefa1"/><rect x="101.17" y="8.5" width="4.41" height="4.41" fill="#1b0003"/><rect x="105.58" y="70.28" width="4.41" height="4.41" fill="#1b0003"/><rect x="105.58" y="65.87" width="4.41" height="4.41" fill="#db6d12"/><rect x="105.58" y="61.45" width="4.41" height="4.41" fill="#ffefa1"/><rect x="105.58" y="57.04" width="4.41" height="4.41" fill="#1b0003"/><rect x="105.58" y="21.74" width="4.41" height="4.41" fill="#1b0003"/><rect x="105.58" y="17.33" width="4.41" height="4.41" fill="#f7c45e"/><rect x="105.58" y="12.91" width="4.41" height="4.41" fill="#f7c45e"/><rect x="105.58" y="8.5" width="4.41" height="4.41" fill="#1b0003"/><rect x="110" y="70.28" width="4.41" height="4.41" fill="#1b0003"/><rect x="110" y="65.87" width="4.41" height="4.41" fill="#db6d12"/><rect x="110" y="61.45" width="4.41" height="4.41" fill="#ffefa1"/><rect x="110" y="57.04" width="4.41" height="4.41" fill="#1b0003"/><rect x="110" y="21.74" width="4.41" height="4.41" fill="#1b0003"/><rect x="110" y="17.33" width="4.41" height="4.41" fill="#f7c45e"/><rect x="110" y="12.91" width="4.41" height="4.41" fill="#ffefa1"/><rect x="110" y="8.5" width="4.41" height="4.41" fill="#1b0003"/><rect x="114.41" y="70.28" width="4.41" height="4.41" fill="#1b0003"/><rect x="114.41" y="65.87" width="4.41" height="4.41" fill="#db6d12"/><rect x="114.41" y="61.45" width="4.41" height="4.41" fill="#ffefa1"/><rect x="114.41" y="57.04" width="4.41" height="4.41" fill="#1b0003"/><rect x="114.41" y="21.74" width="4.41" height="4.41" fill="#1b0003"/><rect x="114.41" y="17.33" width="4.41" height="4.41" fill="#f7c45e"/><rect x="114.41" y="12.91" width="4.41" height="4.41" fill="#ffefa1"/><rect x="114.41" y="8.5" width="4.41" height="4.41" fill="#1b0003"/><rect x="118.82" y="70.28" width="4.41" height="4.41" fill="#1b0003"/><rect x="118.82" y="65.87" width="4.41" height="4.41" fill="#db6d12"/><rect x="118.82" y="61.45" width="4.41" height="4.41" fill="#db6d12"/><rect x="118.82" y="57.04" width="4.41" height="4.41" fill="#1b0003"/><rect x="118.82" y="21.74" width="4.41" height="4.41" fill="#1b0003"/><rect x="118.82" y="17.33" width="4.41" height="4.41" fill="#f7c45e"/><rect x="118.82" y="12.91" width="4.41" height="4.41" fill="#ffefa1"/><rect x="118.82" y="8.5" width="4.41" height="4.41" fill="#1b0003"/><rect x="123.23" y="65.87" width="4.41" height="4.41" fill="#1b0003"/><rect x="123.23" y="61.45" width="4.41" height="4.41" fill="#db6d12"/><rect x="123.23" y="57.04" width="4.41" height="4.41" fill="#f7c45e"/><rect x="123.23" y="52.63" width="4.41" height="4.41" fill="#1b0003"/><rect x="123.23" y="26.15" width="4.41" height="4.41" fill="#1b0003"/><rect x="123.23" y="21.74" width="4.41" height="4.41" fill="#f7c45e"/><rect x="123.23" y="17.33" width="4.41" height="4.41" fill="#ffefa1"/><rect x="123.23" y="12.91" width="4.41" height="4.41" fill="#1b0003"/><rect x="127.65" y="65.87" width="4.41" height="4.41" fill="#1b0003"/><rect x="127.65" y="61.45" width="4.41" height="4.41" fill="#db6d12"/><rect x="127.65" y="57.04" width="4.41" height="4.41" fill="#db6d12"/><rect x="127.65" y="52.63" width="4.41" height="4.41" fill="#f7c45e"/><rect x="127.65" y="48.22" width="4.41" height="4.41" fill="#1b0003"/><rect x="127.65" y="43.8" width="4.41" height="4.41" fill="#1b0003"/><rect x="127.65" y="39.39" width="4.41" height="4.41" fill="#1b0003"/><rect x="127.65" y="34.98" width="4.41" height="4.41" fill="#1b0003"/><rect x="127.65" y="30.56" width="4.41" height="4.41" fill="#1b0003"/><rect x="127.65" y="26.15" width="4.41" height="4.41" fill="#f7c45e"/><rect x="127.65" y="21.74" width="4.41" height="4.41" fill="#f7c45e"/><rect x="127.65" y="17.33" width="4.41" height="4.41" fill="#ffefa1"/><rect x="127.65" y="12.91" width="4.41" height="4.41" fill="#1b0003"/><rect x="132.06" y="61.45" width="4.41" height="4.41" fill="#1b0003"/><rect x="132.06" y="57.04" width="4.41" height="4.41" fill="#db6d12"/><rect x="132.06" y="52.63" width="4.41" height="4.41" fill="#f7c45e"/><rect x="132.06" y="48.22" width="4.41" height="4.41" fill="#f7c45e"/><rect x="132.06" y="43.8" width="4.41" height="4.41" fill="#f7c45e"/><rect x="132.06" y="39.39" width="4.41" height="4.41" fill="#f7c45e"/><rect x="132.06" y="34.98" width="4.41" height="4.41" fill="#f7c45e"/><rect x="132.06" y="30.56" width="4.41" height="4.41" fill="#f7c45e"/><rect x="132.06" y="26.15" width="4.41" height="4.41" fill="#ffefa1"/><rect x="132.06" y="21.74" width="4.41" height="4.41" fill="#ffefa1"/><rect x="132.06" y="17.33" width="4.41" height="4.41" fill="#1b0003"/><rect x="136.47" y="57.04" width="4.41" height="4.41" fill="#1b0003"/><rect x="136.47" y="52.63" width="4.41" height="4.41" fill="#1b0003"/><rect x="136.47" y="48.22" width="4.41" height="4.41" fill="#f7c45e"/><rect x="136.47" y="43.8" width="4.41" height="4.41" fill="#f7c45e"/><rect x="136.47" y="39.39" width="4.41" height="4.41" fill="#ffefa1"/><rect x="136.47" y="34.98" width="4.41" height="4.41" fill="#ffefa1"/><rect x="136.47" y="30.56" width="4.41" height="4.41" fill="#ffefa1"/><rect x="136.47" y="26.15" width="4.41" height="4.41" fill="#1b0003"/><rect x="136.47" y="21.74" width="4.41" height="4.41" fill="#1b0003"/><rect x="140.89" y="48.22" width="4.41" height="4.41" fill="#1b0003"/><rect x="140.89" y="43.8" width="4.41" height="4.41" fill="#1b0003"/><rect x="140.89" y="39.39" width="4.41" height="4.41" fill="#1b0003"/><rect x="140.89" y="34.98" width="4.41" height="4.41" fill="#1b0003"/><rect x="140.89" y="30.56" width="4.41" height="4.41" fill="#1b0003"/></g></g></g></g></svg>