<svg xmlns="http://www.w3.org/2000/svg" width="115.48" height="162.13" viewBox="0 0 115.48 162.13"><g id="Layer_2" data-name="Layer 2"><g id="items"><g id="Green_Potion" data-name="Green Potion"><path d="M110.3,162.13H5.18V157H0V67.38H5.18V62.2h31.1V37.73H31.1V10.37h5.18V5.18h5.19V0H74V5.18H79.2v5.19h5.18V37.73H79.2V62.2h31.1v5.18h5.18V157H110.3Zm-88.12-17H93.3V140h5.18V84.38H93.3V79.2H62.2v-57H53.28v57H22.18v5.18H17V140h5.18Z" fill="#fff"/><g id="Green_Potion-2" data-name="Green Potion"><rect x="101.8" y="143.26" width="5.18" height="5.18" fill="#1b0003"/><rect x="101.8" y="138.08" width="5.18" height="5.18" fill="#1b0003"/><rect x="101.8" y="132.9" width="5.18" height="5.18" fill="#1b0003"/><rect x="101.8" y="127.72" width="5.18" height="5.18" fill="#1b0003"/><rect x="101.8" y="122.53" width="5.18" height="5.18" fill="#1b0003"/><rect x="101.8" y="117.35" width="5.18" height="5.18" fill="#1b0003"/><rect x="101.8" y="112.17" width="5.18" height="5.18" fill="#1b0003"/><rect x="101.8" y="106.98" width="5.18" height="5.18" fill="#1b0003"/><rect x="101.8" y="101.8" width="5.18" height="5.18" fill="#1b0003"/><rect x="101.8" y="96.62" width="5.18" height="5.18" fill="#1b0003"/><rect x="101.8" y="91.43" width="5.18" height="5.18" fill="#1b0003"/><rect x="101.8" y="86.25" width="5.18" height="5.18" fill="#1b0003"/><rect x="101.8" y="81.07" width="5.18" height="5.18" fill="#1b0003"/><rect x="101.8" y="75.88" width="5.18" height="5.18" fill="#1b0003"/><rect x="96.62" y="148.45" width="5.18" height="5.18" fill="#1b0003"/><rect x="96.62" y="143.26" width="5.18" height="5.18" fill="#6a87af"/><rect x="96.62" y="138.08" width="5.18" height="5.18" fill="#6a87af"/><rect x="96.62" y="132.9" width="5.18" height="5.18" fill="#6a87af"/><rect x="96.62" y="127.72" width="5.18" height="5.18" fill="#6a87af"/><rect x="96.62" y="122.53" width="5.18" height="5.18" fill="#6a87af"/><rect x="96.62" y="117.35" width="5.18" height="5.18" fill="#6a87af"/><rect x="96.62" y="112.17" width="5.18" height="5.18" fill="#6a87af"/><rect x="96.62" y="106.98" width="5.18" height="5.18" fill="#6a87af"/><rect x="96.62" y="101.8" width="5.18" height="5.18" fill="#6a87af"/><rect x="96.62" y="96.62" width="5.18" height="5.18" fill="#6a87af"/><rect x="96.62" y="91.43" width="5.18" height="5.18" fill="#6a87af"/><rect x="96.62" y="86.25" width="5.18" height="5.18" fill="#6a87af"/><rect x="96.62" y="81.07" width="5.18" height="5.18" fill="#6a87af"/><rect x="96.62" y="75.88" width="5.18" height="5.18" fill="#6a87af"/><rect x="96.62" y="70.7" width="5.18" height="5.18" fill="#1b0003"/><rect x="91.43" y="148.45" width="5.18" height="5.18" fill="#1b0003"/><rect x="91.43" y="143.26" width="5.18" height="5.18" fill="#6a87af"/><rect x="91.43" y="138.08" width="5.18" height="5.18" fill="#6a87af"/><rect x="91.43" y="132.9" width="5.18" height="5.18" fill="#67ce3c"/><rect x="91.43" y="127.72" width="5.18" height="5.18" fill="#67ce3c"/><rect x="91.43" y="122.53" width="5.18" height="5.18" fill="#67ce3c"/><rect x="91.43" y="117.35" width="5.18" height="5.18" fill="#a0e84d"/><rect x="91.43" y="112.17" width="5.18" height="5.18" fill="#fff"/><rect x="91.43" y="106.98" width="5.18" height="5.18" fill="#fff"/><rect x="91.43" y="101.8" width="5.18" height="5.18" fill="#a0e84d"/><rect x="91.43" y="96.62" width="5.18" height="5.18" fill="#a0e84d"/><rect x="91.43" y="91.43" width="5.18" height="5.18" fill="#a0e84d"/><rect x="91.43" y="86.25" width="5.18" height="5.18" fill="#a0e84d"/><rect x="91.43" y="81.07" width="5.18" height="5.18" fill="#6a87af"/><rect x="91.43" y="75.88" width="5.18" height="5.18" fill="#6a87af"/><rect x="91.43" y="70.7" width="5.18" height="5.18" fill="#1b0003"/><rect x="86.25" y="148.45" width="5.18" height="5.18" fill="#1b0003"/><rect x="86.25" y="143.26" width="5.18" height="5.18" fill="#6a87af"/><rect x="86.25" y="138.08" width="5.18" height="5.18" fill="#67ce3c"/><rect x="86.25" y="132.9" width="5.18" height="5.18" fill="#67ce3c"/><rect x="86.25" y="127.72" width="5.18" height="5.18" fill="#67ce3c"/><rect x="86.25" y="122.53" width="5.18" height="5.18" fill="#a0e84d"/><rect x="86.25" y="117.35" width="5.18" height="5.18" fill="#a0e84d"/><rect x="86.25" y="112.17" width="5.18" height="5.18" fill="#a0e84d"/><rect x="86.25" y="106.98" width="5.18" height="5.18" fill="#67ce3c"/><rect x="86.25" y="101.8" width="5.18" height="5.18" fill="#fff"/><rect x="86.25" y="96.62" width="5.18" height="5.18" fill="#fff"/><rect x="86.25" y="91.43" width="5.18" height="5.18" fill="#fff"/><rect x="86.25" y="86.25" width="5.18" height="5.18" fill="#a0e84d"/><rect x="86.25" y="81.07" width="5.18" height="5.18" fill="#a0e84d"/><rect x="86.25" y="75.88" width="5.18" height="5.18" fill="#6a87af"/><rect x="86.25" y="70.7" width="5.18" height="5.18" fill="#1b0003"/><rect x="81.07" y="148.45" width="5.18" height="5.18" fill="#1b0003"/><rect x="81.07" y="143.26" width="5.18" height="5.18" fill="#6a87af"/><rect x="81.07" y="138.08" width="5.18" height="5.18" fill="#67ce3c"/><rect x="81.07" y="132.9" width="5.18" height="5.18" fill="#67ce3c"/><rect x="81.07" y="127.72" width="5.18" height="5.18" fill="#a0e84d"/><rect x="81.07" y="122.53" width="5.18" height="5.18" fill="#a0e84d"/><rect x="81.07" y="117.35" width="5.18" height="5.18" fill="#a0e84d"/><rect x="81.07" y="112.17" width="5.18" height="5.18" fill="#a0e84d"/><rect x="81.07" y="106.98" width="5.18" height="5.18" fill="#a0e84d"/><rect x="81.07" y="101.8" width="5.18" height="5.18" fill="#a0e84d"/><rect x="81.07" y="96.62" width="5.18" height="5.18" fill="#a0e84d"/><rect x="81.07" y="91.43" width="5.18" height="5.18" fill="#67ce3c"/><rect x="81.07" y="86.25" width="5.18" height="5.18" fill="#fff"/><rect x="81.07" y="81.07" width="5.18" height="5.18" fill="#a0e84d"/><rect x="81.07" y="75.88" width="5.18" height="5.18" fill="#6a87af"/><rect x="81.07" y="70.7" width="5.18" height="5.18" fill="#1b0003"/><rect x="75.88" y="148.45" width="5.18" height="5.18" fill="#1b0003"/><rect x="75.88" y="143.26" width="5.18" height="5.18" fill="#6a87af"/><rect x="75.88" y="138.08" width="5.18" height="5.18" fill="#67ce3c"/><rect x="75.88" y="132.9" width="5.18" height="5.18" fill="#a0e84d"/><rect x="75.88" y="127.72" width="5.18" height="5.18" fill="#a0e84d"/><rect x="75.88" y="122.53" width="5.18" height="5.18" fill="#ccf45f"/><rect x="75.88" y="117.35" width="5.18" height="5.18" fill="#ccf45f"/><rect x="75.88" y="112.17" width="5.18" height="5.18" fill="#ccf45f"/><rect x="75.88" y="106.98" width="5.18" height="5.18" fill="#ccf45f"/><rect x="75.88" y="101.8" width="5.18" height="5.18" fill="#ccf45f"/><rect x="75.88" y="96.62" width="5.18" height="5.18" fill="#ccf45f"/><rect x="75.88" y="91.43" width="5.18" height="5.18" fill="#ccf45f"/><rect x="75.88" y="86.25" width="5.18" height="5.18" fill="#ccf45f"/><rect x="75.88" y="81.07" width="5.18" height="5.18" fill="#fff"/><rect x="75.88" y="75.88" width="5.18" height="5.18" fill="#6a87af"/><rect x="75.88" y="70.7" width="5.18" height="5.18" fill="#1b0003"/><rect x="70.7" y="148.45" width="5.18" height="5.18" fill="#1b0003"/><rect x="70.7" y="143.26" width="5.18" height="5.18" fill="#6a87af"/><rect x="70.7" y="138.08" width="5.18" height="5.18" fill="#67ce3c"/><rect x="70.7" y="132.9" width="5.18" height="5.18" fill="#a0e84d"/><rect x="70.7" y="127.72" width="5.18" height="5.18" fill="#ccf45f"/><rect x="70.7" y="122.53" width="5.18" height="5.18" fill="#ccf45f"/><rect x="70.7" y="117.35" width="5.18" height="5.18" fill="#ccf45f"/><rect x="70.7" y="112.17" width="5.18" height="5.18" fill="#ccf45f"/><rect x="70.7" y="106.98" width="5.18" height="5.18" fill="#ccf45f"/><rect x="70.7" y="101.8" width="5.18" height="5.18" fill="#ccf45f"/><rect x="70.7" y="96.62" width="5.18" height="5.18" fill="#ccf45f"/><rect x="70.7" y="91.43" width="5.18" height="5.18" fill="#ccf45f"/><rect x="70.7" y="86.25" width="5.18" height="5.18" fill="#ccf45f"/><rect x="70.7" y="81.07" width="5.18" height="5.18" fill="#ccf45f"/><rect x="70.7" y="75.88" width="5.18" height="5.18" fill="#a3c6e2"/><rect x="70.7" y="70.7" width="5.18" height="5.18" fill="#1b0003"/><rect x="70.7" y="24.05" width="5.18" height="5.18" fill="#1b0003"/><rect x="70.7" y="18.87" width="5.18" height="5.18" fill="#1b0003"/><rect x="65.52" y="148.45" width="5.18" height="5.18" fill="#1b0003"/><rect x="65.52" y="143.26" width="5.18" height="5.18" fill="#6a87af"/><rect x="65.52" y="138.08" width="5.18" height="5.18" fill="#67ce3c"/><rect x="65.52" y="132.9" width="5.18" height="5.18" fill="#a0e84d"/><rect x="65.52" y="127.72" width="5.18" height="5.18" fill="#ccf45f"/><rect x="65.52" y="122.53" width="5.18" height="5.18" fill="#ccf45f"/><rect x="65.52" y="117.35" width="5.18" height="5.18" fill="#ccf45f"/><rect x="65.52" y="112.17" width="5.18" height="5.18" fill="#ccf45f"/><rect x="65.52" y="106.98" width="5.18" height="5.18" fill="#ccf45f"/><rect x="65.52" y="101.8" width="5.18" height="5.18" fill="#ccf45f"/><rect x="65.52" y="96.62" width="5.18" height="5.18" fill="#ccf45f"/><rect x="65.52" y="91.43" width="5.18" height="5.18" fill="#ccf45f"/><rect x="65.52" y="86.25" width="5.18" height="5.18" fill="#ccf45f"/><rect x="65.52" y="81.07" width="5.18" height="5.18" fill="#ccf45f"/><rect x="65.52" y="75.88" width="5.18" height="5.18" fill="#a3c6e2"/><rect x="65.52" y="70.7" width="5.18" height="5.18" fill="#223c5b"/><rect x="65.52" y="65.52" width="5.18" height="5.18" fill="#1b0003"/><rect x="65.52" y="60.33" width="5.18" height="5.18" fill="#1b0003"/><rect x="65.52" y="55.15" width="5.18" height="5.18" fill="#1b0003"/><rect x="65.52" y="49.97" width="5.18" height="5.18" fill="#1b0003"/><rect x="65.52" y="44.78" width="5.18" height="5.18" fill="#1b0003"/><rect x="65.52" y="39.6" width="5.18" height="5.18" fill="#1b0003"/><rect x="65.52" y="34.42" width="5.18" height="5.18" fill="#1b0003"/><rect x="65.52" y="29.23" width="5.18" height="5.18" fill="#1b0003"/><rect x="65.52" y="24.05" width="5.18" height="5.18" fill="#6a87af"/><rect x="65.52" y="18.87" width="5.18" height="5.18" fill="#1b0003"/><rect x="65.52" y="13.68" width="5.18" height="5.18" fill="#1b0003"/><rect x="60.33" y="148.45" width="5.18" height="5.18" fill="#1b0003"/><rect x="60.33" y="143.26" width="5.18" height="5.18" fill="#6a87af"/><rect x="60.33" y="138.08" width="5.18" height="5.18" fill="#67ce3c"/><rect x="60.33" y="132.9" width="5.18" height="5.18" fill="#a0e84d"/><rect x="60.33" y="127.72" width="5.18" height="5.18" fill="#ccf45f"/><rect x="60.33" y="122.53" width="5.18" height="5.18" fill="#ccf45f"/><rect x="60.33" y="117.35" width="5.18" height="5.18" fill="#ccf45f"/><rect x="60.33" y="112.17" width="5.18" height="5.18" fill="#ccf45f"/><rect x="60.33" y="106.98" width="5.18" height="5.18" fill="#ccf45f"/><rect x="60.33" y="101.8" width="5.18" height="5.18" fill="#ccf45f"/><rect x="60.33" y="96.62" width="5.18" height="5.18" fill="#ccf45f"/><rect x="60.33" y="91.43" width="5.18" height="5.18" fill="#ccf45f"/><rect x="60.33" y="86.25" width="5.18" height="5.18" fill="#ccf45f"/><rect x="60.33" y="81.07" width="5.18" height="5.18" fill="#ccf45f"/><rect x="60.33" y="75.88" width="5.18" height="5.18" fill="#a3c6e2"/><rect x="60.33" y="70.7" width="5.18" height="5.18" fill="#a3c6e2"/><rect x="60.33" y="65.52" width="5.18" height="5.18" fill="#a3c6e2"/><rect x="60.33" y="60.33" width="5.18" height="5.18" fill="#a3c6e2"/><rect x="60.33" y="55.15" width="5.18" height="5.18" fill="#a3c6e2"/><rect x="60.33" y="49.97" width="5.18" height="5.18" fill="#a3c6e2"/><rect x="60.33" y="44.78" width="5.18" height="5.18" fill="#6a87af"/><rect x="60.33" y="39.6" width="5.18" height="5.18" fill="#6a87af"/><rect x="60.33" y="34.42" width="5.18" height="5.18" fill="#6a87af"/><rect x="60.33" y="29.23" width="5.18" height="5.18" fill="#6a87af"/><rect x="60.33" y="24.05" width="5.18" height="5.18" fill="#7f1e14"/><rect x="60.33" y="18.87" width="5.18" height="5.18" fill="#1b0003"/><rect x="60.33" y="13.68" width="5.18" height="5.18" fill="#e86f3f"/><rect x="60.33" y="8.5" width="5.18" height="5.18" fill="#1b0003"/><rect x="55.15" y="148.45" width="5.18" height="5.18" fill="#1b0003"/><rect x="55.15" y="143.26" width="5.18" height="5.18" fill="#6a87af"/><rect x="55.15" y="138.08" width="5.18" height="5.18" fill="#67ce3c"/><rect x="55.15" y="132.9" width="5.18" height="5.18" fill="#a0e84d"/><rect x="55.15" y="127.72" width="5.18" height="5.18" fill="#ccf45f"/><rect x="55.15" y="122.53" width="5.18" height="5.18" fill="#ccf45f"/><rect x="55.15" y="117.35" width="5.18" height="5.18" fill="#ccf45f"/><rect x="55.15" y="112.17" width="5.18" height="5.18" fill="#ccf45f"/><rect x="55.15" y="106.98" width="5.18" height="5.18" fill="#ccf45f"/><rect x="55.15" y="101.8" width="5.18" height="5.18" fill="#ccf45f"/><rect x="55.15" y="96.62" width="5.18" height="5.18" fill="#ccf45f"/><rect x="55.15" y="91.43" width="5.18" height="5.18" fill="#ccf45f"/><rect x="55.15" y="86.25" width="5.18" height="5.18" fill="#ccf45f"/><rect x="55.15" y="81.07" width="5.18" height="5.18" fill="#ccf45f"/><rect x="55.15" y="75.88" width="5.18" height="5.18" fill="#fff"/><rect x="55.15" y="70.7" width="5.18" height="5.18" fill="#fff"/><rect x="55.15" y="65.52" width="5.18" height="5.18" fill="#fff"/><rect x="55.15" y="60.33" width="5.18" height="5.18" fill="#fff"/><rect x="55.15" y="55.15" width="5.18" height="5.18" fill="#fff"/><rect x="55.15" y="49.97" width="5.18" height="5.18" fill="#fff"/><rect x="55.15" y="44.78" width="5.18" height="5.18" fill="#fff"/><rect x="55.15" y="39.6" width="5.18" height="5.18" fill="#fff"/><rect x="55.15" y="34.42" width="5.18" height="5.18" fill="#fff"/><rect x="55.15" y="29.23" width="5.18" height="5.18" fill="#fff"/><rect x="55.15" y="24.05" width="5.18" height="5.18" fill="#7f1e14"/><rect x="55.15" y="18.87" width="5.18" height="5.18" fill="#1b0003"/><rect x="55.15" y="13.68" width="5.18" height="5.18" fill="#e86f3f"/><rect x="55.15" y="8.5" width="5.18" height="5.18" fill="#1b0003"/><rect x="49.97" y="148.45" width="5.18" height="5.18" fill="#1b0003"/><rect x="49.97" y="143.26" width="5.18" height="5.18" fill="#6a87af"/><rect x="49.97" y="138.08" width="5.18" height="5.18" fill="#67ce3c"/><rect x="49.97" y="132.9" width="5.18" height="5.18" fill="#a0e84d"/><rect x="49.97" y="127.72" width="5.18" height="5.18" fill="#ccf45f"/><rect x="49.97" y="122.53" width="5.18" height="5.18" fill="#ccf45f"/><rect x="49.97" y="117.35" width="5.18" height="5.18" fill="#ccf45f"/><rect x="49.97" y="112.17" width="5.18" height="5.18" fill="#ccf45f"/><rect x="49.97" y="106.98" width="5.18" height="5.18" fill="#ccf45f"/><rect x="49.97" y="101.8" width="5.18" height="5.18" fill="#ccf45f"/><rect x="49.97" y="96.62" width="5.18" height="5.18" fill="#ccf45f"/><rect x="49.97" y="91.43" width="5.18" height="5.18" fill="#ccf45f"/><rect x="49.97" y="86.25" width="5.18" height="5.18" fill="#f7f7c1"/><rect x="49.97" y="81.07" width="5.18" height="5.18" fill="#f7f7c1"/><rect x="49.97" y="75.88" width="5.18" height="5.18" fill="#a3c6e2"/><rect x="49.97" y="70.7" width="5.18" height="5.18" fill="#bedbed"/><rect x="49.97" y="65.52" width="5.18" height="5.18" fill="#bedbed"/><rect x="49.97" y="60.33" width="5.18" height="5.18" fill="#bedbed"/><rect x="49.97" y="55.15" width="5.18" height="5.18" fill="#bedbed"/><rect x="49.97" y="49.97" width="5.18" height="5.18" fill="#bedbed"/><rect x="49.97" y="44.78" width="5.18" height="5.18" fill="#bedbed"/><rect x="49.97" y="39.6" width="5.18" height="5.18" fill="#bedbed"/><rect x="49.97" y="34.42" width="5.18" height="5.18" fill="#bedbed"/><rect x="49.97" y="29.23" width="5.18" height="5.18" fill="#6a87af"/><rect x="49.97" y="24.05" width="5.18" height="5.18" fill="#7f1e14"/><rect x="49.97" y="18.87" width="5.18" height="5.18" fill="#1b0003"/><rect x="49.97" y="13.68" width="5.18" height="5.18" fill="#f2904e"/><rect x="49.97" y="8.5" width="5.18" height="5.18" fill="#1b0003"/><rect x="44.78" y="148.45" width="5.18" height="5.18" fill="#1b0003"/><rect x="44.78" y="143.26" width="5.18" height="5.18" fill="#6a87af"/><rect x="44.78" y="138.08" width="5.18" height="5.18" fill="#f7f7c1"/><rect x="44.78" y="132.9" width="5.18" height="5.18" fill="#f7f7c1"/><rect x="44.78" y="127.72" width="5.18" height="5.18" fill="#f7f7c1"/><rect x="44.78" y="122.53" width="5.18" height="5.18" fill="#f7f7c1"/><rect x="44.78" y="117.35" width="5.18" height="5.18" fill="#f7f7c1"/><rect x="44.78" y="112.17" width="5.18" height="5.18" fill="#f7f7c1"/><rect x="44.78" y="106.98" width="5.18" height="5.18" fill="#f7f7c1"/><rect x="44.78" y="101.8" width="5.18" height="5.18" fill="#f7f7c1"/><rect x="44.78" y="96.62" width="5.18" height="5.18" fill="#f7f7c1"/><rect x="44.78" y="91.43" width="5.18" height="5.18" fill="#f7f7c1"/><rect x="44.78" y="86.25" width="5.18" height="5.18" fill="#ccf45f"/><rect x="44.78" y="81.07" width="5.18" height="5.18" fill="#fff"/><rect x="44.78" y="75.88" width="5.18" height="5.18" fill="#fff"/><rect x="44.78" y="70.7" width="5.18" height="5.18" fill="#223c5b"/><rect x="44.78" y="65.52" width="5.18" height="5.18" fill="#1b0003"/><rect x="44.78" y="60.33" width="5.18" height="5.18" fill="#1b0003"/><rect x="44.78" y="55.15" width="5.18" height="5.18" fill="#1b0003"/><rect x="44.78" y="49.97" width="5.18" height="5.18" fill="#1b0003"/><rect x="44.78" y="44.78" width="5.18" height="5.18" fill="#1b0003"/><rect x="44.78" y="39.6" width="5.18" height="5.18" fill="#1b0003"/><rect x="44.78" y="34.42" width="5.18" height="5.18" fill="#1b0003"/><rect x="44.78" y="29.23" width="5.18" height="5.18" fill="#1b0003"/><rect x="44.78" y="24.05" width="5.18" height="5.18" fill="#6a87af"/><rect x="44.78" y="18.87" width="5.18" height="5.18" fill="#1b0003"/><rect x="44.78" y="13.68" width="5.18" height="5.18" fill="#1b0003"/><rect x="39.6" y="148.45" width="5.18" height="5.18" fill="#1b0003"/><rect x="39.6" y="143.26" width="5.18" height="5.18" fill="#6a87af"/><rect x="39.6" y="138.08" width="5.18" height="5.18" fill="#f7f7c1"/><rect x="39.6" y="132.9" width="5.18" height="5.18" fill="#f7f7c1"/><rect x="39.6" y="127.72" width="5.18" height="5.18" fill="#f7f7c1"/><rect x="39.6" y="122.53" width="5.18" height="5.18" fill="#f7f7c1"/><rect x="39.6" y="117.35" width="5.18" height="5.18" fill="#f7f7c1"/><rect x="39.6" y="112.17" width="5.18" height="5.18" fill="#f7f7c1"/><rect x="39.6" y="106.98" width="5.18" height="5.18" fill="#f7f7c1"/><rect x="39.6" y="101.8" width="5.18" height="5.18" fill="#f7f7c1"/><rect x="39.6" y="96.62" width="5.18" height="5.18" fill="#f7f7c1"/><rect x="39.6" y="91.43" width="5.18" height="5.18" fill="#ccf45f"/><rect x="39.6" y="86.25" width="5.18" height="5.18" fill="#fff"/><rect x="39.6" y="81.07" width="5.18" height="5.18" fill="#fff"/><rect x="39.6" y="75.88" width="5.18" height="5.18" fill="#fff"/><rect x="39.6" y="70.7" width="5.18" height="5.18" fill="#1b0003"/><rect x="39.6" y="24.05" width="5.18" height="5.18" fill="#1b0003"/><rect x="39.6" y="18.87" width="5.18" height="5.18" fill="#1b0003"/><rect x="34.42" y="148.45" width="5.18" height="5.18" fill="#1b0003"/><rect x="34.42" y="143.26" width="5.18" height="5.18" fill="#6a87af"/><rect x="34.42" y="138.08" width="5.18" height="5.18" fill="#f7f7c1"/><rect x="34.42" y="132.9" width="5.18" height="5.18" fill="#f7f7c1"/><rect x="34.42" y="127.72" width="5.18" height="5.18" fill="#f7f7c1"/><rect x="34.42" y="122.53" width="5.18" height="5.18" fill="#f7f7c1"/><rect x="34.42" y="117.35" width="5.18" height="5.18" fill="#f7f7c1"/><rect x="34.42" y="112.17" width="5.18" height="5.18" fill="#f7f7c1"/><rect x="34.42" y="106.98" width="5.18" height="5.18" fill="#f7f7c1"/><rect x="34.42" y="101.8" width="5.18" height="5.18" fill="#f7f7c1"/><rect x="34.42" y="96.62" width="5.18" height="5.18" fill="#ccf45f"/><rect x="34.42" y="91.43" width="5.18" height="5.18" fill="#fff"/><rect x="34.42" y="86.25" width="5.18" height="5.18" fill="#fff"/><rect x="34.42" y="81.07" width="5.18" height="5.18" fill="#fff"/><rect x="34.42" y="75.88" width="5.18" height="5.18" fill="#fff"/><rect x="34.42" y="70.7" width="5.18" height="5.18" fill="#1b0003"/><rect x="29.23" y="148.45" width="5.18" height="5.18" fill="#1b0003"/><rect x="29.23" y="143.26" width="5.18" height="5.18" fill="#6a87af"/><rect x="29.23" y="138.08" width="5.18" height="5.18" fill="#f7f7c1"/><rect x="29.23" y="132.9" width="5.18" height="5.18" fill="#f7f7c1"/><rect x="29.23" y="127.72" width="5.18" height="5.18" fill="#f7f7c1"/><rect x="29.23" y="122.53" width="5.18" height="5.18" fill="#f7f7c1"/><rect x="29.23" y="117.35" width="5.18" height="5.18" fill="#f7f7c1"/><rect x="29.23" y="112.17" width="5.18" height="5.18" fill="#f7f7c1"/><rect x="29.23" y="106.98" width="5.18" height="5.18" fill="#f7f7c1"/><rect x="29.23" y="101.8" width="5.18" height="5.18" fill="#ccf45f"/><rect x="29.23" y="96.62" width="5.18" height="5.18" fill="#fff"/><rect x="29.23" y="91.43" width="5.18" height="5.18" fill="#fff"/><rect x="29.23" y="86.25" width="5.18" height="5.18" fill="#fff"/><rect x="29.23" y="81.07" width="5.18" height="5.18" fill="#fff"/><rect x="29.23" y="75.88" width="5.18" height="5.18" fill="#fff"/><rect x="29.23" y="70.7" width="5.18" height="5.18" fill="#1b0003"/><rect x="24.05" y="148.45" width="5.18" height="5.18" fill="#1b0003"/><rect x="24.05" y="143.26" width="5.18" height="5.18" fill="#6a87af"/><rect x="24.05" y="138.08" width="5.18" height="5.18" fill="#f7f7c1"/><rect x="24.05" y="132.9" width="5.18" height="5.18" fill="#fff"/><rect x="24.05" y="127.72" width="5.18" height="5.18" fill="#fff"/><rect x="24.05" y="122.53" width="5.18" height="5.18" fill="#f7f7c1"/><rect x="24.05" y="117.35" width="5.18" height="5.18" fill="#fff"/><rect x="24.05" y="112.17" width="5.18" height="5.18" fill="#fff"/><rect x="24.05" y="106.98" width="5.18" height="5.18" fill="#fff"/><rect x="24.05" y="101.8" width="5.18" height="5.18" fill="#fff"/><rect x="24.05" y="96.62" width="5.18" height="5.18" fill="#fff"/><rect x="24.05" y="91.43" width="5.18" height="5.18" fill="#fff"/><rect x="24.05" y="86.25" width="5.18" height="5.18" fill="#fff"/><rect x="24.05" y="81.07" width="5.18" height="5.18" fill="#fff"/><rect x="24.05" y="75.88" width="5.18" height="5.18" fill="#fff"/><rect x="24.05" y="70.7" width="5.18" height="5.18" fill="#1b0003"/><rect x="18.87" y="148.45" width="5.18" height="5.18" fill="#1b0003"/><rect x="18.87" y="143.26" width="5.18" height="5.18" fill="#6a87af"/><rect x="18.87" y="138.08" width="5.18" height="5.18" fill="#6a87af"/><rect x="18.87" y="132.9" width="5.18" height="5.18" fill="#f7f7c1"/><rect x="18.87" y="127.72" width="5.18" height="5.18" fill="#f7f7c1"/><rect x="18.87" y="122.53" width="5.18" height="5.18" fill="#f7f7c1"/><rect x="18.87" y="117.35" width="5.18" height="5.18" fill="#f7f7c1"/><rect x="18.87" y="112.17" width="5.18" height="5.18" fill="#f7f7c1"/><rect x="18.87" y="106.98" width="5.18" height="5.18" fill="#f7f7c1"/><rect x="18.87" y="101.8" width="5.18" height="5.18" fill="#f7f7c1"/><rect x="18.87" y="96.62" width="5.18" height="5.18" fill="#f7f7c1"/><rect x="18.87" y="91.43" width="5.18" height="5.18" fill="#f7f7c1"/><rect x="18.87" y="86.25" width="5.18" height="5.18" fill="#f7f7c1"/><rect x="18.87" y="81.07" width="5.18" height="5.18" fill="#a3c6e2"/><rect x="18.87" y="75.88" width="5.18" height="5.18" fill="#fff"/><rect x="18.87" y="70.7" width="5.18" height="5.18" fill="#1b0003"/><rect x="13.68" y="148.45" width="5.18" height="5.18" fill="#1b0003"/><rect x="13.68" y="143.26" width="5.18" height="5.18" fill="#6a87af"/><rect x="13.68" y="138.08" width="5.18" height="5.18" fill="#6a87af"/><rect x="13.68" y="132.9" width="5.18" height="5.18" fill="#6a87af"/><rect x="13.68" y="127.72" width="5.18" height="5.18" fill="#6a87af"/><rect x="13.68" y="122.53" width="5.18" height="5.18" fill="#6a87af"/><rect x="13.68" y="117.35" width="5.18" height="5.18" fill="#6a87af"/><rect x="13.68" y="112.17" width="5.18" height="5.18" fill="#6a87af"/><rect x="13.68" y="106.98" width="5.18" height="5.18" fill="#a3c6e2"/><rect x="13.68" y="101.8" width="5.18" height="5.18" fill="#a3c6e2"/><rect x="13.68" y="96.62" width="5.18" height="5.18" fill="#a3c6e2"/><rect x="13.68" y="91.43" width="5.18" height="5.18" fill="#a3c6e2"/><rect x="13.68" y="86.25" width="5.18" height="5.18" fill="#a3c6e2"/><rect x="13.68" y="81.07" width="5.18" height="5.18" fill="#a3c6e2"/><rect x="13.68" y="75.88" width="5.18" height="5.18" fill="#fff"/><rect x="13.68" y="70.7" width="5.18" height="5.18" fill="#1b0003"/><rect x="8.5" y="143.26" width="5.18" height="5.18" fill="#1b0003"/><rect x="8.5" y="138.08" width="5.18" height="5.18" fill="#1b0003"/><rect x="8.5" y="132.9" width="5.18" height="5.18" fill="#1b0003"/><rect x="8.5" y="127.72" width="5.18" height="5.18" fill="#1b0003"/><rect x="8.5" y="122.53" width="5.18" height="5.18" fill="#1b0003"/><rect x="8.5" y="117.35" width="5.18" height="5.18" fill="#1b0003"/><rect x="8.5" y="112.17" width="5.18" height="5.18" fill="#1b0003"/><rect x="8.5" y="106.98" width="5.18" height="5.18" fill="#1b0003"/><rect x="8.5" y="101.8" width="5.18" height="5.18" fill="#1b0003"/><rect x="8.5" y="96.62" width="5.18" height="5.18" fill="#1b0003"/><rect x="8.5" y="91.43" width="5.18" height="5.18" fill="#1b0003"/><rect x="8.5" y="86.25" width="5.18" height="5.18" fill="#1b0003"/><rect x="8.5" y="81.07" width="5.18" height="5.18" fill="#1b0003"/><rect x="8.5" y="75.88" width="5.18" height="5.18" fill="#1b0003"/></g></g></g></g></svg>