<svg xmlns="http://www.w3.org/2000/svg" width="189.79" height="160" viewBox="0 0 189.79 160"><g id="Layer_2" data-name="Layer 2"><g id="items"><g id="Grilled_Fish" data-name="Grilled Fish"><path d="M183.83,131.08v-6h-6v-6h-6v-6H166v-12.8h5.95V88.5h6V29.79h-6V17.87H166v-6h-6V6H113.21v6h-6v6h-6v6h-6V35.75H88.5v-6h-6v-6h-6v-6h-6v-6h-6V6h-6V0h-23V6h-6v23h6v5.95h6v6h6v6h5.95v6h6v6h6v6h6V71.5H59.58v6H46.79v-6H28.92v-6H0v34.87H6v11.92h6v11.92h6v23.83h5.95v6h23v-6h6V136.16h6V124.25H83.42v6H137v5.95h6v6h6v6h5.95v6h6v6h23v-6h6v-23ZM154.91,83.41H149v6h-6v6h-6v11.92H119.16v6H100.42v-6H82.54v-6H47.67v6h-6v11.91h-6v11.92h-.87V107.25h-6V95.33H23V88.5h6.83v6H76.58v-6H88.5v-6h6V64.67h11.91v-6h6V40.83h6v-6h6V28.92h6V23H143v6h6v5.95h5.95V46.79h6V71.5h-6Z" fill="#fff"/><g id="Grilled_Fish-2" data-name="Grilled Fish"><rect x="175.33" y="139.58" width="5.96" height="5.96" fill="#1b0003"/><rect x="169.37" y="145.54" width="5.96" height="5.96" fill="#1b0003"/><rect x="169.37" y="139.58" width="5.96" height="5.96" fill="#ef8741"/><rect x="169.37" y="133.62" width="5.96" height="5.96" fill="#1b0003"/><rect x="163.41" y="139.58" width="5.96" height="5.96" fill="#1b0003"/><rect x="163.41" y="133.62" width="5.96" height="5.96" fill="#ef8741"/><rect x="163.41" y="127.66" width="5.96" height="5.96" fill="#1b0003"/><rect x="163.41" y="74.04" width="5.96" height="5.96" fill="#1b0003"/><rect x="163.41" y="68.08" width="5.96" height="5.96" fill="#1b0003"/><rect x="163.41" y="62.12" width="5.96" height="5.96" fill="#1b0003"/><rect x="163.41" y="56.16" width="5.96" height="5.96" fill="#1b0003"/><rect x="163.41" y="50.21" width="5.96" height="5.96" fill="#1b0003"/><rect x="163.41" y="44.25" width="5.96" height="5.96" fill="#1b0003"/><rect x="163.41" y="38.29" width="5.96" height="5.96" fill="#1b0003"/><rect x="157.46" y="133.62" width="5.96" height="5.96" fill="#1b0003"/><rect x="157.46" y="127.66" width="5.96" height="5.96" fill="#a84a24"/><rect x="157.46" y="121.71" width="5.96" height="5.96" fill="#1b0003"/><rect x="157.46" y="85.96" width="5.96" height="5.96" fill="#1b0003"/><rect x="157.46" y="80" width="5.96" height="5.96" fill="#1b0003"/><rect x="157.46" y="74.04" width="5.96" height="5.96" fill="#a84a24"/><rect x="157.46" y="68.08" width="5.96" height="5.96" fill="#a84a24"/><rect x="157.46" y="62.12" width="5.96" height="5.96" fill="#a84a24"/><rect x="157.46" y="56.16" width="5.96" height="5.96" fill="#a84a24"/><rect x="157.46" y="50.21" width="5.96" height="5.96" fill="#a84a24"/><rect x="157.46" y="44.25" width="5.96" height="5.96" fill="#a84a24"/><rect x="157.46" y="38.29" width="5.96" height="5.96" fill="#ef8741"/><rect x="157.46" y="32.33" width="5.96" height="5.96" fill="#1b0003"/><rect x="157.46" y="26.37" width="5.96" height="5.96" fill="#1b0003"/><rect x="151.5" y="127.66" width="5.96" height="5.96" fill="#1b0003"/><rect x="151.5" y="121.71" width="5.96" height="5.96" fill="#a84a24"/><rect x="151.5" y="115.75" width="5.96" height="5.96" fill="#1b0003"/><rect x="151.5" y="91.91" width="5.96" height="5.96" fill="#1b0003"/><rect x="151.5" y="85.96" width="5.96" height="5.96" fill="#a84a24"/><rect x="151.5" y="80" width="5.96" height="5.96" fill="#a84a24"/><rect x="151.5" y="74.04" width="5.96" height="5.96" fill="#a84a24"/><rect x="151.5" y="68.08" width="5.96" height="5.96" fill="#ef8741"/><rect x="151.5" y="62.12" width="5.96" height="5.96" fill="#ef8741"/><rect x="151.5" y="56.16" width="5.96" height="5.96" fill="#ef8741"/><rect x="151.5" y="50.21" width="5.96" height="5.96" fill="#ef8741"/><rect x="151.5" y="44.25" width="5.96" height="5.96" fill="#ef8741"/><rect x="151.5" y="38.29" width="5.96" height="5.96" fill="#fa9c5c"/><rect x="151.5" y="32.33" width="5.96" height="5.96" fill="#fa9c5c"/><rect x="151.5" y="26.37" width="5.96" height="5.96" fill="#fa9c5c"/><rect x="151.5" y="20.42" width="5.96" height="5.96" fill="#1b0003"/><rect x="145.54" y="121.71" width="5.96" height="5.96" fill="#1b0003"/><rect x="145.54" y="115.75" width="5.96" height="5.96" fill="#a84a24"/><rect x="145.54" y="109.79" width="5.96" height="5.96" fill="#1b0003"/><rect x="145.54" y="97.87" width="5.96" height="5.96" fill="#1b0003"/><rect x="145.54" y="91.91" width="5.96" height="5.96" fill="#a84a24"/><rect x="145.54" y="85.96" width="5.96" height="5.96" fill="#a84a24"/><rect x="145.54" y="80" width="5.96" height="5.96" fill="#a84a24"/><rect x="145.54" y="74.04" width="5.96" height="5.96" fill="#ef8741"/><rect x="145.54" y="68.08" width="5.96" height="5.96" fill="#ef8741"/><rect x="145.54" y="62.12" width="5.96" height="5.96" fill="#ef8741"/><rect x="145.54" y="56.16" width="5.96" height="5.96" fill="#fa9c5c"/><rect x="145.54" y="50.21" width="5.96" height="5.96" fill="#ef8741"/><rect x="145.54" y="44.25" width="5.96" height="5.96" fill="#fa9c5c"/><rect x="145.54" y="38.29" width="5.96" height="5.96" fill="#fa9c5c"/><rect x="145.54" y="32.33" width="5.96" height="5.96" fill="#fa9c5c"/><rect x="145.54" y="26.37" width="5.96" height="5.96" fill="#fa9c5c"/><rect x="145.54" y="20.42" width="5.96" height="5.96" fill="#fa9c5c"/><rect x="145.54" y="14.46" width="5.96" height="5.96" fill="#1b0003"/><rect x="139.58" y="115.75" width="5.96" height="5.96" fill="#1b0003"/><rect x="139.58" y="109.79" width="5.96" height="5.96" fill="#a84a24"/><rect x="139.58" y="103.83" width="5.96" height="5.96" fill="#1b0003"/><rect x="139.58" y="97.87" width="5.96" height="5.96" fill="#a84a24"/><rect x="139.58" y="91.91" width="5.96" height="5.96" fill="#a84a24"/><rect x="139.58" y="85.96" width="5.96" height="5.96" fill="#ef8741"/><rect x="139.58" y="80" width="5.96" height="5.96" fill="#ef8741"/><rect x="139.58" y="74.04" width="5.96" height="5.96" fill="#ef8741"/><rect x="139.58" y="68.08" width="5.96" height="5.96" fill="#fa9c5c"/><rect x="139.58" y="62.12" width="5.96" height="5.96" fill="#fa9c5c"/><rect x="139.58" y="56.16" width="5.96" height="5.96" fill="#fa9c5c"/><rect x="139.58" y="50.21" width="5.96" height="5.96" fill="#ef8741"/><rect x="139.58" y="44.25" width="5.96" height="5.96" fill="#fa9c5c"/><rect x="139.58" y="38.29" width="5.96" height="5.96" fill="#fa9c5c"/><rect x="139.58" y="32.33" width="5.96" height="5.96" fill="#fa9c5c"/><rect x="139.58" y="26.37" width="5.96" height="5.96" fill="#fa9c5c"/><rect x="139.58" y="20.42" width="5.96" height="5.96" fill="#fa9c5c"/><rect x="139.58" y="14.46" width="5.96" height="5.96" fill="#1b0003"/><rect x="133.62" y="109.79" width="5.96" height="5.96" fill="#1b0003"/><rect x="133.62" y="103.83" width="5.96" height="5.96" fill="#a84a24"/><rect x="133.62" y="97.87" width="5.96" height="5.96" fill="#a84a24"/><rect x="133.62" y="91.91" width="5.96" height="5.96" fill="#ef8741"/><rect x="133.62" y="85.96" width="5.96" height="5.96" fill="#ef8741"/><rect x="133.62" y="80" width="5.96" height="5.96" fill="#fa9c5c"/><rect x="133.62" y="74.04" width="5.96" height="5.96" fill="#fa9c5c"/><rect x="133.62" y="68.08" width="5.96" height="5.96" fill="#fa9c5c"/><rect x="133.62" y="62.12" width="5.96" height="5.96" fill="#fa9c5c"/><rect x="133.62" y="56.16" width="5.96" height="5.96" fill="#fa9c5c"/><rect x="133.62" y="50.21" width="5.96" height="5.96" fill="#ef8741"/><rect x="133.62" y="44.25" width="5.96" height="5.96" fill="#fa9c5c"/><rect x="133.62" y="38.29" width="5.96" height="5.96" fill="#a84a24"/><rect x="133.62" y="32.33" width="5.96" height="5.96" fill="#fa9c5c"/><rect x="133.62" y="26.37" width="5.96" height="5.96" fill="#a84a24"/><rect x="133.62" y="20.42" width="5.96" height="5.96" fill="#fa9c5c"/><rect x="133.62" y="14.46" width="5.96" height="5.96" fill="#1b0003"/><rect x="127.66" y="109.79" width="5.96" height="5.96" fill="#1b0003"/><rect x="127.66" y="103.83" width="5.96" height="5.96" fill="#a84a24"/><rect x="127.66" y="97.87" width="5.96" height="5.96" fill="#ef8741"/><rect x="127.66" y="91.91" width="5.96" height="5.96" fill="#ef8741"/><rect x="127.66" y="85.96" width="5.96" height="5.96" fill="#fa9c5c"/><rect x="127.66" y="80" width="5.96" height="5.96" fill="#fa9c5c"/><rect x="127.66" y="74.04" width="5.96" height="5.96" fill="#ef8741"/><rect x="127.66" y="68.08" width="5.96" height="5.96" fill="#fa9c5c"/><rect x="127.66" y="62.12" width="5.96" height="5.96" fill="#fa9c5c"/><rect x="127.66" y="56.16" width="5.96" height="5.96" fill="#fa9c5c"/><rect x="127.66" y="50.21" width="5.96" height="5.96" fill="#ef8741"/><rect x="127.66" y="44.25" width="5.96" height="5.96" fill="#fa9c5c"/><rect x="127.66" y="38.29" width="5.96" height="5.96" fill="#fa9c5c"/><rect x="127.66" y="32.33" width="5.96" height="5.96" fill="#a84a24"/><rect x="127.66" y="26.37" width="5.96" height="5.96" fill="#fa9c5c"/><rect x="127.66" y="20.42" width="5.96" height="5.96" fill="#fa9c5c"/><rect x="127.66" y="14.46" width="5.96" height="5.96" fill="#1b0003"/><rect x="121.71" y="115.75" width="5.96" height="5.96" fill="#1b0003"/><rect x="121.71" y="109.79" width="5.96" height="5.96" fill="#a84a24"/><rect x="121.71" y="103.83" width="5.96" height="5.96" fill="#a84a24"/><rect x="121.71" y="97.87" width="5.96" height="5.96" fill="#ef8741"/><rect x="121.71" y="91.91" width="5.96" height="5.96" fill="#fa9c5c"/><rect x="121.71" y="85.96" width="5.96" height="5.96" fill="#fa9c5c"/><rect x="121.71" y="80" width="5.96" height="5.96" fill="#fa9c5c"/><rect x="121.71" y="74.04" width="5.96" height="5.96" fill="#fa9c5c"/><rect x="121.71" y="68.08" width="5.96" height="5.96" fill="#ef8741"/><rect x="121.71" y="62.12" width="5.96" height="5.96" fill="#fa9c5c"/><rect x="121.71" y="56.16" width="5.96" height="5.96" fill="#fa9c5c"/><rect x="121.71" y="50.21" width="5.96" height="5.96" fill="#ef8741"/><rect x="121.71" y="44.25" width="5.96" height="5.96" fill="#fa9c5c"/><rect x="121.71" y="38.29" width="5.96" height="5.96" fill="#a84a24"/><rect x="121.71" y="32.33" width="5.96" height="5.96" fill="#fa9c5c"/><rect x="121.71" y="26.37" width="5.96" height="5.96" fill="#a84a24"/><rect x="121.71" y="20.42" width="5.96" height="5.96" fill="#fa9c5c"/><rect x="121.71" y="14.46" width="5.96" height="5.96" fill="#1b0003"/><rect x="115.75" y="115.75" width="5.96" height="5.96" fill="#1b0003"/><rect x="115.75" y="109.79" width="5.96" height="5.96" fill="#a84a24"/><rect x="115.75" y="103.83" width="5.96" height="5.96" fill="#ef8741"/><rect x="115.75" y="97.87" width="5.96" height="5.96" fill="#fa9c5c"/><rect x="115.75" y="91.91" width="5.96" height="5.96" fill="#fa9c5c"/><rect x="115.75" y="85.96" width="5.96" height="5.96" fill="#fa9c5c"/><rect x="115.75" y="80" width="5.96" height="5.96" fill="#fa9c5c"/><rect x="115.75" y="74.04" width="5.96" height="5.96" fill="#fa9c5c"/><rect x="115.75" y="68.08" width="5.96" height="5.96" fill="#ef8741"/><rect x="115.75" y="62.12" width="5.96" height="5.96" fill="#ef8741"/><rect x="115.75" y="56.16" width="5.96" height="5.96" fill="#fa9c5c"/><rect x="115.75" y="50.21" width="5.96" height="5.96" fill="#ef8741"/><rect x="115.75" y="44.25" width="5.96" height="5.96" fill="#fa9c5c"/><rect x="115.75" y="38.29" width="5.96" height="5.96" fill="#fa9c5c"/><rect x="115.75" y="32.33" width="5.96" height="5.96" fill="#fa9c5c"/><rect x="115.75" y="26.37" width="5.96" height="5.96" fill="#fa9c5c"/><rect x="115.75" y="20.42" width="5.96" height="5.96" fill="#1b0003"/><rect x="109.79" y="115.75" width="5.96" height="5.96" fill="#1b0003"/><rect x="109.79" y="109.79" width="5.96" height="5.96" fill="#a84a24"/><rect x="109.79" y="103.83" width="5.96" height="5.96" fill="#ef8741"/><rect x="109.79" y="97.87" width="5.96" height="5.96" fill="#fa9c5c"/><rect x="109.79" y="91.91" width="5.96" height="5.96" fill="#fa9c5c"/><rect x="109.79" y="85.96" width="5.96" height="5.96" fill="#ef8741"/><rect x="109.79" y="80" width="5.96" height="5.96" fill="#fa9c5c"/><rect x="109.79" y="74.04" width="5.96" height="5.96" fill="#fa9c5c"/><rect x="109.79" y="68.08" width="5.96" height="5.96" fill="#fa9c5c"/><rect x="109.79" y="62.12" width="5.96" height="5.96" fill="#ef8741"/><rect x="109.79" y="56.16" width="5.96" height="5.96" fill="#fa9c5c"/><rect x="109.79" y="50.21" width="5.96" height="5.96" fill="#fa9c5c"/><rect x="109.79" y="44.25" width="5.96" height="5.96" fill="#ef8741"/><rect x="109.79" y="38.29" width="5.96" height="5.96" fill="#fa9c5c"/><rect x="109.79" y="32.33" width="5.96" height="5.96" fill="#fa9c5c"/><rect x="109.79" y="26.37" width="5.96" height="5.96" fill="#1b0003"/><rect x="103.83" y="115.75" width="5.96" height="5.96" fill="#1b0003"/><rect x="103.83" y="109.79" width="5.96" height="5.96" fill="#a84a24"/><rect x="103.83" y="103.83" width="5.96" height="5.96" fill="#ef8741"/><rect x="103.83" y="97.87" width="5.96" height="5.96" fill="#fa9c5c"/><rect x="103.83" y="91.91" width="5.96" height="5.96" fill="#fa9c5c"/><rect x="103.83" y="85.96" width="5.96" height="5.96" fill="#fa9c5c"/><rect x="103.83" y="80" width="5.96" height="5.96" fill="#ef8741"/><rect x="103.83" y="74.04" width="5.96" height="5.96" fill="#fa9c5c"/><rect x="103.83" y="68.08" width="5.96" height="5.96" fill="#fa9c5c"/><rect x="103.83" y="62.12" width="5.96" height="5.96" fill="#ef8741"/><rect x="103.83" y="56.16" width="5.96" height="5.96" fill="#fa9c5c"/><rect x="103.83" y="50.21" width="5.96" height="5.96" fill="#fa9c5c"/><rect x="103.83" y="44.25" width="5.96" height="5.96" fill="#1b0003"/><rect x="103.83" y="38.29" width="5.96" height="5.96" fill="#1b0003"/><rect x="103.83" y="32.33" width="5.96" height="5.96" fill="#1b0003"/><rect x="97.87" y="115.75" width="5.96" height="5.96" fill="#1b0003"/><rect x="97.87" y="109.79" width="5.96" height="5.96" fill="#a84a24"/><rect x="97.87" y="103.83" width="5.96" height="5.96" fill="#ef8741"/><rect x="97.87" y="97.87" width="5.96" height="5.96" fill="#fa9c5c"/><rect x="97.87" y="91.91" width="5.96" height="5.96" fill="#fa9c5c"/><rect x="97.87" y="85.96" width="5.96" height="5.96" fill="#fa9c5c"/><rect x="97.87" y="80" width="5.96" height="5.96" fill="#ef8741"/><rect x="97.87" y="74.04" width="5.96" height="5.96" fill="#fa9c5c"/><rect x="97.87" y="68.08" width="5.96" height="5.96" fill="#fa9c5c"/><rect x="97.87" y="62.12" width="5.96" height="5.96" fill="#fa9c5c"/><rect x="97.87" y="56.16" width="5.96" height="5.96" fill="#fa9c5c"/><rect x="97.87" y="50.21" width="5.96" height="5.96" fill="#1b0003"/><rect x="91.92" y="115.75" width="5.96" height="5.96" fill="#1b0003"/><rect x="91.92" y="109.79" width="5.96" height="5.96" fill="#a84a24"/><rect x="91.92" y="103.83" width="5.96" height="5.96" fill="#ef8741"/><rect x="91.92" y="97.87" width="5.96" height="5.96" fill="#fa9c5c"/><rect x="91.92" y="91.91" width="5.96" height="5.96" fill="#ef8741"/><rect x="91.92" y="85.96" width="5.96" height="5.96" fill="#fa9c5c"/><rect x="91.92" y="80" width="5.96" height="5.96" fill="#fa9c5c"/><rect x="91.92" y="74.04" width="5.96" height="5.96" fill="#ef8741"/><rect x="91.92" y="68.08" width="5.96" height="5.96" fill="#fa9c5c"/><rect x="91.92" y="62.12" width="5.96" height="5.96" fill="#fa9c5c"/><rect x="91.92" y="56.16" width="5.96" height="5.96" fill="#1b0003"/><rect x="85.96" y="109.79" width="5.96" height="5.96" fill="#1b0003"/><rect x="85.96" y="103.83" width="5.96" height="5.96" fill="#ef8741"/><rect x="85.96" y="97.87" width="5.96" height="5.96" fill="#fa9c5c"/><rect x="85.96" y="91.91" width="5.96" height="5.96" fill="#ef8741"/><rect x="85.96" y="85.96" width="5.96" height="5.96" fill="#fa9c5c"/><rect x="85.96" y="80" width="5.96" height="5.96" fill="#fa9c5c"/><rect x="85.96" y="74.04" width="5.96" height="5.96" fill="#fa9c5c"/><rect x="85.96" y="68.08" width="5.96" height="5.96" fill="#1b0003"/><rect x="85.96" y="62.12" width="5.96" height="5.96" fill="#1b0003"/><rect x="85.96" y="56.16" width="5.96" height="5.96" fill="#a84a24"/><rect x="85.96" y="50.21" width="5.96" height="5.96" fill="#1b0003"/><rect x="80" y="109.79" width="5.96" height="5.96" fill="#1b0003"/><rect x="80" y="103.83" width="5.96" height="5.96" fill="#ef8741"/><rect x="80" y="97.87" width="5.96" height="5.96" fill="#ef8741"/><rect x="80" y="91.91" width="5.96" height="5.96" fill="#fa9c5c"/><rect x="80" y="85.96" width="5.96" height="5.96" fill="#ef8741"/><rect x="80" y="80" width="5.96" height="5.96" fill="#fa9c5c"/><rect x="80" y="74.04" width="5.96" height="5.96" fill="#1b0003"/><rect x="80" y="56.16" width="5.96" height="5.96" fill="#1b0003"/><rect x="80" y="50.21" width="5.96" height="5.96" fill="#a84a24"/><rect x="80" y="44.25" width="5.96" height="5.96" fill="#1b0003"/><rect x="74.04" y="109.79" width="5.96" height="5.96" fill="#1b0003"/><rect x="74.04" y="103.83" width="5.96" height="5.96" fill="#a84a24"/><rect x="74.04" y="97.87" width="5.96" height="5.96" fill="#a84a24"/><rect x="74.04" y="91.91" width="5.96" height="5.96" fill="#fa9c5c"/><rect x="74.04" y="85.96" width="5.96" height="5.96" fill="#fa9c5c"/><rect x="74.04" y="80" width="5.96" height="5.96" fill="#1b0003"/><rect x="74.04" y="50.21" width="5.96" height="5.96" fill="#1b0003"/><rect x="74.04" y="44.25" width="5.96" height="5.96" fill="#a84a24"/><rect x="74.04" y="38.29" width="5.96" height="5.96" fill="#1b0003"/><rect x="68.08" y="103.83" width="5.96" height="5.96" fill="#1b0003"/><rect x="68.08" y="97.87" width="5.96" height="5.96" fill="#a84a24"/><rect x="68.08" y="91.91" width="5.96" height="5.96" fill="#fa9c5c"/><rect x="68.08" y="85.96" width="5.96" height="5.96" fill="#fa9c5c"/><rect x="68.08" y="80" width="5.96" height="5.96" fill="#1b0003"/><rect x="68.08" y="44.25" width="5.96" height="5.96" fill="#1b0003"/><rect x="68.08" y="38.29" width="5.96" height="5.96" fill="#a84a24"/><rect x="68.08" y="32.33" width="5.96" height="5.96" fill="#1b0003"/><rect x="62.12" y="103.83" width="5.96" height="5.96" fill="#1b0003"/><rect x="62.12" y="97.87" width="5.96" height="5.96" fill="#a84a24"/><rect x="62.12" y="91.91" width="5.96" height="5.96" fill="#a84a24"/><rect x="62.12" y="85.96" width="5.96" height="5.96" fill="#1b0003"/><rect x="62.12" y="38.29" width="5.96" height="5.96" fill="#1b0003"/><rect x="62.12" y="32.33" width="5.96" height="5.96" fill="#ef8741"/><rect x="62.12" y="26.37" width="5.96" height="5.96" fill="#1b0003"/><rect x="56.17" y="85.96" width="5.96" height="5.96" fill="#1b0003"/><rect x="56.17" y="32.33" width="5.96" height="5.96" fill="#1b0003"/><rect x="56.17" y="26.37" width="5.96" height="5.96" fill="#a84a24"/><rect x="56.17" y="20.42" width="5.96" height="5.96" fill="#1b0003"/><rect x="56.17" y="103.83" width="5.96" height="5.96" fill="#1b0003"/><rect x="56.17" y="97.87" width="5.96" height="5.96" fill="#a84a24"/><rect x="56.17" y="91.91" width="5.96" height="5.96" fill="#fa9c5c"/><rect x="50.21" y="91.91" width="5.96" height="5.96" fill="#fa9c5c"/><rect x="50.21" y="85.96" width="5.96" height="5.96" fill="#1b0003"/><rect x="50.21" y="26.37" width="5.96" height="5.96" fill="#1b0003"/><rect x="50.21" y="20.42" width="5.96" height="5.96" fill="#ef8741"/><rect x="50.21" y="14.46" width="5.96" height="5.96" fill="#1b0003"/><rect x="50.21" y="109.79" width="5.96" height="5.96" fill="#1b0003"/><rect x="50.21" y="103.83" width="5.96" height="5.96" fill="#a84a24"/><rect x="50.21" y="97.87" width="5.96" height="5.96" fill="#a84a24"/><rect x="44.25" y="91.91" width="5.96" height="5.96" fill="#fa9c5c"/><rect x="44.25" y="85.96" width="5.96" height="5.96" fill="#1b0003"/><rect x="44.25" y="20.42" width="5.96" height="5.96" fill="#1b0003"/><rect x="44.25" y="14.46" width="5.96" height="5.96" fill="#ef8741"/><rect x="44.25" y="8.5" width="5.96" height="5.96" fill="#1b0003"/><rect x="44.25" y="121.71" width="5.96" height="5.96" fill="#1b0003"/><rect x="44.25" y="115.75" width="5.96" height="5.96" fill="#1b0003"/><rect x="44.25" y="109.79" width="5.96" height="5.96" fill="#a84a24"/><rect x="44.25" y="103.83" width="5.96" height="5.96" fill="#a84a24"/><rect x="44.25" y="97.87" width="5.96" height="5.96" fill="#ef8741"/><rect x="38.29" y="91.91" width="5.96" height="5.96" fill="#fa9c5c"/><rect x="38.29" y="85.96" width="5.96" height="5.96" fill="#1b0003"/><rect x="38.29" y="14.46" width="5.96" height="5.96" fill="#1b0003"/><rect x="38.29" y="133.62" width="5.96" height="5.96" fill="#1b0003"/><rect x="38.29" y="127.66" width="5.96" height="5.96" fill="#1b0003"/><rect x="38.29" y="121.71" width="5.96" height="5.96" fill="#a84a24"/><rect x="38.29" y="115.75" width="5.96" height="5.96" fill="#a84a24"/><rect x="38.29" y="109.79" width="5.96" height="5.96" fill="#ef8741"/><rect x="38.29" y="103.83" width="5.96" height="5.96" fill="#ef8741"/><rect x="38.29" y="97.87" width="5.96" height="5.96" fill="#ef8741"/><rect x="32.33" y="91.91" width="5.96" height="5.96" fill="#fa9c5c"/><rect x="32.33" y="85.96" width="5.96" height="5.96" fill="#fa9c5c"/><rect x="32.33" y="80" width="5.96" height="5.96" fill="#1b0003"/><rect x="32.33" y="139.58" width="5.96" height="5.96" fill="#1b0003"/><rect x="32.33" y="133.62" width="5.96" height="5.96" fill="#a84a24"/><rect x="32.33" y="127.66" width="5.96" height="5.96" fill="#a84a24"/><rect x="32.33" y="121.71" width="5.96" height="5.96" fill="#a84a24"/><rect x="32.33" y="115.75" width="5.96" height="5.96" fill="#a84a24"/><rect x="32.33" y="109.79" width="5.96" height="5.96" fill="#ef8741"/><rect x="32.33" y="103.83" width="5.96" height="5.96" fill="#ef8741"/><rect x="32.33" y="97.87" width="5.96" height="5.96" fill="#fa9c5c"/><rect x="26.38" y="91.91" width="5.96" height="5.96" fill="#fa9c5c"/><rect x="26.38" y="85.96" width="5.96" height="5.96" fill="#fa9c5c"/><rect x="26.38" y="80" width="5.96" height="5.96" fill="#1b0003"/><rect x="26.38" y="133.62" width="5.96" height="5.96" fill="#1b0003"/><rect x="26.38" y="127.66" width="5.96" height="5.96" fill="#1b0003"/><rect x="26.38" y="121.71" width="5.96" height="5.96" fill="#1b0003"/><rect x="26.38" y="115.75" width="5.96" height="5.96" fill="#1b0003"/><rect x="26.38" y="109.79" width="5.96" height="5.96" fill="#ef8741"/><rect x="26.38" y="103.83" width="5.96" height="5.96" fill="#fa9c5c"/><rect x="26.38" y="97.87" width="5.96" height="5.96" fill="#fa9c5c"/><rect x="20.42" y="91.91" width="5.96" height="5.96" fill="#fa9c5c"/><rect x="20.42" y="85.96" width="5.96" height="5.96" fill="#fa9c5c"/><rect x="20.42" y="80" width="5.96" height="5.96" fill="#1b0003"/><rect x="20.42" y="109.79" width="5.96" height="5.96" fill="#1b0003"/><rect x="20.42" y="103.83" width="5.96" height="5.96" fill="#1b0003"/><rect x="20.42" y="97.87" width="5.96" height="5.96" fill="#fa9c5c"/><rect x="14.46" y="91.91" width="5.96" height="5.96" fill="#1b0003"/><rect x="14.46" y="85.96" width="5.96" height="5.96" fill="#fa9c5c"/><rect x="14.46" y="80" width="5.96" height="5.96" fill="#fa9c5c"/><rect x="14.46" y="74.04" width="5.96" height="5.96" fill="#1b0003"/><rect x="14.46" y="97.87" width="5.96" height="5.96" fill="#1b0003"/><rect x="8.5" y="85.96" width="5.96" height="5.96" fill="#1b0003"/><rect x="8.5" y="80" width="5.96" height="5.96" fill="#1b0003"/><rect x="8.5" y="74.04" width="5.96" height="5.96" fill="#1b0003"/></g></g></g></g></svg>