<svg xmlns="http://www.w3.org/2000/svg" width="126.84" height="126.84" viewBox="0 0 126.84 126.84"><g id="Layer_2" data-name="Layer 2"><g id="items"><g id="Helmet"><path d="M109.5,126.84H75.15v-5.78H51.69v5.78H17.34v-5.78H11.56v-5.78H0V28.91H5.78V17.34h5.78V11.56h5.78V5.78H28.91V0h69V5.78H109.5v5.78h5.78v5.78h5.78V28.91h5.78v86.37H115.28v5.78H109.5Zm-17.35-17h.35v-5.78h5.78V98.28h11.56V45.91h-5.78V34.34H98.28V28.56H92.5V22.78H80.94V17h-35v5.78H34.34v5.78H28.56v5.78H22.78V45.91H17V98.28H28.56v5.78h5.78v5.78h.35v-5.78H92.15Z" fill="#fff"/><g id="Helmet-2" data-name="Helmet"><rect x="112.56" y="101" width="5.78" height="5.78" fill="#1b0003"/><rect x="112.56" y="95.22" width="5.78" height="5.78" fill="#1b0003"/><rect x="112.56" y="89.44" width="5.78" height="5.78" fill="#1b0003"/><rect x="112.56" y="83.65" width="5.78" height="5.78" fill="#1b0003"/><rect x="112.56" y="77.87" width="5.78" height="5.78" fill="#1b0003"/><rect x="112.56" y="72.09" width="5.78" height="5.78" fill="#1b0003"/><rect x="112.56" y="66.31" width="5.78" height="5.78" fill="#1b0003"/><rect x="112.56" y="60.53" width="5.78" height="5.78" fill="#1b0003"/><rect x="112.56" y="54.75" width="5.78" height="5.78" fill="#1b0003"/><rect x="112.56" y="48.97" width="5.78" height="5.78" fill="#1b0003"/><rect x="112.56" y="43.19" width="5.78" height="5.78" fill="#1b0003"/><rect x="112.56" y="37.41" width="5.78" height="5.78" fill="#1b0003"/><rect x="106.78" y="101" width="5.78" height="5.78" fill="#1b0003"/><rect x="106.78" y="95.22" width="5.78" height="5.78" fill="#223c5b"/><rect x="106.78" y="89.44" width="5.78" height="5.78" fill="#223c5b"/><rect x="106.78" y="83.65" width="5.78" height="5.78" fill="#85a1c9"/><rect x="106.78" y="77.87" width="5.78" height="5.78" fill="#223c5b"/><rect x="106.78" y="72.09" width="5.78" height="5.78" fill="#85a1c9"/><rect x="106.78" y="66.31" width="5.78" height="5.78" fill="#85a1c9"/><rect x="106.78" y="60.53" width="5.78" height="5.78" fill="#85a1c9"/><rect x="106.78" y="54.75" width="5.78" height="5.78" fill="#85a1c9"/><rect x="106.78" y="48.97" width="5.78" height="5.78" fill="#85a1c9"/><rect x="106.78" y="43.19" width="5.78" height="5.78" fill="#e3f7ff"/><rect x="106.78" y="37.41" width="5.78" height="5.78" fill="#e3f7ff"/><rect x="106.78" y="31.62" width="5.78" height="5.78" fill="#1b0003"/><rect x="106.78" y="25.84" width="5.78" height="5.78" fill="#1b0003"/><rect x="101" y="106.78" width="5.78" height="5.78" fill="#1b0003"/><rect x="101" y="101" width="5.78" height="5.78" fill="#223c5b"/><rect x="101" y="95.22" width="5.78" height="5.78" fill="#223c5b"/><rect x="101" y="89.44" width="5.78" height="5.78" fill="#85a1c9"/><rect x="101" y="83.65" width="5.78" height="5.78" fill="#223c5b"/><rect x="101" y="77.87" width="5.78" height="5.78" fill="#85a1c9"/><rect x="101" y="72.09" width="5.78" height="5.78" fill="#85a1c9"/><rect x="101" y="66.31" width="5.78" height="5.78" fill="#85a1c9"/><rect x="101" y="60.53" width="5.78" height="5.78" fill="#85a1c9"/><rect x="101" y="54.75" width="5.78" height="5.78" fill="#85a1c9"/><rect x="101" y="48.97" width="5.78" height="5.78" fill="#85a1c9"/><rect x="101" y="43.19" width="5.78" height="5.78" fill="#85a1c9"/><rect x="101" y="37.41" width="5.78" height="5.78" fill="#85a1c9"/><rect x="101" y="31.62" width="5.78" height="5.78" fill="#e3f7ff"/><rect x="101" y="25.84" width="5.78" height="5.78" fill="#e3f7ff"/><rect x="101" y="20.06" width="5.78" height="5.78" fill="#1b0003"/><rect x="95.22" y="112.56" width="5.78" height="5.78" fill="#1b0003"/><rect x="95.22" y="106.78" width="5.78" height="5.78" fill="#223c5b"/><rect x="95.22" y="101" width="5.78" height="5.78" fill="#223c5b"/><rect x="95.22" y="95.22" width="5.78" height="5.78" fill="#85a1c9"/><rect x="95.22" y="89.44" width="5.78" height="5.78" fill="#223c5b"/><rect x="95.22" y="83.65" width="5.78" height="5.78" fill="#85a1c9"/><rect x="95.22" y="77.87" width="5.78" height="5.78" fill="#85a1c9"/><rect x="95.22" y="72.09" width="5.78" height="5.78" fill="#85a1c9"/><rect x="95.22" y="66.31" width="5.78" height="5.78" fill="#1b0003"/><rect x="95.22" y="60.53" width="5.78" height="5.78" fill="#1b0003"/><rect x="95.22" y="54.75" width="5.78" height="5.78" fill="#1b0003"/><rect x="95.22" y="48.97" width="5.78" height="5.78" fill="#85a1c9"/><rect x="95.22" y="43.19" width="5.78" height="5.78" fill="#85a1c9"/><rect x="95.22" y="37.41" width="5.78" height="5.78" fill="#85a1c9"/><rect x="95.22" y="31.62" width="5.78" height="5.78" fill="#85a1c9"/><rect x="95.22" y="25.84" width="5.78" height="5.78" fill="#e3f7ff"/><rect x="95.22" y="20.06" width="5.78" height="5.78" fill="#e3f7ff"/><rect x="95.22" y="14.28" width="5.78" height="5.78" fill="#1b0003"/><rect x="89.44" y="112.56" width="5.78" height="5.78" fill="#1b0003"/><rect x="89.44" y="106.78" width="5.78" height="5.78" fill="#223c5b"/><rect x="89.44" y="101" width="5.78" height="5.78" fill="#85a1c9"/><rect x="89.44" y="95.22" width="5.78" height="5.78" fill="#223c5b"/><rect x="89.44" y="89.44" width="5.78" height="5.78" fill="#85a1c9"/><rect x="89.44" y="83.65" width="5.78" height="5.78" fill="#85a1c9"/><rect x="89.44" y="77.87" width="5.78" height="5.78" fill="#85a1c9"/><rect x="89.44" y="72.09" width="5.78" height="5.78" fill="#1b0003"/><rect x="89.44" y="66.31" width="5.78" height="5.78" fill="#223c5b"/><rect x="89.44" y="60.53" width="5.78" height="5.78" fill="#223c5b"/><rect x="89.44" y="54.75" width="5.78" height="5.78" fill="#223c5b"/><rect x="89.44" y="48.97" width="5.78" height="5.78" fill="#1b0003"/><rect x="89.44" y="43.19" width="5.78" height="5.78" fill="#85a1c9"/><rect x="89.44" y="37.41" width="5.78" height="5.78" fill="#85a1c9"/><rect x="89.44" y="31.62" width="5.78" height="5.78" fill="#85a1c9"/><rect x="89.44" y="25.84" width="5.78" height="5.78" fill="#85a1c9"/><rect x="89.44" y="20.06" width="5.78" height="5.78" fill="#e3f7ff"/><rect x="89.44" y="14.28" width="5.78" height="5.78" fill="#1b0003"/><rect x="83.65" y="112.56" width="5.78" height="5.78" fill="#1b0003"/><rect x="83.65" y="106.78" width="5.78" height="5.78" fill="#85a1c9"/><rect x="83.65" y="101" width="5.78" height="5.78" fill="#223c5b"/><rect x="83.65" y="95.22" width="5.78" height="5.78" fill="#85a1c9"/><rect x="83.65" y="89.44" width="5.78" height="5.78" fill="#85a1c9"/><rect x="83.65" y="83.65" width="5.78" height="5.78" fill="#85a1c9"/><rect x="83.65" y="77.87" width="5.78" height="5.78" fill="#85a1c9"/><rect x="83.65" y="72.09" width="5.78" height="5.78" fill="#1b0003"/><rect x="83.65" y="66.31" width="5.78" height="5.78" fill="#223c5b"/><rect x="83.65" y="60.53" width="5.78" height="5.78" fill="#223c5b"/><rect x="83.65" y="54.75" width="5.78" height="5.78" fill="#223c5b"/><rect x="83.65" y="48.97" width="5.78" height="5.78" fill="#1b0003"/><rect x="83.65" y="43.19" width="5.78" height="5.78" fill="#85a1c9"/><rect x="83.65" y="37.41" width="5.78" height="5.78" fill="#85a1c9"/><rect x="83.65" y="31.62" width="5.78" height="5.78" fill="#85a1c9"/><rect x="83.65" y="25.84" width="5.78" height="5.78" fill="#bedbed"/><rect x="83.65" y="20.06" width="5.78" height="5.78" fill="#e3f7ff"/><rect x="83.65" y="14.28" width="5.78" height="5.78" fill="#e3f7ff"/><rect x="83.65" y="8.5" width="5.78" height="5.78" fill="#1b0003"/><rect x="77.87" y="106.78" width="5.78" height="5.78" fill="#1b0003"/><rect x="77.87" y="101" width="5.78" height="5.78" fill="#1b0003"/><rect x="77.87" y="95.22" width="5.78" height="5.78" fill="#1b0003"/><rect x="77.87" y="89.44" width="5.78" height="5.78" fill="#1b0003"/><rect x="77.87" y="83.65" width="5.78" height="5.78" fill="#1b0003"/><rect x="77.87" y="77.87" width="5.78" height="5.78" fill="#1b0003"/><rect x="77.87" y="72.09" width="5.78" height="5.78" fill="#1b0003"/><rect x="77.87" y="66.31" width="5.78" height="5.78" fill="#223c5b"/><rect x="77.87" y="60.53" width="5.78" height="5.78" fill="#223c5b"/><rect x="77.87" y="54.75" width="5.78" height="5.78" fill="#223c5b"/><rect x="77.87" y="48.97" width="5.78" height="5.78" fill="#1b0003"/><rect x="77.87" y="43.19" width="5.78" height="5.78" fill="#85a1c9"/><rect x="77.87" y="37.41" width="5.78" height="5.78" fill="#85a1c9"/><rect x="77.87" y="31.62" width="5.78" height="5.78" fill="#bedbed"/><rect x="77.87" y="25.84" width="5.78" height="5.78" fill="#bedbed"/><rect x="77.87" y="20.06" width="5.78" height="5.78" fill="#e3f7ff"/><rect x="77.87" y="14.28" width="5.78" height="5.78" fill="#e3f7ff"/><rect x="77.87" y="8.5" width="5.78" height="5.78" fill="#1b0003"/><rect x="72.09" y="106.78" width="5.78" height="5.78" fill="#1b0003"/><rect x="72.09" y="101" width="5.78" height="5.78" fill="#223c5b"/><rect x="72.09" y="95.22" width="5.78" height="5.78" fill="#223c5b"/><rect x="72.09" y="89.44" width="5.78" height="5.78" fill="#223c5b"/><rect x="72.09" y="83.65" width="5.78" height="5.78" fill="#223c5b"/><rect x="72.09" y="77.87" width="5.78" height="5.78" fill="#223c5b"/><rect x="72.09" y="72.09" width="5.78" height="5.78" fill="#223c5b"/><rect x="72.09" y="66.31" width="5.78" height="5.78" fill="#223c5b"/><rect x="72.09" y="60.53" width="5.78" height="5.78" fill="#223c5b"/><rect x="72.09" y="54.75" width="5.78" height="5.78" fill="#223c5b"/><rect x="72.09" y="48.97" width="5.78" height="5.78" fill="#1b0003"/><rect x="72.09" y="43.19" width="5.78" height="5.78" fill="#85a1c9"/><rect x="72.09" y="37.41" width="5.78" height="5.78" fill="#bedbed"/><rect x="72.09" y="31.62" width="5.78" height="5.78" fill="#bedbed"/><rect x="72.09" y="25.84" width="5.78" height="5.78" fill="#e3f7ff"/><rect x="72.09" y="20.06" width="5.78" height="5.78" fill="#e3f7ff"/><rect x="72.09" y="14.28" width="5.78" height="5.78" fill="#e3f7ff"/><rect x="72.09" y="8.5" width="5.78" height="5.78" fill="#1b0003"/><rect x="66.31" y="106.78" width="5.78" height="5.78" fill="#1b0003"/><rect x="66.31" y="101" width="5.78" height="5.78" fill="#223c5b"/><rect x="66.31" y="95.22" width="5.78" height="5.78" fill="#223c5b"/><rect x="66.31" y="89.44" width="5.78" height="5.78" fill="#223c5b"/><rect x="66.31" y="83.65" width="5.78" height="5.78" fill="#223c5b"/><rect x="66.31" y="77.87" width="5.78" height="5.78" fill="#223c5b"/><rect x="66.31" y="72.09" width="5.78" height="5.78" fill="#223c5b"/><rect x="66.31" y="66.31" width="5.78" height="5.78" fill="#223c5b"/><rect x="66.31" y="60.53" width="5.78" height="5.78" fill="#223c5b"/><rect x="66.31" y="54.75" width="5.78" height="5.78" fill="#223c5b"/><rect x="66.31" y="48.97" width="5.78" height="5.78" fill="#1b0003"/><rect x="66.31" y="43.19" width="5.78" height="5.78" fill="#85a1c9"/><rect x="66.31" y="37.41" width="5.78" height="5.78" fill="#bedbed"/><rect x="66.31" y="31.62" width="5.78" height="5.78" fill="#e3f7ff"/><rect x="66.31" y="25.84" width="5.78" height="5.78" fill="#e3f7ff"/><rect x="66.31" y="20.06" width="5.78" height="5.78" fill="#e3f7ff"/><rect x="66.31" y="14.28" width="5.78" height="5.78" fill="#e3f7ff"/><rect x="66.31" y="8.5" width="5.78" height="5.78" fill="#1b0003"/><rect x="60.53" y="106.78" width="5.78" height="5.78" fill="#1b0003"/><rect x="60.53" y="101" width="5.78" height="5.78" fill="#223c5b"/><rect x="60.53" y="95.22" width="5.78" height="5.78" fill="#223c5b"/><rect x="60.53" y="89.44" width="5.78" height="5.78" fill="#223c5b"/><rect x="60.53" y="83.65" width="5.78" height="5.78" fill="#223c5b"/><rect x="60.53" y="77.87" width="5.78" height="5.78" fill="#223c5b"/><rect x="60.53" y="72.09" width="5.78" height="5.78" fill="#223c5b"/><rect x="60.53" y="66.31" width="5.78" height="5.78" fill="#223c5b"/><rect x="60.53" y="60.53" width="5.78" height="5.78" fill="#223c5b"/><rect x="60.53" y="54.75" width="5.78" height="5.78" fill="#223c5b"/><rect x="60.53" y="48.97" width="5.78" height="5.78" fill="#1b0003"/><rect x="60.53" y="43.19" width="5.78" height="5.78" fill="#85a1c9"/><rect x="60.53" y="37.41" width="5.78" height="5.78" fill="#bedbed"/><rect x="60.53" y="31.62" width="5.78" height="5.78" fill="#e3f7ff"/><rect x="60.53" y="25.84" width="5.78" height="5.78" fill="#e3f7ff"/><rect x="60.53" y="20.06" width="5.78" height="5.78" fill="#e3f7ff"/><rect x="60.53" y="14.28" width="5.78" height="5.78" fill="#e3f7ff"/><rect x="60.53" y="8.5" width="5.78" height="5.78" fill="#1b0003"/><rect x="54.75" y="106.78" width="5.78" height="5.78" fill="#1b0003"/><rect x="54.75" y="101" width="5.78" height="5.78" fill="#223c5b"/><rect x="54.75" y="95.22" width="5.78" height="5.78" fill="#223c5b"/><rect x="54.75" y="89.44" width="5.78" height="5.78" fill="#223c5b"/><rect x="54.75" y="83.65" width="5.78" height="5.78" fill="#223c5b"/><rect x="54.75" y="77.87" width="5.78" height="5.78" fill="#223c5b"/><rect x="54.75" y="72.09" width="5.78" height="5.78" fill="#223c5b"/><rect x="54.75" y="66.31" width="5.78" height="5.78" fill="#223c5b"/><rect x="54.75" y="60.53" width="5.78" height="5.78" fill="#223c5b"/><rect x="54.75" y="54.75" width="5.78" height="5.78" fill="#223c5b"/><rect x="54.75" y="48.97" width="5.78" height="5.78" fill="#1b0003"/><rect x="54.75" y="43.19" width="5.78" height="5.78" fill="#85a1c9"/><rect x="54.75" y="37.41" width="5.78" height="5.78" fill="#bedbed"/><rect x="54.75" y="31.62" width="5.78" height="5.78" fill="#e3f7ff"/><rect x="54.75" y="25.84" width="5.78" height="5.78" fill="#e3f7ff"/><rect x="54.75" y="20.06" width="5.78" height="5.78" fill="#e3f7ff"/><rect x="54.75" y="14.28" width="5.78" height="5.78" fill="#e3f7ff"/><rect x="54.75" y="8.5" width="5.78" height="5.78" fill="#1b0003"/><rect x="48.97" y="106.78" width="5.78" height="5.78" fill="#1b0003"/><rect x="48.97" y="101" width="5.78" height="5.78" fill="#223c5b"/><rect x="48.97" y="95.22" width="5.78" height="5.78" fill="#223c5b"/><rect x="48.97" y="89.44" width="5.78" height="5.78" fill="#223c5b"/><rect x="48.97" y="83.65" width="5.78" height="5.78" fill="#223c5b"/><rect x="48.97" y="77.87" width="5.78" height="5.78" fill="#223c5b"/><rect x="48.97" y="72.09" width="5.78" height="5.78" fill="#223c5b"/><rect x="48.97" y="66.31" width="5.78" height="5.78" fill="#223c5b"/><rect x="48.97" y="60.53" width="5.78" height="5.78" fill="#223c5b"/><rect x="48.97" y="54.75" width="5.78" height="5.78" fill="#223c5b"/><rect x="48.97" y="48.97" width="5.78" height="5.78" fill="#1b0003"/><rect x="48.97" y="43.19" width="5.78" height="5.78" fill="#85a1c9"/><rect x="48.97" y="37.41" width="5.78" height="5.78" fill="#bedbed"/><rect x="48.97" y="31.62" width="5.78" height="5.78" fill="#e3f7ff"/><rect x="48.97" y="25.84" width="5.78" height="5.78" fill="#e3f7ff"/><rect x="48.97" y="20.06" width="5.78" height="5.78" fill="#e3f7ff"/><rect x="48.97" y="14.28" width="5.78" height="5.78" fill="#e3f7ff"/><rect x="48.97" y="8.5" width="5.78" height="5.78" fill="#1b0003"/><rect x="43.19" y="106.78" width="5.78" height="5.78" fill="#1b0003"/><rect x="43.19" y="101" width="5.78" height="5.78" fill="#1b0003"/><rect x="43.19" y="95.22" width="5.78" height="5.78" fill="#1b0003"/><rect x="43.19" y="89.44" width="5.78" height="5.78" fill="#1b0003"/><rect x="43.19" y="83.65" width="5.78" height="5.78" fill="#1b0003"/><rect x="43.19" y="77.87" width="5.78" height="5.78" fill="#1b0003"/><rect x="43.19" y="72.09" width="5.78" height="5.78" fill="#1b0003"/><rect x="43.19" y="66.31" width="5.78" height="5.78" fill="#223c5b"/><rect x="43.19" y="60.53" width="5.78" height="5.78" fill="#223c5b"/><rect x="43.19" y="54.75" width="5.78" height="5.78" fill="#223c5b"/><rect x="43.19" y="48.97" width="5.78" height="5.78" fill="#1b0003"/><rect x="43.19" y="43.19" width="5.78" height="5.78" fill="#85a1c9"/><rect x="43.19" y="37.41" width="5.78" height="5.78" fill="#bedbed"/><rect x="43.19" y="31.62" width="5.78" height="5.78" fill="#e3f7ff"/><rect x="43.19" y="25.84" width="5.78" height="5.78" fill="#e3f7ff"/><rect x="43.19" y="20.06" width="5.78" height="5.78" fill="#e3f7ff"/><rect x="43.19" y="14.28" width="5.78" height="5.78" fill="#e3f7ff"/><rect x="43.19" y="8.5" width="5.78" height="5.78" fill="#1b0003"/><rect x="37.41" y="112.56" width="5.78" height="5.78" fill="#1b0003"/><rect x="37.41" y="106.78" width="5.78" height="5.78" fill="#1b0003"/><rect x="37.41" y="101" width="5.78" height="5.78" fill="#85a1c9"/><rect x="37.41" y="95.22" width="5.78" height="5.78" fill="#85a1c9"/><rect x="37.41" y="89.44" width="5.78" height="5.78" fill="#85a1c9"/><rect x="37.41" y="83.65" width="5.78" height="5.78" fill="#85a1c9"/><rect x="37.41" y="77.87" width="5.78" height="5.78" fill="#85a1c9"/><rect x="37.41" y="72.09" width="5.78" height="5.78" fill="#1b0003"/><rect x="37.41" y="66.31" width="5.78" height="5.78" fill="#223c5b"/><rect x="37.41" y="60.53" width="5.78" height="5.78" fill="#223c5b"/><rect x="37.41" y="54.75" width="5.78" height="5.78" fill="#223c5b"/><rect x="37.41" y="48.97" width="5.78" height="5.78" fill="#1b0003"/><rect x="37.41" y="43.19" width="5.78" height="5.78" fill="#85a1c9"/><rect x="37.41" y="37.41" width="5.78" height="5.78" fill="#bedbed"/><rect x="37.41" y="31.62" width="5.78" height="5.78" fill="#e3f7ff"/><rect x="37.41" y="25.84" width="5.78" height="5.78" fill="#e3f7ff"/><rect x="37.41" y="20.06" width="5.78" height="5.78" fill="#e3f7ff"/><rect x="37.41" y="14.28" width="5.78" height="5.78" fill="#e3f7ff"/><rect x="37.41" y="8.5" width="5.78" height="5.78" fill="#1b0003"/><rect x="31.62" y="112.56" width="5.78" height="5.78" fill="#1b0003"/><rect x="31.62" y="106.78" width="5.78" height="5.78" fill="#85a1c9"/><rect x="31.62" y="101" width="5.78" height="5.78" fill="#bedbed"/><rect x="31.62" y="95.22" width="5.78" height="5.78" fill="#85a1c9"/><rect x="31.62" y="89.44" width="5.78" height="5.78" fill="#bedbed"/><rect x="31.62" y="83.65" width="5.78" height="5.78" fill="#85a1c9"/><rect x="31.62" y="77.87" width="5.78" height="5.78" fill="#85a1c9"/><rect x="31.62" y="72.09" width="5.78" height="5.78" fill="#1b0003"/><rect x="31.62" y="66.31" width="5.78" height="5.78" fill="#223c5b"/><rect x="31.62" y="60.53" width="5.78" height="5.78" fill="#223c5b"/><rect x="31.62" y="54.75" width="5.78" height="5.78" fill="#223c5b"/><rect x="31.62" y="48.97" width="5.78" height="5.78" fill="#1b0003"/><rect x="31.62" y="43.19" width="5.78" height="5.78" fill="#85a1c9"/><rect x="31.62" y="37.41" width="5.78" height="5.78" fill="#e3f7ff"/><rect x="31.62" y="31.62" width="5.78" height="5.78" fill="#e3f7ff"/><rect x="31.62" y="25.84" width="5.78" height="5.78" fill="#e3f7ff"/><rect x="31.62" y="20.06" width="5.78" height="5.78" fill="#e3f7ff"/><rect x="31.62" y="14.28" width="5.78" height="5.78" fill="#1b0003"/><rect x="25.84" y="112.56" width="5.78" height="5.78" fill="#1b0003"/><rect x="25.84" y="106.78" width="5.78" height="5.78" fill="#85a1c9"/><rect x="25.84" y="101" width="5.78" height="5.78" fill="#85a1c9"/><rect x="25.84" y="95.22" width="5.78" height="5.78" fill="#bedbed"/><rect x="25.84" y="89.44" width="5.78" height="5.78" fill="#85a1c9"/><rect x="25.84" y="83.65" width="5.78" height="5.78" fill="#e3f7ff"/><rect x="25.84" y="77.87" width="5.78" height="5.78" fill="#e3f7ff"/><rect x="25.84" y="72.09" width="5.78" height="5.78" fill="#85a1c9"/><rect x="25.84" y="66.31" width="5.78" height="5.78" fill="#1b0003"/><rect x="25.84" y="60.53" width="5.78" height="5.78" fill="#1b0003"/><rect x="25.84" y="54.75" width="5.78" height="5.78" fill="#1b0003"/><rect x="25.84" y="48.97" width="5.78" height="5.78" fill="#bedbed"/><rect x="25.84" y="43.19" width="5.78" height="5.78" fill="#e3f7ff"/><rect x="25.84" y="37.41" width="5.78" height="5.78" fill="#e3f7ff"/><rect x="25.84" y="31.62" width="5.78" height="5.78" fill="#e3f7ff"/><rect x="25.84" y="25.84" width="5.78" height="5.78" fill="#e3f7ff"/><rect x="25.84" y="20.06" width="5.78" height="5.78" fill="#e3f7ff"/><rect x="25.84" y="14.28" width="5.78" height="5.78" fill="#1b0003"/><rect x="20.06" y="106.78" width="5.78" height="5.78" fill="#1b0003"/><rect x="20.06" y="101" width="5.78" height="5.78" fill="#bedbed"/><rect x="20.06" y="95.22" width="5.78" height="5.78" fill="#85a1c9"/><rect x="20.06" y="89.44" width="5.78" height="5.78" fill="#bedbed"/><rect x="20.06" y="83.65" width="5.78" height="5.78" fill="#bedbed"/><rect x="20.06" y="77.87" width="5.78" height="5.78" fill="#e3f7ff"/><rect x="20.06" y="72.09" width="5.78" height="5.78" fill="#e3f7ff"/><rect x="20.06" y="66.31" width="5.78" height="5.78" fill="#e3f7ff"/><rect x="20.06" y="60.53" width="5.78" height="5.78" fill="#e3f7ff"/><rect x="20.06" y="54.75" width="5.78" height="5.78" fill="#e3f7ff"/><rect x="20.06" y="48.97" width="5.78" height="5.78" fill="#e3f7ff"/><rect x="20.06" y="43.19" width="5.78" height="5.78" fill="#e3f7ff"/><rect x="20.06" y="37.41" width="5.78" height="5.78" fill="#e3f7ff"/><rect x="20.06" y="31.62" width="5.78" height="5.78" fill="#e3f7ff"/><rect x="20.06" y="25.84" width="5.78" height="5.78" fill="#e3f7ff"/><rect x="20.06" y="20.06" width="5.78" height="5.78" fill="#1b0003"/><rect x="14.28" y="101" width="5.78" height="5.78" fill="#1b0003"/><rect x="14.28" y="95.22" width="5.78" height="5.78" fill="#bedbed"/><rect x="14.28" y="89.44" width="5.78" height="5.78" fill="#bedbed"/><rect x="14.28" y="83.65" width="5.78" height="5.78" fill="#bedbed"/><rect x="14.28" y="77.87" width="5.78" height="5.78" fill="#e3f7ff"/><rect x="14.28" y="72.09" width="5.78" height="5.78" fill="#e3f7ff"/><rect x="14.28" y="66.31" width="5.78" height="5.78" fill="#e3f7ff"/><rect x="14.28" y="60.53" width="5.78" height="5.78" fill="#e3f7ff"/><rect x="14.28" y="54.75" width="5.78" height="5.78" fill="#e3f7ff"/><rect x="14.28" y="48.97" width="5.78" height="5.78" fill="#e3f7ff"/><rect x="14.28" y="43.19" width="5.78" height="5.78" fill="#e3f7ff"/><rect x="14.28" y="37.41" width="5.78" height="5.78" fill="#e3f7ff"/><rect x="14.28" y="31.62" width="5.78" height="5.78" fill="#1b0003"/><rect x="14.28" y="25.84" width="5.78" height="5.78" fill="#1b0003"/><rect x="8.5" y="101" width="5.78" height="5.78" fill="#1b0003"/><rect x="8.5" y="95.22" width="5.78" height="5.78" fill="#1b0003"/><rect x="8.5" y="89.44" width="5.78" height="5.78" fill="#1b0003"/><rect x="8.5" y="83.65" width="5.78" height="5.78" fill="#1b0003"/><rect x="8.5" y="77.87" width="5.78" height="5.78" fill="#1b0003"/><rect x="8.5" y="72.09" width="5.78" height="5.78" fill="#1b0003"/><rect x="8.5" y="66.31" width="5.78" height="5.78" fill="#1b0003"/><rect x="8.5" y="60.53" width="5.78" height="5.78" fill="#1b0003"/><rect x="8.5" y="54.75" width="5.78" height="5.78" fill="#1b0003"/><rect x="8.5" y="48.97" width="5.78" height="5.78" fill="#1b0003"/><rect x="8.5" y="43.19" width="5.78" height="5.78" fill="#1b0003"/><rect x="8.5" y="37.41" width="5.78" height="5.78" fill="#1b0003"/></g></g></g></g></svg>