<svg xmlns="http://www.w3.org/2000/svg" width="92.79" height="152.33" viewBox="0 0 92.79 152.33"><g id="Layer_2" data-name="Layer 2"><g id="items"><g id="Question_Mark" data-name="Question Mark"><path d="M87.37,21.65V16.24H82V10.83H76.55V5.41H71.13V0H21.65V5.41H16.24v5.42H10.83v5.41H5.41v5.41H0V60.31H32.48V65H27.07v82h5.41v5.41H65.72v-5.41h5.41V87.37h5.42V82H82V76.55h5.41V71.13h5.42V21.65ZM21.65,43.31H17V38.65h4.65Zm22.42,59.54V82h5.41V76.55h4.65v26.3Zm16.24-75H65v4.65H60.31ZM33.24,22.41h5.41V17H54.13v5.41h5.42v4.66H33.24ZM75.79,54.13H70.37v5.42H65.72V33.24h4.65v5.41h5.42Z" fill="#fff"/><g id="Question_Mark-2" data-name="Question Mark"><rect x="78.87" y="57.22" width="5.41" height="5.41" fill="#1b0003"/><rect x="78.87" y="51.81" width="5.41" height="5.41" fill="#1b0003"/><rect x="78.87" y="46.39" width="5.41" height="5.41" fill="#1b0003"/><rect x="78.87" y="40.98" width="5.41" height="5.41" fill="#1b0003"/><rect x="78.87" y="35.57" width="5.41" height="5.41" fill="#1b0003"/><rect x="78.87" y="30.15" width="5.41" height="5.41" fill="#1b0003"/><rect x="73.46" y="62.63" width="5.41" height="5.41" fill="#1b0003"/><rect x="73.46" y="57.22" width="5.41" height="5.41" fill="#27937b"/><rect x="73.46" y="51.81" width="5.41" height="5.41" fill="#27937b"/><rect x="73.46" y="46.39" width="5.41" height="5.41" fill="#67ce3c"/><rect x="73.46" y="40.98" width="5.41" height="5.41" fill="#67ce3c"/><rect x="73.46" y="35.57" width="5.41" height="5.41" fill="#67ce3c"/><rect x="73.46" y="30.15" width="5.41" height="5.41" fill="#67ce3c"/><rect x="73.46" y="24.74" width="5.41" height="5.41" fill="#1b0003"/><rect x="68.05" y="68.05" width="5.41" height="5.41" fill="#1b0003"/><rect x="68.05" y="62.63" width="5.41" height="5.41" fill="#27937b"/><rect x="68.05" y="57.22" width="5.41" height="5.41" fill="#67ce3c"/><rect x="68.05" y="51.81" width="5.41" height="5.41" fill="#67ce3c"/><rect x="68.05" y="46.39" width="5.41" height="5.41" fill="#67ce3c"/><rect x="68.05" y="40.98" width="5.41" height="5.41" fill="#67ce3c"/><rect x="68.05" y="35.57" width="5.41" height="5.41" fill="#67ce3c"/><rect x="68.05" y="30.15" width="5.41" height="5.41" fill="#67ce3c"/><rect x="68.05" y="24.74" width="5.41" height="5.41" fill="#67ce3c"/><rect x="68.05" y="19.33" width="5.41" height="5.41" fill="#1b0003"/><rect x="62.63" y="73.46" width="5.41" height="5.41" fill="#1b0003"/><rect x="62.63" y="68.05" width="5.41" height="5.41" fill="#27937b"/><rect x="62.63" y="62.63" width="5.41" height="5.41" fill="#67ce3c"/><rect x="62.63" y="57.22" width="5.41" height="5.41" fill="#67ce3c"/><rect x="62.63" y="51.81" width="5.41" height="5.41" fill="#a0e84d"/><rect x="62.63" y="46.39" width="5.41" height="5.41" fill="#a0e84d"/><rect x="62.63" y="40.98" width="5.41" height="5.41" fill="#a0e84d"/><rect x="62.63" y="35.57" width="5.41" height="5.41" fill="#67ce3c"/><rect x="62.63" y="30.15" width="5.41" height="5.41" fill="#67ce3c"/><rect x="62.63" y="24.74" width="5.41" height="5.41" fill="#67ce3c"/><rect x="62.63" y="19.33" width="5.41" height="5.41" fill="#67ce3c"/><rect x="62.63" y="13.91" width="5.41" height="5.41" fill="#1b0003"/><rect x="57.22" y="133" width="5.41" height="5.41" fill="#1b0003"/><rect x="57.22" y="127.59" width="5.41" height="5.41" fill="#1b0003"/><rect x="57.22" y="122.18" width="5.41" height="5.41" fill="#1b0003"/><rect x="57.22" y="105.94" width="5.41" height="5.41" fill="#1b0003"/><rect x="57.22" y="100.53" width="5.41" height="5.41" fill="#1b0003"/><rect x="57.22" y="95.11" width="5.41" height="5.41" fill="#1b0003"/><rect x="57.22" y="89.7" width="5.41" height="5.41" fill="#1b0003"/><rect x="57.22" y="84.29" width="5.41" height="5.41" fill="#1b0003"/><rect x="57.22" y="78.87" width="5.41" height="5.41" fill="#1b0003"/><rect x="57.22" y="73.46" width="5.41" height="5.41" fill="#27937b"/><rect x="57.22" y="68.05" width="5.41" height="5.41" fill="#67ce3c"/><rect x="57.22" y="62.63" width="5.41" height="5.41" fill="#a0e84d"/><rect x="57.22" y="57.22" width="5.41" height="5.41" fill="#a0e84d"/><rect x="57.22" y="51.81" width="5.41" height="5.41" fill="#1b0003"/><rect x="57.22" y="46.39" width="5.41" height="5.41" fill="#1b0003"/><rect x="57.22" y="40.98" width="5.41" height="5.41" fill="#1b0003"/><rect x="57.22" y="35.57" width="5.41" height="5.41" fill="#a0e84d"/><rect x="57.22" y="30.15" width="5.41" height="5.41" fill="#67ce3c"/><rect x="57.22" y="24.74" width="5.41" height="5.41" fill="#67ce3c"/><rect x="57.22" y="19.33" width="5.41" height="5.41" fill="#a0e84d"/><rect x="57.22" y="13.91" width="5.41" height="5.41" fill="#a0e84d"/><rect x="57.22" y="8.5" width="5.41" height="5.41" fill="#1b0003"/><rect x="51.81" y="138.42" width="5.41" height="5.41" fill="#1b0003"/><rect x="51.81" y="133" width="5.41" height="5.41" fill="#27937b"/><rect x="51.81" y="127.59" width="5.41" height="5.41" fill="#27937b"/><rect x="51.81" y="122.18" width="5.41" height="5.41" fill="#67ce3c"/><rect x="51.81" y="116.76" width="5.41" height="5.41" fill="#1b0003"/><rect x="51.81" y="105.94" width="5.41" height="5.41" fill="#1b0003"/><rect x="51.81" y="100.53" width="5.41" height="5.41" fill="#67ce3c"/><rect x="51.81" y="95.11" width="5.41" height="5.41" fill="#67ce3c"/><rect x="51.81" y="89.7" width="5.41" height="5.41" fill="#67ce3c"/><rect x="51.81" y="84.29" width="5.41" height="5.41" fill="#67ce3c"/><rect x="51.81" y="78.87" width="5.41" height="5.41" fill="#67ce3c"/><rect x="51.81" y="73.46" width="5.41" height="5.41" fill="#67ce3c"/><rect x="51.81" y="68.05" width="5.41" height="5.41" fill="#a0e84d"/><rect x="51.81" y="62.63" width="5.41" height="5.41" fill="#a0e84d"/><rect x="51.81" y="57.22" width="5.41" height="5.41" fill="#1b0003"/><rect x="51.81" y="35.57" width="5.41" height="5.41" fill="#1b0003"/><rect x="51.81" y="30.15" width="5.41" height="5.41" fill="#67ce3c"/><rect x="51.81" y="24.74" width="5.41" height="5.41" fill="#67ce3c"/><rect x="51.81" y="19.33" width="5.41" height="5.41" fill="#a0e84d"/><rect x="51.81" y="13.91" width="5.41" height="5.41" fill="#a0e84d"/><rect x="51.81" y="8.5" width="5.41" height="5.41" fill="#1b0003"/><rect x="46.39" y="138.42" width="5.41" height="5.41" fill="#1b0003"/><rect x="46.39" y="133" width="5.41" height="5.41" fill="#27937b"/><rect x="46.39" y="127.59" width="5.41" height="5.41" fill="#67ce3c"/><rect x="46.39" y="122.18" width="5.41" height="5.41" fill="#a0e84d"/><rect x="46.39" y="116.76" width="5.41" height="5.41" fill="#1b0003"/><rect x="46.39" y="105.94" width="5.41" height="5.41" fill="#1b0003"/><rect x="46.39" y="100.53" width="5.41" height="5.41" fill="#a0e84d"/><rect x="46.39" y="95.11" width="5.41" height="5.41" fill="#a0e84d"/><rect x="46.39" y="89.7" width="5.41" height="5.41" fill="#a0e84d"/><rect x="46.39" y="84.29" width="5.41" height="5.41" fill="#a0e84d"/><rect x="46.39" y="78.87" width="5.41" height="5.41" fill="#a0e84d"/><rect x="46.39" y="73.46" width="5.41" height="5.41" fill="#a0e84d"/><rect x="46.39" y="68.05" width="5.41" height="5.41" fill="#a0e84d"/><rect x="46.39" y="62.63" width="5.41" height="5.41" fill="#1b0003"/><rect x="46.39" y="30.15" width="5.41" height="5.41" fill="#1b0003"/><rect x="46.39" y="24.74" width="5.41" height="5.41" fill="#67ce3c"/><rect x="46.39" y="19.33" width="5.41" height="5.41" fill="#a0e84d"/><rect x="46.39" y="13.91" width="5.41" height="5.41" fill="#a0e84d"/><rect x="46.39" y="8.5" width="5.41" height="5.41" fill="#1b0003"/><rect x="40.98" y="138.42" width="5.41" height="5.41" fill="#1b0003"/><rect x="40.98" y="133" width="5.41" height="5.41" fill="#67ce3c"/><rect x="40.98" y="127.59" width="5.41" height="5.41" fill="#a0e84d"/><rect x="40.98" y="122.18" width="5.41" height="5.41" fill="#a0e84d"/><rect x="40.98" y="116.76" width="5.41" height="5.41" fill="#1b0003"/><rect x="40.98" y="105.94" width="5.41" height="5.41" fill="#1b0003"/><rect x="40.98" y="100.53" width="5.41" height="5.41" fill="#a0e84d"/><rect x="40.98" y="95.11" width="5.41" height="5.41" fill="#a0e84d"/><rect x="40.98" y="89.7" width="5.41" height="5.41" fill="#a0e84d"/><rect x="40.98" y="84.29" width="5.41" height="5.41" fill="#a0e84d"/><rect x="40.98" y="78.87" width="5.41" height="5.41" fill="#a0e84d"/><rect x="40.98" y="73.46" width="5.41" height="5.41" fill="#a0e84d"/><rect x="40.98" y="68.05" width="5.41" height="5.41" fill="#1b0003"/><rect x="40.98" y="30.15" width="5.41" height="5.41" fill="#1b0003"/><rect x="40.98" y="24.74" width="5.41" height="5.41" fill="#67ce3c"/><rect x="40.98" y="19.33" width="5.41" height="5.41" fill="#a0e84d"/><rect x="40.98" y="13.91" width="5.41" height="5.41" fill="#a0e84d"/><rect x="40.98" y="8.5" width="5.41" height="5.41" fill="#1b0003"/><rect x="35.57" y="133" width="5.41" height="5.41" fill="#1b0003"/><rect x="35.57" y="127.59" width="5.41" height="5.41" fill="#1b0003"/><rect x="35.57" y="122.18" width="5.41" height="5.41" fill="#1b0003"/><rect x="35.57" y="105.94" width="5.41" height="5.41" fill="#1b0003"/><rect x="35.57" y="100.53" width="5.41" height="5.41" fill="#1b0003"/><rect x="35.57" y="95.11" width="5.41" height="5.41" fill="#1b0003"/><rect x="35.57" y="89.7" width="5.41" height="5.41" fill="#1b0003"/><rect x="35.57" y="84.29" width="5.41" height="5.41" fill="#1b0003"/><rect x="35.57" y="78.87" width="5.41" height="5.41" fill="#1b0003"/><rect x="35.57" y="73.46" width="5.41" height="5.41" fill="#1b0003"/><rect x="35.57" y="30.15" width="5.41" height="5.41" fill="#1b0003"/><rect x="35.57" y="24.74" width="5.41" height="5.41" fill="#67ce3c"/><rect x="35.57" y="19.33" width="5.41" height="5.41" fill="#a0e84d"/><rect x="35.57" y="13.91" width="5.41" height="5.41" fill="#a0e84d"/><rect x="35.57" y="8.5" width="5.41" height="5.41" fill="#1b0003"/><rect x="30.15" y="35.57" width="5.41" height="5.41" fill="#1b0003"/><rect x="30.15" y="30.15" width="5.41" height="5.41" fill="#67ce3c"/><rect x="30.15" y="24.74" width="5.41" height="5.41" fill="#a0e84d"/><rect x="30.15" y="19.33" width="5.41" height="5.41" fill="#a0e84d"/><rect x="30.15" y="13.91" width="5.41" height="5.41" fill="#ccf45f"/><rect x="30.15" y="8.5" width="5.41" height="5.41" fill="#1b0003"/><rect x="24.74" y="46.39" width="5.41" height="5.41" fill="#1b0003"/><rect x="24.74" y="40.98" width="5.41" height="5.41" fill="#1b0003"/><rect x="24.74" y="35.57" width="5.41" height="5.41" fill="#67ce3c"/><rect x="24.74" y="30.15" width="5.41" height="5.41" fill="#a0e84d"/><rect x="24.74" y="24.74" width="5.41" height="5.41" fill="#a0e84d"/><rect x="24.74" y="19.33" width="5.41" height="5.41" fill="#ccf45f"/><rect x="24.74" y="13.91" width="5.41" height="5.41" fill="#1b0003"/><rect x="19.33" y="46.39" width="5.41" height="5.41" fill="#1b0003"/><rect x="19.33" y="40.98" width="5.41" height="5.41" fill="#67ce3c"/><rect x="19.33" y="35.57" width="5.41" height="5.41" fill="#a0e84d"/><rect x="19.33" y="30.15" width="5.41" height="5.41" fill="#a0e84d"/><rect x="19.33" y="24.74" width="5.41" height="5.41" fill="#ccf45f"/><rect x="19.33" y="19.33" width="5.41" height="5.41" fill="#1b0003"/><rect x="13.91" y="46.39" width="5.41" height="5.41" fill="#1b0003"/><rect x="13.91" y="40.98" width="5.41" height="5.41" fill="#a0e84d"/><rect x="13.91" y="35.57" width="5.41" height="5.41" fill="#a0e84d"/><rect x="13.91" y="30.15" width="5.41" height="5.41" fill="#ccf45f"/><rect x="13.91" y="24.74" width="5.41" height="5.41" fill="#1b0003"/><rect x="8.5" y="46.39" width="5.41" height="5.41" fill="#1b0003"/><rect x="8.5" y="40.98" width="5.41" height="5.41" fill="#1b0003"/><rect x="8.5" y="35.57" width="5.41" height="5.41" fill="#1b0003"/><rect x="8.5" y="30.15" width="5.41" height="5.41" fill="#1b0003"/></g></g></g></g></svg>