<svg xmlns="http://www.w3.org/2000/svg" width="127.3" height="162.13" viewBox="0 0 127.3 162.13"><g id="Layer_2" data-name="Layer 2"><g id="items"><g id="Red_Potion" data-name="Red Potion"><path d="M121.5,162.13H5.81v-5.8H0v-46H5.81V98.69h5.8V92.88h5.81v-5.8h5.8V81.27H29v-5.8h5.8V69.66h5.81V40.22H34.83V11.61h5.81V5.81h5.8V0H80.86V5.81h5.8v5.8h5.81V40.22H86.66V69.66h5.81v5.81h5.8v5.8h5.81v5.81h5.8v5.8h5.81v5.81h5.81V110.3h5.8v46h-5.8Zm-98.69-17H104.5v-5.8h5.8v-12h-5.8V115.69H98.69v-5.81H92.88v-5.8h-5.8V98.27H81.27v-5.8h-5.8V86.66H69.66V22.81h-5.8V17h-.42v5.81h-5.8V86.66H51.83v5.81H46v5.8H40.22v5.81h-5.8v5.8H28.61v5.81h-5.8V127.3H17v12h5.81Z" fill="#fff"/><g id="Red_Potion-2" data-name="Red Potion"><rect x="113" y="142.02" width="5.81" height="5.81" fill="#1b0003"/><rect x="113" y="136.22" width="5.81" height="5.81" fill="#1b0003"/><rect x="113" y="130.41" width="5.81" height="5.81" fill="#1b0003"/><rect x="113" y="124.61" width="5.81" height="5.81" fill="#1b0003"/><rect x="113" y="118.8" width="5.81" height="5.81" fill="#1b0003"/><rect x="107.19" y="147.83" width="5.81" height="5.81" fill="#1b0003"/><rect x="107.19" y="142.02" width="5.81" height="5.81" fill="#6a87af"/><rect x="107.19" y="136.22" width="5.81" height="5.81" fill="#6a87af"/><rect x="107.19" y="130.41" width="5.81" height="5.81" fill="#a3c6e2"/><rect x="107.19" y="124.61" width="5.81" height="5.81" fill="#a3c6e2"/><rect x="107.19" y="118.8" width="5.81" height="5.81" fill="#a3c6e2"/><rect x="107.19" y="113" width="5.81" height="5.81" fill="#1b0003"/><rect x="107.19" y="107.19" width="5.81" height="5.81" fill="#1b0003"/><rect x="101.38" y="147.83" width="5.81" height="5.81" fill="#1b0003"/><rect x="101.38" y="142.02" width="5.81" height="5.81" fill="#6a87af"/><rect x="101.38" y="136.22" width="5.81" height="5.81" fill="#db1943"/><rect x="101.38" y="130.41" width="5.81" height="5.81" fill="#db1943"/><rect x="101.38" y="124.61" width="5.81" height="5.81" fill="#ef837b"/><rect x="101.38" y="118.8" width="5.81" height="5.81" fill="#ef837b"/><rect x="101.38" y="113" width="5.81" height="5.81" fill="#a3c6e2"/><rect x="101.38" y="107.19" width="5.81" height="5.81" fill="#a3c6e2"/><rect x="101.38" y="101.38" width="5.81" height="5.81" fill="#1b0003"/><rect x="95.58" y="147.83" width="5.81" height="5.81" fill="#1b0003"/><rect x="95.58" y="142.02" width="5.81" height="5.81" fill="#6a87af"/><rect x="95.58" y="136.22" width="5.81" height="5.81" fill="#b6294c"/><rect x="95.58" y="130.41" width="5.81" height="5.81" fill="#db1943"/><rect x="95.58" y="124.61" width="5.81" height="5.81" fill="#db1943"/><rect x="95.58" y="118.8" width="5.81" height="5.81" fill="#ef837b"/><rect x="95.58" y="113" width="5.81" height="5.81" fill="#ef837b"/><rect x="95.58" y="107.19" width="5.81" height="5.81" fill="#ef837b"/><rect x="95.58" y="101.38" width="5.81" height="5.81" fill="#a3c6e2"/><rect x="95.58" y="95.58" width="5.81" height="5.81" fill="#1b0003"/><rect x="89.77" y="147.83" width="5.81" height="5.81" fill="#1b0003"/><rect x="89.77" y="142.02" width="5.81" height="5.81" fill="#6a87af"/><rect x="89.77" y="136.22" width="5.81" height="5.81" fill="#b6294c"/><rect x="89.77" y="130.41" width="5.81" height="5.81" fill="#db1943"/><rect x="89.77" y="124.61" width="5.81" height="5.81" fill="#db1943"/><rect x="89.77" y="118.8" width="5.81" height="5.81" fill="#db1943"/><rect x="89.77" y="113" width="5.81" height="5.81" fill="#db1943"/><rect x="89.77" y="107.19" width="5.81" height="5.81" fill="#ef837b"/><rect x="89.77" y="101.38" width="5.81" height="5.81" fill="#ef837b"/><rect x="89.77" y="95.58" width="5.81" height="5.81" fill="#bedbed"/><rect x="89.77" y="89.77" width="5.81" height="5.81" fill="#1b0003"/><rect x="83.97" y="147.83" width="5.81" height="5.81" fill="#1b0003"/><rect x="83.97" y="142.02" width="5.81" height="5.81" fill="#6a87af"/><rect x="83.97" y="136.22" width="5.81" height="5.81" fill="#b6294c"/><rect x="83.97" y="130.41" width="5.81" height="5.81" fill="#db1943"/><rect x="83.97" y="124.61" width="5.81" height="5.81" fill="#db1943"/><rect x="83.97" y="118.8" width="5.81" height="5.81" fill="#db1943"/><rect x="83.97" y="113" width="5.81" height="5.81" fill="#db1943"/><rect x="83.97" y="107.19" width="5.81" height="5.81" fill="#db1943"/><rect x="83.97" y="101.38" width="5.81" height="5.81" fill="#ef837b"/><rect x="83.97" y="95.58" width="5.81" height="5.81" fill="#ef837b"/><rect x="83.97" y="89.77" width="5.81" height="5.81" fill="#a3c6e2"/><rect x="83.97" y="83.97" width="5.81" height="5.81" fill="#1b0003"/><rect x="78.16" y="147.83" width="5.81" height="5.81" fill="#1b0003"/><rect x="78.16" y="142.02" width="5.81" height="5.81" fill="#6a87af"/><rect x="78.16" y="136.22" width="5.81" height="5.81" fill="#b6294c"/><rect x="78.16" y="130.41" width="5.81" height="5.81" fill="#db1943"/><rect x="78.16" y="124.61" width="5.81" height="5.81" fill="#db1943"/><rect x="78.16" y="118.8" width="5.81" height="5.81" fill="#db1943"/><rect x="78.16" y="113" width="5.81" height="5.81" fill="#db1943"/><rect x="78.16" y="107.19" width="5.81" height="5.81" fill="#db1943"/><rect x="78.16" y="101.38" width="5.81" height="5.81" fill="#eb3824"/><rect x="78.16" y="95.58" width="5.81" height="5.81" fill="#db1943"/><rect x="78.16" y="89.77" width="5.81" height="5.81" fill="#ef837b"/><rect x="78.16" y="83.97" width="5.81" height="5.81" fill="#a3c6e2"/><rect x="78.16" y="78.16" width="5.81" height="5.81" fill="#1b0003"/><rect x="78.16" y="25.92" width="5.81" height="5.81" fill="#1b0003"/><rect x="78.16" y="20.11" width="5.81" height="5.81" fill="#1b0003"/><rect x="72.36" y="147.83" width="5.81" height="5.81" fill="#1b0003"/><rect x="72.36" y="142.02" width="5.81" height="5.81" fill="#6a87af"/><rect x="72.36" y="136.22" width="5.81" height="5.81" fill="#b6294c"/><rect x="72.36" y="130.41" width="5.81" height="5.81" fill="#db1943"/><rect x="72.36" y="124.61" width="5.81" height="5.81" fill="#db1943"/><rect x="72.36" y="118.8" width="5.81" height="5.81" fill="#db1943"/><rect x="72.36" y="113" width="5.81" height="5.81" fill="#db1943"/><rect x="72.36" y="107.19" width="5.81" height="5.81" fill="#db1943"/><rect x="72.36" y="101.38" width="5.81" height="5.81" fill="#db1943"/><rect x="72.36" y="95.58" width="5.81" height="5.81" fill="#db1943"/><rect x="72.36" y="89.77" width="5.81" height="5.81" fill="#db1943"/><rect x="72.36" y="83.97" width="5.81" height="5.81" fill="#bedbed"/><rect x="72.36" y="78.16" width="5.81" height="5.81" fill="#a3c6e2"/><rect x="72.36" y="72.36" width="5.81" height="5.81" fill="#1b0003"/><rect x="72.36" y="66.55" width="5.81" height="5.81" fill="#1b0003"/><rect x="72.36" y="60.75" width="5.81" height="5.81" fill="#1b0003"/><rect x="72.36" y="54.94" width="5.81" height="5.81" fill="#1b0003"/><rect x="72.36" y="49.14" width="5.81" height="5.81" fill="#1b0003"/><rect x="72.36" y="43.33" width="5.81" height="5.81" fill="#1b0003"/><rect x="72.36" y="37.53" width="5.81" height="5.81" fill="#1b0003"/><rect x="72.36" y="31.72" width="5.81" height="5.81" fill="#1b0003"/><rect x="72.36" y="25.92" width="5.81" height="5.81" fill="#6a87af"/><rect x="72.36" y="20.11" width="5.81" height="5.81" fill="#1b0003"/><rect x="72.36" y="14.31" width="5.81" height="5.81" fill="#1b0003"/><rect x="66.55" y="147.83" width="5.81" height="5.81" fill="#1b0003"/><rect x="66.55" y="142.02" width="5.81" height="5.81" fill="#6a87af"/><rect x="66.55" y="136.22" width="5.81" height="5.81" fill="#db1943"/><rect x="66.55" y="130.41" width="5.81" height="5.81" fill="#db1943"/><rect x="66.55" y="124.61" width="5.81" height="5.81" fill="#db1943"/><rect x="66.55" y="118.8" width="5.81" height="5.81" fill="#eb3824"/><rect x="66.55" y="113" width="5.81" height="5.81" fill="#eb3824"/><rect x="66.55" y="107.19" width="5.81" height="5.81" fill="#eb3824"/><rect x="66.55" y="101.38" width="5.81" height="5.81" fill="#eb3824"/><rect x="66.55" y="95.58" width="5.81" height="5.81" fill="#db1943"/><rect x="66.55" y="89.77" width="5.81" height="5.81" fill="#db1943"/><rect x="66.55" y="83.97" width="5.81" height="5.81" fill="#e3f7ff"/><rect x="66.55" y="78.16" width="5.81" height="5.81" fill="#bedbed"/><rect x="66.55" y="72.36" width="5.81" height="5.81" fill="#bedbed"/><rect x="66.55" y="66.55" width="5.81" height="5.81" fill="#bedbed"/><rect x="66.55" y="60.75" width="5.81" height="5.81" fill="#a3c6e2"/><rect x="66.55" y="54.94" width="5.81" height="5.81" fill="#bedbed"/><rect x="66.55" y="49.14" width="5.81" height="5.81" fill="#a3c6e2"/><rect x="66.55" y="43.33" width="5.81" height="5.81" fill="#a3c6e2"/><rect x="66.55" y="37.53" width="5.81" height="5.81" fill="#6a87af"/><rect x="66.55" y="31.72" width="5.81" height="5.81" fill="#6a87af"/><rect x="66.55" y="25.92" width="5.81" height="5.81" fill="#7f1e14"/><rect x="66.55" y="20.11" width="5.81" height="5.81" fill="#1b0003"/><rect x="66.55" y="14.31" width="5.81" height="5.81" fill="#e86f3f"/><rect x="66.55" y="8.5" width="5.81" height="5.81" fill="#1b0003"/><rect x="60.75" y="147.83" width="5.81" height="5.81" fill="#1b0003"/><rect x="60.75" y="142.02" width="5.81" height="5.81" fill="#6a87af"/><rect x="60.75" y="136.22" width="5.81" height="5.81" fill="#db1943"/><rect x="60.75" y="130.41" width="5.81" height="5.81" fill="#db1943"/><rect x="60.75" y="124.61" width="5.81" height="5.81" fill="#eb3824"/><rect x="60.75" y="118.8" width="5.81" height="5.81" fill="#eb3824"/><rect x="60.75" y="113" width="5.81" height="5.81" fill="#eb3824"/><rect x="60.75" y="107.19" width="5.81" height="5.81" fill="#eb3824"/><rect x="60.75" y="101.38" width="5.81" height="5.81" fill="#eb3824"/><rect x="60.75" y="95.58" width="5.81" height="5.81" fill="#eb3824"/><rect x="60.75" y="89.77" width="5.81" height="5.81" fill="#eb3824"/><rect x="60.75" y="83.97" width="5.81" height="5.81" fill="#fff"/><rect x="60.75" y="78.16" width="5.81" height="5.81" fill="#fff"/><rect x="60.75" y="72.36" width="5.81" height="5.81" fill="#fff"/><rect x="60.75" y="66.55" width="5.81" height="5.81" fill="#fff"/><rect x="60.75" y="60.75" width="5.81" height="5.81" fill="#fff"/><rect x="60.75" y="54.94" width="5.81" height="5.81" fill="#fff"/><rect x="60.75" y="49.14" width="5.81" height="5.81" fill="#fff"/><rect x="60.75" y="43.33" width="5.81" height="5.81" fill="#fff"/><rect x="60.75" y="37.53" width="5.81" height="5.81" fill="#fff"/><rect x="60.75" y="31.72" width="5.81" height="5.81" fill="#fff"/><rect x="60.75" y="25.92" width="5.81" height="5.81" fill="#7f1e14"/><rect x="60.75" y="20.11" width="5.81" height="5.81" fill="#1b0003"/><rect x="60.75" y="14.31" width="5.81" height="5.81" fill="#f2904e"/><rect x="60.75" y="8.5" width="5.81" height="5.81" fill="#1b0003"/><rect x="54.94" y="147.83" width="5.81" height="5.81" fill="#1b0003"/><rect x="54.94" y="142.02" width="5.81" height="5.81" fill="#a3c6e2"/><rect x="54.94" y="136.22" width="5.81" height="5.81" fill="#b6294c"/><rect x="54.94" y="130.41" width="5.81" height="5.81" fill="#eb3824"/><rect x="54.94" y="124.61" width="5.81" height="5.81" fill="#eb3824"/><rect x="54.94" y="118.8" width="5.81" height="5.81" fill="#eb3824"/><rect x="54.94" y="113" width="5.81" height="5.81" fill="#eb3824"/><rect x="54.94" y="107.19" width="5.81" height="5.81" fill="#eb3824"/><rect x="54.94" y="101.38" width="5.81" height="5.81" fill="#eb3824"/><rect x="54.94" y="95.58" width="5.81" height="5.81" fill="#eb3824"/><rect x="54.94" y="89.77" width="5.81" height="5.81" fill="#ef837b"/><rect x="54.94" y="83.97" width="5.81" height="5.81" fill="#a3c6e2"/><rect x="54.94" y="78.16" width="5.81" height="5.81" fill="#a3c6e2"/><rect x="54.94" y="72.36" width="5.81" height="5.81" fill="#a3c6e2"/><rect x="54.94" y="66.55" width="5.81" height="5.81" fill="#a3c6e2"/><rect x="54.94" y="60.75" width="5.81" height="5.81" fill="#a3c6e2"/><rect x="54.94" y="54.94" width="5.81" height="5.81" fill="#a3c6e2"/><rect x="54.94" y="49.14" width="5.81" height="5.81" fill="#a3c6e2"/><rect x="54.94" y="43.33" width="5.81" height="5.81" fill="#a3c6e2"/><rect x="54.94" y="37.53" width="5.81" height="5.81" fill="#a3c6e2"/><rect x="54.94" y="31.72" width="5.81" height="5.81" fill="#a3c6e2"/><rect x="54.94" y="25.92" width="5.81" height="5.81" fill="#7f1e14"/><rect x="54.94" y="20.11" width="5.81" height="5.81" fill="#1b0003"/><rect x="54.94" y="14.31" width="5.81" height="5.81" fill="#f2904e"/><rect x="54.94" y="8.5" width="5.81" height="5.81" fill="#1b0003"/><rect x="49.14" y="147.83" width="5.81" height="5.81" fill="#1b0003"/><rect x="49.14" y="142.02" width="5.81" height="5.81" fill="#a3c6e2"/><rect x="49.14" y="136.22" width="5.81" height="5.81" fill="#b6294c"/><rect x="49.14" y="130.41" width="5.81" height="5.81" fill="#eb3824"/><rect x="49.14" y="124.61" width="5.81" height="5.81" fill="#eb3824"/><rect x="49.14" y="118.8" width="5.81" height="5.81" fill="#ef837b"/><rect x="49.14" y="113" width="5.81" height="5.81" fill="#ef837b"/><rect x="49.14" y="107.19" width="5.81" height="5.81" fill="#ef837b"/><rect x="49.14" y="101.38" width="5.81" height="5.81" fill="#fff"/><rect x="49.14" y="95.58" width="5.81" height="5.81" fill="#fff"/><rect x="49.14" y="89.77" width="5.81" height="5.81" fill="#ef837b"/><rect x="49.14" y="83.97" width="5.81" height="5.81" fill="#a3c6e2"/><rect x="49.14" y="78.16" width="5.81" height="5.81" fill="#223c5b"/><rect x="49.14" y="72.36" width="5.81" height="5.81" fill="#1b0003"/><rect x="49.14" y="66.55" width="5.81" height="5.81" fill="#1b0003"/><rect x="49.14" y="60.75" width="5.81" height="5.81" fill="#1b0003"/><rect x="49.14" y="54.94" width="5.81" height="5.81" fill="#1b0003"/><rect x="49.14" y="49.14" width="5.81" height="5.81" fill="#1b0003"/><rect x="49.14" y="43.33" width="5.81" height="5.81" fill="#1b0003"/><rect x="49.14" y="37.53" width="5.81" height="5.81" fill="#1b0003"/><rect x="49.14" y="31.72" width="5.81" height="5.81" fill="#1b0003"/><rect x="49.14" y="25.92" width="5.81" height="5.81" fill="#bedbed"/><rect x="49.14" y="20.11" width="5.81" height="5.81" fill="#1b0003"/><rect x="49.14" y="14.31" width="5.81" height="5.81" fill="#1b0003"/><rect x="43.33" y="147.83" width="5.81" height="5.81" fill="#1b0003"/><rect x="43.33" y="142.02" width="5.81" height="5.81" fill="#a3c6e2"/><rect x="43.33" y="136.22" width="5.81" height="5.81" fill="#ef837b"/><rect x="43.33" y="130.41" width="5.81" height="5.81" fill="#ef837b"/><rect x="43.33" y="124.61" width="5.81" height="5.81" fill="#ef837b"/><rect x="43.33" y="118.8" width="5.81" height="5.81" fill="#ef837b"/><rect x="43.33" y="113" width="5.81" height="5.81" fill="#ef837b"/><rect x="43.33" y="107.19" width="5.81" height="5.81" fill="#fff"/><rect x="43.33" y="101.38" width="5.81" height="5.81" fill="#fff"/><rect x="43.33" y="95.58" width="5.81" height="5.81" fill="#fff"/><rect x="43.33" y="89.77" width="5.81" height="5.81" fill="#fff"/><rect x="43.33" y="83.97" width="5.81" height="5.81" fill="#a3c6e2"/><rect x="43.33" y="78.16" width="5.81" height="5.81" fill="#1b0003"/><rect x="43.33" y="25.92" width="5.81" height="5.81" fill="#1b0003"/><rect x="43.33" y="20.11" width="5.81" height="5.81" fill="#1b0003"/><rect x="37.53" y="147.83" width="5.81" height="5.81" fill="#1b0003"/><rect x="37.53" y="142.02" width="5.81" height="5.81" fill="#a3c6e2"/><rect x="37.53" y="136.22" width="5.81" height="5.81" fill="#ef837b"/><rect x="37.53" y="130.41" width="5.81" height="5.81" fill="#ef837b"/><rect x="37.53" y="124.61" width="5.81" height="5.81" fill="#ef837b"/><rect x="37.53" y="118.8" width="5.81" height="5.81" fill="#ef837b"/><rect x="37.53" y="113" width="5.81" height="5.81" fill="#fff"/><rect x="37.53" y="107.19" width="5.81" height="5.81" fill="#fff"/><rect x="37.53" y="101.38" width="5.81" height="5.81" fill="#fff"/><rect x="37.53" y="95.58" width="5.81" height="5.81" fill="#fff"/><rect x="37.53" y="89.77" width="5.81" height="5.81" fill="#a3c6e2"/><rect x="37.53" y="83.97" width="5.81" height="5.81" fill="#1b0003"/><rect x="31.72" y="147.83" width="5.81" height="5.81" fill="#1b0003"/><rect x="31.72" y="142.02" width="5.81" height="5.81" fill="#a3c6e2"/><rect x="31.72" y="136.22" width="5.81" height="5.81" fill="#ef837b"/><rect x="31.72" y="130.41" width="5.81" height="5.81" fill="#ef837b"/><rect x="31.72" y="124.61" width="5.81" height="5.81" fill="#ef837b"/><rect x="31.72" y="118.8" width="5.81" height="5.81" fill="#ef837b"/><rect x="31.72" y="113" width="5.81" height="5.81" fill="#fff"/><rect x="31.72" y="107.19" width="5.81" height="5.81" fill="#fff"/><rect x="31.72" y="101.38" width="5.81" height="5.81" fill="#fff"/><rect x="31.72" y="95.58" width="5.81" height="5.81" fill="#a3c6e2"/><rect x="31.72" y="89.77" width="5.81" height="5.81" fill="#1b0003"/><rect x="25.92" y="147.83" width="5.81" height="5.81" fill="#1b0003"/><rect x="25.92" y="142.02" width="5.81" height="5.81" fill="#a3c6e2"/><rect x="25.92" y="136.22" width="5.81" height="5.81" fill="#ef837b"/><rect x="25.92" y="130.41" width="5.81" height="5.81" fill="#ef837b"/><rect x="25.92" y="124.61" width="5.81" height="5.81" fill="#ef837b"/><rect x="25.92" y="118.8" width="5.81" height="5.81" fill="#fff"/><rect x="25.92" y="113" width="5.81" height="5.81" fill="#fff"/><rect x="25.92" y="107.19" width="5.81" height="5.81" fill="#fff"/><rect x="25.92" y="101.38" width="5.81" height="5.81" fill="#a3c6e2"/><rect x="25.92" y="95.58" width="5.81" height="5.81" fill="#1b0003"/><rect x="20.11" y="147.83" width="5.81" height="5.81" fill="#1b0003"/><rect x="20.11" y="142.02" width="5.81" height="5.81" fill="#a3c6e2"/><rect x="20.11" y="136.22" width="5.81" height="5.81" fill="#ef837b"/><rect x="20.11" y="130.41" width="5.81" height="5.81" fill="#ef837b"/><rect x="20.11" y="124.61" width="5.81" height="5.81" fill="#ef837b"/><rect x="20.11" y="118.8" width="5.81" height="5.81" fill="#a3c6e2"/><rect x="20.11" y="113" width="5.81" height="5.81" fill="#e3f7ff"/><rect x="20.11" y="107.19" width="5.81" height="5.81" fill="#e3f7ff"/><rect x="20.11" y="101.38" width="5.81" height="5.81" fill="#1b0003"/><rect x="14.31" y="147.83" width="5.81" height="5.81" fill="#1b0003"/><rect x="14.31" y="142.02" width="5.81" height="5.81" fill="#a3c6e2"/><rect x="14.31" y="136.22" width="5.81" height="5.81" fill="#a3c6e2"/><rect x="14.31" y="130.41" width="5.81" height="5.81" fill="#a3c6e2"/><rect x="14.31" y="124.61" width="5.81" height="5.81" fill="#a3c6e2"/><rect x="14.31" y="118.8" width="5.81" height="5.81" fill="#e3f7ff"/><rect x="14.31" y="113" width="5.81" height="5.81" fill="#1b0003"/><rect x="14.31" y="107.19" width="5.81" height="5.81" fill="#1b0003"/><rect x="8.5" y="142.02" width="5.81" height="5.81" fill="#1b0003"/><rect x="8.5" y="136.22" width="5.81" height="5.81" fill="#1b0003"/><rect x="8.5" y="130.41" width="5.81" height="5.81" fill="#1b0003"/><rect x="8.5" y="124.61" width="5.81" height="5.81" fill="#1b0003"/><rect x="8.5" y="118.8" width="5.81" height="5.81" fill="#1b0003"/></g></g></g></g></svg>