<svg xmlns="http://www.w3.org/2000/svg" width="139.79" height="146.25" viewBox="0 0 139.79 146.25"><g id="Layer_2" data-name="Layer 2"><g id="items"><g id="Red_Apple" data-name="Red Apple"><path d="M101,146.25H38.78v-6.46H25.85v-6.46H19.39v-6.46H12.92V120.4H6.46v-6.46H0V38.78H6.46V32.31h6.46V25.85h6.47V19.39H51.7V6.46H64.63V0H101V6.46h6.46V19.39H120.4v6.46h6.47v6.46h6.46v6.47h6.46v75.16h-6.46v6.46h-6.46v6.47H120.4v6.46h-6.46v6.46H101Zm-45.24-17H84v-6.46H96.94v-6.46h6.46v-6.46h6.47V103.4h6.46V96.94h6.46V55.78h-6.46V49.31h-6.46V42.85H103.4V36.39H90.48V23.46H84V17H81.63v6.46H68.7V36.39H36.39v6.46H29.92v6.46H23.46v6.47H17V96.94h6.46v6.46h6.46v6.47h6.47v6.46h6.46v6.46H55.78Z" fill="#fff"/><g id="Red_Apple-2" data-name="Red Apple"><rect x="124.83" y="98.98" width="6.46" height="6.46" fill="#1b0003"/><rect x="124.83" y="92.52" width="6.46" height="6.46" fill="#1b0003"/><rect x="124.83" y="86.05" width="6.46" height="6.46" fill="#1b0003"/><rect x="124.83" y="79.59" width="6.46" height="6.46" fill="#1b0003"/><rect x="124.83" y="73.13" width="6.46" height="6.46" fill="#1b0003"/><rect x="124.83" y="66.66" width="6.46" height="6.46" fill="#1b0003"/><rect x="124.83" y="60.2" width="6.46" height="6.46" fill="#1b0003"/><rect x="124.83" y="53.74" width="6.46" height="6.46" fill="#1b0003"/><rect x="124.83" y="47.28" width="6.46" height="6.46" fill="#1b0003"/><rect x="118.37" y="105.44" width="6.46" height="6.46" fill="#1b0003"/><rect x="118.37" y="98.98" width="6.46" height="6.46" fill="#db1943"/><rect x="118.37" y="92.52" width="6.46" height="6.46" fill="#db1943"/><rect x="118.37" y="86.05" width="6.46" height="6.46" fill="#db1943"/><rect x="118.37" y="79.59" width="6.46" height="6.46" fill="#db1943"/><rect x="118.37" y="73.13" width="6.46" height="6.46" fill="#db1943"/><rect x="118.37" y="66.66" width="6.46" height="6.46" fill="#db1943"/><rect x="118.37" y="60.2" width="6.46" height="6.46" fill="#db1943"/><rect x="118.37" y="53.74" width="6.46" height="6.46" fill="#db1943"/><rect x="118.37" y="47.28" width="6.46" height="6.46" fill="#b6294c"/><rect x="118.37" y="40.81" width="6.46" height="6.46" fill="#1b0003"/><rect x="111.9" y="111.9" width="6.46" height="6.46" fill="#1b0003"/><rect x="111.9" y="105.44" width="6.46" height="6.46" fill="#db1943"/><rect x="111.9" y="98.98" width="6.46" height="6.46" fill="#db1943"/><rect x="111.9" y="92.52" width="6.46" height="6.46" fill="#db1943"/><rect x="111.9" y="86.05" width="6.46" height="6.46" fill="#db1943"/><rect x="111.9" y="79.59" width="6.46" height="6.46" fill="#db1943"/><rect x="111.9" y="73.13" width="6.46" height="6.46" fill="#b6294c"/><rect x="111.9" y="66.66" width="6.46" height="6.46" fill="#b6294c"/><rect x="111.9" y="60.2" width="6.46" height="6.46" fill="#b6294c"/><rect x="111.9" y="53.74" width="6.46" height="6.46" fill="#b6294c"/><rect x="111.9" y="47.28" width="6.46" height="6.46" fill="#b6294c"/><rect x="111.9" y="40.81" width="6.46" height="6.46" fill="#b6294c"/><rect x="111.9" y="34.35" width="6.46" height="6.46" fill="#1b0003"/><rect x="105.44" y="118.37" width="6.46" height="6.46" fill="#1b0003"/><rect x="105.44" y="111.9" width="6.46" height="6.46" fill="#db1943"/><rect x="105.44" y="105.44" width="6.46" height="6.46" fill="#db1943"/><rect x="105.44" y="98.98" width="6.46" height="6.46" fill="#db1943"/><rect x="105.44" y="92.52" width="6.46" height="6.46" fill="#db1943"/><rect x="105.44" y="86.05" width="6.46" height="6.46" fill="#b6294c"/><rect x="105.44" y="79.59" width="6.46" height="6.46" fill="#b6294c"/><rect x="105.44" y="73.13" width="6.46" height="6.46" fill="#b6294c"/><rect x="105.44" y="66.66" width="6.46" height="6.46" fill="#b6294c"/><rect x="105.44" y="60.2" width="6.46" height="6.46" fill="#b6294c"/><rect x="105.44" y="53.74" width="6.46" height="6.46" fill="#b6294c"/><rect x="105.44" y="47.28" width="6.46" height="6.46" fill="#db1943"/><rect x="105.44" y="40.81" width="6.46" height="6.46" fill="#b6294c"/><rect x="105.44" y="34.35" width="6.46" height="6.46" fill="#b6294c"/><rect x="105.44" y="27.89" width="6.46" height="6.46" fill="#1b0003"/><rect x="98.98" y="124.83" width="6.46" height="6.46" fill="#1b0003"/><rect x="98.98" y="118.37" width="6.46" height="6.46" fill="#db1943"/><rect x="98.98" y="111.9" width="6.46" height="6.46" fill="#db1943"/><rect x="98.98" y="105.44" width="6.46" height="6.46" fill="#db1943"/><rect x="98.98" y="98.98" width="6.46" height="6.46" fill="#b6294c"/><rect x="98.98" y="92.52" width="6.46" height="6.46" fill="#b6294c"/><rect x="98.98" y="86.05" width="6.46" height="6.46" fill="#b6294c"/><rect x="98.98" y="79.59" width="6.46" height="6.46" fill="#b6294c"/><rect x="98.98" y="73.13" width="6.46" height="6.46" fill="#db1943"/><rect x="98.98" y="66.66" width="6.46" height="6.46" fill="#db1943"/><rect x="98.98" y="60.2" width="6.46" height="6.46" fill="#db1943"/><rect x="98.98" y="53.74" width="6.46" height="6.46" fill="#db1943"/><rect x="98.98" y="47.28" width="6.46" height="6.46" fill="#db1943"/><rect x="98.98" y="40.81" width="6.46" height="6.46" fill="#db1943"/><rect x="98.98" y="34.35" width="6.46" height="6.46" fill="#b6294c"/><rect x="98.98" y="27.89" width="6.46" height="6.46" fill="#1b0003"/><rect x="92.52" y="124.83" width="6.46" height="6.46" fill="#1b0003"/><rect x="92.52" y="118.37" width="6.46" height="6.46" fill="#db1943"/><rect x="92.52" y="111.9" width="6.46" height="6.46" fill="#db1943"/><rect x="92.52" y="105.44" width="6.46" height="6.46" fill="#b6294c"/><rect x="92.52" y="98.98" width="6.46" height="6.46" fill="#b6294c"/><rect x="92.52" y="92.52" width="6.46" height="6.46" fill="#b6294c"/><rect x="92.52" y="86.05" width="6.46" height="6.46" fill="#b6294c"/><rect x="92.52" y="79.59" width="6.46" height="6.46" fill="#db1943"/><rect x="92.52" y="73.13" width="6.46" height="6.46" fill="#db1943"/><rect x="92.52" y="66.66" width="6.46" height="6.46" fill="#db1943"/><rect x="92.52" y="60.2" width="6.46" height="6.46" fill="#db1943"/><rect x="92.52" y="53.74" width="6.46" height="6.46" fill="#db1943"/><rect x="92.52" y="47.28" width="6.46" height="6.46" fill="#db1943"/><rect x="92.52" y="40.81" width="6.46" height="6.46" fill="#db1943"/><rect x="92.52" y="34.35" width="6.46" height="6.46" fill="#db1943"/><rect x="92.52" y="27.89" width="6.46" height="6.46" fill="#1b0003"/><rect x="92.52" y="21.43" width="6.46" height="6.46" fill="#1b0003"/><rect x="92.52" y="14.96" width="6.46" height="6.46" fill="#1b0003"/><rect x="86.05" y="131.29" width="6.46" height="6.46" fill="#1b0003"/><rect x="86.05" y="124.83" width="6.46" height="6.46" fill="#b6294c"/><rect x="86.05" y="118.37" width="6.46" height="6.46" fill="#db1943"/><rect x="86.05" y="111.9" width="6.46" height="6.46" fill="#b6294c"/><rect x="86.05" y="105.44" width="6.46" height="6.46" fill="#b6294c"/><rect x="86.05" y="98.98" width="6.46" height="6.46" fill="#b6294c"/><rect x="86.05" y="92.52" width="6.46" height="6.46" fill="#b6294c"/><rect x="86.05" y="86.05" width="6.46" height="6.46" fill="#db1943"/><rect x="86.05" y="79.59" width="6.46" height="6.46" fill="#db1943"/><rect x="86.05" y="73.13" width="6.46" height="6.46" fill="#db1943"/><rect x="86.05" y="66.66" width="6.46" height="6.46" fill="#db1943"/><rect x="86.05" y="60.2" width="6.46" height="6.46" fill="#db1943"/><rect x="86.05" y="53.74" width="6.46" height="6.46" fill="#db1943"/><rect x="86.05" y="47.28" width="6.46" height="6.46" fill="#db1943"/><rect x="86.05" y="40.81" width="6.46" height="6.46" fill="#db1943"/><rect x="86.05" y="34.35" width="6.46" height="6.46" fill="#b6294c"/><rect x="86.05" y="27.89" width="6.46" height="6.46" fill="#1b0003"/><rect x="86.05" y="21.43" width="6.46" height="6.46" fill="#1b0003"/><rect x="86.05" y="14.96" width="6.46" height="6.46" fill="#1b0003"/><rect x="86.05" y="8.5" width="6.46" height="6.46" fill="#1b0003"/><rect x="79.59" y="131.29" width="6.46" height="6.46" fill="#1b0003"/><rect x="79.59" y="124.83" width="6.46" height="6.46" fill="#b6294c"/><rect x="79.59" y="118.37" width="6.46" height="6.46" fill="#db1943"/><rect x="79.59" y="111.9" width="6.46" height="6.46" fill="#b6294c"/><rect x="79.59" y="105.44" width="6.46" height="6.46" fill="#b6294c"/><rect x="79.59" y="98.98" width="6.46" height="6.46" fill="#b6294c"/><rect x="79.59" y="92.52" width="6.46" height="6.46" fill="#db1943"/><rect x="79.59" y="86.05" width="6.46" height="6.46" fill="#eb3824"/><rect x="79.59" y="79.59" width="6.46" height="6.46" fill="#eb3824"/><rect x="79.59" y="73.13" width="6.46" height="6.46" fill="#eb3824"/><rect x="79.59" y="66.66" width="6.46" height="6.46" fill="#eb3824"/><rect x="79.59" y="60.2" width="6.46" height="6.46" fill="#db1943"/><rect x="79.59" y="53.74" width="6.46" height="6.46" fill="#db1943"/><rect x="79.59" y="47.28" width="6.46" height="6.46" fill="#db1943"/><rect x="79.59" y="40.81" width="6.46" height="6.46" fill="#b6294c"/><rect x="79.59" y="34.35" width="6.46" height="6.46" fill="#1b0003"/><rect x="79.59" y="27.89" width="6.46" height="6.46" fill="#386614"/><rect x="79.59" y="21.43" width="6.46" height="6.46" fill="#386614"/><rect x="79.59" y="14.96" width="6.46" height="6.46" fill="#3c9129"/><rect x="79.59" y="8.5" width="6.46" height="6.46" fill="#1b0003"/><rect x="73.13" y="131.29" width="6.46" height="6.46" fill="#1b0003"/><rect x="73.13" y="124.83" width="6.46" height="6.46" fill="#b6294c"/><rect x="73.13" y="118.37" width="6.46" height="6.46" fill="#b6294c"/><rect x="73.13" y="111.9" width="6.46" height="6.46" fill="#b6294c"/><rect x="73.13" y="105.44" width="6.46" height="6.46" fill="#b6294c"/><rect x="73.13" y="98.98" width="6.46" height="6.46" fill="#db1943"/><rect x="73.13" y="92.52" width="6.46" height="6.46" fill="#eb3824"/><rect x="73.13" y="86.05" width="6.46" height="6.46" fill="#eb3824"/><rect x="73.13" y="79.59" width="6.46" height="6.46" fill="#eb3824"/><rect x="73.13" y="73.13" width="6.46" height="6.46" fill="#eb3824"/><rect x="73.13" y="66.66" width="6.46" height="6.46" fill="#eb3824"/><rect x="73.13" y="60.2" width="6.46" height="6.46" fill="#eb3824"/><rect x="73.13" y="53.74" width="6.46" height="6.46" fill="#db1943"/><rect x="73.13" y="47.28" width="6.46" height="6.46" fill="#db1943"/><rect x="73.13" y="40.81" width="6.46" height="6.46" fill="#1b0003"/><rect x="73.13" y="34.35" width="6.46" height="6.46" fill="#386614"/><rect x="73.13" y="27.89" width="6.46" height="6.46" fill="#386614"/><rect x="73.13" y="21.43" width="6.46" height="6.46" fill="#3c9129"/><rect x="73.13" y="14.96" width="6.46" height="6.46" fill="#1b0003"/><rect x="73.13" y="8.5" width="6.46" height="6.46" fill="#1b0003"/><rect x="66.66" y="131.29" width="6.46" height="6.46" fill="#1b0003"/><rect x="66.66" y="124.83" width="6.46" height="6.46" fill="#b6294c"/><rect x="66.66" y="118.37" width="6.46" height="6.46" fill="#b6294c"/><rect x="66.66" y="111.9" width="6.46" height="6.46" fill="#b6294c"/><rect x="66.66" y="105.44" width="6.46" height="6.46" fill="#db1943"/><rect x="66.66" y="98.98" width="6.46" height="6.46" fill="#eb3824"/><rect x="66.66" y="92.52" width="6.46" height="6.46" fill="#eb3824"/><rect x="66.66" y="86.05" width="6.46" height="6.46" fill="#eb3824"/><rect x="66.66" y="79.59" width="6.46" height="6.46" fill="#eb3824"/><rect x="66.66" y="73.13" width="6.46" height="6.46" fill="#eb3824"/><rect x="66.66" y="66.66" width="6.46" height="6.46" fill="#eb3824"/><rect x="66.66" y="60.2" width="6.46" height="6.46" fill="#eb3824"/><rect x="66.66" y="53.74" width="6.46" height="6.46" fill="#db1943"/><rect x="66.66" y="47.28" width="6.46" height="6.46" fill="#db1943"/><rect x="66.66" y="40.81" width="6.46" height="6.46" fill="#1b0003"/><rect x="66.66" y="34.35" width="6.46" height="6.46" fill="#1b0003"/><rect x="66.66" y="27.89" width="6.46" height="6.46" fill="#1b0003"/><rect x="66.66" y="21.43" width="6.46" height="6.46" fill="#1b0003"/><rect x="66.66" y="14.96" width="6.46" height="6.46" fill="#1b0003"/><rect x="60.2" y="131.29" width="6.46" height="6.46" fill="#1b0003"/><rect x="60.2" y="124.83" width="6.46" height="6.46" fill="#b6294c"/><rect x="60.2" y="118.37" width="6.46" height="6.46" fill="#b6294c"/><rect x="60.2" y="111.9" width="6.46" height="6.46" fill="#db1943"/><rect x="60.2" y="105.44" width="6.46" height="6.46" fill="#eb3824"/><rect x="60.2" y="98.98" width="6.46" height="6.46" fill="#eb3824"/><rect x="60.2" y="92.52" width="6.46" height="6.46" fill="#eb3824"/><rect x="60.2" y="86.05" width="6.46" height="6.46" fill="#eb3824"/><rect x="60.2" y="79.59" width="6.46" height="6.46" fill="#eb3824"/><rect x="60.2" y="73.13" width="6.46" height="6.46" fill="#eb3824"/><rect x="60.2" y="66.66" width="6.46" height="6.46" fill="#eb3824"/><rect x="60.2" y="60.2" width="6.46" height="6.46" fill="#eb3824"/><rect x="60.2" y="53.74" width="6.46" height="6.46" fill="#db1943"/><rect x="60.2" y="47.28" width="6.46" height="6.46" fill="#db1943"/><rect x="60.2" y="40.81" width="6.46" height="6.46" fill="#1b0003"/><rect x="60.2" y="34.35" width="6.46" height="6.46" fill="#1b0003"/><rect x="60.2" y="27.89" width="6.46" height="6.46" fill="#1b0003"/><rect x="60.2" y="21.43" width="6.46" height="6.46" fill="#1b0003"/><rect x="60.2" y="14.96" width="6.46" height="6.46" fill="#1b0003"/><rect x="53.74" y="131.29" width="6.46" height="6.46" fill="#1b0003"/><rect x="53.74" y="124.83" width="6.46" height="6.46" fill="#b6294c"/><rect x="53.74" y="118.37" width="6.46" height="6.46" fill="#ad1e47"/><rect x="53.74" y="111.9" width="6.46" height="6.46" fill="#db1943"/><rect x="53.74" y="105.44" width="6.46" height="6.46" fill="#eb3824"/><rect x="53.74" y="98.98" width="6.46" height="6.46" fill="#eb3824"/><rect x="53.74" y="92.52" width="6.46" height="6.46" fill="#eb3824"/><rect x="53.74" y="86.05" width="6.46" height="6.46" fill="#eb3824"/><rect x="53.74" y="79.59" width="6.46" height="6.46" fill="#eb3824"/><rect x="53.74" y="73.13" width="6.46" height="6.46" fill="#eb3824"/><rect x="53.74" y="66.66" width="6.46" height="6.46" fill="#eb3824"/><rect x="53.74" y="60.2" width="6.46" height="6.46" fill="#eb3824"/><rect x="53.74" y="53.74" width="6.46" height="6.46" fill="#eb3824"/><rect x="53.74" y="47.28" width="6.46" height="6.46" fill="#db1943"/><rect x="53.74" y="40.81" width="6.46" height="6.46" fill="#1b0003"/><rect x="53.74" y="34.35" width="6.46" height="6.46" fill="#1b0003"/><rect x="53.74" y="27.89" width="6.46" height="6.46" fill="#1b0003"/><rect x="47.28" y="131.29" width="6.46" height="6.46" fill="#1b0003"/><rect x="47.28" y="124.83" width="6.46" height="6.46" fill="#b6294c"/><rect x="47.28" y="118.37" width="6.46" height="6.46" fill="#ad1e47"/><rect x="47.28" y="111.9" width="6.46" height="6.46" fill="#db1943"/><rect x="47.28" y="105.44" width="6.46" height="6.46" fill="#eb3824"/><rect x="47.28" y="98.98" width="6.46" height="6.46" fill="#eb3824"/><rect x="47.28" y="92.52" width="6.46" height="6.46" fill="#eb3824"/><rect x="47.28" y="86.05" width="6.46" height="6.46" fill="#eb3824"/><rect x="47.28" y="79.59" width="6.46" height="6.46" fill="#eb3824"/><rect x="47.28" y="73.13" width="6.46" height="6.46" fill="#eb3824"/><rect x="47.28" y="66.66" width="6.46" height="6.46" fill="#eb3824"/><rect x="47.28" y="60.2" width="6.46" height="6.46" fill="#eb3824"/><rect x="47.28" y="53.74" width="6.46" height="6.46" fill="#eb3824"/><rect x="47.28" y="47.28" width="6.46" height="6.46" fill="#eb3824"/><rect x="47.28" y="40.81" width="6.46" height="6.46" fill="#96173b"/><rect x="47.28" y="34.35" width="6.46" height="6.46" fill="#96173b"/><rect x="47.28" y="27.89" width="6.46" height="6.46" fill="#96173b"/><rect x="40.81" y="124.83" width="6.46" height="6.46" fill="#1b0003"/><rect x="40.81" y="118.37" width="6.46" height="6.46" fill="#b6294c"/><rect x="40.81" y="111.9" width="6.46" height="6.46" fill="#db1943"/><rect x="40.81" y="105.44" width="6.46" height="6.46" fill="#eb3824"/><rect x="40.81" y="98.98" width="6.46" height="6.46" fill="#eb3824"/><rect x="40.81" y="92.52" width="6.46" height="6.46" fill="#eb3824"/><rect x="40.81" y="86.05" width="6.46" height="6.46" fill="#eb3824"/><rect x="40.81" y="79.59" width="6.46" height="6.46" fill="#eb3824"/><rect x="40.81" y="73.13" width="6.46" height="6.46" fill="#eb3824"/><rect x="40.81" y="66.66" width="6.46" height="6.46" fill="#eb3824"/><rect x="40.81" y="60.2" width="6.46" height="6.46" fill="#eb3824"/><rect x="40.81" y="53.74" width="6.46" height="6.46" fill="#eb3824"/><rect x="40.81" y="47.28" width="6.46" height="6.46" fill="#eb3824"/><rect x="40.81" y="40.81" width="6.46" height="6.46" fill="#eb3824"/><rect x="40.81" y="34.35" width="6.46" height="6.46" fill="#b6294c"/><rect x="40.81" y="27.89" width="6.46" height="6.46" fill="#96173b"/><rect x="34.35" y="124.83" width="6.46" height="6.46" fill="#1b0003"/><rect x="34.35" y="118.37" width="6.46" height="6.46" fill="#db1943"/><rect x="34.35" y="111.9" width="6.46" height="6.46" fill="#db1943"/><rect x="34.35" y="105.44" width="6.46" height="6.46" fill="#eb3824"/><rect x="34.35" y="98.98" width="6.46" height="6.46" fill="#eb3824"/><rect x="34.35" y="92.52" width="6.46" height="6.46" fill="#eb3824"/><rect x="34.35" y="86.05" width="6.46" height="6.46" fill="#eb3824"/><rect x="34.35" y="79.59" width="6.46" height="6.46" fill="#eb3824"/><rect x="34.35" y="73.13" width="6.46" height="6.46" fill="#eb3824"/><rect x="34.35" y="66.66" width="6.46" height="6.46" fill="#eb3824"/><rect x="34.35" y="60.2" width="6.46" height="6.46" fill="#eb3824"/><rect x="34.35" y="53.74" width="6.46" height="6.46" fill="#ef837b"/><rect x="34.35" y="47.28" width="6.46" height="6.46" fill="#f4b9b8"/><rect x="34.35" y="40.81" width="6.46" height="6.46" fill="#eb3824"/><rect x="34.35" y="34.35" width="6.46" height="6.46" fill="#eb3824"/><rect x="34.35" y="27.89" width="6.46" height="6.46" fill="#96173b"/><rect x="27.89" y="118.37" width="6.46" height="6.46" fill="#1b0003"/><rect x="27.89" y="111.9" width="6.46" height="6.46" fill="#db1943"/><rect x="27.89" y="105.44" width="6.46" height="6.46" fill="#eb3824"/><rect x="27.89" y="98.98" width="6.46" height="6.46" fill="#eb3824"/><rect x="27.89" y="92.52" width="6.46" height="6.46" fill="#eb3824"/><rect x="27.89" y="86.05" width="6.46" height="6.46" fill="#eb3824"/><rect x="27.89" y="79.59" width="6.46" height="6.46" fill="#eb3824"/><rect x="27.89" y="73.13" width="6.46" height="6.46" fill="#eb3824"/><rect x="27.89" y="66.66" width="6.46" height="6.46" fill="#eb3824"/><rect x="27.89" y="60.2" width="6.46" height="6.46" fill="#ef837b"/><rect x="27.89" y="53.74" width="6.46" height="6.46" fill="#f4b9b8"/><rect x="27.89" y="47.28" width="6.46" height="6.46" fill="#f4b9b8"/><rect x="27.89" y="40.81" width="6.46" height="6.46" fill="#eb3824"/><rect x="27.89" y="34.35" width="6.46" height="6.46" fill="#eb3824"/><rect x="27.89" y="27.89" width="6.46" height="6.46" fill="#b6294c"/><rect x="21.43" y="111.9" width="6.46" height="6.46" fill="#1b0003"/><rect x="21.43" y="105.44" width="6.46" height="6.46" fill="#eb3824"/><rect x="21.43" y="98.98" width="6.46" height="6.46" fill="#eb3824"/><rect x="21.43" y="92.52" width="6.46" height="6.46" fill="#eb3824"/><rect x="21.43" y="86.05" width="6.46" height="6.46" fill="#eb3824"/><rect x="21.43" y="79.59" width="6.46" height="6.46" fill="#eb3824"/><rect x="21.43" y="73.13" width="6.46" height="6.46" fill="#eb3824"/><rect x="21.43" y="66.66" width="6.46" height="6.46" fill="#ef837b"/><rect x="21.43" y="60.2" width="6.46" height="6.46" fill="#ef837b"/><rect x="21.43" y="53.74" width="6.46" height="6.46" fill="#ef837b"/><rect x="21.43" y="47.28" width="6.46" height="6.46" fill="#eb3824"/><rect x="21.43" y="40.81" width="6.46" height="6.46" fill="#eb3824"/><rect x="21.43" y="34.35" width="6.46" height="6.46" fill="#96173b"/><rect x="14.96" y="105.44" width="6.46" height="6.46" fill="#1b0003"/><rect x="14.96" y="98.98" width="6.46" height="6.46" fill="#eb3824"/><rect x="14.96" y="92.52" width="6.46" height="6.46" fill="#eb3824"/><rect x="14.96" y="86.05" width="6.46" height="6.46" fill="#eb3824"/><rect x="14.96" y="79.59" width="6.46" height="6.46" fill="#eb3824"/><rect x="14.96" y="73.13" width="6.46" height="6.46" fill="#eb3824"/><rect x="14.96" y="66.66" width="6.46" height="6.46" fill="#eb3824"/><rect x="14.96" y="60.2" width="6.46" height="6.46" fill="#eb3824"/><rect x="14.96" y="53.74" width="6.46" height="6.46" fill="#eb3824"/><rect x="14.96" y="47.28" width="6.46" height="6.46" fill="#eb3824"/><rect x="14.96" y="40.81" width="6.46" height="6.46" fill="#96173b"/><rect x="8.5" y="98.98" width="6.46" height="6.46" fill="#1b0003"/><rect x="8.5" y="92.52" width="6.46" height="6.46" fill="#96173b"/><rect x="8.5" y="86.05" width="6.46" height="6.46" fill="#96173b"/><rect x="8.5" y="79.59" width="6.46" height="6.46" fill="#96173b"/><rect x="8.5" y="73.13" width="6.46" height="6.46" fill="#b6294c"/><rect x="8.5" y="66.66" width="6.46" height="6.46" fill="#b6294c"/><rect x="8.5" y="60.2" width="6.46" height="6.46" fill="#96173b"/><rect x="8.5" y="53.74" width="6.46" height="6.46" fill="#96173b"/><rect x="8.5" y="47.28" width="6.46" height="6.46" fill="#96173b"/></g></g></g></g></svg>