<svg xmlns="http://www.w3.org/2000/svg" width="88.97" height="133.26" viewBox="0 0 88.97 133.26"><g id="Layer_2" data-name="Layer 2"><g id="items"><g id="Ruby"><path d="M72.36,133.26H16.61v-5.53H11.07v-5.54H5.54v-5.54H0v-100H5.54V11.07h5.53V5.54h5.54V0H72.36V5.54H77.9v5.53h5.54v5.54H89v100H83.44v5.54H77.9v5.54H72.36Zm-38.75-17H55.36v-5.53H60.9v-5.54h5.54V99.65H72v-66H66.44V28.07H60.9V22.54H55.36V17H33.61v5.54H28.07v5.53H22.54v5.54H17v66h5.54v5.54h5.53v5.54h5.54Z" fill="#fff"/><g id="Ruby-2" data-name="Ruby"><rect x="74.94" y="102.62" width="5.54" height="5.54" fill="#1b0003"/><rect x="74.94" y="97.08" width="5.54" height="5.54" fill="#1b0003"/><rect x="74.94" y="91.54" width="5.54" height="5.54" fill="#1b0003"/><rect x="74.94" y="86.01" width="5.54" height="5.54" fill="#1b0003"/><rect x="74.94" y="80.47" width="5.54" height="5.54" fill="#1b0003"/><rect x="74.94" y="74.93" width="5.54" height="5.54" fill="#1b0003"/><rect x="74.94" y="69.4" width="5.54" height="5.54" fill="#1b0003"/><rect x="74.94" y="63.86" width="5.54" height="5.54" fill="#1b0003"/><rect x="74.94" y="58.33" width="5.54" height="5.54" fill="#1b0003"/><rect x="74.94" y="52.79" width="5.54" height="5.54" fill="#1b0003"/><rect x="74.94" y="47.25" width="5.54" height="5.54" fill="#1b0003"/><rect x="74.94" y="41.72" width="5.54" height="5.54" fill="#1b0003"/><rect x="74.94" y="36.18" width="5.54" height="5.54" fill="#1b0003"/><rect x="74.94" y="30.65" width="5.54" height="5.54" fill="#1b0003"/><rect x="74.94" y="25.11" width="5.54" height="5.54" fill="#1b0003"/><rect x="69.4" y="108.15" width="5.54" height="5.54" fill="#1b0003"/><rect x="69.4" y="102.62" width="5.54" height="5.54" fill="#ef837b"/><rect x="69.4" y="97.08" width="5.54" height="5.54" fill="#eb3824"/><rect x="69.4" y="91.54" width="5.54" height="5.54" fill="#b51c48"/><rect x="69.4" y="86.01" width="5.54" height="5.54" fill="#b51c48"/><rect x="69.4" y="80.47" width="5.54" height="5.54" fill="#eb3824"/><rect x="69.4" y="74.93" width="5.54" height="5.54" fill="#db1943"/><rect x="69.4" y="69.4" width="5.54" height="5.54" fill="#db1943"/><rect x="69.4" y="63.86" width="5.54" height="5.54" fill="#db1943"/><rect x="69.4" y="58.33" width="5.54" height="5.54" fill="#db1943"/><rect x="69.4" y="52.79" width="5.54" height="5.54" fill="#db1943"/><rect x="69.4" y="47.25" width="5.54" height="5.54" fill="#db1943"/><rect x="69.4" y="41.72" width="5.54" height="5.54" fill="#db1943"/><rect x="69.4" y="36.18" width="5.54" height="5.54" fill="#db1943"/><rect x="69.4" y="30.65" width="5.54" height="5.54" fill="#db1943"/><rect x="69.4" y="25.11" width="5.54" height="5.54" fill="#b51c48"/><rect x="69.4" y="19.57" width="5.54" height="5.54" fill="#1b0003"/><rect x="63.86" y="113.69" width="5.54" height="5.54" fill="#1b0003"/><rect x="63.86" y="108.15" width="5.54" height="5.54" fill="#ef837b"/><rect x="63.86" y="102.62" width="5.54" height="5.54" fill="#b51c48"/><rect x="63.86" y="97.08" width="5.54" height="5.54" fill="#db1943"/><rect x="63.86" y="91.54" width="5.54" height="5.54" fill="#db1943"/><rect x="63.86" y="86.01" width="5.54" height="5.54" fill="#b51c48"/><rect x="63.86" y="80.47" width="5.54" height="5.54" fill="#b51c48"/><rect x="63.86" y="74.93" width="5.54" height="5.54" fill="#b51c48"/><rect x="63.86" y="69.4" width="5.54" height="5.54" fill="#b51c48"/><rect x="63.86" y="63.86" width="5.54" height="5.54" fill="#b51c48"/><rect x="63.86" y="58.33" width="5.54" height="5.54" fill="#b51c48"/><rect x="63.86" y="52.79" width="5.54" height="5.54" fill="#b51c48"/><rect x="63.86" y="47.25" width="5.54" height="5.54" fill="#b51c48"/><rect x="63.86" y="41.72" width="5.54" height="5.54" fill="#b51c48"/><rect x="63.86" y="36.18" width="5.54" height="5.54" fill="#a00721"/><rect x="63.86" y="30.65" width="5.54" height="5.54" fill="#a00721"/><rect x="63.86" y="25.11" width="5.54" height="5.54" fill="#a00721"/><rect x="63.86" y="19.57" width="5.54" height="5.54" fill="#b51c48"/><rect x="63.86" y="14.04" width="5.54" height="5.54" fill="#1b0003"/><rect x="58.33" y="119.23" width="5.54" height="5.54" fill="#1b0003"/><rect x="58.33" y="113.69" width="5.54" height="5.54" fill="#ef837b"/><rect x="58.33" y="108.15" width="5.54" height="5.54" fill="#b51c48"/><rect x="58.33" y="102.62" width="5.54" height="5.54" fill="#b51c48"/><rect x="58.33" y="97.08" width="5.54" height="5.54" fill="#db1943"/><rect x="58.33" y="91.54" width="5.54" height="5.54" fill="#eb3824"/><rect x="58.33" y="86.01" width="5.54" height="5.54" fill="#db1943"/><rect x="58.33" y="80.47" width="5.54" height="5.54" fill="#eb3824"/><rect x="58.33" y="74.93" width="5.54" height="5.54" fill="#db1943"/><rect x="58.33" y="69.4" width="5.54" height="5.54" fill="#eb3824"/><rect x="58.33" y="63.86" width="5.54" height="5.54" fill="#eb3824"/><rect x="58.33" y="58.33" width="5.54" height="5.54" fill="#eb3824"/><rect x="58.33" y="52.79" width="5.54" height="5.54" fill="#eb3824"/><rect x="58.33" y="47.25" width="5.54" height="5.54" fill="#eb3824"/><rect x="58.33" y="41.72" width="5.54" height="5.54" fill="#eb3824"/><rect x="58.33" y="36.18" width="5.54" height="5.54" fill="#eb3824"/><rect x="58.33" y="30.65" width="5.54" height="5.54" fill="#eb3824"/><rect x="58.33" y="25.11" width="5.54" height="5.54" fill="#a00721"/><rect x="58.33" y="19.57" width="5.54" height="5.54" fill="#b51c48"/><rect x="58.33" y="14.04" width="5.54" height="5.54" fill="#b51c48"/><rect x="58.33" y="8.5" width="5.54" height="5.54" fill="#1b0003"/><rect x="52.79" y="119.23" width="5.54" height="5.54" fill="#1b0003"/><rect x="52.79" y="113.69" width="5.54" height="5.54" fill="#eb3824"/><rect x="52.79" y="108.15" width="5.54" height="5.54" fill="#b51c48"/><rect x="52.79" y="102.62" width="5.54" height="5.54" fill="#db1943"/><rect x="52.79" y="97.08" width="5.54" height="5.54" fill="#eb3824"/><rect x="52.79" y="91.54" width="5.54" height="5.54" fill="#db1943"/><rect x="52.79" y="86.01" width="5.54" height="5.54" fill="#eb3824"/><rect x="52.79" y="80.47" width="5.54" height="5.54" fill="#db1943"/><rect x="52.79" y="74.93" width="5.54" height="5.54" fill="#eb3824"/><rect x="52.79" y="69.4" width="5.54" height="5.54" fill="#eb3824"/><rect x="52.79" y="63.86" width="5.54" height="5.54" fill="#eb3824"/><rect x="52.79" y="58.33" width="5.54" height="5.54" fill="#eb3824"/><rect x="52.79" y="52.79" width="5.54" height="5.54" fill="#eb3824"/><rect x="52.79" y="47.25" width="5.54" height="5.54" fill="#eb3824"/><rect x="52.79" y="41.72" width="5.54" height="5.54" fill="#eb3824"/><rect x="52.79" y="36.18" width="5.54" height="5.54" fill="#eb3824"/><rect x="52.79" y="30.65" width="5.54" height="5.54" fill="#ef837b"/><rect x="52.79" y="25.11" width="5.54" height="5.54" fill="#eb3824"/><rect x="52.79" y="19.57" width="5.54" height="5.54" fill="#b51c48"/><rect x="52.79" y="14.04" width="5.54" height="5.54" fill="#db1943"/><rect x="52.79" y="8.5" width="5.54" height="5.54" fill="#1b0003"/><rect x="47.25" y="119.23" width="5.54" height="5.54" fill="#1b0003"/><rect x="47.25" y="113.69" width="5.54" height="5.54" fill="#eb3824"/><rect x="47.25" y="108.15" width="5.54" height="5.54" fill="#b51c48"/><rect x="47.25" y="102.62" width="5.54" height="5.54" fill="#eb3824"/><rect x="47.25" y="97.08" width="5.54" height="5.54" fill="#db1943"/><rect x="47.25" y="91.54" width="5.54" height="5.54" fill="#eb3824"/><rect x="47.25" y="86.01" width="5.54" height="5.54" fill="#db1943"/><rect x="47.25" y="80.47" width="5.54" height="5.54" fill="#eb3824"/><rect x="47.25" y="74.93" width="5.54" height="5.54" fill="#eb3824"/><rect x="47.25" y="69.4" width="5.54" height="5.54" fill="#eb3824"/><rect x="47.25" y="63.86" width="5.54" height="5.54" fill="#eb3824"/><rect x="47.25" y="58.33" width="5.54" height="5.54" fill="#eb3824"/><rect x="47.25" y="52.79" width="5.54" height="5.54" fill="#eb3824"/><rect x="47.25" y="47.25" width="5.54" height="5.54" fill="#eb3824"/><rect x="47.25" y="41.72" width="5.54" height="5.54" fill="#eb3824"/><rect x="47.25" y="36.18" width="5.54" height="5.54" fill="#ef837b"/><rect x="47.25" y="30.65" width="5.54" height="5.54" fill="#ffebeb"/><rect x="47.25" y="25.11" width="5.54" height="5.54" fill="#eb3824"/><rect x="47.25" y="19.57" width="5.54" height="5.54" fill="#b51c48"/><rect x="47.25" y="14.04" width="5.54" height="5.54" fill="#db1943"/><rect x="47.25" y="8.5" width="5.54" height="5.54" fill="#1b0003"/><rect x="41.72" y="119.23" width="5.54" height="5.54" fill="#1b0003"/><rect x="41.72" y="113.69" width="5.54" height="5.54" fill="#db1943"/><rect x="41.72" y="108.15" width="5.54" height="5.54" fill="#b51c48"/><rect x="41.72" y="102.62" width="5.54" height="5.54" fill="#db1943"/><rect x="41.72" y="97.08" width="5.54" height="5.54" fill="#eb3824"/><rect x="41.72" y="91.54" width="5.54" height="5.54" fill="#db1943"/><rect x="41.72" y="86.01" width="5.54" height="5.54" fill="#eb3824"/><rect x="41.72" y="80.47" width="5.54" height="5.54" fill="#eb3824"/><rect x="41.72" y="74.93" width="5.54" height="5.54" fill="#eb3824"/><rect x="41.72" y="69.4" width="5.54" height="5.54" fill="#eb3824"/><rect x="41.72" y="63.86" width="5.54" height="5.54" fill="#eb3824"/><rect x="41.72" y="58.33" width="5.54" height="5.54" fill="#eb3824"/><rect x="41.72" y="52.79" width="5.54" height="5.54" fill="#f4b9b8"/><rect x="41.72" y="47.25" width="5.54" height="5.54" fill="#eb3824"/><rect x="41.72" y="41.72" width="5.54" height="5.54" fill="#ef837b"/><rect x="41.72" y="36.18" width="5.54" height="5.54" fill="#f4b9b8"/><rect x="41.72" y="30.65" width="5.54" height="5.54" fill="#ffebeb"/><rect x="41.72" y="25.11" width="5.54" height="5.54" fill="#eb3824"/><rect x="41.72" y="19.57" width="5.54" height="5.54" fill="#b51c48"/><rect x="41.72" y="14.04" width="5.54" height="5.54" fill="#ef837b"/><rect x="41.72" y="8.5" width="5.54" height="5.54" fill="#1b0003"/><rect x="36.18" y="119.23" width="5.54" height="5.54" fill="#1b0003"/><rect x="36.18" y="113.69" width="5.54" height="5.54" fill="#db1943"/><rect x="36.18" y="108.15" width="5.54" height="5.54" fill="#b51c48"/><rect x="36.18" y="102.62" width="5.54" height="5.54" fill="#eb3824"/><rect x="36.18" y="97.08" width="5.54" height="5.54" fill="#db1943"/><rect x="36.18" y="91.54" width="5.54" height="5.54" fill="#eb3824"/><rect x="36.18" y="86.01" width="5.54" height="5.54" fill="#eb3824"/><rect x="36.18" y="80.47" width="5.54" height="5.54" fill="#eb3824"/><rect x="36.18" y="74.93" width="5.54" height="5.54" fill="#eb3824"/><rect x="36.18" y="69.4" width="5.54" height="5.54" fill="#eb3824"/><rect x="36.18" y="63.86" width="5.54" height="5.54" fill="#eb3824"/><rect x="36.18" y="58.33" width="5.54" height="5.54" fill="#eb3824"/><rect x="36.18" y="52.79" width="5.54" height="5.54" fill="#eb3824"/><rect x="36.18" y="47.25" width="5.54" height="5.54" fill="#f4b9b8"/><rect x="36.18" y="41.72" width="5.54" height="5.54" fill="#f4b9b8"/><rect x="36.18" y="36.18" width="5.54" height="5.54" fill="#f4b9b8"/><rect x="36.18" y="30.65" width="5.54" height="5.54" fill="#ffebeb"/><rect x="36.18" y="25.11" width="5.54" height="5.54" fill="#eb3824"/><rect x="36.18" y="19.57" width="5.54" height="5.54" fill="#b51c48"/><rect x="36.18" y="14.04" width="5.54" height="5.54" fill="#ef837b"/><rect x="36.18" y="8.5" width="5.54" height="5.54" fill="#1b0003"/><rect x="30.65" y="119.23" width="5.54" height="5.54" fill="#1b0003"/><rect x="30.65" y="113.69" width="5.54" height="5.54" fill="#db1943"/><rect x="30.65" y="108.15" width="5.54" height="5.54" fill="#b51c48"/><rect x="30.65" y="102.62" width="5.54" height="5.54" fill="#db1943"/><rect x="30.65" y="97.08" width="5.54" height="5.54" fill="#eb3824"/><rect x="30.65" y="91.54" width="5.54" height="5.54" fill="#eb3824"/><rect x="30.65" y="86.01" width="5.54" height="5.54" fill="#ef837b"/><rect x="30.65" y="80.47" width="5.54" height="5.54" fill="#ef837b"/><rect x="30.65" y="74.93" width="5.54" height="5.54" fill="#ef837b"/><rect x="30.65" y="69.4" width="5.54" height="5.54" fill="#ef837b"/><rect x="30.65" y="63.86" width="5.54" height="5.54" fill="#ef837b"/><rect x="30.65" y="58.33" width="5.54" height="5.54" fill="#f4b9b8"/><rect x="30.65" y="52.79" width="5.54" height="5.54" fill="#f4b9b8"/><rect x="30.65" y="47.25" width="5.54" height="5.54" fill="#f4b9b8"/><rect x="30.65" y="41.72" width="5.54" height="5.54" fill="#ffebeb"/><rect x="30.65" y="36.18" width="5.54" height="5.54" fill="#ffebeb"/><rect x="30.65" y="30.65" width="5.54" height="5.54" fill="#eb3824"/><rect x="30.65" y="25.11" width="5.54" height="5.54" fill="#eb3824"/><rect x="30.65" y="19.57" width="5.54" height="5.54" fill="#f4b9b8"/><rect x="30.65" y="14.04" width="5.54" height="5.54" fill="#ef837b"/><rect x="30.65" y="8.5" width="5.54" height="5.54" fill="#1b0003"/><rect x="25.11" y="119.23" width="5.54" height="5.54" fill="#1b0003"/><rect x="25.11" y="113.69" width="5.54" height="5.54" fill="#b51c48"/><rect x="25.11" y="108.15" width="5.54" height="5.54" fill="#b51c48"/><rect x="25.11" y="102.62" width="5.54" height="5.54" fill="#a00721"/><rect x="25.11" y="97.08" width="5.54" height="5.54" fill="#eb3824"/><rect x="25.11" y="91.54" width="5.54" height="5.54" fill="#eb3824"/><rect x="25.11" y="86.01" width="5.54" height="5.54" fill="#eb3824"/><rect x="25.11" y="80.47" width="5.54" height="5.54" fill="#eb3824"/><rect x="25.11" y="74.93" width="5.54" height="5.54" fill="#eb3824"/><rect x="25.11" y="69.4" width="5.54" height="5.54" fill="#eb3824"/><rect x="25.11" y="63.86" width="5.54" height="5.54" fill="#eb3824"/><rect x="25.11" y="58.33" width="5.54" height="5.54" fill="#eb3824"/><rect x="25.11" y="52.79" width="5.54" height="5.54" fill="#eb3824"/><rect x="25.11" y="47.25" width="5.54" height="5.54" fill="#eb3824"/><rect x="25.11" y="41.72" width="5.54" height="5.54" fill="#eb3824"/><rect x="25.11" y="36.18" width="5.54" height="5.54" fill="#eb3824"/><rect x="25.11" y="30.65" width="5.54" height="5.54" fill="#eb3824"/><rect x="25.11" y="25.11" width="5.54" height="5.54" fill="#f4b9b8"/><rect x="25.11" y="19.57" width="5.54" height="5.54" fill="#ffebeb"/><rect x="25.11" y="14.04" width="5.54" height="5.54" fill="#db1943"/><rect x="25.11" y="8.5" width="5.54" height="5.54" fill="#1b0003"/><rect x="19.57" y="113.69" width="5.54" height="5.54" fill="#1b0003"/><rect x="19.57" y="108.15" width="5.54" height="5.54" fill="#b51c48"/><rect x="19.57" y="102.62" width="5.54" height="5.54" fill="#b51c48"/><rect x="19.57" y="97.08" width="5.54" height="5.54" fill="#a00721"/><rect x="19.57" y="91.54" width="5.54" height="5.54" fill="#a00721"/><rect x="19.57" y="86.01" width="5.54" height="5.54" fill="#a00721"/><rect x="19.57" y="80.47" width="5.54" height="5.54" fill="#b51c48"/><rect x="19.57" y="74.93" width="5.54" height="5.54" fill="#b51c48"/><rect x="19.57" y="69.4" width="5.54" height="5.54" fill="#b51c48"/><rect x="19.57" y="63.86" width="5.54" height="5.54" fill="#b51c48"/><rect x="19.57" y="58.33" width="5.54" height="5.54" fill="#b51c48"/><rect x="19.57" y="52.79" width="5.54" height="5.54" fill="#b51c48"/><rect x="19.57" y="47.25" width="5.54" height="5.54" fill="#b51c48"/><rect x="19.57" y="41.72" width="5.54" height="5.54" fill="#b51c48"/><rect x="19.57" y="36.18" width="5.54" height="5.54" fill="#f4b9b8"/><rect x="19.57" y="30.65" width="5.54" height="5.54" fill="#f4b9b8"/><rect x="19.57" y="25.11" width="5.54" height="5.54" fill="#ffebeb"/><rect x="19.57" y="19.57" width="5.54" height="5.54" fill="#db1943"/><rect x="19.57" y="14.04" width="5.54" height="5.54" fill="#1b0003"/><rect x="14.04" y="108.15" width="5.54" height="5.54" fill="#1b0003"/><rect x="14.04" y="102.62" width="5.54" height="5.54" fill="#db1943"/><rect x="14.04" y="97.08" width="5.54" height="5.54" fill="#db1943"/><rect x="14.04" y="91.54" width="5.54" height="5.54" fill="#eb3824"/><rect x="14.04" y="86.01" width="5.54" height="5.54" fill="#eb3824"/><rect x="14.04" y="80.47" width="5.54" height="5.54" fill="#eb3824"/><rect x="14.04" y="74.93" width="5.54" height="5.54" fill="#db1943"/><rect x="14.04" y="69.4" width="5.54" height="5.54" fill="#db1943"/><rect x="14.04" y="63.86" width="5.54" height="5.54" fill="#ef837b"/><rect x="14.04" y="58.33" width="5.54" height="5.54" fill="#ef837b"/><rect x="14.04" y="52.79" width="5.54" height="5.54" fill="#ef837b"/><rect x="14.04" y="47.25" width="5.54" height="5.54" fill="#ef837b"/><rect x="14.04" y="41.72" width="5.54" height="5.54" fill="#f4b9b8"/><rect x="14.04" y="36.18" width="5.54" height="5.54" fill="#ffebeb"/><rect x="14.04" y="30.65" width="5.54" height="5.54" fill="#ffebeb"/><rect x="14.04" y="25.11" width="5.54" height="5.54" fill="#db1943"/><rect x="14.04" y="19.57" width="5.54" height="5.54" fill="#1b0003"/><rect x="8.5" y="102.62" width="5.54" height="5.54" fill="#1b0003"/><rect x="8.5" y="97.08" width="5.54" height="5.54" fill="#1b0003"/><rect x="8.5" y="91.54" width="5.54" height="5.54" fill="#1b0003"/><rect x="8.5" y="86.01" width="5.54" height="5.54" fill="#1b0003"/><rect x="8.5" y="80.47" width="5.54" height="5.54" fill="#1b0003"/><rect x="8.5" y="74.93" width="5.54" height="5.54" fill="#1b0003"/><rect x="8.5" y="69.4" width="5.54" height="5.54" fill="#1b0003"/><rect x="8.5" y="63.86" width="5.54" height="5.54" fill="#1b0003"/><rect x="8.5" y="58.33" width="5.54" height="5.54" fill="#1b0003"/><rect x="8.5" y="52.79" width="5.54" height="5.54" fill="#1b0003"/><rect x="8.5" y="47.25" width="5.54" height="5.54" fill="#1b0003"/><rect x="8.5" y="41.72" width="5.54" height="5.54" fill="#1b0003"/><rect x="8.5" y="36.18" width="5.54" height="5.54" fill="#1b0003"/><rect x="8.5" y="30.65" width="5.54" height="5.54" fill="#1b0003"/><rect x="8.5" y="25.11" width="5.54" height="5.54" fill="#1b0003"/></g></g></g></g></svg>