<svg xmlns="http://www.w3.org/2000/svg" width="137.56" height="174.25" viewBox="0 0 137.56 174.25"><g id="Layer_2" data-name="Layer 2"><g id="items"><g id="Sack"><path d="M111.35,174.25H21V169H15.73v-5.24H10.48v-5.24H5.24V148.05H0V94.35H5.24V83.87h5.24V78.63h5.25V73.39H21V68.14h5.24V62.9h5.24V57.66h5.24V52.42h5.24V47.18h5.25V41.94H57.66V36.69H62.9V5.24h5.24V0H90.39V5.24h15.72v5.24h10.48v5.25h5.25V21h10.48v5.24h5.24V53.69h-5.24v5.25H121.84v4h5.24V85.14h-5.24V99.6h5.24v58.93h-5.24v5.24h-5.25V169h-5.24ZM38,157.25H94.35V152h5.24v-5.24h5.25v-5.24h5.24V116.6h-5.24V106.11H99.59v-5.24H94.35V90.39H89.11V62.9h5.24V47.18h10.49V41.94h10.48V38H104.84V32.73H99.59V27.48H89.11V22.24H79.9V53.69H74.66v5.25H64.18v5.24H58.93v5.24H53.69v5.24H48.45V79.9H43.21v5.24H38v5.25H32.73v5.24H27.48v5.24H22.24v10.48H17v19.7h5.24v10.48h5.24v5.24h5.25V152H38Z" fill="#fff"/><g id="Sack-2" data-name="Sack"><rect x="123.82" y="39.95" width="5.24" height="5.24" fill="#1b0003"/><rect x="123.82" y="34.71" width="5.24" height="5.24" fill="#1b0003"/><rect x="118.58" y="45.19" width="5.24" height="5.24" fill="#1b0003"/><rect x="118.58" y="39.95" width="5.24" height="5.24" fill="#e86f3f"/><rect x="118.58" y="34.71" width="5.24" height="5.24" fill="#a84a24"/><rect x="118.58" y="29.47" width="5.24" height="5.24" fill="#1b0003"/><rect x="113.34" y="144.79" width="5.24" height="5.24" fill="#1b0003"/><rect x="113.34" y="139.55" width="5.24" height="5.24" fill="#1b0003"/><rect x="113.34" y="134.3" width="5.24" height="5.24" fill="#1b0003"/><rect x="113.34" y="129.06" width="5.24" height="5.24" fill="#1b0003"/><rect x="113.34" y="123.82" width="5.24" height="5.24" fill="#1b0003"/><rect x="113.34" y="118.58" width="5.24" height="5.24" fill="#1b0003"/><rect x="113.34" y="113.34" width="5.24" height="5.24" fill="#1b0003"/><rect x="113.34" y="108.09" width="5.24" height="5.24" fill="#1b0003"/><rect x="113.34" y="71.4" width="5.24" height="5.24" fill="#1b0003"/><rect x="113.34" y="45.19" width="5.24" height="5.24" fill="#1b0003"/><rect x="113.34" y="39.95" width="5.24" height="5.24" fill="#a84a24"/><rect x="113.34" y="34.71" width="5.24" height="5.24" fill="#a84a24"/><rect x="113.34" y="29.47" width="5.24" height="5.24" fill="#1b0003"/><rect x="108.09" y="150.03" width="5.24" height="5.24" fill="#1b0003"/><rect x="108.09" y="144.79" width="5.24" height="5.24" fill="#e86f3f"/><rect x="108.09" y="139.55" width="5.24" height="5.24" fill="#a84a24"/><rect x="108.09" y="134.3" width="5.24" height="5.24" fill="#e86f3f"/><rect x="108.09" y="129.06" width="5.24" height="5.24" fill="#e86f3f"/><rect x="108.09" y="123.82" width="5.24" height="5.24" fill="#e86f3f"/><rect x="108.09" y="118.58" width="5.24" height="5.24" fill="#e86f3f"/><rect x="108.09" y="113.34" width="5.24" height="5.24" fill="#e86f3f"/><rect x="108.09" y="108.09" width="5.24" height="5.24" fill="#e86f3f"/><rect x="108.09" y="102.85" width="5.24" height="5.24" fill="#1b0003"/><rect x="108.09" y="97.61" width="5.24" height="5.24" fill="#1b0003"/><rect x="108.09" y="76.64" width="5.24" height="5.24" fill="#1b0003"/><rect x="108.09" y="71.4" width="5.24" height="5.24" fill="#eb3824"/><rect x="108.09" y="66.16" width="5.24" height="5.24" fill="#1b0003"/><rect x="108.09" y="50.44" width="5.24" height="5.24" fill="#1b0003"/><rect x="108.09" y="45.19" width="5.24" height="5.24" fill="#e86f3f"/><rect x="108.09" y="39.95" width="5.24" height="5.24" fill="#a84a24"/><rect x="108.09" y="34.71" width="5.24" height="5.24" fill="#e86f3f"/><rect x="108.09" y="29.47" width="5.24" height="5.24" fill="#e86f3f"/><rect x="108.09" y="24.23" width="5.24" height="5.24" fill="#1b0003"/><rect x="102.85" y="155.27" width="5.24" height="5.24" fill="#1b0003"/><rect x="102.85" y="150.03" width="5.24" height="5.24" fill="#e86f3f"/><rect x="102.85" y="144.79" width="5.24" height="5.24" fill="#a84a24"/><rect x="102.85" y="139.55" width="5.24" height="5.24" fill="#e86f3f"/><rect x="102.85" y="134.3" width="5.24" height="5.24" fill="#a84a24"/><rect x="102.85" y="129.06" width="5.24" height="5.24" fill="#a84a24"/><rect x="102.85" y="123.82" width="5.24" height="5.24" fill="#a84a24"/><rect x="102.85" y="118.58" width="5.24" height="5.24" fill="#a84a24"/><rect x="102.85" y="113.34" width="5.24" height="5.24" fill="#a84a24"/><rect x="102.85" y="108.09" width="5.24" height="5.24" fill="#a84a24"/><rect x="102.85" y="102.85" width="5.24" height="5.24" fill="#e86f3f"/><rect x="102.85" y="97.61" width="5.24" height="5.24" fill="#e86f3f"/><rect x="102.85" y="92.37" width="5.24" height="5.24" fill="#1b0003"/><rect x="102.85" y="71.4" width="5.24" height="5.24" fill="#1b0003"/><rect x="102.85" y="66.16" width="5.24" height="5.24" fill="#b6294c"/><rect x="102.85" y="60.92" width="5.24" height="5.24" fill="#1b0003"/><rect x="102.85" y="50.44" width="5.24" height="5.24" fill="#1b0003"/><rect x="102.85" y="45.19" width="5.24" height="5.24" fill="#a84a24"/><rect x="102.85" y="39.95" width="5.24" height="5.24" fill="#a84a24"/><rect x="102.85" y="34.71" width="5.24" height="5.24" fill="#e86f3f"/><rect x="102.85" y="29.47" width="5.24" height="5.24" fill="#e86f3f"/><rect x="102.85" y="24.23" width="5.24" height="5.24" fill="#e86f3f"/><rect x="102.85" y="18.98" width="5.24" height="5.24" fill="#1b0003"/><rect x="97.61" y="160.51" width="5.24" height="5.24" fill="#1b0003"/><rect x="97.61" y="155.27" width="5.24" height="5.24" fill="#e86f3f"/><rect x="97.61" y="150.03" width="5.24" height="5.24" fill="#a84a24"/><rect x="97.61" y="144.79" width="5.24" height="5.24" fill="#e86f3f"/><rect x="97.61" y="139.55" width="5.24" height="5.24" fill="#a84a24"/><rect x="97.61" y="134.3" width="5.24" height="5.24" fill="#a84a24"/><rect x="97.61" y="129.06" width="5.24" height="5.24" fill="#a84a24"/><rect x="97.61" y="123.82" width="5.24" height="5.24" fill="#a84a24"/><rect x="97.61" y="118.58" width="5.24" height="5.24" fill="#a84a24"/><rect x="97.61" y="113.34" width="5.24" height="5.24" fill="#a84a24"/><rect x="97.61" y="108.09" width="5.24" height="5.24" fill="#a84a24"/><rect x="97.61" y="102.85" width="5.24" height="5.24" fill="#a84a24"/><rect x="97.61" y="97.61" width="5.24" height="5.24" fill="#a84a24"/><rect x="97.61" y="92.37" width="5.24" height="5.24" fill="#a84a24"/><rect x="97.61" y="87.13" width="5.24" height="5.24" fill="#1b0003"/><rect x="97.61" y="81.89" width="5.24" height="5.24" fill="#1b0003"/><rect x="97.61" y="66.16" width="5.24" height="5.24" fill="#1b0003"/><rect x="97.61" y="60.92" width="5.24" height="5.24" fill="#b6294c"/><rect x="97.61" y="55.68" width="5.24" height="5.24" fill="#1b0003"/><rect x="97.61" y="50.44" width="5.24" height="5.24" fill="#1b0003"/><rect x="97.61" y="45.19" width="5.24" height="5.24" fill="#a84a24"/><rect x="97.61" y="39.95" width="5.24" height="5.24" fill="#e86f3f"/><rect x="97.61" y="34.71" width="5.24" height="5.24" fill="#e86f3f"/><rect x="97.61" y="29.47" width="5.24" height="5.24" fill="#e86f3f"/><rect x="97.61" y="24.23" width="5.24" height="5.24" fill="#fa9c5c"/><rect x="97.61" y="18.98" width="5.24" height="5.24" fill="#1b0003"/><rect x="92.37" y="160.51" width="5.24" height="5.24" fill="#1b0003"/><rect x="92.37" y="155.27" width="5.24" height="5.24" fill="#a84a24"/><rect x="92.37" y="150.03" width="5.24" height="5.24" fill="#e86f3f"/><rect x="92.37" y="144.79" width="5.24" height="5.24" fill="#a84a24"/><rect x="92.37" y="139.55" width="5.24" height="5.24" fill="#a84a24"/><rect x="92.37" y="134.3" width="5.24" height="5.24" fill="#a84a24"/><rect x="92.37" y="129.06" width="5.24" height="5.24" fill="#a84a24"/><rect x="92.37" y="123.82" width="5.24" height="5.24" fill="#a84a24"/><rect x="92.37" y="118.58" width="5.24" height="5.24" fill="#a84a24"/><rect x="92.37" y="113.34" width="5.24" height="5.24" fill="#a84a24"/><rect x="92.37" y="108.09" width="5.24" height="5.24" fill="#a84a24"/><rect x="92.37" y="102.85" width="5.24" height="5.24" fill="#a84a24"/><rect x="92.37" y="97.61" width="5.24" height="5.24" fill="#a84a24"/><rect x="92.37" y="92.37" width="5.24" height="5.24" fill="#a84a24"/><rect x="92.37" y="87.13" width="5.24" height="5.24" fill="#a84a24"/><rect x="92.37" y="81.89" width="5.24" height="5.24" fill="#a84a24"/><rect x="92.37" y="76.64" width="5.24" height="5.24" fill="#1b0003"/><rect x="92.37" y="71.4" width="5.24" height="5.24" fill="#1b0003"/><rect x="92.37" y="66.16" width="5.24" height="5.24" fill="#1b0003"/><rect x="92.37" y="60.92" width="5.24" height="5.24" fill="#1b0003"/><rect x="92.37" y="55.68" width="5.24" height="5.24" fill="#1b0003"/><rect x="92.37" y="50.44" width="5.24" height="5.24" fill="#1b0003"/><rect x="92.37" y="45.19" width="5.24" height="5.24" fill="#a84a24"/><rect x="92.37" y="39.95" width="5.24" height="5.24" fill="#e86f3f"/><rect x="92.37" y="34.71" width="5.24" height="5.24" fill="#e86f3f"/><rect x="92.37" y="29.47" width="5.24" height="5.24" fill="#fa9c5c"/><rect x="92.37" y="24.23" width="5.24" height="5.24" fill="#fa9c5c"/><rect x="92.37" y="18.98" width="5.24" height="5.24" fill="#fa9c5c"/><rect x="92.37" y="13.74" width="5.24" height="5.24" fill="#1b0003"/><rect x="87.13" y="160.51" width="5.24" height="5.24" fill="#1b0003"/><rect x="87.13" y="155.27" width="5.24" height="5.24" fill="#a84a24"/><rect x="87.13" y="150.03" width="5.24" height="5.24" fill="#a84a24"/><rect x="87.13" y="144.79" width="5.24" height="5.24" fill="#a84a24"/><rect x="87.13" y="139.55" width="5.24" height="5.24" fill="#a84a24"/><rect x="87.13" y="134.3" width="5.24" height="5.24" fill="#a84a24"/><rect x="87.13" y="129.06" width="5.24" height="5.24" fill="#a84a24"/><rect x="87.13" y="123.82" width="5.24" height="5.24" fill="#e86f3f"/><rect x="87.13" y="118.58" width="5.24" height="5.24" fill="#a84a24"/><rect x="87.13" y="113.34" width="5.24" height="5.24" fill="#a84a24"/><rect x="87.13" y="108.09" width="5.24" height="5.24" fill="#a84a24"/><rect x="87.13" y="102.85" width="5.24" height="5.24" fill="#a84a24"/><rect x="87.13" y="97.61" width="5.24" height="5.24" fill="#a84a24"/><rect x="87.13" y="92.37" width="5.24" height="5.24" fill="#a84a24"/><rect x="87.13" y="87.13" width="5.24" height="5.24" fill="#a84a24"/><rect x="87.13" y="81.89" width="5.24" height="5.24" fill="#a84a24"/><rect x="87.13" y="76.64" width="5.24" height="5.24" fill="#a84a24"/><rect x="87.13" y="71.4" width="5.24" height="5.24" fill="#a84a24"/><rect x="87.13" y="66.16" width="5.24" height="5.24" fill="#a84a24"/><rect x="87.13" y="60.92" width="5.24" height="5.24" fill="#1b0003"/><rect x="87.13" y="55.68" width="5.24" height="5.24" fill="#b6294c"/><rect x="87.13" y="50.44" width="5.24" height="5.24" fill="#1b0003"/><rect x="87.13" y="45.19" width="5.24" height="5.24" fill="#a84a24"/><rect x="87.13" y="39.95" width="5.24" height="5.24" fill="#e86f3f"/><rect x="87.13" y="34.71" width="5.24" height="5.24" fill="#e86f3f"/><rect x="87.13" y="29.47" width="5.24" height="5.24" fill="#fa9c5c"/><rect x="87.13" y="24.23" width="5.24" height="5.24" fill="#fa9c5c"/><rect x="87.13" y="18.98" width="5.24" height="5.24" fill="#fa9c5c"/><rect x="87.13" y="13.74" width="5.24" height="5.24" fill="#1b0003"/><rect x="81.89" y="160.51" width="5.24" height="5.24" fill="#1b0003"/><rect x="81.89" y="155.27" width="5.24" height="5.24" fill="#a84a24"/><rect x="81.89" y="150.03" width="5.24" height="5.24" fill="#a84a24"/><rect x="81.89" y="144.79" width="5.24" height="5.24" fill="#a84a24"/><rect x="81.89" y="139.55" width="5.24" height="5.24" fill="#a84a24"/><rect x="81.89" y="134.3" width="5.24" height="5.24" fill="#a84a24"/><rect x="81.89" y="129.06" width="5.24" height="5.24" fill="#e86f3f"/><rect x="81.89" y="123.82" width="5.24" height="5.24" fill="#a84a24"/><rect x="81.89" y="118.58" width="5.24" height="5.24" fill="#e86f3f"/><rect x="81.89" y="113.34" width="5.24" height="5.24" fill="#e86f3f"/><rect x="81.89" y="108.09" width="5.24" height="5.24" fill="#e86f3f"/><rect x="81.89" y="102.85" width="5.24" height="5.24" fill="#e86f3f"/><rect x="81.89" y="97.61" width="5.24" height="5.24" fill="#e86f3f"/><rect x="81.89" y="92.37" width="5.24" height="5.24" fill="#a84a24"/><rect x="81.89" y="87.13" width="5.24" height="5.24" fill="#a84a24"/><rect x="81.89" y="81.89" width="5.24" height="5.24" fill="#a84a24"/><rect x="81.89" y="76.64" width="5.24" height="5.24" fill="#a84a24"/><rect x="81.89" y="71.4" width="5.24" height="5.24" fill="#a84a24"/><rect x="81.89" y="66.16" width="5.24" height="5.24" fill="#e86f3f"/><rect x="81.89" y="60.92" width="5.24" height="5.24" fill="#1b0003"/><rect x="81.89" y="55.68" width="5.24" height="5.24" fill="#b6294c"/><rect x="81.89" y="50.44" width="5.24" height="5.24" fill="#1b0003"/><rect x="81.89" y="45.19" width="5.24" height="5.24" fill="#1b0003"/><rect x="81.89" y="39.95" width="5.24" height="5.24" fill="#e86f3f"/><rect x="81.89" y="34.71" width="5.24" height="5.24" fill="#fa9c5c"/><rect x="81.89" y="29.47" width="5.24" height="5.24" fill="#fa9c5c"/><rect x="81.89" y="24.23" width="5.24" height="5.24" fill="#fa9c5c"/><rect x="81.89" y="18.98" width="5.24" height="5.24" fill="#fa9c5c"/><rect x="81.89" y="13.74" width="5.24" height="5.24" fill="#1b0003"/><rect x="76.64" y="160.51" width="5.24" height="5.24" fill="#1b0003"/><rect x="76.64" y="155.27" width="5.24" height="5.24" fill="#a84a24"/><rect x="76.64" y="150.03" width="5.24" height="5.24" fill="#a84a24"/><rect x="76.64" y="144.79" width="5.24" height="5.24" fill="#a84a24"/><rect x="76.64" y="139.55" width="5.24" height="5.24" fill="#a84a24"/><rect x="76.64" y="134.3" width="5.24" height="5.24" fill="#e86f3f"/><rect x="76.64" y="129.06" width="5.24" height="5.24" fill="#a84a24"/><rect x="76.64" y="123.82" width="5.24" height="5.24" fill="#fa9c5c"/><rect x="76.64" y="118.58" width="5.24" height="5.24" fill="#e86f3f"/><rect x="76.64" y="113.34" width="5.24" height="5.24" fill="#e86f3f"/><rect x="76.64" y="108.09" width="5.24" height="5.24" fill="#e86f3f"/><rect x="76.64" y="102.85" width="5.24" height="5.24" fill="#e86f3f"/><rect x="76.64" y="97.61" width="5.24" height="5.24" fill="#e86f3f"/><rect x="76.64" y="92.37" width="5.24" height="5.24" fill="#e86f3f"/><rect x="76.64" y="87.13" width="5.24" height="5.24" fill="#e86f3f"/><rect x="76.64" y="81.89" width="5.24" height="5.24" fill="#e86f3f"/><rect x="76.64" y="76.64" width="5.24" height="5.24" fill="#e86f3f"/><rect x="76.64" y="71.4" width="5.24" height="5.24" fill="#e86f3f"/><rect x="76.64" y="66.16" width="5.24" height="5.24" fill="#fa9c5c"/><rect x="76.64" y="60.92" width="5.24" height="5.24" fill="#1b0003"/><rect x="76.64" y="55.68" width="5.24" height="5.24" fill="#b6294c"/><rect x="76.64" y="50.44" width="5.24" height="5.24" fill="#b6294c"/><rect x="76.64" y="45.19" width="5.24" height="5.24" fill="#1b0003"/><rect x="76.64" y="39.95" width="5.24" height="5.24" fill="#1b0003"/><rect x="76.64" y="34.71" width="5.24" height="5.24" fill="#fa9c5c"/><rect x="76.64" y="29.47" width="5.24" height="5.24" fill="#fa9c5c"/><rect x="76.64" y="24.23" width="5.24" height="5.24" fill="#fa9c5c"/><rect x="76.64" y="18.98" width="5.24" height="5.24" fill="#fa9c5c"/><rect x="76.64" y="13.74" width="5.24" height="5.24" fill="#fa9c5c"/><rect x="76.64" y="8.5" width="5.24" height="5.24" fill="#1b0003"/><rect x="71.4" y="160.51" width="5.24" height="5.24" fill="#1b0003"/><rect x="71.4" y="155.27" width="5.24" height="5.24" fill="#a84a24"/><rect x="71.4" y="150.03" width="5.24" height="5.24" fill="#a84a24"/><rect x="71.4" y="144.79" width="5.24" height="5.24" fill="#a84a24"/><rect x="71.4" y="139.55" width="5.24" height="5.24" fill="#e86f3f"/><rect x="71.4" y="134.3" width="5.24" height="5.24" fill="#a84a24"/><rect x="71.4" y="129.06" width="5.24" height="5.24" fill="#fa9c5c"/><rect x="71.4" y="123.82" width="5.24" height="5.24" fill="#e86f3f"/><rect x="71.4" y="118.58" width="5.24" height="5.24" fill="#fa9c5c"/><rect x="71.4" y="113.34" width="5.24" height="5.24" fill="#e86f3f"/><rect x="71.4" y="108.09" width="5.24" height="5.24" fill="#fa9c5c"/><rect x="71.4" y="102.85" width="5.24" height="5.24" fill="#fa9c5c"/><rect x="71.4" y="97.61" width="5.24" height="5.24" fill="#e86f3f"/><rect x="71.4" y="92.37" width="5.24" height="5.24" fill="#e86f3f"/><rect x="71.4" y="87.13" width="5.24" height="5.24" fill="#e86f3f"/><rect x="71.4" y="81.89" width="5.24" height="5.24" fill="#e86f3f"/><rect x="71.4" y="76.64" width="5.24" height="5.24" fill="#fa9c5c"/><rect x="71.4" y="71.4" width="5.24" height="5.24" fill="#fa9c5c"/><rect x="71.4" y="66.16" width="5.24" height="5.24" fill="#fa9c5c"/><rect x="71.4" y="60.92" width="5.24" height="5.24" fill="#fa9c5c"/><rect x="71.4" y="55.68" width="5.24" height="5.24" fill="#1b0003"/><rect x="71.4" y="50.44" width="5.24" height="5.24" fill="#eb3824"/><rect x="71.4" y="45.19" width="5.24" height="5.24" fill="#eb3824"/><rect x="71.4" y="39.95" width="5.24" height="5.24" fill="#1b0003"/><rect x="71.4" y="34.71" width="5.24" height="5.24" fill="#1b0003"/><rect x="71.4" y="29.47" width="5.24" height="5.24" fill="#1b0003"/><rect x="71.4" y="24.23" width="5.24" height="5.24" fill="#1b0003"/><rect x="71.4" y="18.98" width="5.24" height="5.24" fill="#1b0003"/><rect x="71.4" y="13.74" width="5.24" height="5.24" fill="#1b0003"/><rect x="66.16" y="160.51" width="5.24" height="5.24" fill="#1b0003"/><rect x="66.16" y="155.27" width="5.24" height="5.24" fill="#a84a24"/><rect x="66.16" y="150.03" width="5.24" height="5.24" fill="#a84a24"/><rect x="66.16" y="144.79" width="5.24" height="5.24" fill="#e86f3f"/><rect x="66.16" y="139.55" width="5.24" height="5.24" fill="#a84a24"/><rect x="66.16" y="134.3" width="5.24" height="5.24" fill="#fa9c5c"/><rect x="66.16" y="129.06" width="5.24" height="5.24" fill="#e86f3f"/><rect x="66.16" y="123.82" width="5.24" height="5.24" fill="#fa9c5c"/><rect x="66.16" y="118.58" width="5.24" height="5.24" fill="#e86f3f"/><rect x="66.16" y="113.34" width="5.24" height="5.24" fill="#fa9c5c"/><rect x="66.16" y="108.09" width="5.24" height="5.24" fill="#fa9c5c"/><rect x="66.16" y="102.85" width="5.24" height="5.24" fill="#fa9c5c"/><rect x="66.16" y="97.61" width="5.24" height="5.24" fill="#fa9c5c"/><rect x="66.16" y="92.37" width="5.24" height="5.24" fill="#fa9c5c"/><rect x="66.16" y="87.13" width="5.24" height="5.24" fill="#fa9c5c"/><rect x="66.16" y="81.89" width="5.24" height="5.24" fill="#fa9c5c"/><rect x="66.16" y="76.64" width="5.24" height="5.24" fill="#fa9c5c"/><rect x="66.16" y="71.4" width="5.24" height="5.24" fill="#fa9c5c"/><rect x="66.16" y="66.16" width="5.24" height="5.24" fill="#fa9c5c"/><rect x="66.16" y="60.92" width="5.24" height="5.24" fill="#fa9c5c"/><rect x="66.16" y="55.68" width="5.24" height="5.24" fill="#fa9c5c"/><rect x="66.16" y="50.44" width="5.24" height="5.24" fill="#1b0003"/><rect x="66.16" y="45.19" width="5.24" height="5.24" fill="#1b0003"/><rect x="60.92" y="160.51" width="5.24" height="5.24" fill="#1b0003"/><rect x="60.92" y="155.27" width="5.24" height="5.24" fill="#a84a24"/><rect x="60.92" y="150.03" width="5.24" height="5.24" fill="#e86f3f"/><rect x="60.92" y="144.79" width="5.24" height="5.24" fill="#a84a24"/><rect x="60.92" y="139.55" width="5.24" height="5.24" fill="#e86f3f"/><rect x="60.92" y="134.3" width="5.24" height="5.24" fill="#e86f3f"/><rect x="60.92" y="129.06" width="5.24" height="5.24" fill="#fa9c5c"/><rect x="60.92" y="123.82" width="5.24" height="5.24" fill="#e86f3f"/><rect x="60.92" y="118.58" width="5.24" height="5.24" fill="#fa9c5c"/><rect x="60.92" y="113.34" width="5.24" height="5.24" fill="#fa9c5c"/><rect x="60.92" y="108.09" width="5.24" height="5.24" fill="#fa9c5c"/><rect x="60.92" y="102.85" width="5.24" height="5.24" fill="#fa9c5c"/><rect x="60.92" y="97.61" width="5.24" height="5.24" fill="#fa9c5c"/><rect x="60.92" y="92.37" width="5.24" height="5.24" fill="#e86f3f"/><rect x="60.92" y="87.13" width="5.24" height="5.24" fill="#e86f3f"/><rect x="60.92" y="81.89" width="5.24" height="5.24" fill="#fa9c5c"/><rect x="60.92" y="76.64" width="5.24" height="5.24" fill="#e86f3f"/><rect x="60.92" y="71.4" width="5.24" height="5.24" fill="#fa9c5c"/><rect x="60.92" y="66.16" width="5.24" height="5.24" fill="#fa9c5c"/><rect x="60.92" y="60.92" width="5.24" height="5.24" fill="#fa9c5c"/><rect x="60.92" y="55.68" width="5.24" height="5.24" fill="#fa9c5c"/><rect x="60.92" y="50.44" width="5.24" height="5.24" fill="#1b0003"/><rect x="55.68" y="160.51" width="5.24" height="5.24" fill="#1b0003"/><rect x="55.68" y="155.27" width="5.24" height="5.24" fill="#a84a24"/><rect x="55.68" y="150.03" width="5.24" height="5.24" fill="#a84a24"/><rect x="55.68" y="144.79" width="5.24" height="5.24" fill="#e86f3f"/><rect x="55.68" y="139.55" width="5.24" height="5.24" fill="#e86f3f"/><rect x="55.68" y="134.3" width="5.24" height="5.24" fill="#fa9c5c"/><rect x="55.68" y="129.06" width="5.24" height="5.24" fill="#e86f3f"/><rect x="55.68" y="123.82" width="5.24" height="5.24" fill="#fa9c5c"/><rect x="55.68" y="118.58" width="5.24" height="5.24" fill="#fa9c5c"/><rect x="55.68" y="113.34" width="5.24" height="5.24" fill="#fa9c5c"/><rect x="55.68" y="108.09" width="5.24" height="5.24" fill="#fa9c5c"/><rect x="55.68" y="102.85" width="5.24" height="5.24" fill="#fa9c5c"/><rect x="55.68" y="97.61" width="5.24" height="5.24" fill="#fa9c5c"/><rect x="55.68" y="92.37" width="5.24" height="5.24" fill="#fa9c5c"/><rect x="55.68" y="87.13" width="5.24" height="5.24" fill="#e86f3f"/><rect x="55.68" y="81.89" width="5.24" height="5.24" fill="#e86f3f"/><rect x="55.68" y="76.64" width="5.24" height="5.24" fill="#fa9c5c"/><rect x="55.68" y="71.4" width="5.24" height="5.24" fill="#fa9c5c"/><rect x="55.68" y="66.16" width="5.24" height="5.24" fill="#fa9c5c"/><rect x="55.68" y="60.92" width="5.24" height="5.24" fill="#fa9c5c"/><rect x="55.68" y="55.68" width="5.24" height="5.24" fill="#fa9c5c"/><rect x="55.68" y="50.44" width="5.24" height="5.24" fill="#1b0003"/><rect x="50.43" y="160.51" width="5.24" height="5.24" fill="#1b0003"/><rect x="50.43" y="155.27" width="5.24" height="5.24" fill="#a84a24"/><rect x="50.43" y="150.03" width="5.24" height="5.24" fill="#e86f3f"/><rect x="50.43" y="144.79" width="5.24" height="5.24" fill="#e86f3f"/><rect x="50.43" y="139.55" width="5.24" height="5.24" fill="#fa9c5c"/><rect x="50.43" y="134.3" width="5.24" height="5.24" fill="#e86f3f"/><rect x="50.43" y="129.06" width="5.24" height="5.24" fill="#fa9c5c"/><rect x="50.43" y="123.82" width="5.24" height="5.24" fill="#fa9c5c"/><rect x="50.43" y="118.58" width="5.24" height="5.24" fill="#fa9c5c"/><rect x="50.43" y="113.34" width="5.24" height="5.24" fill="#fa9c5c"/><rect x="50.43" y="108.09" width="5.24" height="5.24" fill="#e86f3f"/><rect x="50.43" y="102.85" width="5.24" height="5.24" fill="#e86f3f"/><rect x="50.43" y="97.61" width="5.24" height="5.24" fill="#fa9c5c"/><rect x="50.43" y="92.37" width="5.24" height="5.24" fill="#e86f3f"/><rect x="50.43" y="87.13" width="5.24" height="5.24" fill="#fa9c5c"/><rect x="50.43" y="81.89" width="5.24" height="5.24" fill="#e86f3f"/><rect x="50.43" y="76.64" width="5.24" height="5.24" fill="#fa9c5c"/><rect x="50.43" y="71.4" width="5.24" height="5.24" fill="#fa9c5c"/><rect x="50.43" y="66.16" width="5.24" height="5.24" fill="#fa9c5c"/><rect x="50.43" y="60.92" width="5.24" height="5.24" fill="#fa9c5c"/><rect x="50.43" y="55.68" width="5.24" height="5.24" fill="#1b0003"/><rect x="45.19" y="160.51" width="5.24" height="5.24" fill="#1b0003"/><rect x="45.19" y="155.27" width="5.24" height="5.24" fill="#e86f3f"/><rect x="45.19" y="150.03" width="5.24" height="5.24" fill="#e86f3f"/><rect x="45.19" y="144.79" width="5.24" height="5.24" fill="#e86f3f"/><rect x="45.19" y="139.55" width="5.24" height="5.24" fill="#e86f3f"/><rect x="45.19" y="134.3" width="5.24" height="5.24" fill="#fa9c5c"/><rect x="45.19" y="129.06" width="5.24" height="5.24" fill="#fa9c5c"/><rect x="45.19" y="123.82" width="5.24" height="5.24" fill="#fa9c5c"/><rect x="45.19" y="118.58" width="5.24" height="5.24" fill="#fa9c5c"/><rect x="45.19" y="113.34" width="5.24" height="5.24" fill="#e86f3f"/><rect x="45.19" y="108.09" width="5.24" height="5.24" fill="#fa9c5c"/><rect x="45.19" y="102.85" width="5.24" height="5.24" fill="#fa9c5c"/><rect x="45.19" y="97.61" width="5.24" height="5.24" fill="#e86f3f"/><rect x="45.19" y="92.37" width="5.24" height="5.24" fill="#fa9c5c"/><rect x="45.19" y="87.13" width="5.24" height="5.24" fill="#fa9c5c"/><rect x="45.19" y="81.89" width="5.24" height="5.24" fill="#e86f3f"/><rect x="45.19" y="76.64" width="5.24" height="5.24" fill="#fa9c5c"/><rect x="45.19" y="71.4" width="5.24" height="5.24" fill="#fa9c5c"/><rect x="45.19" y="66.16" width="5.24" height="5.24" fill="#fa9c5c"/><rect x="45.19" y="60.92" width="5.24" height="5.24" fill="#1b0003"/><rect x="39.95" y="160.51" width="5.24" height="5.24" fill="#1b0003"/><rect x="39.95" y="155.27" width="5.24" height="5.24" fill="#e86f3f"/><rect x="39.95" y="150.03" width="5.24" height="5.24" fill="#e86f3f"/><rect x="39.95" y="144.79" width="5.24" height="5.24" fill="#e86f3f"/><rect x="39.95" y="139.55" width="5.24" height="5.24" fill="#fa9c5c"/><rect x="39.95" y="134.3" width="5.24" height="5.24" fill="#fa9c5c"/><rect x="39.95" y="129.06" width="5.24" height="5.24" fill="#fa9c5c"/><rect x="39.95" y="123.82" width="5.24" height="5.24" fill="#fa9c5c"/><rect x="39.95" y="118.58" width="5.24" height="5.24" fill="#fa9c5c"/><rect x="39.95" y="113.34" width="5.24" height="5.24" fill="#e86f3f"/><rect x="39.95" y="108.09" width="5.24" height="5.24" fill="#fa9c5c"/><rect x="39.95" y="102.85" width="5.24" height="5.24" fill="#e86f3f"/><rect x="39.95" y="97.61" width="5.24" height="5.24" fill="#fa9c5c"/><rect x="39.95" y="92.37" width="5.24" height="5.24" fill="#e86f3f"/><rect x="39.95" y="87.13" width="5.24" height="5.24" fill="#e86f3f"/><rect x="39.95" y="81.89" width="5.24" height="5.24" fill="#fa9c5c"/><rect x="39.95" y="76.64" width="5.24" height="5.24" fill="#fa9c5c"/><rect x="39.95" y="71.4" width="5.24" height="5.24" fill="#fa9c5c"/><rect x="39.95" y="66.16" width="5.24" height="5.24" fill="#1b0003"/><rect x="34.71" y="160.51" width="5.24" height="5.24" fill="#1b0003"/><rect x="34.71" y="155.27" width="5.24" height="5.24" fill="#e86f3f"/><rect x="34.71" y="150.03" width="5.24" height="5.24" fill="#e86f3f"/><rect x="34.71" y="144.79" width="5.24" height="5.24" fill="#e86f3f"/><rect x="34.71" y="139.55" width="5.24" height="5.24" fill="#fa9c5c"/><rect x="34.71" y="134.3" width="5.24" height="5.24" fill="#fa9c5c"/><rect x="34.71" y="129.06" width="5.24" height="5.24" fill="#fa9c5c"/><rect x="34.71" y="123.82" width="5.24" height="5.24" fill="#fa9c5c"/><rect x="34.71" y="118.58" width="5.24" height="5.24" fill="#fa9c5c"/><rect x="34.71" y="113.34" width="5.24" height="5.24" fill="#fa9c5c"/><rect x="34.71" y="108.09" width="5.24" height="5.24" fill="#e86f3f"/><rect x="34.71" y="102.85" width="5.24" height="5.24" fill="#fa9c5c"/><rect x="34.71" y="97.61" width="5.24" height="5.24" fill="#fa9c5c"/><rect x="34.71" y="92.37" width="5.24" height="5.24" fill="#fa9c5c"/><rect x="34.71" y="87.13" width="5.24" height="5.24" fill="#fa9c5c"/><rect x="34.71" y="81.89" width="5.24" height="5.24" fill="#fa9c5c"/><rect x="34.71" y="76.64" width="5.24" height="5.24" fill="#fa9c5c"/><rect x="34.71" y="71.4" width="5.24" height="5.24" fill="#1b0003"/><rect x="29.47" y="160.51" width="5.24" height="5.24" fill="#1b0003"/><rect x="29.47" y="155.27" width="5.24" height="5.24" fill="#e86f3f"/><rect x="29.47" y="150.03" width="5.24" height="5.24" fill="#e86f3f"/><rect x="29.47" y="144.79" width="5.24" height="5.24" fill="#e86f3f"/><rect x="29.47" y="139.55" width="5.24" height="5.24" fill="#fa9c5c"/><rect x="29.47" y="134.3" width="5.24" height="5.24" fill="#fa9c5c"/><rect x="29.47" y="129.06" width="5.24" height="5.24" fill="#fa9c5c"/><rect x="29.47" y="123.82" width="5.24" height="5.24" fill="#fa9c5c"/><rect x="29.47" y="118.58" width="5.24" height="5.24" fill="#fa9c5c"/><rect x="29.47" y="113.34" width="5.24" height="5.24" fill="#e86f3f"/><rect x="29.47" y="108.09" width="5.24" height="5.24" fill="#fa9c5c"/><rect x="29.47" y="102.85" width="5.24" height="5.24" fill="#e86f3f"/><rect x="29.47" y="97.61" width="5.24" height="5.24" fill="#fa9c5c"/><rect x="29.47" y="92.37" width="5.24" height="5.24" fill="#fa9c5c"/><rect x="29.47" y="87.13" width="5.24" height="5.24" fill="#fa9c5c"/><rect x="29.47" y="81.89" width="5.24" height="5.24" fill="#fa9c5c"/><rect x="29.47" y="76.64" width="5.24" height="5.24" fill="#1b0003"/><rect x="24.23" y="155.27" width="5.24" height="5.24" fill="#1b0003"/><rect x="24.23" y="150.03" width="5.24" height="5.24" fill="#e86f3f"/><rect x="24.23" y="144.79" width="5.24" height="5.24" fill="#e86f3f"/><rect x="24.23" y="139.55" width="5.24" height="5.24" fill="#fa9c5c"/><rect x="24.23" y="134.3" width="5.24" height="5.24" fill="#fa9c5c"/><rect x="24.23" y="129.06" width="5.24" height="5.24" fill="#fa9c5c"/><rect x="24.23" y="123.82" width="5.24" height="5.24" fill="#fa9c5c"/><rect x="24.23" y="118.58" width="5.24" height="5.24" fill="#fa9c5c"/><rect x="24.23" y="113.34" width="5.24" height="5.24" fill="#fa9c5c"/><rect x="24.23" y="108.09" width="5.24" height="5.24" fill="#fa9c5c"/><rect x="24.23" y="102.85" width="5.24" height="5.24" fill="#fa9c5c"/><rect x="24.23" y="97.61" width="5.24" height="5.24" fill="#fa9c5c"/><rect x="24.23" y="92.37" width="5.24" height="5.24" fill="#fa9c5c"/><rect x="24.23" y="87.13" width="5.24" height="5.24" fill="#fa9c5c"/><rect x="24.23" y="81.89" width="5.24" height="5.24" fill="#1b0003"/><rect x="18.98" y="150.03" width="5.24" height="5.24" fill="#1b0003"/><rect x="18.98" y="144.79" width="5.24" height="5.24" fill="#e86f3f"/><rect x="18.98" y="139.55" width="5.24" height="5.24" fill="#fa9c5c"/><rect x="18.98" y="134.3" width="5.24" height="5.24" fill="#fa9c5c"/><rect x="18.98" y="129.06" width="5.24" height="5.24" fill="#fa9c5c"/><rect x="18.98" y="123.82" width="5.24" height="5.24" fill="#fa9c5c"/><rect x="18.98" y="118.58" width="5.24" height="5.24" fill="#fa9c5c"/><rect x="18.98" y="113.34" width="5.24" height="5.24" fill="#fa9c5c"/><rect x="18.98" y="108.09" width="5.24" height="5.24" fill="#fa9c5c"/><rect x="18.98" y="102.85" width="5.24" height="5.24" fill="#fa9c5c"/><rect x="18.98" y="97.61" width="5.24" height="5.24" fill="#fa9c5c"/><rect x="18.98" y="92.37" width="5.24" height="5.24" fill="#fa9c5c"/><rect x="18.98" y="87.13" width="5.24" height="5.24" fill="#1b0003"/><rect x="13.74" y="144.79" width="5.24" height="5.24" fill="#1b0003"/><rect x="13.74" y="139.55" width="5.24" height="5.24" fill="#1b0003"/><rect x="13.74" y="134.3" width="5.24" height="5.24" fill="#fa9c5c"/><rect x="13.74" y="129.06" width="5.24" height="5.24" fill="#fa9c5c"/><rect x="13.74" y="123.82" width="5.24" height="5.24" fill="#fa9c5c"/><rect x="13.74" y="118.58" width="5.24" height="5.24" fill="#fa9c5c"/><rect x="13.74" y="113.34" width="5.24" height="5.24" fill="#fa9c5c"/><rect x="13.74" y="108.09" width="5.24" height="5.24" fill="#fa9c5c"/><rect x="13.74" y="102.85" width="5.24" height="5.24" fill="#fa9c5c"/><rect x="13.74" y="97.61" width="5.24" height="5.24" fill="#1b0003"/><rect x="13.74" y="92.37" width="5.24" height="5.24" fill="#1b0003"/><rect x="8.5" y="134.3" width="5.24" height="5.24" fill="#1b0003"/><rect x="8.5" y="129.06" width="5.24" height="5.24" fill="#1b0003"/><rect x="8.5" y="123.82" width="5.24" height="5.24" fill="#1b0003"/><rect x="8.5" y="118.58" width="5.24" height="5.24" fill="#1b0003"/><rect x="8.5" y="113.34" width="5.24" height="5.24" fill="#1b0003"/><rect x="8.5" y="108.09" width="5.24" height="5.24" fill="#1b0003"/><rect x="8.5" y="102.85" width="5.24" height="5.24" fill="#1b0003"/></g></g></g></g></svg>