<svg xmlns="http://www.w3.org/2000/svg" width="141.69" height="141.69" viewBox="0 0 141.69 141.69"><g id="Layer_2" data-name="Layer 2"><g id="items"><g id="Shield1"><path d="M103,141.69H38.7v-4.3H30.1v-4.3H21.5v-4.3H17.2v-4.3H12.9v-4.3H8.6v-8.6H4.3V103H0V34.4H4.3V25.8H8.6V21.5h4.3V17.2h4.3V12.9h4.3V8.6h4.3V4.3h8.6V0h72.89V4.3h8.6V8.6h4.3v4.3h4.3v4.3h4.3v4.3h4.3v4.3h4.3v8.6h4.3V103h-4.3v8.6h-4.3v8.6h-4.3v4.3h-4.3v4.3h-4.3v4.3h-8.6v4.3H103Zm-47.29-17H86v-4.3h8.6v-4.3h8.6v-4.3h4.3v-4.3h4.3v-4.3h4.3v-8.6h4.3V86h4.3V51.4h-4.3V42.8h-4.3V38.5h-4.3V34.2h-4.3V29.9h-4.3V25.6h-4.3V21.3h-8.6V17H51.4v4.3H42.8v4.3H38.5v4.3H34.2v4.3H29.9v4.3H25.6v4.3H21.3v8.6H17V86h4.3v8.6h4.3v8.6h4.3v4.3h4.3v4.3h4.3v4.3h8.6v4.3h8.6Z" fill="#fff"/><g id="Shield"><rect x="128.89" y="90.19" width="4.3" height="4.3" fill="#1b0003"/><rect x="128.89" y="85.89" width="4.3" height="4.3" fill="#1b0003"/><rect x="128.89" y="81.59" width="4.3" height="4.3" fill="#1b0003"/><rect x="128.89" y="77.29" width="4.3" height="4.3" fill="#1b0003"/><rect x="128.89" y="72.99" width="4.3" height="4.3" fill="#1b0003"/><rect x="128.89" y="68.7" width="4.3" height="4.3" fill="#1b0003"/><rect x="128.89" y="64.4" width="4.3" height="4.3" fill="#1b0003"/><rect x="128.89" y="60.1" width="4.3" height="4.3" fill="#1b0003"/><rect x="128.89" y="55.8" width="4.3" height="4.3" fill="#1b0003"/><rect x="128.89" y="51.5" width="4.3" height="4.3" fill="#1b0003"/><rect x="128.89" y="47.2" width="4.3" height="4.3" fill="#1b0003"/><rect x="128.89" y="42.9" width="4.3" height="4.3" fill="#1b0003"/><rect x="124.59" y="98.79" width="4.3" height="4.3" fill="#1b0003"/><rect x="124.59" y="94.49" width="4.3" height="4.3" fill="#1b0003"/><rect x="124.59" y="90.19" width="4.3" height="4.3" fill="#6a87af"/><rect x="124.59" y="85.89" width="4.3" height="4.3" fill="#6a87af"/><rect x="124.59" y="81.59" width="4.3" height="4.3" fill="#85a1c9"/><rect x="124.59" y="77.29" width="4.3" height="4.3" fill="#85a1c9"/><rect x="124.59" y="72.99" width="4.3" height="4.3" fill="#85a1c9"/><rect x="124.59" y="68.7" width="4.3" height="4.3" fill="#85a1c9"/><rect x="124.59" y="64.4" width="4.3" height="4.3" fill="#85a1c9"/><rect x="124.59" y="60.1" width="4.3" height="4.3" fill="#85a1c9"/><rect x="124.59" y="55.8" width="4.3" height="4.3" fill="#85a1c9"/><rect x="124.59" y="51.5" width="4.3" height="4.3" fill="#85a1c9"/><rect x="124.59" y="47.2" width="4.3" height="4.3" fill="#85a1c9"/><rect x="124.59" y="42.9" width="4.3" height="4.3" fill="#97bcd6"/><rect x="124.59" y="38.6" width="4.3" height="4.3" fill="#1b0003"/><rect x="124.59" y="34.3" width="4.3" height="4.3" fill="#1b0003"/><rect x="120.29" y="107.39" width="4.3" height="4.3" fill="#1b0003"/><rect x="120.29" y="103.09" width="4.3" height="4.3" fill="#1b0003"/><rect x="120.29" y="98.79" width="4.3" height="4.3" fill="#6a87af"/><rect x="120.29" y="94.49" width="4.3" height="4.3" fill="#223c5b"/><rect x="120.29" y="90.19" width="4.3" height="4.3" fill="#223c5b"/><rect x="120.29" y="85.89" width="4.3" height="4.3" fill="#1b0003"/><rect x="120.29" y="81.59" width="4.3" height="4.3" fill="#1b0003"/><rect x="120.29" y="77.29" width="4.3" height="4.3" fill="#1b0003"/><rect x="120.29" y="72.99" width="4.3" height="4.3" fill="#1b0003"/><rect x="120.29" y="68.7" width="4.3" height="4.3" fill="#1b0003"/><rect x="120.29" y="64.4" width="4.3" height="4.3" fill="#1b0003"/><rect x="120.29" y="60.1" width="4.3" height="4.3" fill="#1b0003"/><rect x="120.29" y="55.8" width="4.3" height="4.3" fill="#1b0003"/><rect x="120.29" y="51.5" width="4.3" height="4.3" fill="#1b0003"/><rect x="120.29" y="47.2" width="4.3" height="4.3" fill="#85a1c9"/><rect x="120.29" y="42.9" width="4.3" height="4.3" fill="#85a1c9"/><rect x="120.29" y="38.6" width="4.3" height="4.3" fill="#97bcd6"/><rect x="120.29" y="34.3" width="4.3" height="4.3" fill="#97bcd6"/><rect x="120.29" y="30" width="4.3" height="4.3" fill="#1b0003"/><rect x="115.99" y="111.69" width="4.3" height="4.3" fill="#1b0003"/><rect x="115.99" y="107.39" width="4.3" height="4.3" fill="#6a87af"/><rect x="115.99" y="103.09" width="4.3" height="4.3" fill="#6a87af"/><rect x="115.99" y="98.79" width="4.3" height="4.3" fill="#223c5b"/><rect x="115.99" y="94.49" width="4.3" height="4.3" fill="#1b0003"/><rect x="115.99" y="90.19" width="4.3" height="4.3" fill="#1b0003"/><rect x="115.99" y="85.89" width="4.3" height="4.3" fill="#a84a24"/><rect x="115.99" y="81.59" width="4.3" height="4.3" fill="#e86f3f"/><rect x="115.99" y="77.29" width="4.3" height="4.3" fill="#e86f3f"/><rect x="115.99" y="72.99" width="4.3" height="4.3" fill="#e86f3f"/><rect x="115.99" y="68.7" width="4.3" height="4.3" fill="#e86f3f"/><rect x="115.99" y="64.4" width="4.3" height="4.3" fill="#ef8741"/><rect x="115.99" y="60.1" width="4.3" height="4.3" fill="#ef8741"/><rect x="115.99" y="55.8" width="4.3" height="4.3" fill="#ef8741"/><rect x="115.99" y="51.5" width="4.3" height="4.3" fill="#ef8741"/><rect x="115.99" y="47.2" width="4.3" height="4.3" fill="#1b0003"/><rect x="115.99" y="42.9" width="4.3" height="4.3" fill="#1b0003"/><rect x="115.99" y="38.6" width="4.3" height="4.3" fill="#85a1c9"/><rect x="115.99" y="34.3" width="4.3" height="4.3" fill="#97bcd6"/><rect x="115.99" y="30" width="4.3" height="4.3" fill="#cfefff"/><rect x="115.99" y="25.7" width="4.3" height="4.3" fill="#1b0003"/><rect x="111.69" y="115.99" width="4.3" height="4.3" fill="#1b0003"/><rect x="111.69" y="111.69" width="4.3" height="4.3" fill="#6a87af"/><rect x="111.69" y="107.39" width="4.3" height="4.3" fill="#6a87af"/><rect x="111.69" y="103.09" width="4.3" height="4.3" fill="#223c5b"/><rect x="111.69" y="98.79" width="4.3" height="4.3" fill="#1b0003"/><rect x="111.69" y="94.49" width="4.3" height="4.3" fill="#a84a24"/><rect x="111.69" y="90.19" width="4.3" height="4.3" fill="#e86f3f"/><rect x="111.69" y="85.89" width="4.3" height="4.3" fill="#a84a24"/><rect x="111.69" y="81.59" width="4.3" height="4.3" fill="#e86f3f"/><rect x="111.69" y="77.29" width="4.3" height="4.3" fill="#e86f3f"/><rect x="111.69" y="72.99" width="4.3" height="4.3" fill="#ef8741"/><rect x="111.69" y="68.7" width="4.3" height="4.3" fill="#ef8741"/><rect x="111.69" y="64.4" width="4.3" height="4.3" fill="#ef8741"/><rect x="111.69" y="60.1" width="4.3" height="4.3" fill="#ef8741"/><rect x="111.69" y="55.8" width="4.3" height="4.3" fill="#fa9c5c"/><rect x="111.69" y="51.5" width="4.3" height="4.3" fill="#fa9c5c"/><rect x="111.69" y="47.2" width="4.3" height="4.3" fill="#fa9c5c"/><rect x="111.69" y="42.9" width="4.3" height="4.3" fill="#fa9c5c"/><rect x="111.69" y="38.6" width="4.3" height="4.3" fill="#1b0003"/><rect x="111.69" y="34.3" width="4.3" height="4.3" fill="#85a1c9"/><rect x="111.69" y="30" width="4.3" height="4.3" fill="#97bcd6"/><rect x="111.69" y="25.7" width="4.3" height="4.3" fill="#cfefff"/><rect x="111.69" y="21.4" width="4.3" height="4.3" fill="#1b0003"/><rect x="107.39" y="120.29" width="4.3" height="4.3" fill="#1b0003"/><rect x="107.39" y="115.99" width="4.3" height="4.3" fill="#6a87af"/><rect x="107.39" y="111.69" width="4.3" height="4.3" fill="#6a87af"/><rect x="107.39" y="107.39" width="4.3" height="4.3" fill="#223c5b"/><rect x="107.39" y="103.09" width="4.3" height="4.3" fill="#1b0003"/><rect x="107.39" y="98.79" width="4.3" height="4.3" fill="#a84a24"/><rect x="107.39" y="94.49" width="4.3" height="4.3" fill="#a84a24"/><rect x="107.39" y="90.19" width="4.3" height="4.3" fill="#a84a24"/><rect x="107.39" y="85.89" width="4.3" height="4.3" fill="#a84a24"/><rect x="107.39" y="81.59" width="4.3" height="4.3" fill="#a84a24"/><rect x="107.39" y="77.29" width="4.3" height="4.3" fill="#a84a24"/><rect x="107.39" y="72.99" width="4.3" height="4.3" fill="#a84a24"/><rect x="107.39" y="68.7" width="4.3" height="4.3" fill="#a84a24"/><rect x="107.39" y="64.4" width="4.3" height="4.3" fill="#a84a24"/><rect x="107.39" y="60.1" width="4.3" height="4.3" fill="#a84a24"/><rect x="107.39" y="55.8" width="4.3" height="4.3" fill="#a84a24"/><rect x="107.39" y="51.5" width="4.3" height="4.3" fill="#a84a24"/><rect x="107.39" y="47.2" width="4.3" height="4.3" fill="#a84a24"/><rect x="107.39" y="42.9" width="4.3" height="4.3" fill="#a84a24"/><rect x="107.39" y="38.6" width="4.3" height="4.3" fill="#a84a24"/><rect x="107.39" y="34.3" width="4.3" height="4.3" fill="#1b0003"/><rect x="107.39" y="30" width="4.3" height="4.3" fill="#85a1c9"/><rect x="107.39" y="25.7" width="4.3" height="4.3" fill="#97bcd6"/><rect x="107.39" y="21.4" width="4.3" height="4.3" fill="#cfefff"/><rect x="107.39" y="17.1" width="4.3" height="4.3" fill="#1b0003"/><rect x="103.09" y="120.29" width="4.3" height="4.3" fill="#1b0003"/><rect x="103.09" y="115.99" width="4.3" height="4.3" fill="#6a87af"/><rect x="103.09" y="111.69" width="4.3" height="4.3" fill="#223c5b"/><rect x="103.09" y="107.39" width="4.3" height="4.3" fill="#1b0003"/><rect x="103.09" y="103.09" width="4.3" height="4.3" fill="#a84a24"/><rect x="103.09" y="98.79" width="4.3" height="4.3" fill="#a84a24"/><rect x="103.09" y="94.49" width="4.3" height="4.3" fill="#e86f3f"/><rect x="103.09" y="90.19" width="4.3" height="4.3" fill="#e86f3f"/><rect x="103.09" y="85.89" width="4.3" height="4.3" fill="#e86f3f"/><rect x="103.09" y="81.59" width="4.3" height="4.3" fill="#e86f3f"/><rect x="103.09" y="77.29" width="4.3" height="4.3" fill="#ef8741"/><rect x="103.09" y="72.99" width="4.3" height="4.3" fill="#ef8741"/><rect x="103.09" y="68.7" width="4.3" height="4.3" fill="#ef8741"/><rect x="103.09" y="64.4" width="4.3" height="4.3" fill="#ef8741"/><rect x="103.09" y="60.1" width="4.3" height="4.3" fill="#fa9c5c"/><rect x="103.09" y="55.8" width="4.3" height="4.3" fill="#fa9c5c"/><rect x="103.09" y="51.5" width="4.3" height="4.3" fill="#fa9c5c"/><rect x="103.09" y="47.2" width="4.3" height="4.3" fill="#fa9c5c"/><rect x="103.09" y="42.9" width="4.3" height="4.3" fill="#fa9c5c"/><rect x="103.09" y="38.6" width="4.3" height="4.3" fill="#fa9c5c"/><rect x="103.09" y="34.3" width="4.3" height="4.3" fill="#fa9c5c"/><rect x="103.09" y="30" width="4.3" height="4.3" fill="#1b0003"/><rect x="103.09" y="25.7" width="4.3" height="4.3" fill="#85a1c9"/><rect x="103.09" y="21.4" width="4.3" height="4.3" fill="#97bcd6"/><rect x="103.09" y="17.1" width="4.3" height="4.3" fill="#cfefff"/><rect x="103.09" y="12.8" width="4.3" height="4.3" fill="#1b0003"/><rect x="98.79" y="124.59" width="4.3" height="4.3" fill="#1b0003"/><rect x="98.79" y="120.29" width="4.3" height="4.3" fill="#6a87af"/><rect x="98.79" y="115.99" width="4.3" height="4.3" fill="#223c5b"/><rect x="98.79" y="111.69" width="4.3" height="4.3" fill="#1b0003"/><rect x="98.79" y="107.39" width="4.3" height="4.3" fill="#a84a24"/><rect x="98.79" y="103.09" width="4.3" height="4.3" fill="#a84a24"/><rect x="98.79" y="98.79" width="4.3" height="4.3" fill="#e86f3f"/><rect x="98.79" y="94.49" width="4.3" height="4.3" fill="#a84a24"/><rect x="98.79" y="90.19" width="4.3" height="4.3" fill="#e86f3f"/><rect x="98.79" y="85.89" width="4.3" height="4.3" fill="#e86f3f"/><rect x="98.79" y="81.59" width="4.3" height="4.3" fill="#ef8741"/><rect x="98.79" y="77.29" width="4.3" height="4.3" fill="#ef8741"/><rect x="98.79" y="72.99" width="4.3" height="4.3" fill="#ef8741"/><rect x="98.79" y="68.7" width="4.3" height="4.3" fill="#ef8741"/><rect x="98.79" y="64.4" width="4.3" height="4.3" fill="#fa9c5c"/><rect x="98.79" y="60.1" width="4.3" height="4.3" fill="#fa9c5c"/><rect x="98.79" y="55.8" width="4.3" height="4.3" fill="#fa9c5c"/><rect x="98.79" y="51.5" width="4.3" height="4.3" fill="#fa9c5c"/><rect x="98.79" y="47.2" width="4.3" height="4.3" fill="#fa9c5c"/><rect x="98.79" y="42.9" width="4.3" height="4.3" fill="#fa9c5c"/><rect x="98.79" y="38.6" width="4.3" height="4.3" fill="#fa9c5c"/><rect x="98.79" y="34.3" width="4.3" height="4.3" fill="#fa9c5c"/><rect x="98.79" y="30" width="4.3" height="4.3" fill="#fa9c5c"/><rect x="98.79" y="25.7" width="4.3" height="4.3" fill="#1b0003"/><rect x="98.79" y="21.4" width="4.3" height="4.3" fill="#85a1c9"/><rect x="98.79" y="17.1" width="4.3" height="4.3" fill="#cfefff"/><rect x="98.79" y="12.8" width="4.3" height="4.3" fill="#1b0003"/><rect x="94.49" y="124.59" width="4.3" height="4.3" fill="#1b0003"/><rect x="94.49" y="120.29" width="4.3" height="4.3" fill="#6a87af"/><rect x="94.49" y="115.99" width="4.3" height="4.3" fill="#1b0003"/><rect x="94.49" y="111.69" width="4.3" height="4.3" fill="#a84a24"/><rect x="94.49" y="107.39" width="4.3" height="4.3" fill="#a84a24"/><rect x="94.49" y="103.09" width="4.3" height="4.3" fill="#e86f3f"/><rect x="94.49" y="98.79" width="4.3" height="4.3" fill="#a84a24"/><rect x="94.49" y="94.49" width="4.3" height="4.3" fill="#e86f3f"/><rect x="94.49" y="90.19" width="4.3" height="4.3" fill="#e86f3f"/><rect x="94.49" y="85.89" width="4.3" height="4.3" fill="#ef8741"/><rect x="94.49" y="81.59" width="4.3" height="4.3" fill="#ef8741"/><rect x="94.49" y="77.29" width="4.3" height="4.3" fill="#ef8741"/><rect x="94.49" y="72.99" width="4.3" height="4.3" fill="#ef8741"/><rect x="94.49" y="68.7" width="4.3" height="4.3" fill="#fa9c5c"/><rect x="94.49" y="64.4" width="4.3" height="4.3" fill="#fa9c5c"/><rect x="94.49" y="60.1" width="4.3" height="4.3" fill="#fa9c5c"/><rect x="94.49" y="55.8" width="4.3" height="4.3" fill="#fa9c5c"/><rect x="94.49" y="51.5" width="4.3" height="4.3" fill="#fa9c5c"/><rect x="94.49" y="47.2" width="4.3" height="4.3" fill="#fa9c5c"/><rect x="94.49" y="42.9" width="4.3" height="4.3" fill="#fa9c5c"/><rect x="94.49" y="38.6" width="4.3" height="4.3" fill="#fa9c5c"/><rect x="94.49" y="34.3" width="4.3" height="4.3" fill="#fa9c5c"/><rect x="94.49" y="30" width="4.3" height="4.3" fill="#fa9c5c"/><rect x="94.49" y="25.7" width="4.3" height="4.3" fill="#fa9c5c"/><rect x="94.49" y="21.4" width="4.3" height="4.3" fill="#1b0003"/><rect x="94.49" y="17.1" width="4.3" height="4.3" fill="#97bcd6"/><rect x="94.49" y="12.8" width="4.3" height="4.3" fill="#cfefff"/><rect x="94.49" y="8.5" width="4.3" height="4.3" fill="#1b0003"/><rect x="90.19" y="128.89" width="4.3" height="4.3" fill="#1b0003"/><rect x="90.19" y="124.59" width="4.3" height="4.3" fill="#6a87af"/><rect x="90.19" y="120.29" width="4.3" height="4.3" fill="#1b0003"/><rect x="90.19" y="115.99" width="4.3" height="4.3" fill="#a84a24"/><rect x="90.19" y="111.69" width="4.3" height="4.3" fill="#a84a24"/><rect x="90.19" y="107.39" width="4.3" height="4.3" fill="#a84a24"/><rect x="90.19" y="103.09" width="4.3" height="4.3" fill="#a84a24"/><rect x="90.19" y="98.79" width="4.3" height="4.3" fill="#a84a24"/><rect x="90.19" y="94.49" width="4.3" height="4.3" fill="#a84a24"/><rect x="90.19" y="90.19" width="4.3" height="4.3" fill="#a84a24"/><rect x="90.19" y="85.89" width="4.3" height="4.3" fill="#a84a24"/><rect x="90.19" y="81.59" width="4.3" height="4.3" fill="#a84a24"/><rect x="90.19" y="77.29" width="4.3" height="4.3" fill="#a84a24"/><rect x="90.19" y="72.99" width="4.3" height="4.3" fill="#a84a24"/><rect x="90.19" y="68.7" width="4.3" height="4.3" fill="#a84a24"/><rect x="90.19" y="64.4" width="4.3" height="4.3" fill="#a84a24"/><rect x="90.19" y="60.1" width="4.3" height="4.3" fill="#a84a24"/><rect x="90.19" y="55.8" width="4.3" height="4.3" fill="#a84a24"/><rect x="90.19" y="51.5" width="4.3" height="4.3" fill="#a84a24"/><rect x="90.19" y="47.2" width="4.3" height="4.3" fill="#a84a24"/><rect x="90.19" y="42.9" width="4.3" height="4.3" fill="#a84a24"/><rect x="90.19" y="38.6" width="4.3" height="4.3" fill="#a84a24"/><rect x="90.19" y="34.3" width="4.3" height="4.3" fill="#a84a24"/><rect x="90.19" y="30" width="4.3" height="4.3" fill="#a84a24"/><rect x="90.19" y="25.7" width="4.3" height="4.3" fill="#a84a24"/><rect x="90.19" y="21.4" width="4.3" height="4.3" fill="#1b0003"/><rect x="90.19" y="17.1" width="4.3" height="4.3" fill="#97bcd6"/><rect x="90.19" y="12.8" width="4.3" height="4.3" fill="#cfefff"/><rect x="90.19" y="8.5" width="4.3" height="4.3" fill="#1b0003"/><rect x="85.89" y="128.89" width="4.3" height="4.3" fill="#1b0003"/><rect x="85.89" y="124.59" width="4.3" height="4.3" fill="#6a87af"/><rect x="85.89" y="120.29" width="4.3" height="4.3" fill="#1b0003"/><rect x="85.89" y="115.99" width="4.3" height="4.3" fill="#a84a24"/><rect x="85.89" y="111.69" width="4.3" height="4.3" fill="#a84a24"/><rect x="85.89" y="107.39" width="4.3" height="4.3" fill="#e86f3f"/><rect x="85.89" y="103.09" width="4.3" height="4.3" fill="#a84a24"/><rect x="85.89" y="98.79" width="4.3" height="4.3" fill="#e86f3f"/><rect x="85.89" y="94.49" width="4.3" height="4.3" fill="#e86f3f"/><rect x="85.89" y="90.19" width="4.3" height="4.3" fill="#e86f3f"/><rect x="85.89" y="85.89" width="4.3" height="4.3" fill="#ef8741"/><rect x="85.89" y="81.59" width="4.3" height="4.3" fill="#ef8741"/><rect x="85.89" y="77.29" width="4.3" height="4.3" fill="#ef8741"/><rect x="85.89" y="72.99" width="4.3" height="4.3" fill="#ef8741"/><rect x="85.89" y="68.7" width="4.3" height="4.3" fill="#ef8741"/><rect x="85.89" y="64.4" width="4.3" height="4.3" fill="#fa9c5c"/><rect x="85.89" y="60.1" width="4.3" height="4.3" fill="#fa9c5c"/><rect x="85.89" y="55.8" width="4.3" height="4.3" fill="#fa9c5c"/><rect x="85.89" y="51.5" width="4.3" height="4.3" fill="#fa9c5c"/><rect x="85.89" y="47.2" width="4.3" height="4.3" fill="#fa9c5c"/><rect x="85.89" y="42.9" width="4.3" height="4.3" fill="#fa9c5c"/><rect x="85.89" y="38.6" width="4.3" height="4.3" fill="#fa9c5c"/><rect x="85.89" y="34.3" width="4.3" height="4.3" fill="#fa9c5c"/><rect x="85.89" y="30" width="4.3" height="4.3" fill="#fa9c5c"/><rect x="85.89" y="25.7" width="4.3" height="4.3" fill="#fa9c5c"/><rect x="85.89" y="21.4" width="4.3" height="4.3" fill="#fa9c5c"/><rect x="85.89" y="17.1" width="4.3" height="4.3" fill="#1b0003"/><rect x="85.89" y="12.8" width="4.3" height="4.3" fill="#cfefff"/><rect x="85.89" y="8.5" width="4.3" height="4.3" fill="#1b0003"/><rect x="81.59" y="128.89" width="4.3" height="4.3" fill="#1b0003"/><rect x="81.59" y="124.59" width="4.3" height="4.3" fill="#6a87af"/><rect x="81.59" y="120.29" width="4.3" height="4.3" fill="#1b0003"/><rect x="81.59" y="115.99" width="4.3" height="4.3" fill="#a84a24"/><rect x="81.59" y="111.69" width="4.3" height="4.3" fill="#e86f3f"/><rect x="81.59" y="107.39" width="4.3" height="4.3" fill="#a84a24"/><rect x="81.59" y="103.09" width="4.3" height="4.3" fill="#e86f3f"/><rect x="81.59" y="98.79" width="4.3" height="4.3" fill="#e86f3f"/><rect x="81.59" y="94.49" width="4.3" height="4.3" fill="#e86f3f"/><rect x="81.59" y="90.19" width="4.3" height="4.3" fill="#ef8741"/><rect x="81.59" y="85.89" width="4.3" height="4.3" fill="#ef8741"/><rect x="81.59" y="81.59" width="4.3" height="4.3" fill="#ef8741"/><rect x="81.59" y="77.29" width="4.3" height="4.3" fill="#ef8741"/><rect x="81.59" y="72.99" width="4.3" height="4.3" fill="#fa9c5c"/><rect x="81.59" y="68.7" width="4.3" height="4.3" fill="#fa9c5c"/><rect x="81.59" y="64.4" width="4.3" height="4.3" fill="#fa9c5c"/><rect x="81.59" y="60.1" width="4.3" height="4.3" fill="#fa9c5c"/><rect x="81.59" y="55.8" width="4.3" height="4.3" fill="#fa9c5c"/><rect x="81.59" y="51.5" width="4.3" height="4.3" fill="#fa9c5c"/><rect x="81.59" y="47.2" width="4.3" height="4.3" fill="#fa9c5c"/><rect x="81.59" y="42.9" width="4.3" height="4.3" fill="#fa9c5c"/><rect x="81.59" y="38.6" width="4.3" height="4.3" fill="#fa9c5c"/><rect x="81.59" y="34.3" width="4.3" height="4.3" fill="#fa9c5c"/><rect x="81.59" y="30" width="4.3" height="4.3" fill="#fa9c5c"/><rect x="81.59" y="25.7" width="4.3" height="4.3" fill="#fa9c5c"/><rect x="81.59" y="21.4" width="4.3" height="4.3" fill="#fa9c5c"/><rect x="81.59" y="17.1" width="4.3" height="4.3" fill="#1b0003"/><rect x="81.59" y="12.8" width="4.3" height="4.3" fill="#cfefff"/><rect x="81.59" y="8.5" width="4.3" height="4.3" fill="#1b0003"/><rect x="77.29" y="128.89" width="4.3" height="4.3" fill="#1b0003"/><rect x="77.29" y="124.59" width="4.3" height="4.3" fill="#6a87af"/><rect x="77.29" y="120.29" width="4.3" height="4.3" fill="#1b0003"/><rect x="77.29" y="115.99" width="4.3" height="4.3" fill="#a84a24"/><rect x="77.29" y="111.69" width="4.3" height="4.3" fill="#a84a24"/><rect x="77.29" y="107.39" width="4.3" height="4.3" fill="#e86f3f"/><rect x="77.29" y="103.09" width="4.3" height="4.3" fill="#a84a24"/><rect x="77.29" y="98.79" width="4.3" height="4.3" fill="#e86f3f"/><rect x="77.29" y="94.49" width="4.3" height="4.3" fill="#e86f3f"/><rect x="77.29" y="90.19" width="4.3" height="4.3" fill="#ef8741"/><rect x="77.29" y="85.89" width="4.3" height="4.3" fill="#ef8741"/><rect x="77.29" y="81.59" width="4.3" height="4.3" fill="#ef8741"/><rect x="77.29" y="77.29" width="4.3" height="4.3" fill="#fa9c5c"/><rect x="77.29" y="72.99" width="4.3" height="4.3" fill="#fa9c5c"/><rect x="77.29" y="68.7" width="4.3" height="4.3" fill="#fa9c5c"/><rect x="77.29" y="64.4" width="4.3" height="4.3" fill="#fa9c5c"/><rect x="77.29" y="60.1" width="4.3" height="4.3" fill="#fa9c5c"/><rect x="77.29" y="55.8" width="4.3" height="4.3" fill="#fa9c5c"/><rect x="77.29" y="51.5" width="4.3" height="4.3" fill="#fa9c5c"/><rect x="77.29" y="47.2" width="4.3" height="4.3" fill="#fa9c5c"/><rect x="77.29" y="42.9" width="4.3" height="4.3" fill="#fa9c5c"/><rect x="77.29" y="38.6" width="4.3" height="4.3" fill="#fa9c5c"/><rect x="77.29" y="34.3" width="4.3" height="4.3" fill="#fa9c5c"/><rect x="77.29" y="30" width="4.3" height="4.3" fill="#fa9c5c"/><rect x="77.29" y="25.7" width="4.3" height="4.3" fill="#fa9c5c"/><rect x="77.29" y="21.4" width="4.3" height="4.3" fill="#fa9c5c"/><rect x="77.29" y="17.1" width="4.3" height="4.3" fill="#1b0003"/><rect x="77.29" y="12.8" width="4.3" height="4.3" fill="#cfefff"/><rect x="77.29" y="8.5" width="4.3" height="4.3" fill="#1b0003"/><rect x="73" y="128.89" width="4.3" height="4.3" fill="#1b0003"/><rect x="73" y="124.59" width="4.3" height="4.3" fill="#6a87af"/><rect x="73" y="120.29" width="4.3" height="4.3" fill="#1b0003"/><rect x="73" y="115.99" width="4.3" height="4.3" fill="#a84a24"/><rect x="73" y="111.69" width="4.3" height="4.3" fill="#a84a24"/><rect x="73" y="107.39" width="4.3" height="4.3" fill="#a84a24"/><rect x="73" y="103.09" width="4.3" height="4.3" fill="#a84a24"/><rect x="73" y="98.79" width="4.3" height="4.3" fill="#a84a24"/><rect x="73" y="94.49" width="4.3" height="4.3" fill="#a84a24"/><rect x="73" y="90.19" width="4.3" height="4.3" fill="#a84a24"/><rect x="73" y="85.89" width="4.3" height="4.3" fill="#a84a24"/><rect x="73" y="81.59" width="4.3" height="4.3" fill="#a84a24"/><rect x="73" y="77.29" width="4.3" height="4.3" fill="#a84a24"/><rect x="73" y="72.99" width="4.3" height="4.3" fill="#a84a24"/><rect x="73" y="68.7" width="4.3" height="4.3" fill="#a84a24"/><rect x="73" y="64.4" width="4.3" height="4.3" fill="#a84a24"/><rect x="73" y="60.1" width="4.3" height="4.3" fill="#a84a24"/><rect x="73" y="55.8" width="4.3" height="4.3" fill="#a84a24"/><rect x="73" y="51.5" width="4.3" height="4.3" fill="#a84a24"/><rect x="73" y="47.2" width="4.3" height="4.3" fill="#a84a24"/><rect x="73" y="42.9" width="4.3" height="4.3" fill="#a84a24"/><rect x="73" y="38.6" width="4.3" height="4.3" fill="#a84a24"/><rect x="73" y="34.3" width="4.3" height="4.3" fill="#a84a24"/><rect x="73" y="30" width="4.3" height="4.3" fill="#a84a24"/><rect x="73" y="25.7" width="4.3" height="4.3" fill="#a84a24"/><rect x="73" y="21.4" width="4.3" height="4.3" fill="#a84a24"/><rect x="73" y="17.1" width="4.3" height="4.3" fill="#1b0003"/><rect x="73" y="12.8" width="4.3" height="4.3" fill="#cfefff"/><rect x="73" y="8.5" width="4.3" height="4.3" fill="#1b0003"/><rect x="68.7" y="128.89" width="4.3" height="4.3" fill="#1b0003"/><rect x="68.7" y="124.59" width="4.3" height="4.3" fill="#6a87af"/><rect x="68.7" y="120.29" width="4.3" height="4.3" fill="#1b0003"/><rect x="68.7" y="115.99" width="4.3" height="4.3" fill="#a84a24"/><rect x="68.7" y="111.69" width="4.3" height="4.3" fill="#a84a24"/><rect x="68.7" y="107.39" width="4.3" height="4.3" fill="#e86f3f"/><rect x="68.7" y="103.09" width="4.3" height="4.3" fill="#a84a24"/><rect x="68.7" y="98.79" width="4.3" height="4.3" fill="#e86f3f"/><rect x="68.7" y="94.49" width="4.3" height="4.3" fill="#ef8741"/><rect x="68.7" y="90.19" width="4.3" height="4.3" fill="#ef8741"/><rect x="68.7" y="85.89" width="4.3" height="4.3" fill="#ef8741"/><rect x="68.7" y="81.59" width="4.3" height="4.3" fill="#ef8741"/><rect x="68.7" y="77.29" width="4.3" height="4.3" fill="#fa9c5c"/><rect x="68.7" y="72.99" width="4.3" height="4.3" fill="#fa9c5c"/><rect x="68.7" y="68.7" width="4.3" height="4.3" fill="#fa9c5c"/><rect x="68.7" y="64.4" width="4.3" height="4.3" fill="#fa9c5c"/><rect x="68.7" y="60.1" width="4.3" height="4.3" fill="#fa9c5c"/><rect x="68.7" y="55.8" width="4.3" height="4.3" fill="#fa9c5c"/><rect x="68.7" y="51.5" width="4.3" height="4.3" fill="#fa9c5c"/><rect x="68.7" y="47.2" width="4.3" height="4.3" fill="#fa9c5c"/><rect x="68.7" y="42.9" width="4.3" height="4.3" fill="#fa9c5c"/><rect x="68.7" y="38.6" width="4.3" height="4.3" fill="#fa9c5c"/><rect x="68.7" y="34.3" width="4.3" height="4.3" fill="#fa9c5c"/><rect x="68.7" y="30" width="4.3" height="4.3" fill="#fa9c5c"/><rect x="68.7" y="25.7" width="4.3" height="4.3" fill="#fa9c5c"/><rect x="68.7" y="21.4" width="4.3" height="4.3" fill="#fa9c5c"/><rect x="68.7" y="17.1" width="4.3" height="4.3" fill="#1b0003"/><rect x="68.7" y="12.8" width="4.3" height="4.3" fill="#cfefff"/><rect x="68.7" y="8.5" width="4.3" height="4.3" fill="#1b0003"/><rect x="64.4" y="128.89" width="4.3" height="4.3" fill="#1b0003"/><rect x="64.4" y="124.59" width="4.3" height="4.3" fill="#6a87af"/><rect x="64.4" y="120.29" width="4.3" height="4.3" fill="#1b0003"/><rect x="64.4" y="115.99" width="4.3" height="4.3" fill="#a84a24"/><rect x="64.4" y="111.69" width="4.3" height="4.3" fill="#e86f3f"/><rect x="64.4" y="107.39" width="4.3" height="4.3" fill="#a84a24"/><rect x="64.4" y="103.09" width="4.3" height="4.3" fill="#e86f3f"/><rect x="64.4" y="98.79" width="4.3" height="4.3" fill="#e86f3f"/><rect x="64.4" y="94.49" width="4.3" height="4.3" fill="#e86f3f"/><rect x="64.4" y="90.19" width="4.3" height="4.3" fill="#ef8741"/><rect x="64.4" y="85.89" width="4.3" height="4.3" fill="#ef8741"/><rect x="64.4" y="81.59" width="4.3" height="4.3" fill="#ef8741"/><rect x="64.4" y="77.29" width="4.3" height="4.3" fill="#ef8741"/><rect x="64.4" y="72.99" width="4.3" height="4.3" fill="#fa9c5c"/><rect x="64.4" y="68.7" width="4.3" height="4.3" fill="#fa9c5c"/><rect x="64.4" y="64.4" width="4.3" height="4.3" fill="#fa9c5c"/><rect x="64.4" y="60.1" width="4.3" height="4.3" fill="#fa9c5c"/><rect x="64.4" y="55.8" width="4.3" height="4.3" fill="#fa9c5c"/><rect x="64.4" y="51.5" width="4.3" height="4.3" fill="#fa9c5c"/><rect x="64.4" y="47.2" width="4.3" height="4.3" fill="#fa9c5c"/><rect x="64.4" y="42.9" width="4.3" height="4.3" fill="#fa9c5c"/><rect x="64.4" y="38.6" width="4.3" height="4.3" fill="#fa9c5c"/><rect x="64.4" y="34.3" width="4.3" height="4.3" fill="#fa9c5c"/><rect x="64.4" y="30" width="4.3" height="4.3" fill="#fa9c5c"/><rect x="64.4" y="25.7" width="4.3" height="4.3" fill="#fa9c5c"/><rect x="64.4" y="21.4" width="4.3" height="4.3" fill="#fa9c5c"/><rect x="64.4" y="17.1" width="4.3" height="4.3" fill="#1b0003"/><rect x="64.4" y="12.8" width="4.3" height="4.3" fill="#cfefff"/><rect x="64.4" y="8.5" width="4.3" height="4.3" fill="#1b0003"/><rect x="60.1" y="128.89" width="4.3" height="4.3" fill="#1b0003"/><rect x="60.1" y="124.59" width="4.3" height="4.3" fill="#6a87af"/><rect x="60.1" y="120.29" width="4.3" height="4.3" fill="#1b0003"/><rect x="60.1" y="115.99" width="4.3" height="4.3" fill="#a84a24"/><rect x="60.1" y="111.69" width="4.3" height="4.3" fill="#a84a24"/><rect x="60.1" y="107.39" width="4.3" height="4.3" fill="#e86f3f"/><rect x="60.1" y="103.09" width="4.3" height="4.3" fill="#a84a24"/><rect x="60.1" y="98.79" width="4.3" height="4.3" fill="#e86f3f"/><rect x="60.1" y="94.49" width="4.3" height="4.3" fill="#e86f3f"/><rect x="60.1" y="90.19" width="4.3" height="4.3" fill="#ef8741"/><rect x="60.1" y="85.89" width="4.3" height="4.3" fill="#ef8741"/><rect x="60.1" y="81.59" width="4.3" height="4.3" fill="#ef8741"/><rect x="60.1" y="77.29" width="4.3" height="4.3" fill="#ef8741"/><rect x="60.1" y="72.99" width="4.3" height="4.3" fill="#ef8741"/><rect x="60.1" y="68.7" width="4.3" height="4.3" fill="#ef8741"/><rect x="60.1" y="64.4" width="4.3" height="4.3" fill="#fa9c5c"/><rect x="60.1" y="60.1" width="4.3" height="4.3" fill="#fa9c5c"/><rect x="60.1" y="55.8" width="4.3" height="4.3" fill="#fa9c5c"/><rect x="60.1" y="51.5" width="4.3" height="4.3" fill="#fa9c5c"/><rect x="60.1" y="47.2" width="4.3" height="4.3" fill="#fa9c5c"/><rect x="60.1" y="42.9" width="4.3" height="4.3" fill="#fa9c5c"/><rect x="60.1" y="38.6" width="4.3" height="4.3" fill="#fa9c5c"/><rect x="60.1" y="34.3" width="4.3" height="4.3" fill="#fa9c5c"/><rect x="60.1" y="30" width="4.3" height="4.3" fill="#fa9c5c"/><rect x="60.1" y="25.7" width="4.3" height="4.3" fill="#fa9c5c"/><rect x="60.1" y="21.4" width="4.3" height="4.3" fill="#fa9c5c"/><rect x="60.1" y="17.1" width="4.3" height="4.3" fill="#1b0003"/><rect x="60.1" y="12.8" width="4.3" height="4.3" fill="#cfefff"/><rect x="60.1" y="8.5" width="4.3" height="4.3" fill="#1b0003"/><rect x="55.8" y="128.89" width="4.3" height="4.3" fill="#1b0003"/><rect x="55.8" y="124.59" width="4.3" height="4.3" fill="#6a87af"/><rect x="55.8" y="120.29" width="4.3" height="4.3" fill="#1b0003"/><rect x="55.8" y="115.99" width="4.3" height="4.3" fill="#a84a24"/><rect x="55.8" y="111.69" width="4.3" height="4.3" fill="#a84a24"/><rect x="55.8" y="107.39" width="4.3" height="4.3" fill="#a84a24"/><rect x="55.8" y="103.09" width="4.3" height="4.3" fill="#a84a24"/><rect x="55.8" y="98.79" width="4.3" height="4.3" fill="#a84a24"/><rect x="55.8" y="94.49" width="4.3" height="4.3" fill="#a84a24"/><rect x="55.8" y="90.19" width="4.3" height="4.3" fill="#a84a24"/><rect x="55.8" y="85.89" width="4.3" height="4.3" fill="#a84a24"/><rect x="55.8" y="81.59" width="4.3" height="4.3" fill="#a84a24"/><rect x="55.8" y="77.29" width="4.3" height="4.3" fill="#a84a24"/><rect x="55.8" y="72.99" width="4.3" height="4.3" fill="#a84a24"/><rect x="55.8" y="68.7" width="4.3" height="4.3" fill="#a84a24"/><rect x="55.8" y="64.4" width="4.3" height="4.3" fill="#a84a24"/><rect x="55.8" y="60.1" width="4.3" height="4.3" fill="#a84a24"/><rect x="55.8" y="55.8" width="4.3" height="4.3" fill="#a84a24"/><rect x="55.8" y="51.5" width="4.3" height="4.3" fill="#a84a24"/><rect x="55.8" y="47.2" width="4.3" height="4.3" fill="#a84a24"/><rect x="55.8" y="42.9" width="4.3" height="4.3" fill="#a84a24"/><rect x="55.8" y="38.6" width="4.3" height="4.3" fill="#a84a24"/><rect x="55.8" y="34.3" width="4.3" height="4.3" fill="#a84a24"/><rect x="55.8" y="30" width="4.3" height="4.3" fill="#a84a24"/><rect x="55.8" y="25.7" width="4.3" height="4.3" fill="#a84a24"/><rect x="55.8" y="21.4" width="4.3" height="4.3" fill="#a84a24"/><rect x="55.8" y="17.1" width="4.3" height="4.3" fill="#1b0003"/><rect x="55.8" y="12.8" width="4.3" height="4.3" fill="#cfefff"/><rect x="55.8" y="8.5" width="4.3" height="4.3" fill="#1b0003"/><rect x="51.5" y="128.89" width="4.3" height="4.3" fill="#1b0003"/><rect x="51.5" y="124.59" width="4.3" height="4.3" fill="#6a87af"/><rect x="51.5" y="120.29" width="4.3" height="4.3" fill="#1b0003"/><rect x="51.5" y="115.99" width="4.3" height="4.3" fill="#a84a24"/><rect x="51.5" y="111.69" width="4.3" height="4.3" fill="#a84a24"/><rect x="51.5" y="107.39" width="4.3" height="4.3" fill="#e86f3f"/><rect x="51.5" y="103.09" width="4.3" height="4.3" fill="#a84a24"/><rect x="51.5" y="98.79" width="4.3" height="4.3" fill="#e86f3f"/><rect x="51.5" y="94.49" width="4.3" height="4.3" fill="#e86f3f"/><rect x="51.5" y="90.19" width="4.3" height="4.3" fill="#e86f3f"/><rect x="51.5" y="85.89" width="4.3" height="4.3" fill="#ef8741"/><rect x="51.5" y="81.59" width="4.3" height="4.3" fill="#ef8741"/><rect x="51.5" y="77.29" width="4.3" height="4.3" fill="#ef8741"/><rect x="51.5" y="72.99" width="4.3" height="4.3" fill="#fa9c5c"/><rect x="51.5" y="68.7" width="4.3" height="4.3" fill="#fa9c5c"/><rect x="51.5" y="64.4" width="4.3" height="4.3" fill="#fa9c5c"/><rect x="51.5" y="60.1" width="4.3" height="4.3" fill="#fa9c5c"/><rect x="51.5" y="55.8" width="4.3" height="4.3" fill="#fa9c5c"/><rect x="51.5" y="51.5" width="4.3" height="4.3" fill="#fa9c5c"/><rect x="51.5" y="47.2" width="4.3" height="4.3" fill="#fa9c5c"/><rect x="51.5" y="42.9" width="4.3" height="4.3" fill="#fa9c5c"/><rect x="51.5" y="38.6" width="4.3" height="4.3" fill="#fa9c5c"/><rect x="51.5" y="34.3" width="4.3" height="4.3" fill="#fa9c5c"/><rect x="51.5" y="30" width="4.3" height="4.3" fill="#fa9c5c"/><rect x="51.5" y="25.7" width="4.3" height="4.3" fill="#fa9c5c"/><rect x="51.5" y="21.4" width="4.3" height="4.3" fill="#fa9c5c"/><rect x="51.5" y="17.1" width="4.3" height="4.3" fill="#1b0003"/><rect x="51.5" y="12.8" width="4.3" height="4.3" fill="#cfefff"/><rect x="51.5" y="8.5" width="4.3" height="4.3" fill="#1b0003"/><rect x="47.2" y="128.89" width="4.3" height="4.3" fill="#1b0003"/><rect x="47.2" y="124.59" width="4.3" height="4.3" fill="#6a87af"/><rect x="47.2" y="120.29" width="4.3" height="4.3" fill="#223c5b"/><rect x="47.2" y="115.99" width="4.3" height="4.3" fill="#1b0003"/><rect x="47.2" y="111.69" width="4.3" height="4.3" fill="#a84a24"/><rect x="47.2" y="107.39" width="4.3" height="4.3" fill="#a84a24"/><rect x="47.2" y="103.09" width="4.3" height="4.3" fill="#e86f3f"/><rect x="47.2" y="98.79" width="4.3" height="4.3" fill="#a84a24"/><rect x="47.2" y="94.49" width="4.3" height="4.3" fill="#e86f3f"/><rect x="47.2" y="90.19" width="4.3" height="4.3" fill="#e86f3f"/><rect x="47.2" y="85.89" width="4.3" height="4.3" fill="#e86f3f"/><rect x="47.2" y="81.59" width="4.3" height="4.3" fill="#ef8741"/><rect x="47.2" y="77.29" width="4.3" height="4.3" fill="#ef8741"/><rect x="47.2" y="72.99" width="4.3" height="4.3" fill="#ef8741"/><rect x="47.2" y="68.7" width="4.3" height="4.3" fill="#fa9c5c"/><rect x="47.2" y="64.4" width="4.3" height="4.3" fill="#fa9c5c"/><rect x="47.2" y="60.1" width="4.3" height="4.3" fill="#fa9c5c"/><rect x="47.2" y="55.8" width="4.3" height="4.3" fill="#fa9c5c"/><rect x="47.2" y="51.5" width="4.3" height="4.3" fill="#fa9c5c"/><rect x="47.2" y="47.2" width="4.3" height="4.3" fill="#fa9c5c"/><rect x="47.2" y="42.9" width="4.3" height="4.3" fill="#fa9c5c"/><rect x="47.2" y="38.6" width="4.3" height="4.3" fill="#fa9c5c"/><rect x="47.2" y="34.3" width="4.3" height="4.3" fill="#fa9c5c"/><rect x="47.2" y="30" width="4.3" height="4.3" fill="#fa9c5c"/><rect x="47.2" y="25.7" width="4.3" height="4.3" fill="#fa9c5c"/><rect x="47.2" y="21.4" width="4.3" height="4.3" fill="#1b0003"/><rect x="47.2" y="17.1" width="4.3" height="4.3" fill="#97bcd6"/><rect x="47.2" y="12.8" width="4.3" height="4.3" fill="#cfefff"/><rect x="47.2" y="8.5" width="4.3" height="4.3" fill="#1b0003"/><rect x="42.9" y="124.59" width="4.3" height="4.3" fill="#1b0003"/><rect x="42.9" y="120.29" width="4.3" height="4.3" fill="#223c5b"/><rect x="42.9" y="115.99" width="4.3" height="4.3" fill="#1b0003"/><rect x="42.9" y="111.69" width="4.3" height="4.3" fill="#a84a24"/><rect x="42.9" y="107.39" width="4.3" height="4.3" fill="#a84a24"/><rect x="42.9" y="103.09" width="4.3" height="4.3" fill="#a84a24"/><rect x="42.9" y="98.79" width="4.3" height="4.3" fill="#e86f3f"/><rect x="42.9" y="94.49" width="4.3" height="4.3" fill="#a84a24"/><rect x="42.9" y="90.19" width="4.3" height="4.3" fill="#e86f3f"/><rect x="42.9" y="85.89" width="4.3" height="4.3" fill="#e86f3f"/><rect x="42.9" y="81.59" width="4.3" height="4.3" fill="#ef8741"/><rect x="42.9" y="77.29" width="4.3" height="4.3" fill="#ef8741"/><rect x="42.9" y="72.99" width="4.3" height="4.3" fill="#ef8741"/><rect x="42.9" y="68.7" width="4.3" height="4.3" fill="#ef8741"/><rect x="42.9" y="64.4" width="4.3" height="4.3" fill="#ef8741"/><rect x="42.9" y="60.1" width="4.3" height="4.3" fill="#ef8741"/><rect x="42.9" y="55.8" width="4.3" height="4.3" fill="#ef8741"/><rect x="42.9" y="51.5" width="4.3" height="4.3" fill="#fa9c5c"/><rect x="42.9" y="47.2" width="4.3" height="4.3" fill="#fa9c5c"/><rect x="42.9" y="42.9" width="4.3" height="4.3" fill="#fa9c5c"/><rect x="42.9" y="38.6" width="4.3" height="4.3" fill="#fa9c5c"/><rect x="42.9" y="34.3" width="4.3" height="4.3" fill="#fa9c5c"/><rect x="42.9" y="30" width="4.3" height="4.3" fill="#fa9c5c"/><rect x="42.9" y="25.7" width="4.3" height="4.3" fill="#fa9c5c"/><rect x="42.9" y="21.4" width="4.3" height="4.3" fill="#1b0003"/><rect x="42.9" y="17.1" width="4.3" height="4.3" fill="#97bcd6"/><rect x="42.9" y="12.8" width="4.3" height="4.3" fill="#cfefff"/><rect x="42.9" y="8.5" width="4.3" height="4.3" fill="#1b0003"/><rect x="38.6" y="124.59" width="4.3" height="4.3" fill="#1b0003"/><rect x="38.6" y="120.29" width="4.3" height="4.3" fill="#6a87af"/><rect x="38.6" y="115.99" width="4.3" height="4.3" fill="#223c5b"/><rect x="38.6" y="111.69" width="4.3" height="4.3" fill="#1b0003"/><rect x="38.6" y="107.39" width="4.3" height="4.3" fill="#a84a24"/><rect x="38.6" y="103.09" width="4.3" height="4.3" fill="#a84a24"/><rect x="38.6" y="98.79" width="4.3" height="4.3" fill="#a84a24"/><rect x="38.6" y="94.49" width="4.3" height="4.3" fill="#a84a24"/><rect x="38.6" y="90.19" width="4.3" height="4.3" fill="#a84a24"/><rect x="38.6" y="85.89" width="4.3" height="4.3" fill="#a84a24"/><rect x="38.6" y="81.59" width="4.3" height="4.3" fill="#a84a24"/><rect x="38.6" y="77.29" width="4.3" height="4.3" fill="#a84a24"/><rect x="38.6" y="72.99" width="4.3" height="4.3" fill="#a84a24"/><rect x="38.6" y="68.7" width="4.3" height="4.3" fill="#a84a24"/><rect x="38.6" y="64.4" width="4.3" height="4.3" fill="#a84a24"/><rect x="38.6" y="60.1" width="4.3" height="4.3" fill="#a84a24"/><rect x="38.6" y="55.8" width="4.3" height="4.3" fill="#a84a24"/><rect x="38.6" y="51.5" width="4.3" height="4.3" fill="#a84a24"/><rect x="38.6" y="47.2" width="4.3" height="4.3" fill="#a84a24"/><rect x="38.6" y="42.9" width="4.3" height="4.3" fill="#a84a24"/><rect x="38.6" y="38.6" width="4.3" height="4.3" fill="#a84a24"/><rect x="38.6" y="34.3" width="4.3" height="4.3" fill="#a84a24"/><rect x="38.6" y="30" width="4.3" height="4.3" fill="#a84a24"/><rect x="38.6" y="25.7" width="4.3" height="4.3" fill="#1b0003"/><rect x="38.6" y="21.4" width="4.3" height="4.3" fill="#97bcd6"/><rect x="38.6" y="17.1" width="4.3" height="4.3" fill="#cfefff"/><rect x="38.6" y="12.8" width="4.3" height="4.3" fill="#1b0003"/><rect x="34.3" y="120.29" width="4.3" height="4.3" fill="#1b0003"/><rect x="34.3" y="115.99" width="4.3" height="4.3" fill="#6a87af"/><rect x="34.3" y="111.69" width="4.3" height="4.3" fill="#223c5b"/><rect x="34.3" y="107.39" width="4.3" height="4.3" fill="#1b0003"/><rect x="34.3" y="103.09" width="4.3" height="4.3" fill="#a84a24"/><rect x="34.3" y="98.79" width="4.3" height="4.3" fill="#a84a24"/><rect x="34.3" y="94.49" width="4.3" height="4.3" fill="#a84a24"/><rect x="34.3" y="90.19" width="4.3" height="4.3" fill="#a84a24"/><rect x="34.3" y="85.89" width="4.3" height="4.3" fill="#e86f3f"/><rect x="34.3" y="81.59" width="4.3" height="4.3" fill="#ef8741"/><rect x="34.3" y="77.29" width="4.3" height="4.3" fill="#ef8741"/><rect x="34.3" y="72.99" width="4.3" height="4.3" fill="#ef8741"/><rect x="34.3" y="68.7" width="4.3" height="4.3" fill="#fa9c5c"/><rect x="34.3" y="64.4" width="4.3" height="4.3" fill="#fa9c5c"/><rect x="34.3" y="60.1" width="4.3" height="4.3" fill="#fa9c5c"/><rect x="34.3" y="55.8" width="4.3" height="4.3" fill="#fa9c5c"/><rect x="34.3" y="51.5" width="4.3" height="4.3" fill="#fa9c5c"/><rect x="34.3" y="47.2" width="4.3" height="4.3" fill="#fa9c5c"/><rect x="34.3" y="42.9" width="4.3" height="4.3" fill="#fa9c5c"/><rect x="34.3" y="38.6" width="4.3" height="4.3" fill="#fa9c5c"/><rect x="34.3" y="34.3" width="4.3" height="4.3" fill="#fa9c5c"/><rect x="34.3" y="30" width="4.3" height="4.3" fill="#1b0003"/><rect x="34.3" y="25.7" width="4.3" height="4.3" fill="#97bcd6"/><rect x="34.3" y="21.4" width="4.3" height="4.3" fill="#97bcd6"/><rect x="34.3" y="17.1" width="4.3" height="4.3" fill="#cfefff"/><rect x="34.3" y="12.8" width="4.3" height="4.3" fill="#1b0003"/><rect x="30" y="120.29" width="4.3" height="4.3" fill="#1b0003"/><rect x="30" y="115.99" width="4.3" height="4.3" fill="#6a87af"/><rect x="30" y="111.69" width="4.3" height="4.3" fill="#6a87af"/><rect x="30" y="107.39" width="4.3" height="4.3" fill="#223c5b"/><rect x="30" y="103.09" width="4.3" height="4.3" fill="#1b0003"/><rect x="30" y="98.79" width="4.3" height="4.3" fill="#a84a24"/><rect x="30" y="94.49" width="4.3" height="4.3" fill="#a84a24"/><rect x="30" y="90.19" width="4.3" height="4.3" fill="#a84a24"/><rect x="30" y="85.89" width="4.3" height="4.3" fill="#e86f3f"/><rect x="30" y="81.59" width="4.3" height="4.3" fill="#e86f3f"/><rect x="30" y="77.29" width="4.3" height="4.3" fill="#ef8741"/><rect x="30" y="72.99" width="4.3" height="4.3" fill="#ef8741"/><rect x="30" y="68.7" width="4.3" height="4.3" fill="#ef8741"/><rect x="30" y="64.4" width="4.3" height="4.3" fill="#ef8741"/><rect x="30" y="60.1" width="4.3" height="4.3" fill="#ef8741"/><rect x="30" y="55.8" width="4.3" height="4.3" fill="#ef8741"/><rect x="30" y="51.5" width="4.3" height="4.3" fill="#fa9c5c"/><rect x="30" y="47.2" width="4.3" height="4.3" fill="#fa9c5c"/><rect x="30" y="42.9" width="4.3" height="4.3" fill="#fa9c5c"/><rect x="30" y="38.6" width="4.3" height="4.3" fill="#fa9c5c"/><rect x="30" y="34.3" width="4.3" height="4.3" fill="#1b0003"/><rect x="30" y="30" width="4.3" height="4.3" fill="#97bcd6"/><rect x="30" y="25.7" width="4.3" height="4.3" fill="#97bcd6"/><rect x="30" y="21.4" width="4.3" height="4.3" fill="#cfefff"/><rect x="30" y="17.1" width="4.3" height="4.3" fill="#1b0003"/><rect x="25.7" y="115.99" width="4.3" height="4.3" fill="#1b0003"/><rect x="25.7" y="111.69" width="4.3" height="4.3" fill="#6a87af"/><rect x="25.7" y="107.39" width="4.3" height="4.3" fill="#6a87af"/><rect x="25.7" y="103.09" width="4.3" height="4.3" fill="#223c5b"/><rect x="25.7" y="98.79" width="4.3" height="4.3" fill="#1b0003"/><rect x="25.7" y="94.49" width="4.3" height="4.3" fill="#a84a24"/><rect x="25.7" y="90.19" width="4.3" height="4.3" fill="#a84a24"/><rect x="25.7" y="85.89" width="4.3" height="4.3" fill="#a84a24"/><rect x="25.7" y="81.59" width="4.3" height="4.3" fill="#a84a24"/><rect x="25.7" y="77.29" width="4.3" height="4.3" fill="#a84a24"/><rect x="25.7" y="72.99" width="4.3" height="4.3" fill="#a84a24"/><rect x="25.7" y="68.7" width="4.3" height="4.3" fill="#a84a24"/><rect x="25.7" y="64.4" width="4.3" height="4.3" fill="#a84a24"/><rect x="25.7" y="60.1" width="4.3" height="4.3" fill="#a84a24"/><rect x="25.7" y="55.8" width="4.3" height="4.3" fill="#a84a24"/><rect x="25.7" y="51.5" width="4.3" height="4.3" fill="#a84a24"/><rect x="25.7" y="47.2" width="4.3" height="4.3" fill="#a84a24"/><rect x="25.7" y="42.9" width="4.3" height="4.3" fill="#a84a24"/><rect x="25.7" y="38.6" width="4.3" height="4.3" fill="#1b0003"/><rect x="25.7" y="34.3" width="4.3" height="4.3" fill="#85a1c9"/><rect x="25.7" y="30" width="4.3" height="4.3" fill="#97bcd6"/><rect x="25.7" y="25.7" width="4.3" height="4.3" fill="#cfefff"/><rect x="25.7" y="21.4" width="4.3" height="4.3" fill="#1b0003"/><rect x="21.4" y="111.69" width="4.3" height="4.3" fill="#1b0003"/><rect x="21.4" y="107.39" width="4.3" height="4.3" fill="#6a87af"/><rect x="21.4" y="103.09" width="4.3" height="4.3" fill="#6a87af"/><rect x="21.4" y="98.79" width="4.3" height="4.3" fill="#223c5b"/><rect x="21.4" y="94.49" width="4.3" height="4.3" fill="#1b0003"/><rect x="21.4" y="90.19" width="4.3" height="4.3" fill="#1b0003"/><rect x="21.4" y="85.89" width="4.3" height="4.3" fill="#a84a24"/><rect x="21.4" y="81.59" width="4.3" height="4.3" fill="#a84a24"/><rect x="21.4" y="77.29" width="4.3" height="4.3" fill="#e86f3f"/><rect x="21.4" y="72.99" width="4.3" height="4.3" fill="#e86f3f"/><rect x="21.4" y="68.7" width="4.3" height="4.3" fill="#ef8741"/><rect x="21.4" y="64.4" width="4.3" height="4.3" fill="#ef8741"/><rect x="21.4" y="60.1" width="4.3" height="4.3" fill="#ef8741"/><rect x="21.4" y="55.8" width="4.3" height="4.3" fill="#fa9c5c"/><rect x="21.4" y="51.5" width="4.3" height="4.3" fill="#fa9c5c"/><rect x="21.4" y="47.2" width="4.3" height="4.3" fill="#1b0003"/><rect x="21.4" y="42.9" width="4.3" height="4.3" fill="#1b0003"/><rect x="21.4" y="38.6" width="4.3" height="4.3" fill="#85a1c9"/><rect x="21.4" y="34.3" width="4.3" height="4.3" fill="#85a1c9"/><rect x="21.4" y="30" width="4.3" height="4.3" fill="#cfefff"/><rect x="21.4" y="25.7" width="4.3" height="4.3" fill="#1b0003"/><rect x="17.1" y="107.39" width="4.3" height="4.3" fill="#1b0003"/><rect x="17.1" y="103.09" width="4.3" height="4.3" fill="#1b0003"/><rect x="17.1" y="98.79" width="4.3" height="4.3" fill="#6a87af"/><rect x="17.1" y="94.49" width="4.3" height="4.3" fill="#6a87af"/><rect x="17.1" y="90.19" width="4.3" height="4.3" fill="#223c5b"/><rect x="17.1" y="85.89" width="4.3" height="4.3" fill="#1b0003"/><rect x="17.1" y="81.59" width="4.3" height="4.3" fill="#1b0003"/><rect x="17.1" y="77.29" width="4.3" height="4.3" fill="#1b0003"/><rect x="17.1" y="72.99" width="4.3" height="4.3" fill="#1b0003"/><rect x="17.1" y="68.7" width="4.3" height="4.3" fill="#1b0003"/><rect x="17.1" y="64.4" width="4.3" height="4.3" fill="#1b0003"/><rect x="17.1" y="60.1" width="4.3" height="4.3" fill="#1b0003"/><rect x="17.1" y="55.8" width="4.3" height="4.3" fill="#1b0003"/><rect x="17.1" y="51.5" width="4.3" height="4.3" fill="#1b0003"/><rect x="17.1" y="47.2" width="4.3" height="4.3" fill="#85a1c9"/><rect x="17.1" y="42.9" width="4.3" height="4.3" fill="#85a1c9"/><rect x="17.1" y="38.6" width="4.3" height="4.3" fill="#97bcd6"/><rect x="17.1" y="34.3" width="4.3" height="4.3" fill="#97bcd6"/><rect x="17.1" y="30" width="4.3" height="4.3" fill="#1b0003"/><rect x="12.8" y="98.79" width="4.3" height="4.3" fill="#1b0003"/><rect x="12.8" y="94.49" width="4.3" height="4.3" fill="#1b0003"/><rect x="12.8" y="90.19" width="4.3" height="4.3" fill="#6a87af"/><rect x="12.8" y="85.89" width="4.3" height="4.3" fill="#6a87af"/><rect x="12.8" y="81.59" width="4.3" height="4.3" fill="#6a87af"/><rect x="12.8" y="77.29" width="4.3" height="4.3" fill="#6a87af"/><rect x="12.8" y="72.99" width="4.3" height="4.3" fill="#6a87af"/><rect x="12.8" y="68.7" width="4.3" height="4.3" fill="#6a87af"/><rect x="12.8" y="64.4" width="4.3" height="4.3" fill="#85a1c9"/><rect x="12.8" y="60.1" width="4.3" height="4.3" fill="#85a1c9"/><rect x="12.8" y="55.8" width="4.3" height="4.3" fill="#85a1c9"/><rect x="12.8" y="51.5" width="4.3" height="4.3" fill="#85a1c9"/><rect x="12.8" y="47.2" width="4.3" height="4.3" fill="#85a1c9"/><rect x="12.8" y="42.9" width="4.3" height="4.3" fill="#97bcd6"/><rect x="12.8" y="38.6" width="4.3" height="4.3" fill="#1b0003"/><rect x="12.8" y="34.3" width="4.3" height="4.3" fill="#1b0003"/><rect x="8.5" y="90.19" width="4.3" height="4.3" fill="#1b0003"/><rect x="8.5" y="85.89" width="4.3" height="4.3" fill="#1b0003"/><rect x="8.5" y="81.59" width="4.3" height="4.3" fill="#1b0003"/><rect x="8.5" y="77.29" width="4.3" height="4.3" fill="#1b0003"/><rect x="8.5" y="72.99" width="4.3" height="4.3" fill="#1b0003"/><rect x="8.5" y="68.7" width="4.3" height="4.3" fill="#1b0003"/><rect x="8.5" y="64.4" width="4.3" height="4.3" fill="#1b0003"/><rect x="8.5" y="60.1" width="4.3" height="4.3" fill="#1b0003"/><rect x="8.5" y="55.8" width="4.3" height="4.3" fill="#1b0003"/><rect x="8.5" y="51.5" width="4.3" height="4.3" fill="#1b0003"/><rect x="8.5" y="47.2" width="4.3" height="4.3" fill="#1b0003"/><rect x="8.5" y="42.9" width="4.3" height="4.3" fill="#1b0003"/></g></g></g></g></svg>