<svg xmlns="http://www.w3.org/2000/svg" width="128.26" height="128.26" viewBox="0 0 128.26 128.26"><g id="Layer_2" data-name="Layer 2"><g id="items"><g id="Star"><path d="M107.66,128.26H82.41v-4.12H74.17V120H70.05V115.9H58.21V120H54.09v4.12H45.84v4.12H20.6v-4.12H16.48V90.65H20.6V82.93H16.48V78.81H12.36V74.69H8.24V70.57H4.12V66.45H0V41.21H4.12V37.09H28.84V33h8.25V24.72h4.12V16.48h4.12V8.24h4.12V4.12h4.12V0H74.69V4.12h4.12V8.24h4.12v8.24h4.12v8.24h4.12V33h8.24v4.13h24.73v4.12h4.12V66.45h-4.12v4.12H120v4.12H115.9v4.12h-4.12v4.12h-4.12v7.72h4.12v33.49h-4.12ZM87.05,103h3.61V95.29H86.53V70.05h4.13V65.93h4.12V61.81H98.9V57.69H103v-3.6H82.41V50H74.17V41.72H70.05V33.48H65.93V25.24h-3.6v8.24H58.21v8.24H54.09V50H45.84v4.13H25.24v3.6h4.12v4.12h4.12v4.12H37.6v4.12h4.12V95.29H37.6V103h3.61V98.9h8.24V94.77H78.81V98.9h8.24Z" fill="#fff"/><g id="Star-2" data-name="Star"><rect x="115.64" y="53.83" width="4.12" height="4.12" fill="#1b0003"/><rect x="115.64" y="49.71" width="4.12" height="4.12" fill="#1b0003"/><rect x="111.52" y="57.95" width="4.12" height="4.12" fill="#1b0003"/><rect x="111.52" y="53.83" width="4.12" height="4.12" fill="#ea942d"/><rect x="111.52" y="49.71" width="4.12" height="4.12" fill="#ea942d"/><rect x="111.52" y="45.59" width="4.12" height="4.12" fill="#1b0003"/><rect x="107.4" y="62.07" width="4.12" height="4.12" fill="#1b0003"/><rect x="107.4" y="57.95" width="4.12" height="4.12" fill="#ea942d"/><rect x="107.4" y="53.83" width="4.12" height="4.12" fill="#ea942d"/><rect x="107.4" y="49.71" width="4.12" height="4.12" fill="#ea942d"/><rect x="107.4" y="45.59" width="4.12" height="4.12" fill="#1b0003"/><rect x="103.28" y="66.19" width="4.12" height="4.12" fill="#1b0003"/><rect x="103.28" y="62.07" width="4.12" height="4.12" fill="#ea942d"/><rect x="103.28" y="57.95" width="4.12" height="4.12" fill="#ea942d"/><rect x="103.28" y="53.83" width="4.12" height="4.12" fill="#ea942d"/><rect x="103.28" y="49.71" width="4.12" height="4.12" fill="#ea942d"/><rect x="103.28" y="45.59" width="4.12" height="4.12" fill="#1b0003"/><rect x="99.16" y="111.52" width="4.12" height="4.12" fill="#1b0003"/><rect x="99.16" y="107.4" width="4.12" height="4.12" fill="#1b0003"/><rect x="99.16" y="103.28" width="4.12" height="4.12" fill="#1b0003"/><rect x="99.16" y="99.15" width="4.12" height="4.12" fill="#1b0003"/><rect x="99.16" y="70.31" width="4.12" height="4.12" fill="#1b0003"/><rect x="99.16" y="66.19" width="4.12" height="4.12" fill="#ea942d"/><rect x="99.16" y="62.07" width="4.12" height="4.12" fill="#ea942d"/><rect x="99.16" y="57.95" width="4.12" height="4.12" fill="#ea942d"/><rect x="99.16" y="53.83" width="4.12" height="4.12" fill="#ea942d"/><rect x="99.16" y="49.71" width="4.12" height="4.12" fill="#ea942d"/><rect x="99.16" y="45.59" width="4.12" height="4.12" fill="#1b0003"/><rect x="95.03" y="115.64" width="4.12" height="4.12" fill="#1b0003"/><rect x="95.03" y="111.52" width="4.12" height="4.12" fill="#f7c45e"/><rect x="95.03" y="107.4" width="4.12" height="4.12" fill="#f7c45e"/><rect x="95.03" y="103.28" width="4.12" height="4.12" fill="#f7c45e"/><rect x="95.03" y="99.15" width="4.12" height="4.12" fill="#f7c45e"/><rect x="95.03" y="95.03" width="4.12" height="4.12" fill="#1b0003"/><rect x="95.03" y="90.91" width="4.12" height="4.12" fill="#1b0003"/><rect x="95.03" y="86.79" width="4.12" height="4.12" fill="#1b0003"/><rect x="95.03" y="74.43" width="4.12" height="4.12" fill="#1b0003"/><rect x="95.03" y="70.31" width="4.12" height="4.12" fill="#db6d12"/><rect x="95.03" y="66.19" width="4.12" height="4.12" fill="#ea942d"/><rect x="95.03" y="62.07" width="4.12" height="4.12" fill="#ea942d"/><rect x="95.03" y="57.95" width="4.12" height="4.12" fill="#db6d12"/><rect x="95.03" y="53.83" width="4.12" height="4.12" fill="#ea942d"/><rect x="95.03" y="49.71" width="4.12" height="4.12" fill="#ea942d"/><rect x="95.03" y="45.59" width="4.12" height="4.12" fill="#1b0003"/><rect x="90.91" y="115.64" width="4.12" height="4.12" fill="#1b0003"/><rect x="90.91" y="111.52" width="4.12" height="4.12" fill="#ea942d"/><rect x="90.91" y="107.4" width="4.12" height="4.12" fill="#db6d12"/><rect x="90.91" y="103.28" width="4.12" height="4.12" fill="#f7c45e"/><rect x="90.91" y="99.15" width="4.12" height="4.12" fill="#f7c45e"/><rect x="90.91" y="95.03" width="4.12" height="4.12" fill="#f7c45e"/><rect x="90.91" y="90.91" width="4.12" height="4.12" fill="#f7c45e"/><rect x="90.91" y="86.79" width="4.12" height="4.12" fill="#f7c45e"/><rect x="90.91" y="82.67" width="4.12" height="4.12" fill="#1b0003"/><rect x="90.91" y="78.55" width="4.12" height="4.12" fill="#1b0003"/><rect x="90.91" y="74.43" width="4.12" height="4.12" fill="#db6d12"/><rect x="90.91" y="70.31" width="4.12" height="4.12" fill="#ea942d"/><rect x="90.91" y="66.19" width="4.12" height="4.12" fill="#ea942d"/><rect x="90.91" y="62.07" width="4.12" height="4.12" fill="#db6d12"/><rect x="90.91" y="57.95" width="4.12" height="4.12" fill="#f7c45e"/><rect x="90.91" y="53.83" width="4.12" height="4.12" fill="#db6d12"/><rect x="90.91" y="49.71" width="4.12" height="4.12" fill="#ea942d"/><rect x="90.91" y="45.59" width="4.12" height="4.12" fill="#1b0003"/><rect x="86.79" y="111.52" width="4.12" height="4.12" fill="#1b0003"/><rect x="86.79" y="107.4" width="4.12" height="4.12" fill="#ea942d"/><rect x="86.79" y="103.28" width="4.12" height="4.12" fill="#ea942d"/><rect x="86.79" y="99.15" width="4.12" height="4.12" fill="#ea942d"/><rect x="86.79" y="95.03" width="4.12" height="4.12" fill="#db6d12"/><rect x="86.79" y="90.91" width="4.12" height="4.12" fill="#f7c45e"/><rect x="86.79" y="86.79" width="4.12" height="4.12" fill="#f7c45e"/><rect x="86.79" y="82.67" width="4.12" height="4.12" fill="#f7c45e"/><rect x="86.79" y="78.55" width="4.12" height="4.12" fill="#ea942d"/><rect x="86.79" y="74.43" width="4.12" height="4.12" fill="#ea942d"/><rect x="86.79" y="70.31" width="4.12" height="4.12" fill="#ea942d"/><rect x="86.79" y="66.19" width="4.12" height="4.12" fill="#db6d12"/><rect x="86.79" y="62.07" width="4.12" height="4.12" fill="#f7c45e"/><rect x="86.79" y="57.95" width="4.12" height="4.12" fill="#f7c45e"/><rect x="86.79" y="53.83" width="4.12" height="4.12" fill="#db6d12"/><rect x="86.79" y="49.71" width="4.12" height="4.12" fill="#ea942d"/><rect x="86.79" y="45.59" width="4.12" height="4.12" fill="#ea942d"/><rect x="86.79" y="41.46" width="4.12" height="4.12" fill="#1b0003"/><rect x="82.67" y="111.52" width="4.12" height="4.12" fill="#1b0003"/><rect x="82.67" y="107.4" width="4.12" height="4.12" fill="#ea942d"/><rect x="82.67" y="103.28" width="4.12" height="4.12" fill="#ea942d"/><rect x="82.67" y="99.15" width="4.12" height="4.12" fill="#ea942d"/><rect x="82.67" y="95.03" width="4.12" height="4.12" fill="#ea942d"/><rect x="82.67" y="90.91" width="4.12" height="4.12" fill="#ea942d"/><rect x="82.67" y="86.79" width="4.12" height="4.12" fill="#ea942d"/><rect x="82.67" y="82.67" width="4.12" height="4.12" fill="#ea942d"/><rect x="82.67" y="78.55" width="4.12" height="4.12" fill="#ea942d"/><rect x="82.67" y="74.43" width="4.12" height="4.12" fill="#ea942d"/><rect x="82.67" y="70.31" width="4.12" height="4.12" fill="#db6d12"/><rect x="82.67" y="66.19" width="4.12" height="4.12" fill="#f7c45e"/><rect x="82.67" y="62.07" width="4.12" height="4.12" fill="#f7c45e"/><rect x="82.67" y="57.95" width="4.12" height="4.12" fill="#f7c45e"/><rect x="82.67" y="53.83" width="4.12" height="4.12" fill="#db6d12"/><rect x="82.67" y="49.71" width="4.12" height="4.12" fill="#ea942d"/><rect x="82.67" y="45.59" width="4.12" height="4.12" fill="#ea942d"/><rect x="82.67" y="41.46" width="4.12" height="4.12" fill="#1b0003"/><rect x="78.55" y="107.4" width="4.12" height="4.12" fill="#1b0003"/><rect x="78.55" y="103.28" width="4.12" height="4.12" fill="#ea942d"/><rect x="78.55" y="99.15" width="4.12" height="4.12" fill="#ea942d"/><rect x="78.55" y="95.03" width="4.12" height="4.12" fill="#ea942d"/><rect x="78.55" y="90.91" width="4.12" height="4.12" fill="#ea942d"/><rect x="78.55" y="86.79" width="4.12" height="4.12" fill="#ea942d"/><rect x="78.55" y="82.67" width="4.12" height="4.12" fill="#ea942d"/><rect x="78.55" y="78.55" width="4.12" height="4.12" fill="#ea942d"/><rect x="78.55" y="74.43" width="4.12" height="4.12" fill="#ea942d"/><rect x="78.55" y="70.31" width="4.12" height="4.12" fill="#db6d12"/><rect x="78.55" y="66.19" width="4.12" height="4.12" fill="#f7c45e"/><rect x="78.55" y="62.07" width="4.12" height="4.12" fill="#f7c45e"/><rect x="78.55" y="57.95" width="4.12" height="4.12" fill="#f7c45e"/><rect x="78.55" y="53.83" width="4.12" height="4.12" fill="#db6d12"/><rect x="78.55" y="49.71" width="4.12" height="4.12" fill="#ea942d"/><rect x="78.55" y="45.59" width="4.12" height="4.12" fill="#ea942d"/><rect x="78.55" y="41.46" width="4.12" height="4.12" fill="#ea942d"/><rect x="78.55" y="37.34" width="4.12" height="4.12" fill="#1b0003"/><rect x="78.55" y="33.22" width="4.12" height="4.12" fill="#1b0003"/><rect x="74.43" y="103.28" width="4.12" height="4.12" fill="#1b0003"/><rect x="74.43" y="99.15" width="4.12" height="4.12" fill="#ea942d"/><rect x="74.43" y="95.03" width="4.12" height="4.12" fill="#ea942d"/><rect x="74.43" y="90.91" width="4.12" height="4.12" fill="#ea942d"/><rect x="74.43" y="86.79" width="4.12" height="4.12" fill="#ea942d"/><rect x="74.43" y="82.67" width="4.12" height="4.12" fill="#ea942d"/><rect x="74.43" y="78.55" width="4.12" height="4.12" fill="#ea942d"/><rect x="74.43" y="74.43" width="4.12" height="4.12" fill="#db6d12"/><rect x="74.43" y="70.31" width="4.12" height="4.12" fill="#f7c45e"/><rect x="74.43" y="66.19" width="4.12" height="4.12" fill="#f7c45e"/><rect x="74.43" y="62.07" width="4.12" height="4.12" fill="#f7c45e"/><rect x="74.43" y="57.95" width="4.12" height="4.12" fill="#f7c45e"/><rect x="74.43" y="53.83" width="4.12" height="4.12" fill="#f7c45e"/><rect x="74.43" y="49.71" width="4.12" height="4.12" fill="#db6d12"/><rect x="74.43" y="45.59" width="4.12" height="4.12" fill="#ea942d"/><rect x="74.43" y="41.46" width="4.12" height="4.12" fill="#ea942d"/><rect x="74.43" y="37.34" width="4.12" height="4.12" fill="#ea942d"/><rect x="74.43" y="33.22" width="4.12" height="4.12" fill="#ea942d"/><rect x="74.43" y="29.1" width="4.12" height="4.12" fill="#1b0003"/><rect x="74.43" y="24.98" width="4.12" height="4.12" fill="#1b0003"/><rect x="70.31" y="103.28" width="4.12" height="4.12" fill="#1b0003"/><rect x="70.31" y="99.15" width="4.12" height="4.12" fill="#ea942d"/><rect x="70.31" y="95.03" width="4.12" height="4.12" fill="#ea942d"/><rect x="70.31" y="90.91" width="4.12" height="4.12" fill="#ea942d"/><rect x="70.31" y="86.79" width="4.12" height="4.12" fill="#ea942d"/><rect x="70.31" y="82.67" width="4.12" height="4.12" fill="#ea942d"/><rect x="70.31" y="78.55" width="4.12" height="4.12" fill="#db6d12"/><rect x="70.31" y="74.43" width="4.12" height="4.12" fill="#f7c45e"/><rect x="70.31" y="70.31" width="4.12" height="4.12" fill="#f7c45e"/><rect x="70.31" y="66.19" width="4.12" height="4.12" fill="#f7c45e"/><rect x="70.31" y="62.07" width="4.12" height="4.12" fill="#f7c45e"/><rect x="70.31" y="57.95" width="4.12" height="4.12" fill="#f7c45e"/><rect x="70.31" y="53.83" width="4.12" height="4.12" fill="#f7c45e"/><rect x="70.31" y="49.71" width="4.12" height="4.12" fill="#f7c45e"/><rect x="70.31" y="45.59" width="4.12" height="4.12" fill="#db6d12"/><rect x="70.31" y="41.46" width="4.12" height="4.12" fill="#db6d12"/><rect x="70.31" y="37.34" width="4.12" height="4.12" fill="#ea942d"/><rect x="70.31" y="33.22" width="4.12" height="4.12" fill="#ea942d"/><rect x="70.31" y="29.1" width="4.12" height="4.12" fill="#ea942d"/><rect x="70.31" y="24.98" width="4.12" height="4.12" fill="#ea942d"/><rect x="70.31" y="20.86" width="4.12" height="4.12" fill="#1b0003"/><rect x="70.31" y="16.74" width="4.12" height="4.12" fill="#1b0003"/><rect x="66.19" y="99.15" width="4.12" height="4.12" fill="#1b0003"/><rect x="66.19" y="95.03" width="4.12" height="4.12" fill="#ea942d"/><rect x="66.19" y="90.91" width="4.12" height="4.12" fill="#ea942d"/><rect x="66.19" y="86.79" width="4.12" height="4.12" fill="#ea942d"/><rect x="66.19" y="82.67" width="4.12" height="4.12" fill="#db6d12"/><rect x="66.19" y="78.55" width="4.12" height="4.12" fill="#f7c45e"/><rect x="66.19" y="74.43" width="4.12" height="4.12" fill="#f7c45e"/><rect x="66.19" y="70.31" width="4.12" height="4.12" fill="#f7c45e"/><rect x="66.19" y="66.19" width="4.12" height="4.12" fill="#f7c45e"/><rect x="66.19" y="62.07" width="4.12" height="4.12" fill="#f7c45e"/><rect x="66.19" y="57.95" width="4.12" height="4.12" fill="#f7c45e"/><rect x="66.19" y="53.83" width="4.12" height="4.12" fill="#f7c45e"/><rect x="66.19" y="49.71" width="4.12" height="4.12" fill="#f7c45e"/><rect x="66.19" y="45.59" width="4.12" height="4.12" fill="#f7c45e"/><rect x="66.19" y="41.46" width="4.12" height="4.12" fill="#f7c45e"/><rect x="66.19" y="37.34" width="4.12" height="4.12" fill="#db6d12"/><rect x="66.19" y="33.22" width="4.12" height="4.12" fill="#db6d12"/><rect x="66.19" y="29.1" width="4.12" height="4.12" fill="#db6d12"/><rect x="66.19" y="24.98" width="4.12" height="4.12" fill="#ea942d"/><rect x="66.19" y="20.86" width="4.12" height="4.12" fill="#ea942d"/><rect x="66.19" y="16.74" width="4.12" height="4.12" fill="#ea942d"/><rect x="66.19" y="12.62" width="4.12" height="4.12" fill="#1b0003"/><rect x="62.07" y="99.15" width="4.12" height="4.12" fill="#1b0003"/><rect x="62.07" y="95.03" width="4.12" height="4.12" fill="#ea942d"/><rect x="62.07" y="90.91" width="4.12" height="4.12" fill="#ea942d"/><rect x="62.07" y="86.79" width="4.12" height="4.12" fill="#ea942d"/><rect x="62.07" y="82.67" width="4.12" height="4.12" fill="#db6d12"/><rect x="62.07" y="78.55" width="4.12" height="4.12" fill="#f7c45e"/><rect x="62.07" y="74.43" width="4.12" height="4.12" fill="#f7c45e"/><rect x="62.07" y="70.31" width="4.12" height="4.12" fill="#f7c45e"/><rect x="62.07" y="66.19" width="4.12" height="4.12" fill="#f7c45e"/><rect x="62.07" y="62.07" width="4.12" height="4.12" fill="#f7c45e"/><rect x="62.07" y="57.95" width="4.12" height="4.12" fill="#f7c45e"/><rect x="62.07" y="53.83" width="4.12" height="4.12" fill="#f7c45e"/><rect x="62.07" y="49.71" width="4.12" height="4.12" fill="#f7c45e"/><rect x="62.07" y="45.59" width="4.12" height="4.12" fill="#f7c45e"/><rect x="62.07" y="41.46" width="4.12" height="4.12" fill="#f7c45e"/><rect x="62.07" y="37.34" width="4.12" height="4.12" fill="#f7c45e"/><rect x="62.07" y="33.22" width="4.12" height="4.12" fill="#f7c45e"/><rect x="62.07" y="29.1" width="4.12" height="4.12" fill="#f7c45e"/><rect x="62.07" y="24.98" width="4.12" height="4.12" fill="#db6d12"/><rect x="62.07" y="20.86" width="4.12" height="4.12" fill="#ea942d"/><rect x="62.07" y="16.74" width="4.12" height="4.12" fill="#ea942d"/><rect x="62.07" y="12.62" width="4.12" height="4.12" fill="#ea942d"/><rect x="62.07" y="8.5" width="4.12" height="4.12" fill="#1b0003"/><rect x="57.95" y="99.15" width="4.12" height="4.12" fill="#1b0003"/><rect x="57.95" y="95.03" width="4.12" height="4.12" fill="#ea942d"/><rect x="57.95" y="90.91" width="4.12" height="4.12" fill="#ea942d"/><rect x="57.95" y="86.79" width="4.12" height="4.12" fill="#db6d12"/><rect x="57.95" y="82.67" width="4.12" height="4.12" fill="#f7c45e"/><rect x="57.95" y="78.55" width="4.12" height="4.12" fill="#f7c45e"/><rect x="57.95" y="74.43" width="4.12" height="4.12" fill="#f7c45e"/><rect x="57.95" y="70.31" width="4.12" height="4.12" fill="#f7c45e"/><rect x="57.95" y="66.19" width="4.12" height="4.12" fill="#f7c45e"/><rect x="57.95" y="62.07" width="4.12" height="4.12" fill="#f7c45e"/><rect x="57.95" y="57.95" width="4.12" height="4.12" fill="#f7c45e"/><rect x="57.95" y="53.83" width="4.12" height="4.12" fill="#f7c45e"/><rect x="57.95" y="49.71" width="4.12" height="4.12" fill="#f7c45e"/><rect x="57.95" y="45.59" width="4.12" height="4.12" fill="#f7c45e"/><rect x="57.95" y="41.46" width="4.12" height="4.12" fill="#f7c45e"/><rect x="57.95" y="37.34" width="4.12" height="4.12" fill="#f7c45e"/><rect x="57.95" y="33.22" width="4.12" height="4.12" fill="#f7c45e"/><rect x="57.95" y="29.1" width="4.12" height="4.12" fill="#f9f2d4"/><rect x="57.95" y="24.98" width="4.12" height="4.12" fill="#f9f2d4"/><rect x="57.95" y="20.86" width="4.12" height="4.12" fill="#db6d12"/><rect x="57.95" y="16.74" width="4.12" height="4.12" fill="#db6d12"/><rect x="57.95" y="12.62" width="4.12" height="4.12" fill="#1b0003"/><rect x="53.83" y="103.28" width="4.12" height="4.12" fill="#1b0003"/><rect x="53.83" y="99.15" width="4.12" height="4.12" fill="#ea942d"/><rect x="53.83" y="95.03" width="4.12" height="4.12" fill="#ea942d"/><rect x="53.83" y="90.91" width="4.12" height="4.12" fill="#db6d12"/><rect x="53.83" y="86.79" width="4.12" height="4.12" fill="#f7c45e"/><rect x="53.83" y="82.67" width="4.12" height="4.12" fill="#f7c45e"/><rect x="53.83" y="78.55" width="4.12" height="4.12" fill="#f7c45e"/><rect x="53.83" y="74.43" width="4.12" height="4.12" fill="#f7c45e"/><rect x="53.83" y="70.31" width="4.12" height="4.12" fill="#f7c45e"/><rect x="53.83" y="66.19" width="4.12" height="4.12" fill="#f7c45e"/><rect x="53.83" y="62.07" width="4.12" height="4.12" fill="#f7c45e"/><rect x="53.83" y="57.95" width="4.12" height="4.12" fill="#f9f2d4"/><rect x="53.83" y="53.83" width="4.12" height="4.12" fill="#f7c45e"/><rect x="53.83" y="49.71" width="4.12" height="4.12" fill="#f7c45e"/><rect x="53.83" y="45.59" width="4.12" height="4.12" fill="#f7c45e"/><rect x="53.83" y="41.46" width="4.12" height="4.12" fill="#f7c45e"/><rect x="53.83" y="37.34" width="4.12" height="4.12" fill="#f7c45e"/><rect x="53.83" y="33.22" width="4.12" height="4.12" fill="#f9f2d4"/><rect x="53.83" y="29.1" width="4.12" height="4.12" fill="#f9f2d4"/><rect x="53.83" y="24.98" width="4.12" height="4.12" fill="#f9f2d4"/><rect x="53.83" y="20.86" width="4.12" height="4.12" fill="#1b0003"/><rect x="53.83" y="16.74" width="4.12" height="4.12" fill="#1b0003"/><rect x="49.71" y="103.28" width="4.12" height="4.12" fill="#1b0003"/><rect x="49.71" y="99.15" width="4.12" height="4.12" fill="#ea942d"/><rect x="49.71" y="95.03" width="4.12" height="4.12" fill="#ea942d"/><rect x="49.71" y="90.91" width="4.12" height="4.12" fill="#db6d12"/><rect x="49.71" y="86.79" width="4.12" height="4.12" fill="#f7c45e"/><rect x="49.71" y="82.67" width="4.12" height="4.12" fill="#f7c45e"/><rect x="49.71" y="78.55" width="4.12" height="4.12" fill="#f7c45e"/><rect x="49.71" y="74.43" width="4.12" height="4.12" fill="#f7c45e"/><rect x="49.71" y="70.31" width="4.12" height="4.12" fill="#f7c45e"/><rect x="49.71" y="66.19" width="4.12" height="4.12" fill="#f7c45e"/><rect x="49.71" y="62.07" width="4.12" height="4.12" fill="#f7c45e"/><rect x="49.71" y="57.95" width="4.12" height="4.12" fill="#f7c45e"/><rect x="49.71" y="53.83" width="4.12" height="4.12" fill="#f7c45e"/><rect x="49.71" y="49.71" width="4.12" height="4.12" fill="#f7c45e"/><rect x="49.71" y="45.59" width="4.12" height="4.12" fill="#f7c45e"/><rect x="49.71" y="41.46" width="4.12" height="4.12" fill="#f9f2d4"/><rect x="49.71" y="37.34" width="4.12" height="4.12" fill="#f9f2d4"/><rect x="49.71" y="33.22" width="4.12" height="4.12" fill="#f9f2d4"/><rect x="49.71" y="29.1" width="4.12" height="4.12" fill="#1b0003"/><rect x="49.71" y="24.98" width="4.12" height="4.12" fill="#1b0003"/><rect x="45.59" y="107.4" width="4.12" height="4.12" fill="#1b0003"/><rect x="45.59" y="103.28" width="4.12" height="4.12" fill="#ea942d"/><rect x="45.59" y="99.15" width="4.12" height="4.12" fill="#ea942d"/><rect x="45.59" y="95.03" width="4.12" height="4.12" fill="#db6d12"/><rect x="45.59" y="90.91" width="4.12" height="4.12" fill="#f7c45e"/><rect x="45.59" y="86.79" width="4.12" height="4.12" fill="#f7c45e"/><rect x="45.59" y="82.67" width="4.12" height="4.12" fill="#f7c45e"/><rect x="45.59" y="78.55" width="4.12" height="4.12" fill="#f7c45e"/><rect x="45.59" y="74.43" width="4.12" height="4.12" fill="#f7c45e"/><rect x="45.59" y="70.31" width="4.12" height="4.12" fill="#f7c45e"/><rect x="45.59" y="66.19" width="4.12" height="4.12" fill="#f7c45e"/><rect x="45.59" y="62.07" width="4.12" height="4.12" fill="#f7c45e"/><rect x="45.59" y="57.95" width="4.12" height="4.12" fill="#f7c45e"/><rect x="45.59" y="53.83" width="4.12" height="4.12" fill="#f9f2d4"/><rect x="45.59" y="49.71" width="4.12" height="4.12" fill="#f9f2d4"/><rect x="45.59" y="45.59" width="4.12" height="4.12" fill="#f9f2d4"/><rect x="45.59" y="41.46" width="4.12" height="4.12" fill="#f9f2d4"/><rect x="45.59" y="37.34" width="4.12" height="4.12" fill="#1b0003"/><rect x="45.59" y="33.22" width="4.12" height="4.12" fill="#1b0003"/><rect x="41.47" y="111.52" width="4.12" height="4.12" fill="#1b0003"/><rect x="41.47" y="107.4" width="4.12" height="4.12" fill="#ea942d"/><rect x="41.47" y="103.28" width="4.12" height="4.12" fill="#ea942d"/><rect x="41.47" y="99.15" width="4.12" height="4.12" fill="#db6d12"/><rect x="41.47" y="95.03" width="4.12" height="4.12" fill="#f7c45e"/><rect x="41.47" y="90.91" width="4.12" height="4.12" fill="#f7c45e"/><rect x="41.47" y="86.79" width="4.12" height="4.12" fill="#f7c45e"/><rect x="41.47" y="82.67" width="4.12" height="4.12" fill="#f7c45e"/><rect x="41.47" y="78.55" width="4.12" height="4.12" fill="#f7c45e"/><rect x="41.47" y="74.43" width="4.12" height="4.12" fill="#f7c45e"/><rect x="41.47" y="70.31" width="4.12" height="4.12" fill="#f7c45e"/><rect x="41.47" y="66.19" width="4.12" height="4.12" fill="#f7c45e"/><rect x="41.47" y="62.07" width="4.12" height="4.12" fill="#f7c45e"/><rect x="41.47" y="57.95" width="4.12" height="4.12" fill="#f7c45e"/><rect x="41.47" y="53.83" width="4.12" height="4.12" fill="#f7c45e"/><rect x="41.47" y="49.71" width="4.12" height="4.12" fill="#f9f2d4"/><rect x="41.47" y="45.59" width="4.12" height="4.12" fill="#f9f2d4"/><rect x="41.47" y="41.46" width="4.12" height="4.12" fill="#1b0003"/><rect x="37.34" y="111.52" width="4.12" height="4.12" fill="#1b0003"/><rect x="37.34" y="107.4" width="4.12" height="4.12" fill="#db6d12"/><rect x="37.34" y="103.28" width="4.12" height="4.12" fill="#db6d12"/><rect x="37.34" y="99.15" width="4.12" height="4.12" fill="#f7c45e"/><rect x="37.34" y="95.03" width="4.12" height="4.12" fill="#f7c45e"/><rect x="37.34" y="90.91" width="4.12" height="4.12" fill="#f7c45e"/><rect x="37.34" y="86.79" width="4.12" height="4.12" fill="#f7c45e"/><rect x="37.34" y="82.67" width="4.12" height="4.12" fill="#f7c45e"/><rect x="37.34" y="78.55" width="4.12" height="4.12" fill="#f7c45e"/><rect x="37.34" y="74.43" width="4.12" height="4.12" fill="#f7c45e"/><rect x="37.34" y="70.31" width="4.12" height="4.12" fill="#f7c45e"/><rect x="37.34" y="66.19" width="4.12" height="4.12" fill="#f7c45e"/><rect x="37.34" y="62.07" width="4.12" height="4.12" fill="#f7c45e"/><rect x="37.34" y="57.95" width="4.12" height="4.12" fill="#f7c45e"/><rect x="37.34" y="53.83" width="4.12" height="4.12" fill="#f9f2d4"/><rect x="37.34" y="49.71" width="4.12" height="4.12" fill="#f9f2d4"/><rect x="37.34" y="45.59" width="4.12" height="4.12" fill="#f9f2d4"/><rect x="37.34" y="41.46" width="4.12" height="4.12" fill="#1b0003"/><rect x="33.22" y="115.64" width="4.12" height="4.12" fill="#1b0003"/><rect x="33.22" y="111.52" width="4.12" height="4.12" fill="#f7c45e"/><rect x="33.22" y="107.4" width="4.12" height="4.12" fill="#f7c45e"/><rect x="33.22" y="103.28" width="4.12" height="4.12" fill="#f7c45e"/><rect x="33.22" y="99.15" width="4.12" height="4.12" fill="#f7c45e"/><rect x="33.22" y="95.03" width="4.12" height="4.12" fill="#f7c45e"/><rect x="33.22" y="90.91" width="4.12" height="4.12" fill="#f7c45e"/><rect x="33.22" y="86.79" width="4.12" height="4.12" fill="#f7c45e"/><rect x="33.22" y="82.67" width="4.12" height="4.12" fill="#1b0003"/><rect x="33.22" y="78.55" width="4.12" height="4.12" fill="#1b0003"/><rect x="33.22" y="74.43" width="4.12" height="4.12" fill="#f7c45e"/><rect x="33.22" y="70.31" width="4.12" height="4.12" fill="#f7c45e"/><rect x="33.22" y="66.19" width="4.12" height="4.12" fill="#f7c45e"/><rect x="33.22" y="62.07" width="4.12" height="4.12" fill="#f7c45e"/><rect x="33.22" y="57.95" width="4.12" height="4.12" fill="#f7c45e"/><rect x="33.22" y="53.83" width="4.12" height="4.12" fill="#f9f2d4"/><rect x="33.22" y="49.71" width="4.12" height="4.12" fill="#f9f2d4"/><rect x="33.22" y="45.59" width="4.12" height="4.12" fill="#1b0003"/><rect x="29.1" y="115.64" width="4.12" height="4.12" fill="#1b0003"/><rect x="29.1" y="111.52" width="4.12" height="4.12" fill="#f7c45e"/><rect x="29.1" y="107.4" width="4.12" height="4.12" fill="#f7c45e"/><rect x="29.1" y="103.28" width="4.12" height="4.12" fill="#f7c45e"/><rect x="29.1" y="99.15" width="4.12" height="4.12" fill="#f7c45e"/><rect x="29.1" y="95.03" width="4.12" height="4.12" fill="#1b0003"/><rect x="29.1" y="90.91" width="4.12" height="4.12" fill="#1b0003"/><rect x="29.1" y="86.79" width="4.12" height="4.12" fill="#1b0003"/><rect x="29.1" y="74.43" width="4.12" height="4.12" fill="#1b0003"/><rect x="29.1" y="70.31" width="4.12" height="4.12" fill="#f7c45e"/><rect x="29.1" y="66.19" width="4.12" height="4.12" fill="#f7c45e"/><rect x="29.1" y="62.07" width="4.12" height="4.12" fill="#f7c45e"/><rect x="29.1" y="57.95" width="4.12" height="4.12" fill="#f7c45e"/><rect x="29.1" y="53.83" width="4.12" height="4.12" fill="#f9f2d4"/><rect x="29.1" y="49.71" width="4.12" height="4.12" fill="#f9f2d4"/><rect x="29.1" y="45.59" width="4.12" height="4.12" fill="#1b0003"/><rect x="24.98" y="111.52" width="4.12" height="4.12" fill="#1b0003"/><rect x="24.98" y="107.4" width="4.12" height="4.12" fill="#1b0003"/><rect x="24.98" y="103.28" width="4.12" height="4.12" fill="#1b0003"/><rect x="24.98" y="99.15" width="4.12" height="4.12" fill="#1b0003"/><rect x="24.98" y="70.31" width="4.12" height="4.12" fill="#1b0003"/><rect x="24.98" y="66.19" width="4.12" height="4.12" fill="#f7c45e"/><rect x="24.98" y="62.07" width="4.12" height="4.12" fill="#f7c45e"/><rect x="24.98" y="57.95" width="4.12" height="4.12" fill="#f7c45e"/><rect x="24.98" y="53.83" width="4.12" height="4.12" fill="#f9f2d4"/><rect x="24.98" y="49.71" width="4.12" height="4.12" fill="#f9f2d4"/><rect x="24.98" y="45.59" width="4.12" height="4.12" fill="#1b0003"/><rect x="20.86" y="66.19" width="4.12" height="4.12" fill="#1b0003"/><rect x="20.86" y="62.07" width="4.12" height="4.12" fill="#f7c45e"/><rect x="20.86" y="57.95" width="4.12" height="4.12" fill="#f7c45e"/><rect x="20.86" y="53.83" width="4.12" height="4.12" fill="#f9f2d4"/><rect x="20.86" y="49.71" width="4.12" height="4.12" fill="#f9f2d4"/><rect x="20.86" y="45.59" width="4.12" height="4.12" fill="#1b0003"/><rect x="16.74" y="62.07" width="4.12" height="4.12" fill="#1b0003"/><rect x="16.74" y="57.95" width="4.12" height="4.12" fill="#f7c45e"/><rect x="16.74" y="53.83" width="4.12" height="4.12" fill="#f9f2d4"/><rect x="16.74" y="49.71" width="4.12" height="4.12" fill="#f9f2d4"/><rect x="16.74" y="45.59" width="4.12" height="4.12" fill="#1b0003"/><rect x="12.62" y="57.95" width="4.12" height="4.12" fill="#1b0003"/><rect x="12.62" y="53.83" width="4.12" height="4.12" fill="#f9f2d4"/><rect x="12.62" y="49.71" width="4.12" height="4.12" fill="#f9f2d4"/><rect x="12.62" y="45.59" width="4.12" height="4.12" fill="#1b0003"/><rect x="8.5" y="53.83" width="4.12" height="4.12" fill="#1b0003"/><rect x="8.5" y="49.71" width="4.12" height="4.12" fill="#1b0003"/></g></g></g></g></svg>