<svg xmlns="http://www.w3.org/2000/svg" width="155.15" height="155.15" viewBox="0 0 155.15 155.15"><g id="Layer_2" data-name="Layer 2"><g id="items"><g id="Sword"><path d="M38.25,155.15H5.31v-5.31H0V116.9H5.31v-5.32H15.94v-5.31h5.31V101h5.32V91.39H21.25V53.13H48.88v5.32h4.25V53.13h5.32V47.82h5.31V42.51h5.31V37.19h5.32V31.88H79.7V26.57H85V21.25h5.31V15.94h5.31V10.63H101V5.31h5.31V0h48.88V48.88h-5.31v5.31h-5.32v5.32h-5.31v5.31H133.9v5.31h-5.32v5.32h-5.31v5.31H118v5.32h-5.32v5.31h-5.31V96.7H102V102H96.7v4.25H102V133.9H63.76v-5.32H54.19v5.32H48.88v5.31H43.57v10.63H38.25ZM22.31,132.84h4.26v-4.26H22.31Zm47.82-26.57h4.26V90.33H79.7V85H85V79.7h5.31V74.39h5.31V69.08H101V63.76h5.31V58.45h5.31V53.13h5.32V47.82h5.31V42.51h5.31V37.19h5.32V31.88h5.31V17H123.27v5.31H118v5.32h-5.32v5.31h-5.31v5.31H102v5.32H96.7v5.31H91.39v5.31H86.07v5.32H80.76v5.31H75.45v5.31H70.13v5.32H64.82v5.31H48.88V85h5.31V101H70.13Z" fill="#fff"/><g id="Sword-2" data-name="Sword"><rect x="141.34" y="35.07" width="5.31" height="5.31" fill="#1b0003"/><rect x="141.34" y="29.75" width="5.31" height="5.31" fill="#1b0003"/><rect x="141.34" y="24.44" width="5.31" height="5.31" fill="#1b0003"/><rect x="141.34" y="19.13" width="5.31" height="5.31" fill="#1b0003"/><rect x="141.34" y="13.81" width="5.31" height="5.31" fill="#1b0003"/><rect x="141.34" y="8.5" width="5.31" height="5.31" fill="#1b0003"/><rect x="136.02" y="40.38" width="5.31" height="5.31" fill="#1b0003"/><rect x="136.02" y="35.07" width="5.31" height="5.31" fill="#cfefff"/><rect x="136.02" y="29.75" width="5.31" height="5.31" fill="#cfefff"/><rect x="136.02" y="24.44" width="5.31" height="5.31" fill="#cfefff"/><rect x="136.02" y="19.13" width="5.31" height="5.31" fill="#cfefff"/><rect x="136.02" y="13.81" width="5.31" height="5.31" fill="#cfefff"/><rect x="136.02" y="8.5" width="5.31" height="5.31" fill="#1b0003"/><rect x="130.71" y="45.69" width="5.31" height="5.31" fill="#1b0003"/><rect x="130.71" y="40.38" width="5.31" height="5.31" fill="#97bcd6"/><rect x="130.71" y="35.07" width="5.31" height="5.31" fill="#85a1c9"/><rect x="130.71" y="29.75" width="5.31" height="5.31" fill="#85a1c9"/><rect x="130.71" y="24.44" width="5.31" height="5.31" fill="#85a1c9"/><rect x="130.71" y="19.13" width="5.31" height="5.31" fill="#6a87af"/><rect x="130.71" y="13.81" width="5.31" height="5.31" fill="#cfefff"/><rect x="130.71" y="8.5" width="5.31" height="5.31" fill="#1b0003"/><rect x="125.4" y="51.01" width="5.31" height="5.31" fill="#1b0003"/><rect x="125.4" y="45.69" width="5.31" height="5.31" fill="#97bcd6"/><rect x="125.4" y="40.38" width="5.31" height="5.31" fill="#85a1c9"/><rect x="125.4" y="35.07" width="5.31" height="5.31" fill="#85a1c9"/><rect x="125.4" y="29.75" width="5.31" height="5.31" fill="#85a1c9"/><rect x="125.4" y="24.44" width="5.31" height="5.31" fill="#6a87af"/><rect x="125.4" y="19.13" width="5.31" height="5.31" fill="#bedbed"/><rect x="125.4" y="13.81" width="5.31" height="5.31" fill="#cfefff"/><rect x="125.4" y="8.5" width="5.31" height="5.31" fill="#1b0003"/><rect x="120.08" y="56.32" width="5.31" height="5.31" fill="#1b0003"/><rect x="120.08" y="51.01" width="5.31" height="5.31" fill="#97bcd6"/><rect x="120.08" y="45.69" width="5.31" height="5.31" fill="#85a1c9"/><rect x="120.08" y="40.38" width="5.31" height="5.31" fill="#85a1c9"/><rect x="120.08" y="35.07" width="5.31" height="5.31" fill="#85a1c9"/><rect x="120.08" y="29.75" width="5.31" height="5.31" fill="#6a87af"/><rect x="120.08" y="24.44" width="5.31" height="5.31" fill="#97bcd6"/><rect x="120.08" y="19.13" width="5.31" height="5.31" fill="#bedbed"/><rect x="120.08" y="13.81" width="5.31" height="5.31" fill="#cfefff"/><rect x="120.08" y="8.5" width="5.31" height="5.31" fill="#1b0003"/><rect x="114.77" y="61.63" width="5.31" height="5.31" fill="#1b0003"/><rect x="114.77" y="56.32" width="5.31" height="5.31" fill="#97bcd6"/><rect x="114.77" y="51.01" width="5.31" height="5.31" fill="#85a1c9"/><rect x="114.77" y="45.69" width="5.31" height="5.31" fill="#85a1c9"/><rect x="114.77" y="40.38" width="5.31" height="5.31" fill="#85a1c9"/><rect x="114.77" y="35.07" width="5.31" height="5.31" fill="#85a1c9"/><rect x="114.77" y="29.75" width="5.31" height="5.31" fill="#97bcd6"/><rect x="114.77" y="24.44" width="5.31" height="5.31" fill="#97bcd6"/><rect x="114.77" y="19.13" width="5.31" height="5.31" fill="#bedbed"/><rect x="114.77" y="13.81" width="5.31" height="5.31" fill="#cfefff"/><rect x="114.77" y="8.5" width="5.31" height="5.31" fill="#1b0003"/><rect x="109.46" y="66.95" width="5.31" height="5.31" fill="#1b0003"/><rect x="109.46" y="61.63" width="5.31" height="5.31" fill="#97bcd6"/><rect x="109.46" y="56.32" width="5.31" height="5.31" fill="#85a1c9"/><rect x="109.46" y="51.01" width="5.31" height="5.31" fill="#85a1c9"/><rect x="109.46" y="45.69" width="5.31" height="5.31" fill="#85a1c9"/><rect x="109.46" y="40.38" width="5.31" height="5.31" fill="#6a87af"/><rect x="109.46" y="35.07" width="5.31" height="5.31" fill="#97bcd6"/><rect x="109.46" y="29.75" width="5.31" height="5.31" fill="#97bcd6"/><rect x="109.46" y="24.44" width="5.31" height="5.31" fill="#bedbed"/><rect x="109.46" y="19.13" width="5.31" height="5.31" fill="#cfefff"/><rect x="109.46" y="13.81" width="5.31" height="5.31" fill="#1b0003"/><rect x="104.14" y="72.26" width="5.31" height="5.31" fill="#1b0003"/><rect x="104.14" y="66.95" width="5.31" height="5.31" fill="#97bcd6"/><rect x="104.14" y="61.63" width="5.31" height="5.31" fill="#85a1c9"/><rect x="104.14" y="56.32" width="5.31" height="5.31" fill="#85a1c9"/><rect x="104.14" y="51.01" width="5.31" height="5.31" fill="#85a1c9"/><rect x="104.14" y="45.69" width="5.31" height="5.31" fill="#85a1c9"/><rect x="104.14" y="40.38" width="5.31" height="5.31" fill="#97bcd6"/><rect x="104.14" y="35.07" width="5.31" height="5.31" fill="#97bcd6"/><rect x="104.14" y="29.75" width="5.31" height="5.31" fill="#bedbed"/><rect x="104.14" y="24.44" width="5.31" height="5.31" fill="#cfefff"/><rect x="104.14" y="19.13" width="5.31" height="5.31" fill="#1b0003"/><rect x="98.83" y="77.58" width="5.31" height="5.31" fill="#1b0003"/><rect x="98.83" y="72.26" width="5.31" height="5.31" fill="#97bcd6"/><rect x="98.83" y="66.95" width="5.31" height="5.31" fill="#85a1c9"/><rect x="98.83" y="61.63" width="5.31" height="5.31" fill="#85a1c9"/><rect x="98.83" y="56.32" width="5.31" height="5.31" fill="#85a1c9"/><rect x="98.83" y="51.01" width="5.31" height="5.31" fill="#6a87af"/><rect x="98.83" y="45.69" width="5.31" height="5.31" fill="#97bcd6"/><rect x="98.83" y="40.38" width="5.31" height="5.31" fill="#97bcd6"/><rect x="98.83" y="35.07" width="5.31" height="5.31" fill="#bedbed"/><rect x="98.83" y="29.75" width="5.31" height="5.31" fill="#cfefff"/><rect x="98.83" y="24.44" width="5.31" height="5.31" fill="#1b0003"/><rect x="93.52" y="82.89" width="5.31" height="5.31" fill="#1b0003"/><rect x="93.52" y="77.58" width="5.31" height="5.31" fill="#97bcd6"/><rect x="93.52" y="72.26" width="5.31" height="5.31" fill="#85a1c9"/><rect x="93.52" y="66.95" width="5.31" height="5.31" fill="#85a1c9"/><rect x="93.52" y="61.63" width="5.31" height="5.31" fill="#85a1c9"/><rect x="93.52" y="56.32" width="5.31" height="5.31" fill="#6a87af"/><rect x="93.52" y="51.01" width="5.31" height="5.31" fill="#97bcd6"/><rect x="93.52" y="45.69" width="5.31" height="5.31" fill="#97bcd6"/><rect x="93.52" y="40.38" width="5.31" height="5.31" fill="#bedbed"/><rect x="93.52" y="35.07" width="5.31" height="5.31" fill="#cfefff"/><rect x="93.52" y="29.75" width="5.31" height="5.31" fill="#1b0003"/><rect x="88.2" y="120.08" width="5.31" height="5.31" fill="#1b0003"/><rect x="88.2" y="114.77" width="5.31" height="5.31" fill="#1b0003"/><rect x="88.2" y="88.2" width="5.31" height="5.31" fill="#1b0003"/><rect x="88.2" y="82.89" width="5.31" height="5.31" fill="#97bcd6"/><rect x="88.2" y="77.58" width="5.31" height="5.31" fill="#6a87af"/><rect x="88.2" y="72.26" width="5.31" height="5.31" fill="#85a1c9"/><rect x="88.2" y="66.95" width="5.31" height="5.31" fill="#85a1c9"/><rect x="88.2" y="61.63" width="5.31" height="5.31" fill="#6a87af"/><rect x="88.2" y="56.32" width="5.31" height="5.31" fill="#97bcd6"/><rect x="88.2" y="51.01" width="5.31" height="5.31" fill="#97bcd6"/><rect x="88.2" y="45.69" width="5.31" height="5.31" fill="#97bcd6"/><rect x="88.2" y="40.38" width="5.31" height="5.31" fill="#bedbed"/><rect x="88.2" y="35.07" width="5.31" height="5.31" fill="#1b0003"/><rect x="82.89" y="120.08" width="5.31" height="5.31" fill="#1b0003"/><rect x="82.89" y="114.77" width="5.31" height="5.31" fill="#222230"/><rect x="82.89" y="109.46" width="5.31" height="5.31" fill="#1b0003"/><rect x="82.89" y="93.52" width="5.31" height="5.31" fill="#1b0003"/><rect x="82.89" y="88.2" width="5.31" height="5.31" fill="#97bcd6"/><rect x="82.89" y="82.89" width="5.31" height="5.31" fill="#6a87af"/><rect x="82.89" y="77.58" width="5.31" height="5.31" fill="#85a1c9"/><rect x="82.89" y="72.26" width="5.31" height="5.31" fill="#6a87af"/><rect x="82.89" y="66.95" width="5.31" height="5.31" fill="#6a87af"/><rect x="82.89" y="61.63" width="5.31" height="5.31" fill="#97bcd6"/><rect x="82.89" y="56.32" width="5.31" height="5.31" fill="#97bcd6"/><rect x="82.89" y="51.01" width="5.31" height="5.31" fill="#97bcd6"/><rect x="82.89" y="45.69" width="5.31" height="5.31" fill="#bedbed"/><rect x="82.89" y="40.38" width="5.31" height="5.31" fill="#1b0003"/><rect x="77.57" y="120.08" width="5.31" height="5.31" fill="#1b0003"/><rect x="77.57" y="114.77" width="5.31" height="5.31" fill="#222230"/><rect x="77.57" y="109.46" width="5.31" height="5.31" fill="#222230"/><rect x="77.57" y="104.14" width="5.31" height="5.31" fill="#1b0003"/><rect x="77.57" y="98.83" width="5.31" height="5.31" fill="#1b0003"/><rect x="77.57" y="93.52" width="5.31" height="5.31" fill="#6a87af"/><rect x="77.57" y="88.2" width="5.31" height="5.31" fill="#6a87af"/><rect x="77.57" y="82.89" width="5.31" height="5.31" fill="#85a1c9"/><rect x="77.57" y="77.58" width="5.31" height="5.31" fill="#6a87af"/><rect x="77.57" y="72.26" width="5.31" height="5.31" fill="#6a87af"/><rect x="77.57" y="66.95" width="5.31" height="5.31" fill="#97bcd6"/><rect x="77.57" y="61.63" width="5.31" height="5.31" fill="#97bcd6"/><rect x="77.57" y="56.32" width="5.31" height="5.31" fill="#97bcd6"/><rect x="77.57" y="51.01" width="5.31" height="5.31" fill="#bedbed"/><rect x="77.57" y="45.69" width="5.31" height="5.31" fill="#1b0003"/><rect x="72.26" y="120.08" width="5.31" height="5.31" fill="#1b0003"/><rect x="72.26" y="114.77" width="5.31" height="5.31" fill="#222230"/><rect x="72.26" y="109.46" width="5.31" height="5.31" fill="#222230"/><rect x="72.26" y="104.14" width="5.31" height="5.31" fill="#222230"/><rect x="72.26" y="98.83" width="5.31" height="5.31" fill="#1b0003"/><rect x="72.26" y="93.52" width="5.31" height="5.31" fill="#6a87af"/><rect x="72.26" y="88.2" width="5.31" height="5.31" fill="#6a87af"/><rect x="72.26" y="82.89" width="5.31" height="5.31" fill="#6a87af"/><rect x="72.26" y="77.58" width="5.31" height="5.31" fill="#6a87af"/><rect x="72.26" y="72.26" width="5.31" height="5.31" fill="#85a1c9"/><rect x="72.26" y="66.95" width="5.31" height="5.31" fill="#97bcd6"/><rect x="72.26" y="61.63" width="5.31" height="5.31" fill="#97bcd6"/><rect x="72.26" y="56.32" width="5.31" height="5.31" fill="#bedbed"/><rect x="72.26" y="51.01" width="5.31" height="5.31" fill="#1b0003"/><rect x="66.95" y="114.77" width="5.31" height="5.31" fill="#1b0003"/><rect x="66.95" y="109.46" width="5.31" height="5.31" fill="#222230"/><rect x="66.95" y="104.14" width="5.31" height="5.31" fill="#222230"/><rect x="66.95" y="98.83" width="5.31" height="5.31" fill="#3e3c51"/><rect x="66.95" y="93.52" width="5.31" height="5.31" fill="#1b0003"/><rect x="66.95" y="88.2" width="5.31" height="5.31" fill="#6a87af"/><rect x="66.95" y="82.89" width="5.31" height="5.31" fill="#6a87af"/><rect x="66.95" y="77.58" width="5.31" height="5.31" fill="#6a87af"/><rect x="66.95" y="72.26" width="5.31" height="5.31" fill="#85a1c9"/><rect x="66.95" y="66.95" width="5.31" height="5.31" fill="#97bcd6"/><rect x="66.95" y="61.63" width="5.31" height="5.31" fill="#bedbed"/><rect x="66.95" y="56.32" width="5.31" height="5.31" fill="#1b0003"/><rect x="61.63" y="109.46" width="5.31" height="5.31" fill="#1b0003"/><rect x="61.63" y="104.14" width="5.31" height="5.31" fill="#222230"/><rect x="61.63" y="98.83" width="5.31" height="5.31" fill="#222230"/><rect x="61.63" y="93.52" width="5.31" height="5.31" fill="#3e3c51"/><rect x="61.63" y="88.2" width="5.31" height="5.31" fill="#1b0003"/><rect x="61.63" y="82.89" width="5.31" height="5.31" fill="#6a87af"/><rect x="61.63" y="77.58" width="5.31" height="5.31" fill="#6a87af"/><rect x="61.63" y="72.26" width="5.31" height="5.31" fill="#85a1c9"/><rect x="61.63" y="66.95" width="5.31" height="5.31" fill="#97bcd6"/><rect x="61.63" y="61.63" width="5.31" height="5.31" fill="#1b0003"/><rect x="56.32" y="104.14" width="5.31" height="5.31" fill="#1b0003"/><rect x="56.32" y="98.83" width="5.31" height="5.31" fill="#222230"/><rect x="56.32" y="93.52" width="5.31" height="5.31" fill="#3e3c51"/><rect x="56.32" y="88.2" width="5.31" height="5.31" fill="#3e3c51"/><rect x="56.32" y="82.89" width="5.31" height="5.31" fill="#1b0003"/><rect x="56.32" y="77.58" width="5.31" height="5.31" fill="#6a87af"/><rect x="56.32" y="72.26" width="5.31" height="5.31" fill="#6a87af"/><rect x="56.32" y="66.95" width="5.31" height="5.31" fill="#1b0003"/><rect x="51.01" y="109.46" width="5.31" height="5.31" fill="#1b0003"/><rect x="51.01" y="104.14" width="5.31" height="5.31" fill="#7f1e14"/><rect x="51.01" y="98.83" width="5.31" height="5.31" fill="#1b0003"/><rect x="51.01" y="93.52" width="5.31" height="5.31" fill="#222230"/><rect x="51.01" y="88.2" width="5.31" height="5.31" fill="#3e3c51"/><rect x="51.01" y="82.89" width="5.31" height="5.31" fill="#3e3c51"/><rect x="51.01" y="77.58" width="5.31" height="5.31" fill="#1b0003"/><rect x="51.01" y="72.26" width="5.31" height="5.31" fill="#1b0003"/><rect x="45.69" y="114.77" width="5.31" height="5.31" fill="#1b0003"/><rect x="45.69" y="109.46" width="5.31" height="5.31" fill="#7f1e14"/><rect x="45.69" y="104.14" width="5.31" height="5.31" fill="#932f1f"/><rect x="45.69" y="98.83" width="5.31" height="5.31" fill="#a84a24"/><rect x="45.69" y="93.52" width="5.31" height="5.31" fill="#1b0003"/><rect x="45.69" y="88.2" width="5.31" height="5.31" fill="#3e3c51"/><rect x="45.69" y="82.89" width="5.31" height="5.31" fill="#5a5970"/><rect x="45.69" y="77.58" width="5.31" height="5.31" fill="#3e3c51"/><rect x="45.69" y="72.26" width="5.31" height="5.31" fill="#1b0003"/><rect x="40.38" y="120.08" width="5.31" height="5.31" fill="#1b0003"/><rect x="40.38" y="114.77" width="5.31" height="5.31" fill="#7f1e14"/><rect x="40.38" y="109.46" width="5.31" height="5.31" fill="#932f1f"/><rect x="40.38" y="104.14" width="5.31" height="5.31" fill="#a84a24"/><rect x="40.38" y="98.83" width="5.31" height="5.31" fill="#1b0003"/><rect x="40.38" y="88.2" width="5.31" height="5.31" fill="#1b0003"/><rect x="40.38" y="82.89" width="5.31" height="5.31" fill="#3e3c51"/><rect x="40.38" y="77.58" width="5.31" height="5.31" fill="#5a5970"/><rect x="40.38" y="72.26" width="5.31" height="5.31" fill="#5a5970"/><rect x="40.38" y="66.95" width="5.31" height="5.31" fill="#1b0003"/><rect x="35.07" y="125.4" width="5.31" height="5.31" fill="#1b0003"/><rect x="35.07" y="120.08" width="5.31" height="5.31" fill="#7f1e14"/><rect x="35.07" y="114.77" width="5.31" height="5.31" fill="#932f1f"/><rect x="35.07" y="109.46" width="5.31" height="5.31" fill="#a84a24"/><rect x="35.07" y="104.14" width="5.31" height="5.31" fill="#1b0003"/><rect x="35.07" y="82.89" width="5.31" height="5.31" fill="#1b0003"/><rect x="35.07" y="77.58" width="5.31" height="5.31" fill="#5a5970"/><rect x="35.07" y="72.26" width="5.31" height="5.31" fill="#5a5970"/><rect x="35.07" y="66.95" width="5.31" height="5.31" fill="#5a5970"/><rect x="35.07" y="61.63" width="5.31" height="5.31" fill="#1b0003"/><rect x="29.75" y="136.02" width="5.31" height="5.31" fill="#1b0003"/><rect x="29.75" y="130.71" width="5.31" height="5.31" fill="#1b0003"/><rect x="29.75" y="125.4" width="5.31" height="5.31" fill="#1b0003"/><rect x="29.75" y="120.08" width="5.31" height="5.31" fill="#932f1f"/><rect x="29.75" y="114.77" width="5.31" height="5.31" fill="#a84a24"/><rect x="29.75" y="109.46" width="5.31" height="5.31" fill="#1b0003"/><rect x="29.75" y="77.58" width="5.31" height="5.31" fill="#1b0003"/><rect x="29.75" y="72.26" width="5.31" height="5.31" fill="#1b0003"/><rect x="29.75" y="66.95" width="5.31" height="5.31" fill="#1b0003"/><rect x="29.75" y="61.63" width="5.31" height="5.31" fill="#1b0003"/><rect x="24.44" y="141.34" width="5.31" height="5.31" fill="#1b0003"/><rect x="24.44" y="136.02" width="5.31" height="5.31" fill="#6a87af"/><rect x="24.44" y="130.71" width="5.31" height="5.31" fill="#6a87af"/><rect x="24.44" y="125.4" width="5.31" height="5.31" fill="#6a87af"/><rect x="24.44" y="120.08" width="5.31" height="5.31" fill="#1b0003"/><rect x="24.44" y="114.77" width="5.31" height="5.31" fill="#1b0003"/><rect x="19.13" y="141.34" width="5.31" height="5.31" fill="#1b0003"/><rect x="19.13" y="136.02" width="5.31" height="5.31" fill="#6a87af"/><rect x="19.13" y="130.71" width="5.31" height="5.31" fill="#97bcd6"/><rect x="19.13" y="125.4" width="5.31" height="5.31" fill="#97bcd6"/><rect x="19.13" y="120.08" width="5.31" height="5.31" fill="#1b0003"/><rect x="13.81" y="141.34" width="5.31" height="5.31" fill="#1b0003"/><rect x="13.81" y="136.02" width="5.31" height="5.31" fill="#6a87af"/><rect x="13.81" y="130.71" width="5.31" height="5.31" fill="#97bcd6"/><rect x="13.81" y="125.4" width="5.31" height="5.31" fill="#cfefff"/><rect x="13.81" y="120.08" width="5.31" height="5.31" fill="#1b0003"/><rect x="8.5" y="136.02" width="5.31" height="5.31" fill="#1b0003"/><rect x="8.5" y="130.71" width="5.31" height="5.31" fill="#1b0003"/><rect x="8.5" y="125.4" width="5.31" height="5.31" fill="#1b0003"/></g></g></g></g></svg>