<?xml version="1.0" encoding="utf-8"?>
<!-- Generator: Adobe Illustrator 28.0.0, SVG Export Plug-In . SVG Version: 6.00 Build 0)  -->
<svg version="1.1" id="Layer_1" xmlns="http://www.w3.org/2000/svg" xmlns:xlink="http://www.w3.org/1999/xlink" x="0px" y="0px"
	 viewBox="0 0 423 439" style="enable-background:new 0 0 423 439;" xml:space="preserve">
<style type="text/css">
	.st0{fill:#FFFFFF;}
	.st1{fill:#231F20;}
	.st2{fill:#BAB8B6;}
	.st3{fill:#F6C8B6;}
	.st4{fill:#F04F2E;}
	.st5{fill:#ED987B;}
	.st6{fill:#979594;}
	.st7{fill:#A3A09F;}
	.st8{fill:#E8A36C;}
	.st9{fill:#DA7528;}
	.st10{fill:#DF8439;}
	.st11{fill:#AEB0B1;}
	.st12{fill:#FBAC36;}
	.st13{fill:#FFDDAF;}
	.st14{fill:#F4C78A;}
	.st15{fill:#FBAF31;}
	.st16{fill:#F6ED62;}
	.st17{fill:#FCB031;}
	.st18{fill:#BBB8B7;}
	.st19{fill:#E3D86D;}
	.st20{fill:#5B5C62;}
	.st21{fill:#B9B7B5;}
	.st22{fill:#444244;}
	.st23{fill:#EEAA3C;}
	.st24{fill:#5A5A5D;}
	.st25{fill:#606065;}
	.st26{fill:#211E1F;}
	.st27{fill:#F3EC63;}
	.st28{fill:#FBAF2F;}
	.st29{fill:#E24E9C;}
	.st30{fill:#F5CBDF;}
	.st31{fill:#32252A;}
	.st32{fill:#55474B;}
	.st33{fill:#4C4043;}
	.st34{fill:#242021;}
	.st35{fill:#665E5F;}
	.st36{fill:#5C5D63;}
	.st37{fill:#F6C9B7;}
	.st38{fill:#F04D31;}
	.st39{fill:#AD1F25;}
	.st40{fill:#514E4C;}
	.st41{fill:#BCB9B7;}
	.st42{fill:#3D3939;}
	.st43{fill:#999695;}
	.st44{fill:#625F5F;}
	.st45{fill:#666060;}
	.st46{fill:#262223;}
	.st47{fill:#777272;}
	.st48{fill:#706B6B;}
	.st49{fill:#635C5D;}
	.st50{fill:#BCBEC0;}
	.st51{fill:#E6E7E8;}
	.st52{fill:#494646;}
	.st53{fill:#2E2B2B;}
	.st54{fill:#393636;}
	.st55{fill:#363232;}
	.st56{fill:#322E2E;}
	.st57{fill:#FBAD32;}
	.st58{fill:#F9E457;}
	.st59{fill:#F7EB5C;}
	.st60{fill:#F9DE52;}
	.st61{fill:#666869;}
	.st62{fill:#F36F39;}
	.st63{fill:#2C292A;}
	.st64{fill:#ECE163;}
	.st65{fill:#494444;}
	.st66{fill:#3BB76D;}
	.st67{fill:#3AB56D;}
	.st68{fill:#2C322C;}
	.st69{fill:#2A2222;}
	.st70{fill:#292B28;}
	.st71{fill:#817C7C;}
	.st72{fill:#252524;}
	.st73{fill:#534F4E;}
	.st74{fill:#5F5959;}
	.st75{fill:#CAC7C7;}
	.st76{fill:#F04F2D;}
	.st77{fill:#BDB8B8;}
	.st78{fill:#B5B0B0;}
	.st79{fill:#252020;}
	.st80{fill:#944433;}
	.st81{fill:#3A2927;}
	.st82{fill:#B04933;}
	.st83{fill:#201D1E;}
	.st84{fill:#BCB9B8;}
	.st85{fill:#322F30;}
	.st86{fill:#E7E8E9;}
	.st87{fill:#ACA7A6;}
	.st88{fill:#787473;}
	.st89{fill:#C2C0BF;}
	.st90{fill:#B0ADAC;}
	.st91{fill:#666262;}
	.st92{fill:#242122;}
	.st93{fill:#656261;}
	.st94{fill:#1C5C9A;}
	.st95{fill:#1699D4;}
	.st96{fill:#555251;}
	.st97{fill:#333F56;}
	.st98{fill:#B6B3B1;}
	.st99{fill:#91C0E7;}
	.st100{fill:#E7E061;}
	.st101{fill:#FBAF2D;}
	.st102{fill:#F9D149;}
	.st103{fill:#F4E95E;}
	.st104{fill:#FBBB37;}
	.st105{fill:#232021;}
	.st106{fill:#F3ED64;}
	.st107{fill:#FBB430;}
	.st108{fill:#F1EA62;}
	.st109{fill:#686264;}
	.st110{fill:#752E27;}
	.st111{fill:#452926;}
	.st112{fill:#5E5958;}
	.st113{fill:#F04D30;}
	.st114{fill:#302D2D;}
	.st115{fill:#756E6F;}
	.st116{fill:#262020;}
	.st117{fill:#F68E6F;}
	.st118{fill:#F7CAB8;}
	.st119{fill:#F8C5B0;}
	.st120{fill:#3E393A;}
	.st121{fill:#504442;}
	.st122{fill:#393231;}
	.st123{fill:#252223;}
	.st124{fill:#F05032;}
	.st125{fill:#2B2728;}
	.st126{fill:#362726;}
	.st127{fill:#252222;}
	.st128{fill:#272425;}
	.st129{fill:#666363;}
	.st130{fill:#5F5A5A;}
	.st131{fill:#5C5858;}
	.st132{fill:#585654;}
	.st133{fill:#BEBEC0;}
	.st134{fill:#A3A1A0;}
	.st135{fill:#585453;}
	.st136{fill:#3D4249;}
	.st137{fill:#221F1F;}
	.st138{fill:#393C41;}
	.st139{fill:#2F2F31;}
	.st140{fill:#5A5A5E;}
	.st141{fill:#949192;}
	.st142{fill:#595555;}
	.st143{fill:#A9A7A6;}
	.st144{fill:#3F3A3A;}
	.st145{fill:#34363A;}
	.st146{fill:#969497;}
	.st147{fill:#353335;}
	.st148{fill:#35373B;}
	.st149{fill:#4F4A4A;}
	.st150{fill:#777473;}
	.st151{fill:#565251;}
	.st152{fill:#A4A2A1;}
	.st153{fill:#CE6935;}
	.st154{fill:#F47531;}
	.st155{fill:#F4ED5E;}
	.st156{fill:#4B4636;}
	.st157{fill:#8C844E;}
	.st158{fill:#BF6434;}
	.st159{fill:#F47A2F;}
	.st160{fill:#984F33;}
	.st161{fill:#344031;}
	.st162{fill:#54B94D;}
	.st163{fill:#2B2F29;}
	.st164{fill:#292526;}
	.st165{fill:#A84735;}
	.st166{fill:#5C362E;}
	.st167{fill:#2F2322;}
	.st168{fill:#AB2126;}
	.st169{fill:#362523;}
	.st170{fill:#DB7629;}
	.st171{fill:#DA7529;}
	.st172{fill:#763C21;}
	.st173{fill:#E6882B;}
	.st174{fill:#944E28;}
	.st175{fill:#BB642A;}
	.st176{fill:#FBAC35;}
	.st177{fill:#564433;}
	.st178{fill:#F5A135;}
	.st179{fill:#2A2728;}
	.st180{fill:#7F4126;}
	.st181{fill:#ED932E;}
	.st182{fill:#F9A636;}
	.st183{fill:#6F5639;}
	.st184{fill:#6D6968;}
	.st185{fill:#797574;}
	.st186{fill:#C5C3C2;}
	.st187{fill:#53504F;}
	.st188{fill:#D36A34;}
	.st189{fill:#836139;}
	.st190{fill:#ED7332;}
	.st191{fill:#DB6E32;}
	.st192{fill:#CD6834;}
	.st193{fill:#C36533;}
	.st194{fill:#C86634;}
	.st195{fill:#D16A34;}
	.st196{fill:#E97232;}
	.st197{fill:#704634;}
	.st198{fill:#E19F35;}
	.st199{fill:#7F5F38;}
	.st200{fill:#252221;}
	.st201{fill:#282422;}
	.st202{fill:#E39F35;}
	.st203{fill:#964335;}
	.st204{fill:#723D32;}
	.st205{fill:#2C2322;}
	.st206{fill:#CC9136;}
	.st207{fill:#242020;}
	.st208{fill:#4A302B;}
	.st209{fill:#DE4C32;}
	.st210{fill:#2A2725;}
	.st211{fill:#524131;}
	.st212{fill:#2B2523;}
	.st213{fill:#4E4838;}
	.st214{fill:#EA4D32;}
	.st215{fill:#F04F31;}
	.st216{fill:#CB4B33;}
	.st217{fill:#292626;}
	.st218{fill:#2A2724;}
	.st219{fill:#EEE862;}
	.st220{fill:#1999D6;}
	.st221{fill:#1B5D9C;}
	.st222{fill:#9D9899;}
	.st223{fill:#3283AE;}
	.st224{fill:#403C3C;}
	.st225{fill:#38799D;}
	.st226{fill:#1E91CD;}
	.st227{fill:#1F7FBC;}
	.st228{fill:#2089C4;}
	.st229{fill:#1A99D4;}
	.st230{fill:#1E84C1;}
	.st231{fill:#208CC8;}
	.st232{fill:#232023;}
	.st233{fill:#242226;}
	.st234{fill:#34435F;}
	.st235{fill:#1971AF;}
	.st236{fill:#222123;}
	.st237{fill:#211E20;}
	.st238{fill:#323E54;}
	.st239{fill:#969593;}
	.st240{fill:#888684;}
	.st241{fill:#898685;}
	.st242{fill:#8D8B89;}
	.st243{fill:#878382;}
	.st244{fill:#2A5586;}
	.st245{fill:#975536;}
	.st246{fill:#945536;}
	.st247{fill:#F68A31;}
	.st248{fill:#F78E31;}
	.st249{fill:#2E2523;}
	.st250{fill:#3B2C28;}
	.st251{fill:#FBAD30;}
	.st252{fill:#B38239;}
	.st253{fill:#684333;}
	.st254{fill:#332F30;}
	.st255{fill:#222021;}
	.st256{fill:#F07433;}
	.st257{fill:#FBAC30;}
	.st258{fill:#E69B32;}
	.st259{fill:#F47C2E;}
	.st260{fill:#783D22;}
	.st261{fill:#ECA131;}
	.st262{fill:#6C6768;}
	.st263{fill:#C46533;}
	.st264{fill:#B4702E;}
	.st265{fill:#382722;}
	.st266{fill:#B97430;}
	.st267{fill:#CC862F;}
	.st268{fill:#B28139;}
	.st269{fill:#D79032;}
	.st270{fill:#EFA332;}
	.st271{fill:#874A27;}
	.st272{fill:#A2763B;}
	.st273{fill:#392722;}
	.st274{fill:#AC7D39;}
	.st275{fill:#846339;}
	.st276{fill:#775A37;}
	.st277{fill:#3F3B3B;}
	.st278{fill:#372E28;}
	.st279{fill:#F6CCDF;}
	.st280{fill:#2F2824;}
	.st281{fill:#EAC1D3;}
	.st282{fill:#DFB7C9;}
	.st283{fill:#262324;}
	.st284{fill:#F4C9DE;}
	.st285{fill:#F9D2E3;}
	.st286{fill:#E8BFD1;}
	.st287{fill:#EDC3D6;}
	.st288{fill:#454040;}
	.st289{fill:#E34F9C;}
	.st290{fill:#3F2C34;}
	.st291{fill:#D0ABBB;}
	.st292{fill:#EFC5D8;}
	.st293{fill:#EBC1D3;}
	.st294{fill:#A98C97;}
	.st295{fill:#D94E32;}
	.st296{fill:#834133;}
	.st297{fill:#F68B6B;}
	.st298{fill:#982A28;}
	.st299{fill:#DA3F2D;}
	.st300{fill:#A12626;}
	.st301{fill:#F47F5D;}
	.st302{fill:#231E1F;}
	.st303{fill:#653830;}
	.st304{fill:#3B2927;}
	.st305{fill:#693931;}
	.st306{fill:#E54E32;}
	.st307{fill:#BAB6B6;}
	.st308{fill:#992927;}
	.st309{fill:#B9843E;}
	.st310{fill:#795B39;}
	.st311{fill:#312A26;}
	.st312{fill:#F9AB36;}
	.st313{fill:#8A663B;}
	.st314{fill:#44372D;}
	.st315{fill:#222020;}
	.st316{fill:#655F5F;}
	.st317{fill:#352625;}
	.st318{fill:#614C35;}
	.st319{fill:#F1F2F2;}
	.st320{fill:#383434;}
	.st321{fill:#605B5C;}
	.st322{fill:#282526;}
	.st323{fill:#7C7879;}
	.st324{fill:#4C4747;}
	.st325{fill:#C5C4C4;}
	.st326{fill:#6B6667;}
	.st327{fill:#BEBCBC;}
	.st328{fill:#514E4D;}
	.st329{fill:#605D5D;}
	.st330{fill:#9A9999;}
	.st331{fill:#6B6666;}
	.st332{fill:#797373;}
	.st333{fill:#B3AFB0;}
	.st334{fill:#6D6967;}
	.st335{fill:#2D292A;}
	.st336{fill:#504D4C;}
	.st337{fill:#393435;}
	.st338{fill:#969191;}
	.st339{fill:#939091;}
	.st340{fill:#696565;}
	.st341{fill:#746F6E;}
	.st342{fill:#B9B8B8;}
	.st343{fill:#979495;}
	.st344{fill:#343132;}
	.st345{fill:#3A3536;}
	.st346{fill:#726D6C;}
	.st347{fill:#9A9798;}
	.st348{fill:#4C302B;}
	.st349{fill:#484444;}
	.st350{fill:#646160;}
	.st351{fill:#7F7C7D;}
	.st352{fill:#716C6B;}
	.st353{fill:#3E3A3B;}
	.st354{fill:#B0ADAD;}
	.st355{fill:#676363;}
	.st356{fill:#676464;}
	.st357{fill:#C2BFBF;}
	.st358{fill:#292627;}
	.st359{fill:#B7B3B3;}
	.st360{fill:#484546;}
	.st361{fill:#ACA8A7;}
	.st362{fill:#464343;}
	.st363{fill:#837F80;}
	.st364{fill:#454242;}
	.st365{fill:#464243;}
	.st366{fill:#4D4848;}
	.st367{fill:#7D7877;}
	.st368{fill:#A39F9F;}
	.st369{fill:#4E4949;}
	.st370{fill:#221F20;}
	.st371{fill:#4B3C2F;}
	.st372{fill:#252121;}
	.st373{fill:#2F3A2E;}
	.st374{fill:#53B54C;}
	.st375{fill:#C5E2B9;}
	.st376{fill:#50954A;}
	.st377{fill:#272324;}
	.st378{fill:#405D3E;}
	.st379{fill:#211F1F;}
	.st380{fill:#436741;}
	.st381{fill:#53B94D;}
	.st382{fill:#B3813D;}
	.st383{fill:#82603B;}
	.st384{fill:#201E1F;}
	.st385{fill:#146F39;}
	.st386{fill:#5B4734;}
	.st387{fill:#27362A;}
	.st388{fill:#222321;}
	.st389{fill:#156D39;}
	.st390{fill:#284A31;}
	.st391{fill:#262E27;}
	.st392{fill:#28362A;}
	.st393{fill:#767071;}
	.st394{fill:#353132;}
	.st395{fill:#302C2D;}
	.st396{fill:#2E2B2C;}
	.st397{fill:#787575;}
	.st398{fill:#787574;}
	.st399{fill:#B8B6B5;}
	.st400{fill:#B1ADAD;}
	.st401{fill:#B3AEAD;}
	.st402{fill:#9C9A98;}
	.st403{fill:#342625;}
	.st404{fill:#5E362F;}
	.st405{fill:#524F4F;}
	.st406{fill:#3B3838;}
	.st407{fill:#B9B5B5;}
	.st408{fill:#F7AD2F;}
	.st409{fill:#2B2D37;}
	.st410{fill:#2D5382;}
	.st411{fill:#2E3441;}
	.st412{fill:#314F76;}
	.st413{fill:#8C8787;}
	.st414{fill:#26588D;}
	.st415{fill:#1C5E9C;}
	.st416{fill:#9DAACE;}
	.st417{fill:#324564;}
	.st418{fill:#34425B;}
	.st419{fill:#575352;}
	.st420{fill:#1997D3;}
	.st421{fill:#27272D;}
	.st422{fill:#1A98D2;}
	.st423{fill:#484343;}
	.st424{fill:#242426;}
	.st425{fill:#304D72;}
	.st426{fill:#373334;}
	.st427{fill:#2E373E;}
	.st428{fill:#3B3637;}
	.st429{fill:#222022;}
	.st430{fill:#314F77;}
	.st431{fill:#2D3338;}
	.st432{fill:#A4A0A0;}
	.st433{fill:#555150;}
	.st434{fill:#322E2F;}
	.st435{fill:#374F5E;}
	.st436{fill:#314D71;}
	.st437{fill:#474242;}
	.st438{fill:#797273;}
	.st439{fill:#395869;}
	.st440{fill:#514130;}
	.st441{fill:#1D96CF;}
	.st442{fill:#5E5858;}
	.st443{fill:#676143;}
	.st444{fill:#245A91;}
	.st445{fill:#F4E95D;}
	.st446{fill:#252629;}
	.st447{fill:#3A596B;}
	.st448{fill:#1C97D0;}
	.st449{fill:#F6E157;}
	.st450{fill:#AF7F3A;}
	.st451{fill:#323F48;}
	.st452{fill:#2B2825;}
	.st453{fill:#F4ED63;}
</style>
<g>
	<rect x="276.58" y="422.12" class="st83" width="16.27" height="16.88"/>
	<rect x="260.31" y="422.12" class="st83" width="16.27" height="16.88"/>
	<rect x="244.04" y="422.12" class="st83" width="16.27" height="16.88"/>
	<rect x="227.77" y="422.12" class="st83" width="16.27" height="16.88"/>
	<rect x="211.5" y="422.12" class="st83" width="16.27" height="16.88"/>
	<rect x="195.23" y="422.12" class="st83" width="16.27" height="16.88"/>
	<rect x="178.96" y="422.12" class="st83" width="16.27" height="16.88"/>
	<rect x="162.69" y="422.12" class="st83" width="16.27" height="16.88"/>
	<rect x="146.42" y="422.12" class="st83" width="16.27" height="16.88"/>
	<rect x="130.15" y="422.12" class="st83" width="16.27" height="16.88"/>
	<rect x="325.38" y="405.23" class="st83" width="16.27" height="16.88"/>
	<rect x="309.12" y="405.23" class="st83" width="16.27" height="16.88"/>
	<rect x="292.85" y="405.23" class="st83" width="16.27" height="16.88"/>
	<rect x="276.58" y="405.23" class="st83" width="16.27" height="16.88"/>
	<rect x="260.31" y="405.23" class="st39" width="16.27" height="16.88"/>
	<rect x="244.04" y="405.23" class="st39" width="16.27" height="16.88"/>
	<rect x="227.77" y="405.23" class="st83" width="16.27" height="16.88"/>
	<rect x="211.5" y="405.23" class="st113" width="16.27" height="16.88"/>
	<rect x="195.23" y="405.23" class="st113" width="16.27" height="16.88"/>
	<rect x="178.96" y="405.23" class="st83" width="16.27" height="16.88"/>
	<rect x="162.69" y="405.23" class="st39" width="16.27" height="16.88"/>
	<rect x="146.42" y="405.23" class="st39" width="16.27" height="16.88"/>
	<rect x="130.15" y="405.23" class="st83" width="16.27" height="16.88"/>
	<rect x="113.88" y="405.23" class="st83" width="16.27" height="16.88"/>
	<rect x="97.62" y="405.23" class="st83" width="16.27" height="16.88"/>
	<rect x="81.35" y="405.23" class="st83" width="16.27" height="16.88"/>
	<rect x="325.38" y="388.35" class="st83" width="16.27" height="16.88"/>
	<rect x="309.12" y="388.35" class="st113" width="16.27" height="16.88"/>
	<rect x="292.85" y="388.35" class="st113" width="16.27" height="16.88"/>
	<rect x="276.58" y="388.35" class="st83" width="16.27" height="16.88"/>
	<rect x="260.31" y="388.35" class="st39" width="16.27" height="16.88"/>
	<rect x="244.04" y="388.35" class="st39" width="16.27" height="16.88"/>
	<rect x="227.77" y="388.35" class="st83" width="16.27" height="16.88"/>
	<rect x="211.5" y="388.35" class="st113" width="16.27" height="16.88"/>
	<rect x="195.23" y="388.35" class="st113" width="16.27" height="16.88"/>
	<rect x="178.96" y="388.35" class="st83" width="16.27" height="16.88"/>
	<rect x="162.69" y="388.35" class="st39" width="16.27" height="16.88"/>
	<rect x="146.42" y="388.35" class="st39" width="16.27" height="16.88"/>
	<rect x="130.15" y="388.35" class="st83" width="16.27" height="16.88"/>
	<rect x="113.88" y="388.35" class="st113" width="16.27" height="16.88"/>
	<rect x="97.62" y="388.35" class="st113" width="16.27" height="16.88"/>
	<rect x="81.35" y="388.35" class="st83" width="16.27" height="16.88"/>
	<rect x="325.38" y="371.46" class="st83" width="16.27" height="16.88"/>
	<rect x="309.12" y="371.46" class="st113" width="16.27" height="16.88"/>
	<rect x="292.85" y="371.46" class="st113" width="16.27" height="16.88"/>
	<rect x="276.58" y="371.46" class="st83" width="16.27" height="16.88"/>
	<rect x="260.31" y="371.46" class="st39" width="16.27" height="16.88"/>
	<rect x="244.04" y="371.46" class="st39" width="16.27" height="16.88"/>
	<rect x="227.77" y="371.46" class="st83" width="16.27" height="16.88"/>
	<rect x="211.5" y="371.46" class="st113" width="16.27" height="16.88"/>
	<rect x="195.23" y="371.46" class="st113" width="16.27" height="16.88"/>
	<rect x="178.96" y="371.46" class="st83" width="16.27" height="16.88"/>
	<rect x="162.69" y="371.46" class="st39" width="16.27" height="16.88"/>
	<rect x="146.42" y="371.46" class="st39" width="16.27" height="16.88"/>
	<rect x="130.15" y="371.46" class="st83" width="16.27" height="16.88"/>
	<rect x="113.88" y="371.46" class="st113" width="16.27" height="16.88"/>
	<rect x="97.62" y="371.46" class="st113" width="16.27" height="16.88"/>
	<rect x="81.35" y="371.46" class="st83" width="16.27" height="16.88"/>
	<rect x="325.38" y="354.58" class="st83" width="16.27" height="16.88"/>
	<rect x="309.12" y="354.58" class="st113" width="16.27" height="16.88"/>
	<rect x="292.85" y="354.58" class="st113" width="16.27" height="16.88"/>
	<rect x="276.58" y="354.58" class="st83" width="16.27" height="16.88"/>
	<rect x="260.31" y="354.58" class="st39" width="16.27" height="16.88"/>
	<rect x="244.04" y="354.58" class="st39" width="16.27" height="16.88"/>
	<rect x="227.77" y="354.58" class="st83" width="16.27" height="16.88"/>
	<rect x="211.5" y="354.58" class="st113" width="16.27" height="16.88"/>
	<rect x="195.23" y="354.58" class="st113" width="16.27" height="16.88"/>
	<rect x="178.96" y="354.58" class="st83" width="16.27" height="16.88"/>
	<rect x="162.69" y="354.58" class="st39" width="16.27" height="16.88"/>
	<rect x="146.42" y="354.58" class="st39" width="16.27" height="16.88"/>
	<rect x="130.15" y="354.58" class="st83" width="16.27" height="16.88"/>
	<rect x="113.88" y="354.58" class="st113" width="16.27" height="16.88"/>
	<rect x="97.62" y="354.58" class="st113" width="16.27" height="16.88"/>
	<rect x="81.35" y="354.58" class="st83" width="16.27" height="16.88"/>
	<rect x="325.38" y="337.69" class="st83" width="16.27" height="16.88"/>
	<rect x="309.12" y="337.69" class="st113" width="16.27" height="16.88"/>
	<rect x="292.85" y="337.69" class="st113" width="16.27" height="16.88"/>
	<rect x="276.58" y="337.69" class="st83" width="16.27" height="16.88"/>
	<rect x="260.31" y="337.69" class="st39" width="16.27" height="16.88"/>
	<rect x="244.04" y="337.69" class="st39" width="16.27" height="16.88"/>
	<rect x="227.77" y="337.69" class="st83" width="16.27" height="16.88"/>
	<rect x="211.5" y="337.69" class="st113" width="16.27" height="16.88"/>
	<rect x="195.23" y="337.69" class="st113" width="16.27" height="16.88"/>
	<rect x="178.96" y="337.69" class="st83" width="16.27" height="16.88"/>
	<rect x="162.69" y="337.69" class="st39" width="16.27" height="16.88"/>
	<rect x="146.42" y="337.69" class="st39" width="16.27" height="16.88"/>
	<rect x="130.15" y="337.69" class="st83" width="16.27" height="16.88"/>
	<rect x="113.88" y="337.69" class="st113" width="16.27" height="16.88"/>
	<rect x="97.62" y="337.69" class="st113" width="16.27" height="16.88"/>
	<rect x="81.35" y="337.69" class="st83" width="16.27" height="16.88"/>
	<rect x="341.65" y="320.81" class="st83" width="16.27" height="16.88"/>
	<rect x="325.38" y="320.81" class="st83" width="16.27" height="16.88"/>
	<rect x="309.12" y="320.81" class="st113" width="16.27" height="16.88"/>
	<rect x="292.85" y="320.81" class="st113" width="16.27" height="16.88"/>
	<rect x="276.58" y="320.81" class="st83" width="16.27" height="16.88"/>
	<rect x="260.31" y="320.81" class="st39" width="16.27" height="16.88"/>
	<rect x="244.04" y="320.81" class="st39" width="16.27" height="16.88"/>
	<rect x="227.77" y="320.81" class="st83" width="16.27" height="16.88"/>
	<rect x="211.5" y="320.81" class="st113" width="16.27" height="16.88"/>
	<rect x="195.23" y="320.81" class="st113" width="16.27" height="16.88"/>
	<rect x="178.96" y="320.81" class="st83" width="16.27" height="16.88"/>
	<rect x="162.69" y="320.81" class="st39" width="16.27" height="16.88"/>
	<rect x="146.42" y="320.81" class="st39" width="16.27" height="16.88"/>
	<rect x="130.15" y="320.81" class="st83" width="16.27" height="16.88"/>
	<rect x="113.88" y="320.81" class="st113" width="16.27" height="16.88"/>
	<rect x="97.62" y="320.81" class="st113" width="16.27" height="16.88"/>
	<rect x="81.35" y="320.81" class="st83" width="16.27" height="16.88"/>
	<rect x="65.08" y="320.81" class="st83" width="16.27" height="16.88"/>
	<rect x="341.65" y="303.92" class="st83" width="16.27" height="16.88"/>
	<rect x="325.38" y="303.92" class="st165" width="16.27" height="16.88"/>
	<rect x="309.12" y="303.92" class="st113" width="16.27" height="16.88"/>
	<rect x="292.85" y="303.92" class="st113" width="16.27" height="16.88"/>
	<rect x="276.58" y="303.92" class="st83" width="16.27" height="16.88"/>
	<rect x="260.31" y="303.92" class="st39" width="16.27" height="16.88"/>
	<rect x="244.04" y="303.92" class="st39" width="16.27" height="16.88"/>
	<rect x="227.77" y="303.92" class="st83" width="16.27" height="16.88"/>
	<rect x="211.5" y="303.92" class="st113" width="16.27" height="16.88"/>
	<rect x="195.23" y="303.92" class="st113" width="16.27" height="16.88"/>
	<rect x="178.96" y="303.92" class="st83" width="16.27" height="16.88"/>
	<rect x="162.69" y="303.92" class="st39" width="16.27" height="16.88"/>
	<rect x="146.42" y="303.92" class="st39" width="16.27" height="16.88"/>
	<rect x="130.15" y="303.92" class="st83" width="16.27" height="16.88"/>
	<rect x="113.88" y="303.92" class="st113" width="16.27" height="16.88"/>
	<rect x="97.62" y="303.92" class="st113" width="16.27" height="16.88"/>
	<rect x="81.35" y="303.92" class="st166" width="16.27" height="16.88"/>
	<rect x="65.08" y="303.92" class="st83" width="16.27" height="16.88"/>
	<rect x="341.65" y="287.04" class="st83" width="16.27" height="16.88"/>
	<rect x="325.38" y="287.04" class="st113" width="16.27" height="16.88"/>
	<rect x="309.12" y="287.04" class="st113" width="16.27" height="16.88"/>
	<rect x="292.85" y="287.04" class="st113" width="16.27" height="16.88"/>
	<rect x="276.58" y="287.04" class="st83" width="16.27" height="16.88"/>
	<rect x="260.31" y="287.04" class="st39" width="16.27" height="16.88"/>
	<rect x="244.04" y="287.04" class="st39" width="16.27" height="16.88"/>
	<rect x="227.77" y="287.04" class="st83" width="16.27" height="16.88"/>
	<rect x="211.5" y="287.04" class="st83" width="16.27" height="16.88"/>
	<rect x="195.23" y="287.04" class="st83" width="16.27" height="16.88"/>
	<rect x="178.96" y="287.04" class="st83" width="16.27" height="16.88"/>
	<rect x="162.69" y="287.04" class="st83" width="16.27" height="16.88"/>
	<rect x="146.42" y="287.04" class="st167" width="16.27" height="16.88"/>
	<rect x="130.15" y="287.04" class="st83" width="16.27" height="16.88"/>
	<rect x="113.88" y="287.04" class="st113" width="16.27" height="16.88"/>
	<rect x="97.62" y="287.04" class="st113" width="16.27" height="16.88"/>
	<rect x="81.35" y="287.04" class="st113" width="16.27" height="16.88"/>
	<rect x="65.08" y="287.04" class="st83" width="16.27" height="16.88"/>
	<rect x="357.92" y="270.15" class="st83" width="16.27" height="16.88"/>
	<rect x="341.65" y="270.15" class="st83" width="16.27" height="16.88"/>
	<rect x="325.38" y="270.15" class="st83" width="16.27" height="16.88"/>
	<rect x="309.12" y="270.15" class="st83" width="16.27" height="16.88"/>
	<rect x="292.85" y="270.15" class="st83" width="16.27" height="16.88"/>
	<rect x="276.58" y="270.15" class="st83" width="16.27" height="16.88"/>
	<rect x="260.31" y="270.15" class="st168" width="16.27" height="16.88"/>
	<rect x="244.04" y="270.15" class="st169" width="16.27" height="16.88"/>
	<rect x="227.77" y="270.15" class="st83" width="16.27" height="16.88"/>
	<rect x="211.5" y="270.15" class="st83" width="16.27" height="16.88"/>
	<rect x="195.23" y="270.15" class="st170" width="16.27" height="16.88"/>
	<rect x="178.96" y="270.15" class="st170" width="16.27" height="16.88"/>
	<rect x="162.69" y="270.15" class="st170" width="16.27" height="16.88"/>
	<rect x="146.42" y="270.15" class="st83" width="16.27" height="16.88"/>
	<rect x="130.15" y="270.15" class="st83" width="16.27" height="16.88"/>
	<rect x="113.88" y="270.15" class="st113" width="16.27" height="16.88"/>
	<rect x="97.62" y="270.15" class="st83" width="16.27" height="16.88"/>
	<rect x="81.35" y="270.15" class="st83" width="16.27" height="16.88"/>
	<rect x="65.08" y="270.15" class="st83" width="16.27" height="16.88"/>
	<rect x="48.81" y="270.15" class="st83" width="16.27" height="16.88"/>
	<rect x="32.54" y="270.15" class="st92" width="16.27" height="16.88"/>
	<rect x="374.19" y="253.27" class="st83" width="16.27" height="16.88"/>
	<rect x="357.92" y="253.27" class="st83" width="16.27" height="16.88"/>
	<rect x="341.65" y="253.27" class="st170" width="16.27" height="16.88"/>
	<rect x="325.38" y="253.27" class="st170" width="16.27" height="16.88"/>
	<rect x="309.12" y="253.27" class="st170" width="16.27" height="16.88"/>
	<rect x="292.85" y="253.27" class="st170" width="16.27" height="16.88"/>
	<rect x="276.58" y="253.27" class="st170" width="16.27" height="16.88"/>
	<rect x="260.31" y="253.27" class="st83" width="16.27" height="16.88"/>
	<rect x="244.04" y="253.27" class="st83" width="16.27" height="16.88"/>
	<rect x="227.77" y="253.27" class="st170" width="16.27" height="16.88"/>
	<rect x="211.5" y="253.27" class="st170" width="16.27" height="16.88"/>
	<rect x="195.23" y="253.27" class="st170" width="16.27" height="16.88"/>
	<rect x="178.96" y="253.27" class="st170" width="16.27" height="16.88"/>
	<rect x="162.69" y="253.27" class="st170" width="16.27" height="16.88"/>
	<rect x="146.42" y="253.27" class="st170" width="16.27" height="16.88"/>
	<rect x="130.15" y="253.27" class="st170" width="16.27" height="16.88"/>
	<rect x="113.88" y="253.27" class="st83" width="16.27" height="16.88"/>
	<rect x="97.62" y="253.27" class="st83" width="16.27" height="16.88"/>
	<rect x="81.35" y="253.27" class="st170" width="16.27" height="16.88"/>
	<rect x="65.08" y="253.27" class="st170" width="16.27" height="16.88"/>
	<rect x="48.81" y="253.27" class="st170" width="16.27" height="16.88"/>
	<rect x="32.54" y="253.27" class="st83" width="16.27" height="16.88"/>
	<rect x="16.27" y="253.27" class="st83" width="16.27" height="16.88"/>
	<rect x="390.46" y="236.38" class="st83" width="16.27" height="16.88"/>
	<rect x="374.19" y="236.38" class="st83" width="16.27" height="16.88"/>
	<rect x="357.92" y="236.38" class="st170" width="16.27" height="16.88"/>
	<rect x="341.65" y="236.38" class="st170" width="16.27" height="16.88"/>
	<rect x="325.38" y="236.38" class="st170" width="16.27" height="16.88"/>
	<rect x="309.12" y="236.38" class="st170" width="16.27" height="16.88"/>
	<rect x="292.85" y="236.38" class="st170" width="16.27" height="16.88"/>
	<rect x="276.58" y="236.38" class="st170" width="16.27" height="16.88"/>
	<rect x="260.31" y="236.38" class="st170" width="16.27" height="16.88"/>
	<rect x="244.04" y="236.38" class="st170" width="16.27" height="16.88"/>
	<rect x="227.77" y="236.38" class="st170" width="16.27" height="16.88"/>
	<rect x="211.5" y="236.38" class="st170" width="16.27" height="16.88"/>
	<rect x="195.23" y="236.38" class="st170" width="16.27" height="16.88"/>
	<rect x="178.96" y="236.38" class="st170" width="16.27" height="16.88"/>
	<rect x="162.69" y="236.38" class="st170" width="16.27" height="16.88"/>
	<rect x="146.42" y="236.38" class="st170" width="16.27" height="16.88"/>
	<rect x="130.15" y="236.38" class="st170" width="16.27" height="16.88"/>
	<rect x="113.88" y="236.38" class="st170" width="16.27" height="16.88"/>
	<rect x="97.62" y="236.38" class="st170" width="16.27" height="16.88"/>
	<rect x="81.35" y="236.38" class="st170" width="16.27" height="16.88"/>
	<rect x="65.08" y="236.38" class="st170" width="16.27" height="16.88"/>
	<rect x="48.81" y="236.38" class="st170" width="16.27" height="16.88"/>
	<rect x="32.54" y="236.38" class="st170" width="16.27" height="16.88"/>
	<rect x="16.27" y="236.38" class="st83" width="16.27" height="16.88"/>
	<rect y="236.38" class="st74" width="16.27" height="16.88"/>
	<rect x="390.46" y="219.5" class="st83" width="16.27" height="16.88"/>
	<rect x="374.19" y="219.5" class="st170" width="16.27" height="16.88"/>
	<rect x="357.92" y="219.5" class="st170" width="16.27" height="16.88"/>
	<rect x="341.65" y="219.5" class="st170" width="16.27" height="16.88"/>
	<rect x="325.38" y="219.5" class="st170" width="16.27" height="16.88"/>
	<rect x="309.12" y="219.5" class="st170" width="16.27" height="16.88"/>
	<rect x="292.85" y="219.5" class="st170" width="16.27" height="16.88"/>
	<rect x="276.58" y="219.5" class="st170" width="16.27" height="16.88"/>
	<rect x="260.31" y="219.5" class="st170" width="16.27" height="16.88"/>
	<rect x="244.04" y="219.5" class="st170" width="16.27" height="16.88"/>
	<rect x="227.77" y="219.5" class="st170" width="16.27" height="16.88"/>
	<rect x="211.5" y="219.5" class="st170" width="16.27" height="16.88"/>
	<rect x="195.23" y="219.5" class="st170" width="16.27" height="16.88"/>
	<rect x="178.96" y="219.5" class="st170" width="16.27" height="16.88"/>
	<rect x="162.69" y="219.5" class="st170" width="16.27" height="16.88"/>
	<rect x="146.42" y="219.5" class="st170" width="16.27" height="16.88"/>
	<rect x="130.15" y="219.5" class="st170" width="16.27" height="16.88"/>
	<rect x="113.88" y="219.5" class="st170" width="16.27" height="16.88"/>
	<rect x="97.62" y="219.5" class="st170" width="16.27" height="16.88"/>
	<rect x="81.35" y="219.5" class="st170" width="16.27" height="16.88"/>
	<rect x="65.08" y="219.5" class="st170" width="16.27" height="16.88"/>
	<rect x="48.81" y="219.5" class="st170" width="16.27" height="16.88"/>
	<rect x="32.54" y="219.5" class="st170" width="16.27" height="16.88"/>
	<rect x="16.27" y="219.5" class="st171" width="16.27" height="16.88"/>
	<rect y="219.5" class="st83" width="16.27" height="16.88"/>
	<rect x="406.73" y="202.62" class="st83" width="16.27" height="16.88"/>
	<rect x="390.46" y="202.62" class="st170" width="16.27" height="16.88"/>
	<rect x="374.19" y="202.62" class="st170" width="16.27" height="16.88"/>
	<rect x="357.92" y="202.62" class="st170" width="16.27" height="16.88"/>
	<rect x="341.65" y="202.62" class="st170" width="16.27" height="16.88"/>
	<rect x="325.38" y="202.62" class="st170" width="16.27" height="16.88"/>
	<rect x="309.12" y="202.62" class="st172" width="16.27" height="16.88"/>
	<rect x="292.85" y="202.62" class="st172" width="16.27" height="16.88"/>
	<rect x="276.58" y="202.62" class="st172" width="16.27" height="16.88"/>
	<rect x="260.31" y="202.62" class="st170" width="16.27" height="16.88"/>
	<rect x="244.04" y="202.62" class="st170" width="16.27" height="16.88"/>
	<rect x="227.77" y="202.62" class="st170" width="16.27" height="16.88"/>
	<rect x="211.5" y="202.62" class="st170" width="16.27" height="16.88"/>
	<rect x="195.23" y="202.62" class="st170" width="16.27" height="16.88"/>
	<rect x="178.96" y="202.62" class="st170" width="16.27" height="16.88"/>
	<rect x="162.69" y="202.62" class="st170" width="16.27" height="16.88"/>
	<rect x="146.42" y="202.62" class="st170" width="16.27" height="16.88"/>
	<rect x="130.15" y="202.62" class="st170" width="16.27" height="16.88"/>
	<rect x="113.88" y="202.62" class="st170" width="16.27" height="16.88"/>
	<rect x="97.62" y="202.62" class="st170" width="16.27" height="16.88"/>
	<rect x="81.35" y="202.62" class="st170" width="16.27" height="16.88"/>
	<rect x="65.08" y="202.62" class="st170" width="16.27" height="16.88"/>
	<rect x="48.81" y="202.62" class="st170" width="16.27" height="16.88"/>
	<rect x="32.54" y="202.62" class="st170" width="16.27" height="16.88"/>
	<rect x="16.27" y="202.62" class="st173" width="16.27" height="16.88"/>
	<rect y="202.62" class="st83" width="16.27" height="16.88"/>
	<rect x="406.73" y="185.73" class="st83" width="16.27" height="16.88"/>
	<rect x="390.46" y="185.73" class="st170" width="16.27" height="16.88"/>
	<rect x="374.19" y="185.73" class="st170" width="16.27" height="16.88"/>
	<rect x="357.92" y="185.73" class="st170" width="16.27" height="16.88"/>
	<rect x="341.65" y="185.73" class="st170" width="16.27" height="16.88"/>
	<rect x="325.38" y="185.73" class="st172" width="16.27" height="16.88"/>
	<rect x="309.12" y="185.73" class="st172" width="16.27" height="16.88"/>
	<rect x="292.85" y="185.73" class="st172" width="16.27" height="16.88"/>
	<rect x="276.58" y="185.73" class="st172" width="16.27" height="16.88"/>
	<rect x="260.31" y="185.73" class="st174" width="16.27" height="16.88"/>
	<rect x="244.04" y="185.73" class="st170" width="16.27" height="16.88"/>
	<rect x="227.77" y="185.73" class="st170" width="16.27" height="16.88"/>
	<rect x="211.5" y="185.73" class="st170" width="16.27" height="16.88"/>
	<rect x="195.23" y="185.73" class="st170" width="16.27" height="16.88"/>
	<rect x="178.96" y="185.73" class="st170" width="16.27" height="16.88"/>
	<rect x="162.69" y="185.73" class="st170" width="16.27" height="16.88"/>
	<rect x="146.42" y="185.73" class="st170" width="16.27" height="16.88"/>
	<rect x="130.15" y="185.73" class="st170" width="16.27" height="16.88"/>
	<rect x="113.88" y="185.73" class="st172" width="16.27" height="16.88"/>
	<rect x="97.62" y="185.73" class="st172" width="16.27" height="16.88"/>
	<rect x="81.35" y="185.73" class="st175" width="16.27" height="16.88"/>
	<rect x="65.08" y="185.73" class="st170" width="16.27" height="16.88"/>
	<rect x="48.81" y="185.73" class="st170" width="16.27" height="16.88"/>
	<rect x="32.54" y="185.73" class="st176" width="16.27" height="16.88"/>
	<rect x="16.27" y="185.73" class="st176" width="16.27" height="16.88"/>
	<rect y="185.73" class="st83" width="16.27" height="16.88"/>
	<rect x="406.73" y="168.85" class="st83" width="16.27" height="16.88"/>
	<rect x="390.46" y="168.85" class="st170" width="16.27" height="16.88"/>
	<rect x="374.19" y="168.85" class="st170" width="16.27" height="16.88"/>
	<rect x="357.92" y="168.85" class="st170" width="16.27" height="16.88"/>
	<rect x="341.65" y="168.85" class="st170" width="16.27" height="16.88"/>
	<rect x="325.38" y="168.85" class="st170" width="16.27" height="16.88"/>
	<rect x="309.12" y="168.85" class="st172" width="16.27" height="16.88"/>
	<rect x="292.85" y="168.85" class="st172" width="16.27" height="16.88"/>
	<rect x="276.58" y="168.85" class="st172" width="16.27" height="16.88"/>
	<rect x="260.31" y="168.85" class="st170" width="16.27" height="16.88"/>
	<rect x="244.04" y="168.85" class="st170" width="16.27" height="16.88"/>
	<rect x="227.77" y="168.85" class="st170" width="16.27" height="16.88"/>
	<rect x="211.5" y="168.85" class="st170" width="16.27" height="16.88"/>
	<rect x="195.23" y="168.85" class="st170" width="16.27" height="16.88"/>
	<rect x="178.96" y="168.85" class="st170" width="16.27" height="16.88"/>
	<rect x="162.69" y="168.85" class="st170" width="16.27" height="16.88"/>
	<rect x="146.42" y="168.85" class="st170" width="16.27" height="16.88"/>
	<rect x="130.15" y="168.85" class="st172" width="16.27" height="16.88"/>
	<rect x="113.88" y="168.85" class="st172" width="16.27" height="16.88"/>
	<rect x="97.62" y="168.85" class="st172" width="16.27" height="16.88"/>
	<rect x="81.35" y="168.85" class="st172" width="16.27" height="16.88"/>
	<rect x="65.08" y="168.85" class="st176" width="16.27" height="16.88"/>
	<rect x="48.81" y="168.85" class="st176" width="16.27" height="16.88"/>
	<rect x="32.54" y="168.85" class="st176" width="16.27" height="16.88"/>
	<rect x="16.27" y="168.85" class="st83" width="16.27" height="16.88"/>
	<rect y="168.85" class="st83" width="16.27" height="16.88"/>
	<rect x="406.73" y="151.96" class="st83" width="16.27" height="16.88"/>
	<rect x="390.46" y="151.96" class="st177" width="16.27" height="16.88"/>
	<rect x="374.19" y="151.96" class="st170" width="16.27" height="16.88"/>
	<rect x="357.92" y="151.96" class="st170" width="16.27" height="16.88"/>
	<rect x="341.65" y="151.96" class="st170" width="16.27" height="16.88"/>
	<rect x="325.38" y="151.96" class="st170" width="16.27" height="16.88"/>
	<rect x="309.12" y="151.96" class="st176" width="16.27" height="16.88"/>
	<rect x="292.85" y="151.96" class="st176" width="16.27" height="16.88"/>
	<rect x="276.58" y="151.96" class="st178" width="16.27" height="16.88"/>
	<rect x="260.31" y="151.96" class="st170" width="16.27" height="16.88"/>
	<rect x="244.04" y="151.96" class="st170" width="16.27" height="16.88"/>
	<rect x="227.77" y="151.96" class="st170" width="16.27" height="16.88"/>
	<rect x="211.5" y="151.96" class="st170" width="16.27" height="16.88"/>
	<rect x="195.23" y="151.96" class="st170" width="16.27" height="16.88"/>
	<rect x="178.96" y="151.96" class="st170" width="16.27" height="16.88"/>
	<rect x="162.69" y="151.96" class="st170" width="16.27" height="16.88"/>
	<rect x="146.42" y="151.96" class="st170" width="16.27" height="16.88"/>
	<rect x="130.15" y="151.96" class="st172" width="16.27" height="16.88"/>
	<rect x="113.88" y="151.96" class="st172" width="16.27" height="16.88"/>
	<rect x="97.62" y="151.96" class="st172" width="16.27" height="16.88"/>
	<rect x="81.35" y="151.96" class="st172" width="16.27" height="16.88"/>
	<rect x="65.08" y="151.96" class="st176" width="16.27" height="16.88"/>
	<rect x="48.81" y="151.96" class="st176" width="16.27" height="16.88"/>
	<rect x="32.54" y="151.96" class="st83" width="16.27" height="16.88"/>
	<rect x="16.27" y="151.96" class="st83" width="16.27" height="16.88"/>
	<rect x="390.46" y="135.08" class="st83" width="16.27" height="16.88"/>
	<rect x="374.19" y="135.08" class="st176" width="16.27" height="16.88"/>
	<rect x="357.92" y="135.08" class="st176" width="16.27" height="16.88"/>
	<rect x="341.65" y="135.08" class="st176" width="16.27" height="16.88"/>
	<rect x="325.38" y="135.08" class="st176" width="16.27" height="16.88"/>
	<rect x="309.12" y="135.08" class="st176" width="16.27" height="16.88"/>
	<rect x="292.85" y="135.08" class="st176" width="16.27" height="16.88"/>
	<rect x="276.58" y="135.08" class="st176" width="16.27" height="16.88"/>
	<rect x="260.31" y="135.08" class="st170" width="16.27" height="16.88"/>
	<rect x="244.04" y="135.08" class="st170" width="16.27" height="16.88"/>
	<rect x="227.77" y="135.08" class="st170" width="16.27" height="16.88"/>
	<rect x="211.5" y="135.08" class="st170" width="16.27" height="16.88"/>
	<rect x="195.23" y="135.08" class="st170" width="16.27" height="16.88"/>
	<rect x="178.96" y="135.08" class="st170" width="16.27" height="16.88"/>
	<rect x="162.69" y="135.08" class="st170" width="16.27" height="16.88"/>
	<rect x="146.42" y="135.08" class="st170" width="16.27" height="16.88"/>
	<rect x="130.15" y="135.08" class="st170" width="16.27" height="16.88"/>
	<rect x="113.88" y="135.08" class="st170" width="16.27" height="16.88"/>
	<rect x="97.62" y="135.08" class="st176" width="16.27" height="16.88"/>
	<rect x="81.35" y="135.08" class="st176" width="16.27" height="16.88"/>
	<rect x="65.08" y="135.08" class="st83" width="16.27" height="16.88"/>
	<rect x="48.81" y="135.08" class="st83" width="16.27" height="16.88"/>
	<rect x="32.54" y="135.08" class="st83" width="16.27" height="16.88"/>
	<rect x="390.46" y="118.19" class="st83" width="16.27" height="16.88"/>
	<rect x="374.19" y="118.19" class="st83" width="16.27" height="16.88"/>
	<rect x="357.92" y="118.19" class="st176" width="16.27" height="16.88"/>
	<rect x="341.65" y="118.19" class="st176" width="16.27" height="16.88"/>
	<rect x="325.38" y="118.19" class="st176" width="16.27" height="16.88"/>
	<rect x="309.12" y="118.19" class="st176" width="16.27" height="16.88"/>
	<rect x="292.85" y="118.19" class="st176" width="16.27" height="16.88"/>
	<rect x="276.58" y="118.19" class="st176" width="16.27" height="16.88"/>
	<rect x="260.31" y="118.19" class="st170" width="16.27" height="16.88"/>
	<rect x="244.04" y="118.19" class="st170" width="16.27" height="16.88"/>
	<rect x="227.77" y="118.19" class="st170" width="16.27" height="16.88"/>
	<rect x="211.5" y="118.19" class="st170" width="16.27" height="16.88"/>
	<rect x="195.23" y="118.19" class="st170" width="16.27" height="16.88"/>
	<rect x="178.96" y="118.19" class="st170" width="16.27" height="16.88"/>
	<rect x="162.69" y="118.19" class="st170" width="16.27" height="16.88"/>
	<rect x="146.42" y="118.19" class="st170" width="16.27" height="16.88"/>
	<rect x="130.15" y="118.19" class="st170" width="16.27" height="16.88"/>
	<rect x="113.88" y="118.19" class="st170" width="16.27" height="16.88"/>
	<rect x="97.62" y="118.19" class="st176" width="16.27" height="16.88"/>
	<rect x="81.35" y="118.19" class="st176" width="16.27" height="16.88"/>
	<rect x="65.08" y="118.19" class="st83" width="16.27" height="16.88"/>
	<rect x="374.19" y="101.31" class="st179" width="16.27" height="16.88"/>
	<rect x="357.92" y="101.31" class="st83" width="16.27" height="16.88"/>
	<rect x="341.65" y="101.31" class="st83" width="16.27" height="16.88"/>
	<rect x="325.38" y="101.31" class="st176" width="16.27" height="16.88"/>
	<rect x="309.12" y="101.31" class="st176" width="16.27" height="16.88"/>
	<rect x="292.85" y="101.31" class="st176" width="16.27" height="16.88"/>
	<rect x="276.58" y="101.31" class="st176" width="16.27" height="16.88"/>
	<rect x="260.31" y="101.31" class="st170" width="16.27" height="16.88"/>
	<rect x="244.04" y="101.31" class="st170" width="16.27" height="16.88"/>
	<rect x="227.77" y="101.31" class="st172" width="16.27" height="16.88"/>
	<rect x="211.5" y="101.31" class="st172" width="16.27" height="16.88"/>
	<rect x="195.23" y="101.31" class="st172" width="16.27" height="16.88"/>
	<rect x="178.96" y="101.31" class="st180" width="16.27" height="16.88"/>
	<rect x="162.69" y="101.31" class="st170" width="16.27" height="16.88"/>
	<rect x="146.42" y="101.31" class="st170" width="16.27" height="16.88"/>
	<rect x="130.15" y="101.31" class="st170" width="16.27" height="16.88"/>
	<rect x="113.88" y="101.31" class="st176" width="16.27" height="16.88"/>
	<rect x="97.62" y="101.31" class="st176" width="16.27" height="16.88"/>
	<rect x="81.35" y="101.31" class="st83" width="16.27" height="16.88"/>
	<rect x="65.08" y="101.31" class="st83" width="16.27" height="16.88"/>
	<rect x="341.65" y="84.42" class="st83" width="16.27" height="16.88"/>
	<rect x="325.38" y="84.42" class="st83" width="16.27" height="16.88"/>
	<rect x="309.12" y="84.42" class="st83" width="16.27" height="16.88"/>
	<rect x="292.85" y="84.42" class="st176" width="16.27" height="16.88"/>
	<rect x="276.58" y="84.42" class="st176" width="16.27" height="16.88"/>
	<rect x="260.31" y="84.42" class="st176" width="16.27" height="16.88"/>
	<rect x="244.04" y="84.42" class="st170" width="16.27" height="16.88"/>
	<rect x="227.77" y="84.42" class="st172" width="16.27" height="16.88"/>
	<rect x="211.5" y="84.42" class="st172" width="16.27" height="16.88"/>
	<rect x="195.23" y="84.42" class="st172" width="16.27" height="16.88"/>
	<rect x="178.96" y="84.42" class="st172" width="16.27" height="16.88"/>
	<rect x="162.69" y="84.42" class="st170" width="16.27" height="16.88"/>
	<rect x="146.42" y="84.42" class="st170" width="16.27" height="16.88"/>
	<rect x="130.15" y="84.42" class="st170" width="16.27" height="16.88"/>
	<rect x="113.88" y="84.42" class="st176" width="16.27" height="16.88"/>
	<rect x="97.62" y="84.42" class="st176" width="16.27" height="16.88"/>
	<rect x="81.35" y="84.42" class="st83" width="16.27" height="16.88"/>
	<rect x="309.12" y="67.54" class="st83" width="16.27" height="16.88"/>
	<rect x="292.85" y="67.54" class="st83" width="16.27" height="16.88"/>
	<rect x="276.58" y="67.54" class="st176" width="16.27" height="16.88"/>
	<rect x="260.31" y="67.54" class="st176" width="16.27" height="16.88"/>
	<rect x="244.04" y="67.54" class="st176" width="16.27" height="16.88"/>
	<rect x="227.77" y="67.54" class="st170" width="16.27" height="16.88"/>
	<rect x="211.5" y="67.54" class="st172" width="16.27" height="16.88"/>
	<rect x="195.23" y="67.54" class="st172" width="16.27" height="16.88"/>
	<rect x="178.96" y="67.54" class="st170" width="16.27" height="16.88"/>
	<rect x="162.69" y="67.54" class="st170" width="16.27" height="16.88"/>
	<rect x="146.42" y="67.54" class="st170" width="16.27" height="16.88"/>
	<rect x="130.15" y="67.54" class="st176" width="16.27" height="16.88"/>
	<rect x="113.88" y="67.54" class="st176" width="16.27" height="16.88"/>
	<rect x="97.62" y="67.54" class="st176" width="16.27" height="16.88"/>
	<rect x="81.35" y="67.54" class="st83" width="16.27" height="16.88"/>
	<rect x="292.85" y="50.65" class="st83" width="16.27" height="16.88"/>
	<rect x="276.58" y="50.65" class="st137" width="16.27" height="16.88"/>
	<rect x="260.31" y="50.65" class="st176" width="16.27" height="16.88"/>
	<rect x="244.04" y="50.65" class="st176" width="16.27" height="16.88"/>
	<rect x="227.77" y="50.65" class="st176" width="16.27" height="16.88"/>
	<rect x="211.5" y="50.65" class="st176" width="16.27" height="16.88"/>
	<rect x="195.23" y="50.65" class="st181" width="16.27" height="16.88"/>
	<rect x="178.96" y="50.65" class="st182" width="16.27" height="16.88"/>
	<rect x="162.69" y="50.65" class="st176" width="16.27" height="16.88"/>
	<rect x="146.42" y="50.65" class="st176" width="16.27" height="16.88"/>
	<rect x="130.15" y="50.65" class="st176" width="16.27" height="16.88"/>
	<rect x="113.88" y="50.65" class="st176" width="16.27" height="16.88"/>
	<rect x="97.62" y="50.65" class="st83" width="16.27" height="16.88"/>
	<rect x="276.58" y="33.77" class="st83" width="16.27" height="16.88"/>
	<rect x="260.31" y="33.77" class="st83" width="16.27" height="16.88"/>
	<rect x="244.04" y="33.77" class="st176" width="16.27" height="16.88"/>
	<rect x="227.77" y="33.77" class="st176" width="16.27" height="16.88"/>
	<rect x="211.5" y="33.77" class="st176" width="16.27" height="16.88"/>
	<rect x="195.23" y="33.77" class="st176" width="16.27" height="16.88"/>
	<rect x="178.96" y="33.77" class="st176" width="16.27" height="16.88"/>
	<rect x="162.69" y="33.77" class="st176" width="16.27" height="16.88"/>
	<rect x="146.42" y="33.77" class="st176" width="16.27" height="16.88"/>
	<rect x="130.15" y="33.77" class="st176" width="16.27" height="16.88"/>
	<rect x="113.88" y="33.77" class="st83" width="16.27" height="16.88"/>
	<rect x="97.62" y="33.77" class="st83" width="16.27" height="16.88"/>
	<rect x="260.31" y="16.88" class="st83" width="16.27" height="16.88"/>
	<rect x="244.04" y="16.88" class="st83" width="16.27" height="16.88"/>
	<rect x="227.77" y="16.88" class="st183" width="16.27" height="16.88"/>
	<rect x="211.5" y="16.88" class="st176" width="16.27" height="16.88"/>
	<rect x="195.23" y="16.88" class="st176" width="16.27" height="16.88"/>
	<rect x="178.96" y="16.88" class="st176" width="16.27" height="16.88"/>
	<rect x="162.69" y="16.88" class="st176" width="16.27" height="16.88"/>
	<rect x="146.42" y="16.88" class="st83" width="16.27" height="16.88"/>
	<rect x="130.15" y="16.88" class="st83" width="16.27" height="16.88"/>
	<rect x="113.88" y="16.88" class="st83" width="16.27" height="16.88"/>
	<rect x="227.77" class="st83" width="16.27" height="16.88"/>
	<rect x="211.5" class="st83" width="16.27" height="16.88"/>
	<rect x="195.23" class="st83" width="16.27" height="16.88"/>
	<rect x="178.96" class="st83" width="16.27" height="16.88"/>
	<rect x="162.69" class="st83" width="16.27" height="16.88"/>
	<rect x="146.42" class="st83" width="16.27" height="16.88"/>
</g>
</svg>
