<svg xmlns="http://www.w3.org/2000/svg" width="164.8" height="141.16" viewBox="0 0 164.8 141.16"><g id="Layer_2" data-name="Layer 2"><g id="items"><g id="Armor"><path d="M158.89,17.74V11.82H153V5.91H141.16V0H23.65V5.91H11.82v5.91H5.91v5.92H0V58.39H5.91V64.3H17.74v5.91h5.91v30.3H17.74v22.91h5.91v5.91h5.91v5.91h5.91v5.92H58.38v-5.92H64.3v-5.91h5.91v-5.91h5.91v-5.91H88.68v5.91h5.91v5.91h5.92v5.91h5.91v5.92h22.91v-5.92h5.91v-5.91h5.92v-5.91h5.91V100.51h-5.91V70.21h5.91V64.3h11.82V58.39h5.91V17.74ZM147.8,41.39h-5.91V47.3H130.07v5.91h-5.91V76.86h-5.92v5.91h-5.91v22.91h5.91v5.92h5.92v.73h-5.92v5.91h-.73v-5.91h-5.92v-5.91h-5.91v-5.91H59.12v5.91H53.21v5.91H47.3v5.91h-.74v-5.91H40.65v-.73h5.91v-5.92h5.91V82.77H46.56V76.86H40.65V53.21H34.74V47.3H22.91V41.39H17V34.74h5.91V28.82h5.91V22.91H40.65V17h83.51v5.91H136v5.91h5.91v5.92h5.91Z" fill="#fff"/><g id="Armor-2" data-name="Armor"><rect x="150.39" y="43.97" width="5.91" height="5.91" fill="#1b0003"/><rect x="150.39" y="38.06" width="5.91" height="5.91" fill="#1b0003"/><rect x="150.39" y="32.15" width="5.91" height="5.91" fill="#1b0003"/><rect x="150.39" y="26.24" width="5.91" height="5.91" fill="#1b0003"/><rect x="144.48" y="49.89" width="5.91" height="5.91" fill="#1b0003"/><rect x="144.48" y="43.97" width="5.91" height="5.91" fill="#85a1c9"/><rect x="144.48" y="38.06" width="5.91" height="5.91" fill="#e3f7ff"/><rect x="144.48" y="32.15" width="5.91" height="5.91" fill="#e3f7ff"/><rect x="144.48" y="26.24" width="5.91" height="5.91" fill="#fff"/><rect x="144.48" y="20.32" width="5.91" height="5.91" fill="#1b0003"/><rect x="138.57" y="49.89" width="5.91" height="5.91" fill="#1b0003"/><rect x="138.57" y="43.97" width="5.91" height="5.91" fill="#85a1c9"/><rect x="138.57" y="38.06" width="5.91" height="5.91" fill="#e3f7ff"/><rect x="138.57" y="32.15" width="5.91" height="5.91" fill="#e3f7ff"/><rect x="138.57" y="26.24" width="5.91" height="5.91" fill="#fff"/><rect x="138.57" y="20.32" width="5.91" height="5.91" fill="#fff"/><rect x="138.57" y="14.41" width="5.91" height="5.91" fill="#1b0003"/><rect x="132.66" y="109.01" width="5.91" height="5.91" fill="#1b0003"/><rect x="132.66" y="55.8" width="5.91" height="5.91" fill="#1b0003"/><rect x="132.66" y="49.89" width="5.91" height="5.91" fill="#85a1c9"/><rect x="132.66" y="43.97" width="5.91" height="5.91" fill="#e3f7ff"/><rect x="132.66" y="38.06" width="5.91" height="5.91" fill="#e3f7ff"/><rect x="132.66" y="32.15" width="5.91" height="5.91" fill="#e3f7ff"/><rect x="132.66" y="26.24" width="5.91" height="5.91" fill="#e3f7ff"/><rect x="132.66" y="20.32" width="5.91" height="5.91" fill="#fff"/><rect x="132.66" y="14.41" width="5.91" height="5.91" fill="#1b0003"/><rect x="126.74" y="114.92" width="5.91" height="5.91" fill="#1b0003"/><rect x="126.74" y="109.01" width="5.91" height="5.91" fill="#bedbed"/><rect x="126.74" y="103.1" width="5.91" height="5.91" fill="#1b0003"/><rect x="126.74" y="79.45" width="5.91" height="5.91" fill="#1b0003"/><rect x="126.74" y="73.53" width="5.91" height="5.91" fill="#1b0003"/><rect x="126.74" y="67.62" width="5.91" height="5.91" fill="#1b0003"/><rect x="126.74" y="61.71" width="5.91" height="5.91" fill="#1b0003"/><rect x="126.74" y="55.8" width="5.91" height="5.91" fill="#1b0003"/><rect x="126.74" y="49.89" width="5.91" height="5.91" fill="#85a1c9"/><rect x="126.74" y="43.97" width="5.91" height="5.91" fill="#e3f7ff"/><rect x="126.74" y="38.06" width="5.91" height="5.91" fill="#e3f7ff"/><rect x="126.74" y="32.15" width="5.91" height="5.91" fill="#e3f7ff"/><rect x="126.74" y="26.24" width="5.91" height="5.91" fill="#e3f7ff"/><rect x="126.74" y="20.32" width="5.91" height="5.91" fill="#fff"/><rect x="126.74" y="14.41" width="5.91" height="5.91" fill="#fff"/><rect x="126.74" y="8.5" width="5.91" height="5.91" fill="#1b0003"/><rect x="120.83" y="120.83" width="5.91" height="5.91" fill="#1b0003"/><rect x="120.83" y="114.92" width="5.91" height="5.91" fill="#bedbed"/><rect x="120.83" y="109.01" width="5.91" height="5.91" fill="#bedbed"/><rect x="120.83" y="103.1" width="5.91" height="5.91" fill="#bedbed"/><rect x="120.83" y="97.18" width="5.91" height="5.91" fill="#1b0003"/><rect x="120.83" y="85.36" width="5.91" height="5.91" fill="#1b0003"/><rect x="120.83" y="79.45" width="5.91" height="5.91" fill="#bedbed"/><rect x="120.83" y="73.53" width="5.91" height="5.91" fill="#bedbed"/><rect x="120.83" y="67.62" width="5.91" height="5.91" fill="#bedbed"/><rect x="120.83" y="61.71" width="5.91" height="5.91" fill="#bedbed"/><rect x="120.83" y="55.8" width="5.91" height="5.91" fill="#bedbed"/><rect x="120.83" y="49.89" width="5.91" height="5.91" fill="#85a1c9"/><rect x="120.83" y="43.97" width="5.91" height="5.91" fill="#bedbed"/><rect x="120.83" y="38.06" width="5.91" height="5.91" fill="#bedbed"/><rect x="120.83" y="32.15" width="5.91" height="5.91" fill="#e3f7ff"/><rect x="120.83" y="26.24" width="5.91" height="5.91" fill="#e3f7ff"/><rect x="120.83" y="20.32" width="5.91" height="5.91" fill="#e3f7ff"/><rect x="120.83" y="14.41" width="5.91" height="5.91" fill="#e3f7ff"/><rect x="120.83" y="8.5" width="5.91" height="5.91" fill="#1b0003"/><rect x="114.92" y="126.74" width="5.91" height="5.91" fill="#1b0003"/><rect x="114.92" y="120.83" width="5.91" height="5.91" fill="#85a1c9"/><rect x="114.92" y="114.92" width="5.91" height="5.91" fill="#85a1c9"/><rect x="114.92" y="109.01" width="5.91" height="5.91" fill="#bedbed"/><rect x="114.92" y="103.1" width="5.91" height="5.91" fill="#223c5b"/><rect x="114.92" y="97.18" width="5.91" height="5.91" fill="#223c5b"/><rect x="114.92" y="91.27" width="5.91" height="5.91" fill="#1b0003"/><rect x="114.92" y="85.36" width="5.91" height="5.91" fill="#85a1c9"/><rect x="114.92" y="79.45" width="5.91" height="5.91" fill="#bedbed"/><rect x="114.92" y="73.53" width="5.91" height="5.91" fill="#bedbed"/><rect x="114.92" y="67.62" width="5.91" height="5.91" fill="#85a1c9"/><rect x="114.92" y="61.71" width="5.91" height="5.91" fill="#bedbed"/><rect x="114.92" y="55.8" width="5.91" height="5.91" fill="#bedbed"/><rect x="114.92" y="49.89" width="5.91" height="5.91" fill="#bedbed"/><rect x="114.92" y="43.97" width="5.91" height="5.91" fill="#bedbed"/><rect x="114.92" y="38.06" width="5.91" height="5.91" fill="#bedbed"/><rect x="114.92" y="32.15" width="5.91" height="5.91" fill="#bedbed"/><rect x="114.92" y="26.24" width="5.91" height="5.91" fill="#e3f7ff"/><rect x="114.92" y="20.32" width="5.91" height="5.91" fill="#e3f7ff"/><rect x="114.92" y="14.41" width="5.91" height="5.91" fill="#e3f7ff"/><rect x="114.92" y="8.5" width="5.91" height="5.91" fill="#1b0003"/><rect x="109.01" y="120.83" width="5.91" height="5.91" fill="#1b0003"/><rect x="109.01" y="114.92" width="5.91" height="5.91" fill="#85a1c9"/><rect x="109.01" y="109.01" width="5.91" height="5.91" fill="#85a1c9"/><rect x="109.01" y="103.1" width="5.91" height="5.91" fill="#223c5b"/><rect x="109.01" y="97.18" width="5.91" height="5.91" fill="#85a1c9"/><rect x="109.01" y="91.27" width="5.91" height="5.91" fill="#85a1c9"/><rect x="109.01" y="85.36" width="5.91" height="5.91" fill="#bedbed"/><rect x="109.01" y="79.45" width="5.91" height="5.91" fill="#bedbed"/><rect x="109.01" y="73.53" width="5.91" height="5.91" fill="#bedbed"/><rect x="109.01" y="67.62" width="5.91" height="5.91" fill="#85a1c9"/><rect x="109.01" y="61.71" width="5.91" height="5.91" fill="#fff"/><rect x="109.01" y="55.8" width="5.91" height="5.91" fill="#e3f7ff"/><rect x="109.01" y="49.89" width="5.91" height="5.91" fill="#e3f7ff"/><rect x="109.01" y="43.97" width="5.91" height="5.91" fill="#e3f7ff"/><rect x="109.01" y="38.06" width="5.91" height="5.91" fill="#e3f7ff"/><rect x="109.01" y="32.15" width="5.91" height="5.91" fill="#e3f7ff"/><rect x="109.01" y="26.24" width="5.91" height="5.91" fill="#e3f7ff"/><rect x="109.01" y="20.32" width="5.91" height="5.91" fill="#e3f7ff"/><rect x="109.01" y="14.41" width="5.91" height="5.91" fill="#e3f7ff"/><rect x="109.01" y="8.5" width="5.91" height="5.91" fill="#1b0003"/><rect x="103.09" y="114.92" width="5.91" height="5.91" fill="#1b0003"/><rect x="103.09" y="109.01" width="5.91" height="5.91" fill="#85a1c9"/><rect x="103.09" y="103.1" width="5.91" height="5.91" fill="#223c5b"/><rect x="103.09" y="97.18" width="5.91" height="5.91" fill="#85a1c9"/><rect x="103.09" y="91.27" width="5.91" height="5.91" fill="#85a1c9"/><rect x="103.09" y="85.36" width="5.91" height="5.91" fill="#bedbed"/><rect x="103.09" y="79.45" width="5.91" height="5.91" fill="#bedbed"/><rect x="103.09" y="73.53" width="5.91" height="5.91" fill="#bedbed"/><rect x="103.09" y="67.62" width="5.91" height="5.91" fill="#85a1c9"/><rect x="103.09" y="61.71" width="5.91" height="5.91" fill="#fff"/><rect x="103.09" y="55.8" width="5.91" height="5.91" fill="#e3f7ff"/><rect x="103.09" y="49.89" width="5.91" height="5.91" fill="#e3f7ff"/><rect x="103.09" y="43.97" width="5.91" height="5.91" fill="#e3f7ff"/><rect x="103.09" y="38.06" width="5.91" height="5.91" fill="#e3f7ff"/><rect x="103.09" y="32.15" width="5.91" height="5.91" fill="#e3f7ff"/><rect x="103.09" y="26.24" width="5.91" height="5.91" fill="#e3f7ff"/><rect x="103.09" y="20.32" width="5.91" height="5.91" fill="#e3f7ff"/><rect x="103.09" y="14.41" width="5.91" height="5.91" fill="#1b0003"/><rect x="103.09" y="8.5" width="5.91" height="5.91" fill="#1b0003"/><rect x="97.18" y="109.01" width="5.91" height="5.91" fill="#1b0003"/><rect x="97.18" y="103.1" width="5.91" height="5.91" fill="#1b0003"/><rect x="97.18" y="97.18" width="5.91" height="5.91" fill="#85a1c9"/><rect x="97.18" y="91.27" width="5.91" height="5.91" fill="#bedbed"/><rect x="97.18" y="85.36" width="5.91" height="5.91" fill="#bedbed"/><rect x="97.18" y="79.45" width="5.91" height="5.91" fill="#bedbed"/><rect x="97.18" y="73.53" width="5.91" height="5.91" fill="#bedbed"/><rect x="97.18" y="67.62" width="5.91" height="5.91" fill="#85a1c9"/><rect x="97.18" y="61.71" width="5.91" height="5.91" fill="#fff"/><rect x="97.18" y="55.8" width="5.91" height="5.91" fill="#e3f7ff"/><rect x="97.18" y="49.89" width="5.91" height="5.91" fill="#e3f7ff"/><rect x="97.18" y="43.97" width="5.91" height="5.91" fill="#e3f7ff"/><rect x="97.18" y="38.06" width="5.91" height="5.91" fill="#e3f7ff"/><rect x="97.18" y="32.15" width="5.91" height="5.91" fill="#e3f7ff"/><rect x="97.18" y="26.24" width="5.91" height="5.91" fill="#e3f7ff"/><rect x="97.18" y="20.32" width="5.91" height="5.91" fill="#1b0003"/><rect x="97.18" y="14.41" width="5.91" height="5.91" fill="#1b0003"/><rect x="97.18" y="8.5" width="5.91" height="5.91" fill="#1b0003"/><rect x="91.27" y="103.1" width="5.91" height="5.91" fill="#1b0003"/><rect x="91.27" y="97.18" width="5.91" height="5.91" fill="#85a1c9"/><rect x="91.27" y="91.27" width="5.91" height="5.91" fill="#bedbed"/><rect x="91.27" y="85.36" width="5.91" height="5.91" fill="#bedbed"/><rect x="91.27" y="79.45" width="5.91" height="5.91" fill="#bedbed"/><rect x="91.27" y="73.53" width="5.91" height="5.91" fill="#85a1c9"/><rect x="91.27" y="67.62" width="5.91" height="5.91" fill="#fff"/><rect x="91.27" y="61.71" width="5.91" height="5.91" fill="#e3f7ff"/><rect x="91.27" y="55.8" width="5.91" height="5.91" fill="#e3f7ff"/><rect x="91.27" y="49.89" width="5.91" height="5.91" fill="#e3f7ff"/><rect x="91.27" y="43.97" width="5.91" height="5.91" fill="#e3f7ff"/><rect x="91.27" y="38.06" width="5.91" height="5.91" fill="#e3f7ff"/><rect x="91.27" y="32.15" width="5.91" height="5.91" fill="#e3f7ff"/><rect x="91.27" y="26.24" width="5.91" height="5.91" fill="#e3f7ff"/><rect x="91.27" y="20.32" width="5.91" height="5.91" fill="#1b0003"/><rect x="91.27" y="14.41" width="5.91" height="5.91" fill="#1b0003"/><rect x="91.27" y="8.5" width="5.91" height="5.91" fill="#1b0003"/><rect x="85.36" y="103.1" width="5.91" height="5.91" fill="#1b0003"/><rect x="85.36" y="97.18" width="5.91" height="5.91" fill="#85a1c9"/><rect x="85.36" y="91.27" width="5.91" height="5.91" fill="#bedbed"/><rect x="85.36" y="85.36" width="5.91" height="5.91" fill="#bedbed"/><rect x="85.36" y="79.45" width="5.91" height="5.91" fill="#bedbed"/><rect x="85.36" y="73.53" width="5.91" height="5.91" fill="#85a1c9"/><rect x="85.36" y="67.62" width="5.91" height="5.91" fill="#fff"/><rect x="85.36" y="61.71" width="5.91" height="5.91" fill="#e3f7ff"/><rect x="85.36" y="55.8" width="5.91" height="5.91" fill="#e3f7ff"/><rect x="85.36" y="49.89" width="5.91" height="5.91" fill="#e3f7ff"/><rect x="85.36" y="43.97" width="5.91" height="5.91" fill="#e3f7ff"/><rect x="85.36" y="38.06" width="5.91" height="5.91" fill="#e3f7ff"/><rect x="85.36" y="32.15" width="5.91" height="5.91" fill="#e3f7ff"/><rect x="85.36" y="26.24" width="5.91" height="5.91" fill="#e3f7ff"/><rect x="85.36" y="20.32" width="5.91" height="5.91" fill="#1b0003"/><rect x="85.36" y="14.41" width="5.91" height="5.91" fill="#1b0003"/><rect x="85.36" y="8.5" width="5.91" height="5.91" fill="#1b0003"/><rect x="79.45" y="103.1" width="5.91" height="5.91" fill="#1b0003"/><rect x="79.45" y="97.18" width="5.91" height="5.91" fill="#85a1c9"/><rect x="79.45" y="91.27" width="5.91" height="5.91" fill="#bedbed"/><rect x="79.45" y="85.36" width="5.91" height="5.91" fill="#bedbed"/><rect x="79.45" y="79.45" width="5.91" height="5.91" fill="#bedbed"/><rect x="79.45" y="73.53" width="5.91" height="5.91" fill="#85a1c9"/><rect x="79.45" y="67.62" width="5.91" height="5.91" fill="#fff"/><rect x="79.45" y="61.71" width="5.91" height="5.91" fill="#e3f7ff"/><rect x="79.45" y="55.8" width="5.91" height="5.91" fill="#e3f7ff"/><rect x="79.45" y="49.89" width="5.91" height="5.91" fill="#e3f7ff"/><rect x="79.45" y="43.97" width="5.91" height="5.91" fill="#e3f7ff"/><rect x="79.45" y="38.06" width="5.91" height="5.91" fill="#e3f7ff"/><rect x="79.45" y="32.15" width="5.91" height="5.91" fill="#e3f7ff"/><rect x="79.45" y="26.24" width="5.91" height="5.91" fill="#e3f7ff"/><rect x="79.45" y="20.32" width="5.91" height="5.91" fill="#1b0003"/><rect x="79.45" y="14.41" width="5.91" height="5.91" fill="#1b0003"/><rect x="79.45" y="8.5" width="5.91" height="5.91" fill="#1b0003"/><rect x="73.53" y="103.1" width="5.91" height="5.91" fill="#1b0003"/><rect x="73.53" y="97.18" width="5.91" height="5.91" fill="#85a1c9"/><rect x="73.53" y="91.27" width="5.91" height="5.91" fill="#bedbed"/><rect x="73.53" y="85.36" width="5.91" height="5.91" fill="#bedbed"/><rect x="73.53" y="79.45" width="5.91" height="5.91" fill="#bedbed"/><rect x="73.53" y="73.53" width="5.91" height="5.91" fill="#85a1c9"/><rect x="73.53" y="67.62" width="5.91" height="5.91" fill="#fff"/><rect x="73.53" y="61.71" width="5.91" height="5.91" fill="#e3f7ff"/><rect x="73.53" y="55.8" width="5.91" height="5.91" fill="#e3f7ff"/><rect x="73.53" y="49.89" width="5.91" height="5.91" fill="#e3f7ff"/><rect x="73.53" y="43.97" width="5.91" height="5.91" fill="#e3f7ff"/><rect x="73.53" y="38.06" width="5.91" height="5.91" fill="#e3f7ff"/><rect x="73.53" y="32.15" width="5.91" height="5.91" fill="#e3f7ff"/><rect x="73.53" y="26.24" width="5.91" height="5.91" fill="#e3f7ff"/><rect x="73.53" y="20.32" width="5.91" height="5.91" fill="#1b0003"/><rect x="73.53" y="14.41" width="5.91" height="5.91" fill="#1b0003"/><rect x="73.53" y="8.5" width="5.91" height="5.91" fill="#1b0003"/><rect x="67.62" y="103.1" width="5.91" height="5.91" fill="#1b0003"/><rect x="67.62" y="97.18" width="5.91" height="5.91" fill="#85a1c9"/><rect x="67.62" y="91.27" width="5.91" height="5.91" fill="#bedbed"/><rect x="67.62" y="85.36" width="5.91" height="5.91" fill="#bedbed"/><rect x="67.62" y="79.45" width="5.91" height="5.91" fill="#bedbed"/><rect x="67.62" y="73.53" width="5.91" height="5.91" fill="#85a1c9"/><rect x="67.62" y="67.62" width="5.91" height="5.91" fill="#fff"/><rect x="67.62" y="61.71" width="5.91" height="5.91" fill="#e3f7ff"/><rect x="67.62" y="55.8" width="5.91" height="5.91" fill="#e3f7ff"/><rect x="67.62" y="49.89" width="5.91" height="5.91" fill="#e3f7ff"/><rect x="67.62" y="43.97" width="5.91" height="5.91" fill="#e3f7ff"/><rect x="67.62" y="38.06" width="5.91" height="5.91" fill="#e3f7ff"/><rect x="67.62" y="32.15" width="5.91" height="5.91" fill="#e3f7ff"/><rect x="67.62" y="26.24" width="5.91" height="5.91" fill="#e3f7ff"/><rect x="67.62" y="20.32" width="5.91" height="5.91" fill="#1b0003"/><rect x="67.62" y="14.41" width="5.91" height="5.91" fill="#1b0003"/><rect x="67.62" y="8.5" width="5.91" height="5.91" fill="#1b0003"/><rect x="61.71" y="109.01" width="5.91" height="5.91" fill="#1b0003"/><rect x="61.71" y="103.1" width="5.91" height="5.91" fill="#1b0003"/><rect x="61.71" y="97.18" width="5.91" height="5.91" fill="#85a1c9"/><rect x="61.71" y="91.27" width="5.91" height="5.91" fill="#bedbed"/><rect x="61.71" y="85.36" width="5.91" height="5.91" fill="#bedbed"/><rect x="61.71" y="79.45" width="5.91" height="5.91" fill="#bedbed"/><rect x="61.71" y="73.53" width="5.91" height="5.91" fill="#85a1c9"/><rect x="61.71" y="67.62" width="5.91" height="5.91" fill="#fff"/><rect x="61.71" y="61.71" width="5.91" height="5.91" fill="#fff"/><rect x="61.71" y="55.8" width="5.91" height="5.91" fill="#e3f7ff"/><rect x="61.71" y="49.89" width="5.91" height="5.91" fill="#e3f7ff"/><rect x="61.71" y="43.97" width="5.91" height="5.91" fill="#e3f7ff"/><rect x="61.71" y="38.06" width="5.91" height="5.91" fill="#e3f7ff"/><rect x="61.71" y="32.15" width="5.91" height="5.91" fill="#e3f7ff"/><rect x="61.71" y="26.24" width="5.91" height="5.91" fill="#e3f7ff"/><rect x="61.71" y="20.32" width="5.91" height="5.91" fill="#1b0003"/><rect x="61.71" y="14.41" width="5.91" height="5.91" fill="#1b0003"/><rect x="61.71" y="8.5" width="5.91" height="5.91" fill="#1b0003"/><rect x="55.8" y="114.92" width="5.91" height="5.91" fill="#1b0003"/><rect x="55.8" y="109.01" width="5.91" height="5.91" fill="#85a1c9"/><rect x="55.8" y="103.1" width="5.91" height="5.91" fill="#223c5b"/><rect x="55.8" y="97.18" width="5.91" height="5.91" fill="#85a1c9"/><rect x="55.8" y="91.27" width="5.91" height="5.91" fill="#85a1c9"/><rect x="55.8" y="85.36" width="5.91" height="5.91" fill="#bedbed"/><rect x="55.8" y="79.45" width="5.91" height="5.91" fill="#bedbed"/><rect x="55.8" y="73.53" width="5.91" height="5.91" fill="#bedbed"/><rect x="55.8" y="67.62" width="5.91" height="5.91" fill="#85a1c9"/><rect x="55.8" y="61.71" width="5.91" height="5.91" fill="#fff"/><rect x="55.8" y="55.8" width="5.91" height="5.91" fill="#e3f7ff"/><rect x="55.8" y="49.89" width="5.91" height="5.91" fill="#e3f7ff"/><rect x="55.8" y="43.97" width="5.91" height="5.91" fill="#e3f7ff"/><rect x="55.8" y="38.06" width="5.91" height="5.91" fill="#e3f7ff"/><rect x="55.8" y="32.15" width="5.91" height="5.91" fill="#e3f7ff"/><rect x="55.8" y="26.24" width="5.91" height="5.91" fill="#e3f7ff"/><rect x="55.8" y="20.32" width="5.91" height="5.91" fill="#e3f7ff"/><rect x="55.8" y="14.41" width="5.91" height="5.91" fill="#1b0003"/><rect x="55.8" y="8.5" width="5.91" height="5.91" fill="#1b0003"/><rect x="49.88" y="120.83" width="5.91" height="5.91" fill="#1b0003"/><rect x="49.88" y="114.92" width="5.91" height="5.91" fill="#85a1c9"/><rect x="49.88" y="109.01" width="5.91" height="5.91" fill="#85a1c9"/><rect x="49.88" y="103.1" width="5.91" height="5.91" fill="#223c5b"/><rect x="49.88" y="97.18" width="5.91" height="5.91" fill="#85a1c9"/><rect x="49.88" y="91.27" width="5.91" height="5.91" fill="#85a1c9"/><rect x="49.88" y="85.36" width="5.91" height="5.91" fill="#bedbed"/><rect x="49.88" y="79.45" width="5.91" height="5.91" fill="#bedbed"/><rect x="49.88" y="73.53" width="5.91" height="5.91" fill="#bedbed"/><rect x="49.88" y="67.62" width="5.91" height="5.91" fill="#85a1c9"/><rect x="49.88" y="61.71" width="5.91" height="5.91" fill="#fff"/><rect x="49.88" y="55.8" width="5.91" height="5.91" fill="#e3f7ff"/><rect x="49.88" y="49.89" width="5.91" height="5.91" fill="#e3f7ff"/><rect x="49.88" y="43.97" width="5.91" height="5.91" fill="#e3f7ff"/><rect x="49.88" y="38.06" width="5.91" height="5.91" fill="#e3f7ff"/><rect x="49.88" y="32.15" width="5.91" height="5.91" fill="#e3f7ff"/><rect x="49.88" y="26.24" width="5.91" height="5.91" fill="#e3f7ff"/><rect x="49.88" y="20.32" width="5.91" height="5.91" fill="#e3f7ff"/><rect x="49.88" y="14.41" width="5.91" height="5.91" fill="#e3f7ff"/><rect x="49.88" y="8.5" width="5.91" height="5.91" fill="#1b0003"/><rect x="43.97" y="126.74" width="5.91" height="5.91" fill="#1b0003"/><rect x="43.97" y="120.83" width="5.91" height="5.91" fill="#85a1c9"/><rect x="43.97" y="114.92" width="5.91" height="5.91" fill="#85a1c9"/><rect x="43.97" y="109.01" width="5.91" height="5.91" fill="#bedbed"/><rect x="43.97" y="103.1" width="5.91" height="5.91" fill="#223c5b"/><rect x="43.97" y="97.18" width="5.91" height="5.91" fill="#223c5b"/><rect x="43.97" y="91.27" width="5.91" height="5.91" fill="#1b0003"/><rect x="43.97" y="85.36" width="5.91" height="5.91" fill="#85a1c9"/><rect x="43.97" y="79.45" width="5.91" height="5.91" fill="#bedbed"/><rect x="43.97" y="73.53" width="5.91" height="5.91" fill="#bedbed"/><rect x="43.97" y="67.62" width="5.91" height="5.91" fill="#85a1c9"/><rect x="43.97" y="61.71" width="5.91" height="5.91" fill="#bedbed"/><rect x="43.97" y="55.8" width="5.91" height="5.91" fill="#bedbed"/><rect x="43.97" y="49.89" width="5.91" height="5.91" fill="#bedbed"/><rect x="43.97" y="43.97" width="5.91" height="5.91" fill="#bedbed"/><rect x="43.97" y="38.06" width="5.91" height="5.91" fill="#bedbed"/><rect x="43.97" y="32.15" width="5.91" height="5.91" fill="#bedbed"/><rect x="43.97" y="26.24" width="5.91" height="5.91" fill="#e3f7ff"/><rect x="43.97" y="20.32" width="5.91" height="5.91" fill="#e3f7ff"/><rect x="43.97" y="14.41" width="5.91" height="5.91" fill="#e3f7ff"/><rect x="43.97" y="8.5" width="5.91" height="5.91" fill="#1b0003"/><rect x="38.06" y="120.83" width="5.91" height="5.91" fill="#1b0003"/><rect x="38.06" y="114.92" width="5.91" height="5.91" fill="#bedbed"/><rect x="38.06" y="109.01" width="5.91" height="5.91" fill="#bedbed"/><rect x="38.06" y="103.1" width="5.91" height="5.91" fill="#bedbed"/><rect x="38.06" y="97.18" width="5.91" height="5.91" fill="#1b0003"/><rect x="38.06" y="85.36" width="5.91" height="5.91" fill="#1b0003"/><rect x="38.06" y="79.45" width="5.91" height="5.91" fill="#bedbed"/><rect x="38.06" y="73.53" width="5.91" height="5.91" fill="#bedbed"/><rect x="38.06" y="67.62" width="5.91" height="5.91" fill="#bedbed"/><rect x="38.06" y="61.71" width="5.91" height="5.91" fill="#bedbed"/><rect x="38.06" y="55.8" width="5.91" height="5.91" fill="#bedbed"/><rect x="38.06" y="49.89" width="5.91" height="5.91" fill="#85a1c9"/><rect x="38.06" y="43.97" width="5.91" height="5.91" fill="#bedbed"/><rect x="38.06" y="38.06" width="5.91" height="5.91" fill="#e3f7ff"/><rect x="38.06" y="32.15" width="5.91" height="5.91" fill="#e3f7ff"/><rect x="38.06" y="26.24" width="5.91" height="5.91" fill="#e3f7ff"/><rect x="38.06" y="20.32" width="5.91" height="5.91" fill="#e3f7ff"/><rect x="38.06" y="14.41" width="5.91" height="5.91" fill="#e3f7ff"/><rect x="38.06" y="8.5" width="5.91" height="5.91" fill="#1b0003"/><rect x="32.15" y="114.92" width="5.91" height="5.91" fill="#1b0003"/><rect x="32.15" y="109.01" width="5.91" height="5.91" fill="#bedbed"/><rect x="32.15" y="103.1" width="5.91" height="5.91" fill="#1b0003"/><rect x="32.15" y="79.45" width="5.91" height="5.91" fill="#1b0003"/><rect x="32.15" y="73.53" width="5.91" height="5.91" fill="#1b0003"/><rect x="32.15" y="67.62" width="5.91" height="5.91" fill="#1b0003"/><rect x="32.15" y="61.71" width="5.91" height="5.91" fill="#1b0003"/><rect x="32.15" y="55.8" width="5.91" height="5.91" fill="#1b0003"/><rect x="32.15" y="49.89" width="5.91" height="5.91" fill="#85a1c9"/><rect x="32.15" y="43.97" width="5.91" height="5.91" fill="#e3f7ff"/><rect x="32.15" y="38.06" width="5.91" height="5.91" fill="#e3f7ff"/><rect x="32.15" y="32.15" width="5.91" height="5.91" fill="#e3f7ff"/><rect x="32.15" y="26.24" width="5.91" height="5.91" fill="#e3f7ff"/><rect x="32.15" y="20.32" width="5.91" height="5.91" fill="#fff"/><rect x="32.15" y="14.41" width="5.91" height="5.91" fill="#fff"/><rect x="32.15" y="8.5" width="5.91" height="5.91" fill="#1b0003"/><rect x="26.24" y="109.01" width="5.91" height="5.91" fill="#1b0003"/><rect x="26.24" y="55.8" width="5.91" height="5.91" fill="#1b0003"/><rect x="26.24" y="49.89" width="5.91" height="5.91" fill="#85a1c9"/><rect x="26.24" y="43.97" width="5.91" height="5.91" fill="#85a1c9"/><rect x="26.24" y="38.06" width="5.91" height="5.91" fill="#e3f7ff"/><rect x="26.24" y="32.15" width="5.91" height="5.91" fill="#e3f7ff"/><rect x="26.24" y="26.24" width="5.91" height="5.91" fill="#e3f7ff"/><rect x="26.24" y="20.32" width="5.91" height="5.91" fill="#fff"/><rect x="26.24" y="14.41" width="5.91" height="5.91" fill="#1b0003"/><rect x="20.32" y="49.89" width="5.91" height="5.91" fill="#1b0003"/><rect x="20.32" y="43.97" width="5.91" height="5.91" fill="#85a1c9"/><rect x="20.32" y="38.06" width="5.91" height="5.91" fill="#e3f7ff"/><rect x="20.32" y="32.15" width="5.91" height="5.91" fill="#e3f7ff"/><rect x="20.32" y="26.24" width="5.91" height="5.91" fill="#fff"/><rect x="20.32" y="20.32" width="5.91" height="5.91" fill="#fff"/><rect x="20.32" y="14.41" width="5.91" height="5.91" fill="#1b0003"/><rect x="14.41" y="49.89" width="5.91" height="5.91" fill="#1b0003"/><rect x="14.41" y="43.97" width="5.91" height="5.91" fill="#85a1c9"/><rect x="14.41" y="38.06" width="5.91" height="5.91" fill="#e3f7ff"/><rect x="14.41" y="32.15" width="5.91" height="5.91" fill="#e3f7ff"/><rect x="14.41" y="26.24" width="5.91" height="5.91" fill="#fff"/><rect x="14.41" y="20.32" width="5.91" height="5.91" fill="#1b0003"/><rect x="8.5" y="43.97" width="5.91" height="5.91" fill="#1b0003"/><rect x="8.5" y="38.06" width="5.91" height="5.91" fill="#1b0003"/><rect x="8.5" y="32.15" width="5.91" height="5.91" fill="#1b0003"/><rect x="8.5" y="26.24" width="5.91" height="5.91" fill="#1b0003"/></g></g></g></g></svg>