<svg xmlns="http://www.w3.org/2000/svg" width="149.19" height="136.39" viewBox="0 0 149.19 136.39"><g id="Layer_2" data-name="Layer 2"><g id="items"><g id="Black_Key" data-name="Black Key"><path d="M42.58,136.39H21.32v-4.26H17.06v-4.26H12.79V123.6H8.53v-4.26H4.26v-4.27H0V93.81H4.26V89.55H8.53V85.28h4.26V81h4.27V76.75h4.26V72.49h4.26V68.23h4.27V64h4.26V59.7H55.38V64H59.7V59.7H64V55.43h4.27V21.32l4.26,0v-8.5h4.26V8.53H81V4.26h8.53V0h38.32l0,4.26h8.5V8.53h4.27v4.26h4.26v8.53h4.27V59.64l-4.27,0v8.5h-4.26v4.26h-4.27V76.7h-8.52V81H93.75v4.27H89.49v4.26H85.23v4.26H81V98H76.7v4.26H72.43v4.27H68.17v4.26H63.9v4.26H59.64v4.27H55.38v4.26H51.11v4.27H46.85v4.26H42.58Zm0-34h.06l-.06-.06Zm12.8-12.79h0l0-.06ZM106.55,64h4.32l0-.06h-4.29ZM89.49,59.7h.06v-.06Zm17.06-12.8h4.32V42.64l4.26,0V38.32h-4.26l0-4.26h-4.29v4.26l-4.27,0v4.29h4.27Zm25.58-4.26.06,0V38.32l-.06,0Zm-46.9,0,0,0V38.32l0,0Zm21.32-25.58h4.32l0-.06h-4.29Z" fill="#fff"/><g id="Black_Key-2" data-name="Black Key"><rect x="8.5" y="102.31" width="4.26" height="4.26" fill="#1b0003"/><rect x="12.76" y="106.57" width="4.26" height="4.26" fill="#1b0003"/><rect x="12.76" y="102.31" width="4.26" height="4.26" fill="#222230"/><rect x="12.76" y="98.05" width="4.26" height="4.26" fill="#1b0003"/><rect x="17.03" y="110.84" width="4.26" height="4.26" fill="#1b0003"/><rect x="17.03" y="106.57" width="4.26" height="4.26" fill="#222230"/><rect x="17.03" y="102.31" width="4.26" height="4.26" fill="#5a5970"/><rect x="17.03" y="98.05" width="4.26" height="4.26" fill="#878796"/><rect x="17.03" y="93.78" width="4.26" height="4.26" fill="#1b0003"/><rect x="21.29" y="115.1" width="4.26" height="4.26" fill="#1b0003"/><rect x="21.29" y="110.84" width="4.26" height="4.26" fill="#222230"/><rect x="21.29" y="106.57" width="4.26" height="4.26" fill="#5a5970"/><rect x="21.29" y="102.31" width="4.26" height="4.26" fill="#878796"/><rect x="21.29" y="98.05" width="4.26" height="4.26" fill="#1b0003"/><rect x="21.29" y="89.52" width="4.26" height="4.26" fill="#1b0003"/><rect x="25.56" y="119.37" width="4.26" height="4.26" fill="#1b0003"/><rect x="25.56" y="115.1" width="4.26" height="4.26" fill="#222230"/><rect x="25.56" y="110.84" width="4.26" height="4.26" fill="#5a5970"/><rect x="25.56" y="106.57" width="4.26" height="4.26" fill="#878796"/><rect x="25.56" y="102.31" width="4.26" height="4.26" fill="#1b0003"/><rect x="25.56" y="93.78" width="4.26" height="4.26" fill="#1b0003"/><rect x="25.56" y="89.52" width="4.26" height="4.26" fill="#222230"/><rect x="25.56" y="85.25" width="4.26" height="4.26" fill="#1b0003"/><rect x="29.82" y="123.63" width="4.26" height="4.26" fill="#1b0003"/><rect x="29.82" y="119.37" width="4.26" height="4.26" fill="#222230"/><rect x="29.82" y="115.1" width="4.26" height="4.26" fill="#222230"/><rect x="29.82" y="110.84" width="4.26" height="4.26" fill="#5a5970"/><rect x="29.82" y="106.57" width="4.26" height="4.26" fill="#1b0003"/><rect x="29.82" y="98.05" width="4.26" height="4.26" fill="#1b0003"/><rect x="29.82" y="93.78" width="4.26" height="4.26" fill="#222230"/><rect x="29.82" y="89.52" width="4.26" height="4.26" fill="#5a5970"/><rect x="29.82" y="85.25" width="4.26" height="4.26" fill="#878796"/><rect x="29.82" y="80.99" width="4.26" height="4.26" fill="#1b0003"/><rect x="34.08" y="119.37" width="4.26" height="4.26" fill="#1b0003"/><rect x="34.08" y="115.1" width="4.26" height="4.26" fill="#222230"/><rect x="34.08" y="110.84" width="4.26" height="4.26" fill="#222230"/><rect x="34.08" y="106.57" width="4.26" height="4.26" fill="#5a5970"/><rect x="34.08" y="102.31" width="4.26" height="4.26" fill="#1b0003"/><rect x="34.08" y="98.05" width="4.26" height="4.26" fill="#222230"/><rect x="34.08" y="93.78" width="4.26" height="4.26" fill="#5a5970"/><rect x="34.08" y="89.52" width="4.26" height="4.26" fill="#878796"/><rect x="34.08" y="85.25" width="4.26" height="4.26" fill="#1b0003"/><rect x="34.08" y="76.73" width="4.26" height="4.26" fill="#1b0003"/><rect x="38.35" y="115.1" width="4.26" height="4.26" fill="#1b0003"/><rect x="38.35" y="110.84" width="4.26" height="4.26" fill="#222230"/><rect x="38.35" y="106.57" width="4.26" height="4.26" fill="#222230"/><rect x="38.35" y="102.31" width="4.26" height="4.26" fill="#222230"/><rect x="38.35" y="98.05" width="4.26" height="4.26" fill="#5a5970"/><rect x="38.35" y="93.78" width="4.26" height="4.26" fill="#878796"/><rect x="38.35" y="89.52" width="4.26" height="4.26" fill="#1b0003"/><rect x="38.35" y="80.99" width="4.26" height="4.26" fill="#1b0003"/><rect x="38.35" y="76.73" width="4.26" height="4.26" fill="#222230"/><rect x="38.35" y="72.46" width="4.26" height="4.26" fill="#1b0003"/><rect x="42.61" y="110.84" width="4.26" height="4.26" fill="#1b0003"/><rect x="42.61" y="106.57" width="4.26" height="4.26" fill="#222230"/><rect x="42.61" y="102.31" width="4.26" height="4.26" fill="#222230"/><rect x="42.61" y="98.05" width="4.26" height="4.26" fill="#5a5970"/><rect x="42.61" y="93.78" width="4.26" height="4.26" fill="#1b0003"/><rect x="42.61" y="85.25" width="4.26" height="4.26" fill="#1b0003"/><rect x="42.61" y="80.99" width="4.26" height="4.26" fill="#222230"/><rect x="42.61" y="76.73" width="4.26" height="4.26" fill="#5a5970"/><rect x="42.61" y="72.46" width="4.26" height="4.26" fill="#878796"/><rect x="42.61" y="68.2" width="4.26" height="4.26" fill="#1b0003"/><rect x="46.88" y="106.57" width="4.26" height="4.26" fill="#1b0003"/><rect x="46.88" y="102.31" width="4.26" height="4.26" fill="#222230"/><rect x="46.88" y="98.05" width="4.26" height="4.26" fill="#222230"/><rect x="46.88" y="93.78" width="4.26" height="4.26" fill="#5a5970"/><rect x="46.88" y="89.52" width="4.26" height="4.26" fill="#1b0003"/><rect x="46.88" y="85.25" width="4.26" height="4.26" fill="#222230"/><rect x="46.88" y="80.99" width="4.26" height="4.26" fill="#5a5970"/><rect x="46.88" y="76.73" width="4.26" height="4.26" fill="#878796"/><rect x="46.88" y="72.46" width="4.26" height="4.26" fill="#1b0003"/><rect x="51.14" y="102.31" width="4.26" height="4.26" fill="#1b0003"/><rect x="51.14" y="98.05" width="4.26" height="4.26" fill="#222230"/><rect x="51.14" y="93.78" width="4.26" height="4.26" fill="#222230"/><rect x="51.14" y="89.52" width="4.26" height="4.26" fill="#222230"/><rect x="51.14" y="85.25" width="4.26" height="4.26" fill="#5a5970"/><rect x="51.14" y="80.99" width="4.26" height="4.26" fill="#878796"/><rect x="51.14" y="76.73" width="4.26" height="4.26" fill="#1b0003"/><rect x="55.41" y="98.05" width="4.26" height="4.26" fill="#1b0003"/><rect x="55.41" y="93.78" width="4.26" height="4.26" fill="#222230"/><rect x="55.41" y="89.52" width="4.26" height="4.26" fill="#222230"/><rect x="55.41" y="85.25" width="4.26" height="4.26" fill="#5a5970"/><rect x="55.41" y="80.99" width="4.26" height="4.26" fill="#1b0003"/><rect x="59.67" y="93.78" width="4.26" height="4.26" fill="#1b0003"/><rect x="59.67" y="89.52" width="4.26" height="4.26" fill="#222230"/><rect x="59.67" y="85.25" width="4.26" height="4.26" fill="#222230"/><rect x="59.67" y="80.99" width="4.26" height="4.26" fill="#5a5970"/><rect x="59.67" y="76.73" width="4.26" height="4.26" fill="#1b0003"/><rect x="63.93" y="89.52" width="4.26" height="4.26" fill="#1b0003"/><rect x="63.93" y="85.25" width="4.26" height="4.26" fill="#222230"/><rect x="63.93" y="80.99" width="4.26" height="4.26" fill="#222230"/><rect x="63.93" y="76.73" width="4.26" height="4.26" fill="#5a5970"/><rect x="63.93" y="72.46" width="4.26" height="4.26" fill="#1b0003"/><rect x="68.2" y="85.25" width="4.26" height="4.26" fill="#1b0003"/><rect x="68.2" y="80.99" width="4.26" height="4.26" fill="#222230"/><rect x="68.2" y="76.73" width="4.26" height="4.26" fill="#222230"/><rect x="68.2" y="72.46" width="4.26" height="4.26" fill="#5a5970"/><rect x="68.2" y="68.2" width="4.26" height="4.26" fill="#1b0003"/><rect x="72.46" y="80.99" width="4.26" height="4.26" fill="#1b0003"/><rect x="72.46" y="76.73" width="4.26" height="4.26" fill="#222230"/><rect x="72.46" y="72.46" width="4.26" height="4.26" fill="#222230"/><rect x="72.46" y="68.2" width="4.26" height="4.26" fill="#878796"/><rect x="72.46" y="63.93" width="4.26" height="4.26" fill="#1b0003"/><rect x="76.73" y="76.73" width="4.26" height="4.26" fill="#1b0003"/><rect x="76.73" y="72.46" width="4.26" height="4.26" fill="#222230"/><rect x="76.73" y="68.2" width="4.26" height="4.26" fill="#222230"/><rect x="76.73" y="63.93" width="4.26" height="4.26" fill="#878796"/><rect x="76.73" y="59.67" width="4.26" height="4.26" fill="#1b0003"/><rect x="76.73" y="46.88" width="4.26" height="4.26" fill="#1b0003"/><rect x="76.73" y="42.61" width="4.26" height="4.26" fill="#1b0003"/><rect x="76.73" y="38.35" width="4.26" height="4.26" fill="#1b0003"/><rect x="76.73" y="34.08" width="4.26" height="4.26" fill="#1b0003"/><rect x="76.73" y="29.82" width="4.26" height="4.26" fill="#1b0003"/><rect x="80.99" y="72.46" width="4.26" height="4.26" fill="#1b0003"/><rect x="80.99" y="68.2" width="4.26" height="4.26" fill="#222230"/><rect x="80.99" y="63.93" width="4.26" height="4.26" fill="#222230"/><rect x="80.99" y="59.67" width="4.26" height="4.26" fill="#878796"/><rect x="80.99" y="55.4" width="4.26" height="4.26" fill="#1b0003"/><rect x="80.99" y="51.14" width="4.26" height="4.26" fill="#1b0003"/><rect x="80.99" y="46.88" width="4.26" height="4.26" fill="#222230"/><rect x="80.99" y="42.61" width="4.26" height="4.26" fill="#222230"/><rect x="80.99" y="38.35" width="4.26" height="4.26" fill="#222230"/><rect x="80.99" y="34.08" width="4.26" height="4.26" fill="#5a5970"/><rect x="80.99" y="29.82" width="4.26" height="4.26" fill="#5a5970"/><rect x="80.99" y="25.56" width="4.26" height="4.26" fill="#1b0003"/><rect x="80.99" y="21.29" width="4.26" height="4.26" fill="#1b0003"/><rect x="85.25" y="68.2" width="4.26" height="4.26" fill="#1b0003"/><rect x="85.25" y="63.93" width="4.26" height="4.26" fill="#222230"/><rect x="85.25" y="59.67" width="4.26" height="4.26" fill="#222230"/><rect x="85.25" y="55.4" width="4.26" height="4.26" fill="#222230"/><rect x="85.25" y="51.14" width="4.26" height="4.26" fill="#5a5970"/><rect x="85.25" y="46.88" width="4.26" height="4.26" fill="#878796"/><rect x="85.25" y="42.61" width="4.26" height="4.26" fill="#878796"/><rect x="85.25" y="38.35" width="4.26" height="4.26" fill="#878796"/><rect x="85.25" y="34.08" width="4.26" height="4.26" fill="#5a5970"/><rect x="85.25" y="29.82" width="4.26" height="4.26" fill="#5a5970"/><rect x="85.25" y="25.56" width="4.26" height="4.26" fill="#222230"/><rect x="85.25" y="21.29" width="4.26" height="4.26" fill="#222230"/><rect x="85.25" y="17.03" width="4.26" height="4.26" fill="#1b0003"/><rect x="89.52" y="63.93" width="4.26" height="4.26" fill="#1b0003"/><rect x="89.52" y="59.67" width="4.26" height="4.26" fill="#222230"/><rect x="89.52" y="55.4" width="4.26" height="4.26" fill="#222230"/><rect x="89.52" y="51.14" width="4.26" height="4.26" fill="#878796"/><rect x="89.52" y="46.88" width="4.26" height="4.26" fill="#1b0003"/><rect x="89.52" y="42.61" width="4.26" height="4.26" fill="#1b0003"/><rect x="89.52" y="38.35" width="4.26" height="4.26" fill="#1b0003"/><rect x="89.52" y="34.08" width="4.26" height="4.26" fill="#1b0003"/><rect x="89.52" y="29.82" width="4.26" height="4.26" fill="#1b0003"/><rect x="89.52" y="25.56" width="4.26" height="4.26" fill="#222230"/><rect x="89.52" y="21.29" width="4.26" height="4.26" fill="#222230"/><rect x="89.52" y="17.03" width="4.26" height="4.26" fill="#222230"/><rect x="89.52" y="12.76" width="4.26" height="4.26" fill="#1b0003"/><rect x="93.78" y="63.93" width="4.26" height="4.26" fill="#1b0003"/><rect x="93.78" y="59.67" width="4.26" height="4.26" fill="#222230"/><rect x="93.78" y="55.4" width="4.26" height="4.26" fill="#878796"/><rect x="93.78" y="51.14" width="4.26" height="4.26" fill="#1b0003"/><rect x="93.78" y="25.56" width="4.26" height="4.26" fill="#1b0003"/><rect x="93.78" y="21.29" width="4.26" height="4.26" fill="#222230"/><rect x="93.78" y="17.03" width="4.26" height="4.26" fill="#222230"/><rect x="93.78" y="12.76" width="4.26" height="4.26" fill="#1b0003"/><rect x="98.05" y="68.2" width="4.26" height="4.26" fill="#1b0003"/><rect x="98.05" y="63.93" width="4.26" height="4.26" fill="#222230"/><rect x="98.05" y="59.67" width="4.26" height="4.26" fill="#878796"/><rect x="98.05" y="55.4" width="4.26" height="4.26" fill="#1b0003"/><rect x="98.05" y="21.29" width="4.26" height="4.26" fill="#1b0003"/><rect x="98.05" y="17.03" width="4.26" height="4.26" fill="#222230"/><rect x="98.05" y="12.76" width="4.26" height="4.26" fill="#878796"/><rect x="98.05" y="8.5" width="4.26" height="4.26" fill="#1b0003"/><rect x="102.31" y="68.2" width="4.26" height="4.26" fill="#1b0003"/><rect x="102.31" y="63.93" width="4.26" height="4.26" fill="#222230"/><rect x="102.31" y="59.67" width="4.26" height="4.26" fill="#878796"/><rect x="102.31" y="55.4" width="4.26" height="4.26" fill="#1b0003"/><rect x="102.31" y="21.29" width="4.26" height="4.26" fill="#1b0003"/><rect x="102.31" y="17.03" width="4.26" height="4.26" fill="#222230"/><rect x="102.31" y="12.76" width="4.26" height="4.26" fill="#878796"/><rect x="102.31" y="8.5" width="4.26" height="4.26" fill="#1b0003"/><rect x="106.57" y="68.2" width="4.26" height="4.26" fill="#1b0003"/><rect x="106.57" y="63.93" width="4.26" height="4.26" fill="#222230"/><rect x="106.57" y="59.67" width="4.26" height="4.26" fill="#878796"/><rect x="106.57" y="55.4" width="4.26" height="4.26" fill="#1b0003"/><rect x="106.57" y="21.29" width="4.26" height="4.26" fill="#1b0003"/><rect x="106.57" y="17.03" width="4.26" height="4.26" fill="#222230"/><rect x="106.57" y="12.76" width="4.26" height="4.26" fill="#878796"/><rect x="106.57" y="8.5" width="4.26" height="4.26" fill="#1b0003"/><rect x="110.84" y="68.2" width="4.26" height="4.26" fill="#1b0003"/><rect x="110.84" y="63.93" width="4.26" height="4.26" fill="#222230"/><rect x="110.84" y="59.67" width="4.26" height="4.26" fill="#878796"/><rect x="110.84" y="55.4" width="4.26" height="4.26" fill="#1b0003"/><rect x="110.84" y="21.29" width="4.26" height="4.26" fill="#1b0003"/><rect x="110.84" y="17.03" width="4.26" height="4.26" fill="#222230"/><rect x="110.84" y="12.76" width="4.26" height="4.26" fill="#878796"/><rect x="110.84" y="8.5" width="4.26" height="4.26" fill="#1b0003"/><rect x="115.1" y="68.2" width="4.26" height="4.26" fill="#1b0003"/><rect x="115.1" y="63.93" width="4.26" height="4.26" fill="#222230"/><rect x="115.1" y="59.67" width="4.26" height="4.26" fill="#5a5970"/><rect x="115.1" y="55.4" width="4.26" height="4.26" fill="#1b0003"/><rect x="115.1" y="21.29" width="4.26" height="4.26" fill="#1b0003"/><rect x="115.1" y="17.03" width="4.26" height="4.26" fill="#222230"/><rect x="115.1" y="12.76" width="4.26" height="4.26" fill="#878796"/><rect x="115.1" y="8.5" width="4.26" height="4.26" fill="#1b0003"/><rect x="119.37" y="63.93" width="4.26" height="4.26" fill="#1b0003"/><rect x="119.37" y="59.67" width="4.26" height="4.26" fill="#5a5970"/><rect x="119.37" y="55.4" width="4.26" height="4.26" fill="#222230"/><rect x="119.37" y="51.14" width="4.26" height="4.26" fill="#1b0003"/><rect x="119.37" y="25.56" width="4.26" height="4.26" fill="#1b0003"/><rect x="119.37" y="21.29" width="4.26" height="4.26" fill="#5a5970"/><rect x="119.37" y="17.03" width="4.26" height="4.26" fill="#878796"/><rect x="119.37" y="12.76" width="4.26" height="4.26" fill="#1b0003"/><rect x="123.63" y="63.93" width="4.26" height="4.26" fill="#1b0003"/><rect x="123.63" y="59.67" width="4.26" height="4.26" fill="#5a5970"/><rect x="123.63" y="55.4" width="4.26" height="4.26" fill="#5a5970"/><rect x="123.63" y="51.14" width="4.26" height="4.26" fill="#222230"/><rect x="123.63" y="46.88" width="4.26" height="4.26" fill="#1b0003"/><rect x="123.63" y="42.61" width="4.26" height="4.26" fill="#1b0003"/><rect x="123.63" y="38.35" width="4.26" height="4.26" fill="#1b0003"/><rect x="123.63" y="34.08" width="4.26" height="4.26" fill="#1b0003"/><rect x="123.63" y="29.82" width="4.26" height="4.26" fill="#1b0003"/><rect x="123.63" y="25.56" width="4.26" height="4.26" fill="#5a5970"/><rect x="123.63" y="21.29" width="4.26" height="4.26" fill="#5a5970"/><rect x="123.63" y="17.03" width="4.26" height="4.26" fill="#878796"/><rect x="123.63" y="12.76" width="4.26" height="4.26" fill="#1b0003"/><rect x="127.89" y="59.67" width="4.26" height="4.26" fill="#1b0003"/><rect x="127.89" y="55.4" width="4.26" height="4.26" fill="#5a5970"/><rect x="127.89" y="51.14" width="4.26" height="4.26" fill="#5a5970"/><rect x="127.89" y="46.88" width="4.26" height="4.26" fill="#222230"/><rect x="127.89" y="42.61" width="4.26" height="4.26" fill="#222230"/><rect x="127.89" y="38.35" width="4.26" height="4.26" fill="#222230"/><rect x="127.89" y="34.08" width="4.26" height="4.26" fill="#222230"/><rect x="127.89" y="29.82" width="4.26" height="4.26" fill="#222230"/><rect x="127.89" y="25.56" width="4.26" height="4.26" fill="#878796"/><rect x="127.89" y="21.29" width="4.26" height="4.26" fill="#878796"/><rect x="127.89" y="17.03" width="4.26" height="4.26" fill="#1b0003"/><rect x="132.16" y="55.4" width="4.26" height="4.26" fill="#1b0003"/><rect x="132.16" y="51.14" width="4.26" height="4.26" fill="#1b0003"/><rect x="132.16" y="46.88" width="4.26" height="4.26" fill="#5a5970"/><rect x="132.16" y="42.61" width="4.26" height="4.26" fill="#5a5970"/><rect x="132.16" y="38.35" width="4.26" height="4.26" fill="#878796"/><rect x="132.16" y="34.08" width="4.26" height="4.26" fill="#878796"/><rect x="132.16" y="29.82" width="4.26" height="4.26" fill="#878796"/><rect x="132.16" y="25.56" width="4.26" height="4.26" fill="#1b0003"/><rect x="132.16" y="21.29" width="4.26" height="4.26" fill="#1b0003"/><rect x="136.42" y="46.88" width="4.26" height="4.26" fill="#1b0003"/><rect x="136.42" y="42.61" width="4.26" height="4.26" fill="#1b0003"/><rect x="136.42" y="38.35" width="4.26" height="4.26" fill="#1b0003"/><rect x="136.42" y="34.08" width="4.26" height="4.26" fill="#1b0003"/><rect x="136.42" y="29.82" width="4.26" height="4.26" fill="#1b0003"/></g></g></g></g></svg>