<svg xmlns="http://www.w3.org/2000/svg" width="115.77" height="140.46" viewBox="0 0 115.77 140.46"><g id="Layer_2" data-name="Layer 2"><g id="items"><g id="Book2"><path d="M115.77,140.46H6.17v-6.17H0V6.17H6.17V0H109.6V6.17h6.17Zm-92.6-17h75.6V23.17H92.6V17H23.17v6.17H17v94.12h6.17Z" fill="#fff"/><g id="Book_2" data-name="Book 2"><rect x="101.1" y="125.79" width="6.17" height="6.17" fill="#1b0003"/><rect x="101.1" y="119.62" width="6.17" height="6.17" fill="#1b0003"/><rect x="101.1" y="113.44" width="6.17" height="6.17" fill="#1b0003"/><rect x="101.1" y="107.27" width="6.17" height="6.17" fill="#1b0003"/><rect x="101.1" y="101.1" width="6.17" height="6.17" fill="#1b0003"/><rect x="101.1" y="94.92" width="6.17" height="6.17" fill="#1b0003"/><rect x="101.1" y="88.75" width="6.17" height="6.17" fill="#1b0003"/><rect x="101.1" y="82.58" width="6.17" height="6.17" fill="#1b0003"/><rect x="101.1" y="76.41" width="6.17" height="6.17" fill="#1b0003"/><rect x="101.1" y="70.23" width="6.17" height="6.17" fill="#1b0003"/><rect x="101.1" y="64.06" width="6.17" height="6.17" fill="#1b0003"/><rect x="101.1" y="57.89" width="6.17" height="6.17" fill="#1b0003"/><rect x="101.1" y="51.71" width="6.17" height="6.17" fill="#1b0003"/><rect x="101.1" y="45.54" width="6.17" height="6.17" fill="#1b0003"/><rect x="101.1" y="39.37" width="6.17" height="6.17" fill="#1b0003"/><rect x="101.1" y="33.19" width="6.17" height="6.17" fill="#1b0003"/><rect x="101.1" y="27.02" width="6.17" height="6.17" fill="#1b0003"/><rect x="101.1" y="20.85" width="6.17" height="6.17" fill="#1b0003"/><rect x="101.1" y="14.67" width="6.17" height="6.17" fill="#1b0003"/><rect x="94.92" y="125.79" width="6.17" height="6.17" fill="#1b0003"/><rect x="94.92" y="119.62" width="6.17" height="6.17" fill="#ea942d"/><rect x="94.92" y="113.44" width="6.17" height="6.17" fill="#1b0003"/><rect x="94.92" y="107.27" width="6.17" height="6.17" fill="#d3af9f"/><rect x="94.92" y="101.1" width="6.17" height="6.17" fill="#1b0003"/><rect x="94.92" y="94.92" width="6.17" height="6.17" fill="#ea942d"/><rect x="94.92" y="88.75" width="6.17" height="6.17" fill="#f7c45e"/><rect x="94.92" y="82.58" width="6.17" height="6.17" fill="#f7c45e"/><rect x="94.92" y="76.41" width="6.17" height="6.17" fill="#f7c45e"/><rect x="94.92" y="70.23" width="6.17" height="6.17" fill="#f7c45e"/><rect x="94.92" y="64.06" width="6.17" height="6.17" fill="#f7c45e"/><rect x="94.92" y="57.89" width="6.17" height="6.17" fill="#f7c45e"/><rect x="94.92" y="51.71" width="6.17" height="6.17" fill="#f7c45e"/><rect x="94.92" y="45.54" width="6.17" height="6.17" fill="#f7c45e"/><rect x="94.92" y="39.37" width="6.17" height="6.17" fill="#f7c45e"/><rect x="94.92" y="33.19" width="6.17" height="6.17" fill="#f7c45e"/><rect x="94.92" y="27.02" width="6.17" height="6.17" fill="#f7c45e"/><rect x="94.92" y="20.85" width="6.17" height="6.17" fill="#f7c45e"/><rect x="94.92" y="14.67" width="6.17" height="6.17" fill="#f7c45e"/><rect x="94.92" y="8.5" width="6.17" height="6.17" fill="#1b0003"/><rect x="88.75" y="125.79" width="6.17" height="6.17" fill="#1b0003"/><rect x="88.75" y="119.62" width="6.17" height="6.17" fill="#ea942d"/><rect x="88.75" y="113.44" width="6.17" height="6.17" fill="#1b0003"/><rect x="88.75" y="107.27" width="6.17" height="6.17" fill="#ead0b9"/><rect x="88.75" y="101.1" width="6.17" height="6.17" fill="#1b0003"/><rect x="88.75" y="94.92" width="6.17" height="6.17" fill="#ea942d"/><rect x="88.75" y="88.75" width="6.17" height="6.17" fill="#f7c45e"/><rect x="88.75" y="82.58" width="6.17" height="6.17" fill="#f9f2d4"/><rect x="88.75" y="76.41" width="6.17" height="6.17" fill="#f9f2d4"/><rect x="88.75" y="70.23" width="6.17" height="6.17" fill="#f9f2d4"/><rect x="88.75" y="64.06" width="6.17" height="6.17" fill="#f9f2d4"/><rect x="88.75" y="57.89" width="6.17" height="6.17" fill="#f9f2d4"/><rect x="88.75" y="51.71" width="6.17" height="6.17" fill="#f9f2d4"/><rect x="88.75" y="45.54" width="6.17" height="6.17" fill="#f9f2d4"/><rect x="88.75" y="39.37" width="6.17" height="6.17" fill="#f9f2d4"/><rect x="88.75" y="33.19" width="6.17" height="6.17" fill="#f9f2d4"/><rect x="88.75" y="27.02" width="6.17" height="6.17" fill="#f9f2d4"/><rect x="88.75" y="20.85" width="6.17" height="6.17" fill="#f9f2d4"/><rect x="88.75" y="14.67" width="6.17" height="6.17" fill="#f7c45e"/><rect x="88.75" y="8.5" width="6.17" height="6.17" fill="#1b0003"/><rect x="82.58" y="125.79" width="6.17" height="6.17" fill="#1b0003"/><rect x="82.58" y="119.62" width="6.17" height="6.17" fill="#ea942d"/><rect x="82.58" y="113.44" width="6.17" height="6.17" fill="#1b0003"/><rect x="82.58" y="107.27" width="6.17" height="6.17" fill="#ead0b9"/><rect x="82.58" y="101.1" width="6.17" height="6.17" fill="#1b0003"/><rect x="82.58" y="94.92" width="6.17" height="6.17" fill="#ea942d"/><rect x="82.58" y="88.75" width="6.17" height="6.17" fill="#f7c45e"/><rect x="82.58" y="82.58" width="6.17" height="6.17" fill="#f9f2d4"/><rect x="82.58" y="76.41" width="6.17" height="6.17" fill="#f9f2d4"/><rect x="82.58" y="70.23" width="6.17" height="6.17" fill="#f9f2d4"/><rect x="82.58" y="64.06" width="6.17" height="6.17" fill="#f9f2d4"/><rect x="82.58" y="57.89" width="6.17" height="6.17" fill="#f9f2d4"/><rect x="82.58" y="51.71" width="6.17" height="6.17" fill="#f9f2d4"/><rect x="82.58" y="45.54" width="6.17" height="6.17" fill="#f9f2d4"/><rect x="82.58" y="39.37" width="6.17" height="6.17" fill="#f9f2d4"/><rect x="82.58" y="33.19" width="6.17" height="6.17" fill="#f9f2d4"/><rect x="82.58" y="27.02" width="6.17" height="6.17" fill="#f9f2d4"/><rect x="82.58" y="20.85" width="6.17" height="6.17" fill="#f9f2d4"/><rect x="82.58" y="14.67" width="6.17" height="6.17" fill="#f7c45e"/><rect x="82.58" y="8.5" width="6.17" height="6.17" fill="#1b0003"/><rect x="76.41" y="125.79" width="6.17" height="6.17" fill="#1b0003"/><rect x="76.41" y="119.62" width="6.17" height="6.17" fill="#ea942d"/><rect x="76.41" y="113.44" width="6.17" height="6.17" fill="#1b0003"/><rect x="76.41" y="107.27" width="6.17" height="6.17" fill="#ead0b9"/><rect x="76.41" y="101.1" width="6.17" height="6.17" fill="#1b0003"/><rect x="76.41" y="94.92" width="6.17" height="6.17" fill="#ea942d"/><rect x="76.41" y="88.75" width="6.17" height="6.17" fill="#f7c45e"/><rect x="76.41" y="82.58" width="6.17" height="6.17" fill="#f9f2d4"/><rect x="76.41" y="76.41" width="6.17" height="6.17" fill="#f9f2d4"/><rect x="76.41" y="70.23" width="6.17" height="6.17" fill="#ea942d"/><rect x="76.41" y="64.06" width="6.17" height="6.17" fill="#ea942d"/><rect x="76.41" y="57.89" width="6.17" height="6.17" fill="#f9f2d4"/><rect x="76.41" y="51.71" width="6.17" height="6.17" fill="#f9f2d4"/><rect x="76.41" y="45.54" width="6.17" height="6.17" fill="#f9f2d4"/><rect x="76.41" y="39.37" width="6.17" height="6.17" fill="#f9f2d4"/><rect x="76.41" y="33.19" width="6.17" height="6.17" fill="#f9f2d4"/><rect x="76.41" y="27.02" width="6.17" height="6.17" fill="#f9f2d4"/><rect x="76.41" y="20.85" width="6.17" height="6.17" fill="#f9f2d4"/><rect x="76.41" y="14.67" width="6.17" height="6.17" fill="#f7c45e"/><rect x="76.41" y="8.5" width="6.17" height="6.17" fill="#1b0003"/><rect x="70.23" y="125.79" width="6.17" height="6.17" fill="#1b0003"/><rect x="70.23" y="119.62" width="6.17" height="6.17" fill="#ea942d"/><rect x="70.23" y="113.44" width="6.17" height="6.17" fill="#1b0003"/><rect x="70.23" y="107.27" width="6.17" height="6.17" fill="#ead0b9"/><rect x="70.23" y="101.1" width="6.17" height="6.17" fill="#1b0003"/><rect x="70.23" y="94.92" width="6.17" height="6.17" fill="#ea942d"/><rect x="70.23" y="88.75" width="6.17" height="6.17" fill="#f7c45e"/><rect x="70.23" y="82.58" width="6.17" height="6.17" fill="#f9f2d4"/><rect x="70.23" y="76.41" width="6.17" height="6.17" fill="#f9f2d4"/><rect x="70.23" y="70.23" width="6.17" height="6.17" fill="#ea942d"/><rect x="70.23" y="64.06" width="6.17" height="6.17" fill="#ea942d"/><rect x="70.23" y="57.89" width="6.17" height="6.17" fill="#f9f2d4"/><rect x="70.23" y="51.71" width="6.17" height="6.17" fill="#f9f2d4"/><rect x="70.23" y="45.54" width="6.17" height="6.17" fill="#f9f2d4"/><rect x="70.23" y="39.37" width="6.17" height="6.17" fill="#f7c45e"/><rect x="70.23" y="33.19" width="6.17" height="6.17" fill="#f9f2d4"/><rect x="70.23" y="27.02" width="6.17" height="6.17" fill="#f9f2d4"/><rect x="70.23" y="20.85" width="6.17" height="6.17" fill="#f9f2d4"/><rect x="70.23" y="14.67" width="6.17" height="6.17" fill="#f7c45e"/><rect x="70.23" y="8.5" width="6.17" height="6.17" fill="#1b0003"/><rect x="64.06" y="125.79" width="6.17" height="6.17" fill="#1b0003"/><rect x="64.06" y="119.62" width="6.17" height="6.17" fill="#ea942d"/><rect x="64.06" y="113.44" width="6.17" height="6.17" fill="#1b0003"/><rect x="64.06" y="107.27" width="6.17" height="6.17" fill="#ead0b9"/><rect x="64.06" y="101.1" width="6.17" height="6.17" fill="#1b0003"/><rect x="64.06" y="94.92" width="6.17" height="6.17" fill="#ea942d"/><rect x="64.06" y="88.75" width="6.17" height="6.17" fill="#f7c45e"/><rect x="64.06" y="82.58" width="6.17" height="6.17" fill="#f9f2d4"/><rect x="64.06" y="76.41" width="6.17" height="6.17" fill="#f9f2d4"/><rect x="64.06" y="70.23" width="6.17" height="6.17" fill="#ea942d"/><rect x="64.06" y="64.06" width="6.17" height="6.17" fill="#ea942d"/><rect x="64.06" y="57.89" width="6.17" height="6.17" fill="#f9f2d4"/><rect x="64.06" y="51.71" width="6.17" height="6.17" fill="#f9f2d4"/><rect x="64.06" y="45.54" width="6.17" height="6.17" fill="#f7c45e"/><rect x="64.06" y="39.37" width="6.17" height="6.17" fill="#f7c45e"/><rect x="64.06" y="33.19" width="6.17" height="6.17" fill="#f7c45e"/><rect x="64.06" y="27.02" width="6.17" height="6.17" fill="#f9f2d4"/><rect x="64.06" y="20.85" width="6.17" height="6.17" fill="#f9f2d4"/><rect x="64.06" y="14.67" width="6.17" height="6.17" fill="#f7c45e"/><rect x="64.06" y="8.5" width="6.17" height="6.17" fill="#1b0003"/><rect x="57.89" y="125.79" width="6.17" height="6.17" fill="#1b0003"/><rect x="57.89" y="119.62" width="6.17" height="6.17" fill="#ea942d"/><rect x="57.89" y="113.44" width="6.17" height="6.17" fill="#1b0003"/><rect x="57.89" y="107.27" width="6.17" height="6.17" fill="#f9f2d4"/><rect x="57.89" y="101.1" width="6.17" height="6.17" fill="#1b0003"/><rect x="57.89" y="94.92" width="6.17" height="6.17" fill="#ea942d"/><rect x="57.89" y="88.75" width="6.17" height="6.17" fill="#f7c45e"/><rect x="57.89" y="82.58" width="6.17" height="6.17" fill="#f9f2d4"/><rect x="57.89" y="76.41" width="6.17" height="6.17" fill="#f9f2d4"/><rect x="57.89" y="70.23" width="6.17" height="6.17" fill="#ea942d"/><rect x="57.89" y="64.06" width="6.17" height="6.17" fill="#ea942d"/><rect x="57.89" y="57.89" width="6.17" height="6.17" fill="#f9f2d4"/><rect x="57.89" y="51.71" width="6.17" height="6.17" fill="#f7c45e"/><rect x="57.89" y="45.54" width="6.17" height="6.17" fill="#f7c45e"/><rect x="57.89" y="39.37" width="6.17" height="6.17" fill="#f7c45e"/><rect x="57.89" y="33.19" width="6.17" height="6.17" fill="#f7c45e"/><rect x="57.89" y="27.02" width="6.17" height="6.17" fill="#f7c45e"/><rect x="57.89" y="20.85" width="6.17" height="6.17" fill="#f9f2d4"/><rect x="57.89" y="14.67" width="6.17" height="6.17" fill="#f7c45e"/><rect x="57.89" y="8.5" width="6.17" height="6.17" fill="#1b0003"/><rect x="51.71" y="125.79" width="6.17" height="6.17" fill="#1b0003"/><rect x="51.71" y="119.62" width="6.17" height="6.17" fill="#ea942d"/><rect x="51.71" y="113.44" width="6.17" height="6.17" fill="#1b0003"/><rect x="51.71" y="107.27" width="6.17" height="6.17" fill="#f9f2d4"/><rect x="51.71" y="101.1" width="6.17" height="6.17" fill="#1b0003"/><rect x="51.71" y="94.92" width="6.17" height="6.17" fill="#ea942d"/><rect x="51.71" y="88.75" width="6.17" height="6.17" fill="#f7c45e"/><rect x="51.71" y="82.58" width="6.17" height="6.17" fill="#f9f2d4"/><rect x="51.71" y="76.41" width="6.17" height="6.17" fill="#f9f2d4"/><rect x="51.71" y="70.23" width="6.17" height="6.17" fill="#ea942d"/><rect x="51.71" y="64.06" width="6.17" height="6.17" fill="#ea942d"/><rect x="51.71" y="57.89" width="6.17" height="6.17" fill="#f9f2d4"/><rect x="51.71" y="51.71" width="6.17" height="6.17" fill="#f9f2d4"/><rect x="51.71" y="45.54" width="6.17" height="6.17" fill="#f7c45e"/><rect x="51.71" y="39.37" width="6.17" height="6.17" fill="#f7c45e"/><rect x="51.71" y="33.19" width="6.17" height="6.17" fill="#f7c45e"/><rect x="51.71" y="27.02" width="6.17" height="6.17" fill="#f9f2d4"/><rect x="51.71" y="20.85" width="6.17" height="6.17" fill="#f9f2d4"/><rect x="51.71" y="14.67" width="6.17" height="6.17" fill="#f7c45e"/><rect x="51.71" y="8.5" width="6.17" height="6.17" fill="#1b0003"/><rect x="45.54" y="125.79" width="6.17" height="6.17" fill="#1b0003"/><rect x="45.54" y="119.62" width="6.17" height="6.17" fill="#ea942d"/><rect x="45.54" y="113.44" width="6.17" height="6.17" fill="#1b0003"/><rect x="45.54" y="107.27" width="6.17" height="6.17" fill="#f9f2d4"/><rect x="45.54" y="101.1" width="6.17" height="6.17" fill="#1b0003"/><rect x="45.54" y="94.92" width="6.17" height="6.17" fill="#ea942d"/><rect x="45.54" y="88.75" width="6.17" height="6.17" fill="#f7c45e"/><rect x="45.54" y="82.58" width="6.17" height="6.17" fill="#f9f2d4"/><rect x="45.54" y="76.41" width="6.17" height="6.17" fill="#f9f2d4"/><rect x="45.54" y="70.23" width="6.17" height="6.17" fill="#ea942d"/><rect x="45.54" y="64.06" width="6.17" height="6.17" fill="#ea942d"/><rect x="45.54" y="57.89" width="6.17" height="6.17" fill="#f9f2d4"/><rect x="45.54" y="51.71" width="6.17" height="6.17" fill="#f9f2d4"/><rect x="45.54" y="45.54" width="6.17" height="6.17" fill="#f9f2d4"/><rect x="45.54" y="39.37" width="6.17" height="6.17" fill="#f7c45e"/><rect x="45.54" y="33.19" width="6.17" height="6.17" fill="#f9f2d4"/><rect x="45.54" y="27.02" width="6.17" height="6.17" fill="#f9f2d4"/><rect x="45.54" y="20.85" width="6.17" height="6.17" fill="#f9f2d4"/><rect x="45.54" y="14.67" width="6.17" height="6.17" fill="#f7c45e"/><rect x="45.54" y="8.5" width="6.17" height="6.17" fill="#1b0003"/><rect x="39.37" y="125.79" width="6.17" height="6.17" fill="#1b0003"/><rect x="39.37" y="119.62" width="6.17" height="6.17" fill="#ea942d"/><rect x="39.37" y="113.44" width="6.17" height="6.17" fill="#1b0003"/><rect x="39.37" y="107.27" width="6.17" height="6.17" fill="#f9f2d4"/><rect x="39.37" y="101.1" width="6.17" height="6.17" fill="#1b0003"/><rect x="39.37" y="94.92" width="6.17" height="6.17" fill="#ea942d"/><rect x="39.37" y="88.75" width="6.17" height="6.17" fill="#f7c45e"/><rect x="39.37" y="82.58" width="6.17" height="6.17" fill="#f9f2d4"/><rect x="39.37" y="76.41" width="6.17" height="6.17" fill="#f9f2d4"/><rect x="39.37" y="70.23" width="6.17" height="6.17" fill="#ea942d"/><rect x="39.37" y="64.06" width="6.17" height="6.17" fill="#ea942d"/><rect x="39.37" y="57.89" width="6.17" height="6.17" fill="#f9f2d4"/><rect x="39.37" y="51.71" width="6.17" height="6.17" fill="#f9f2d4"/><rect x="39.37" y="45.54" width="6.17" height="6.17" fill="#f9f2d4"/><rect x="39.37" y="39.37" width="6.17" height="6.17" fill="#f9f2d4"/><rect x="39.37" y="33.19" width="6.17" height="6.17" fill="#f9f2d4"/><rect x="39.37" y="27.02" width="6.17" height="6.17" fill="#f9f2d4"/><rect x="39.37" y="20.85" width="6.17" height="6.17" fill="#f9f2d4"/><rect x="39.37" y="14.67" width="6.17" height="6.17" fill="#f7c45e"/><rect x="39.37" y="8.5" width="6.17" height="6.17" fill="#1b0003"/><rect x="33.19" y="125.79" width="6.17" height="6.17" fill="#1b0003"/><rect x="33.19" y="119.62" width="6.17" height="6.17" fill="#ea942d"/><rect x="33.19" y="113.44" width="6.17" height="6.17" fill="#1b0003"/><rect x="33.19" y="107.27" width="6.17" height="6.17" fill="#f9f2d4"/><rect x="33.19" y="101.1" width="6.17" height="6.17" fill="#1b0003"/><rect x="33.19" y="94.92" width="6.17" height="6.17" fill="#ea942d"/><rect x="33.19" y="88.75" width="6.17" height="6.17" fill="#f7c45e"/><rect x="33.19" y="82.58" width="6.17" height="6.17" fill="#f9f2d4"/><rect x="33.19" y="76.41" width="6.17" height="6.17" fill="#f9f2d4"/><rect x="33.19" y="70.23" width="6.17" height="6.17" fill="#f9f2d4"/><rect x="33.19" y="64.06" width="6.17" height="6.17" fill="#f9f2d4"/><rect x="33.19" y="57.89" width="6.17" height="6.17" fill="#f9f2d4"/><rect x="33.19" y="51.71" width="6.17" height="6.17" fill="#f9f2d4"/><rect x="33.19" y="45.54" width="6.17" height="6.17" fill="#f9f2d4"/><rect x="33.19" y="39.37" width="6.17" height="6.17" fill="#f9f2d4"/><rect x="33.19" y="33.19" width="6.17" height="6.17" fill="#f9f2d4"/><rect x="33.19" y="27.02" width="6.17" height="6.17" fill="#f9f2d4"/><rect x="33.19" y="20.85" width="6.17" height="6.17" fill="#f9f2d4"/><rect x="33.19" y="14.67" width="6.17" height="6.17" fill="#f7c45e"/><rect x="33.19" y="8.5" width="6.17" height="6.17" fill="#1b0003"/><rect x="27.02" y="125.79" width="6.17" height="6.17" fill="#1b0003"/><rect x="27.02" y="119.62" width="6.17" height="6.17" fill="#ea942d"/><rect x="27.02" y="113.44" width="6.17" height="6.17" fill="#1b0003"/><rect x="27.02" y="107.27" width="6.17" height="6.17" fill="#f9f2d4"/><rect x="27.02" y="101.1" width="6.17" height="6.17" fill="#1b0003"/><rect x="27.02" y="94.92" width="6.17" height="6.17" fill="#ea942d"/><rect x="27.02" y="88.75" width="6.17" height="6.17" fill="#f7c45e"/><rect x="27.02" y="82.58" width="6.17" height="6.17" fill="#f9f2d4"/><rect x="27.02" y="76.41" width="6.17" height="6.17" fill="#f9f2d4"/><rect x="27.02" y="70.23" width="6.17" height="6.17" fill="#f9f2d4"/><rect x="27.02" y="64.06" width="6.17" height="6.17" fill="#f9f2d4"/><rect x="27.02" y="57.89" width="6.17" height="6.17" fill="#f9f2d4"/><rect x="27.02" y="51.71" width="6.17" height="6.17" fill="#f9f2d4"/><rect x="27.02" y="45.54" width="6.17" height="6.17" fill="#f9f2d4"/><rect x="27.02" y="39.37" width="6.17" height="6.17" fill="#f9f2d4"/><rect x="27.02" y="33.19" width="6.17" height="6.17" fill="#f9f2d4"/><rect x="27.02" y="27.02" width="6.17" height="6.17" fill="#f9f2d4"/><rect x="27.02" y="20.85" width="6.17" height="6.17" fill="#f9f2d4"/><rect x="27.02" y="14.67" width="6.17" height="6.17" fill="#f7c45e"/><rect x="27.02" y="8.5" width="6.17" height="6.17" fill="#1b0003"/><rect x="20.85" y="125.79" width="6.17" height="6.17" fill="#1b0003"/><rect x="20.85" y="119.62" width="6.17" height="6.17" fill="#ea942d"/><rect x="20.85" y="113.44" width="6.17" height="6.17" fill="#ea942d"/><rect x="20.85" y="107.27" width="6.17" height="6.17" fill="#1b0003"/><rect x="20.85" y="101.1" width="6.17" height="6.17" fill="#ea942d"/><rect x="20.85" y="94.92" width="6.17" height="6.17" fill="#ea942d"/><rect x="20.85" y="88.75" width="6.17" height="6.17" fill="#f7c45e"/><rect x="20.85" y="82.58" width="6.17" height="6.17" fill="#f7c45e"/><rect x="20.85" y="76.41" width="6.17" height="6.17" fill="#f7c45e"/><rect x="20.85" y="70.23" width="6.17" height="6.17" fill="#f7c45e"/><rect x="20.85" y="64.06" width="6.17" height="6.17" fill="#f7c45e"/><rect x="20.85" y="57.89" width="6.17" height="6.17" fill="#f7c45e"/><rect x="20.85" y="51.71" width="6.17" height="6.17" fill="#f7c45e"/><rect x="20.85" y="45.54" width="6.17" height="6.17" fill="#f7c45e"/><rect x="20.85" y="39.37" width="6.17" height="6.17" fill="#f7c45e"/><rect x="20.85" y="33.19" width="6.17" height="6.17" fill="#f7c45e"/><rect x="20.85" y="27.02" width="6.17" height="6.17" fill="#f7c45e"/><rect x="20.85" y="20.85" width="6.17" height="6.17" fill="#f7c45e"/><rect x="20.85" y="14.67" width="6.17" height="6.17" fill="#f7c45e"/><rect x="20.85" y="8.5" width="6.17" height="6.17" fill="#1b0003"/><rect x="14.67" y="125.79" width="6.17" height="6.17" fill="#1b0003"/><rect x="14.67" y="119.62" width="6.17" height="6.17" fill="#ea942d"/><rect x="14.67" y="113.44" width="6.17" height="6.17" fill="#ea942d"/><rect x="14.67" y="107.27" width="6.17" height="6.17" fill="#ea942d"/><rect x="14.67" y="101.1" width="6.17" height="6.17" fill="#ea942d"/><rect x="14.67" y="94.92" width="6.17" height="6.17" fill="#ea942d"/><rect x="14.67" y="88.75" width="6.17" height="6.17" fill="#ea942d"/><rect x="14.67" y="82.58" width="6.17" height="6.17" fill="#ea942d"/><rect x="14.67" y="76.41" width="6.17" height="6.17" fill="#ea942d"/><rect x="14.67" y="70.23" width="6.17" height="6.17" fill="#ea942d"/><rect x="14.67" y="64.06" width="6.17" height="6.17" fill="#ea942d"/><rect x="14.67" y="57.89" width="6.17" height="6.17" fill="#ea942d"/><rect x="14.67" y="51.71" width="6.17" height="6.17" fill="#ea942d"/><rect x="14.67" y="45.54" width="6.17" height="6.17" fill="#ea942d"/><rect x="14.67" y="39.37" width="6.17" height="6.17" fill="#ea942d"/><rect x="14.67" y="33.19" width="6.17" height="6.17" fill="#ea942d"/><rect x="14.67" y="27.02" width="6.17" height="6.17" fill="#ea942d"/><rect x="14.67" y="20.85" width="6.17" height="6.17" fill="#ea942d"/><rect x="14.67" y="14.67" width="6.17" height="6.17" fill="#ea942d"/><rect x="14.67" y="8.5" width="6.17" height="6.17" fill="#1b0003"/><rect x="8.5" y="119.62" width="6.17" height="6.17" fill="#1b0003"/><rect x="8.5" y="113.44" width="6.17" height="6.17" fill="#1b0003"/><rect x="8.5" y="107.27" width="6.17" height="6.17" fill="#1b0003"/><rect x="8.5" y="101.1" width="6.17" height="6.17" fill="#1b0003"/><rect x="8.5" y="94.92" width="6.17" height="6.17" fill="#1b0003"/><rect x="8.5" y="88.75" width="6.17" height="6.17" fill="#1b0003"/><rect x="8.5" y="82.58" width="6.17" height="6.17" fill="#1b0003"/><rect x="8.5" y="76.41" width="6.17" height="6.17" fill="#1b0003"/><rect x="8.5" y="70.23" width="6.17" height="6.17" fill="#1b0003"/><rect x="8.5" y="64.06" width="6.17" height="6.17" fill="#1b0003"/><rect x="8.5" y="57.89" width="6.17" height="6.17" fill="#1b0003"/><rect x="8.5" y="51.71" width="6.17" height="6.17" fill="#1b0003"/><rect x="8.5" y="45.54" width="6.17" height="6.17" fill="#1b0003"/><rect x="8.5" y="39.37" width="6.17" height="6.17" fill="#1b0003"/><rect x="8.5" y="33.19" width="6.17" height="6.17" fill="#1b0003"/><rect x="8.5" y="27.02" width="6.17" height="6.17" fill="#1b0003"/><rect x="8.5" y="20.85" width="6.17" height="6.17" fill="#1b0003"/><rect x="8.5" y="14.67" width="6.17" height="6.17" fill="#1b0003"/></g></g></g></g></svg>