<svg xmlns="http://www.w3.org/2000/svg" width="139.61" height="139.61" viewBox="0 0 139.61 139.61"><g id="Layer_2" data-name="Layer 2"><g id="items"><g id="Bow_and_Arrow" data-name="Bow and Arrow"><path d="M103.75,0V4.72H99V9.43H87.74V4.72H33V9.43H23.58v4.72H14.15v4.71H4.72v4.72H0V50H4.72v4.72H9.43v4.71h9.43v4.72h4.72v4.72h4.71v4.71H33v11.3H28.29V89.6H18.86v4.72H14.15V99H9.43v21.72h4.72v4.72h4.71v4.71H40.58v-4.71h4.71v-4.72H50v-9.43h4.72V106.6H66v4.72h4.72V116h4.71v4.72h4.72v9.43h4.72v4.72H89.6v4.71H116V134.9h4.72v-9.44h4.71V116h4.72V106.6h4.72V51.88h-4.72V40.58h4.72V35.86h4.71V0ZM23.58,37.73H21.72V35.86h1.86ZM61.31,80.17H59.44v-.93h0v-.93h1.87Zm9.43-33H66v4.71H54.73V40.58h16Zm0-23.58H50V21.72H70.74ZM99,84.89H87.74V73.59h4.71V68.87H99Zm0-42.45H97.17v-.93h0v-.93H99Zm4.72,75.46h-1.86V116h1.86ZM117.9,89.6H116V68.88h1.87Zm4.71-70.74h-1.86V17h1.86Z" fill="#fff"/><g id="Bow_and_Arrow-2" data-name="Bow and Arrow"><rect x="126.4" y="22.65" width="4.72" height="4.72" fill="#1b0003"/><rect x="126.4" y="17.93" width="4.72" height="4.72" fill="#1b0003"/><rect x="126.4" y="13.22" width="4.72" height="4.72" fill="#1b0003"/><rect x="126.4" y="8.5" width="4.72" height="4.72" fill="#1b0003"/><rect x="121.68" y="27.36" width="4.72" height="4.72" fill="#1b0003"/><rect x="121.68" y="22.65" width="4.72" height="4.72" fill="#6a87af"/><rect x="121.68" y="17.93" width="4.72" height="4.72" fill="#6a87af"/><rect x="121.68" y="13.22" width="4.72" height="4.72" fill="#bedbed"/><rect x="121.68" y="8.5" width="4.72" height="4.72" fill="#1b0003"/><rect x="116.96" y="22.65" width="4.72" height="4.72" fill="#1b0003"/><rect x="116.96" y="17.93" width="4.72" height="4.72" fill="#85a1c9"/><rect x="116.96" y="13.22" width="4.72" height="4.72" fill="#bedbed"/><rect x="116.96" y="8.5" width="4.72" height="4.72" fill="#1b0003"/><rect x="112.25" y="27.36" width="4.72" height="4.72" fill="#1b0003"/><rect x="112.25" y="22.65" width="4.72" height="4.72" fill="#e86f3f"/><rect x="112.25" y="17.93" width="4.72" height="4.72" fill="#1b0003"/><rect x="112.25" y="13.22" width="4.72" height="4.72" fill="#bedbed"/><rect x="112.25" y="8.5" width="4.72" height="4.72" fill="#1b0003"/><rect x="107.53" y="32.08" width="4.72" height="4.72" fill="#1b0003"/><rect x="107.53" y="27.36" width="4.72" height="4.72" fill="#e86f3f"/><rect x="107.53" y="22.65" width="4.72" height="4.72" fill="#1b0003"/><rect x="107.53" y="13.22" width="4.72" height="4.72" fill="#1b0003"/><rect x="102.82" y="36.8" width="4.72" height="4.72" fill="#1b0003"/><rect x="102.82" y="32.08" width="4.72" height="4.72" fill="#e86f3f"/><rect x="102.82" y="27.36" width="4.72" height="4.72" fill="#1b0003"/><rect x="98.1" y="41.51" width="4.72" height="4.72" fill="#1b0003"/><rect x="98.1" y="36.8" width="4.72" height="4.72" fill="#e86f3f"/><rect x="98.1" y="32.08" width="4.72" height="4.72" fill="#1b0003"/><rect x="93.39" y="46.23" width="4.72" height="4.72" fill="#1b0003"/><rect x="93.39" y="41.51" width="4.72" height="4.72" fill="#ef8741"/><rect x="93.39" y="36.8" width="4.72" height="4.72" fill="#1b0003"/><rect x="88.67" y="50.94" width="4.72" height="4.72" fill="#1b0003"/><rect x="88.67" y="46.23" width="4.72" height="4.72" fill="#ef8741"/><rect x="88.67" y="41.51" width="4.72" height="4.72" fill="#1b0003"/><rect x="83.95" y="55.66" width="4.72" height="4.72" fill="#1b0003"/><rect x="83.95" y="50.94" width="4.72" height="4.72" fill="#fa9c5c"/><rect x="83.95" y="46.23" width="4.72" height="4.72" fill="#1b0003"/><rect x="79.24" y="60.37" width="4.72" height="4.72" fill="#1b0003"/><rect x="79.24" y="55.66" width="4.72" height="4.72" fill="#fa9c5c"/><rect x="79.24" y="50.94" width="4.72" height="4.72" fill="#1b0003"/><rect x="74.52" y="65.09" width="4.72" height="4.72" fill="#1b0003"/><rect x="74.52" y="60.37" width="4.72" height="4.72" fill="#fa9c5c"/><rect x="74.52" y="55.66" width="4.72" height="4.72" fill="#1b0003"/><rect x="69.81" y="69.81" width="4.72" height="4.72" fill="#1b0003"/><rect x="69.81" y="65.09" width="4.72" height="4.72" fill="#fa9c5c"/><rect x="69.81" y="60.37" width="4.72" height="4.72" fill="#1b0003"/><rect x="65.09" y="74.52" width="4.72" height="4.72" fill="#1b0003"/><rect x="65.09" y="69.81" width="4.72" height="4.72" fill="#ef8741"/><rect x="65.09" y="65.09" width="4.72" height="4.72" fill="#1b0003"/><rect x="60.37" y="79.24" width="4.72" height="4.72" fill="#1b0003"/><rect x="60.37" y="74.52" width="4.72" height="4.72" fill="#ef8741"/><rect x="60.37" y="69.81" width="4.72" height="4.72" fill="#1b0003"/><rect x="55.66" y="83.95" width="4.72" height="4.72" fill="#1b0003"/><rect x="55.66" y="79.24" width="4.72" height="4.72" fill="#e86f3f"/><rect x="55.66" y="74.52" width="4.72" height="4.72" fill="#1b0003"/><rect x="50.94" y="88.67" width="4.72" height="4.72" fill="#1b0003"/><rect x="50.94" y="83.95" width="4.72" height="4.72" fill="#e86f3f"/><rect x="50.94" y="79.24" width="4.72" height="4.72" fill="#1b0003"/><rect x="46.23" y="93.39" width="4.72" height="4.72" fill="#1b0003"/><rect x="46.23" y="88.67" width="4.72" height="4.72" fill="#e86f3f"/><rect x="46.23" y="83.95" width="4.72" height="4.72" fill="#1b0003"/><rect x="41.51" y="98.1" width="4.72" height="4.72" fill="#1b0003"/><rect x="41.51" y="93.39" width="4.72" height="4.72" fill="#e86f3f"/><rect x="41.51" y="88.67" width="4.72" height="4.72" fill="#1b0003"/><rect x="36.8" y="107.53" width="4.72" height="4.72" fill="#1b0003"/><rect x="36.8" y="102.82" width="4.72" height="4.72" fill="#1b0003"/><rect x="36.8" y="98.1" width="4.72" height="4.72" fill="#1b0003"/><rect x="36.8" y="93.39" width="4.72" height="4.72" fill="#1b0003"/><rect x="32.08" y="112.25" width="4.72" height="4.72" fill="#1b0003"/><rect x="32.08" y="107.53" width="4.72" height="4.72" fill="#b6294c"/><rect x="32.08" y="102.82" width="4.72" height="4.72" fill="#db1943"/><rect x="32.08" y="98.1" width="4.72" height="4.72" fill="#1b0003"/><rect x="27.36" y="116.97" width="4.72" height="4.72" fill="#1b0003"/><rect x="27.36" y="112.25" width="4.72" height="4.72" fill="#b6294c"/><rect x="27.36" y="107.53" width="4.72" height="4.72" fill="#db1943"/><rect x="27.36" y="102.82" width="4.72" height="4.72" fill="#eb3824"/><rect x="27.36" y="98.1" width="4.72" height="4.72" fill="#1b0003"/><rect x="22.65" y="112.25" width="4.72" height="4.72" fill="#1b0003"/><rect x="22.65" y="107.53" width="4.72" height="4.72" fill="#eb3824"/><rect x="22.65" y="102.82" width="4.72" height="4.72" fill="#1b0003"/><rect x="17.93" y="107.53" width="4.72" height="4.72" fill="#1b0003"/><rect x="121.68" y="93.39" width="4.72" height="4.72" fill="#1b0003"/><rect x="121.68" y="88.67" width="4.72" height="4.72" fill="#1b0003"/><rect x="121.68" y="83.95" width="4.72" height="4.72" fill="#1b0003"/><rect x="121.68" y="79.24" width="4.72" height="4.72" fill="#1b0003"/><rect x="121.68" y="74.52" width="4.72" height="4.72" fill="#1b0003"/><rect x="121.68" y="69.81" width="4.72" height="4.72" fill="#1b0003"/><rect x="121.68" y="65.09" width="4.72" height="4.72" fill="#1b0003"/><rect x="121.68" y="60.37" width="4.72" height="4.72" fill="#1b0003"/><rect x="116.96" y="102.82" width="4.72" height="4.72" fill="#1b0003"/><rect x="116.96" y="98.1" width="4.72" height="4.72" fill="#1b0003"/><rect x="116.96" y="93.39" width="4.72" height="4.72" fill="#fa9c5c"/><rect x="116.96" y="88.67" width="4.72" height="4.72" fill="#fa9c5c"/><rect x="116.96" y="83.95" width="4.72" height="4.72" fill="#fa9c5c"/><rect x="116.96" y="79.24" width="4.72" height="4.72" fill="#fa9c5c"/><rect x="116.96" y="74.52" width="4.72" height="4.72" fill="#fa9c5c"/><rect x="116.96" y="69.81" width="4.72" height="4.72" fill="#fa9c5c"/><rect x="116.96" y="65.09" width="4.72" height="4.72" fill="#fa9c5c"/><rect x="116.96" y="60.37" width="4.72" height="4.72" fill="#fa9c5c"/><rect x="116.96" y="55.66" width="4.72" height="4.72" fill="#1b0003"/><rect x="116.96" y="50.94" width="4.72" height="4.72" fill="#1b0003"/><rect x="112.25" y="112.25" width="4.72" height="4.72" fill="#1b0003"/><rect x="112.25" y="107.53" width="4.72" height="4.72" fill="#1b0003"/><rect x="112.25" y="102.82" width="4.72" height="4.72" fill="#a84a24"/><rect x="112.25" y="98.1" width="4.72" height="4.72" fill="#fa9c5c"/><rect x="112.25" y="93.39" width="4.72" height="4.72" fill="#fa9c5c"/><rect x="112.25" y="88.67" width="4.72" height="4.72" fill="#e86f3f"/><rect x="112.25" y="83.95" width="4.72" height="4.72" fill="#e86f3f"/><rect x="112.25" y="79.24" width="4.72" height="4.72" fill="#e86f3f"/><rect x="112.25" y="74.52" width="4.72" height="4.72" fill="#e86f3f"/><rect x="112.25" y="69.81" width="4.72" height="4.72" fill="#e86f3f"/><rect x="112.25" y="65.09" width="4.72" height="4.72" fill="#e86f3f"/><rect x="112.25" y="60.37" width="4.72" height="4.72" fill="#fa9c5c"/><rect x="112.25" y="55.66" width="4.72" height="4.72" fill="#fa9c5c"/><rect x="112.25" y="50.94" width="4.72" height="4.72" fill="#fa9c5c"/><rect x="112.25" y="46.23" width="4.72" height="4.72" fill="#1b0003"/><rect x="107.53" y="121.68" width="4.72" height="4.72" fill="#1b0003"/><rect x="107.53" y="116.96" width="4.72" height="4.72" fill="#1b0003"/><rect x="107.53" y="112.25" width="4.72" height="4.72" fill="#a84a24"/><rect x="107.53" y="107.53" width="4.72" height="4.72" fill="#e86f3f"/><rect x="107.53" y="102.82" width="4.72" height="4.72" fill="#f2904e"/><rect x="107.53" y="98.1" width="4.72" height="4.72" fill="#f2904e"/><rect x="107.53" y="93.39" width="4.72" height="4.72" fill="#e86f3f"/><rect x="107.53" y="88.67" width="4.72" height="4.72" fill="#1b0003"/><rect x="107.53" y="83.95" width="4.72" height="4.72" fill="#1b0003"/><rect x="107.53" y="79.24" width="4.72" height="4.72" fill="#1b0003"/><rect x="107.53" y="74.52" width="4.72" height="4.72" fill="#1b0003"/><rect x="107.53" y="69.81" width="4.72" height="4.72" fill="#1b0003"/><rect x="107.53" y="65.09" width="4.72" height="4.72" fill="#1b0003"/><rect x="107.53" y="60.37" width="4.72" height="4.72" fill="#1b0003"/><rect x="107.53" y="55.66" width="4.72" height="4.72" fill="#e86f3f"/><rect x="107.53" y="50.94" width="4.72" height="4.72" fill="#f2904e"/><rect x="107.53" y="46.23" width="4.72" height="4.72" fill="#fa9c5c"/><rect x="107.53" y="41.51" width="4.72" height="4.72" fill="#1b0003"/><rect x="102.82" y="126.4" width="4.72" height="4.72" fill="#1b0003"/><rect x="102.82" y="121.68" width="4.72" height="4.72" fill="#a84a24"/><rect x="102.82" y="116.96" width="4.72" height="4.72" fill="#a84a24"/><rect x="102.82" y="112.25" width="4.72" height="4.72" fill="#a84a24"/><rect x="102.82" y="107.53" width="4.72" height="4.72" fill="#f2904e"/><rect x="102.82" y="102.82" width="4.72" height="4.72" fill="#f2904e"/><rect x="102.82" y="98.1" width="4.72" height="4.72" fill="#1b0003"/><rect x="102.82" y="93.39" width="4.72" height="4.72" fill="#1b0003"/><rect x="102.82" y="55.66" width="4.72" height="4.72" fill="#1b0003"/><rect x="102.82" y="50.94" width="4.72" height="4.72" fill="#1b0003"/><rect x="102.82" y="46.23" width="4.72" height="4.72" fill="#f2904e"/><rect x="102.82" y="41.51" width="4.72" height="4.72" fill="#fa9c5c"/><rect x="102.82" y="36.8" width="4.72" height="4.72" fill="#1b0003"/><rect x="98.1" y="126.4" width="4.72" height="4.72" fill="#1b0003"/><rect x="98.1" y="121.68" width="4.72" height="4.72" fill="#a84a24"/><rect x="98.1" y="116.96" width="4.72" height="4.72" fill="#a84a24"/><rect x="98.1" y="112.25" width="4.72" height="4.72" fill="#e86f3f"/><rect x="98.1" y="107.53" width="4.72" height="4.72" fill="#e86f3f"/><rect x="98.1" y="102.82" width="4.72" height="4.72" fill="#1b0003"/><rect x="98.1" y="46.23" width="4.72" height="4.72" fill="#1b0003"/><rect x="98.1" y="41.51" width="4.72" height="4.72" fill="#f2904e"/><rect x="98.1" y="36.8" width="4.72" height="4.72" fill="#fa9c5c"/><rect x="98.1" y="32.08" width="4.72" height="4.72" fill="#1b0003"/><rect x="93.39" y="121.68" width="4.72" height="4.72" fill="#1b0003"/><rect x="93.39" y="116.96" width="4.72" height="4.72" fill="#a84a24"/><rect x="93.39" y="112.25" width="4.72" height="4.72" fill="#a84a24"/><rect x="93.39" y="107.53" width="4.72" height="4.72" fill="#1b0003"/><rect x="93.39" y="41.51" width="4.72" height="4.72" fill="#1b0003"/><rect x="93.39" y="36.8" width="4.72" height="4.72" fill="#f2904e"/><rect x="93.39" y="32.08" width="4.72" height="4.72" fill="#fa9c5c"/><rect x="93.39" y="27.36" width="4.72" height="4.72" fill="#1b0003"/><rect x="88.67" y="116.96" width="4.72" height="4.72" fill="#1b0003"/><rect x="88.67" y="112.25" width="4.72" height="4.72" fill="#1b0003"/><rect x="88.67" y="107.53" width="4.72" height="4.72" fill="#e0bea4"/><rect x="88.67" y="102.82" width="4.72" height="4.72" fill="#1b0003"/><rect x="88.67" y="36.8" width="4.72" height="4.72" fill="#1b0003"/><rect x="88.67" y="32.08" width="4.72" height="4.72" fill="#f2904e"/><rect x="88.67" y="27.36" width="4.72" height="4.72" fill="#fa9c5c"/><rect x="88.67" y="22.65" width="4.72" height="4.72" fill="#1b0003"/><rect x="83.95" y="107.53" width="4.72" height="4.72" fill="#1b0003"/><rect x="83.95" y="102.82" width="4.72" height="4.72" fill="#e0bea4"/><rect x="83.95" y="98.1" width="4.72" height="4.72" fill="#1b0003"/><rect x="83.95" y="32.08" width="4.72" height="4.72" fill="#1b0003"/><rect x="83.95" y="27.36" width="4.72" height="4.72" fill="#f2904e"/><rect x="83.95" y="22.65" width="4.72" height="4.72" fill="#fa9c5c"/><rect x="83.95" y="17.93" width="4.72" height="4.72" fill="#1b0003"/><rect x="79.24" y="102.82" width="4.72" height="4.72" fill="#1b0003"/><rect x="79.24" y="98.1" width="4.72" height="4.72" fill="#e0bea4"/><rect x="79.24" y="93.39" width="4.72" height="4.72" fill="#1b0003"/><rect x="79.24" y="32.08" width="4.72" height="4.72" fill="#1b0003"/><rect x="79.24" y="27.36" width="4.72" height="4.72" fill="#e86f3f"/><rect x="79.24" y="22.65" width="4.72" height="4.72" fill="#fa9c5c"/><rect x="79.24" y="17.93" width="4.72" height="4.72" fill="#1b0003"/><rect x="74.52" y="98.1" width="4.72" height="4.72" fill="#1b0003"/><rect x="74.52" y="93.39" width="4.72" height="4.72" fill="#e0bea4"/><rect x="74.52" y="88.67" width="4.72" height="4.72" fill="#1b0003"/><rect x="74.52" y="27.36" width="4.72" height="4.72" fill="#1b0003"/><rect x="74.52" y="22.65" width="4.72" height="4.72" fill="#fa9c5c"/><rect x="74.52" y="17.93" width="4.72" height="4.72" fill="#fa9c5c"/><rect x="74.52" y="13.22" width="4.72" height="4.72" fill="#1b0003"/><rect x="69.81" y="93.39" width="4.72" height="4.72" fill="#1b0003"/><rect x="69.81" y="88.67" width="4.72" height="4.72" fill="#e0bea4"/><rect x="69.81" y="83.95" width="4.72" height="4.72" fill="#1b0003"/><rect x="69.81" y="27.36" width="4.72" height="4.72" fill="#1b0003"/><rect x="69.81" y="22.65" width="4.72" height="4.72" fill="#e86f3f"/><rect x="69.81" y="17.93" width="4.72" height="4.72" fill="#fa9c5c"/><rect x="69.81" y="13.22" width="4.72" height="4.72" fill="#1b0003"/><rect x="65.09" y="88.67" width="4.72" height="4.72" fill="#1b0003"/><rect x="65.09" y="83.95" width="4.72" height="4.72" fill="#e0bea4"/><rect x="65.09" y="79.24" width="4.72" height="4.72" fill="#1b0003"/><rect x="65.09" y="27.36" width="4.72" height="4.72" fill="#1b0003"/><rect x="65.09" y="22.65" width="4.72" height="4.72" fill="#e86f3f"/><rect x="65.09" y="17.93" width="4.72" height="4.72" fill="#fa9c5c"/><rect x="65.09" y="13.22" width="4.72" height="4.72" fill="#1b0003"/><rect x="60.37" y="83.95" width="4.72" height="4.72" fill="#1b0003"/><rect x="60.37" y="79.24" width="4.72" height="4.72" fill="#f9f2d4"/><rect x="60.37" y="74.52" width="4.72" height="4.72" fill="#1b0003"/><rect x="60.37" y="27.36" width="4.72" height="4.72" fill="#1b0003"/><rect x="60.37" y="22.65" width="4.72" height="4.72" fill="#e86f3f"/><rect x="60.37" y="17.93" width="4.72" height="4.72" fill="#fa9c5c"/><rect x="60.37" y="13.22" width="4.72" height="4.72" fill="#1b0003"/><rect x="55.66" y="79.24" width="4.72" height="4.72" fill="#1b0003"/><rect x="55.66" y="74.52" width="4.72" height="4.72" fill="#f9f2d4"/><rect x="55.66" y="69.81" width="4.72" height="4.72" fill="#1b0003"/><rect x="55.66" y="27.36" width="4.72" height="4.72" fill="#1b0003"/><rect x="55.66" y="22.65" width="4.72" height="4.72" fill="#e86f3f"/><rect x="55.66" y="17.93" width="4.72" height="4.72" fill="#fa9c5c"/><rect x="55.66" y="13.22" width="4.72" height="4.72" fill="#1b0003"/><rect x="50.94" y="74.52" width="4.72" height="4.72" fill="#1b0003"/><rect x="50.94" y="69.81" width="4.72" height="4.72" fill="#f9f2d4"/><rect x="50.94" y="65.09" width="4.72" height="4.72" fill="#1b0003"/><rect x="50.94" y="27.36" width="4.72" height="4.72" fill="#1b0003"/><rect x="50.94" y="22.65" width="4.72" height="4.72" fill="#e86f3f"/><rect x="50.94" y="17.93" width="4.72" height="4.72" fill="#fa9c5c"/><rect x="50.94" y="13.22" width="4.72" height="4.72" fill="#1b0003"/><rect x="46.23" y="69.81" width="4.72" height="4.72" fill="#1b0003"/><rect x="46.23" y="65.09" width="4.72" height="4.72" fill="#f9f2d4"/><rect x="46.23" y="60.37" width="4.72" height="4.72" fill="#1b0003"/><rect x="46.23" y="27.36" width="4.72" height="4.72" fill="#1b0003"/><rect x="46.23" y="22.65" width="4.72" height="4.72" fill="#e86f3f"/><rect x="46.23" y="17.93" width="4.72" height="4.72" fill="#fa9c5c"/><rect x="46.23" y="13.22" width="4.72" height="4.72" fill="#1b0003"/><rect x="41.51" y="65.09" width="4.72" height="4.72" fill="#1b0003"/><rect x="41.51" y="60.37" width="4.72" height="4.72" fill="#f9f2d4"/><rect x="41.51" y="55.66" width="4.72" height="4.72" fill="#1b0003"/><rect x="41.51" y="32.08" width="4.72" height="4.72" fill="#1b0003"/><rect x="41.51" y="27.36" width="4.72" height="4.72" fill="#f2904e"/><rect x="41.51" y="22.65" width="4.72" height="4.72" fill="#fa9c5c"/><rect x="41.51" y="17.93" width="4.72" height="4.72" fill="#fa9c5c"/><rect x="41.51" y="13.22" width="4.72" height="4.72" fill="#1b0003"/><rect x="36.8" y="60.37" width="4.72" height="4.72" fill="#1b0003"/><rect x="36.8" y="55.66" width="4.72" height="4.72" fill="#f9f2d4"/><rect x="36.8" y="50.94" width="4.72" height="4.72" fill="#1b0003"/><rect x="36.8" y="32.08" width="4.72" height="4.72" fill="#1b0003"/><rect x="36.8" y="27.36" width="4.72" height="4.72" fill="#e86f3f"/><rect x="36.8" y="22.65" width="4.72" height="4.72" fill="#fa9c5c"/><rect x="36.8" y="17.93" width="4.72" height="4.72" fill="#1b0003"/><rect x="32.08" y="55.66" width="4.72" height="4.72" fill="#1b0003"/><rect x="32.08" y="50.94" width="4.72" height="4.72" fill="#f9f2d4"/><rect x="32.08" y="46.23" width="4.72" height="4.72" fill="#1b0003"/><rect x="32.08" y="36.8" width="4.72" height="4.72" fill="#1b0003"/><rect x="32.08" y="32.08" width="4.72" height="4.72" fill="#e86f3f"/><rect x="32.08" y="27.36" width="4.72" height="4.72" fill="#fa9c5c"/><rect x="32.08" y="22.65" width="4.72" height="4.72" fill="#fa9c5c"/><rect x="32.08" y="17.93" width="4.72" height="4.72" fill="#1b0003"/><rect x="27.36" y="50.94" width="4.72" height="4.72" fill="#1b0003"/><rect x="27.36" y="46.23" width="4.72" height="4.72" fill="#f9f2d4"/><rect x="27.36" y="41.51" width="4.72" height="4.72" fill="#1b0003"/><rect x="27.36" y="36.8" width="4.72" height="4.72" fill="#a84a24"/><rect x="27.36" y="32.08" width="4.72" height="4.72" fill="#f2904e"/><rect x="27.36" y="27.36" width="4.72" height="4.72" fill="#fa9c5c"/><rect x="27.36" y="22.65" width="4.72" height="4.72" fill="#1b0003"/><rect x="22.65" y="46.23" width="4.72" height="4.72" fill="#1b0003"/><rect x="22.65" y="41.51" width="4.72" height="4.72" fill="#a84a24"/><rect x="22.65" y="36.8" width="4.72" height="4.72" fill="#e86f3f"/><rect x="22.65" y="32.08" width="4.72" height="4.72" fill="#f2904e"/><rect x="22.65" y="27.36" width="4.72" height="4.72" fill="#f2904e"/><rect x="22.65" y="22.65" width="4.72" height="4.72" fill="#1b0003"/><rect x="17.93" y="46.23" width="4.72" height="4.72" fill="#1b0003"/><rect x="17.93" y="41.51" width="4.72" height="4.72" fill="#a84a24"/><rect x="17.93" y="36.8" width="4.72" height="4.72" fill="#a84a24"/><rect x="17.93" y="32.08" width="4.72" height="4.72" fill="#e86f3f"/><rect x="17.93" y="27.36" width="4.72" height="4.72" fill="#1b0003"/><rect x="13.22" y="41.51" width="4.72" height="4.72" fill="#1b0003"/><rect x="13.22" y="36.8" width="4.72" height="4.72" fill="#a84a24"/><rect x="13.22" y="32.08" width="4.72" height="4.72" fill="#a84a24"/><rect x="13.22" y="27.36" width="4.72" height="4.72" fill="#1b0003"/><rect x="8.5" y="36.8" width="4.72" height="4.72" fill="#1b0003"/><rect x="8.5" y="32.08" width="4.72" height="4.72" fill="#1b0003"/></g></g></g></g></svg>