<svg xmlns="http://www.w3.org/2000/svg" width="150.71" height="146.25" viewBox="0 0 150.71 146.25"><g id="Layer_2" data-name="Layer 2"><g id="items"><g id="Bread"><path d="M61.57,146.25H17.83V141.8H8.92v-4.46H4.46v-4.46H0V89.14H4.46V80.23H8.92V75.77h4.45V71.31h4.46V66.86h4.46V62.4h4.45V57.94H31.2V53.48h4.46V49h4.45V44.57h4.46V40.11H49V35.66h4.46V31.2h4.45V26.74H62.4V22.28h4.46V17.83h4.45V13.37h4.46V8.91h4.46V4.46h8.91V0h48.2V4.46h4.46V8.91h4.46v4.46h4.45v48.2h-4.45V66H141.8v4.45h-4.46v4.46h-4.46V79.4h-4.45v4.46H124v4.45h-4.46v4.46h-4.45v4.46H110.6v4.45h-4.46v4.46h-4.45v4.46H97.23v4.46H92.77v4.45H88.31V124H83.86v4.46H79.4v4.45H74.94v4.46H70.49v4.46H61.57Zm-26.74-17h9.74V124.8h8.92v-4.46h4.45v-4.46H62.4v-4.45h4.46V107h4.45v-4.46h4.46V98.06h4.46V93.6h4.46V89.14h4.45V84.68H93.6V80.23h4.46V75.77h4.45V71.31H107V66.86h4.46V62.4h4.45V57.94h4.46V53.48h4.46V49h4.46V44.57h4.45V30.37h-4.45V25.91H124.8V21.46h-4.46V17h-14.2v4.46H97.23v4.45H92.77v4.46H88.31v4.46H83.86v4.45H79.4v4.46H74.94V48.2H70.49v4.46H66v4.45H61.57v4.46H57.11V66H52.66v4.45H48.2v4.46H43.74V79.4H39.29v4.46H34.83v4.45H30.37v4.46H25.92v4.46H21.46v8.91H17v9.74h4.46v4.46h4.46v4.46h8.91Z" fill="#fff"/><g id="Bread-2" data-name="Bread"><rect x="137.76" y="48.61" width="4.46" height="4.46" fill="#1b0003"/><rect x="137.76" y="44.16" width="4.46" height="4.46" fill="#1b0003"/><rect x="137.76" y="39.7" width="4.46" height="4.46" fill="#1b0003"/><rect x="137.76" y="35.24" width="4.46" height="4.46" fill="#1b0003"/><rect x="137.76" y="30.78" width="4.46" height="4.46" fill="#1b0003"/><rect x="137.76" y="26.33" width="4.46" height="4.46" fill="#1b0003"/><rect x="137.76" y="21.87" width="4.46" height="4.46" fill="#1b0003"/><rect x="133.3" y="53.07" width="4.46" height="4.46" fill="#1b0003"/><rect x="133.3" y="48.61" width="4.46" height="4.46" fill="#a84a24"/><rect x="133.3" y="44.16" width="4.46" height="4.46" fill="#a84a24"/><rect x="133.3" y="39.7" width="4.46" height="4.46" fill="#a84a24"/><rect x="133.3" y="35.24" width="4.46" height="4.46" fill="#e86f3f"/><rect x="133.3" y="30.78" width="4.46" height="4.46" fill="#e86f3f"/><rect x="133.3" y="26.33" width="4.46" height="4.46" fill="#e86f3f"/><rect x="133.3" y="21.87" width="4.46" height="4.46" fill="#f2904e"/><rect x="133.3" y="17.41" width="4.46" height="4.46" fill="#1b0003"/><rect x="128.84" y="57.53" width="4.46" height="4.46" fill="#1b0003"/><rect x="128.84" y="53.07" width="4.46" height="4.46" fill="#a84a24"/><rect x="128.84" y="48.61" width="4.46" height="4.46" fill="#a84a24"/><rect x="128.84" y="44.16" width="4.46" height="4.46" fill="#a84a24"/><rect x="128.84" y="39.7" width="4.46" height="4.46" fill="#e86f3f"/><rect x="128.84" y="35.24" width="4.46" height="4.46" fill="#ef8741"/><rect x="128.84" y="30.78" width="4.46" height="4.46" fill="#f2904e"/><rect x="128.84" y="26.33" width="4.46" height="4.46" fill="#f2904e"/><rect x="128.84" y="21.87" width="4.46" height="4.46" fill="#f2904e"/><rect x="128.84" y="17.41" width="4.46" height="4.46" fill="#f2904e"/><rect x="128.84" y="12.96" width="4.46" height="4.46" fill="#1b0003"/><rect x="124.38" y="61.98" width="4.46" height="4.46" fill="#1b0003"/><rect x="124.38" y="57.53" width="4.46" height="4.46" fill="#a84a24"/><rect x="124.38" y="53.07" width="4.46" height="4.46" fill="#a84a24"/><rect x="124.38" y="48.61" width="4.46" height="4.46" fill="#a84a24"/><rect x="124.38" y="44.16" width="4.46" height="4.46" fill="#e86f3f"/><rect x="124.38" y="39.7" width="4.46" height="4.46" fill="#ef8741"/><rect x="124.38" y="35.24" width="4.46" height="4.46" fill="#ef8741"/><rect x="124.38" y="30.78" width="4.46" height="4.46" fill="#f2904e"/><rect x="124.38" y="26.33" width="4.46" height="4.46" fill="#f2904e"/><rect x="124.38" y="21.87" width="4.46" height="4.46" fill="#f2904e"/><rect x="124.38" y="17.41" width="4.46" height="4.46" fill="#f2904e"/><rect x="124.38" y="12.96" width="4.46" height="4.46" fill="#fa9c5c"/><rect x="124.38" y="8.5" width="4.46" height="4.46" fill="#1b0003"/><rect x="119.93" y="66.44" width="4.46" height="4.46" fill="#1b0003"/><rect x="119.93" y="61.98" width="4.46" height="4.46" fill="#a84a24"/><rect x="119.93" y="57.53" width="4.46" height="4.46" fill="#a84a24"/><rect x="119.93" y="53.07" width="4.46" height="4.46" fill="#a84a24"/><rect x="119.93" y="48.61" width="4.46" height="4.46" fill="#e86f3f"/><rect x="119.93" y="44.16" width="4.46" height="4.46" fill="#ef8741"/><rect x="119.93" y="39.7" width="4.46" height="4.46" fill="#f2904e"/><rect x="119.93" y="35.24" width="4.46" height="4.46" fill="#f2904e"/><rect x="119.93" y="30.78" width="4.46" height="4.46" fill="#f2904e"/><rect x="119.93" y="26.33" width="4.46" height="4.46" fill="#f2904e"/><rect x="119.93" y="21.87" width="4.46" height="4.46" fill="#fa9c5c"/><rect x="119.93" y="17.41" width="4.46" height="4.46" fill="#fa9c5c"/><rect x="119.93" y="12.96" width="4.46" height="4.46" fill="#fa9c5c"/><rect x="119.93" y="8.5" width="4.46" height="4.46" fill="#1b0003"/><rect x="115.47" y="70.9" width="4.46" height="4.46" fill="#1b0003"/><rect x="115.47" y="66.44" width="4.46" height="4.46" fill="#a84a24"/><rect x="115.47" y="61.98" width="4.46" height="4.46" fill="#a84a24"/><rect x="115.47" y="57.53" width="4.46" height="4.46" fill="#a84a24"/><rect x="115.47" y="53.07" width="4.46" height="4.46" fill="#e86f3f"/><rect x="115.47" y="48.61" width="4.46" height="4.46" fill="#ef8741"/><rect x="115.47" y="44.16" width="4.46" height="4.46" fill="#ef8741"/><rect x="115.47" y="39.7" width="4.46" height="4.46" fill="#f2904e"/><rect x="115.47" y="35.24" width="4.46" height="4.46" fill="#fa9c5c"/><rect x="115.47" y="30.78" width="4.46" height="4.46" fill="#fa9c5c"/><rect x="115.47" y="26.33" width="4.46" height="4.46" fill="#fa9c5c"/><rect x="115.47" y="21.87" width="4.46" height="4.46" fill="#fa9c5c"/><rect x="115.47" y="17.41" width="4.46" height="4.46" fill="#fa9c5c"/><rect x="115.47" y="12.96" width="4.46" height="4.46" fill="#fa9c5c"/><rect x="115.47" y="8.5" width="4.46" height="4.46" fill="#1b0003"/><rect x="111.01" y="75.36" width="4.46" height="4.46" fill="#1b0003"/><rect x="111.01" y="70.9" width="4.46" height="4.46" fill="#a84a24"/><rect x="111.01" y="66.44" width="4.46" height="4.46" fill="#a84a24"/><rect x="111.01" y="61.98" width="4.46" height="4.46" fill="#a84a24"/><rect x="111.01" y="57.53" width="4.46" height="4.46" fill="#e86f3f"/><rect x="111.01" y="53.07" width="4.46" height="4.46" fill="#ef8741"/><rect x="111.01" y="48.61" width="4.46" height="4.46" fill="#ef8741"/><rect x="111.01" y="44.16" width="4.46" height="4.46" fill="#f2904e"/><rect x="111.01" y="39.7" width="4.46" height="4.46" fill="#fa9c5c"/><rect x="111.01" y="35.24" width="4.46" height="4.46" fill="#fa9c5c"/><rect x="111.01" y="30.78" width="4.46" height="4.46" fill="#fa9c5c"/><rect x="111.01" y="26.33" width="4.46" height="4.46" fill="#fa9c5c"/><rect x="111.01" y="21.87" width="4.46" height="4.46" fill="#fa9c5c"/><rect x="111.01" y="17.41" width="4.46" height="4.46" fill="#fa9c5c"/><rect x="111.01" y="12.96" width="4.46" height="4.46" fill="#fa9c5c"/><rect x="111.01" y="8.5" width="4.46" height="4.46" fill="#1b0003"/><rect x="106.56" y="79.81" width="4.46" height="4.46" fill="#1b0003"/><rect x="106.56" y="75.36" width="4.46" height="4.46" fill="#a84a24"/><rect x="106.56" y="70.9" width="4.46" height="4.46" fill="#a84a24"/><rect x="106.56" y="66.44" width="4.46" height="4.46" fill="#a84a24"/><rect x="106.56" y="61.98" width="4.46" height="4.46" fill="#e86f3f"/><rect x="106.56" y="57.53" width="4.46" height="4.46" fill="#ef8741"/><rect x="106.56" y="53.07" width="4.46" height="4.46" fill="#ef8741"/><rect x="106.56" y="48.61" width="4.46" height="4.46" fill="#f2904e"/><rect x="106.56" y="44.16" width="4.46" height="4.46" fill="#f2904e"/><rect x="106.56" y="39.7" width="4.46" height="4.46" fill="#fa9c5c"/><rect x="106.56" y="35.24" width="4.46" height="4.46" fill="#fa9c5c"/><rect x="106.56" y="30.78" width="4.46" height="4.46" fill="#fa9c5c"/><rect x="106.56" y="26.33" width="4.46" height="4.46" fill="#fa9c5c"/><rect x="106.56" y="21.87" width="4.46" height="4.46" fill="#fa9c5c"/><rect x="106.56" y="17.41" width="4.46" height="4.46" fill="#fa9c5c"/><rect x="106.56" y="12.96" width="4.46" height="4.46" fill="#fa9c5c"/><rect x="106.56" y="8.5" width="4.46" height="4.46" fill="#1b0003"/><rect x="102.1" y="84.27" width="4.46" height="4.46" fill="#1b0003"/><rect x="102.1" y="79.81" width="4.46" height="4.46" fill="#a84a24"/><rect x="102.1" y="75.36" width="4.46" height="4.46" fill="#a84a24"/><rect x="102.1" y="70.9" width="4.46" height="4.46" fill="#a84a24"/><rect x="102.1" y="66.44" width="4.46" height="4.46" fill="#e86f3f"/><rect x="102.1" y="61.98" width="4.46" height="4.46" fill="#ef8741"/><rect x="102.1" y="57.53" width="4.46" height="4.46" fill="#ef8741"/><rect x="102.1" y="53.07" width="4.46" height="4.46" fill="#f2904e"/><rect x="102.1" y="48.61" width="4.46" height="4.46" fill="#f2904e"/><rect x="102.1" y="44.16" width="4.46" height="4.46" fill="#fa9c5c"/><rect x="102.1" y="39.7" width="4.46" height="4.46" fill="#fa9c5c"/><rect x="102.1" y="35.24" width="4.46" height="4.46" fill="#fa9c5c"/><rect x="102.1" y="30.78" width="4.46" height="4.46" fill="#a84a24"/><rect x="102.1" y="26.33" width="4.46" height="4.46" fill="#e86f3f"/><rect x="102.1" y="21.87" width="4.46" height="4.46" fill="#fa9c5c"/><rect x="102.1" y="17.41" width="4.46" height="4.46" fill="#fa9c5c"/><rect x="102.1" y="12.96" width="4.46" height="4.46" fill="#fa9c5c"/><rect x="102.1" y="8.5" width="4.46" height="4.46" fill="#1b0003"/><rect x="97.64" y="88.73" width="4.46" height="4.46" fill="#1b0003"/><rect x="97.64" y="84.27" width="4.46" height="4.46" fill="#a84a24"/><rect x="97.64" y="79.81" width="4.46" height="4.46" fill="#a84a24"/><rect x="97.64" y="75.36" width="4.46" height="4.46" fill="#a84a24"/><rect x="97.64" y="70.9" width="4.46" height="4.46" fill="#e86f3f"/><rect x="97.64" y="66.44" width="4.46" height="4.46" fill="#ef8741"/><rect x="97.64" y="61.98" width="4.46" height="4.46" fill="#ef8741"/><rect x="97.64" y="57.53" width="4.46" height="4.46" fill="#f2904e"/><rect x="97.64" y="53.07" width="4.46" height="4.46" fill="#f2904e"/><rect x="97.64" y="48.61" width="4.46" height="4.46" fill="#fa9c5c"/><rect x="97.64" y="44.16" width="4.46" height="4.46" fill="#fa9c5c"/><rect x="97.64" y="39.7" width="4.46" height="4.46" fill="#fa9c5c"/><rect x="97.64" y="35.24" width="4.46" height="4.46" fill="#ef8741"/><rect x="97.64" y="30.78" width="4.46" height="4.46" fill="#ea8744"/><rect x="97.64" y="26.33" width="4.46" height="4.46" fill="#a84a24"/><rect x="97.64" y="21.87" width="4.46" height="4.46" fill="#fa9c5c"/><rect x="97.64" y="17.41" width="4.46" height="4.46" fill="#fa9c5c"/><rect x="97.64" y="12.96" width="4.46" height="4.46" fill="#fa9c5c"/><rect x="97.64" y="8.5" width="4.46" height="4.46" fill="#1b0003"/><rect x="93.19" y="93.18" width="4.46" height="4.46" fill="#1b0003"/><rect x="93.19" y="88.73" width="4.46" height="4.46" fill="#a84a24"/><rect x="93.19" y="84.27" width="4.46" height="4.46" fill="#a84a24"/><rect x="93.19" y="79.81" width="4.46" height="4.46" fill="#a84a24"/><rect x="93.19" y="75.36" width="4.46" height="4.46" fill="#e86f3f"/><rect x="93.19" y="70.9" width="4.46" height="4.46" fill="#ef8741"/><rect x="93.19" y="66.44" width="4.46" height="4.46" fill="#ef8741"/><rect x="93.19" y="61.98" width="4.46" height="4.46" fill="#f2904e"/><rect x="93.19" y="57.53" width="4.46" height="4.46" fill="#fa9c5c"/><rect x="93.19" y="53.07" width="4.46" height="4.46" fill="#fa9c5c"/><rect x="93.19" y="48.61" width="4.46" height="4.46" fill="#fa9c5c"/><rect x="93.19" y="44.16" width="4.46" height="4.46" fill="#fa9c5c"/><rect x="93.19" y="39.7" width="4.46" height="4.46" fill="#fa9c5c"/><rect x="93.19" y="35.24" width="4.46" height="4.46" fill="#fa9c5c"/><rect x="93.19" y="30.78" width="4.46" height="4.46" fill="#fa9c5c"/><rect x="93.19" y="26.33" width="4.46" height="4.46" fill="#e86f3f"/><rect x="93.19" y="21.87" width="4.46" height="4.46" fill="#a84a24"/><rect x="93.19" y="17.41" width="4.46" height="4.46" fill="#fa9c5c"/><rect x="93.19" y="12.96" width="4.46" height="4.46" fill="#1b0003"/><rect x="88.73" y="97.64" width="4.46" height="4.46" fill="#1b0003"/><rect x="88.73" y="93.18" width="4.46" height="4.46" fill="#a84a24"/><rect x="88.73" y="88.73" width="4.46" height="4.46" fill="#a84a24"/><rect x="88.73" y="84.27" width="4.46" height="4.46" fill="#e86f3f"/><rect x="88.73" y="79.81" width="4.46" height="4.46" fill="#ef8741"/><rect x="88.73" y="75.36" width="4.46" height="4.46" fill="#ef8741"/><rect x="88.73" y="70.9" width="4.46" height="4.46" fill="#f2904e"/><rect x="88.73" y="66.44" width="4.46" height="4.46" fill="#f2904e"/><rect x="88.73" y="61.98" width="4.46" height="4.46" fill="#f2904e"/><rect x="88.73" y="57.53" width="4.46" height="4.46" fill="#fa9c5c"/><rect x="88.73" y="53.07" width="4.46" height="4.46" fill="#fa9c5c"/><rect x="88.73" y="48.61" width="4.46" height="4.46" fill="#fa9c5c"/><rect x="88.73" y="44.16" width="4.46" height="4.46" fill="#fa9c5c"/><rect x="88.73" y="39.7" width="4.46" height="4.46" fill="#fa9c5c"/><rect x="88.73" y="35.24" width="4.46" height="4.46" fill="#fa9c5c"/><rect x="88.73" y="30.78" width="4.46" height="4.46" fill="#fa9c5c"/><rect x="88.73" y="26.33" width="4.46" height="4.46" fill="#ef8741"/><rect x="88.73" y="21.87" width="4.46" height="4.46" fill="#a84a24"/><rect x="88.73" y="17.41" width="4.46" height="4.46" fill="#fa9c5c"/><rect x="88.73" y="12.96" width="4.46" height="4.46" fill="#1b0003"/><rect x="84.27" y="102.1" width="4.46" height="4.46" fill="#1b0003"/><rect x="84.27" y="97.64" width="4.46" height="4.46" fill="#a84a24"/><rect x="84.27" y="93.18" width="4.46" height="4.46" fill="#a84a24"/><rect x="84.27" y="88.73" width="4.46" height="4.46" fill="#e86f3f"/><rect x="84.27" y="84.27" width="4.46" height="4.46" fill="#ef8741"/><rect x="84.27" y="79.81" width="4.46" height="4.46" fill="#ef8741"/><rect x="84.27" y="75.36" width="4.46" height="4.46" fill="#f2904e"/><rect x="84.27" y="70.9" width="4.46" height="4.46" fill="#f2904e"/><rect x="84.27" y="66.44" width="4.46" height="4.46" fill="#fa9c5c"/><rect x="84.27" y="61.98" width="4.46" height="4.46" fill="#fa9c5c"/><rect x="84.27" y="57.53" width="4.46" height="4.46" fill="#fa9c5c"/><rect x="84.27" y="53.07" width="4.46" height="4.46" fill="#fa9c5c"/><rect x="84.27" y="48.61" width="4.46" height="4.46" fill="#ef8741"/><rect x="84.27" y="44.16" width="4.46" height="4.46" fill="#a84a24"/><rect x="84.27" y="39.7" width="4.46" height="4.46" fill="#fa9c5c"/><rect x="84.27" y="35.24" width="4.46" height="4.46" fill="#fa9c5c"/><rect x="84.27" y="30.78" width="4.46" height="4.46" fill="#fa9c5c"/><rect x="84.27" y="26.33" width="4.46" height="4.46" fill="#ef8741"/><rect x="84.27" y="21.87" width="4.46" height="4.46" fill="#a84a24"/><rect x="84.27" y="17.41" width="4.46" height="4.46" fill="#1b0003"/><rect x="79.81" y="106.56" width="4.46" height="4.46" fill="#1b0003"/><rect x="79.81" y="102.1" width="4.46" height="4.46" fill="#a84a24"/><rect x="79.81" y="97.64" width="4.46" height="4.46" fill="#a84a24"/><rect x="79.81" y="93.18" width="4.46" height="4.46" fill="#e86f3f"/><rect x="79.81" y="88.73" width="4.46" height="4.46" fill="#f2904e"/><rect x="79.81" y="84.27" width="4.46" height="4.46" fill="#f2904e"/><rect x="79.81" y="79.81" width="4.46" height="4.46" fill="#f2904e"/><rect x="79.81" y="75.36" width="4.46" height="4.46" fill="#fa9c5c"/><rect x="79.81" y="70.9" width="4.46" height="4.46" fill="#fa9c5c"/><rect x="79.81" y="66.44" width="4.46" height="4.46" fill="#fa9c5c"/><rect x="79.81" y="61.98" width="4.46" height="4.46" fill="#fa9c5c"/><rect x="79.81" y="57.53" width="4.46" height="4.46" fill="#fa9c5c"/><rect x="79.81" y="53.07" width="4.46" height="4.46" fill="#fa9c5c"/><rect x="79.81" y="48.61" width="4.46" height="4.46" fill="#e86f3f"/><rect x="79.81" y="44.16" width="4.46" height="4.46" fill="#e86f3f"/><rect x="79.81" y="39.7" width="4.46" height="4.46" fill="#a84a24"/><rect x="79.81" y="35.24" width="4.46" height="4.46" fill="#fa9c5c"/><rect x="79.81" y="30.78" width="4.46" height="4.46" fill="#fa9c5c"/><rect x="79.81" y="26.33" width="4.46" height="4.46" fill="#ef8741"/><rect x="79.81" y="21.87" width="4.46" height="4.46" fill="#1b0003"/><rect x="75.36" y="111.01" width="4.46" height="4.46" fill="#1b0003"/><rect x="75.36" y="106.56" width="4.46" height="4.46" fill="#a84a24"/><rect x="75.36" y="102.1" width="4.46" height="4.46" fill="#a84a24"/><rect x="75.36" y="97.64" width="4.46" height="4.46" fill="#e86f3f"/><rect x="75.36" y="93.18" width="4.46" height="4.46" fill="#f2904e"/><rect x="75.36" y="88.73" width="4.46" height="4.46" fill="#f2904e"/><rect x="75.36" y="84.27" width="4.46" height="4.46" fill="#f2904e"/><rect x="75.36" y="79.81" width="4.46" height="4.46" fill="#fa9c5c"/><rect x="75.36" y="75.36" width="4.46" height="4.46" fill="#fa9c5c"/><rect x="75.36" y="70.9" width="4.46" height="4.46" fill="#fa9c5c"/><rect x="75.36" y="66.44" width="4.46" height="4.46" fill="#fa9c5c"/><rect x="75.36" y="61.98" width="4.46" height="4.46" fill="#fa9c5c"/><rect x="75.36" y="57.53" width="4.46" height="4.46" fill="#fa9c5c"/><rect x="75.36" y="53.07" width="4.46" height="4.46" fill="#fa9c5c"/><rect x="75.36" y="48.61" width="4.46" height="4.46" fill="#ef8741"/><rect x="75.36" y="44.16" width="4.46" height="4.46" fill="#e86f3f"/><rect x="75.36" y="39.7" width="4.46" height="4.46" fill="#a84a24"/><rect x="75.36" y="35.24" width="4.46" height="4.46" fill="#a84a24"/><rect x="75.36" y="30.78" width="4.46" height="4.46" fill="#fa9c5c"/><rect x="75.36" y="26.33" width="4.46" height="4.46" fill="#1b0003"/><rect x="70.9" y="115.47" width="4.46" height="4.46" fill="#1b0003"/><rect x="70.9" y="111.01" width="4.46" height="4.46" fill="#a84a24"/><rect x="70.9" y="106.56" width="4.46" height="4.46" fill="#a84a24"/><rect x="70.9" y="102.1" width="4.46" height="4.46" fill="#a84a24"/><rect x="70.9" y="97.64" width="4.46" height="4.46" fill="#ef8741"/><rect x="70.9" y="93.18" width="4.46" height="4.46" fill="#f2904e"/><rect x="70.9" y="88.73" width="4.46" height="4.46" fill="#f2904e"/><rect x="70.9" y="84.27" width="4.46" height="4.46" fill="#fa9c5c"/><rect x="70.9" y="79.81" width="4.46" height="4.46" fill="#fa9c5c"/><rect x="70.9" y="75.36" width="4.46" height="4.46" fill="#fa9c5c"/><rect x="70.9" y="70.9" width="4.46" height="4.46" fill="#fa9c5c"/><rect x="70.9" y="66.44" width="4.46" height="4.46" fill="#a84a24"/><rect x="70.9" y="61.98" width="4.46" height="4.46" fill="#fa9c5c"/><rect x="70.9" y="57.53" width="4.46" height="4.46" fill="#fa9c5c"/><rect x="70.9" y="53.07" width="4.46" height="4.46" fill="#fa9c5c"/><rect x="70.9" y="48.61" width="4.46" height="4.46" fill="#fa9c5c"/><rect x="70.9" y="44.16" width="4.46" height="4.46" fill="#e86f3f"/><rect x="70.9" y="39.7" width="4.46" height="4.46" fill="#e86f3f"/><rect x="70.9" y="35.24" width="4.46" height="4.46" fill="#a84a24"/><rect x="70.9" y="30.78" width="4.46" height="4.46" fill="#1b0003"/><rect x="66.44" y="119.93" width="4.46" height="4.46" fill="#1b0003"/><rect x="66.44" y="115.47" width="4.46" height="4.46" fill="#a84a24"/><rect x="66.44" y="111.01" width="4.46" height="4.46" fill="#a84a24"/><rect x="66.44" y="106.56" width="4.46" height="4.46" fill="#a84a24"/><rect x="66.44" y="102.1" width="4.46" height="4.46" fill="#ef8741"/><rect x="66.44" y="97.64" width="4.46" height="4.46" fill="#ef8741"/><rect x="66.44" y="93.18" width="4.46" height="4.46" fill="#f2904e"/><rect x="66.44" y="88.73" width="4.46" height="4.46" fill="#fa9c5c"/><rect x="66.44" y="84.27" width="4.46" height="4.46" fill="#fa9c5c"/><rect x="66.44" y="79.81" width="4.46" height="4.46" fill="#fa9c5c"/><rect x="66.44" y="75.36" width="4.46" height="4.46" fill="#fa9c5c"/><rect x="66.44" y="70.9" width="4.46" height="4.46" fill="#fa9c5c"/><rect x="66.44" y="66.44" width="4.46" height="4.46" fill="#e86f3f"/><rect x="66.44" y="61.98" width="4.46" height="4.46" fill="#a84a24"/><rect x="66.44" y="57.53" width="4.46" height="4.46" fill="#fa9c5c"/><rect x="66.44" y="53.07" width="4.46" height="4.46" fill="#fa9c5c"/><rect x="66.44" y="48.61" width="4.46" height="4.46" fill="#fa9c5c"/><rect x="66.44" y="44.16" width="4.46" height="4.46" fill="#fa9c5c"/><rect x="66.44" y="39.7" width="4.46" height="4.46" fill="#ef8741"/><rect x="66.44" y="35.24" width="4.46" height="4.46" fill="#1b0003"/><rect x="61.99" y="124.38" width="4.46" height="4.46" fill="#1b0003"/><rect x="61.99" y="119.93" width="4.46" height="4.46" fill="#a84a24"/><rect x="61.99" y="115.47" width="4.46" height="4.46" fill="#a84a24"/><rect x="61.99" y="111.01" width="4.46" height="4.46" fill="#a84a24"/><rect x="61.99" y="106.56" width="4.46" height="4.46" fill="#e86f3f"/><rect x="61.99" y="102.1" width="4.46" height="4.46" fill="#ef8741"/><rect x="61.99" y="97.64" width="4.46" height="4.46" fill="#f2904e"/><rect x="61.99" y="93.18" width="4.46" height="4.46" fill="#f2904e"/><rect x="61.99" y="88.73" width="4.46" height="4.46" fill="#fa9c5c"/><rect x="61.99" y="84.27" width="4.46" height="4.46" fill="#fa9c5c"/><rect x="61.99" y="79.81" width="4.46" height="4.46" fill="#fa9c5c"/><rect x="61.99" y="75.36" width="4.46" height="4.46" fill="#fa9c5c"/><rect x="61.99" y="70.9" width="4.46" height="4.46" fill="#fa9c5c"/><rect x="61.99" y="66.44" width="4.46" height="4.46" fill="#ef8741"/><rect x="61.99" y="61.98" width="4.46" height="4.46" fill="#e86f3f"/><rect x="61.99" y="57.53" width="4.46" height="4.46" fill="#a84a24"/><rect x="61.99" y="53.07" width="4.46" height="4.46" fill="#fa9c5c"/><rect x="61.99" y="48.61" width="4.46" height="4.46" fill="#fa9c5c"/><rect x="61.99" y="44.16" width="4.46" height="4.46" fill="#fa9c5c"/><rect x="61.99" y="39.7" width="4.46" height="4.46" fill="#1b0003"/><rect x="57.53" y="128.84" width="4.46" height="4.46" fill="#1b0003"/><rect x="57.53" y="124.38" width="4.46" height="4.46" fill="#a84a24"/><rect x="57.53" y="119.93" width="4.46" height="4.46" fill="#a84a24"/><rect x="57.53" y="115.47" width="4.46" height="4.46" fill="#a84a24"/><rect x="57.53" y="111.01" width="4.46" height="4.46" fill="#e86f3f"/><rect x="57.53" y="106.56" width="4.46" height="4.46" fill="#ef8741"/><rect x="57.53" y="102.1" width="4.46" height="4.46" fill="#f2904e"/><rect x="57.53" y="97.64" width="4.46" height="4.46" fill="#f2904e"/><rect x="57.53" y="93.18" width="4.46" height="4.46" fill="#fa9c5c"/><rect x="57.53" y="88.73" width="4.46" height="4.46" fill="#fa9c5c"/><rect x="57.53" y="84.27" width="4.46" height="4.46" fill="#fa9c5c"/><rect x="57.53" y="79.81" width="4.46" height="4.46" fill="#fa9c5c"/><rect x="57.53" y="75.36" width="4.46" height="4.46" fill="#fa9c5c"/><rect x="57.53" y="70.9" width="4.46" height="4.46" fill="#fa9c5c"/><rect x="57.53" y="66.44" width="4.46" height="4.46" fill="#ef8741"/><rect x="57.53" y="61.98" width="4.46" height="4.46" fill="#e86f3f"/><rect x="57.53" y="57.53" width="4.46" height="4.46" fill="#e86f3f"/><rect x="57.53" y="53.07" width="4.46" height="4.46" fill="#a84a24"/><rect x="57.53" y="48.61" width="4.46" height="4.46" fill="#fa9c5c"/><rect x="57.53" y="44.16" width="4.46" height="4.46" fill="#1b0003"/><rect x="53.07" y="128.84" width="4.46" height="4.46" fill="#1b0003"/><rect x="53.07" y="124.38" width="4.46" height="4.46" fill="#a84a24"/><rect x="53.07" y="119.93" width="4.46" height="4.46" fill="#a84a24"/><rect x="53.07" y="115.47" width="4.46" height="4.46" fill="#e86f3f"/><rect x="53.07" y="111.01" width="4.46" height="4.46" fill="#ef8741"/><rect x="53.07" y="106.56" width="4.46" height="4.46" fill="#f2904e"/><rect x="53.07" y="102.1" width="4.46" height="4.46" fill="#f2904e"/><rect x="53.07" y="97.64" width="4.46" height="4.46" fill="#fa9c5c"/><rect x="53.07" y="93.18" width="4.46" height="4.46" fill="#fa9c5c"/><rect x="53.07" y="88.73" width="4.46" height="4.46" fill="#fa9c5c"/><rect x="53.07" y="84.27" width="4.46" height="4.46" fill="#fa9c5c"/><rect x="53.07" y="79.81" width="4.46" height="4.46" fill="#fa9c5c"/><rect x="53.07" y="75.36" width="4.46" height="4.46" fill="#fa9c5c"/><rect x="53.07" y="70.9" width="4.46" height="4.46" fill="#fa9c5c"/><rect x="53.07" y="66.44" width="4.46" height="4.46" fill="#fa9c5c"/><rect x="53.07" y="61.98" width="4.46" height="4.46" fill="#ef8741"/><rect x="53.07" y="57.53" width="4.46" height="4.46" fill="#e86f3f"/><rect x="53.07" y="53.07" width="4.46" height="4.46" fill="#a84a24"/><rect x="53.07" y="48.61" width="4.46" height="4.46" fill="#1b0003"/><rect x="48.61" y="133.3" width="4.46" height="4.46" fill="#1b0003"/><rect x="48.61" y="128.84" width="4.46" height="4.46" fill="#a84a24"/><rect x="48.61" y="124.38" width="4.46" height="4.46" fill="#a84a24"/><rect x="48.61" y="119.93" width="4.46" height="4.46" fill="#a84a24"/><rect x="48.61" y="115.47" width="4.46" height="4.46" fill="#ef8741"/><rect x="48.61" y="111.01" width="4.46" height="4.46" fill="#f2904e"/><rect x="48.61" y="106.56" width="4.46" height="4.46" fill="#f2904e"/><rect x="48.61" y="102.1" width="4.46" height="4.46" fill="#fa9c5c"/><rect x="48.61" y="97.64" width="4.46" height="4.46" fill="#fa9c5c"/><rect x="48.61" y="93.18" width="4.46" height="4.46" fill="#fa9c5c"/><rect x="48.61" y="88.73" width="4.46" height="4.46" fill="#ef8741"/><rect x="48.61" y="84.27" width="4.46" height="4.46" fill="#a84a24"/><rect x="48.61" y="79.81" width="4.46" height="4.46" fill="#fa9c5c"/><rect x="48.61" y="75.36" width="4.46" height="4.46" fill="#fa9c5c"/><rect x="48.61" y="70.9" width="4.46" height="4.46" fill="#fa9c5c"/><rect x="48.61" y="66.44" width="4.46" height="4.46" fill="#fa9c5c"/><rect x="48.61" y="61.98" width="4.46" height="4.46" fill="#fa9c5c"/><rect x="48.61" y="57.53" width="4.46" height="4.46" fill="#ef8741"/><rect x="48.61" y="53.07" width="4.46" height="4.46" fill="#1b0003"/><rect x="44.16" y="133.3" width="4.46" height="4.46" fill="#1b0003"/><rect x="44.16" y="128.84" width="4.46" height="4.46" fill="#a84a24"/><rect x="44.16" y="124.38" width="4.46" height="4.46" fill="#a84a24"/><rect x="44.16" y="119.93" width="4.46" height="4.46" fill="#e86f3f"/><rect x="44.16" y="115.47" width="4.46" height="4.46" fill="#ef8741"/><rect x="44.16" y="111.01" width="4.46" height="4.46" fill="#f2904e"/><rect x="44.16" y="106.56" width="4.46" height="4.46" fill="#fa9c5c"/><rect x="44.16" y="102.1" width="4.46" height="4.46" fill="#fa9c5c"/><rect x="44.16" y="97.64" width="4.46" height="4.46" fill="#fa9c5c"/><rect x="44.16" y="93.18" width="4.46" height="4.46" fill="#fa9c5c"/><rect x="44.16" y="88.73" width="4.46" height="4.46" fill="#e86f3f"/><rect x="44.16" y="84.27" width="4.46" height="4.46" fill="#e86f3f"/><rect x="44.16" y="79.81" width="4.46" height="4.46" fill="#a84a24"/><rect x="44.16" y="75.36" width="4.46" height="4.46" fill="#fa9c5c"/><rect x="44.16" y="70.9" width="4.46" height="4.46" fill="#fa9c5c"/><rect x="44.16" y="66.44" width="4.46" height="4.46" fill="#fa9c5c"/><rect x="44.16" y="61.98" width="4.46" height="4.46" fill="#fa9c5c"/><rect x="44.16" y="57.53" width="4.46" height="4.46" fill="#1b0003"/><rect x="39.7" y="133.3" width="4.46" height="4.46" fill="#1b0003"/><rect x="39.7" y="128.84" width="4.46" height="4.46" fill="#a84a24"/><rect x="39.7" y="124.38" width="4.46" height="4.46" fill="#a84a24"/><rect x="39.7" y="119.93" width="4.46" height="4.46" fill="#e86f3f"/><rect x="39.7" y="115.47" width="4.46" height="4.46" fill="#ef8741"/><rect x="39.7" y="111.01" width="4.46" height="4.46" fill="#f2904e"/><rect x="39.7" y="106.56" width="4.46" height="4.46" fill="#fa9c5c"/><rect x="39.7" y="102.1" width="4.46" height="4.46" fill="#fa9c5c"/><rect x="39.7" y="97.64" width="4.46" height="4.46" fill="#fa9c5c"/><rect x="39.7" y="93.18" width="4.46" height="4.46" fill="#fa9c5c"/><rect x="39.7" y="88.73" width="4.46" height="4.46" fill="#ef8741"/><rect x="39.7" y="84.27" width="4.46" height="4.46" fill="#e86f3f"/><rect x="39.7" y="79.81" width="4.46" height="4.46" fill="#a84a24"/><rect x="39.7" y="75.36" width="4.46" height="4.46" fill="#a84a24"/><rect x="39.7" y="70.9" width="4.46" height="4.46" fill="#fa9c5c"/><rect x="39.7" y="66.44" width="4.46" height="4.46" fill="#fa9c5c"/><rect x="39.7" y="61.98" width="4.46" height="4.46" fill="#1b0003"/><rect x="35.24" y="133.3" width="4.46" height="4.46" fill="#1b0003"/><rect x="35.24" y="128.84" width="4.46" height="4.46" fill="#a84a24"/><rect x="35.24" y="124.38" width="4.46" height="4.46" fill="#a84a24"/><rect x="35.24" y="119.93" width="4.46" height="4.46" fill="#ef8741"/><rect x="35.24" y="115.47" width="4.46" height="4.46" fill="#f2904e"/><rect x="35.24" y="111.01" width="4.46" height="4.46" fill="#f2904e"/><rect x="35.24" y="106.56" width="4.46" height="4.46" fill="#fa9c5c"/><rect x="35.24" y="102.1" width="4.46" height="4.46" fill="#fa9c5c"/><rect x="35.24" y="97.64" width="4.46" height="4.46" fill="#fa9c5c"/><rect x="35.24" y="93.18" width="4.46" height="4.46" fill="#fa9c5c"/><rect x="35.24" y="88.73" width="4.46" height="4.46" fill="#fa9c5c"/><rect x="35.24" y="84.27" width="4.46" height="4.46" fill="#e86f3f"/><rect x="35.24" y="79.81" width="4.46" height="4.46" fill="#e86f3f"/><rect x="35.24" y="75.36" width="4.46" height="4.46" fill="#a84a24"/><rect x="35.24" y="70.9" width="4.46" height="4.46" fill="#fa9c5c"/><rect x="35.24" y="66.44" width="4.46" height="4.46" fill="#1b0003"/><rect x="30.79" y="133.3" width="4.46" height="4.46" fill="#1b0003"/><rect x="30.79" y="128.84" width="4.46" height="4.46" fill="#a84a24"/><rect x="30.79" y="124.38" width="4.46" height="4.46" fill="#a84a24"/><rect x="30.79" y="119.93" width="4.46" height="4.46" fill="#ef8741"/><rect x="30.79" y="115.47" width="4.46" height="4.46" fill="#f2904e"/><rect x="30.79" y="111.01" width="4.46" height="4.46" fill="#f2904e"/><rect x="30.79" y="106.56" width="4.46" height="4.46" fill="#fa9c5c"/><rect x="30.79" y="102.1" width="4.46" height="4.46" fill="#fa9c5c"/><rect x="30.79" y="97.64" width="4.46" height="4.46" fill="#fa9c5c"/><rect x="30.79" y="93.18" width="4.46" height="4.46" fill="#fa9c5c"/><rect x="30.79" y="88.73" width="4.46" height="4.46" fill="#fa9c5c"/><rect x="30.79" y="84.27" width="4.46" height="4.46" fill="#ef8741"/><rect x="30.79" y="79.81" width="4.46" height="4.46" fill="#e86f3f"/><rect x="30.79" y="75.36" width="4.46" height="4.46" fill="#a84a24"/><rect x="30.79" y="70.9" width="4.46" height="4.46" fill="#1b0003"/><rect x="26.33" y="133.3" width="4.46" height="4.46" fill="#1b0003"/><rect x="26.33" y="128.84" width="4.46" height="4.46" fill="#a84a24"/><rect x="26.33" y="124.38" width="4.46" height="4.46" fill="#e86f3f"/><rect x="26.33" y="119.93" width="4.46" height="4.46" fill="#ef8741"/><rect x="26.33" y="115.47" width="4.46" height="4.46" fill="#f2904e"/><rect x="26.33" y="111.01" width="4.46" height="4.46" fill="#fa9c5c"/><rect x="26.33" y="106.56" width="4.46" height="4.46" fill="#fa9c5c"/><rect x="26.33" y="102.1" width="4.46" height="4.46" fill="#fa9c5c"/><rect x="26.33" y="97.64" width="4.46" height="4.46" fill="#fa9c5c"/><rect x="26.33" y="93.18" width="4.46" height="4.46" fill="#fa9c5c"/><rect x="26.33" y="88.73" width="4.46" height="4.46" fill="#fa9c5c"/><rect x="26.33" y="84.27" width="4.46" height="4.46" fill="#fa9c5c"/><rect x="26.33" y="79.81" width="4.46" height="4.46" fill="#e86f3f"/><rect x="26.33" y="75.36" width="4.46" height="4.46" fill="#1b0003"/><rect x="21.87" y="128.84" width="4.46" height="4.46" fill="#1b0003"/><rect x="21.87" y="124.38" width="4.46" height="4.46" fill="#e86f3f"/><rect x="21.87" y="119.93" width="4.46" height="4.46" fill="#f2904e"/><rect x="21.87" y="115.47" width="4.46" height="4.46" fill="#f2904e"/><rect x="21.87" y="111.01" width="4.46" height="4.46" fill="#fa9c5c"/><rect x="21.87" y="106.56" width="4.46" height="4.46" fill="#fa9c5c"/><rect x="21.87" y="102.1" width="4.46" height="4.46" fill="#fa9c5c"/><rect x="21.87" y="97.64" width="4.46" height="4.46" fill="#fa9c5c"/><rect x="21.87" y="93.18" width="4.46" height="4.46" fill="#fa9c5c"/><rect x="21.87" y="88.73" width="4.46" height="4.46" fill="#fa9c5c"/><rect x="21.87" y="84.27" width="4.46" height="4.46" fill="#fa9c5c"/><rect x="21.87" y="79.81" width="4.46" height="4.46" fill="#1b0003"/><rect x="17.42" y="128.84" width="4.46" height="4.46" fill="#1b0003"/><rect x="17.42" y="124.38" width="4.46" height="4.46" fill="#ef8741"/><rect x="17.42" y="119.93" width="4.46" height="4.46" fill="#f2904e"/><rect x="17.42" y="115.47" width="4.46" height="4.46" fill="#f2904e"/><rect x="17.42" y="111.01" width="4.46" height="4.46" fill="#fa9c5c"/><rect x="17.42" y="106.56" width="4.46" height="4.46" fill="#fa9c5c"/><rect x="17.42" y="102.1" width="4.46" height="4.46" fill="#fa9c5c"/><rect x="17.42" y="97.64" width="4.46" height="4.46" fill="#fa9c5c"/><rect x="17.42" y="93.18" width="4.46" height="4.46" fill="#fa9c5c"/><rect x="17.42" y="88.73" width="4.46" height="4.46" fill="#fa9c5c"/><rect x="17.42" y="84.27" width="4.46" height="4.46" fill="#1b0003"/><rect x="12.96" y="124.38" width="4.46" height="4.46" fill="#1b0003"/><rect x="12.96" y="119.93" width="4.46" height="4.46" fill="#f2904e"/><rect x="12.96" y="115.47" width="4.46" height="4.46" fill="#f2904e"/><rect x="12.96" y="111.01" width="4.46" height="4.46" fill="#f2904e"/><rect x="12.96" y="106.56" width="4.46" height="4.46" fill="#fa9c5c"/><rect x="12.96" y="102.1" width="4.46" height="4.46" fill="#fa9c5c"/><rect x="12.96" y="97.64" width="4.46" height="4.46" fill="#fa9c5c"/><rect x="12.96" y="93.18" width="4.46" height="4.46" fill="#1b0003"/><rect x="12.96" y="88.73" width="4.46" height="4.46" fill="#1b0003"/><rect x="8.5" y="119.93" width="4.46" height="4.46" fill="#1b0003"/><rect x="8.5" y="115.47" width="4.46" height="4.46" fill="#1b0003"/><rect x="8.5" y="111.01" width="4.46" height="4.46" fill="#1b0003"/><rect x="8.5" y="106.56" width="4.46" height="4.46" fill="#1b0003"/><rect x="8.5" y="102.1" width="4.46" height="4.46" fill="#1b0003"/><rect x="8.5" y="97.64" width="4.46" height="4.46" fill="#1b0003"/></g></g></g></g></svg>