<svg xmlns="http://www.w3.org/2000/svg" width="146.01" height="146.01" viewBox="0 0 146.01 146.01"><g id="Layer_2" data-name="Layer 2"><g id="items"><g id="Chicken"><path d="M52.19,146H23.46v-5.86H17.59v-5.87H5.86v-5.86H0V99.69H5.86V93.83H29.32V88h5.87V70.37h5.86V64.51h5.86V23.46h5.87V11.73h5.86V5.87H70.37V0h58V5.87h5.86v5.86h5.87v5.86H146V75.64h-5.86v5.87h-5.87v5.86h-5.86v5.86H116.69V99.1H81.51V105H75.64v5.87H63.91v5.86H58.05v23.46H52.19ZM40.46,123.15h.59V110.83H22.86v6.45H34.59v5.87ZM52.19,93.83h6.45V88h5.87V82.1H99.69V76.23h11.73V70.37h5.86V64.51h5.87V58.64H129v-24h-5.86V28.73h-5.87V22.87h-5.86V17h-24v5.87H75.64v5.86H69.78V40.46H63.91V81.51H58.05v5.86H52.19Z" fill="#fff"/><g id="Chicken-2" data-name="Chicken"><rect x="131.65" y="61.28" width="5.86" height="5.86" fill="#1b0003"/><rect x="131.65" y="55.41" width="5.86" height="5.86" fill="#1b0003"/><rect x="131.65" y="49.55" width="5.86" height="5.86" fill="#1b0003"/><rect x="131.65" y="43.69" width="5.86" height="5.86" fill="#1b0003"/><rect x="131.65" y="37.82" width="5.86" height="5.87" fill="#1b0003"/><rect x="131.65" y="31.96" width="5.86" height="5.86" fill="#1b0003"/><rect x="131.65" y="26.09" width="5.86" height="5.86" fill="#1b0003"/><rect x="125.78" y="67.14" width="5.87" height="5.86" fill="#1b0003"/><rect x="125.78" y="61.28" width="5.87" height="5.86" fill="#932f1f"/><rect x="125.78" y="55.41" width="5.87" height="5.86" fill="#932f1f"/><rect x="125.78" y="49.55" width="5.87" height="5.86" fill="#932f1f"/><rect x="125.78" y="43.69" width="5.87" height="5.86" fill="#7f1e14"/><rect x="125.78" y="37.82" width="5.87" height="5.87" fill="#7f1e14"/><rect x="125.78" y="31.96" width="5.87" height="5.86" fill="#7f1e14"/><rect x="125.78" y="26.09" width="5.87" height="5.86" fill="#7f1e14"/><rect x="125.78" y="20.23" width="5.87" height="5.86" fill="#1b0003"/><rect x="119.92" y="73.01" width="5.86" height="5.87" fill="#1b0003"/><rect x="119.92" y="67.14" width="5.86" height="5.86" fill="#932f1f"/><rect x="119.92" y="61.28" width="5.86" height="5.86" fill="#932f1f"/><rect x="119.92" y="55.41" width="5.86" height="5.86" fill="#7f1e14"/><rect x="119.92" y="49.55" width="5.86" height="5.86" fill="#7f1e14"/><rect x="119.92" y="43.69" width="5.86" height="5.86" fill="#7f1e14"/><rect x="119.92" y="37.82" width="5.86" height="5.87" fill="#7f1e14"/><rect x="119.92" y="31.96" width="5.86" height="5.86" fill="#7f1e14"/><rect x="119.92" y="26.09" width="5.86" height="5.86" fill="#7f1e14"/><rect x="119.92" y="20.23" width="5.86" height="5.86" fill="#932f1f"/><rect x="119.92" y="14.37" width="5.86" height="5.86" fill="#1b0003"/><rect x="114.05" y="78.87" width="5.86" height="5.86" fill="#1b0003"/><rect x="114.05" y="73.01" width="5.86" height="5.87" fill="#932f1f"/><rect x="114.05" y="67.14" width="5.86" height="5.86" fill="#932f1f"/><rect x="114.05" y="61.28" width="5.86" height="5.86" fill="#7f1e14"/><rect x="114.05" y="55.41" width="5.86" height="5.86" fill="#7f1e14"/><rect x="114.05" y="49.55" width="5.86" height="5.86" fill="#7f1e14"/><rect x="114.05" y="43.69" width="5.86" height="5.86" fill="#7f1e14"/><rect x="114.05" y="37.82" width="5.86" height="5.87" fill="#a84a24"/><rect x="114.05" y="31.96" width="5.86" height="5.86" fill="#a84a24"/><rect x="114.05" y="26.09" width="5.86" height="5.86" fill="#a84a24"/><rect x="114.05" y="20.23" width="5.86" height="5.86" fill="#a84a24"/><rect x="114.05" y="14.37" width="5.86" height="5.86" fill="#a84a24"/><rect x="114.05" y="8.5" width="5.86" height="5.87" fill="#1b0003"/><rect x="108.19" y="78.87" width="5.86" height="5.86" fill="#1b0003"/><rect x="108.19" y="73.01" width="5.86" height="5.87" fill="#932f1f"/><rect x="108.19" y="67.14" width="5.86" height="5.86" fill="#7f1e14"/><rect x="108.19" y="61.28" width="5.86" height="5.86" fill="#7f1e14"/><rect x="108.19" y="55.41" width="5.86" height="5.86" fill="#7f1e14"/><rect x="108.19" y="49.55" width="5.86" height="5.86" fill="#7f1e14"/><rect x="108.19" y="43.69" width="5.86" height="5.86" fill="#a84a24"/><rect x="108.19" y="37.82" width="5.86" height="5.87" fill="#a84a24"/><rect x="108.19" y="31.96" width="5.86" height="5.86" fill="#a84a24"/><rect x="108.19" y="26.09" width="5.86" height="5.86" fill="#a84a24"/><rect x="108.19" y="20.23" width="5.86" height="5.86" fill="#a84a24"/><rect x="108.19" y="14.37" width="5.86" height="5.86" fill="#a84a24"/><rect x="108.19" y="8.5" width="5.86" height="5.87" fill="#1b0003"/><rect x="102.33" y="84.74" width="5.86" height="5.86" fill="#1b0003"/><rect x="102.33" y="78.87" width="5.86" height="5.86" fill="#932f1f"/><rect x="102.33" y="73.01" width="5.86" height="5.87" fill="#932f1f"/><rect x="102.33" y="67.14" width="5.86" height="5.86" fill="#7f1e14"/><rect x="102.33" y="61.28" width="5.86" height="5.86" fill="#7f1e14"/><rect x="102.33" y="55.41" width="5.86" height="5.86" fill="#7f1e14"/><rect x="102.33" y="49.55" width="5.86" height="5.86" fill="#a84a24"/><rect x="102.33" y="43.69" width="5.86" height="5.86" fill="#932f1f"/><rect x="102.33" y="37.82" width="5.86" height="5.87" fill="#a84a24"/><rect x="102.33" y="31.96" width="5.86" height="5.86" fill="#a84a24"/><rect x="102.33" y="26.09" width="5.86" height="5.86" fill="#a84a24"/><rect x="102.33" y="20.23" width="5.86" height="5.86" fill="#f2904e"/><rect x="102.33" y="14.37" width="5.86" height="5.86" fill="#a84a24"/><rect x="102.33" y="8.5" width="5.86" height="5.87" fill="#1b0003"/><rect x="96.46" y="84.74" width="5.87" height="5.86" fill="#1b0003"/><rect x="96.46" y="78.87" width="5.87" height="5.86" fill="#932f1f"/><rect x="96.46" y="73.01" width="5.87" height="5.87" fill="#7f1e14"/><rect x="96.46" y="67.14" width="5.87" height="5.86" fill="#7f1e14"/><rect x="96.46" y="61.28" width="5.87" height="5.86" fill="#7f1e14"/><rect x="96.46" y="55.41" width="5.87" height="5.86" fill="#a84a24"/><rect x="96.46" y="49.55" width="5.87" height="5.86" fill="#a84a24"/><rect x="96.46" y="43.69" width="5.87" height="5.86" fill="#a84a24"/><rect x="96.46" y="37.82" width="5.87" height="5.87" fill="#a84a24"/><rect x="96.46" y="31.96" width="5.87" height="5.86" fill="#a84a24"/><rect x="96.46" y="26.09" width="5.87" height="5.86" fill="#a84a24"/><rect x="96.46" y="20.23" width="5.87" height="5.86" fill="#a84a24"/><rect x="96.46" y="14.37" width="5.87" height="5.86" fill="#932f1f"/><rect x="96.46" y="8.5" width="5.87" height="5.87" fill="#1b0003"/><rect x="90.6" y="84.74" width="5.86" height="5.86" fill="#1b0003"/><rect x="90.6" y="78.87" width="5.86" height="5.86" fill="#932f1f"/><rect x="90.6" y="73.01" width="5.86" height="5.87" fill="#7f1e14"/><rect x="90.6" y="67.14" width="5.86" height="5.86" fill="#7f1e14"/><rect x="90.6" y="61.28" width="5.86" height="5.86" fill="#7f1e14"/><rect x="90.6" y="55.41" width="5.86" height="5.86" fill="#a84a24"/><rect x="90.6" y="49.55" width="5.86" height="5.86" fill="#a84a24"/><rect x="90.6" y="43.69" width="5.86" height="5.86" fill="#a84a24"/><rect x="90.6" y="37.82" width="5.86" height="5.87" fill="#a84a24"/><rect x="90.6" y="31.96" width="5.86" height="5.86" fill="#a84a24"/><rect x="90.6" y="26.09" width="5.86" height="5.86" fill="#f2904e"/><rect x="90.6" y="20.23" width="5.86" height="5.86" fill="#a84a24"/><rect x="90.6" y="14.37" width="5.86" height="5.86" fill="#a84a24"/><rect x="90.6" y="8.5" width="5.86" height="5.87" fill="#1b0003"/><rect x="84.73" y="84.74" width="5.86" height="5.86" fill="#1b0003"/><rect x="84.73" y="78.87" width="5.86" height="5.86" fill="#932f1f"/><rect x="84.73" y="73.01" width="5.86" height="5.87" fill="#7f1e14"/><rect x="84.73" y="67.14" width="5.86" height="5.86" fill="#7f1e14"/><rect x="84.73" y="61.28" width="5.86" height="5.86" fill="#a84a24"/><rect x="84.73" y="55.41" width="5.86" height="5.86" fill="#a84a24"/><rect x="84.73" y="49.55" width="5.86" height="5.86" fill="#a84a24"/><rect x="84.73" y="43.69" width="5.86" height="5.86" fill="#a84a24"/><rect x="84.73" y="37.82" width="5.86" height="5.87" fill="#a84a24"/><rect x="84.73" y="31.96" width="5.86" height="5.86" fill="#f2904e"/><rect x="84.73" y="26.09" width="5.86" height="5.86" fill="#f2904e"/><rect x="84.73" y="20.23" width="5.86" height="5.86" fill="#f2904e"/><rect x="84.73" y="14.37" width="5.86" height="5.86" fill="#a84a24"/><rect x="84.73" y="8.5" width="5.86" height="5.87" fill="#1b0003"/><rect x="78.87" y="84.74" width="5.86" height="5.86" fill="#1b0003"/><rect x="78.87" y="78.87" width="5.86" height="5.86" fill="#932f1f"/><rect x="78.87" y="73.01" width="5.86" height="5.87" fill="#7f1e14"/><rect x="78.87" y="67.14" width="5.86" height="5.86" fill="#7f1e14"/><rect x="78.87" y="61.28" width="5.86" height="5.86" fill="#a84a24"/><rect x="78.87" y="55.41" width="5.86" height="5.86" fill="#a84a24"/><rect x="78.87" y="49.55" width="5.86" height="5.86" fill="#932f1f"/><rect x="78.87" y="43.69" width="5.86" height="5.86" fill="#a84a24"/><rect x="78.87" y="37.82" width="5.86" height="5.87" fill="#f2904e"/><rect x="78.87" y="31.96" width="5.86" height="5.86" fill="#f2904e"/><rect x="78.87" y="26.09" width="5.86" height="5.86" fill="#f2904e"/><rect x="78.87" y="20.23" width="5.86" height="5.86" fill="#a84a24"/><rect x="78.87" y="14.37" width="5.86" height="5.86" fill="#a84a24"/><rect x="78.87" y="8.5" width="5.86" height="5.87" fill="#1b0003"/><rect x="73.01" y="84.74" width="5.86" height="5.86" fill="#1b0003"/><rect x="73.01" y="78.87" width="5.86" height="5.86" fill="#932f1f"/><rect x="73.01" y="73.01" width="5.86" height="5.87" fill="#7f1e14"/><rect x="73.01" y="67.14" width="5.86" height="5.86" fill="#a84a24"/><rect x="73.01" y="61.28" width="5.86" height="5.86" fill="#a84a24"/><rect x="73.01" y="55.41" width="5.86" height="5.86" fill="#a84a24"/><rect x="73.01" y="49.55" width="5.86" height="5.86" fill="#a84a24"/><rect x="73.01" y="43.69" width="5.86" height="5.86" fill="#a84a24"/><rect x="73.01" y="37.82" width="5.86" height="5.87" fill="#f2904e"/><rect x="73.01" y="31.96" width="5.86" height="5.86" fill="#f2904e"/><rect x="73.01" y="26.09" width="5.86" height="5.86" fill="#f2904e"/><rect x="73.01" y="20.23" width="5.86" height="5.86" fill="#a84a24"/><rect x="73.01" y="14.37" width="5.86" height="5.86" fill="#1b0003"/><rect x="67.14" y="90.6" width="5.86" height="5.86" fill="#1b0003"/><rect x="67.14" y="84.74" width="5.86" height="5.86" fill="#932f1f"/><rect x="67.14" y="78.87" width="5.86" height="5.86" fill="#7f1e14"/><rect x="67.14" y="73.01" width="5.86" height="5.87" fill="#7f1e14"/><rect x="67.14" y="67.14" width="5.86" height="5.86" fill="#a84a24"/><rect x="67.14" y="61.28" width="5.86" height="5.86" fill="#a84a24"/><rect x="67.14" y="55.41" width="5.86" height="5.86" fill="#a84a24"/><rect x="67.14" y="49.55" width="5.86" height="5.86" fill="#a84a24"/><rect x="67.14" y="43.69" width="5.86" height="5.86" fill="#f2904e"/><rect x="67.14" y="37.82" width="5.86" height="5.87" fill="#a84a24"/><rect x="67.14" y="31.96" width="5.86" height="5.86" fill="#f2904e"/><rect x="67.14" y="26.09" width="5.86" height="5.86" fill="#a84a24"/><rect x="67.14" y="20.23" width="5.86" height="5.86" fill="#a84a24"/><rect x="67.14" y="14.37" width="5.86" height="5.86" fill="#1b0003"/><rect x="61.28" y="96.46" width="5.87" height="5.86" fill="#1b0003"/><rect x="61.28" y="90.6" width="5.87" height="5.86" fill="#932f1f"/><rect x="61.28" y="84.74" width="5.87" height="5.86" fill="#932f1f"/><rect x="61.28" y="78.87" width="5.87" height="5.86" fill="#7f1e14"/><rect x="61.28" y="73.01" width="5.87" height="5.87" fill="#a84a24"/><rect x="61.28" y="67.14" width="5.87" height="5.86" fill="#a84a24"/><rect x="61.28" y="61.28" width="5.87" height="5.86" fill="#a84a24"/><rect x="61.28" y="55.41" width="5.87" height="5.86" fill="#a84a24"/><rect x="61.28" y="49.55" width="5.87" height="5.86" fill="#a84a24"/><rect x="61.28" y="43.69" width="5.87" height="5.86" fill="#a84a24"/><rect x="61.28" y="37.82" width="5.87" height="5.87" fill="#a84a24"/><rect x="61.28" y="31.96" width="5.87" height="5.86" fill="#a84a24"/><rect x="61.28" y="26.09" width="5.87" height="5.86" fill="#1b0003"/><rect x="61.28" y="20.23" width="5.87" height="5.86" fill="#1b0003"/><rect x="55.41" y="96.46" width="5.86" height="5.86" fill="#1b0003"/><rect x="55.41" y="90.6" width="5.86" height="5.86" fill="#932f1f"/><rect x="55.41" y="84.74" width="5.86" height="5.86" fill="#932f1f"/><rect x="55.41" y="78.87" width="5.86" height="5.86" fill="#7f1e14"/><rect x="55.41" y="73.01" width="5.86" height="5.87" fill="#a84a24"/><rect x="55.41" y="67.14" width="5.86" height="5.86" fill="#1b0003"/><rect x="55.41" y="61.28" width="5.86" height="5.86" fill="#1b0003"/><rect x="55.41" y="55.41" width="5.86" height="5.86" fill="#1b0003"/><rect x="55.41" y="49.55" width="5.86" height="5.86" fill="#1b0003"/><rect x="55.41" y="43.69" width="5.86" height="5.86" fill="#1b0003"/><rect x="55.41" y="37.82" width="5.86" height="5.87" fill="#1b0003"/><rect x="55.41" y="31.96" width="5.86" height="5.86" fill="#1b0003"/><rect x="49.55" y="102.33" width="5.86" height="5.87" fill="#1b0003"/><rect x="49.55" y="96.46" width="5.86" height="5.86" fill="#e0bea4"/><rect x="49.55" y="90.6" width="5.86" height="5.86" fill="#1b0003"/><rect x="49.55" y="84.74" width="5.86" height="5.86" fill="#932f1f"/><rect x="49.55" y="78.87" width="5.86" height="5.86" fill="#7f1e14"/><rect x="49.55" y="73.01" width="5.86" height="5.87" fill="#1b0003"/><rect x="43.68" y="125.78" width="5.86" height="5.86" fill="#1b0003"/><rect x="43.68" y="119.92" width="5.86" height="5.86" fill="#1b0003"/><rect x="43.68" y="108.19" width="5.86" height="5.86" fill="#1b0003"/><rect x="43.68" y="114.06" width="5.86" height="5.86" fill="#1b0003"/><rect x="43.68" y="102.33" width="5.86" height="5.87" fill="#ead0b9"/><rect x="43.68" y="96.46" width="5.86" height="5.86" fill="#f9f2d4"/><rect x="43.68" y="90.6" width="5.86" height="5.86" fill="#1b0003"/><rect x="43.68" y="84.74" width="5.86" height="5.86" fill="#1b0003"/><rect x="43.68" y="78.87" width="5.86" height="5.86" fill="#1b0003"/><rect x="37.82" y="131.65" width="5.86" height="5.86" fill="#1b0003"/><rect x="37.82" y="125.78" width="5.86" height="5.86" fill="#e0bea4"/><rect x="37.82" y="119.92" width="5.86" height="5.86" fill="#ead0b9"/><rect x="37.82" y="114.06" width="5.86" height="5.86" fill="#e0bea4"/><rect x="37.82" y="108.19" width="5.86" height="5.86" fill="#ead0b9"/><rect x="37.82" y="102.33" width="5.86" height="5.87" fill="#f9f2d4"/><rect x="37.82" y="96.46" width="5.86" height="5.86" fill="#1b0003"/><rect x="31.96" y="131.65" width="5.87" height="5.86" fill="#1b0003"/><rect x="31.96" y="125.78" width="5.87" height="5.86" fill="#ead0b9"/><rect x="31.96" y="119.92" width="5.87" height="5.86" fill="#f9f2d4"/><rect x="31.96" y="114.06" width="5.87" height="5.86" fill="#f9f2d4"/><rect x="31.96" y="108.19" width="5.87" height="5.86" fill="#f9f2d4"/><rect x="31.96" y="102.33" width="5.87" height="5.87" fill="#1b0003"/><rect x="26.09" y="102.33" width="5.87" height="5.87" fill="#1b0003"/><rect x="26.09" y="125.78" width="5.86" height="5.86" fill="#1b0003"/><rect x="26.09" y="119.92" width="5.86" height="5.86" fill="#e0bea4"/><rect x="26.09" y="114.06" width="5.86" height="5.86" fill="#f9f2d4"/><rect x="26.09" y="108.19" width="5.86" height="5.86" fill="#e0bea4"/><rect x="20.23" y="119.92" width="5.86" height="5.86" fill="#1b0003"/><rect x="20.23" y="114.06" width="5.86" height="5.86" fill="#f9f2d4"/><rect x="20.23" y="108.19" width="5.86" height="5.86" fill="#f9f2d4"/><rect x="20.23" y="102.33" width="5.86" height="5.87" fill="#1b0003"/><rect x="14.36" y="119.92" width="5.86" height="5.86" fill="#1b0003"/><rect x="14.36" y="114.06" width="5.86" height="5.86" fill="#f9f2d4"/><rect x="14.36" y="108.19" width="5.86" height="5.86" fill="#f9f2d4"/><rect x="14.36" y="102.33" width="5.86" height="5.87" fill="#1b0003"/><rect x="8.5" y="114.06" width="5.86" height="5.86" fill="#1b0003"/><rect x="8.5" y="108.19" width="5.86" height="5.86" fill="#1b0003"/></g></g></g></g></svg>