<svg xmlns="http://www.w3.org/2000/svg" width="144.2" height="154.8" viewBox="0 0 144.2 154.8"><g id="Layer_2" data-name="Layer 2"><g id="items"><g id="Dagger"><path d="M38.2,154.8H10.6v-5.3H5.3v-5.3H0V116.6H5.3v-5.3h5.3V106h5.3v-5.3h5.3V95.4h5.3V90.1h5.3V84.8h5.3V79.5h5.3V74.2h5.3V68.9H53V63.6h5.3V58.3h5.3V53h5.3V47.7h5.3V42.4h5.3V37.1h5.3V31.8h5.3V26.5h5.3V21.2h5.3V15.9H106V10.6h5.3V5.3h5.3V0h27.6V43.5h-5.3V59.4h-5.3V70h-5.3V80.6H123v5.3h-5.3v5.3h-5.3v5.3h-5.3v5.3h-5.3v5.3H96.5v5.3H91.2v5.3H85.9V123H80.6v5.3H59.4v5.3H54.1v5.3H48.8v5.3H43.5v5.3H38.2ZM22.3,132.5h4.2v-4.2H22.3Zm5.3-5.3h4.2V123H27.6Zm5.3-5.3h4.2v-4.2H32.9Zm5.3-5.3h4.2v-4.2H38.2Zm5.3-5.3h4.2v-4.2H43.5Zm5.3-5.3H68.9v-5.3h5.3V95.4h5.3V90.1h5.3V84.8h5.3V79.5h5.3V74.2h5.3V68.9H106V63.6h5.3V53h5.3V42.4h5.3V32.9h-4.2v5.3h-5.3v5.3h-5.3v5.3h-5.3v5.3H96.5v5.3H91.2v5.3H85.9V70H80.6v5.3H75.3v5.3H70v5.3H64.7v5.3H59.4v5.3H54.1v5.3H48.8Z" fill="#fff"/><g id="Dagger-2" data-name="Dagger"><rect x="130.4" y="29.7" width="5.3" height="5.3" fill="#1b0003"/><rect x="130.4" y="24.4" width="5.3" height="5.3" fill="#1b0003"/><rect x="130.4" y="19.1" width="5.3" height="5.3" fill="#1b0003"/><rect x="130.4" y="13.8" width="5.3" height="5.3" fill="#1b0003"/><rect x="130.4" y="8.5" width="5.3" height="5.3" fill="#1b0003"/><rect x="125.1" y="45.6" width="5.3" height="5.3" fill="#1b0003"/><rect x="125.1" y="40.3" width="5.3" height="5.3" fill="#1b0003"/><rect x="125.1" y="35" width="5.3" height="5.3" fill="#1b0003"/><rect x="125.1" y="29.7" width="5.3" height="5.3" fill="#f2fefe"/><rect x="125.1" y="24.4" width="5.3" height="5.3" fill="#f2fefe"/><rect x="125.1" y="19.1" width="5.3" height="5.3" fill="#f2fefe"/><rect x="125.1" y="13.8" width="5.3" height="5.3" fill="#f2fefe"/><rect x="125.1" y="8.5" width="5.3" height="5.3" fill="#1b0003"/><rect x="119.8" y="56.2" width="5.3" height="5.3" fill="#1b0003"/><rect x="119.8" y="50.9" width="5.3" height="5.3" fill="#1b0003"/><rect x="119.8" y="45.6" width="5.3" height="5.3" fill="#f2fefe"/><rect x="119.8" y="40.3" width="5.3" height="5.3" fill="#f2fefe"/><rect x="119.8" y="35" width="5.3" height="5.3" fill="#f2fefe"/><rect x="119.8" y="29.7" width="5.3" height="5.3" fill="#85a1c9"/><rect x="119.8" y="24.4" width="5.3" height="5.3" fill="#85a1c9"/><rect x="119.8" y="19.1" width="5.3" height="5.3" fill="#85a1c9"/><rect x="119.8" y="13.8" width="5.3" height="5.3" fill="#1b0003"/><rect x="114.5" y="66.8" width="5.3" height="5.3" fill="#1b0003"/><rect x="114.5" y="61.5" width="5.3" height="5.3" fill="#1b0003"/><rect x="114.5" y="56.2" width="5.3" height="5.3" fill="#f2fefe"/><rect x="114.5" y="50.9" width="5.3" height="5.3" fill="#f2fefe"/><rect x="114.5" y="45.6" width="5.3" height="5.3" fill="#bedbed"/><rect x="114.5" y="40.3" width="5.3" height="5.3" fill="#abcddd"/><rect x="114.5" y="35" width="5.3" height="5.3" fill="#abcddd"/><rect x="114.5" y="29.7" width="5.3" height="5.3" fill="#85a1c9"/><rect x="114.5" y="24.4" width="5.3" height="5.3" fill="#85a1c9"/><rect x="114.5" y="19.1" width="5.3" height="5.3" fill="#1b0003"/><rect x="109.2" y="72.1" width="5.3" height="5.3" fill="#1b0003"/><rect x="109.2" y="66.8" width="5.3" height="5.3" fill="#f2fefe"/><rect x="109.2" y="61.5" width="5.3" height="5.3" fill="#f2fefe"/><rect x="109.2" y="56.2" width="5.3" height="5.3" fill="#cfefff"/><rect x="109.2" y="50.9" width="5.3" height="5.3" fill="#bedbed"/><rect x="109.2" y="45.6" width="5.3" height="5.3" fill="#abcddd"/><rect x="109.2" y="40.3" width="5.3" height="5.3" fill="#abcddd"/><rect x="109.2" y="35" width="5.3" height="5.3" fill="#85a1c9"/><rect x="109.2" y="29.7" width="5.3" height="5.3" fill="#85a1c9"/><rect x="109.2" y="24.4" width="5.3" height="5.3" fill="#1b0003"/><rect x="103.9" y="77.4" width="5.3" height="5.3" fill="#1b0003"/><rect x="103.9" y="72.1" width="5.3" height="5.3" fill="#f2fefe"/><rect x="103.9" y="66.8" width="5.3" height="5.3" fill="#cfefff"/><rect x="103.9" y="61.5" width="5.3" height="5.3" fill="#bedbed"/><rect x="103.9" y="56.2" width="5.3" height="5.3" fill="#bedbed"/><rect x="103.9" y="50.9" width="5.3" height="5.3" fill="#abcddd"/><rect x="103.9" y="45.6" width="5.3" height="5.3" fill="#abcddd"/><rect x="103.9" y="40.3" width="5.3" height="5.3" fill="#85a1c9"/><rect x="103.9" y="35" width="5.3" height="5.3" fill="#85a1c9"/><rect x="103.9" y="29.7" width="5.3" height="5.3" fill="#1b0003"/><rect x="98.6" y="82.7" width="5.3" height="5.3" fill="#1b0003"/><rect x="98.6" y="77.4" width="5.3" height="5.3" fill="#f2fefe"/><rect x="98.6" y="72.1" width="5.3" height="5.3" fill="#cfefff"/><rect x="98.6" y="66.8" width="5.3" height="5.3" fill="#bedbed"/><rect x="98.6" y="61.5" width="5.3" height="5.3" fill="#bedbed"/><rect x="98.6" y="56.2" width="5.3" height="5.3" fill="#abcddd"/><rect x="98.6" y="50.9" width="5.3" height="5.3" fill="#abcddd"/><rect x="98.6" y="45.6" width="5.3" height="5.3" fill="#85a1c9"/><rect x="98.6" y="40.3" width="5.3" height="5.3" fill="#85a1c9"/><rect x="98.6" y="35" width="5.3" height="5.3" fill="#1b0003"/><rect x="93.3" y="88" width="5.3" height="5.3" fill="#1b0003"/><rect x="93.3" y="82.7" width="5.3" height="5.3" fill="#f2fefe"/><rect x="93.3" y="77.4" width="5.3" height="5.3" fill="#cfefff"/><rect x="93.3" y="72.1" width="5.3" height="5.3" fill="#bedbed"/><rect x="93.3" y="66.8" width="5.3" height="5.3" fill="#bedbed"/><rect x="93.3" y="61.5" width="5.3" height="5.3" fill="#bedbed"/><rect x="93.3" y="56.2" width="5.3" height="5.3" fill="#abcddd"/><rect x="93.3" y="50.9" width="5.3" height="5.3" fill="#85a1c9"/><rect x="93.3" y="45.6" width="5.3" height="5.3" fill="#85a1c9"/><rect x="93.3" y="40.3" width="5.3" height="5.3" fill="#1b0003"/><rect x="88" y="93.3" width="5.3" height="5.3" fill="#1b0003"/><rect x="88" y="88" width="5.3" height="5.3" fill="#f2fefe"/><rect x="88" y="82.7" width="5.3" height="5.3" fill="#cfefff"/><rect x="88" y="77.4" width="5.3" height="5.3" fill="#bedbed"/><rect x="88" y="72.1" width="5.3" height="5.3" fill="#bedbed"/><rect x="88" y="66.8" width="5.3" height="5.3" fill="#abcddd"/><rect x="88" y="61.5" width="5.3" height="5.3" fill="#abcddd"/><rect x="88" y="56.2" width="5.3" height="5.3" fill="#85a1c9"/><rect x="88" y="50.9" width="5.3" height="5.3" fill="#85a1c9"/><rect x="88" y="45.6" width="5.3" height="5.3" fill="#1b0003"/><rect x="82.7" y="98.6" width="5.3" height="5.3" fill="#1b0003"/><rect x="82.7" y="93.3" width="5.3" height="5.3" fill="#f2fefe"/><rect x="82.7" y="88" width="5.3" height="5.3" fill="#cfefff"/><rect x="82.7" y="82.7" width="5.3" height="5.3" fill="#bedbed"/><rect x="82.7" y="77.4" width="5.3" height="5.3" fill="#bedbed"/><rect x="82.7" y="72.1" width="5.3" height="5.3" fill="#abcddd"/><rect x="82.7" y="66.8" width="5.3" height="5.3" fill="#abcddd"/><rect x="82.7" y="61.5" width="5.3" height="5.3" fill="#85a1c9"/><rect x="82.7" y="56.2" width="5.3" height="5.3" fill="#85a1c9"/><rect x="82.7" y="50.9" width="5.3" height="5.3" fill="#1b0003"/><rect x="77.4" y="103.9" width="5.3" height="5.3" fill="#1b0003"/><rect x="77.4" y="98.6" width="5.3" height="5.3" fill="#f2fefe"/><rect x="77.4" y="93.3" width="5.3" height="5.3" fill="#cfefff"/><rect x="77.4" y="88" width="5.3" height="5.3" fill="#bedbed"/><rect x="77.4" y="82.7" width="5.3" height="5.3" fill="#bedbed"/><rect x="77.4" y="77.4" width="5.3" height="5.3" fill="#abcddd"/><rect x="77.4" y="72.1" width="5.3" height="5.3" fill="#abcddd"/><rect x="77.4" y="66.8" width="5.3" height="5.3" fill="#85a1c9"/><rect x="77.4" y="61.5" width="5.3" height="5.3" fill="#85a1c9"/><rect x="77.4" y="56.2" width="5.3" height="5.3" fill="#1b0003"/><rect x="72.1" y="109.2" width="5.3" height="5.3" fill="#1b0003"/><rect x="72.1" y="103.9" width="5.3" height="5.3" fill="#f2fefe"/><rect x="72.1" y="98.6" width="5.3" height="5.3" fill="#bedbed"/><rect x="72.1" y="93.3" width="5.3" height="5.3" fill="#bedbed"/><rect x="72.1" y="88" width="5.3" height="5.3" fill="#bedbed"/><rect x="72.1" y="82.7" width="5.3" height="5.3" fill="#85a1c9"/><rect x="72.1" y="77.4" width="5.3" height="5.3" fill="#abcddd"/><rect x="72.1" y="72.1" width="5.3" height="5.3" fill="#85a1c9"/><rect x="72.1" y="66.8" width="5.3" height="5.3" fill="#85a1c9"/><rect x="72.1" y="61.5" width="5.3" height="5.3" fill="#1b0003"/><rect x="66.8" y="114.5" width="5.3" height="5.3" fill="#1b0003"/><rect x="66.8" y="109.2" width="5.3" height="5.3" fill="#97bcd6"/><rect x="66.8" y="103.9" width="5.3" height="5.3" fill="#97bcd6"/><rect x="66.8" y="98.6" width="5.3" height="5.3" fill="#abcddd"/><rect x="66.8" y="93.3" width="5.3" height="5.3" fill="#abcddd"/><rect x="66.8" y="88" width="5.3" height="5.3" fill="#85a1c9"/><rect x="66.8" y="82.7" width="5.3" height="5.3" fill="#abcddd"/><rect x="66.8" y="77.4" width="5.3" height="5.3" fill="#85a1c9"/><rect x="66.8" y="72.1" width="5.3" height="5.3" fill="#85a1c9"/><rect x="66.8" y="66.8" width="5.3" height="5.3" fill="#1b0003"/><rect x="61.5" y="114.5" width="5.3" height="5.3" fill="#1b0003"/><rect x="61.5" y="109.2" width="5.3" height="5.3" fill="#97bcd6"/><rect x="61.5" y="103.9" width="5.3" height="5.3" fill="#85a1c9"/><rect x="61.5" y="98.6" width="5.3" height="5.3" fill="#85a1c9"/><rect x="61.5" y="93.3" width="5.3" height="5.3" fill="#85a1c9"/><rect x="61.5" y="88" width="5.3" height="5.3" fill="#bedbed"/><rect x="61.5" y="82.7" width="5.3" height="5.3" fill="#85a1c9"/><rect x="61.5" y="77.4" width="5.3" height="5.3" fill="#85a1c9"/><rect x="61.5" y="72.1" width="5.3" height="5.3" fill="#1b0003"/><rect x="56.2" y="109.2" width="5.3" height="5.3" fill="#1b0003"/><rect x="56.2" y="103.9" width="5.3" height="5.3" fill="#6a87af"/><rect x="56.2" y="98.6" width="5.3" height="5.3" fill="#85a1c9"/><rect x="56.2" y="93.3" width="5.3" height="5.3" fill="#85a1c9"/><rect x="56.2" y="88" width="5.3" height="5.3" fill="#85a1c9"/><rect x="56.2" y="82.7" width="5.3" height="5.3" fill="#6a87af"/><rect x="56.2" y="77.4" width="5.3" height="5.3" fill="#1b0003"/><rect x="50.9" y="114.5" width="5.3" height="5.3" fill="#1b0003"/><rect x="50.9" y="109.2" width="5.3" height="5.3" fill="#222230"/><rect x="50.9" y="103.9" width="5.3" height="5.3" fill="#1b0003"/><rect x="50.9" y="98.6" width="5.3" height="5.3" fill="#6a87af"/><rect x="50.9" y="93.3" width="5.3" height="5.3" fill="#6a87af"/><rect x="50.9" y="88" width="5.3" height="5.3" fill="#6a87af"/><rect x="50.9" y="82.7" width="5.3" height="5.3" fill="#1b0003"/><rect x="45.6" y="119.8" width="5.3" height="5.3" fill="#1b0003"/><rect x="45.6" y="114.5" width="5.3" height="5.3" fill="#222230"/><rect x="45.6" y="109.2" width="5.3" height="5.3" fill="#222230"/><rect x="45.6" y="103.9" width="5.3" height="5.3" fill="#3e3c51"/><rect x="45.6" y="98.6" width="5.3" height="5.3" fill="#1b0003"/><rect x="45.6" y="93.3" width="5.3" height="5.3" fill="#6a87af"/><rect x="45.6" y="88" width="5.3" height="5.3" fill="#1b0003"/><rect x="40.3" y="125.1" width="5.3" height="5.3" fill="#1b0003"/><rect x="40.3" y="119.8" width="5.3" height="5.3" fill="#222230"/><rect x="40.3" y="114.5" width="5.3" height="5.3" fill="#222230"/><rect x="40.3" y="109.2" width="5.3" height="5.3" fill="#3e3c51"/><rect x="40.3" y="103.9" width="5.3" height="5.3" fill="#5a5970"/><rect x="40.3" y="98.6" width="5.3" height="5.3" fill="#5a5970"/><rect x="40.3" y="93.3" width="5.3" height="5.3" fill="#1b0003"/><rect x="35" y="130.4" width="5.3" height="5.3" fill="#1b0003"/><rect x="35" y="125.1" width="5.3" height="5.3" fill="#222230"/><rect x="35" y="119.8" width="5.3" height="5.3" fill="#222230"/><rect x="35" y="114.5" width="5.3" height="5.3" fill="#3e3c51"/><rect x="35" y="109.2" width="5.3" height="5.3" fill="#5a5970"/><rect x="35" y="103.9" width="5.3" height="5.3" fill="#5a5970"/><rect x="35" y="98.6" width="5.3" height="5.3" fill="#1b0003"/><rect x="29.7" y="135.7" width="5.3" height="5.3" fill="#1b0003"/><rect x="29.7" y="130.4" width="5.3" height="5.3" fill="#222230"/><rect x="29.7" y="125.1" width="5.3" height="5.3" fill="#222230"/><rect x="29.7" y="119.8" width="5.3" height="5.3" fill="#3e3c51"/><rect x="29.7" y="114.5" width="5.3" height="5.3" fill="#5a5970"/><rect x="29.7" y="109.2" width="5.3" height="5.3" fill="#5a5970"/><rect x="29.7" y="103.9" width="5.3" height="5.3" fill="#1b0003"/><rect x="24.4" y="141" width="5.3" height="5.3" fill="#1b0003"/><rect x="24.4" y="135.7" width="5.3" height="5.3" fill="#222230"/><rect x="24.4" y="130.4" width="5.3" height="5.3" fill="#222230"/><rect x="24.4" y="125.1" width="5.3" height="5.3" fill="#3e3c51"/><rect x="24.4" y="119.8" width="5.3" height="5.3" fill="#3e3c51"/><rect x="24.4" y="114.5" width="5.3" height="5.3" fill="#5a5970"/><rect x="24.4" y="109.2" width="5.3" height="5.3" fill="#1b0003"/><rect x="19.1" y="141" width="5.3" height="5.3" fill="#1b0003"/><rect x="19.1" y="135.7" width="5.3" height="5.3" fill="#222230"/><rect x="19.1" y="130.4" width="5.3" height="5.3" fill="#3e3c51"/><rect x="19.1" y="125.1" width="5.3" height="5.3" fill="#3e3c51"/><rect x="19.1" y="119.8" width="5.3" height="5.3" fill="#5a5970"/><rect x="19.1" y="114.5" width="5.3" height="5.3" fill="#1b0003"/><rect x="13.8" y="135.7" width="5.3" height="5.3" fill="#1b0003"/><rect x="13.8" y="130.4" width="5.3" height="5.3" fill="#3e3c51"/><rect x="13.8" y="125.1" width="5.3" height="5.3" fill="#5a5970"/><rect x="13.8" y="119.8" width="5.3" height="5.3" fill="#1b0003"/><rect x="8.5" y="130.4" width="5.3" height="5.3" fill="#1b0003"/><rect x="8.5" y="125.1" width="5.3" height="5.3" fill="#1b0003"/></g></g></g></g></svg>