<svg xmlns="http://www.w3.org/2000/svg" width="120.09" height="114.36" viewBox="0 0 120.09 114.36"><g id="Layer_2" data-name="Layer 2"><g id="items"><g id="Emerald"><path d="M102.9,114.36H17.18v-5.73H11.45V102.9H5.73V97.18H0v-80H5.73V11.45h5.72V5.73h5.73V0H102.9V5.73h5.73v5.72h5.73v5.73h5.73v80h-5.73v5.72h-5.73v5.73H102.9Zm-68.72-17H85.9V91.63h5.73V85.9h5.73V80.18h5.73v-46H97.36V28.45H91.63V22.73H85.9V17H34.18v5.73H28.45v5.72H22.73v5.73H17v46h5.73V85.9h5.72v5.73h5.73Z" fill="#fff"/><g id="Emerald-2" data-name="Emerald"><rect x="105.86" y="82.95" width="5.73" height="5.73" fill="#27937b"/><rect x="105.86" y="77.22" width="5.73" height="5.73" fill="#27937b"/><rect x="105.86" y="71.5" width="5.73" height="5.73" fill="#1b0003"/><rect x="105.86" y="65.77" width="5.73" height="5.73" fill="#1b0003"/><rect x="105.86" y="60.04" width="5.73" height="5.73" fill="#1b0003"/><rect x="105.86" y="54.32" width="5.73" height="5.73" fill="#1b0003"/><rect x="105.86" y="48.59" width="5.73" height="5.73" fill="#1b0003"/><rect x="105.86" y="42.86" width="5.73" height="5.73" fill="#1b0003"/><rect x="105.86" y="37.13" width="5.73" height="5.73" fill="#1b0003"/><rect x="105.86" y="31.41" width="5.73" height="5.73" fill="#1b0003"/><rect x="105.86" y="25.68" width="5.73" height="5.73" fill="#1b0003"/><rect x="100.13" y="88.68" width="5.73" height="5.73" fill="#1b0003"/><rect x="100.13" y="82.95" width="5.73" height="5.73" fill="#a0e84d"/><rect x="100.13" y="77.22" width="5.73" height="5.73" fill="#67ce3c"/><rect x="100.13" y="71.5" width="5.73" height="5.73" fill="#67ce3c"/><rect x="100.13" y="65.77" width="5.73" height="5.73" fill="#a0e84d"/><rect x="100.13" y="60.04" width="5.73" height="5.73" fill="#a0e84d"/><rect x="100.13" y="54.32" width="5.73" height="5.73" fill="#ccf45f"/><rect x="100.13" y="48.59" width="5.73" height="5.73" fill="#ccf45f"/><rect x="100.13" y="42.86" width="5.73" height="5.73" fill="#ccf45f"/><rect x="100.13" y="37.13" width="5.73" height="5.73" fill="#ccf45f"/><rect x="100.13" y="31.41" width="5.73" height="5.73" fill="#ccf45f"/><rect x="100.13" y="25.68" width="5.73" height="5.73" fill="#ccf45f"/><rect x="100.13" y="19.95" width="5.73" height="5.73" fill="#1b0003"/><rect x="94.4" y="94.4" width="5.73" height="5.73" fill="#1b0003"/><rect x="94.4" y="88.68" width="5.73" height="5.73" fill="#67ce3c"/><rect x="94.4" y="82.95" width="5.73" height="5.73" fill="#27937b"/><rect x="94.4" y="77.22" width="5.73" height="5.73" fill="#27937b"/><rect x="94.4" y="71.5" width="5.73" height="5.73" fill="#67ce3c"/><rect x="94.4" y="65.77" width="5.73" height="5.73" fill="#67ce3c"/><rect x="94.4" y="60.04" width="5.73" height="5.73" fill="#a0e84d"/><rect x="94.4" y="54.32" width="5.73" height="5.73" fill="#a0e84d"/><rect x="94.4" y="48.59" width="5.73" height="5.73" fill="#a0e84d"/><rect x="94.4" y="42.86" width="5.73" height="5.73" fill="#a0e84d"/><rect x="94.4" y="37.13" width="5.73" height="5.73" fill="#a0e84d"/><rect x="94.4" y="31.41" width="5.73" height="5.73" fill="#a0e84d"/><rect x="94.4" y="25.68" width="5.73" height="5.73" fill="#a0e84d"/><rect x="94.4" y="19.95" width="5.73" height="5.73" fill="#ccf45f"/><rect x="94.4" y="14.23" width="5.73" height="5.73" fill="#1b0003"/><rect x="88.68" y="100.13" width="5.73" height="5.73" fill="#27937b"/><rect x="88.68" y="94.4" width="5.73" height="5.73" fill="#67ce3c"/><rect x="88.68" y="88.68" width="5.73" height="5.73" fill="#67ce3c"/><rect x="88.68" y="82.95" width="5.73" height="5.73" fill="#27937b"/><rect x="88.68" y="77.22" width="5.73" height="5.73" fill="#27937b"/><rect x="88.68" y="71.5" width="5.73" height="5.73" fill="#27937b"/><rect x="88.68" y="65.77" width="5.73" height="5.73" fill="#27937b"/><rect x="88.68" y="60.04" width="5.73" height="5.73" fill="#27937b"/><rect x="88.68" y="54.32" width="5.73" height="5.73" fill="#27937b"/><rect x="88.68" y="48.59" width="5.73" height="5.73" fill="#67ce3c"/><rect x="88.68" y="42.86" width="5.73" height="5.73" fill="#67ce3c"/><rect x="88.68" y="37.13" width="5.73" height="5.73" fill="#67ce3c"/><rect x="88.68" y="31.41" width="5.73" height="5.73" fill="#67ce3c"/><rect x="88.68" y="25.68" width="5.73" height="5.73" fill="#ccf45f"/><rect x="88.68" y="19.95" width="5.73" height="5.73" fill="#ccf45f"/><rect x="88.68" y="14.23" width="5.73" height="5.73" fill="#ccf45f"/><rect x="88.68" y="8.5" width="5.73" height="5.73" fill="#1b0003"/><rect x="82.95" y="100.13" width="5.73" height="5.73" fill="#1b0003"/><rect x="82.95" y="94.4" width="5.73" height="5.73" fill="#67ce3c"/><rect x="82.95" y="88.68" width="5.73" height="5.73" fill="#27937b"/><rect x="82.95" y="82.95" width="5.73" height="5.73" fill="#27937b"/><rect x="82.95" y="77.22" width="5.73" height="5.73" fill="#67ce3c"/><rect x="82.95" y="71.5" width="5.73" height="5.73" fill="#ccf45f"/><rect x="82.95" y="65.77" width="5.73" height="5.73" fill="#ccf45f"/><rect x="82.95" y="60.04" width="5.73" height="5.73" fill="#ccf45f"/><rect x="82.95" y="54.32" width="5.73" height="5.73" fill="#ccf45f"/><rect x="82.95" y="48.59" width="5.73" height="5.73" fill="#ccf45f"/><rect x="82.95" y="42.86" width="5.73" height="5.73" fill="#ccf45f"/><rect x="82.95" y="37.13" width="5.73" height="5.73" fill="#ccf45f"/><rect x="82.95" y="31.41" width="5.73" height="5.73" fill="#ccf45f"/><rect x="82.95" y="25.68" width="5.73" height="5.73" fill="#67ce3c"/><rect x="82.95" y="19.95" width="5.73" height="5.73" fill="#ccf45f"/><rect x="82.95" y="14.23" width="5.73" height="5.73" fill="#ccf45f"/><rect x="82.95" y="8.5" width="5.73" height="5.73" fill="#1b0003"/><rect x="77.22" y="100.13" width="5.73" height="5.73" fill="#27937b"/><rect x="77.22" y="94.4" width="5.73" height="5.73" fill="#67ce3c"/><rect x="77.22" y="88.68" width="5.73" height="5.73" fill="#27937b"/><rect x="77.22" y="82.95" width="5.73" height="5.73" fill="#67ce3c"/><rect x="77.22" y="77.22" width="5.73" height="5.73" fill="#ccf45f"/><rect x="77.22" y="71.5" width="5.73" height="5.73" fill="#ccf45f"/><rect x="77.22" y="65.77" width="5.73" height="5.73" fill="#a0e84d"/><rect x="77.22" y="60.04" width="5.73" height="5.73" fill="#a0e84d"/><rect x="77.22" y="54.32" width="5.73" height="5.73" fill="#a0e84d"/><rect x="77.22" y="48.59" width="5.73" height="5.73" fill="#a0e84d"/><rect x="77.22" y="42.86" width="5.73" height="5.73" fill="#ccf45f"/><rect x="77.22" y="37.13" width="5.73" height="5.73" fill="#ccf45f"/><rect x="77.22" y="31.41" width="5.73" height="5.73" fill="#f7f7c1"/><rect x="77.22" y="25.68" width="5.73" height="5.73" fill="#67ce3c"/><rect x="77.22" y="19.95" width="5.73" height="5.73" fill="#ccf45f"/><rect x="77.22" y="14.23" width="5.73" height="5.73" fill="#ccf45f"/><rect x="77.22" y="8.5" width="5.73" height="5.73" fill="#1b0003"/><rect x="71.5" y="100.13" width="5.73" height="5.73" fill="#1b0003"/><rect x="71.5" y="94.4" width="5.73" height="5.73" fill="#67ce3c"/><rect x="71.5" y="88.68" width="5.73" height="5.73" fill="#67ce3c"/><rect x="71.5" y="82.95" width="5.73" height="5.73" fill="#67ce3c"/><rect x="71.5" y="77.22" width="5.73" height="5.73" fill="#ccf45f"/><rect x="71.5" y="71.5" width="5.73" height="5.73" fill="#a0e84d"/><rect x="71.5" y="65.77" width="5.73" height="5.73" fill="#a0e84d"/><rect x="71.5" y="60.04" width="5.73" height="5.73" fill="#a0e84d"/><rect x="71.5" y="54.32" width="5.73" height="5.73" fill="#a0e84d"/><rect x="71.5" y="48.59" width="5.73" height="5.73" fill="#a0e84d"/><rect x="71.5" y="42.86" width="5.73" height="5.73" fill="#ccf45f"/><rect x="71.5" y="37.13" width="5.73" height="5.73" fill="#ccf45f"/><rect x="71.5" y="31.41" width="5.73" height="5.73" fill="#f7f7c1"/><rect x="71.5" y="25.68" width="5.73" height="5.73" fill="#a0e84d"/><rect x="71.5" y="19.95" width="5.73" height="5.73" fill="#ccf45f"/><rect x="71.5" y="14.23" width="5.73" height="5.73" fill="#ccf45f"/><rect x="71.5" y="8.5" width="5.73" height="5.73" fill="#1b0003"/><rect x="65.77" y="100.13" width="5.73" height="5.73" fill="#1b0003"/><rect x="65.77" y="94.4" width="5.73" height="5.73" fill="#67ce3c"/><rect x="65.77" y="88.68" width="5.73" height="5.73" fill="#67ce3c"/><rect x="65.77" y="82.95" width="5.73" height="5.73" fill="#67ce3c"/><rect x="65.77" y="77.22" width="5.73" height="5.73" fill="#ccf45f"/><rect x="65.77" y="71.5" width="5.73" height="5.73" fill="#a0e84d"/><rect x="65.77" y="65.77" width="5.73" height="5.73" fill="#a0e84d"/><rect x="65.77" y="60.04" width="5.73" height="5.73" fill="#a0e84d"/><rect x="65.77" y="54.32" width="5.73" height="5.73" fill="#a0e84d"/><rect x="65.77" y="48.59" width="5.73" height="5.73" fill="#a0e84d"/><rect x="65.77" y="42.86" width="5.73" height="5.73" fill="#ccf45f"/><rect x="65.77" y="37.13" width="5.73" height="5.73" fill="#ccf45f"/><rect x="65.77" y="31.41" width="5.73" height="5.73" fill="#f7f7c1"/><rect x="65.77" y="25.68" width="5.73" height="5.73" fill="#a0e84d"/><rect x="65.77" y="19.95" width="5.73" height="5.73" fill="#ccf45f"/><rect x="65.77" y="14.23" width="5.73" height="5.73" fill="#ccf45f"/><rect x="65.77" y="8.5" width="5.73" height="5.73" fill="#1b0003"/><rect x="60.04" y="100.13" width="5.73" height="5.73" fill="#1b0003"/><rect x="60.04" y="94.4" width="5.73" height="5.73" fill="#67ce3c"/><rect x="60.04" y="88.68" width="5.73" height="5.73" fill="#67ce3c"/><rect x="60.04" y="82.95" width="5.73" height="5.73" fill="#67ce3c"/><rect x="60.04" y="77.22" width="5.73" height="5.73" fill="#ccf45f"/><rect x="60.04" y="71.5" width="5.73" height="5.73" fill="#a0e84d"/><rect x="60.04" y="65.77" width="5.73" height="5.73" fill="#a0e84d"/><rect x="60.04" y="60.04" width="5.73" height="5.73" fill="#a0e84d"/><rect x="60.04" y="54.32" width="5.73" height="5.73" fill="#a0e84d"/><rect x="60.04" y="48.59" width="5.73" height="5.73" fill="#ccf45f"/><rect x="60.04" y="42.86" width="5.73" height="5.73" fill="#ccf45f"/><rect x="60.04" y="37.13" width="5.73" height="5.73" fill="#ccf45f"/><rect x="60.04" y="31.41" width="5.73" height="5.73" fill="#f7f7c1"/><rect x="60.04" y="25.68" width="5.73" height="5.73" fill="#a0e84d"/><rect x="60.04" y="19.95" width="5.73" height="5.73" fill="#f2fefe"/><rect x="60.04" y="14.23" width="5.73" height="5.73" fill="#ccf45f"/><rect x="60.04" y="8.5" width="5.73" height="5.73" fill="#1b0003"/><rect x="54.32" y="100.13" width="5.73" height="5.73" fill="#1b0003"/><rect x="54.32" y="94.4" width="5.73" height="5.73" fill="#a0e84d"/><rect x="54.32" y="88.68" width="5.73" height="5.73" fill="#67ce3c"/><rect x="54.32" y="82.95" width="5.73" height="5.73" fill="#67ce3c"/><rect x="54.32" y="77.22" width="5.73" height="5.73" fill="#ccf45f"/><rect x="54.32" y="71.5" width="5.73" height="5.73" fill="#a0e84d"/><rect x="54.32" y="65.77" width="5.73" height="5.73" fill="#a0e84d"/><rect x="54.32" y="60.04" width="5.73" height="5.73" fill="#a0e84d"/><rect x="54.32" y="54.32" width="5.73" height="5.73" fill="#ccf45f"/><rect x="54.32" y="48.59" width="5.73" height="5.73" fill="#ccf45f"/><rect x="54.32" y="42.86" width="5.73" height="5.73" fill="#ccf45f"/><rect x="54.32" y="37.13" width="5.73" height="5.73" fill="#ccf45f"/><rect x="54.32" y="31.41" width="5.73" height="5.73" fill="#f7f7c1"/><rect x="54.32" y="25.68" width="5.73" height="5.73" fill="#a0e84d"/><rect x="54.32" y="19.95" width="5.73" height="5.73" fill="#ccf45f"/><rect x="54.32" y="14.23" width="5.73" height="5.73" fill="#ccf45f"/><rect x="54.32" y="8.5" width="5.73" height="5.73" fill="#1b0003"/><rect x="48.59" y="100.13" width="5.73" height="5.73" fill="#1b0003"/><rect x="48.59" y="94.4" width="5.73" height="5.73" fill="#a0e84d"/><rect x="48.59" y="88.68" width="5.73" height="5.73" fill="#a0e84d"/><rect x="48.59" y="82.95" width="5.73" height="5.73" fill="#67ce3c"/><rect x="48.59" y="77.22" width="5.73" height="5.73" fill="#ccf45f"/><rect x="48.59" y="71.5" width="5.73" height="5.73" fill="#ccf45f"/><rect x="48.59" y="65.77" width="5.73" height="5.73" fill="#a0e84d"/><rect x="48.59" y="60.04" width="5.73" height="5.73" fill="#ccf45f"/><rect x="48.59" y="54.32" width="5.73" height="5.73" fill="#ccf45f"/><rect x="48.59" y="48.59" width="5.73" height="5.73" fill="#ccf45f"/><rect x="48.59" y="42.86" width="5.73" height="5.73" fill="#ccf45f"/><rect x="48.59" y="37.13" width="5.73" height="5.73" fill="#ccf45f"/><rect x="48.59" y="31.41" width="5.73" height="5.73" fill="#f7f7c1"/><rect x="48.59" y="25.68" width="5.73" height="5.73" fill="#a0e84d"/><rect x="48.59" y="19.95" width="5.73" height="5.73" fill="#f7f7c1"/><rect x="48.59" y="14.23" width="5.73" height="5.73" fill="#ccf45f"/><rect x="48.59" y="8.5" width="5.73" height="5.73" fill="#1b0003"/><rect x="42.86" y="100.13" width="5.73" height="5.73" fill="#1b0003"/><rect x="42.86" y="94.4" width="5.73" height="5.73" fill="#a0e84d"/><rect x="42.86" y="88.68" width="5.73" height="5.73" fill="#a0e84d"/><rect x="42.86" y="82.95" width="5.73" height="5.73" fill="#67ce3c"/><rect x="42.86" y="77.22" width="5.73" height="5.73" fill="#ccf45f"/><rect x="42.86" y="71.5" width="5.73" height="5.73" fill="#ccf45f"/><rect x="42.86" y="65.77" width="5.73" height="5.73" fill="#ccf45f"/><rect x="42.86" y="60.04" width="5.73" height="5.73" fill="#ccf45f"/><rect x="42.86" y="54.32" width="5.73" height="5.73" fill="#ccf45f"/><rect x="42.86" y="48.59" width="5.73" height="5.73" fill="#ccf45f"/><rect x="42.86" y="42.86" width="5.73" height="5.73" fill="#ccf45f"/><rect x="42.86" y="37.13" width="5.73" height="5.73" fill="#f7f7c1"/><rect x="42.86" y="31.41" width="5.73" height="5.73" fill="#f2fefe"/><rect x="42.86" y="25.68" width="5.73" height="5.73" fill="#a0e84d"/><rect x="42.86" y="19.95" width="5.73" height="5.73" fill="#f2fefe"/><rect x="42.86" y="14.23" width="5.73" height="5.73" fill="#f7f7c1"/><rect x="42.86" y="8.5" width="5.73" height="5.73" fill="#1b0003"/><rect x="37.14" y="100.13" width="5.73" height="5.73" fill="#1b0003"/><rect x="37.14" y="94.4" width="5.73" height="5.73" fill="#a0e84d"/><rect x="37.14" y="88.68" width="5.73" height="5.73" fill="#a0e84d"/><rect x="37.14" y="82.95" width="5.73" height="5.73" fill="#67ce3c"/><rect x="37.14" y="77.22" width="5.73" height="5.73" fill="#ccf45f"/><rect x="37.14" y="71.5" width="5.73" height="5.73" fill="#ccf45f"/><rect x="37.14" y="65.77" width="5.73" height="5.73" fill="#ccf45f"/><rect x="37.14" y="60.04" width="5.73" height="5.73" fill="#ccf45f"/><rect x="37.14" y="54.32" width="5.73" height="5.73" fill="#ccf45f"/><rect x="37.14" y="48.59" width="5.73" height="5.73" fill="#ccf45f"/><rect x="37.14" y="42.86" width="5.73" height="5.73" fill="#f7f7c1"/><rect x="37.14" y="37.13" width="5.73" height="5.73" fill="#f2fefe"/><rect x="37.14" y="31.41" width="5.73" height="5.73" fill="#f7f7c1"/><rect x="37.14" y="25.68" width="5.73" height="5.73" fill="#a0e84d"/><rect x="37.14" y="19.95" width="5.73" height="5.73" fill="#f2fefe"/><rect x="37.14" y="14.23" width="5.73" height="5.73" fill="#f7f7c1"/><rect x="37.14" y="8.5" width="5.73" height="5.73" fill="#27937b"/><rect x="31.41" y="100.13" width="5.73" height="5.73" fill="#1b0003"/><rect x="31.41" y="94.4" width="5.73" height="5.73" fill="#a0e84d"/><rect x="31.41" y="88.68" width="5.73" height="5.73" fill="#ccf45f"/><rect x="31.41" y="82.95" width="5.73" height="5.73" fill="#67ce3c"/><rect x="31.41" y="77.22" width="5.73" height="5.73" fill="#67ce3c"/><rect x="31.41" y="71.5" width="5.73" height="5.73" fill="#f7f7c1"/><rect x="31.41" y="65.77" width="5.73" height="5.73" fill="#f7f7c1"/><rect x="31.41" y="60.04" width="5.73" height="5.73" fill="#f7f7c1"/><rect x="31.41" y="54.32" width="5.73" height="5.73" fill="#f2fefe"/><rect x="31.41" y="48.59" width="5.73" height="5.73" fill="#f7f7c1"/><rect x="31.41" y="42.86" width="5.73" height="5.73" fill="#f2fefe"/><rect x="31.41" y="37.13" width="5.73" height="5.73" fill="#f2fefe"/><rect x="31.41" y="31.41" width="5.73" height="5.73" fill="#a0e84d"/><rect x="31.41" y="25.68" width="5.73" height="5.73" fill="#a0e84d"/><rect x="31.41" y="19.95" width="5.73" height="5.73" fill="#f2fefe"/><rect x="31.41" y="14.23" width="5.73" height="5.73" fill="#f7f7c1"/><rect x="31.41" y="8.5" width="5.73" height="5.73" fill="#67ce3c"/><rect x="25.68" y="100.13" width="5.73" height="5.73" fill="#1b0003"/><rect x="25.68" y="94.4" width="5.73" height="5.73" fill="#ccf45f"/><rect x="25.68" y="88.68" width="5.73" height="5.73" fill="#ccf45f"/><rect x="25.68" y="82.95" width="5.73" height="5.73" fill="#ccf45f"/><rect x="25.68" y="77.22" width="5.73" height="5.73" fill="#67ce3c"/><rect x="25.68" y="71.5" width="5.73" height="5.73" fill="#67ce3c"/><rect x="25.68" y="65.77" width="5.73" height="5.73" fill="#a0e84d"/><rect x="25.68" y="60.04" width="5.73" height="5.73" fill="#a0e84d"/><rect x="25.68" y="54.32" width="5.73" height="5.73" fill="#a0e84d"/><rect x="25.68" y="48.59" width="5.73" height="5.73" fill="#a0e84d"/><rect x="25.68" y="42.86" width="5.73" height="5.73" fill="#a0e84d"/><rect x="25.68" y="37.13" width="5.73" height="5.73" fill="#a0e84d"/><rect x="25.68" y="31.41" width="5.73" height="5.73" fill="#a0e84d"/><rect x="25.68" y="25.68" width="5.73" height="5.73" fill="#f2fefe"/><rect x="25.68" y="19.95" width="5.73" height="5.73" fill="#f7f7c1"/><rect x="25.68" y="14.23" width="5.73" height="5.73" fill="#ccf45f"/><rect x="25.68" y="8.5" width="5.73" height="5.73" fill="#67ce3c"/><rect x="19.95" y="94.4" width="5.73" height="5.73" fill="#1b0003"/><rect x="19.95" y="88.68" width="5.73" height="5.73" fill="#ccf45f"/><rect x="19.95" y="82.95" width="5.73" height="5.73" fill="#ccf45f"/><rect x="19.95" y="77.22" width="5.73" height="5.73" fill="#ccf45f"/><rect x="19.95" y="71.5" width="5.73" height="5.73" fill="#ccf45f"/><rect x="19.95" y="65.77" width="5.73" height="5.73" fill="#ccf45f"/><rect x="19.95" y="60.04" width="5.73" height="5.73" fill="#f7f7c1"/><rect x="19.95" y="54.32" width="5.73" height="5.73" fill="#f7f7c1"/><rect x="19.95" y="48.59" width="5.73" height="5.73" fill="#f7f7c1"/><rect x="19.95" y="42.86" width="5.73" height="5.73" fill="#f2fefe"/><rect x="19.95" y="37.13" width="5.73" height="5.73" fill="#f7f7c1"/><rect x="19.95" y="31.41" width="5.73" height="5.73" fill="#f2fefe"/><rect x="19.95" y="25.68" width="5.73" height="5.73" fill="#f7f7c1"/><rect x="19.95" y="19.95" width="5.73" height="5.73" fill="#ccf45f"/><rect x="19.95" y="14.23" width="5.73" height="5.73" fill="#67ce3c"/><rect x="14.23" y="88.68" width="5.73" height="5.73" fill="#1b0003"/><rect x="14.23" y="82.95" width="5.73" height="5.73" fill="#ccf45f"/><rect x="14.23" y="77.22" width="5.73" height="5.73" fill="#ccf45f"/><rect x="14.23" y="71.5" width="5.73" height="5.73" fill="#ccf45f"/><rect x="14.23" y="65.77" width="5.73" height="5.73" fill="#ccf45f"/><rect x="14.23" y="60.04" width="5.73" height="5.73" fill="#ccf45f"/><rect x="14.23" y="54.32" width="5.73" height="5.73" fill="#ccf45f"/><rect x="14.23" y="48.59" width="5.73" height="5.73" fill="#ccf45f"/><rect x="14.23" y="42.86" width="5.73" height="5.73" fill="#f7f7c1"/><rect x="14.23" y="37.13" width="5.73" height="5.73" fill="#f7f7c1"/><rect x="14.23" y="31.41" width="5.73" height="5.73" fill="#f7f7c1"/><rect x="14.23" y="25.68" width="5.73" height="5.73" fill="#ccf45f"/><rect x="14.23" y="19.95" width="5.73" height="5.73" fill="#67ce3c"/><rect x="8.5" y="82.95" width="5.73" height="5.73" fill="#1b0003"/><rect x="8.5" y="77.22" width="5.73" height="5.73" fill="#1b0003"/><rect x="8.5" y="71.5" width="5.73" height="5.73" fill="#1b0003"/><rect x="8.5" y="65.77" width="5.73" height="5.73" fill="#1b0003"/><rect x="8.5" y="60.04" width="5.73" height="5.73" fill="#1b0003"/><rect x="8.5" y="54.32" width="5.73" height="5.73" fill="#1b0003"/><rect x="8.5" y="48.59" width="5.73" height="5.73" fill="#1b0003"/><rect x="8.5" y="42.86" width="5.73" height="5.73" fill="#1b0003"/><rect x="8.5" y="37.13" width="5.73" height="5.73" fill="#27937b"/><rect x="8.5" y="31.41" width="5.73" height="5.73" fill="#67ce3c"/><rect x="8.5" y="25.68" width="5.73" height="5.73" fill="#67ce3c"/></g></g></g></g></svg>