<svg xmlns="http://www.w3.org/2000/svg" width="121.33" height="110.54" viewBox="0 0 121.33 110.54"><g id="Layer_2" data-name="Layer 2"><g id="items"><g id="Empty_Heart" data-name="Empty Heart"><path d="M117.73,18v-7.2h-3.59V7.19h-3.6V3.6h-7.2V0h-35V3.6H53V0H18V3.6h-7.2V7.19H7.2v3.6H3.6V18H0V63.77H3.6V71H7.2v3.6h3.59v3.6h3.6v3.6H18v3.6h3.6V89h3.59v3.6h3.6v3.6h3.6v3.6H36v3.59h3.59v3.6h7.2v3.6H74.56v-3.6h7.2v-3.6h3.6V99.75H89v-3.6h3.6v-3.6h3.6V89h3.6V85.36h3.59v-3.6h3.6v-3.6h3.6v-3.6h3.6V71h3.59V63.77h3.6V18Zm-13.4,28.78h-3.6V54H97.14v3.6h-3.6v3.6h-3.6v3.6h-3.6v3.6H82.75V72h-3.6v3.6h-3.6v3.6H72v3.6H68.36v3.59h-3.6v3.6H56.57v-3.6H53V82.75h-3.6v-3.6h-3.6v-3.6h-3.6V72H38.59V68.36H35v-3.6h-3.6v-3.6h-3.6v-3.6H24.2V54H20.6V46.77H17V35h3.6v-7.2h3.6v-3.6h3.59V20.6H35V17h1v3.6h7.19v3.59h3.6v3.6h3.6v3.6H71v-3.6h3.59v-3.6h3.6V20.6h7.2V17h1v3.6h7.2v3.59h3.6v3.6h3.59V35h3.6Z" fill="#fff"/><g id="Empty_Heart-2" data-name="Empty Heart"><rect x="109.23" y="51.67" width="3.6" height="3.6" fill="#1b0003"/><rect x="109.23" y="48.07" width="3.6" height="3.6" fill="#1b0003"/><rect x="109.23" y="44.48" width="3.6" height="3.6" fill="#1b0003"/><rect x="109.23" y="40.88" width="3.6" height="3.6" fill="#1b0003"/><rect x="109.23" y="37.28" width="3.6" height="3.6" fill="#1b0003"/><rect x="109.23" y="33.68" width="3.6" height="3.6" fill="#1b0003"/><rect x="109.23" y="30.09" width="3.6" height="3.6" fill="#1b0003"/><rect x="109.23" y="26.49" width="3.6" height="3.6" fill="#1b0003"/><rect x="105.64" y="58.87" width="3.6" height="3.6" fill="#1b0003"/><rect x="105.64" y="55.27" width="3.6" height="3.6" fill="#1b0003"/><rect x="105.64" y="51.67" width="3.6" height="3.6" fill="#5a5970"/><rect x="105.64" y="48.07" width="3.6" height="3.6" fill="#5a5970"/><rect x="105.64" y="44.48" width="3.6" height="3.6" fill="#5a5970"/><rect x="105.64" y="40.88" width="3.6" height="3.6" fill="#5a5970"/><rect x="105.64" y="37.28" width="3.6" height="3.6" fill="#5a5970"/><rect x="105.64" y="33.68" width="3.6" height="3.6" fill="#5a5970"/><rect x="105.64" y="30.09" width="3.6" height="3.6" fill="#5a5970"/><rect x="105.64" y="26.49" width="3.6" height="3.6" fill="#5a5970"/><rect x="105.64" y="22.89" width="3.6" height="3.6" fill="#1b0003"/><rect x="105.64" y="19.29" width="3.6" height="3.6" fill="#1b0003"/><rect x="102.04" y="62.46" width="3.6" height="3.6" fill="#1b0003"/><rect x="102.04" y="58.87" width="3.6" height="3.6" fill="#5a5970"/><rect x="102.04" y="55.27" width="3.6" height="3.6" fill="#5a5970"/><rect x="102.04" y="51.67" width="3.6" height="3.6" fill="#5a5970"/><rect x="102.04" y="48.07" width="3.6" height="3.6" fill="#222230"/><rect x="102.04" y="44.48" width="3.6" height="3.6" fill="#222230"/><rect x="102.04" y="40.88" width="3.6" height="3.6" fill="#222230"/><rect x="102.04" y="37.28" width="3.6" height="3.6" fill="#222230"/><rect x="102.04" y="33.68" width="3.6" height="3.6" fill="#222230"/><rect x="102.04" y="30.09" width="3.6" height="3.6" fill="#222230"/><rect x="102.04" y="26.49" width="3.6" height="3.6" fill="#5a5970"/><rect x="102.04" y="22.89" width="3.6" height="3.6" fill="#5a5970"/><rect x="102.04" y="19.29" width="3.6" height="3.6" fill="#5a5970"/><rect x="102.04" y="15.69" width="3.6" height="3.6" fill="#1b0003"/><rect x="98.44" y="66.06" width="3.6" height="3.6" fill="#1b0003"/><rect x="98.44" y="62.46" width="3.6" height="3.6" fill="#5a5970"/><rect x="98.44" y="58.87" width="3.6" height="3.6" fill="#5a5970"/><rect x="98.44" y="55.27" width="3.6" height="3.6" fill="#222230"/><rect x="98.44" y="51.67" width="3.6" height="3.6" fill="#222230"/><rect x="98.44" y="48.07" width="3.6" height="3.6" fill="#222230"/><rect x="98.44" y="44.48" width="3.6" height="3.6" fill="#3e3c51"/><rect x="98.44" y="40.88" width="3.6" height="3.6" fill="#3e3c51"/><rect x="98.44" y="37.28" width="3.6" height="3.6" fill="#3e3c51"/><rect x="98.44" y="33.68" width="3.6" height="3.6" fill="#3e3c51"/><rect x="98.44" y="30.09" width="3.6" height="3.6" fill="#222230"/><rect x="98.44" y="26.49" width="3.6" height="3.6" fill="#222230"/><rect x="98.44" y="22.89" width="3.6" height="3.6" fill="#222230"/><rect x="98.44" y="19.29" width="3.6" height="3.6" fill="#5a5970"/><rect x="98.44" y="15.69" width="3.6" height="3.6" fill="#5a5970"/><rect x="98.44" y="12.1" width="3.6" height="3.6" fill="#1b0003"/><rect x="94.84" y="69.66" width="3.6" height="3.6" fill="#1b0003"/><rect x="94.84" y="66.06" width="3.6" height="3.6" fill="#5a5970"/><rect x="94.84" y="62.46" width="3.6" height="3.6" fill="#5a5970"/><rect x="94.84" y="58.87" width="3.6" height="3.6" fill="#222230"/><rect x="94.84" y="55.27" width="3.6" height="3.6" fill="#222230"/><rect x="94.84" y="51.67" width="3.6" height="3.6" fill="#3e3c51"/><rect x="94.84" y="48.07" width="3.6" height="3.6" fill="#3e3c51"/><rect x="94.84" y="44.48" width="3.6" height="3.6" fill="#3e3c51"/><rect x="94.84" y="40.88" width="3.6" height="3.6" fill="#3e3c51"/><rect x="94.84" y="37.28" width="3.6" height="3.6" fill="#3e3c51"/><rect x="94.84" y="33.68" width="3.6" height="3.6" fill="#3e3c51"/><rect x="94.84" y="30.09" width="3.6" height="3.6" fill="#3e3c51"/><rect x="94.84" y="26.49" width="3.6" height="3.6" fill="#222230"/><rect x="94.84" y="22.89" width="3.6" height="3.6" fill="#222230"/><rect x="94.84" y="19.29" width="3.6" height="3.6" fill="#5a5970"/><rect x="94.84" y="15.69" width="3.6" height="3.6" fill="#5a5970"/><rect x="94.84" y="12.1" width="3.6" height="3.6" fill="#1b0003"/><rect x="91.25" y="73.26" width="3.6" height="3.6" fill="#1b0003"/><rect x="91.25" y="69.66" width="3.6" height="3.6" fill="#5a5970"/><rect x="91.25" y="66.06" width="3.6" height="3.6" fill="#5a5970"/><rect x="91.25" y="62.46" width="3.6" height="3.6" fill="#222230"/><rect x="91.25" y="58.87" width="3.6" height="3.6" fill="#222230"/><rect x="91.25" y="55.27" width="3.6" height="3.6" fill="#3e3c51"/><rect x="91.25" y="51.67" width="3.6" height="3.6" fill="#3e3c51"/><rect x="91.25" y="48.07" width="3.6" height="3.6" fill="#3e3c51"/><rect x="91.25" y="44.48" width="3.6" height="3.6" fill="#3e3c51"/><rect x="91.25" y="40.88" width="3.6" height="3.6" fill="#3e3c51"/><rect x="91.25" y="37.28" width="3.6" height="3.6" fill="#3e3c51"/><rect x="91.25" y="33.68" width="3.6" height="3.6" fill="#3e3c51"/><rect x="91.25" y="30.09" width="3.6" height="3.6" fill="#3e3c51"/><rect x="91.25" y="26.49" width="3.6" height="3.6" fill="#3e3c51"/><rect x="91.25" y="22.89" width="3.6" height="3.6" fill="#222230"/><rect x="91.25" y="19.29" width="3.6" height="3.6" fill="#222230"/><rect x="91.25" y="15.69" width="3.6" height="3.6" fill="#5a5970"/><rect x="91.25" y="12.1" width="3.6" height="3.6" fill="#5a5970"/><rect x="91.25" y="8.5" width="3.6" height="3.6" fill="#1b0003"/><rect x="87.65" y="76.86" width="3.6" height="3.6" fill="#1b0003"/><rect x="87.65" y="73.26" width="3.6" height="3.6" fill="#5a5970"/><rect x="87.65" y="69.66" width="3.6" height="3.6" fill="#5a5970"/><rect x="87.65" y="66.06" width="3.6" height="3.6" fill="#222230"/><rect x="87.65" y="62.46" width="3.6" height="3.6" fill="#222230"/><rect x="87.65" y="58.87" width="3.6" height="3.6" fill="#3e3c51"/><rect x="87.65" y="55.27" width="3.6" height="3.6" fill="#3e3c51"/><rect x="87.65" y="51.67" width="3.6" height="3.6" fill="#3e3c51"/><rect x="87.65" y="48.07" width="3.6" height="3.6" fill="#3e3c51"/><rect x="87.65" y="44.48" width="3.6" height="3.6" fill="#3e3c51"/><rect x="87.65" y="40.88" width="3.6" height="3.6" fill="#3e3c51"/><rect x="87.65" y="37.28" width="3.6" height="3.6" fill="#3e3c51"/><rect x="87.65" y="33.68" width="3.6" height="3.6" fill="#3e3c51"/><rect x="87.65" y="30.09" width="3.6" height="3.6" fill="#3e3c51"/><rect x="87.65" y="26.49" width="3.6" height="3.6" fill="#3e3c51"/><rect x="87.65" y="22.89" width="3.6" height="3.6" fill="#3e3c51"/><rect x="87.65" y="19.29" width="3.6" height="3.6" fill="#222230"/><rect x="87.65" y="15.69" width="3.6" height="3.6" fill="#222230"/><rect x="87.65" y="12.1" width="3.6" height="3.6" fill="#5a5970"/><rect x="87.65" y="8.5" width="3.6" height="3.6" fill="#1b0003"/><rect x="84.05" y="80.45" width="3.6" height="3.6" fill="#1b0003"/><rect x="84.05" y="76.86" width="3.6" height="3.6" fill="#5a5970"/><rect x="84.05" y="73.26" width="3.6" height="3.6" fill="#5a5970"/><rect x="84.05" y="69.66" width="3.6" height="3.6" fill="#222230"/><rect x="84.05" y="66.06" width="3.6" height="3.6" fill="#222230"/><rect x="84.05" y="62.46" width="3.6" height="3.6" fill="#3e3c51"/><rect x="84.05" y="58.87" width="3.6" height="3.6" fill="#3e3c51"/><rect x="84.05" y="55.27" width="3.6" height="3.6" fill="#3e3c51"/><rect x="84.05" y="51.67" width="3.6" height="3.6" fill="#3e3c51"/><rect x="84.05" y="48.07" width="3.6" height="3.6" fill="#3e3c51"/><rect x="84.05" y="44.48" width="3.6" height="3.6" fill="#3e3c51"/><rect x="84.05" y="40.88" width="3.6" height="3.6" fill="#3e3c51"/><rect x="84.05" y="37.28" width="3.6" height="3.6" fill="#3e3c51"/><rect x="84.05" y="33.68" width="3.6" height="3.6" fill="#3e3c51"/><rect x="84.05" y="30.09" width="3.6" height="3.6" fill="#3e3c51"/><rect x="84.05" y="26.49" width="3.6" height="3.6" fill="#3e3c51"/><rect x="84.05" y="22.89" width="3.6" height="3.6" fill="#3e3c51"/><rect x="84.05" y="19.29" width="3.6" height="3.6" fill="#222230"/><rect x="84.05" y="15.69" width="3.6" height="3.6" fill="#222230"/><rect x="84.05" y="12.1" width="3.6" height="3.6" fill="#5a5970"/><rect x="84.05" y="8.5" width="3.6" height="3.6" fill="#1b0003"/><rect x="80.45" y="84.05" width="3.6" height="3.6" fill="#1b0003"/><rect x="80.45" y="80.45" width="3.6" height="3.6" fill="#5a5970"/><rect x="80.45" y="76.86" width="3.6" height="3.6" fill="#5a5970"/><rect x="80.45" y="73.26" width="3.6" height="3.6" fill="#222230"/><rect x="80.45" y="69.66" width="3.6" height="3.6" fill="#222230"/><rect x="80.45" y="66.06" width="3.6" height="3.6" fill="#3e3c51"/><rect x="80.45" y="62.46" width="3.6" height="3.6" fill="#3e3c51"/><rect x="80.45" y="58.87" width="3.6" height="3.6" fill="#3e3c51"/><rect x="80.45" y="55.27" width="3.6" height="3.6" fill="#3e3c51"/><rect x="80.45" y="51.67" width="3.6" height="3.6" fill="#3e3c51"/><rect x="80.45" y="48.07" width="3.6" height="3.6" fill="#3e3c51"/><rect x="80.45" y="44.48" width="3.6" height="3.6" fill="#3e3c51"/><rect x="80.45" y="40.88" width="3.6" height="3.6" fill="#3e3c51"/><rect x="80.45" y="37.28" width="3.6" height="3.6" fill="#3e3c51"/><rect x="80.45" y="33.68" width="3.6" height="3.6" fill="#3e3c51"/><rect x="80.45" y="30.09" width="3.6" height="3.6" fill="#3e3c51"/><rect x="80.45" y="26.49" width="3.6" height="3.6" fill="#3e3c51"/><rect x="80.45" y="22.89" width="3.6" height="3.6" fill="#3e3c51"/><rect x="80.45" y="19.29" width="3.6" height="3.6" fill="#222230"/><rect x="80.45" y="15.69" width="3.6" height="3.6" fill="#222230"/><rect x="80.45" y="12.1" width="3.6" height="3.6" fill="#5a5970"/><rect x="80.45" y="8.5" width="3.6" height="3.6" fill="#1b0003"/><rect x="76.86" y="87.65" width="3.6" height="3.6" fill="#1b0003"/><rect x="76.86" y="84.05" width="3.6" height="3.6" fill="#5a5970"/><rect x="76.86" y="80.45" width="3.6" height="3.6" fill="#5a5970"/><rect x="76.86" y="76.86" width="3.6" height="3.6" fill="#222230"/><rect x="76.86" y="73.26" width="3.6" height="3.6" fill="#222230"/><rect x="76.86" y="69.66" width="3.6" height="3.6" fill="#222230"/><rect x="76.86" y="66.06" width="3.6" height="3.6" fill="#3e3c51"/><rect x="76.86" y="62.46" width="3.6" height="3.6" fill="#3e3c51"/><rect x="76.86" y="58.87" width="3.6" height="3.6" fill="#3e3c51"/><rect x="76.86" y="55.27" width="3.6" height="3.6" fill="#3e3c51"/><rect x="76.86" y="51.67" width="3.6" height="3.6" fill="#3e3c51"/><rect x="76.86" y="48.07" width="3.6" height="3.6" fill="#3e3c51"/><rect x="76.86" y="44.48" width="3.6" height="3.6" fill="#3e3c51"/><rect x="76.86" y="40.88" width="3.6" height="3.6" fill="#3e3c51"/><rect x="76.86" y="37.28" width="3.6" height="3.6" fill="#3e3c51"/><rect x="76.86" y="33.68" width="3.6" height="3.6" fill="#3e3c51"/><rect x="76.86" y="30.09" width="3.6" height="3.6" fill="#3e3c51"/><rect x="76.86" y="26.49" width="3.6" height="3.6" fill="#3e3c51"/><rect x="76.86" y="22.89" width="3.6" height="3.6" fill="#222230"/><rect x="76.86" y="19.29" width="3.6" height="3.6" fill="#222230"/><rect x="76.86" y="15.69" width="3.6" height="3.6" fill="#5a5970"/><rect x="76.86" y="12.1" width="3.6" height="3.6" fill="#5a5970"/><rect x="76.86" y="8.5" width="3.6" height="3.6" fill="#1b0003"/><rect x="73.26" y="91.25" width="3.6" height="3.6" fill="#1b0003"/><rect x="73.26" y="87.65" width="3.6" height="3.6" fill="#5a5970"/><rect x="73.26" y="84.05" width="3.6" height="3.6" fill="#5a5970"/><rect x="73.26" y="80.45" width="3.6" height="3.6" fill="#222230"/><rect x="73.26" y="76.86" width="3.6" height="3.6" fill="#222230"/><rect x="73.26" y="73.26" width="3.6" height="3.6" fill="#222230"/><rect x="73.26" y="69.66" width="3.6" height="3.6" fill="#3e3c51"/><rect x="73.26" y="66.06" width="3.6" height="3.6" fill="#222230"/><rect x="73.26" y="62.46" width="3.6" height="3.6" fill="#3e3c51"/><rect x="73.26" y="58.87" width="3.6" height="3.6" fill="#3e3c51"/><rect x="73.26" y="55.27" width="3.6" height="3.6" fill="#3e3c51"/><rect x="73.26" y="51.67" width="3.6" height="3.6" fill="#3e3c51"/><rect x="73.26" y="48.07" width="3.6" height="3.6" fill="#3e3c51"/><rect x="73.26" y="44.48" width="3.6" height="3.6" fill="#3e3c51"/><rect x="73.26" y="40.88" width="3.6" height="3.6" fill="#3e3c51"/><rect x="73.26" y="37.28" width="3.6" height="3.6" fill="#3e3c51"/><rect x="73.26" y="33.68" width="3.6" height="3.6" fill="#3e3c51"/><rect x="73.26" y="30.09" width="3.6" height="3.6" fill="#3e3c51"/><rect x="73.26" y="26.49" width="3.6" height="3.6" fill="#222230"/><rect x="73.26" y="22.89" width="3.6" height="3.6" fill="#222230"/><rect x="73.26" y="19.29" width="3.6" height="3.6" fill="#222230"/><rect x="73.26" y="15.69" width="3.6" height="3.6" fill="#5a5970"/><rect x="73.26" y="12.1" width="3.6" height="3.6" fill="#1b0003"/><rect x="69.66" y="94.84" width="3.6" height="3.6" fill="#1b0003"/><rect x="69.66" y="91.25" width="3.6" height="3.6" fill="#5a5970"/><rect x="69.66" y="87.65" width="3.6" height="3.6" fill="#5a5970"/><rect x="69.66" y="84.05" width="3.6" height="3.6" fill="#222230"/><rect x="69.66" y="80.45" width="3.6" height="3.6" fill="#222230"/><rect x="69.66" y="76.86" width="3.6" height="3.6" fill="#222230"/><rect x="69.66" y="73.26" width="3.6" height="3.6" fill="#3e3c51"/><rect x="69.66" y="69.66" width="3.6" height="3.6" fill="#222230"/><rect x="69.66" y="66.06" width="3.6" height="3.6" fill="#3e3c51"/><rect x="69.66" y="62.46" width="3.6" height="3.6" fill="#3e3c51"/><rect x="69.66" y="58.87" width="3.6" height="3.6" fill="#3e3c51"/><rect x="69.66" y="55.27" width="3.6" height="3.6" fill="#3e3c51"/><rect x="69.66" y="51.67" width="3.6" height="3.6" fill="#3e3c51"/><rect x="69.66" y="48.07" width="3.6" height="3.6" fill="#3e3c51"/><rect x="69.66" y="44.48" width="3.6" height="3.6" fill="#3e3c51"/><rect x="69.66" y="40.88" width="3.6" height="3.6" fill="#3e3c51"/><rect x="69.66" y="37.28" width="3.6" height="3.6" fill="#3e3c51"/><rect x="69.66" y="33.68" width="3.6" height="3.6" fill="#3e3c51"/><rect x="69.66" y="30.09" width="3.6" height="3.6" fill="#3e3c51"/><rect x="69.66" y="26.49" width="3.6" height="3.6" fill="#222230"/><rect x="69.66" y="22.89" width="3.6" height="3.6" fill="#222230"/><rect x="69.66" y="19.29" width="3.6" height="3.6" fill="#5a5970"/><rect x="69.66" y="15.69" width="3.6" height="3.6" fill="#5a5970"/><rect x="69.66" y="12.1" width="3.6" height="3.6" fill="#1b0003"/><rect x="66.06" y="94.84" width="3.6" height="3.6" fill="#1b0003"/><rect x="66.06" y="91.25" width="3.6" height="3.6" fill="#5a5970"/><rect x="66.06" y="87.65" width="3.6" height="3.6" fill="#222230"/><rect x="66.06" y="84.05" width="3.6" height="3.6" fill="#222230"/><rect x="66.06" y="80.45" width="3.6" height="3.6" fill="#222230"/><rect x="66.06" y="76.86" width="3.6" height="3.6" fill="#3e3c51"/><rect x="66.06" y="73.26" width="3.6" height="3.6" fill="#222230"/><rect x="66.06" y="69.66" width="3.6" height="3.6" fill="#3e3c51"/><rect x="66.06" y="66.06" width="3.6" height="3.6" fill="#3e3c51"/><rect x="66.06" y="62.46" width="3.6" height="3.6" fill="#3e3c51"/><rect x="66.06" y="58.87" width="3.6" height="3.6" fill="#3e3c51"/><rect x="66.06" y="55.27" width="3.6" height="3.6" fill="#3e3c51"/><rect x="66.06" y="51.67" width="3.6" height="3.6" fill="#3e3c51"/><rect x="66.06" y="48.07" width="3.6" height="3.6" fill="#3e3c51"/><rect x="66.06" y="44.48" width="3.6" height="3.6" fill="#3e3c51"/><rect x="66.06" y="40.88" width="3.6" height="3.6" fill="#3e3c51"/><rect x="66.06" y="37.28" width="3.6" height="3.6" fill="#3e3c51"/><rect x="66.06" y="33.68" width="3.6" height="3.6" fill="#3e3c51"/><rect x="66.06" y="30.09" width="3.6" height="3.6" fill="#222230"/><rect x="66.06" y="26.49" width="3.6" height="3.6" fill="#222230"/><rect x="66.06" y="22.89" width="3.6" height="3.6" fill="#5a5970"/><rect x="66.06" y="19.29" width="3.6" height="3.6" fill="#5a5970"/><rect x="66.06" y="15.69" width="3.6" height="3.6" fill="#1b0003"/><rect x="62.47" y="98.44" width="3.6" height="3.6" fill="#1b0003"/><rect x="62.47" y="94.84" width="3.6" height="3.6" fill="#5a5970"/><rect x="62.47" y="91.25" width="3.6" height="3.6" fill="#222230"/><rect x="62.47" y="87.65" width="3.6" height="3.6" fill="#222230"/><rect x="62.47" y="84.05" width="3.6" height="3.6" fill="#222230"/><rect x="62.47" y="80.45" width="3.6" height="3.6" fill="#3e3c51"/><rect x="62.47" y="76.86" width="3.6" height="3.6" fill="#222230"/><rect x="62.47" y="73.26" width="3.6" height="3.6" fill="#3e3c51"/><rect x="62.47" y="69.66" width="3.6" height="3.6" fill="#3e3c51"/><rect x="62.47" y="66.06" width="3.6" height="3.6" fill="#3e3c51"/><rect x="62.47" y="62.46" width="3.6" height="3.6" fill="#3e3c51"/><rect x="62.47" y="58.87" width="3.6" height="3.6" fill="#3e3c51"/><rect x="62.47" y="55.27" width="3.6" height="3.6" fill="#3e3c51"/><rect x="62.47" y="51.67" width="3.6" height="3.6" fill="#3e3c51"/><rect x="62.47" y="48.07" width="3.6" height="3.6" fill="#3e3c51"/><rect x="62.47" y="44.48" width="3.6" height="3.6" fill="#3e3c51"/><rect x="62.47" y="40.88" width="3.6" height="3.6" fill="#3e3c51"/><rect x="62.47" y="37.28" width="3.6" height="3.6" fill="#3e3c51"/><rect x="62.47" y="33.68" width="3.6" height="3.6" fill="#222230"/><rect x="62.47" y="30.09" width="3.6" height="3.6" fill="#222230"/><rect x="62.47" y="26.49" width="3.6" height="3.6" fill="#5a5970"/><rect x="62.47" y="22.89" width="3.6" height="3.6" fill="#5a5970"/><rect x="62.47" y="19.29" width="3.6" height="3.6" fill="#1b0003"/><rect x="58.87" y="98.44" width="3.6" height="3.6" fill="#1b0003"/><rect x="58.87" y="94.84" width="3.6" height="3.6" fill="#5a5970"/><rect x="58.87" y="91.25" width="3.6" height="3.6" fill="#222230"/><rect x="58.87" y="87.65" width="3.6" height="3.6" fill="#3e3c51"/><rect x="58.87" y="84.05" width="3.6" height="3.6" fill="#3e3c51"/><rect x="58.87" y="80.45" width="3.6" height="3.6" fill="#222230"/><rect x="58.87" y="76.86" width="3.6" height="3.6" fill="#3e3c51"/><rect x="58.87" y="73.26" width="3.6" height="3.6" fill="#3e3c51"/><rect x="58.87" y="69.66" width="3.6" height="3.6" fill="#3e3c51"/><rect x="58.87" y="66.06" width="3.6" height="3.6" fill="#3e3c51"/><rect x="58.87" y="62.46" width="3.6" height="3.6" fill="#3e3c51"/><rect x="58.87" y="58.87" width="3.6" height="3.6" fill="#3e3c51"/><rect x="58.87" y="55.27" width="3.6" height="3.6" fill="#3e3c51"/><rect x="58.87" y="51.67" width="3.6" height="3.6" fill="#3e3c51"/><rect x="58.87" y="48.07" width="3.6" height="3.6" fill="#3e3c51"/><rect x="58.87" y="44.48" width="3.6" height="3.6" fill="#3e3c51"/><rect x="58.87" y="40.88" width="3.6" height="3.6" fill="#3e3c51"/><rect x="58.87" y="37.28" width="3.6" height="3.6" fill="#3e3c51"/><rect x="58.87" y="33.68" width="3.6" height="3.6" fill="#222230"/><rect x="58.87" y="30.09" width="3.6" height="3.6" fill="#5a5970"/><rect x="58.87" y="26.49" width="3.6" height="3.6" fill="#5a5970"/><rect x="58.87" y="22.89" width="3.6" height="3.6" fill="#1b0003"/><rect x="55.27" y="98.44" width="3.6" height="3.6" fill="#1b0003"/><rect x="55.27" y="94.84" width="3.6" height="3.6" fill="#5a5970"/><rect x="55.27" y="91.25" width="3.6" height="3.6" fill="#222230"/><rect x="55.27" y="87.65" width="3.6" height="3.6" fill="#222230"/><rect x="55.27" y="84.05" width="3.6" height="3.6" fill="#222230"/><rect x="55.27" y="80.45" width="3.6" height="3.6" fill="#3e3c51"/><rect x="55.27" y="76.86" width="3.6" height="3.6" fill="#3e3c51"/><rect x="55.27" y="73.26" width="3.6" height="3.6" fill="#3e3c51"/><rect x="55.27" y="69.66" width="3.6" height="3.6" fill="#3e3c51"/><rect x="55.27" y="66.06" width="3.6" height="3.6" fill="#3e3c51"/><rect x="55.27" y="62.46" width="3.6" height="3.6" fill="#3e3c51"/><rect x="55.27" y="58.87" width="3.6" height="3.6" fill="#3e3c51"/><rect x="55.27" y="55.27" width="3.6" height="3.6" fill="#3e3c51"/><rect x="55.27" y="51.67" width="3.6" height="3.6" fill="#3e3c51"/><rect x="55.27" y="48.07" width="3.6" height="3.6" fill="#3e3c51"/><rect x="55.27" y="44.48" width="3.6" height="3.6" fill="#3e3c51"/><rect x="55.27" y="40.88" width="3.6" height="3.6" fill="#3e3c51"/><rect x="55.27" y="37.28" width="3.6" height="3.6" fill="#3e3c51"/><rect x="55.27" y="33.68" width="3.6" height="3.6" fill="#222230"/><rect x="55.27" y="30.09" width="3.6" height="3.6" fill="#222230"/><rect x="55.27" y="26.49" width="3.6" height="3.6" fill="#5a5970"/><rect x="55.27" y="22.89" width="3.6" height="3.6" fill="#5a5970"/><rect x="55.27" y="19.29" width="3.6" height="3.6" fill="#1b0003"/><rect x="51.67" y="94.84" width="3.6" height="3.6" fill="#1b0003"/><rect x="51.67" y="91.25" width="3.6" height="3.6" fill="#5a5970"/><rect x="51.67" y="87.65" width="3.6" height="3.6" fill="#222230"/><rect x="51.67" y="84.05" width="3.6" height="3.6" fill="#222230"/><rect x="51.67" y="80.45" width="3.6" height="3.6" fill="#3e3c51"/><rect x="51.67" y="76.86" width="3.6" height="3.6" fill="#3e3c51"/><rect x="51.67" y="73.26" width="3.6" height="3.6" fill="#3e3c51"/><rect x="51.67" y="69.66" width="3.6" height="3.6" fill="#3e3c51"/><rect x="51.67" y="66.06" width="3.6" height="3.6" fill="#3e3c51"/><rect x="51.67" y="62.46" width="3.6" height="3.6" fill="#3e3c51"/><rect x="51.67" y="58.87" width="3.6" height="3.6" fill="#3e3c51"/><rect x="51.67" y="55.27" width="3.6" height="3.6" fill="#3e3c51"/><rect x="51.67" y="51.67" width="3.6" height="3.6" fill="#3e3c51"/><rect x="51.67" y="48.07" width="3.6" height="3.6" fill="#3e3c51"/><rect x="51.67" y="44.48" width="3.6" height="3.6" fill="#3e3c51"/><rect x="51.67" y="40.88" width="3.6" height="3.6" fill="#3e3c51"/><rect x="51.67" y="37.28" width="3.6" height="3.6" fill="#3e3c51"/><rect x="51.67" y="33.68" width="3.6" height="3.6" fill="#3e3c51"/><rect x="51.67" y="30.09" width="3.6" height="3.6" fill="#222230"/><rect x="51.67" y="26.49" width="3.6" height="3.6" fill="#222230"/><rect x="51.67" y="22.89" width="3.6" height="3.6" fill="#5a5970"/><rect x="51.67" y="19.29" width="3.6" height="3.6" fill="#5a5970"/><rect x="51.67" y="15.69" width="3.6" height="3.6" fill="#1b0003"/><rect x="48.07" y="94.84" width="3.6" height="3.6" fill="#1b0003"/><rect x="48.07" y="91.25" width="3.6" height="3.6" fill="#5a5970"/><rect x="48.07" y="87.65" width="3.6" height="3.6" fill="#5a5970"/><rect x="48.07" y="84.05" width="3.6" height="3.6" fill="#222230"/><rect x="48.07" y="80.45" width="3.6" height="3.6" fill="#222230"/><rect x="48.07" y="76.86" width="3.6" height="3.6" fill="#3e3c51"/><rect x="48.07" y="73.26" width="3.6" height="3.6" fill="#3e3c51"/><rect x="48.07" y="69.66" width="3.6" height="3.6" fill="#3e3c51"/><rect x="48.07" y="66.06" width="3.6" height="3.6" fill="#3e3c51"/><rect x="48.07" y="62.46" width="3.6" height="3.6" fill="#3e3c51"/><rect x="48.07" y="58.87" width="3.6" height="3.6" fill="#3e3c51"/><rect x="48.07" y="55.27" width="3.6" height="3.6" fill="#3e3c51"/><rect x="48.07" y="51.67" width="3.6" height="3.6" fill="#3e3c51"/><rect x="48.07" y="48.07" width="3.6" height="3.6" fill="#3e3c51"/><rect x="48.07" y="44.48" width="3.6" height="3.6" fill="#3e3c51"/><rect x="48.07" y="40.88" width="3.6" height="3.6" fill="#3e3c51"/><rect x="48.07" y="37.28" width="3.6" height="3.6" fill="#3e3c51"/><rect x="48.07" y="33.68" width="3.6" height="3.6" fill="#3e3c51"/><rect x="48.07" y="30.09" width="3.6" height="3.6" fill="#3e3c51"/><rect x="48.07" y="26.49" width="3.6" height="3.6" fill="#222230"/><rect x="48.07" y="22.89" width="3.6" height="3.6" fill="#222230"/><rect x="48.07" y="19.29" width="3.6" height="3.6" fill="#5a5970"/><rect x="48.07" y="15.69" width="3.6" height="3.6" fill="#5a5970"/><rect x="48.07" y="12.1" width="3.6" height="3.6" fill="#1b0003"/><rect x="44.48" y="91.25" width="3.6" height="3.6" fill="#1b0003"/><rect x="44.48" y="87.65" width="3.6" height="3.6" fill="#5a5970"/><rect x="44.48" y="84.05" width="3.6" height="3.6" fill="#5a5970"/><rect x="44.48" y="80.45" width="3.6" height="3.6" fill="#222230"/><rect x="44.48" y="76.86" width="3.6" height="3.6" fill="#222230"/><rect x="44.48" y="73.26" width="3.6" height="3.6" fill="#3e3c51"/><rect x="44.48" y="69.66" width="3.6" height="3.6" fill="#3e3c51"/><rect x="44.48" y="66.06" width="3.6" height="3.6" fill="#3e3c51"/><rect x="44.48" y="62.46" width="3.6" height="3.6" fill="#3e3c51"/><rect x="44.48" y="58.87" width="3.6" height="3.6" fill="#3e3c51"/><rect x="44.48" y="55.27" width="3.6" height="3.6" fill="#3e3c51"/><rect x="44.48" y="51.67" width="3.6" height="3.6" fill="#3e3c51"/><rect x="44.48" y="48.07" width="3.6" height="3.6" fill="#3e3c51"/><rect x="44.48" y="44.48" width="3.6" height="3.6" fill="#3e3c51"/><rect x="44.48" y="40.88" width="3.6" height="3.6" fill="#3e3c51"/><rect x="44.48" y="37.28" width="3.6" height="3.6" fill="#3e3c51"/><rect x="44.48" y="33.68" width="3.6" height="3.6" fill="#3e3c51"/><rect x="44.48" y="30.09" width="3.6" height="3.6" fill="#3e3c51"/><rect x="44.48" y="26.49" width="3.6" height="3.6" fill="#3e3c51"/><rect x="44.48" y="22.89" width="3.6" height="3.6" fill="#222230"/><rect x="44.48" y="19.29" width="3.6" height="3.6" fill="#222230"/><rect x="44.48" y="15.69" width="3.6" height="3.6" fill="#5a5970"/><rect x="44.48" y="12.1" width="3.6" height="3.6" fill="#1b0003"/><rect x="40.88" y="87.65" width="3.6" height="3.6" fill="#1b0003"/><rect x="40.88" y="84.05" width="3.6" height="3.6" fill="#5a5970"/><rect x="40.88" y="80.45" width="3.6" height="3.6" fill="#5a5970"/><rect x="40.88" y="76.86" width="3.6" height="3.6" fill="#222230"/><rect x="40.88" y="73.26" width="3.6" height="3.6" fill="#222230"/><rect x="40.88" y="69.66" width="3.6" height="3.6" fill="#3e3c51"/><rect x="40.88" y="66.06" width="3.6" height="3.6" fill="#3e3c51"/><rect x="40.88" y="62.46" width="3.6" height="3.6" fill="#3e3c51"/><rect x="40.88" y="58.87" width="3.6" height="3.6" fill="#3e3c51"/><rect x="40.88" y="55.27" width="3.6" height="3.6" fill="#3e3c51"/><rect x="40.88" y="51.67" width="3.6" height="3.6" fill="#3e3c51"/><rect x="40.88" y="48.07" width="3.6" height="3.6" fill="#3e3c51"/><rect x="40.88" y="44.48" width="3.6" height="3.6" fill="#3e3c51"/><rect x="40.88" y="40.88" width="3.6" height="3.6" fill="#3e3c51"/><rect x="40.88" y="37.28" width="3.6" height="3.6" fill="#3e3c51"/><rect x="40.88" y="33.68" width="3.6" height="3.6" fill="#3e3c51"/><rect x="40.88" y="30.09" width="3.6" height="3.6" fill="#3e3c51"/><rect x="40.88" y="26.49" width="3.6" height="3.6" fill="#3e3c51"/><rect x="40.88" y="22.89" width="3.6" height="3.6" fill="#222230"/><rect x="40.88" y="19.29" width="3.6" height="3.6" fill="#222230"/><rect x="40.88" y="15.69" width="3.6" height="3.6" fill="#5a5970"/><rect x="40.88" y="12.1" width="3.6" height="3.6" fill="#5a5970"/><rect x="40.88" y="8.5" width="3.6" height="3.6" fill="#1b0003"/><rect x="37.28" y="84.05" width="3.6" height="3.6" fill="#1b0003"/><rect x="37.28" y="80.45" width="3.6" height="3.6" fill="#5a5970"/><rect x="37.28" y="76.86" width="3.6" height="3.6" fill="#5a5970"/><rect x="37.28" y="73.26" width="3.6" height="3.6" fill="#222230"/><rect x="37.28" y="69.66" width="3.6" height="3.6" fill="#222230"/><rect x="37.28" y="66.06" width="3.6" height="3.6" fill="#3e3c51"/><rect x="37.28" y="62.46" width="3.6" height="3.6" fill="#3e3c51"/><rect x="37.28" y="58.87" width="3.6" height="3.6" fill="#3e3c51"/><rect x="37.28" y="55.27" width="3.6" height="3.6" fill="#3e3c51"/><rect x="37.28" y="51.67" width="3.6" height="3.6" fill="#3e3c51"/><rect x="37.28" y="48.07" width="3.6" height="3.6" fill="#3e3c51"/><rect x="37.28" y="44.48" width="3.6" height="3.6" fill="#3e3c51"/><rect x="37.28" y="40.88" width="3.6" height="3.6" fill="#3e3c51"/><rect x="37.28" y="37.28" width="3.6" height="3.6" fill="#3e3c51"/><rect x="37.28" y="33.68" width="3.6" height="3.6" fill="#3e3c51"/><rect x="37.28" y="30.09" width="3.6" height="3.6" fill="#3e3c51"/><rect x="37.28" y="26.49" width="3.6" height="3.6" fill="#3e3c51"/><rect x="37.28" y="22.89" width="3.6" height="3.6" fill="#3e3c51"/><rect x="37.28" y="19.29" width="3.6" height="3.6" fill="#222230"/><rect x="37.28" y="15.69" width="3.6" height="3.6" fill="#222230"/><rect x="37.28" y="12.1" width="3.6" height="3.6" fill="#5a5970"/><rect x="37.28" y="8.5" width="3.6" height="3.6" fill="#1b0003"/><rect x="33.68" y="80.45" width="3.6" height="3.6" fill="#1b0003"/><rect x="33.68" y="76.86" width="3.6" height="3.6" fill="#5a5970"/><rect x="33.68" y="73.26" width="3.6" height="3.6" fill="#5a5970"/><rect x="33.68" y="69.66" width="3.6" height="3.6" fill="#222230"/><rect x="33.68" y="66.06" width="3.6" height="3.6" fill="#222230"/><rect x="33.68" y="62.46" width="3.6" height="3.6" fill="#3e3c51"/><rect x="33.68" y="58.87" width="3.6" height="3.6" fill="#3e3c51"/><rect x="33.68" y="55.27" width="3.6" height="3.6" fill="#3e3c51"/><rect x="33.68" y="51.67" width="3.6" height="3.6" fill="#3e3c51"/><rect x="33.68" y="48.07" width="3.6" height="3.6" fill="#3e3c51"/><rect x="33.68" y="44.48" width="3.6" height="3.6" fill="#3e3c51"/><rect x="33.68" y="40.88" width="3.6" height="3.6" fill="#3e3c51"/><rect x="33.68" y="37.28" width="3.6" height="3.6" fill="#3e3c51"/><rect x="33.68" y="33.68" width="3.6" height="3.6" fill="#3e3c51"/><rect x="33.68" y="30.09" width="3.6" height="3.6" fill="#3e3c51"/><rect x="33.68" y="26.49" width="3.6" height="3.6" fill="#3e3c51"/><rect x="33.68" y="22.89" width="3.6" height="3.6" fill="#3e3c51"/><rect x="33.68" y="19.29" width="3.6" height="3.6" fill="#222230"/><rect x="33.68" y="15.69" width="3.6" height="3.6" fill="#222230"/><rect x="33.68" y="12.1" width="3.6" height="3.6" fill="#5a5970"/><rect x="33.68" y="8.5" width="3.6" height="3.6" fill="#1b0003"/><rect x="30.09" y="76.86" width="3.6" height="3.6" fill="#1b0003"/><rect x="30.09" y="73.26" width="3.6" height="3.6" fill="#5a5970"/><rect x="30.09" y="69.66" width="3.6" height="3.6" fill="#5a5970"/><rect x="30.09" y="66.06" width="3.6" height="3.6" fill="#222230"/><rect x="30.09" y="62.46" width="3.6" height="3.6" fill="#222230"/><rect x="30.09" y="58.87" width="3.6" height="3.6" fill="#222230"/><rect x="30.09" y="55.27" width="3.6" height="3.6" fill="#3e3c51"/><rect x="30.09" y="51.67" width="3.6" height="3.6" fill="#3e3c51"/><rect x="30.09" y="48.07" width="3.6" height="3.6" fill="#3e3c51"/><rect x="30.09" y="44.48" width="3.6" height="3.6" fill="#3e3c51"/><rect x="30.09" y="40.88" width="3.6" height="3.6" fill="#3e3c51"/><rect x="30.09" y="37.28" width="3.6" height="3.6" fill="#3e3c51"/><rect x="30.09" y="33.68" width="3.6" height="3.6" fill="#3e3c51"/><rect x="30.09" y="30.09" width="3.6" height="3.6" fill="#3e3c51"/><rect x="30.09" y="26.49" width="3.6" height="3.6" fill="#3e3c51"/><rect x="30.09" y="22.89" width="3.6" height="3.6" fill="#3e3c51"/><rect x="30.09" y="19.29" width="3.6" height="3.6" fill="#222230"/><rect x="30.09" y="15.69" width="3.6" height="3.6" fill="#222230"/><rect x="30.09" y="12.1" width="3.6" height="3.6" fill="#5a5970"/><rect x="30.09" y="8.5" width="3.6" height="3.6" fill="#1b0003"/><rect x="26.49" y="73.26" width="3.6" height="3.6" fill="#1b0003"/><rect x="26.49" y="69.66" width="3.6" height="3.6" fill="#5a5970"/><rect x="26.49" y="66.06" width="3.6" height="3.6" fill="#5a5970"/><rect x="26.49" y="62.46" width="3.6" height="3.6" fill="#222230"/><rect x="26.49" y="58.87" width="3.6" height="3.6" fill="#222230"/><rect x="26.49" y="55.27" width="3.6" height="3.6" fill="#222230"/><rect x="26.49" y="51.67" width="3.6" height="3.6" fill="#3e3c51"/><rect x="26.49" y="48.07" width="3.6" height="3.6" fill="#3e3c51"/><rect x="26.49" y="44.48" width="3.6" height="3.6" fill="#3e3c51"/><rect x="26.49" y="40.88" width="3.6" height="3.6" fill="#3e3c51"/><rect x="26.49" y="37.28" width="3.6" height="3.6" fill="#3e3c51"/><rect x="26.49" y="33.68" width="3.6" height="3.6" fill="#3e3c51"/><rect x="26.49" y="30.09" width="3.6" height="3.6" fill="#3e3c51"/><rect x="26.49" y="26.49" width="3.6" height="3.6" fill="#3e3c51"/><rect x="26.49" y="22.89" width="3.6" height="3.6" fill="#222230"/><rect x="26.49" y="19.29" width="3.6" height="3.6" fill="#222230"/><rect x="26.49" y="15.69" width="3.6" height="3.6" fill="#5a5970"/><rect x="26.49" y="12.1" width="3.6" height="3.6" fill="#5a5970"/><rect x="26.49" y="8.5" width="3.6" height="3.6" fill="#1b0003"/><rect x="22.89" y="69.66" width="3.6" height="3.6" fill="#1b0003"/><rect x="22.89" y="66.06" width="3.6" height="3.6" fill="#5a5970"/><rect x="22.89" y="62.46" width="3.6" height="3.6" fill="#5a5970"/><rect x="22.89" y="58.87" width="3.6" height="3.6" fill="#222230"/><rect x="22.89" y="55.27" width="3.6" height="3.6" fill="#222230"/><rect x="22.89" y="51.67" width="3.6" height="3.6" fill="#222230"/><rect x="22.89" y="48.07" width="3.6" height="3.6" fill="#222230"/><rect x="22.89" y="44.48" width="3.6" height="3.6" fill="#3e3c51"/><rect x="22.89" y="40.88" width="3.6" height="3.6" fill="#3e3c51"/><rect x="22.89" y="37.28" width="3.6" height="3.6" fill="#3e3c51"/><rect x="22.89" y="33.68" width="3.6" height="3.6" fill="#3e3c51"/><rect x="22.89" y="30.09" width="3.6" height="3.6" fill="#3e3c51"/><rect x="22.89" y="26.49" width="3.6" height="3.6" fill="#222230"/><rect x="22.89" y="22.89" width="3.6" height="3.6" fill="#222230"/><rect x="22.89" y="19.29" width="3.6" height="3.6" fill="#222230"/><rect x="22.89" y="15.69" width="3.6" height="3.6" fill="#5a5970"/><rect x="22.89" y="12.1" width="3.6" height="3.6" fill="#1b0003"/><rect x="19.29" y="66.06" width="3.6" height="3.6" fill="#1b0003"/><rect x="19.29" y="62.46" width="3.6" height="3.6" fill="#5a5970"/><rect x="19.29" y="58.87" width="3.6" height="3.6" fill="#5a5970"/><rect x="19.29" y="55.27" width="3.6" height="3.6" fill="#5a5970"/><rect x="19.29" y="51.67" width="3.6" height="3.6" fill="#222230"/><rect x="19.29" y="48.07" width="3.6" height="3.6" fill="#222230"/><rect x="19.29" y="44.48" width="3.6" height="3.6" fill="#222230"/><rect x="19.29" y="40.88" width="3.6" height="3.6" fill="#222230"/><rect x="19.29" y="37.28" width="3.6" height="3.6" fill="#222230"/><rect x="19.29" y="33.68" width="3.6" height="3.6" fill="#222230"/><rect x="19.29" y="30.09" width="3.6" height="3.6" fill="#222230"/><rect x="19.29" y="26.49" width="3.6" height="3.6" fill="#222230"/><rect x="19.29" y="22.89" width="3.6" height="3.6" fill="#222230"/><rect x="19.29" y="19.29" width="3.6" height="3.6" fill="#5a5970"/><rect x="19.29" y="15.69" width="3.6" height="3.6" fill="#5a5970"/><rect x="19.29" y="12.1" width="3.6" height="3.6" fill="#1b0003"/><rect x="15.7" y="62.46" width="3.6" height="3.6" fill="#1b0003"/><rect x="15.7" y="58.87" width="3.6" height="3.6" fill="#5a5970"/><rect x="15.7" y="55.27" width="3.6" height="3.6" fill="#5a5970"/><rect x="15.7" y="51.67" width="3.6" height="3.6" fill="#5a5970"/><rect x="15.7" y="48.07" width="3.6" height="3.6" fill="#5a5970"/><rect x="15.7" y="44.48" width="3.6" height="3.6" fill="#222230"/><rect x="15.7" y="40.88" width="3.6" height="3.6" fill="#222230"/><rect x="15.7" y="37.28" width="3.6" height="3.6" fill="#222230"/><rect x="15.7" y="33.68" width="3.6" height="3.6" fill="#222230"/><rect x="15.7" y="30.09" width="3.6" height="3.6" fill="#222230"/><rect x="15.7" y="26.49" width="3.6" height="3.6" fill="#5a5970"/><rect x="15.7" y="22.89" width="3.6" height="3.6" fill="#5a5970"/><rect x="15.7" y="19.29" width="3.6" height="3.6" fill="#5a5970"/><rect x="15.7" y="15.69" width="3.6" height="3.6" fill="#1b0003"/><rect x="12.1" y="58.87" width="3.6" height="3.6" fill="#1b0003"/><rect x="12.1" y="55.27" width="3.6" height="3.6" fill="#1b0003"/><rect x="12.1" y="51.67" width="3.6" height="3.6" fill="#5a5970"/><rect x="12.1" y="48.07" width="3.6" height="3.6" fill="#5a5970"/><rect x="12.1" y="44.48" width="3.6" height="3.6" fill="#5a5970"/><rect x="12.1" y="40.88" width="3.6" height="3.6" fill="#5a5970"/><rect x="12.1" y="37.28" width="3.6" height="3.6" fill="#5a5970"/><rect x="12.1" y="33.68" width="3.6" height="3.6" fill="#5a5970"/><rect x="12.1" y="30.09" width="3.6" height="3.6" fill="#5a5970"/><rect x="12.1" y="26.49" width="3.6" height="3.6" fill="#5a5970"/><rect x="12.1" y="22.89" width="3.6" height="3.6" fill="#1b0003"/><rect x="12.1" y="19.29" width="3.6" height="3.6" fill="#1b0003"/><rect x="8.5" y="51.67" width="3.6" height="3.6" fill="#1b0003"/><rect x="8.5" y="48.07" width="3.6" height="3.6" fill="#1b0003"/><rect x="8.5" y="44.48" width="3.6" height="3.6" fill="#1b0003"/><rect x="8.5" y="40.88" width="3.6" height="3.6" fill="#1b0003"/><rect x="8.5" y="37.28" width="3.6" height="3.6" fill="#1b0003"/><rect x="8.5" y="33.68" width="3.6" height="3.6" fill="#1b0003"/><rect x="8.5" y="30.09" width="3.6" height="3.6" fill="#1b0003"/><rect x="8.5" y="26.49" width="3.6" height="3.6" fill="#1b0003"/></g></g></g></g></svg>