<svg xmlns="http://www.w3.org/2000/svg" width="118.59" height="162.13" viewBox="0 0 118.59 162.13"><g id="Layer_2" data-name="Layer 2"><g id="items"><g id="Empty_Potion_Bottle2" data-name="Empty Potion Bottle2"><path d="M89.57,162.13H24.19v-4.84H19.35v-4.83H14.51v-4.84H9.68v-9.68H4.84v-9.67H0V91.92H4.84V82.24H9.68V72.57h4.83V67.73h4.84V62.89H29V58.05H38.7V36.35H33.86V9.68H38.7V4.84h4.84V0H75.05V4.84h4.84V9.68h4.84V36.35H79.89v21.7h9.68v4.84h9.67v4.84h4.84v4.84h4.84v9.67h4.84v9.68h4.83v36.35h-4.83v9.67h-4.84v9.68h-4.84v4.84H99.24v4.83H89.57Zm-48.38-17H72.57v-4.84h9.67v-4.83h4.84v-4.84h4.84v-9.68h4.84v-9.67h4.83v-2.35H96.76V99.24H91.92V89.57H87.08V84.73H82.24V79.89H72.57V75.05H62.89V21.84H55.7V75.05H46v4.84H36.35v4.84H31.51v4.84H26.68v9.67H21.84v9.68H17v2.35h4.84v9.67h4.84v9.68h4.83v4.84h4.84v4.83h4.84Z" fill="#fff"/><g id="Empty_Potion_Bottle_2" data-name="Empty Potion Bottle 2"><rect x="105.26" y="114.93" width="4.84" height="4.84" fill="#1b0003"/><rect x="105.26" y="110.09" width="4.84" height="4.84" fill="#1b0003"/><rect x="105.26" y="105.25" width="4.84" height="4.84" fill="#1b0003"/><rect x="105.26" y="100.42" width="4.84" height="4.84" fill="#1b0003"/><rect x="100.42" y="124.61" width="4.84" height="4.84" fill="#1b0003"/><rect x="100.42" y="119.77" width="4.84" height="4.84" fill="#1b0003"/><rect x="100.42" y="114.93" width="4.84" height="4.84" fill="#6a87af"/><rect x="100.42" y="110.09" width="4.84" height="4.84" fill="#6a87af"/><rect x="100.42" y="105.25" width="4.84" height="4.84" fill="#6a87af"/><rect x="100.42" y="100.42" width="4.84" height="4.84" fill="#6a87af"/><rect x="100.42" y="95.58" width="4.84" height="4.84" fill="#1b0003"/><rect x="100.42" y="90.74" width="4.84" height="4.84" fill="#1b0003"/><rect x="95.58" y="134.28" width="4.84" height="4.84" fill="#1b0003"/><rect x="95.58" y="129.44" width="4.84" height="4.84" fill="#1b0003"/><rect x="95.58" y="124.61" width="4.84" height="4.84" fill="#6a87af"/><rect x="95.58" y="119.77" width="4.84" height="4.84" fill="#6a87af"/><rect x="95.58" y="114.93" width="4.84" height="4.84" fill="#a3c6e2"/><rect x="95.58" y="110.09" width="4.84" height="4.84" fill="#a3c6e2"/><rect x="95.58" y="105.25" width="4.84" height="4.84" fill="#a3c6e2"/><rect x="95.58" y="100.42" width="4.84" height="4.84" fill="#a3c6e2"/><rect x="95.58" y="95.58" width="4.84" height="4.84" fill="#6a87af"/><rect x="95.58" y="90.74" width="4.84" height="4.84" fill="#6a87af"/><rect x="95.58" y="85.9" width="4.84" height="4.84" fill="#1b0003"/><rect x="95.58" y="81.07" width="4.84" height="4.84" fill="#1b0003"/><rect x="90.74" y="139.12" width="4.84" height="4.84" fill="#1b0003"/><rect x="90.74" y="134.28" width="4.84" height="4.84" fill="#6a87af"/><rect x="90.74" y="129.44" width="4.84" height="4.84" fill="#6a87af"/><rect x="90.74" y="124.61" width="4.84" height="4.84" fill="#a3c6e2"/><rect x="90.74" y="119.77" width="4.84" height="4.84" fill="#a3c6e2"/><rect x="90.74" y="114.93" width="4.84" height="4.84" fill="#a3c6e2"/><rect x="90.74" y="110.09" width="4.84" height="4.84" fill="#a3c6e2"/><rect x="90.74" y="105.25" width="4.84" height="4.84" fill="#a3c6e2"/><rect x="90.74" y="100.42" width="4.84" height="4.84" fill="#a3c6e2"/><rect x="90.74" y="95.58" width="4.84" height="4.84" fill="#a3c6e2"/><rect x="90.74" y="90.74" width="4.84" height="4.84" fill="#a3c6e2"/><rect x="90.74" y="85.9" width="4.84" height="4.84" fill="#6a87af"/><rect x="90.74" y="81.07" width="4.84" height="4.84" fill="#6a87af"/><rect x="90.74" y="76.23" width="4.84" height="4.84" fill="#1b0003"/><rect x="85.9" y="143.96" width="4.84" height="4.84" fill="#1b0003"/><rect x="85.9" y="139.12" width="4.84" height="4.84" fill="#6a87af"/><rect x="85.9" y="134.28" width="4.84" height="4.84" fill="#a3c6e2"/><rect x="85.9" y="129.44" width="4.84" height="4.84" fill="#a3c6e2"/><rect x="85.9" y="124.61" width="4.84" height="4.84" fill="#a3c6e2"/><rect x="85.9" y="119.77" width="4.84" height="4.84" fill="#a3c6e2"/><rect x="85.9" y="114.93" width="4.84" height="4.84" fill="#a3c6e2"/><rect x="85.9" y="110.09" width="4.84" height="4.84" fill="#a3c6e2"/><rect x="85.9" y="105.25" width="4.84" height="4.84" fill="#a3c6e2"/><rect x="85.9" y="100.42" width="4.84" height="4.84" fill="#a3c6e2"/><rect x="85.9" y="95.58" width="4.84" height="4.84" fill="#fff"/><rect x="85.9" y="90.74" width="4.84" height="4.84" fill="#fff"/><rect x="85.9" y="85.9" width="4.84" height="4.84" fill="#fff"/><rect x="85.9" y="81.07" width="4.84" height="4.84" fill="#a3c6e2"/><rect x="85.9" y="76.23" width="4.84" height="4.84" fill="#a3c6e2"/><rect x="85.9" y="71.39" width="4.84" height="4.84" fill="#1b0003"/><rect x="81.07" y="143.96" width="4.84" height="4.84" fill="#1b0003"/><rect x="81.07" y="139.12" width="4.84" height="4.84" fill="#6a87af"/><rect x="81.07" y="134.28" width="4.84" height="4.84" fill="#a3c6e2"/><rect x="81.07" y="129.44" width="4.84" height="4.84" fill="#a3c6e2"/><rect x="81.07" y="124.61" width="4.84" height="4.84" fill="#a3c6e2"/><rect x="81.07" y="119.77" width="4.84" height="4.84" fill="#a3c6e2"/><rect x="81.07" y="114.93" width="4.84" height="4.84" fill="#a3c6e2"/><rect x="81.07" y="110.09" width="4.84" height="4.84" fill="#bedbed"/><rect x="81.07" y="105.25" width="4.84" height="4.84" fill="#a3c6e2"/><rect x="81.07" y="100.42" width="4.84" height="4.84" fill="#a3c6e2"/><rect x="81.07" y="95.58" width="4.84" height="4.84" fill="#a3c6e2"/><rect x="81.07" y="90.74" width="4.84" height="4.84" fill="#a3c6e2"/><rect x="81.07" y="85.9" width="4.84" height="4.84" fill="#fff"/><rect x="81.07" y="81.07" width="4.84" height="4.84" fill="#fff"/><rect x="81.07" y="76.23" width="4.84" height="4.84" fill="#a3c6e2"/><rect x="81.07" y="71.39" width="4.84" height="4.84" fill="#1b0003"/><rect x="76.23" y="148.79" width="4.84" height="4.84" fill="#1b0003"/><rect x="76.23" y="143.96" width="4.84" height="4.84" fill="#6a87af"/><rect x="76.23" y="139.12" width="4.84" height="4.84" fill="#a3c6e2"/><rect x="76.23" y="134.28" width="4.84" height="4.84" fill="#a3c6e2"/><rect x="76.23" y="129.44" width="4.84" height="4.84" fill="#a3c6e2"/><rect x="76.23" y="124.61" width="4.84" height="4.84" fill="#a3c6e2"/><rect x="76.23" y="119.77" width="4.84" height="4.84" fill="#a3c6e2"/><rect x="76.23" y="114.93" width="4.84" height="4.84" fill="#bedbed"/><rect x="76.23" y="110.09" width="4.84" height="4.84" fill="#a3c6e2"/><rect x="76.23" y="105.25" width="4.84" height="4.84" fill="#bedbed"/><rect x="76.23" y="100.42" width="4.84" height="4.84" fill="#a3c6e2"/><rect x="76.23" y="95.58" width="4.84" height="4.84" fill="#bedbed"/><rect x="76.23" y="90.74" width="4.84" height="4.84" fill="#a3c6e2"/><rect x="76.23" y="85.9" width="4.84" height="4.84" fill="#a3c6e2"/><rect x="76.23" y="81.07" width="4.84" height="4.84" fill="#fff"/><rect x="76.23" y="76.23" width="4.84" height="4.84" fill="#fff"/><rect x="76.23" y="71.39" width="4.84" height="4.84" fill="#a3c6e2"/><rect x="76.23" y="66.55" width="4.84" height="4.84" fill="#1b0003"/><rect x="71.39" y="148.79" width="4.84" height="4.84" fill="#1b0003"/><rect x="71.39" y="143.96" width="4.84" height="4.84" fill="#6a87af"/><rect x="71.39" y="139.12" width="4.84" height="4.84" fill="#a3c6e2"/><rect x="71.39" y="134.28" width="4.84" height="4.84" fill="#a3c6e2"/><rect x="71.39" y="129.44" width="4.84" height="4.84" fill="#a3c6e2"/><rect x="71.39" y="124.61" width="4.84" height="4.84" fill="#a3c6e2"/><rect x="71.39" y="119.77" width="4.84" height="4.84" fill="#bedbed"/><rect x="71.39" y="114.93" width="4.84" height="4.84" fill="#a3c6e2"/><rect x="71.39" y="110.09" width="4.84" height="4.84" fill="#bedbed"/><rect x="71.39" y="105.25" width="4.84" height="4.84" fill="#a3c6e2"/><rect x="71.39" y="100.42" width="4.84" height="4.84" fill="#bedbed"/><rect x="71.39" y="95.58" width="4.84" height="4.84" fill="#bedbed"/><rect x="71.39" y="90.74" width="4.84" height="4.84" fill="#a3c6e2"/><rect x="71.39" y="85.9" width="4.84" height="4.84" fill="#a3c6e2"/><rect x="71.39" y="81.07" width="4.84" height="4.84" fill="#a3c6e2"/><rect x="71.39" y="76.23" width="4.84" height="4.84" fill="#fff"/><rect x="71.39" y="71.39" width="4.84" height="4.84" fill="#a3c6e2"/><rect x="71.39" y="66.55" width="4.84" height="4.84" fill="#1b0003"/><rect x="71.39" y="23.01" width="4.84" height="4.84" fill="#1b0003"/><rect x="71.39" y="18.18" width="4.84" height="4.84" fill="#1b0003"/><rect x="66.55" y="148.79" width="4.84" height="4.84" fill="#1b0003"/><rect x="66.55" y="143.96" width="4.84" height="4.84" fill="#6a87af"/><rect x="66.55" y="139.12" width="4.84" height="4.84" fill="#a3c6e2"/><rect x="66.55" y="134.28" width="4.84" height="4.84" fill="#a3c6e2"/><rect x="66.55" y="129.44" width="4.84" height="4.84" fill="#a3c6e2"/><rect x="66.55" y="124.61" width="4.84" height="4.84" fill="#bedbed"/><rect x="66.55" y="119.77" width="4.84" height="4.84" fill="#a3c6e2"/><rect x="66.55" y="114.93" width="4.84" height="4.84" fill="#bedbed"/><rect x="66.55" y="110.09" width="4.84" height="4.84" fill="#a3c6e2"/><rect x="66.55" y="105.25" width="4.84" height="4.84" fill="#bedbed"/><rect x="66.55" y="100.42" width="4.84" height="4.84" fill="#bedbed"/><rect x="66.55" y="95.58" width="4.84" height="4.84" fill="#bedbed"/><rect x="66.55" y="90.74" width="4.84" height="4.84" fill="#bedbed"/><rect x="66.55" y="85.9" width="4.84" height="4.84" fill="#bedbed"/><rect x="66.55" y="81.07" width="4.84" height="4.84" fill="#a3c6e2"/><rect x="66.55" y="76.23" width="4.84" height="4.84" fill="#a3c6e2"/><rect x="66.55" y="71.39" width="4.84" height="4.84" fill="#bedbed"/><rect x="66.55" y="66.55" width="4.84" height="4.84" fill="#223c5b"/><rect x="66.55" y="61.72" width="4.84" height="4.84" fill="#1b0003"/><rect x="66.55" y="56.88" width="4.84" height="4.84" fill="#1b0003"/><rect x="66.55" y="52.04" width="4.84" height="4.84" fill="#1b0003"/><rect x="66.55" y="47.2" width="4.84" height="4.84" fill="#1b0003"/><rect x="66.55" y="42.36" width="4.84" height="4.84" fill="#1b0003"/><rect x="66.55" y="37.53" width="4.84" height="4.84" fill="#1b0003"/><rect x="66.55" y="32.69" width="4.84" height="4.84" fill="#1b0003"/><rect x="66.55" y="27.85" width="4.84" height="4.84" fill="#1b0003"/><rect x="66.55" y="23.01" width="4.84" height="4.84" fill="#6a87af"/><rect x="66.55" y="18.18" width="4.84" height="4.84" fill="#1b0003"/><rect x="66.55" y="13.34" width="4.84" height="4.84" fill="#1b0003"/><rect x="61.72" y="148.79" width="4.84" height="4.84" fill="#1b0003"/><rect x="61.72" y="143.96" width="4.84" height="4.84" fill="#6a87af"/><rect x="61.72" y="139.12" width="4.84" height="4.84" fill="#a3c6e2"/><rect x="61.72" y="134.28" width="4.84" height="4.84" fill="#a3c6e2"/><rect x="61.72" y="129.44" width="4.84" height="4.84" fill="#bedbed"/><rect x="61.72" y="124.61" width="4.84" height="4.84" fill="#a3c6e2"/><rect x="61.72" y="119.77" width="4.84" height="4.84" fill="#bedbed"/><rect x="61.72" y="114.93" width="4.84" height="4.84" fill="#a3c6e2"/><rect x="61.72" y="110.09" width="4.84" height="4.84" fill="#bedbed"/><rect x="61.72" y="105.25" width="4.84" height="4.84" fill="#bedbed"/><rect x="61.72" y="100.42" width="4.84" height="4.84" fill="#bedbed"/><rect x="61.72" y="95.58" width="4.84" height="4.84" fill="#bedbed"/><rect x="61.72" y="90.74" width="4.84" height="4.84" fill="#bedbed"/><rect x="61.72" y="85.9" width="4.84" height="4.84" fill="#bedbed"/><rect x="61.72" y="81.07" width="4.84" height="4.84" fill="#a3c6e2"/><rect x="61.72" y="76.23" width="4.84" height="4.84" fill="#a3c6e2"/><rect x="61.72" y="71.39" width="4.84" height="4.84" fill="#bedbed"/><rect x="61.72" y="66.55" width="4.84" height="4.84" fill="#bedbed"/><rect x="61.72" y="61.72" width="4.84" height="4.84" fill="#bedbed"/><rect x="61.72" y="56.88" width="4.84" height="4.84" fill="#bedbed"/><rect x="61.72" y="52.04" width="4.84" height="4.84" fill="#bedbed"/><rect x="61.72" y="47.2" width="4.84" height="4.84" fill="#bedbed"/><rect x="61.72" y="42.36" width="4.84" height="4.84" fill="#a3c6e2"/><rect x="61.72" y="37.53" width="4.84" height="4.84" fill="#a3c6e2"/><rect x="61.72" y="32.69" width="4.84" height="4.84" fill="#6a87af"/><rect x="61.72" y="27.85" width="4.84" height="4.84" fill="#6a87af"/><rect x="61.72" y="23.01" width="4.84" height="4.84" fill="#7f1e14"/><rect x="61.72" y="18.18" width="4.84" height="4.84" fill="#1b0003"/><rect x="61.72" y="13.34" width="4.84" height="4.84" fill="#e86f3f"/><rect x="61.72" y="8.5" width="4.84" height="4.84" fill="#1b0003"/><rect x="56.88" y="148.79" width="4.84" height="4.84" fill="#1b0003"/><rect x="56.88" y="143.96" width="4.84" height="4.84" fill="#6a87af"/><rect x="56.88" y="139.12" width="4.84" height="4.84" fill="#a3c6e2"/><rect x="56.88" y="134.28" width="4.84" height="4.84" fill="#a3c6e2"/><rect x="56.88" y="129.44" width="4.84" height="4.84" fill="#a3c6e2"/><rect x="56.88" y="124.61" width="4.84" height="4.84" fill="#bedbed"/><rect x="56.88" y="119.77" width="4.84" height="4.84" fill="#bedbed"/><rect x="56.88" y="114.93" width="4.84" height="4.84" fill="#bedbed"/><rect x="56.88" y="110.09" width="4.84" height="4.84" fill="#bedbed"/><rect x="56.88" y="105.25" width="4.84" height="4.84" fill="#bedbed"/><rect x="56.88" y="100.42" width="4.84" height="4.84" fill="#bedbed"/><rect x="56.88" y="95.58" width="4.84" height="4.84" fill="#bedbed"/><rect x="56.88" y="90.74" width="4.84" height="4.84" fill="#bedbed"/><rect x="56.88" y="85.9" width="4.84" height="4.84" fill="#bedbed"/><rect x="56.88" y="81.07" width="4.84" height="4.84" fill="#bedbed"/><rect x="56.88" y="76.23" width="4.84" height="4.84" fill="#a3c6e2"/><rect x="56.88" y="71.39" width="4.84" height="4.84" fill="#fff"/><rect x="56.88" y="66.55" width="4.84" height="4.84" fill="#fff"/><rect x="56.88" y="61.72" width="4.84" height="4.84" fill="#fff"/><rect x="56.88" y="56.88" width="4.84" height="4.84" fill="#fff"/><rect x="56.88" y="52.04" width="4.84" height="4.84" fill="#fff"/><rect x="56.88" y="47.2" width="4.84" height="4.84" fill="#fff"/><rect x="56.88" y="42.36" width="4.84" height="4.84" fill="#fff"/><rect x="56.88" y="37.53" width="4.84" height="4.84" fill="#fff"/><rect x="56.88" y="32.69" width="4.84" height="4.84" fill="#fff"/><rect x="56.88" y="27.85" width="4.84" height="4.84" fill="#fff"/><rect x="56.88" y="23.01" width="4.84" height="4.84" fill="#7f1e14"/><rect x="56.88" y="18.18" width="4.84" height="4.84" fill="#1b0003"/><rect x="56.88" y="13.34" width="4.84" height="4.84" fill="#f2904e"/><rect x="56.88" y="8.5" width="4.84" height="4.84" fill="#1b0003"/><rect x="52.04" y="148.79" width="4.84" height="4.84" fill="#1b0003"/><rect x="52.04" y="143.96" width="4.84" height="4.84" fill="#6a87af"/><rect x="52.04" y="139.12" width="4.84" height="4.84" fill="#a3c6e2"/><rect x="52.04" y="134.28" width="4.84" height="4.84" fill="#a3c6e2"/><rect x="52.04" y="129.44" width="4.84" height="4.84" fill="#bedbed"/><rect x="52.04" y="124.61" width="4.84" height="4.84" fill="#bedbed"/><rect x="52.04" y="119.77" width="4.84" height="4.84" fill="#bedbed"/><rect x="52.04" y="114.93" width="4.84" height="4.84" fill="#bedbed"/><rect x="52.04" y="110.09" width="4.84" height="4.84" fill="#bedbed"/><rect x="52.04" y="105.25" width="4.84" height="4.84" fill="#bedbed"/><rect x="52.04" y="100.42" width="4.84" height="4.84" fill="#bedbed"/><rect x="52.04" y="95.58" width="4.84" height="4.84" fill="#a3c6e2"/><rect x="52.04" y="90.74" width="4.84" height="4.84" fill="#a3c6e2"/><rect x="52.04" y="85.9" width="4.84" height="4.84" fill="#a3c6e2"/><rect x="52.04" y="81.07" width="4.84" height="4.84" fill="#e3f7ff"/><rect x="52.04" y="76.23" width="4.84" height="4.84" fill="#e3f7ff"/><rect x="52.04" y="71.39" width="4.84" height="4.84" fill="#a3c6e2"/><rect x="52.04" y="66.55" width="4.84" height="4.84" fill="#a3c6e2"/><rect x="52.04" y="61.72" width="4.84" height="4.84" fill="#a3c6e2"/><rect x="52.04" y="56.88" width="4.84" height="4.84" fill="#a3c6e2"/><rect x="52.04" y="52.04" width="4.84" height="4.84" fill="#a3c6e2"/><rect x="52.04" y="47.2" width="4.84" height="4.84" fill="#a3c6e2"/><rect x="52.04" y="42.36" width="4.84" height="4.84" fill="#a3c6e2"/><rect x="52.04" y="37.53" width="4.84" height="4.84" fill="#a3c6e2"/><rect x="52.04" y="32.69" width="4.84" height="4.84" fill="#a3c6e2"/><rect x="52.04" y="27.85" width="4.84" height="4.84" fill="#a3c6e2"/><rect x="52.04" y="23.01" width="4.84" height="4.84" fill="#7f1e14"/><rect x="52.04" y="18.18" width="4.84" height="4.84" fill="#1b0003"/><rect x="52.04" y="13.34" width="4.84" height="4.84" fill="#f2904e"/><rect x="52.04" y="8.5" width="4.84" height="4.84" fill="#1b0003"/><rect x="47.2" y="148.79" width="4.84" height="4.84" fill="#1b0003"/><rect x="47.2" y="143.96" width="4.84" height="4.84" fill="#6a87af"/><rect x="47.2" y="139.12" width="4.84" height="4.84" fill="#a3c6e2"/><rect x="47.2" y="134.28" width="4.84" height="4.84" fill="#a3c6e2"/><rect x="47.2" y="129.44" width="4.84" height="4.84" fill="#bedbed"/><rect x="47.2" y="124.61" width="4.84" height="4.84" fill="#bedbed"/><rect x="47.2" y="119.77" width="4.84" height="4.84" fill="#bedbed"/><rect x="47.2" y="114.93" width="4.84" height="4.84" fill="#bedbed"/><rect x="47.2" y="110.09" width="4.84" height="4.84" fill="#bedbed"/><rect x="47.2" y="105.25" width="4.84" height="4.84" fill="#bedbed"/><rect x="47.2" y="100.42" width="4.84" height="4.84" fill="#a3c6e2"/><rect x="47.2" y="95.58" width="4.84" height="4.84" fill="#a3c6e2"/><rect x="47.2" y="90.74" width="4.84" height="4.84" fill="#a3c6e2"/><rect x="47.2" y="85.9" width="4.84" height="4.84" fill="#fff"/><rect x="47.2" y="81.07" width="4.84" height="4.84" fill="#fff"/><rect x="47.2" y="76.23" width="4.84" height="4.84" fill="#e3f7ff"/><rect x="47.2" y="71.39" width="4.84" height="4.84" fill="#a3c6e2"/><rect x="47.2" y="66.55" width="4.84" height="4.84" fill="#223c5b"/><rect x="47.2" y="61.72" width="4.84" height="4.84" fill="#1b0003"/><rect x="47.2" y="56.88" width="4.84" height="4.84" fill="#1b0003"/><rect x="47.2" y="52.04" width="4.84" height="4.84" fill="#1b0003"/><rect x="47.2" y="47.2" width="4.84" height="4.84" fill="#1b0003"/><rect x="47.2" y="42.36" width="4.84" height="4.84" fill="#1b0003"/><rect x="47.2" y="37.53" width="4.84" height="4.84" fill="#1b0003"/><rect x="47.2" y="32.69" width="4.84" height="4.84" fill="#1b0003"/><rect x="47.2" y="27.85" width="4.84" height="4.84" fill="#1b0003"/><rect x="47.2" y="23.01" width="4.84" height="4.84" fill="#bedbed"/><rect x="47.2" y="18.18" width="4.84" height="4.84" fill="#1b0003"/><rect x="47.2" y="13.34" width="4.84" height="4.84" fill="#1b0003"/><rect x="42.36" y="148.79" width="4.84" height="4.84" fill="#1b0003"/><rect x="42.36" y="143.96" width="4.84" height="4.84" fill="#6a87af"/><rect x="42.36" y="139.12" width="4.84" height="4.84" fill="#a3c6e2"/><rect x="42.36" y="134.28" width="4.84" height="4.84" fill="#a3c6e2"/><rect x="42.36" y="129.44" width="4.84" height="4.84" fill="#bedbed"/><rect x="42.36" y="124.61" width="4.84" height="4.84" fill="#bedbed"/><rect x="42.36" y="119.77" width="4.84" height="4.84" fill="#bedbed"/><rect x="42.36" y="114.93" width="4.84" height="4.84" fill="#bedbed"/><rect x="42.36" y="110.09" width="4.84" height="4.84" fill="#bedbed"/><rect x="42.36" y="105.25" width="4.84" height="4.84" fill="#a3c6e2"/><rect x="42.36" y="100.42" width="4.84" height="4.84" fill="#a3c6e2"/><rect x="42.36" y="95.58" width="4.84" height="4.84" fill="#fff"/><rect x="42.36" y="90.74" width="4.84" height="4.84" fill="#fff"/><rect x="42.36" y="85.9" width="4.84" height="4.84" fill="#fff"/><rect x="42.36" y="81.07" width="4.84" height="4.84" fill="#fff"/><rect x="42.36" y="76.23" width="4.84" height="4.84" fill="#fff"/><rect x="42.36" y="71.39" width="4.84" height="4.84" fill="#a3c6e2"/><rect x="42.36" y="66.55" width="4.84" height="4.84" fill="#1b0003"/><rect x="42.36" y="23.01" width="4.84" height="4.84" fill="#1b0003"/><rect x="42.36" y="18.18" width="4.84" height="4.84" fill="#1b0003"/><rect x="37.53" y="148.79" width="4.84" height="4.84" fill="#1b0003"/><rect x="37.53" y="143.96" width="4.84" height="4.84" fill="#6a87af"/><rect x="37.53" y="139.12" width="4.84" height="4.84" fill="#a3c6e2"/><rect x="37.53" y="134.28" width="4.84" height="4.84" fill="#a3c6e2"/><rect x="37.53" y="129.44" width="4.84" height="4.84" fill="#a3c6e2"/><rect x="37.53" y="124.61" width="4.84" height="4.84" fill="#bedbed"/><rect x="37.53" y="119.77" width="4.84" height="4.84" fill="#bedbed"/><rect x="37.53" y="114.93" width="4.84" height="4.84" fill="#bedbed"/><rect x="37.53" y="110.09" width="4.84" height="4.84" fill="#a3c6e2"/><rect x="37.53" y="105.25" width="4.84" height="4.84" fill="#a3c6e2"/><rect x="37.53" y="100.42" width="4.84" height="4.84" fill="#a3c6e2"/><rect x="37.53" y="95.58" width="4.84" height="4.84" fill="#fff"/><rect x="37.53" y="90.74" width="4.84" height="4.84" fill="#fff"/><rect x="37.53" y="85.9" width="4.84" height="4.84" fill="#fff"/><rect x="37.53" y="81.07" width="4.84" height="4.84" fill="#fff"/><rect x="37.53" y="76.23" width="4.84" height="4.84" fill="#a3c6e2"/><rect x="37.53" y="71.39" width="4.84" height="4.84" fill="#6a87af"/><rect x="37.53" y="66.55" width="4.84" height="4.84" fill="#1b0003"/><rect x="32.69" y="148.79" width="4.84" height="4.84" fill="#1b0003"/><rect x="32.69" y="143.96" width="4.84" height="4.84" fill="#6a87af"/><rect x="32.69" y="139.12" width="4.84" height="4.84" fill="#6a87af"/><rect x="32.69" y="134.28" width="4.84" height="4.84" fill="#a3c6e2"/><rect x="32.69" y="129.44" width="4.84" height="4.84" fill="#a3c6e2"/><rect x="32.69" y="124.61" width="4.84" height="4.84" fill="#a3c6e2"/><rect x="32.69" y="119.77" width="4.84" height="4.84" fill="#a3c6e2"/><rect x="32.69" y="114.93" width="4.84" height="4.84" fill="#bedbed"/><rect x="32.69" y="110.09" width="4.84" height="4.84" fill="#a3c6e2"/><rect x="32.69" y="105.25" width="4.84" height="4.84" fill="#e3f7ff"/><rect x="32.69" y="100.42" width="4.84" height="4.84" fill="#fff"/><rect x="32.69" y="95.58" width="4.84" height="4.84" fill="#fff"/><rect x="32.69" y="90.74" width="4.84" height="4.84" fill="#fff"/><rect x="32.69" y="85.9" width="4.84" height="4.84" fill="#fff"/><rect x="32.69" y="81.07" width="4.84" height="4.84" fill="#a3c6e2"/><rect x="32.69" y="76.23" width="4.84" height="4.84" fill="#a3c6e2"/><rect x="32.69" y="71.39" width="4.84" height="4.84" fill="#1b0003"/><rect x="27.85" y="143.96" width="4.84" height="4.84" fill="#1b0003"/><rect x="27.85" y="139.12" width="4.84" height="4.84" fill="#6a87af"/><rect x="27.85" y="134.28" width="4.84" height="4.84" fill="#a3c6e2"/><rect x="27.85" y="129.44" width="4.84" height="4.84" fill="#a3c6e2"/><rect x="27.85" y="124.61" width="4.84" height="4.84" fill="#a3c6e2"/><rect x="27.85" y="119.77" width="4.84" height="4.84" fill="#a3c6e2"/><rect x="27.85" y="114.93" width="4.84" height="4.84" fill="#a3c6e2"/><rect x="27.85" y="110.09" width="4.84" height="4.84" fill="#a3c6e2"/><rect x="27.85" y="105.25" width="4.84" height="4.84" fill="#e3f7ff"/><rect x="27.85" y="100.42" width="4.84" height="4.84" fill="#e3f7ff"/><rect x="27.85" y="95.58" width="4.84" height="4.84" fill="#fff"/><rect x="27.85" y="90.74" width="4.84" height="4.84" fill="#fff"/><rect x="27.85" y="85.9" width="4.84" height="4.84" fill="#a3c6e2"/><rect x="27.85" y="81.07" width="4.84" height="4.84" fill="#a3c6e2"/><rect x="27.85" y="76.23" width="4.84" height="4.84" fill="#6a87af"/><rect x="27.85" y="71.39" width="4.84" height="4.84" fill="#1b0003"/><rect x="23.01" y="139.12" width="4.84" height="4.84" fill="#1b0003"/><rect x="23.01" y="134.28" width="4.84" height="4.84" fill="#6a87af"/><rect x="23.01" y="129.44" width="4.84" height="4.84" fill="#6a87af"/><rect x="23.01" y="124.61" width="4.84" height="4.84" fill="#a3c6e2"/><rect x="23.01" y="119.77" width="4.84" height="4.84" fill="#a3c6e2"/><rect x="23.01" y="114.93" width="4.84" height="4.84" fill="#a3c6e2"/><rect x="23.01" y="110.09" width="4.84" height="4.84" fill="#a3c6e2"/><rect x="23.01" y="105.25" width="4.84" height="4.84" fill="#a3c6e2"/><rect x="23.01" y="100.42" width="4.84" height="4.84" fill="#a3c6e2"/><rect x="23.01" y="95.58" width="4.84" height="4.84" fill="#e3f7ff"/><rect x="23.01" y="90.74" width="4.84" height="4.84" fill="#e3f7ff"/><rect x="23.01" y="85.9" width="4.84" height="4.84" fill="#a3c6e2"/><rect x="23.01" y="81.07" width="4.84" height="4.84" fill="#6a87af"/><rect x="23.01" y="76.23" width="4.84" height="4.84" fill="#1b0003"/><rect x="18.18" y="134.28" width="4.84" height="4.84" fill="#1b0003"/><rect x="18.18" y="129.44" width="4.84" height="4.84" fill="#1b0003"/><rect x="18.18" y="124.61" width="4.84" height="4.84" fill="#6a87af"/><rect x="18.18" y="119.77" width="4.84" height="4.84" fill="#6a87af"/><rect x="18.18" y="114.93" width="4.84" height="4.84" fill="#a3c6e2"/><rect x="18.18" y="110.09" width="4.84" height="4.84" fill="#a3c6e2"/><rect x="18.18" y="105.25" width="4.84" height="4.84" fill="#a3c6e2"/><rect x="18.18" y="100.42" width="4.84" height="4.84" fill="#a3c6e2"/><rect x="18.18" y="95.58" width="4.84" height="4.84" fill="#a3c6e2"/><rect x="18.18" y="90.74" width="4.84" height="4.84" fill="#6a87af"/><rect x="18.18" y="85.9" width="4.84" height="4.84" fill="#1b0003"/><rect x="18.18" y="81.07" width="4.84" height="4.84" fill="#1b0003"/><rect x="13.34" y="124.61" width="4.84" height="4.84" fill="#1b0003"/><rect x="13.34" y="119.77" width="4.84" height="4.84" fill="#1b0003"/><rect x="13.34" y="114.93" width="4.84" height="4.84" fill="#6a87af"/><rect x="13.34" y="110.09" width="4.84" height="4.84" fill="#6a87af"/><rect x="13.34" y="105.25" width="4.84" height="4.84" fill="#6a87af"/><rect x="13.34" y="100.42" width="4.84" height="4.84" fill="#6a87af"/><rect x="13.34" y="95.58" width="4.84" height="4.84" fill="#1b0003"/><rect x="13.34" y="90.74" width="4.84" height="4.84" fill="#1b0003"/><rect x="8.5" y="114.93" width="4.84" height="4.84" fill="#1b0003"/><rect x="8.5" y="110.09" width="4.84" height="4.84" fill="#1b0003"/><rect x="8.5" y="105.25" width="4.84" height="4.84" fill="#1b0003"/><rect x="8.5" y="100.42" width="4.84" height="4.84" fill="#1b0003"/></g></g></g></g></svg>