<svg xmlns="http://www.w3.org/2000/svg" width="156.46" height="122.99" viewBox="0 0 156.46 122.99"><g id="Layer_2" data-name="Layer 2"><g id="items"><g id="Gold_Bar" data-name="Gold Bar"><path d="M106.26,123H5.58v-5.58H0v-56H5.58V55.79h5.58V50.21h5.58V44.63h5.57V39.05h5.58V33.47h5.58V27.89h5.58V22.31h5.58V16.74h5.58V11.16h5.58V5.58h5.57V0h89.53V5.58h5.57V72.79h-5.57v5.57h-5.58v5.58h-5.58v5.58h-5.58V95.1h-5.58v5.58H123v5.58h-5.58v5.58h-5.57v5.57h-5.58ZM22.58,106H89.26v-5.58h5.58V94.84h5.57V89.26H106V83.68h5.58V78.1h5.58V72.52h5.58V66.94h5.58V61.36h5.58V55.79h5.57V22.58h-5.57V17H78.36v5.58H72.79v5.58H67.21v5.58H61.63v5.57H56.05v5.58H50.47v5.58H44.89v5.58H39.31v5.58H33.74v5.58H28.16v5.58H22.58v5.57H17v22h5.58Z" fill="#fff"/><g id="Golden_Bar" data-name="Golden Bar"><rect x="142.39" y="58.71" width="5.58" height="5.58" fill="#1b0003"/><rect x="142.39" y="53.13" width="5.58" height="5.58" fill="#1b0003"/><rect x="142.39" y="47.55" width="5.58" height="5.58" fill="#1b0003"/><rect x="142.39" y="41.97" width="5.58" height="5.58" fill="#1b0003"/><rect x="142.39" y="36.39" width="5.58" height="5.58" fill="#1b0003"/><rect x="142.39" y="30.81" width="5.58" height="5.58" fill="#1b0003"/><rect x="142.39" y="25.24" width="5.58" height="5.58" fill="#1b0003"/><rect x="142.39" y="19.66" width="5.58" height="5.58" fill="#1b0003"/><rect x="142.39" y="14.08" width="5.58" height="5.58" fill="#1b0003"/><rect x="136.81" y="64.29" width="5.58" height="5.58" fill="#1b0003"/><rect x="136.81" y="58.71" width="5.58" height="5.58" fill="#d84b13"/><rect x="136.81" y="53.13" width="5.58" height="5.58" fill="#db6d12"/><rect x="136.81" y="47.55" width="5.58" height="5.58" fill="#db6d12"/><rect x="136.81" y="41.97" width="5.58" height="5.58" fill="#db6d12"/><rect x="136.81" y="36.39" width="5.58" height="5.58" fill="#db6d12"/><rect x="136.81" y="30.81" width="5.58" height="5.58" fill="#db6d12"/><rect x="136.81" y="25.24" width="5.58" height="5.58" fill="#db6d12"/><rect x="136.81" y="19.66" width="5.58" height="5.58" fill="#d84b13"/><rect x="136.81" y="14.08" width="5.58" height="5.58" fill="#f7c45e"/><rect x="136.81" y="8.5" width="5.58" height="5.58" fill="#1b0003"/><rect x="131.23" y="69.86" width="5.58" height="5.58" fill="#1b0003"/><rect x="131.23" y="64.29" width="5.58" height="5.58" fill="#d84b13"/><rect x="131.23" y="58.71" width="5.58" height="5.58" fill="#db6d12"/><rect x="131.23" y="53.13" width="5.58" height="5.58" fill="#db6d12"/><rect x="131.23" y="47.55" width="5.58" height="5.58" fill="#d84b13"/><rect x="131.23" y="41.97" width="5.58" height="5.58" fill="#d84b13"/><rect x="131.23" y="36.39" width="5.58" height="5.58" fill="#d84b13"/><rect x="131.23" y="30.81" width="5.58" height="5.58" fill="#d84b13"/><rect x="131.23" y="25.24" width="5.58" height="5.58" fill="#d84b13"/><rect x="131.23" y="19.66" width="5.58" height="5.58" fill="#f7c45e"/><rect x="131.23" y="14.08" width="5.58" height="5.58" fill="#f9f2d4"/><rect x="131.23" y="8.5" width="5.58" height="5.58" fill="#1b0003"/><rect x="125.65" y="75.44" width="5.58" height="5.58" fill="#1b0003"/><rect x="125.65" y="69.86" width="5.58" height="5.58" fill="#d84b13"/><rect x="125.65" y="64.29" width="5.58" height="5.58" fill="#db6d12"/><rect x="125.65" y="58.71" width="5.58" height="5.58" fill="#db6d12"/><rect x="125.65" y="53.13" width="5.58" height="5.58" fill="#d84b13"/><rect x="125.65" y="47.55" width="5.58" height="5.58" fill="#d84b13"/><rect x="125.65" y="41.97" width="5.58" height="5.58" fill="#d84b13"/><rect x="125.65" y="36.39" width="5.58" height="5.58" fill="#d84b13"/><rect x="125.65" y="30.81" width="5.58" height="5.58" fill="#db6d12"/><rect x="125.65" y="25.24" width="5.58" height="5.58" fill="#f7c45e"/><rect x="125.65" y="19.66" width="5.58" height="5.58" fill="#f9f2d4"/><rect x="125.65" y="14.08" width="5.58" height="5.58" fill="#f9f2d4"/><rect x="125.65" y="8.5" width="5.58" height="5.58" fill="#1b0003"/><rect x="120.07" y="81.02" width="5.58" height="5.58" fill="#1b0003"/><rect x="120.07" y="75.44" width="5.58" height="5.58" fill="#d84b13"/><rect x="120.07" y="69.86" width="5.58" height="5.58" fill="#db6d12"/><rect x="120.07" y="64.29" width="5.58" height="5.58" fill="#db6d12"/><rect x="120.07" y="58.71" width="5.58" height="5.58" fill="#d84b13"/><rect x="120.07" y="53.13" width="5.58" height="5.58" fill="#d84b13"/><rect x="120.07" y="47.55" width="5.58" height="5.58" fill="#d84b13"/><rect x="120.07" y="41.97" width="5.58" height="5.58" fill="#d84b13"/><rect x="120.07" y="36.39" width="5.58" height="5.58" fill="#db6d12"/><rect x="120.07" y="30.81" width="5.58" height="5.58" fill="#f7c45e"/><rect x="120.07" y="25.24" width="5.58" height="5.58" fill="#f9f2d4"/><rect x="120.07" y="19.66" width="5.58" height="5.58" fill="#f9f2d4"/><rect x="120.07" y="14.08" width="5.58" height="5.58" fill="#f9f2d4"/><rect x="120.07" y="8.5" width="5.58" height="5.58" fill="#1b0003"/><rect x="114.49" y="86.6" width="5.58" height="5.58" fill="#1b0003"/><rect x="114.49" y="81.02" width="5.58" height="5.58" fill="#d84b13"/><rect x="114.49" y="75.44" width="5.58" height="5.58" fill="#db6d12"/><rect x="114.49" y="69.86" width="5.58" height="5.58" fill="#db6d12"/><rect x="114.49" y="64.29" width="5.58" height="5.58" fill="#d84b13"/><rect x="114.49" y="58.71" width="5.58" height="5.58" fill="#d84b13"/><rect x="114.49" y="53.13" width="5.58" height="5.58" fill="#d84b13"/><rect x="114.49" y="47.55" width="5.58" height="5.58" fill="#d84b13"/><rect x="114.49" y="41.97" width="5.58" height="5.58" fill="#db6d12"/><rect x="114.49" y="36.39" width="5.58" height="5.58" fill="#f7c45e"/><rect x="114.49" y="30.81" width="5.58" height="5.58" fill="#f9f2d4"/><rect x="114.49" y="25.24" width="5.58" height="5.58" fill="#f9f2d4"/><rect x="114.49" y="19.66" width="5.58" height="5.58" fill="#f9f2d4"/><rect x="114.49" y="14.08" width="5.58" height="5.58" fill="#f9f2d4"/><rect x="114.49" y="8.5" width="5.58" height="5.58" fill="#1b0003"/><rect x="108.91" y="92.18" width="5.58" height="5.58" fill="#1b0003"/><rect x="108.91" y="86.6" width="5.58" height="5.58" fill="#d84b13"/><rect x="108.91" y="81.02" width="5.58" height="5.58" fill="#db6d12"/><rect x="108.91" y="75.44" width="5.58" height="5.58" fill="#db6d12"/><rect x="108.91" y="69.86" width="5.58" height="5.58" fill="#d84b13"/><rect x="108.91" y="64.29" width="5.58" height="5.58" fill="#d84b13"/><rect x="108.91" y="58.71" width="5.58" height="5.58" fill="#d84b13"/><rect x="108.91" y="53.13" width="5.58" height="5.58" fill="#d84b13"/><rect x="108.91" y="47.55" width="5.58" height="5.58" fill="#db6d12"/><rect x="108.91" y="41.97" width="5.58" height="5.58" fill="#f7c45e"/><rect x="108.91" y="36.39" width="5.58" height="5.58" fill="#f9f2d4"/><rect x="108.91" y="30.81" width="5.58" height="5.58" fill="#f9f2d4"/><rect x="108.91" y="25.24" width="5.58" height="5.58" fill="#f9f2d4"/><rect x="108.91" y="19.66" width="5.58" height="5.58" fill="#f7c45e"/><rect x="108.91" y="14.08" width="5.58" height="5.58" fill="#f9f2d4"/><rect x="108.91" y="8.5" width="5.58" height="5.58" fill="#1b0003"/><rect x="103.34" y="97.76" width="5.58" height="5.58" fill="#1b0003"/><rect x="103.34" y="92.18" width="5.58" height="5.58" fill="#d84b13"/><rect x="103.34" y="86.6" width="5.58" height="5.58" fill="#db6d12"/><rect x="103.34" y="81.02" width="5.58" height="5.58" fill="#d84b13"/><rect x="103.34" y="75.44" width="5.58" height="5.58" fill="#d84b13"/><rect x="103.34" y="69.86" width="5.58" height="5.58" fill="#d84b13"/><rect x="103.34" y="64.29" width="5.58" height="5.58" fill="#d84b13"/><rect x="103.34" y="58.71" width="5.58" height="5.58" fill="#d84b13"/><rect x="103.34" y="53.13" width="5.58" height="5.58" fill="#f7c45e"/><rect x="103.34" y="47.55" width="5.58" height="5.58" fill="#f7c45e"/><rect x="103.34" y="41.97" width="5.58" height="5.58" fill="#f9f2d4"/><rect x="103.34" y="36.39" width="5.58" height="5.58" fill="#f9f2d4"/><rect x="103.34" y="30.81" width="5.58" height="5.58" fill="#f9f2d4"/><rect x="103.34" y="25.24" width="5.58" height="5.58" fill="#f9f2d4"/><rect x="103.34" y="19.66" width="5.58" height="5.58" fill="#f7c45e"/><rect x="103.34" y="14.08" width="5.58" height="5.58" fill="#f9f2d4"/><rect x="103.34" y="8.5" width="5.58" height="5.58" fill="#1b0003"/><rect x="97.76" y="103.34" width="5.58" height="5.58" fill="#1b0003"/><rect x="97.76" y="97.76" width="5.58" height="5.58" fill="#d84b13"/><rect x="97.76" y="92.18" width="5.58" height="5.58" fill="#db6d12"/><rect x="97.76" y="86.6" width="5.58" height="5.58" fill="#d84b13"/><rect x="97.76" y="81.02" width="5.58" height="5.58" fill="#d84b13"/><rect x="97.76" y="75.44" width="5.58" height="5.58" fill="#d84b13"/><rect x="97.76" y="69.86" width="5.58" height="5.58" fill="#d84b13"/><rect x="97.76" y="64.29" width="5.58" height="5.58" fill="#d84b13"/><rect x="97.76" y="58.71" width="5.58" height="5.58" fill="#f7c45e"/><rect x="97.76" y="53.13" width="5.58" height="5.58" fill="#f9f2d4"/><rect x="97.76" y="47.55" width="5.58" height="5.58" fill="#f9f2d4"/><rect x="97.76" y="41.97" width="5.58" height="5.58" fill="#f9f2d4"/><rect x="97.76" y="36.39" width="5.58" height="5.58" fill="#f9f2d4"/><rect x="97.76" y="30.81" width="5.58" height="5.58" fill="#f9f2d4"/><rect x="97.76" y="25.24" width="5.58" height="5.58" fill="#f9f2d4"/><rect x="97.76" y="19.66" width="5.58" height="5.58" fill="#f7c45e"/><rect x="97.76" y="14.08" width="5.58" height="5.58" fill="#f9f2d4"/><rect x="97.76" y="8.5" width="5.58" height="5.58" fill="#1b0003"/><rect x="92.18" y="108.91" width="5.58" height="5.58" fill="#1b0003"/><rect x="92.18" y="103.34" width="5.58" height="5.58" fill="#f7c45e"/><rect x="92.18" y="97.76" width="5.58" height="5.58" fill="#f7c45e"/><rect x="92.18" y="92.18" width="5.58" height="5.58" fill="#f7c45e"/><rect x="92.18" y="86.6" width="5.58" height="5.58" fill="#f7c45e"/><rect x="92.18" y="81.02" width="5.58" height="5.58" fill="#f7c45e"/><rect x="92.18" y="75.44" width="5.58" height="5.58" fill="#f7c45e"/><rect x="92.18" y="69.86" width="5.58" height="5.58" fill="#f7c45e"/><rect x="92.18" y="64.29" width="5.58" height="5.58" fill="#f7c45e"/><rect x="92.18" y="58.71" width="5.58" height="5.58" fill="#f9f2d4"/><rect x="92.18" y="53.13" width="5.58" height="5.58" fill="#f9f2d4"/><rect x="92.18" y="47.55" width="5.58" height="5.58" fill="#f9f2d4"/><rect x="92.18" y="41.97" width="5.58" height="5.58" fill="#f9f2d4"/><rect x="92.18" y="36.39" width="5.58" height="5.58" fill="#f9f2d4"/><rect x="92.18" y="30.81" width="5.58" height="5.58" fill="#f9f2d4"/><rect x="92.18" y="25.24" width="5.58" height="5.58" fill="#f9f2d4"/><rect x="92.18" y="19.66" width="5.58" height="5.58" fill="#f7c45e"/><rect x="92.18" y="14.08" width="5.58" height="5.58" fill="#f9f2d4"/><rect x="92.18" y="8.5" width="5.58" height="5.58" fill="#1b0003"/><rect x="86.6" y="108.91" width="5.58" height="5.58" fill="#1b0003"/><rect x="86.6" y="103.34" width="5.58" height="5.58" fill="#db6d12"/><rect x="86.6" y="97.76" width="5.58" height="5.58" fill="#db6d12"/><rect x="86.6" y="92.18" width="5.58" height="5.58" fill="#db6d12"/><rect x="86.6" y="86.6" width="5.58" height="5.58" fill="#db6d12"/><rect x="86.6" y="81.02" width="5.58" height="5.58" fill="#db6d12"/><rect x="86.6" y="75.44" width="5.58" height="5.58" fill="#f7c45e"/><rect x="86.6" y="69.86" width="5.58" height="5.58" fill="#f7c45e"/><rect x="86.6" y="64.29" width="5.58" height="5.58" fill="#f9f2d4"/><rect x="86.6" y="58.71" width="5.58" height="5.58" fill="#f9f2d4"/><rect x="86.6" y="53.13" width="5.58" height="5.58" fill="#f9f2d4"/><rect x="86.6" y="47.55" width="5.58" height="5.58" fill="#f9f2d4"/><rect x="86.6" y="41.97" width="5.58" height="5.58" fill="#f9f2d4"/><rect x="86.6" y="36.39" width="5.58" height="5.58" fill="#f9f2d4"/><rect x="86.6" y="30.81" width="5.58" height="5.58" fill="#f9f2d4"/><rect x="86.6" y="25.24" width="5.58" height="5.58" fill="#f9f2d4"/><rect x="86.6" y="19.66" width="5.58" height="5.58" fill="#f7c45e"/><rect x="86.6" y="14.08" width="5.58" height="5.58" fill="#f9f2d4"/><rect x="86.6" y="8.5" width="5.58" height="5.58" fill="#1b0003"/><rect x="81.02" y="108.91" width="5.58" height="5.58" fill="#1b0003"/><rect x="81.02" y="103.34" width="5.58" height="5.58" fill="#ea942d"/><rect x="81.02" y="97.76" width="5.58" height="5.58" fill="#ea942d"/><rect x="81.02" y="92.18" width="5.58" height="5.58" fill="#ea942d"/><rect x="81.02" y="86.6" width="5.58" height="5.58" fill="#ea942d"/><rect x="81.02" y="81.02" width="5.58" height="5.58" fill="#ea942d"/><rect x="81.02" y="75.44" width="5.58" height="5.58" fill="#db6d12"/><rect x="81.02" y="69.86" width="5.58" height="5.58" fill="#f7c45e"/><rect x="81.02" y="64.29" width="5.58" height="5.58" fill="#f9f2d4"/><rect x="81.02" y="58.71" width="5.58" height="5.58" fill="#f9f2d4"/><rect x="81.02" y="53.13" width="5.58" height="5.58" fill="#f9f2d4"/><rect x="81.02" y="47.55" width="5.58" height="5.58" fill="#f9f2d4"/><rect x="81.02" y="41.97" width="5.58" height="5.58" fill="#f9f2d4"/><rect x="81.02" y="36.39" width="5.58" height="5.58" fill="#f9f2d4"/><rect x="81.02" y="30.81" width="5.58" height="5.58" fill="#f9f2d4"/><rect x="81.02" y="25.24" width="5.58" height="5.58" fill="#f9f2d4"/><rect x="81.02" y="19.66" width="5.58" height="5.58" fill="#f7c45e"/><rect x="81.02" y="14.08" width="5.58" height="5.58" fill="#f9f2d4"/><rect x="81.02" y="8.5" width="5.58" height="5.58" fill="#1b0003"/><rect x="75.44" y="108.91" width="5.58" height="5.58" fill="#1b0003"/><rect x="75.44" y="103.34" width="5.58" height="5.58" fill="#ea942d"/><rect x="75.44" y="97.76" width="5.58" height="5.58" fill="#ea942d"/><rect x="75.44" y="92.18" width="5.58" height="5.58" fill="#ea942d"/><rect x="75.44" y="86.6" width="5.58" height="5.58" fill="#ea942d"/><rect x="75.44" y="81.02" width="5.58" height="5.58" fill="#ea942d"/><rect x="75.44" y="75.44" width="5.58" height="5.58" fill="#db6d12"/><rect x="75.44" y="69.86" width="5.58" height="5.58" fill="#f7c45e"/><rect x="75.44" y="64.29" width="5.58" height="5.58" fill="#f9f2d4"/><rect x="75.44" y="58.71" width="5.58" height="5.58" fill="#f7c45e"/><rect x="75.44" y="53.13" width="5.58" height="5.58" fill="#f9f2d4"/><rect x="75.44" y="47.55" width="5.58" height="5.58" fill="#f9f2d4"/><rect x="75.44" y="41.97" width="5.58" height="5.58" fill="#f9f2d4"/><rect x="75.44" y="36.39" width="5.58" height="5.58" fill="#f9f2d4"/><rect x="75.44" y="30.81" width="5.58" height="5.58" fill="#f9f2d4"/><rect x="75.44" y="25.24" width="5.58" height="5.58" fill="#f7c45e"/><rect x="75.44" y="19.66" width="5.58" height="5.58" fill="#f7c45e"/><rect x="75.44" y="14.08" width="5.58" height="5.58" fill="#f9f2d4"/><rect x="75.44" y="8.5" width="5.58" height="5.58" fill="#1b0003"/><rect x="69.86" y="108.91" width="5.58" height="5.58" fill="#1b0003"/><rect x="69.86" y="103.34" width="5.58" height="5.58" fill="#ea942d"/><rect x="69.86" y="97.76" width="5.58" height="5.58" fill="#ea942d"/><rect x="69.86" y="92.18" width="5.58" height="5.58" fill="#ea942d"/><rect x="69.86" y="86.6" width="5.58" height="5.58" fill="#ea942d"/><rect x="69.86" y="81.02" width="5.58" height="5.58" fill="#ea942d"/><rect x="69.86" y="75.44" width="5.58" height="5.58" fill="#db6d12"/><rect x="69.86" y="69.86" width="5.58" height="5.58" fill="#f7c45e"/><rect x="69.86" y="64.29" width="5.58" height="5.58" fill="#f9f2d4"/><rect x="69.86" y="58.71" width="5.58" height="5.58" fill="#f7c45e"/><rect x="69.86" y="53.13" width="5.58" height="5.58" fill="#f9f2d4"/><rect x="69.86" y="47.55" width="5.58" height="5.58" fill="#f9f2d4"/><rect x="69.86" y="41.97" width="5.58" height="5.58" fill="#f9f2d4"/><rect x="69.86" y="36.39" width="5.58" height="5.58" fill="#f9f2d4"/><rect x="69.86" y="30.81" width="5.58" height="5.58" fill="#f7c45e"/><rect x="69.86" y="25.24" width="5.58" height="5.58" fill="#f7c45e"/><rect x="69.86" y="19.66" width="5.58" height="5.58" fill="#f9f2d4"/><rect x="69.86" y="14.08" width="5.58" height="5.58" fill="#f7c45e"/><rect x="69.86" y="8.5" width="5.58" height="5.58" fill="#1b0003"/><rect x="64.29" y="108.91" width="5.58" height="5.58" fill="#1b0003"/><rect x="64.29" y="103.34" width="5.58" height="5.58" fill="#ea942d"/><rect x="64.29" y="97.76" width="5.58" height="5.58" fill="#ea942d"/><rect x="64.29" y="92.18" width="5.58" height="5.58" fill="#ea942d"/><rect x="64.29" y="86.6" width="5.58" height="5.58" fill="#ea942d"/><rect x="64.29" y="81.02" width="5.58" height="5.58" fill="#ea942d"/><rect x="64.29" y="75.44" width="5.58" height="5.58" fill="#db6d12"/><rect x="64.29" y="69.86" width="5.58" height="5.58" fill="#f7c45e"/><rect x="64.29" y="64.29" width="5.58" height="5.58" fill="#f9f2d4"/><rect x="64.29" y="58.71" width="5.58" height="5.58" fill="#f7c45e"/><rect x="64.29" y="53.13" width="5.58" height="5.58" fill="#f9f2d4"/><rect x="64.29" y="47.55" width="5.58" height="5.58" fill="#f9f2d4"/><rect x="64.29" y="41.97" width="5.58" height="5.58" fill="#f9f2d4"/><rect x="64.29" y="36.39" width="5.58" height="5.58" fill="#f7c45e"/><rect x="64.29" y="30.81" width="5.58" height="5.58" fill="#f7c45e"/><rect x="64.29" y="25.24" width="5.58" height="5.58" fill="#f9f2d4"/><rect x="64.29" y="19.66" width="5.58" height="5.58" fill="#f7c45e"/><rect x="64.29" y="14.08" width="5.58" height="5.58" fill="#1b0003"/><rect x="58.71" y="108.91" width="5.58" height="5.58" fill="#1b0003"/><rect x="58.71" y="103.34" width="5.58" height="5.58" fill="#ea942d"/><rect x="58.71" y="97.76" width="5.58" height="5.58" fill="#ea942d"/><rect x="58.71" y="92.18" width="5.58" height="5.58" fill="#ea942d"/><rect x="58.71" y="86.6" width="5.58" height="5.58" fill="#ea942d"/><rect x="58.71" y="81.02" width="5.58" height="5.58" fill="#ea942d"/><rect x="58.71" y="75.44" width="5.58" height="5.58" fill="#db6d12"/><rect x="58.71" y="69.86" width="5.58" height="5.58" fill="#f7c45e"/><rect x="58.71" y="64.29" width="5.58" height="5.58" fill="#f9f2d4"/><rect x="58.71" y="58.71" width="5.58" height="5.58" fill="#f7c45e"/><rect x="58.71" y="53.13" width="5.58" height="5.58" fill="#f9f2d4"/><rect x="58.71" y="47.55" width="5.58" height="5.58" fill="#f9f2d4"/><rect x="58.71" y="41.97" width="5.58" height="5.58" fill="#f7c45e"/><rect x="58.71" y="36.39" width="5.58" height="5.58" fill="#f7c45e"/><rect x="58.71" y="30.81" width="5.58" height="5.58" fill="#f9f2d4"/><rect x="58.71" y="25.24" width="5.58" height="5.58" fill="#f7c45e"/><rect x="58.71" y="19.66" width="5.58" height="5.58" fill="#1b0003"/><rect x="53.13" y="108.91" width="5.58" height="5.58" fill="#1b0003"/><rect x="53.13" y="103.34" width="5.58" height="5.58" fill="#ea942d"/><rect x="53.13" y="97.76" width="5.58" height="5.58" fill="#ea942d"/><rect x="53.13" y="92.18" width="5.58" height="5.58" fill="#ea942d"/><rect x="53.13" y="86.6" width="5.58" height="5.58" fill="#ea942d"/><rect x="53.13" y="81.02" width="5.58" height="5.58" fill="#ea942d"/><rect x="53.13" y="75.44" width="5.58" height="5.58" fill="#db6d12"/><rect x="53.13" y="69.86" width="5.58" height="5.58" fill="#f7c45e"/><rect x="53.13" y="64.29" width="5.58" height="5.58" fill="#f9f2d4"/><rect x="53.13" y="58.71" width="5.58" height="5.58" fill="#f7c45e"/><rect x="53.13" y="53.13" width="5.58" height="5.58" fill="#f9f2d4"/><rect x="53.13" y="47.55" width="5.58" height="5.58" fill="#f7c45e"/><rect x="53.13" y="41.97" width="5.58" height="5.58" fill="#f7c45e"/><rect x="53.13" y="36.39" width="5.58" height="5.58" fill="#f9f2d4"/><rect x="53.13" y="30.81" width="5.58" height="5.58" fill="#f7c45e"/><rect x="53.13" y="25.24" width="5.58" height="5.58" fill="#1b0003"/><rect x="47.55" y="108.91" width="5.58" height="5.58" fill="#1b0003"/><rect x="47.55" y="103.34" width="5.58" height="5.58" fill="#ea942d"/><rect x="47.55" y="97.76" width="5.58" height="5.58" fill="#ea942d"/><rect x="47.55" y="92.18" width="5.58" height="5.58" fill="#ea942d"/><rect x="47.55" y="86.6" width="5.58" height="5.58" fill="#ea942d"/><rect x="47.55" y="81.02" width="5.58" height="5.58" fill="#ea942d"/><rect x="47.55" y="75.44" width="5.58" height="5.58" fill="#db6d12"/><rect x="47.55" y="69.86" width="5.58" height="5.58" fill="#f7c45e"/><rect x="47.55" y="64.29" width="5.58" height="5.58" fill="#f9f2d4"/><rect x="47.55" y="58.71" width="5.58" height="5.58" fill="#f7c45e"/><rect x="47.55" y="53.13" width="5.58" height="5.58" fill="#f7c45e"/><rect x="47.55" y="47.55" width="5.58" height="5.58" fill="#f7c45e"/><rect x="47.55" y="41.97" width="5.58" height="5.58" fill="#f9f2d4"/><rect x="47.55" y="36.39" width="5.58" height="5.58" fill="#f7c45e"/><rect x="47.55" y="30.81" width="5.58" height="5.58" fill="#1b0003"/><rect x="41.97" y="108.91" width="5.58" height="5.58" fill="#1b0003"/><rect x="41.97" y="103.34" width="5.58" height="5.58" fill="#ea942d"/><rect x="41.97" y="97.76" width="5.58" height="5.58" fill="#ea942d"/><rect x="41.97" y="92.18" width="5.58" height="5.58" fill="#ea942d"/><rect x="41.97" y="86.6" width="5.58" height="5.58" fill="#ea942d"/><rect x="41.97" y="81.02" width="5.58" height="5.58" fill="#ea942d"/><rect x="41.97" y="75.44" width="5.58" height="5.58" fill="#db6d12"/><rect x="41.97" y="69.86" width="5.58" height="5.58" fill="#f7c45e"/><rect x="41.97" y="64.29" width="5.58" height="5.58" fill="#f9f2d4"/><rect x="41.97" y="58.71" width="5.58" height="5.58" fill="#f7c45e"/><rect x="41.97" y="53.13" width="5.58" height="5.58" fill="#f7c45e"/><rect x="41.97" y="47.55" width="5.58" height="5.58" fill="#f9f2d4"/><rect x="41.97" y="41.97" width="5.58" height="5.58" fill="#f7c45e"/><rect x="41.97" y="36.39" width="5.58" height="5.58" fill="#1b0003"/><rect x="36.39" y="108.91" width="5.58" height="5.58" fill="#1b0003"/><rect x="36.39" y="103.34" width="5.58" height="5.58" fill="#ea942d"/><rect x="36.39" y="97.76" width="5.58" height="5.58" fill="#ea942d"/><rect x="36.39" y="92.18" width="5.58" height="5.58" fill="#ea942d"/><rect x="36.39" y="86.6" width="5.58" height="5.58" fill="#ea942d"/><rect x="36.39" y="81.02" width="5.58" height="5.58" fill="#ea942d"/><rect x="36.39" y="75.44" width="5.58" height="5.58" fill="#db6d12"/><rect x="36.39" y="69.86" width="5.58" height="5.58" fill="#f7c45e"/><rect x="36.39" y="64.29" width="5.58" height="5.58" fill="#f9f2d4"/><rect x="36.39" y="58.71" width="5.58" height="5.58" fill="#f7c45e"/><rect x="36.39" y="53.13" width="5.58" height="5.58" fill="#f9f2d4"/><rect x="36.39" y="47.55" width="5.58" height="5.58" fill="#f7c45e"/><rect x="36.39" y="41.97" width="5.58" height="5.58" fill="#1b0003"/><rect x="30.81" y="108.91" width="5.58" height="5.58" fill="#1b0003"/><rect x="30.81" y="103.34" width="5.58" height="5.58" fill="#db6d12"/><rect x="30.81" y="97.76" width="5.58" height="5.58" fill="#ea942d"/><rect x="30.81" y="92.18" width="5.58" height="5.58" fill="#ea942d"/><rect x="30.81" y="86.6" width="5.58" height="5.58" fill="#ea942d"/><rect x="30.81" y="81.02" width="5.58" height="5.58" fill="#ea942d"/><rect x="30.81" y="75.44" width="5.58" height="5.58" fill="#db6d12"/><rect x="30.81" y="69.86" width="5.58" height="5.58" fill="#f7c45e"/><rect x="30.81" y="64.29" width="5.58" height="5.58" fill="#f9f2d4"/><rect x="30.81" y="58.71" width="5.58" height="5.58" fill="#f9f2d4"/><rect x="30.81" y="53.13" width="5.58" height="5.58" fill="#f7c45e"/><rect x="30.81" y="47.55" width="5.58" height="5.58" fill="#1b0003"/><rect x="25.24" y="108.91" width="5.58" height="5.58" fill="#1b0003"/><rect x="25.24" y="103.34" width="5.58" height="5.58" fill="#ea942d"/><rect x="25.24" y="97.76" width="5.58" height="5.58" fill="#db6d12"/><rect x="25.24" y="92.18" width="5.58" height="5.58" fill="#ea942d"/><rect x="25.24" y="86.6" width="5.58" height="5.58" fill="#ea942d"/><rect x="25.24" y="81.02" width="5.58" height="5.58" fill="#ea942d"/><rect x="25.24" y="75.44" width="5.58" height="5.58" fill="#db6d12"/><rect x="25.24" y="69.86" width="5.58" height="5.58" fill="#f7c45e"/><rect x="25.24" y="64.29" width="5.58" height="5.58" fill="#f9f2d4"/><rect x="25.24" y="58.71" width="5.58" height="5.58" fill="#f7c45e"/><rect x="25.24" y="53.13" width="5.58" height="5.58" fill="#1b0003"/><rect x="19.66" y="108.91" width="5.58" height="5.58" fill="#1b0003"/><rect x="19.66" y="103.34" width="5.58" height="5.58" fill="#db6d12"/><rect x="19.66" y="97.76" width="5.58" height="5.58" fill="#ea942d"/><rect x="19.66" y="92.18" width="5.58" height="5.58" fill="#db6d12"/><rect x="19.66" y="86.6" width="5.58" height="5.58" fill="#ea942d"/><rect x="19.66" y="81.02" width="5.58" height="5.58" fill="#ea942d"/><rect x="19.66" y="75.44" width="5.58" height="5.58" fill="#db6d12"/><rect x="19.66" y="69.86" width="5.58" height="5.58" fill="#f7c45e"/><rect x="19.66" y="64.29" width="5.58" height="5.58" fill="#f7c45e"/><rect x="19.66" y="58.71" width="5.58" height="5.58" fill="#1b0003"/><rect x="14.08" y="108.91" width="5.58" height="5.58" fill="#1b0003"/><rect x="14.08" y="103.34" width="5.58" height="5.58" fill="#ea942d"/><rect x="14.08" y="97.76" width="5.58" height="5.58" fill="#db6d12"/><rect x="14.08" y="92.18" width="5.58" height="5.58" fill="#ea942d"/><rect x="14.08" y="86.6" width="5.58" height="5.58" fill="#db6d12"/><rect x="14.08" y="81.02" width="5.58" height="5.58" fill="#ea942d"/><rect x="14.08" y="75.44" width="5.58" height="5.58" fill="#db6d12"/><rect x="14.08" y="69.86" width="5.58" height="5.58" fill="#d84b13"/><rect x="14.08" y="64.29" width="5.58" height="5.58" fill="#1b0003"/><rect x="8.5" y="103.34" width="5.58" height="5.58" fill="#1b0003"/><rect x="8.5" y="97.76" width="5.58" height="5.58" fill="#1b0003"/><rect x="8.5" y="92.18" width="5.58" height="5.58" fill="#1b0003"/><rect x="8.5" y="86.6" width="5.58" height="5.58" fill="#1b0003"/><rect x="8.5" y="81.02" width="5.58" height="5.58" fill="#1b0003"/><rect x="8.5" y="75.44" width="5.58" height="5.58" fill="#1b0003"/><rect x="8.5" y="69.86" width="5.58" height="5.58" fill="#1b0003"/></g></g></g></g></svg>