<svg xmlns="http://www.w3.org/2000/svg" width="151.87" height="146.25" viewBox="0 0 151.87 146.25"><g id="Layer_2" data-name="Layer 2"><g id="items"><g id="Meat"><path d="M106.92,146.25H33.72v-5.62H22.48V135H16.86V129.4H11.24v-5.62H5.62v-5.62H0V73.06H5.62V61.82h5.62V56.2h5.62V50.58h5.62V45h28.1V39.34H56.2V33.72h5.62V28.1h5.62V16.86h5.62V11.24h5.62V5.62H84.3V0h39.48V5.62h5.62v5.62H135v5.62h5.62v5.62h5.62V33.72h5.62v62h-5.62v11.24h-5.62v11.24H135v5.62H129.4v5.62h-5.62V135h-5.62v5.62H106.92Zm-56.2-17h39.2v-5.62h11.24V118h5.62V112.4h5.62v-5.62H118v-5.62h5.62V89.92h5.62V78.68h5.62v-28h-5.62V39.48h-5.62V33.86H118V28.24H112.4V22.62h-5.62V17H101.3v5.62H95.68v5.62H90.06v5.62H84.44V45.1H78.82v5.62H73.2v5.62H67.58V62H39.48v5.62H33.86V73.2H28.24v5.62H22.62V90.06H17v11.1h5.62v5.62h5.62v5.62h5.62V118h5.62v5.62H50.72Z" fill="#fff"/><g id="Meat-2" data-name="Meat"><rect x="137.75" y="81.56" width="5.62" height="5.62" fill="#1b0003"/><rect x="137.75" y="75.94" width="5.62" height="5.62" fill="#1b0003"/><rect x="137.75" y="70.32" width="5.62" height="5.62" fill="#1b0003"/><rect x="137.75" y="64.7" width="5.62" height="5.62" fill="#1b0003"/><rect x="137.75" y="59.08" width="5.62" height="5.62" fill="#1b0003"/><rect x="137.75" y="53.46" width="5.62" height="5.62" fill="#1b0003"/><rect x="137.75" y="47.84" width="5.62" height="5.62" fill="#1b0003"/><rect x="137.75" y="42.22" width="5.62" height="5.62" fill="#1b0003"/><rect x="132.13" y="92.8" width="5.62" height="5.62" fill="#1b0003"/><rect x="132.13" y="87.18" width="5.62" height="5.62" fill="#1b0003"/><rect x="132.13" y="81.56" width="5.62" height="5.62" fill="#e0bea4"/><rect x="132.13" y="75.94" width="5.62" height="5.62" fill="#e0bea4"/><rect x="132.13" y="70.32" width="5.62" height="5.62" fill="#e0bea4"/><rect x="132.13" y="64.7" width="5.62" height="5.62" fill="#e0bea4"/><rect x="132.13" y="59.08" width="5.62" height="5.62" fill="#e0bea4"/><rect x="132.13" y="53.46" width="5.62" height="5.62" fill="#e0bea4"/><rect x="132.13" y="47.84" width="5.62" height="5.62" fill="#e0bea4"/><rect x="132.13" y="42.22" width="5.62" height="5.62" fill="#ead0b9"/><rect x="132.13" y="36.6" width="5.62" height="5.62" fill="#1b0003"/><rect x="132.13" y="30.98" width="5.62" height="5.62" fill="#1b0003"/><rect x="126.51" y="104.04" width="5.62" height="5.62" fill="#1b0003"/><rect x="126.51" y="98.42" width="5.62" height="5.62" fill="#1b0003"/><rect x="126.51" y="92.8" width="5.62" height="5.62" fill="#e0bea4"/><rect x="126.51" y="87.18" width="5.62" height="5.62" fill="#e0bea4"/><rect x="126.51" y="81.56" width="5.62" height="5.62" fill="#e0bea4"/><rect x="126.51" y="75.94" width="5.62" height="5.62" fill="#ead0b9"/><rect x="126.51" y="70.32" width="5.62" height="5.62" fill="#ead0b9"/><rect x="126.51" y="64.7" width="5.62" height="5.62" fill="#ead0b9"/><rect x="126.51" y="59.08" width="5.62" height="5.62" fill="#ead0b9"/><rect x="126.51" y="53.46" width="5.62" height="5.62" fill="#ead0b9"/><rect x="126.51" y="47.84" width="5.62" height="5.62" fill="#ead0b9"/><rect x="126.51" y="42.22" width="5.62" height="5.62" fill="#ead0b9"/><rect x="126.51" y="36.6" width="5.62" height="5.62" fill="#ead0b9"/><rect x="126.51" y="30.98" width="5.62" height="5.62" fill="#ead0b9"/><rect x="126.51" y="25.36" width="5.62" height="5.62" fill="#1b0003"/><rect x="120.9" y="109.66" width="5.62" height="5.62" fill="#1b0003"/><rect x="120.9" y="104.04" width="5.62" height="5.62" fill="#e0bea4"/><rect x="120.9" y="98.42" width="5.62" height="5.62" fill="#e0bea4"/><rect x="120.9" y="92.8" width="5.62" height="5.62" fill="#e0bea4"/><rect x="120.9" y="87.18" width="5.62" height="5.62" fill="#e0bea4"/><rect x="120.9" y="81.56" width="5.62" height="5.62" fill="#ead0b9"/><rect x="120.9" y="75.94" width="5.62" height="5.62" fill="#f9f2d4"/><rect x="120.9" y="70.32" width="5.62" height="5.62" fill="#eb3824"/><rect x="120.9" y="64.7" width="5.62" height="5.62" fill="#db1943"/><rect x="120.9" y="59.08" width="5.62" height="5.62" fill="#db1943"/><rect x="120.9" y="53.46" width="5.62" height="5.62" fill="#db1943"/><rect x="120.9" y="47.84" width="5.62" height="5.62" fill="#db1943"/><rect x="120.9" y="42.22" width="5.62" height="5.62" fill="#db1943"/><rect x="120.9" y="36.6" width="5.62" height="5.62" fill="#db1943"/><rect x="120.9" y="30.98" width="5.62" height="5.62" fill="#db1943"/><rect x="120.9" y="25.36" width="5.62" height="5.62" fill="#f9f2d4"/><rect x="120.9" y="19.74" width="5.62" height="5.62" fill="#1b0003"/><rect x="115.28" y="115.28" width="5.62" height="5.62" fill="#1b0003"/><rect x="115.28" y="109.66" width="5.62" height="5.62" fill="#e0bea4"/><rect x="115.28" y="104.04" width="5.62" height="5.62" fill="#e0bea4"/><rect x="115.28" y="98.42" width="5.62" height="5.62" fill="#e0bea4"/><rect x="115.28" y="92.8" width="5.62" height="5.62" fill="#e0bea4"/><rect x="115.28" y="87.18" width="5.62" height="5.62" fill="#f9f2d4"/><rect x="115.28" y="81.56" width="5.62" height="5.62" fill="#eb3824"/><rect x="115.28" y="75.94" width="5.62" height="5.62" fill="#db1943"/><rect x="115.28" y="70.32" width="5.62" height="5.62" fill="#db1943"/><rect x="115.28" y="64.7" width="5.62" height="5.62" fill="#b6294c"/><rect x="115.28" y="59.08" width="5.62" height="5.62" fill="#b6294c"/><rect x="115.28" y="53.46" width="5.62" height="5.62" fill="#b6294c"/><rect x="115.28" y="47.84" width="5.62" height="5.62" fill="#b6294c"/><rect x="115.28" y="42.22" width="5.62" height="5.62" fill="#b6294c"/><rect x="115.28" y="36.6" width="5.62" height="5.62" fill="#b6294c"/><rect x="115.28" y="30.98" width="5.62" height="5.62" fill="#b6294c"/><rect x="115.28" y="25.36" width="5.62" height="5.62" fill="#b6294c"/><rect x="115.28" y="19.74" width="5.62" height="5.62" fill="#f9f2d4"/><rect x="115.28" y="14.12" width="5.62" height="5.62" fill="#1b0003"/><rect x="109.66" y="120.9" width="5.62" height="5.62" fill="#1b0003"/><rect x="109.66" y="115.28" width="5.62" height="5.62" fill="#e0bea4"/><rect x="109.66" y="109.66" width="5.62" height="5.62" fill="#e0bea4"/><rect x="109.66" y="104.04" width="5.62" height="5.62" fill="#e0bea4"/><rect x="109.66" y="98.42" width="5.62" height="5.62" fill="#ead0b9"/><rect x="109.66" y="92.8" width="5.62" height="5.62" fill="#f9f2d4"/><rect x="109.66" y="87.18" width="5.62" height="5.62" fill="#eb3824"/><rect x="109.66" y="81.56" width="5.62" height="5.62" fill="#b6294c"/><rect x="109.66" y="75.94" width="5.62" height="5.62" fill="#b6294c"/><rect x="109.66" y="70.32" width="5.62" height="5.62" fill="#b6294c"/><rect x="109.66" y="64.7" width="5.62" height="5.62" fill="#b6294c"/><rect x="109.66" y="59.08" width="5.62" height="5.62" fill="#b6294c"/><rect x="109.66" y="53.46" width="5.62" height="5.62" fill="#db1943"/><rect x="109.66" y="47.84" width="5.62" height="5.62" fill="#db1943"/><rect x="109.66" y="42.22" width="5.62" height="5.62" fill="#db1943"/><rect x="109.66" y="36.6" width="5.62" height="5.62" fill="#db1943"/><rect x="109.66" y="30.98" width="5.62" height="5.62" fill="#db1943"/><rect x="109.66" y="25.36" width="5.62" height="5.62" fill="#db1943"/><rect x="109.66" y="19.74" width="5.62" height="5.62" fill="#db1943"/><rect x="109.66" y="14.12" width="5.62" height="5.62" fill="#f9f2d4"/><rect x="109.66" y="8.5" width="5.62" height="5.62" fill="#1b0003"/><rect x="104.04" y="126.51" width="5.62" height="5.62" fill="#1b0003"/><rect x="104.04" y="120.9" width="5.62" height="5.62" fill="#e0bea4"/><rect x="104.04" y="115.28" width="5.62" height="5.62" fill="#e0bea4"/><rect x="104.04" y="109.66" width="5.62" height="5.62" fill="#ead0b9"/><rect x="104.04" y="104.04" width="5.62" height="5.62" fill="#ead0b9"/><rect x="104.04" y="98.42" width="5.62" height="5.62" fill="#f9f2d4"/><rect x="104.04" y="92.8" width="5.62" height="5.62" fill="#eb3824"/><rect x="104.04" y="87.18" width="5.62" height="5.62" fill="#db1943"/><rect x="104.04" y="81.56" width="5.62" height="5.62" fill="#b6294c"/><rect x="104.04" y="75.94" width="5.62" height="5.62" fill="#b6294c"/><rect x="104.04" y="70.32" width="5.62" height="5.62" fill="#b6294c"/><rect x="104.04" y="64.7" width="5.62" height="5.62" fill="#db1943"/><rect x="104.04" y="59.08" width="5.62" height="5.62" fill="#db1943"/><rect x="104.04" y="53.46" width="5.62" height="5.62" fill="#db1943"/><rect x="104.04" y="47.84" width="5.62" height="5.62" fill="#eb3824"/><rect x="104.04" y="42.22" width="5.62" height="5.62" fill="#eb3824"/><rect x="104.04" y="36.6" width="5.62" height="5.62" fill="#eb3824"/><rect x="104.04" y="30.98" width="5.62" height="5.62" fill="#eb3824"/><rect x="104.04" y="25.36" width="5.62" height="5.62" fill="#eb3824"/><rect x="104.04" y="19.74" width="5.62" height="5.62" fill="#eb3824"/><rect x="104.04" y="14.12" width="5.62" height="5.62" fill="#f9f2d4"/><rect x="104.04" y="8.5" width="5.62" height="5.62" fill="#1b0003"/><rect x="98.42" y="126.51" width="5.62" height="5.62" fill="#1b0003"/><rect x="98.42" y="120.9" width="5.62" height="5.62" fill="#e0bea4"/><rect x="98.42" y="115.28" width="5.62" height="5.62" fill="#e0bea4"/><rect x="98.42" y="109.66" width="5.62" height="5.62" fill="#ead0b9"/><rect x="98.42" y="104.04" width="5.62" height="5.62" fill="#f9f2d4"/><rect x="98.42" y="98.42" width="5.62" height="5.62" fill="#eb3824"/><rect x="98.42" y="92.8" width="5.62" height="5.62" fill="#b6294c"/><rect x="98.42" y="87.18" width="5.62" height="5.62" fill="#b6294c"/><rect x="98.42" y="81.56" width="5.62" height="5.62" fill="#b6294c"/><rect x="98.42" y="75.94" width="5.62" height="5.62" fill="#db1943"/><rect x="98.42" y="70.32" width="5.62" height="5.62" fill="#db1943"/><rect x="98.42" y="64.7" width="5.62" height="5.62" fill="#db1943"/><rect x="98.42" y="59.08" width="5.62" height="5.62" fill="#eb3824"/><rect x="98.42" y="53.46" width="5.62" height="5.62" fill="#eb3824"/><rect x="98.42" y="47.84" width="5.62" height="5.62" fill="#eb3824"/><rect x="98.42" y="42.22" width="5.62" height="5.62" fill="#eb3824"/><rect x="98.42" y="36.6" width="5.62" height="5.62" fill="#eb3824"/><rect x="98.42" y="30.98" width="5.62" height="5.62" fill="#eb3824"/><rect x="98.42" y="25.36" width="5.62" height="5.62" fill="#eb3824"/><rect x="98.42" y="19.74" width="5.62" height="5.62" fill="#eb3824"/><rect x="98.42" y="14.12" width="5.62" height="5.62" fill="#f9f2d4"/><rect x="98.42" y="8.5" width="5.62" height="5.62" fill="#1b0003"/><rect x="92.8" y="132.13" width="5.62" height="5.62" fill="#1b0003"/><rect x="92.8" y="126.51" width="5.62" height="5.62" fill="#e0bea4"/><rect x="92.8" y="120.9" width="5.62" height="5.62" fill="#e0bea4"/><rect x="92.8" y="115.28" width="5.62" height="5.62" fill="#e0bea4"/><rect x="92.8" y="109.66" width="5.62" height="5.62" fill="#f9f2d4"/><rect x="92.8" y="104.04" width="5.62" height="5.62" fill="#eb3824"/><rect x="92.8" y="98.42" width="5.62" height="5.62" fill="#b6294c"/><rect x="92.8" y="92.8" width="5.62" height="5.62" fill="#b6294c"/><rect x="92.8" y="87.18" width="5.62" height="5.62" fill="#b6294c"/><rect x="92.8" y="81.56" width="5.62" height="5.62" fill="#db1943"/><rect x="92.8" y="75.94" width="5.62" height="5.62" fill="#db1943"/><rect x="92.8" y="70.32" width="5.62" height="5.62" fill="#eb3824"/><rect x="92.8" y="64.7" width="5.62" height="5.62" fill="#eb3824"/><rect x="92.8" y="59.08" width="5.62" height="5.62" fill="#eb3824"/><rect x="92.8" y="53.46" width="5.62" height="5.62" fill="#eb3824"/><rect x="92.8" y="47.84" width="5.62" height="5.62" fill="#eb3824"/><rect x="92.8" y="42.22" width="5.62" height="5.62" fill="#eb3824"/><rect x="92.8" y="36.6" width="5.62" height="5.62" fill="#eb3824"/><rect x="92.8" y="30.98" width="5.62" height="5.62" fill="#eb3824"/><rect x="92.8" y="25.36" width="5.62" height="5.62" fill="#eb3824"/><rect x="92.8" y="19.74" width="5.62" height="5.62" fill="#eb3824"/><rect x="92.8" y="14.12" width="5.62" height="5.62" fill="#f9f2d4"/><rect x="92.8" y="8.5" width="5.62" height="5.62" fill="#1b0003"/><rect x="87.18" y="132.13" width="5.62" height="5.62" fill="#1b0003"/><rect x="87.18" y="126.51" width="5.62" height="5.62" fill="#e0bea4"/><rect x="87.18" y="120.9" width="5.62" height="5.62" fill="#e0bea4"/><rect x="87.18" y="115.28" width="5.62" height="5.62" fill="#e0bea4"/><rect x="87.18" y="109.66" width="5.62" height="5.62" fill="#eb3824"/><rect x="87.18" y="104.04" width="5.62" height="5.62" fill="#b6294c"/><rect x="87.18" y="98.42" width="5.62" height="5.62" fill="#b6294c"/><rect x="87.18" y="92.8" width="5.62" height="5.62" fill="#db1943"/><rect x="87.18" y="87.18" width="5.62" height="5.62" fill="#db1943"/><rect x="87.18" y="81.56" width="5.62" height="5.62" fill="#db1943"/><rect x="87.18" y="75.94" width="5.62" height="5.62" fill="#eb3824"/><rect x="87.18" y="70.32" width="5.62" height="5.62" fill="#eb3824"/><rect x="87.18" y="64.7" width="5.62" height="5.62" fill="#eb3824"/><rect x="87.18" y="59.08" width="5.62" height="5.62" fill="#eb3824"/><rect x="87.18" y="53.46" width="5.62" height="5.62" fill="#eb3824"/><rect x="87.18" y="47.84" width="5.62" height="5.62" fill="#eb3824"/><rect x="87.18" y="42.22" width="5.62" height="5.62" fill="#eb3824"/><rect x="87.18" y="36.6" width="5.62" height="5.62" fill="#eb3824"/><rect x="87.18" y="30.98" width="5.62" height="5.62" fill="#eb3824"/><rect x="87.18" y="25.36" width="5.62" height="5.62" fill="#eb3824"/><rect x="87.18" y="19.74" width="5.62" height="5.62" fill="#f9f2d4"/><rect x="87.18" y="14.12" width="5.62" height="5.62" fill="#1b0003"/><rect x="81.56" y="132.13" width="5.62" height="5.62" fill="#1b0003"/><rect x="81.56" y="126.51" width="5.62" height="5.62" fill="#e0bea4"/><rect x="81.56" y="120.9" width="5.62" height="5.62" fill="#e0bea4"/><rect x="81.56" y="115.28" width="5.62" height="5.62" fill="#f9f2d4"/><rect x="81.56" y="109.66" width="5.62" height="5.62" fill="#b6294c"/><rect x="81.56" y="104.04" width="5.62" height="5.62" fill="#b6294c"/><rect x="81.56" y="98.42" width="5.62" height="5.62" fill="#db1943"/><rect x="81.56" y="92.8" width="5.62" height="5.62" fill="#db1943"/><rect x="81.56" y="87.18" width="5.62" height="5.62" fill="#db1943"/><rect x="81.56" y="81.56" width="5.62" height="5.62" fill="#db1943"/><rect x="81.56" y="75.94" width="5.62" height="5.62" fill="#eb3824"/><rect x="81.56" y="70.32" width="5.62" height="5.62" fill="#eb3824"/><rect x="81.56" y="64.7" width="5.62" height="5.62" fill="#eb3824"/><rect x="81.56" y="59.08" width="5.62" height="5.62" fill="#eb3824"/><rect x="81.56" y="53.46" width="5.62" height="5.62" fill="#eb3824"/><rect x="81.56" y="47.84" width="5.62" height="5.62" fill="#eb3824"/><rect x="81.56" y="42.22" width="5.62" height="5.62" fill="#eb3824"/><rect x="81.56" y="36.6" width="5.62" height="5.62" fill="#eb3824"/><rect x="81.56" y="30.98" width="5.62" height="5.62" fill="#f9f2d4"/><rect x="81.56" y="25.36" width="5.62" height="5.62" fill="#f9f2d4"/><rect x="81.56" y="19.74" width="5.62" height="5.62" fill="#1b0003"/><rect x="75.94" y="132.13" width="5.62" height="5.62" fill="#1b0003"/><rect x="75.94" y="126.51" width="5.62" height="5.62" fill="#e0bea4"/><rect x="75.94" y="120.9" width="5.62" height="5.62" fill="#e0bea4"/><rect x="75.94" y="115.28" width="5.62" height="5.62" fill="#f9f2d4"/><rect x="75.94" y="109.66" width="5.62" height="5.62" fill="#b6294c"/><rect x="75.94" y="104.04" width="5.62" height="5.62" fill="#b6294c"/><rect x="75.94" y="98.42" width="5.62" height="5.62" fill="#db1943"/><rect x="75.94" y="92.8" width="5.62" height="5.62" fill="#db1943"/><rect x="75.94" y="87.18" width="5.62" height="5.62" fill="#db1943"/><rect x="75.94" y="81.56" width="5.62" height="5.62" fill="#db1943"/><rect x="75.94" y="75.94" width="5.62" height="5.62" fill="#eb3824"/><rect x="75.94" y="70.32" width="5.62" height="5.62" fill="#eb3824"/><rect x="75.94" y="64.7" width="5.62" height="5.62" fill="#eb3824"/><rect x="75.94" y="59.08" width="5.62" height="5.62" fill="#eb3824"/><rect x="75.94" y="53.46" width="5.62" height="5.62" fill="#eb3824"/><rect x="75.94" y="47.84" width="5.62" height="5.62" fill="#eb3824"/><rect x="75.94" y="42.22" width="5.62" height="5.62" fill="#eb3824"/><rect x="75.94" y="36.6" width="5.62" height="5.62" fill="#f9f2d4"/><rect x="75.94" y="30.98" width="5.62" height="5.62" fill="#1b0003"/><rect x="75.94" y="25.36" width="5.62" height="5.62" fill="#1b0003"/><rect x="70.32" y="132.13" width="5.62" height="5.62" fill="#1b0003"/><rect x="70.32" y="126.51" width="5.62" height="5.62" fill="#e0bea4"/><rect x="70.32" y="120.9" width="5.62" height="5.62" fill="#e0bea4"/><rect x="70.32" y="115.28" width="5.62" height="5.62" fill="#b6294c"/><rect x="70.32" y="109.66" width="5.62" height="5.62" fill="#b6294c"/><rect x="70.32" y="104.04" width="5.62" height="5.62" fill="#db1943"/><rect x="70.32" y="98.42" width="5.62" height="5.62" fill="#db1943"/><rect x="70.32" y="92.8" width="5.62" height="5.62" fill="#db1943"/><rect x="70.32" y="87.18" width="5.62" height="5.62" fill="#db1943"/><rect x="70.32" y="81.56" width="5.62" height="5.62" fill="#eb3824"/><rect x="70.32" y="75.94" width="5.62" height="5.62" fill="#eb3824"/><rect x="70.32" y="70.32" width="5.62" height="5.62" fill="#eb3824"/><rect x="70.32" y="64.7" width="5.62" height="5.62" fill="#eb3824"/><rect x="70.32" y="59.08" width="5.62" height="5.62" fill="#eb3824"/><rect x="70.32" y="53.46" width="5.62" height="5.62" fill="#eb3824"/><rect x="70.32" y="47.84" width="5.62" height="5.62" fill="#eb3824"/><rect x="70.32" y="42.22" width="5.62" height="5.62" fill="#f9f2d4"/><rect x="70.32" y="36.6" width="5.62" height="5.62" fill="#1b0003"/><rect x="64.7" y="132.13" width="5.62" height="5.62" fill="#1b0003"/><rect x="64.7" y="126.51" width="5.62" height="5.62" fill="#e0bea4"/><rect x="64.7" y="120.9" width="5.62" height="5.62" fill="#ead0b9"/><rect x="64.7" y="115.28" width="5.62" height="5.62" fill="#b6294c"/><rect x="64.7" y="109.66" width="5.62" height="5.62" fill="#b6294c"/><rect x="64.7" y="104.04" width="5.62" height="5.62" fill="#db1943"/><rect x="64.7" y="98.42" width="5.62" height="5.62" fill="#db1943"/><rect x="64.7" y="92.8" width="5.62" height="5.62" fill="#db1943"/><rect x="64.7" y="87.18" width="5.62" height="5.62" fill="#db1943"/><rect x="64.7" y="81.56" width="5.62" height="5.62" fill="#eb3824"/><rect x="64.7" y="75.94" width="5.62" height="5.62" fill="#eb3824"/><rect x="64.7" y="70.32" width="5.62" height="5.62" fill="#eb3824"/><rect x="64.7" y="64.7" width="5.62" height="5.62" fill="#eb3824"/><rect x="64.7" y="59.08" width="5.62" height="5.62" fill="#eb3824"/><rect x="64.7" y="53.46" width="5.62" height="5.62" fill="#db1943"/><rect x="64.7" y="47.84" width="5.62" height="5.62" fill="#f9f2d4"/><rect x="64.7" y="42.22" width="5.62" height="5.62" fill="#1b0003"/><rect x="59.08" y="132.13" width="5.62" height="5.62" fill="#1b0003"/><rect x="59.08" y="126.51" width="5.62" height="5.62" fill="#e0bea4"/><rect x="59.08" y="120.9" width="5.62" height="5.62" fill="#ead0b9"/><rect x="59.08" y="115.28" width="5.62" height="5.62" fill="#b6294c"/><rect x="59.08" y="109.66" width="5.62" height="5.62" fill="#db1943"/><rect x="59.08" y="104.04" width="5.62" height="5.62" fill="#db1943"/><rect x="59.08" y="98.42" width="5.62" height="5.62" fill="#db1943"/><rect x="59.08" y="92.8" width="5.62" height="5.62" fill="#f9f2d4"/><rect x="59.08" y="87.18" width="5.62" height="5.62" fill="#f9f2d4"/><rect x="59.08" y="81.56" width="5.62" height="5.62" fill="#eb3824"/><rect x="59.08" y="75.94" width="5.62" height="5.62" fill="#eb3824"/><rect x="59.08" y="70.32" width="5.62" height="5.62" fill="#eb3824"/><rect x="59.08" y="64.7" width="5.62" height="5.62" fill="#eb3824"/><rect x="59.08" y="59.08" width="5.62" height="5.62" fill="#db1943"/><rect x="59.08" y="53.46" width="5.62" height="5.62" fill="#f9f2d4"/><rect x="59.08" y="47.84" width="5.62" height="5.62" fill="#1b0003"/><rect x="53.46" y="132.13" width="5.62" height="5.62" fill="#1b0003"/><rect x="53.46" y="126.51" width="5.62" height="5.62" fill="#e0bea4"/><rect x="53.46" y="120.9" width="5.62" height="5.62" fill="#ead0b9"/><rect x="53.46" y="115.28" width="5.62" height="5.62" fill="#b6294c"/><rect x="53.46" y="109.66" width="5.62" height="5.62" fill="#db1943"/><rect x="53.46" y="104.04" width="5.62" height="5.62" fill="#db1943"/><rect x="53.46" y="98.42" width="5.62" height="5.62" fill="#f9f2d4"/><rect x="53.46" y="92.8" width="5.62" height="5.62" fill="#db1943"/><rect x="53.46" y="87.18" width="5.62" height="5.62" fill="#db1943"/><rect x="53.46" y="81.56" width="5.62" height="5.62" fill="#f9f2d4"/><rect x="53.46" y="75.94" width="5.62" height="5.62" fill="#eb3824"/><rect x="53.46" y="70.32" width="5.62" height="5.62" fill="#eb3824"/><rect x="53.46" y="64.7" width="5.62" height="5.62" fill="#eb3824"/><rect x="53.46" y="59.08" width="5.62" height="5.62" fill="#f9f2d4"/><rect x="53.46" y="53.46" width="5.62" height="5.62" fill="#1b0003"/><rect x="47.84" y="132.13" width="5.62" height="5.62" fill="#1b0003"/><rect x="47.84" y="126.51" width="5.62" height="5.62" fill="#e0bea4"/><rect x="47.84" y="120.9" width="5.62" height="5.62" fill="#ead0b9"/><rect x="47.84" y="115.28" width="5.62" height="5.62" fill="#b6294c"/><rect x="47.84" y="109.66" width="5.62" height="5.62" fill="#db1943"/><rect x="47.84" y="104.04" width="5.62" height="5.62" fill="#db1943"/><rect x="47.84" y="98.42" width="5.62" height="5.62" fill="#f9f2d4"/><rect x="47.84" y="92.8" width="5.62" height="5.62" fill="#db1943"/><rect x="47.84" y="87.18" width="5.62" height="5.62" fill="#eb3824"/><rect x="47.84" y="81.56" width="5.62" height="5.62" fill="#f9f2d4"/><rect x="47.84" y="75.94" width="5.62" height="5.62" fill="#eb3824"/><rect x="47.84" y="70.32" width="5.62" height="5.62" fill="#eb3824"/><rect x="47.84" y="64.7" width="5.62" height="5.62" fill="#eb3824"/><rect x="47.84" y="59.08" width="5.62" height="5.62" fill="#f9f2d4"/><rect x="47.84" y="53.46" width="5.62" height="5.62" fill="#1b0003"/><rect x="42.22" y="132.13" width="5.62" height="5.62" fill="#1b0003"/><rect x="42.22" y="126.51" width="5.62" height="5.62" fill="#e0bea4"/><rect x="42.22" y="120.9" width="5.62" height="5.62" fill="#ead0b9"/><rect x="42.22" y="115.28" width="5.62" height="5.62" fill="#b6294c"/><rect x="42.22" y="109.66" width="5.62" height="5.62" fill="#db1943"/><rect x="42.22" y="104.04" width="5.62" height="5.62" fill="#db1943"/><rect x="42.22" y="98.42" width="5.62" height="5.62" fill="#eb3824"/><rect x="42.22" y="92.8" width="5.62" height="5.62" fill="#f9f2d4"/><rect x="42.22" y="87.18" width="5.62" height="5.62" fill="#f9f2d4"/><rect x="42.22" y="81.56" width="5.62" height="5.62" fill="#eb3824"/><rect x="42.22" y="75.94" width="5.62" height="5.62" fill="#eb3824"/><rect x="42.22" y="70.32" width="5.62" height="5.62" fill="#eb3824"/><rect x="42.22" y="64.7" width="5.62" height="5.62" fill="#eb3824"/><rect x="42.22" y="59.08" width="5.62" height="5.62" fill="#f9f2d4"/><rect x="42.22" y="53.46" width="5.62" height="5.62" fill="#1b0003"/><rect x="36.6" y="126.51" width="5.62" height="5.62" fill="#1b0003"/><rect x="36.6" y="120.9" width="5.62" height="5.62" fill="#ead0b9"/><rect x="36.6" y="115.28" width="5.62" height="5.62" fill="#b6294c"/><rect x="36.6" y="109.66" width="5.62" height="5.62" fill="#db1943"/><rect x="36.6" y="104.04" width="5.62" height="5.62" fill="#db1943"/><rect x="36.6" y="98.42" width="5.62" height="5.62" fill="#eb3824"/><rect x="36.6" y="92.8" width="5.62" height="5.62" fill="#eb3824"/><rect x="36.6" y="87.18" width="5.62" height="5.62" fill="#eb3824"/><rect x="36.6" y="81.56" width="5.62" height="5.62" fill="#eb3824"/><rect x="36.6" y="75.94" width="5.62" height="5.62" fill="#eb3824"/><rect x="36.6" y="70.32" width="5.62" height="5.62" fill="#eb3824"/><rect x="36.6" y="64.7" width="5.62" height="5.62" fill="#eb3824"/><rect x="36.6" y="59.08" width="5.62" height="5.62" fill="#f9f2d4"/><rect x="36.6" y="53.46" width="5.62" height="5.62" fill="#1b0003"/><rect x="30.98" y="126.51" width="5.62" height="5.62" fill="#1b0003"/><rect x="30.98" y="120.9" width="5.62" height="5.62" fill="#ead0b9"/><rect x="30.98" y="115.28" width="5.62" height="5.62" fill="#f9f2d4"/><rect x="30.98" y="109.66" width="5.62" height="5.62" fill="#db1943"/><rect x="30.98" y="104.04" width="5.62" height="5.62" fill="#db1943"/><rect x="30.98" y="98.42" width="5.62" height="5.62" fill="#db1943"/><rect x="30.98" y="92.8" width="5.62" height="5.62" fill="#eb3824"/><rect x="30.98" y="87.18" width="5.62" height="5.62" fill="#eb3824"/><rect x="30.98" y="81.56" width="5.62" height="5.62" fill="#eb3824"/><rect x="30.98" y="75.94" width="5.62" height="5.62" fill="#eb3824"/><rect x="30.98" y="70.32" width="5.62" height="5.62" fill="#eb3824"/><rect x="30.98" y="64.7" width="5.62" height="5.62" fill="#db1943"/><rect x="30.98" y="59.08" width="5.62" height="5.62" fill="#f9f2d4"/><rect x="30.98" y="53.46" width="5.62" height="5.62" fill="#1b0003"/><rect x="25.36" y="120.9" width="5.62" height="5.62" fill="#1b0003"/><rect x="25.36" y="115.28" width="5.62" height="5.62" fill="#ead0b9"/><rect x="25.36" y="109.66" width="5.62" height="5.62" fill="#b6294c"/><rect x="25.36" y="104.04" width="5.62" height="5.62" fill="#db1943"/><rect x="25.36" y="98.42" width="5.62" height="5.62" fill="#db1943"/><rect x="25.36" y="92.8" width="5.62" height="5.62" fill="#db1943"/><rect x="25.36" y="87.18" width="5.62" height="5.62" fill="#eb3824"/><rect x="25.36" y="81.56" width="5.62" height="5.62" fill="#eb3824"/><rect x="25.36" y="75.94" width="5.62" height="5.62" fill="#eb3824"/><rect x="25.36" y="70.32" width="5.62" height="5.62" fill="#eb3824"/><rect x="25.36" y="64.7" width="5.62" height="5.62" fill="#f9f2d4"/><rect x="25.36" y="59.08" width="5.62" height="5.62" fill="#1b0003"/><rect x="19.74" y="115.28" width="5.62" height="5.62" fill="#1b0003"/><rect x="19.74" y="109.66" width="5.62" height="5.62" fill="#f9f2d4"/><rect x="19.74" y="104.04" width="5.62" height="5.62" fill="#db1943"/><rect x="19.74" y="98.42" width="5.62" height="5.62" fill="#db1943"/><rect x="19.74" y="92.8" width="5.62" height="5.62" fill="#db1943"/><rect x="19.74" y="87.18" width="5.62" height="5.62" fill="#db1943"/><rect x="19.74" y="81.56" width="5.62" height="5.62" fill="#db1943"/><rect x="19.74" y="75.94" width="5.62" height="5.62" fill="#f9f2d4"/><rect x="19.74" y="70.32" width="5.62" height="5.62" fill="#f9f2d4"/><rect x="19.74" y="64.7" width="5.62" height="5.62" fill="#1b0003"/><rect x="14.12" y="109.66" width="5.62" height="5.62" fill="#1b0003"/><rect x="14.12" y="104.04" width="5.62" height="5.62" fill="#f9f2d4"/><rect x="14.12" y="98.42" width="5.62" height="5.62" fill="#f9f2d4"/><rect x="14.12" y="92.8" width="5.62" height="5.62" fill="#f9f2d4"/><rect x="14.12" y="87.18" width="5.62" height="5.62" fill="#f9f2d4"/><rect x="14.12" y="81.56" width="5.62" height="5.62" fill="#f9f2d4"/><rect x="14.12" y="75.94" width="5.62" height="5.62" fill="#1b0003"/><rect x="14.12" y="70.32" width="5.62" height="5.62" fill="#1b0003"/><rect x="8.5" y="104.04" width="5.62" height="5.62" fill="#1b0003"/><rect x="8.5" y="98.42" width="5.62" height="5.62" fill="#1b0003"/><rect x="8.5" y="92.8" width="5.62" height="5.62" fill="#1b0003"/><rect x="8.5" y="87.18" width="5.62" height="5.62" fill="#1b0003"/><rect x="8.5" y="81.56" width="5.62" height="5.62" fill="#1b0003"/></g></g></g></g></svg>