<svg xmlns="http://www.w3.org/2000/svg" width="128.51" height="133.36" viewBox="0 0 128.51 133.36"><g id="Layer_2" data-name="Layer 2"><g id="items"><g id="Shield2"><path d="M80,133.36H48.48v-4.85H38.79v-4.85H33.94v-4.85H29.09V114H24.24v-4.84H19.39v-4.85H14.54V99.42H9.7v-9.7H4.85V80H0V0H128.51V80h-4.85v9.69h-4.85v9.7H114v4.85h-4.84v4.85h-4.85V114H99.42v4.85H94.57v4.85H89.72v4.85H80ZM65.48,111.51h7.24v-4.85h4.85v-4.85h4.85V97h4.85V92.12h4.85V87.27H97V82.42h4.85v-9.7h4.85V63h4.85V17H17V63h4.85v9.69H26.7v9.7h4.84v4.85h4.85v4.85h4.85V97h4.85v4.85h4.85v4.85h4.85v4.85Z" fill="#fff"/><g id="Shield_2" data-name="Shield 2"><rect x="115.16" y="66.68" width="4.85" height="4.85" fill="#1b0003"/><rect x="115.16" y="61.83" width="4.85" height="4.85" fill="#1b0003"/><rect x="115.16" y="56.98" width="4.85" height="4.85" fill="#1b0003"/><rect x="115.16" y="52.13" width="4.85" height="4.85" fill="#1b0003"/><rect x="115.16" y="47.29" width="4.85" height="4.85" fill="#1b0003"/><rect x="115.16" y="42.44" width="4.85" height="4.85" fill="#1b0003"/><rect x="115.16" y="37.59" width="4.85" height="4.85" fill="#1b0003"/><rect x="115.16" y="32.74" width="4.85" height="4.85" fill="#1b0003"/><rect x="115.16" y="27.89" width="4.85" height="4.85" fill="#1b0003"/><rect x="115.16" y="23.04" width="4.85" height="4.85" fill="#1b0003"/><rect x="115.16" y="18.2" width="4.85" height="4.85" fill="#1b0003"/><rect x="115.16" y="13.35" width="4.85" height="4.85" fill="#1b0003"/><rect x="115.16" y="8.5" width="4.85" height="4.85" fill="#1b0003"/><rect x="110.31" y="76.37" width="4.85" height="4.85" fill="#1b0003"/><rect x="110.31" y="71.53" width="4.85" height="4.85" fill="#1b0003"/><rect x="110.31" y="66.68" width="4.85" height="4.85" fill="#223c5b"/><rect x="110.31" y="61.83" width="4.85" height="4.85" fill="#6a87af"/><rect x="110.31" y="56.98" width="4.85" height="4.85" fill="#6a87af"/><rect x="110.31" y="52.13" width="4.85" height="4.85" fill="#85a1c9"/><rect x="110.31" y="47.29" width="4.85" height="4.85" fill="#85a1c9"/><rect x="110.31" y="42.44" width="4.85" height="4.85" fill="#85a1c9"/><rect x="110.31" y="37.59" width="4.85" height="4.85" fill="#85a1c9"/><rect x="110.31" y="32.74" width="4.85" height="4.85" fill="#85a1c9"/><rect x="110.31" y="27.89" width="4.85" height="4.85" fill="#85a1c9"/><rect x="110.31" y="23.04" width="4.85" height="4.85" fill="#85a1c9"/><rect x="110.31" y="18.2" width="4.85" height="4.85" fill="#85a1c9"/><rect x="110.31" y="13.35" width="4.85" height="4.85" fill="#85a1c9"/><rect x="110.31" y="8.5" width="4.85" height="4.85" fill="#1b0003"/><rect x="105.46" y="86.07" width="4.85" height="4.85" fill="#1b0003"/><rect x="105.46" y="81.22" width="4.85" height="4.85" fill="#223c5b"/><rect x="105.46" y="76.37" width="4.85" height="4.85" fill="#6a87af"/><rect x="105.46" y="71.53" width="4.85" height="4.85" fill="#6a87af"/><rect x="105.46" y="66.68" width="4.85" height="4.85" fill="#6a87af"/><rect x="105.46" y="61.83" width="4.85" height="4.85" fill="#85a1c9"/><rect x="105.46" y="56.98" width="4.85" height="4.85" fill="#85a1c9"/><rect x="105.46" y="52.13" width="4.85" height="4.85" fill="#85a1c9"/><rect x="105.46" y="47.29" width="4.85" height="4.85" fill="#85a1c9"/><rect x="105.46" y="42.44" width="4.85" height="4.85" fill="#85a1c9"/><rect x="105.46" y="37.59" width="4.85" height="4.85" fill="#85a1c9"/><rect x="105.46" y="32.74" width="4.85" height="4.85" fill="#85a1c9"/><rect x="105.46" y="27.89" width="4.85" height="4.85" fill="#85a1c9"/><rect x="105.46" y="23.04" width="4.85" height="4.85" fill="#85a1c9"/><rect x="105.46" y="18.2" width="4.85" height="4.85" fill="#85a1c9"/><rect x="105.46" y="13.35" width="4.85" height="4.85" fill="#85a1c9"/><rect x="105.46" y="8.5" width="4.85" height="4.85" fill="#1b0003"/><rect x="100.62" y="90.92" width="4.85" height="4.85" fill="#1b0003"/><rect x="100.62" y="86.07" width="4.85" height="4.85" fill="#223c5b"/><rect x="100.62" y="81.22" width="4.85" height="4.85" fill="#6a87af"/><rect x="100.62" y="76.37" width="4.85" height="4.85" fill="#6a87af"/><rect x="100.62" y="71.53" width="4.85" height="4.85" fill="#85a1c9"/><rect x="100.62" y="66.68" width="4.85" height="4.85" fill="#85a1c9"/><rect x="100.62" y="61.83" width="4.85" height="4.85" fill="#85a1c9"/><rect x="100.62" y="56.98" width="4.85" height="4.85" fill="#85a1c9"/><rect x="100.62" y="52.13" width="4.85" height="4.85" fill="#85a1c9"/><rect x="100.62" y="47.29" width="4.85" height="4.85" fill="#85a1c9"/><rect x="100.62" y="42.44" width="4.85" height="4.85" fill="#85a1c9"/><rect x="100.62" y="37.59" width="4.85" height="4.85" fill="#85a1c9"/><rect x="100.62" y="32.74" width="4.85" height="4.85" fill="#85a1c9"/><rect x="100.62" y="27.89" width="4.85" height="4.85" fill="#85a1c9"/><rect x="100.62" y="23.04" width="4.85" height="4.85" fill="#85a1c9"/><rect x="100.62" y="18.2" width="4.85" height="4.85" fill="#85a1c9"/><rect x="100.62" y="13.35" width="4.85" height="4.85" fill="#6a87af"/><rect x="100.62" y="8.5" width="4.85" height="4.85" fill="#1b0003"/><rect x="95.77" y="95.77" width="4.85" height="4.85" fill="#1b0003"/><rect x="95.77" y="90.92" width="4.85" height="4.85" fill="#223c5b"/><rect x="95.77" y="86.07" width="4.85" height="4.85" fill="#6a87af"/><rect x="95.77" y="81.22" width="4.85" height="4.85" fill="#6a87af"/><rect x="95.77" y="76.37" width="4.85" height="4.85" fill="#85a1c9"/><rect x="95.77" y="71.53" width="4.85" height="4.85" fill="#85a1c9"/><rect x="95.77" y="66.68" width="4.85" height="4.85" fill="#85a1c9"/><rect x="95.77" y="61.83" width="4.85" height="4.85" fill="#85a1c9"/><rect x="95.77" y="56.98" width="4.85" height="4.85" fill="#85a1c9"/><rect x="95.77" y="52.13" width="4.85" height="4.85" fill="#85a1c9"/><rect x="95.77" y="47.29" width="4.85" height="4.85" fill="#85a1c9"/><rect x="95.77" y="42.44" width="4.85" height="4.85" fill="#85a1c9"/><rect x="95.77" y="37.59" width="4.85" height="4.85" fill="#85a1c9"/><rect x="95.77" y="32.74" width="4.85" height="4.85" fill="#85a1c9"/><rect x="95.77" y="27.89" width="4.85" height="4.85" fill="#85a1c9"/><rect x="95.77" y="23.04" width="4.85" height="4.85" fill="#85a1c9"/><rect x="95.77" y="18.2" width="4.85" height="4.85" fill="#6a87af"/><rect x="95.77" y="13.35" width="4.85" height="4.85" fill="#6a87af"/><rect x="95.77" y="8.5" width="4.85" height="4.85" fill="#1b0003"/><rect x="90.92" y="100.62" width="4.85" height="4.85" fill="#1b0003"/><rect x="90.92" y="95.77" width="4.85" height="4.85" fill="#223c5b"/><rect x="90.92" y="90.92" width="4.85" height="4.85" fill="#6a87af"/><rect x="90.92" y="86.07" width="4.85" height="4.85" fill="#85a1c9"/><rect x="90.92" y="81.22" width="4.85" height="4.85" fill="#85a1c9"/><rect x="90.92" y="76.37" width="4.85" height="4.85" fill="#85a1c9"/><rect x="90.92" y="71.53" width="4.85" height="4.85" fill="#85a1c9"/><rect x="90.92" y="66.68" width="4.85" height="4.85" fill="#85a1c9"/><rect x="90.92" y="61.83" width="4.85" height="4.85" fill="#85a1c9"/><rect x="90.92" y="56.98" width="4.85" height="4.85" fill="#85a1c9"/><rect x="90.92" y="52.13" width="4.85" height="4.85" fill="#85a1c9"/><rect x="90.92" y="47.29" width="4.85" height="4.85" fill="#85a1c9"/><rect x="90.92" y="42.44" width="4.85" height="4.85" fill="#85a1c9"/><rect x="90.92" y="37.59" width="4.85" height="4.85" fill="#85a1c9"/><rect x="90.92" y="32.74" width="4.85" height="4.85" fill="#85a1c9"/><rect x="90.92" y="27.89" width="4.85" height="4.85" fill="#85a1c9"/><rect x="90.92" y="23.04" width="4.85" height="4.85" fill="#6a87af"/><rect x="90.92" y="18.2" width="4.85" height="4.85" fill="#85a1c9"/><rect x="90.92" y="13.35" width="4.85" height="4.85" fill="#6a87af"/><rect x="90.92" y="8.5" width="4.85" height="4.85" fill="#1b0003"/><rect x="86.07" y="105.46" width="4.85" height="4.85" fill="#1b0003"/><rect x="86.07" y="100.62" width="4.85" height="4.85" fill="#223c5b"/><rect x="86.07" y="95.77" width="4.85" height="4.85" fill="#6a87af"/><rect x="86.07" y="90.92" width="4.85" height="4.85" fill="#6a87af"/><rect x="86.07" y="86.07" width="4.85" height="4.85" fill="#85a1c9"/><rect x="86.07" y="81.22" width="4.85" height="4.85" fill="#85a1c9"/><rect x="86.07" y="76.37" width="4.85" height="4.85" fill="#85a1c9"/><rect x="86.07" y="71.53" width="4.85" height="4.85" fill="#85a1c9"/><rect x="86.07" y="66.68" width="4.85" height="4.85" fill="#85a1c9"/><rect x="86.07" y="61.83" width="4.85" height="4.85" fill="#85a1c9"/><rect x="86.07" y="56.98" width="4.85" height="4.85" fill="#85a1c9"/><rect x="86.07" y="52.13" width="4.85" height="4.85" fill="#85a1c9"/><rect x="86.07" y="47.29" width="4.85" height="4.85" fill="#85a1c9"/><rect x="86.07" y="42.44" width="4.85" height="4.85" fill="#85a1c9"/><rect x="86.07" y="37.59" width="4.85" height="4.85" fill="#85a1c9"/><rect x="86.07" y="32.74" width="4.85" height="4.85" fill="#85a1c9"/><rect x="86.07" y="27.89" width="4.85" height="4.85" fill="#6a87af"/><rect x="86.07" y="23.04" width="4.85" height="4.85" fill="#85a1c9"/><rect x="86.07" y="18.2" width="4.85" height="4.85" fill="#6a87af"/><rect x="86.07" y="13.35" width="4.85" height="4.85" fill="#6a87af"/><rect x="86.07" y="8.5" width="4.85" height="4.85" fill="#1b0003"/><rect x="81.22" y="110.31" width="4.85" height="4.85" fill="#1b0003"/><rect x="81.22" y="105.46" width="4.85" height="4.85" fill="#223c5b"/><rect x="81.22" y="100.62" width="4.85" height="4.85" fill="#6a87af"/><rect x="81.22" y="95.77" width="4.85" height="4.85" fill="#6a87af"/><rect x="81.22" y="90.92" width="4.85" height="4.85" fill="#85a1c9"/><rect x="81.22" y="86.07" width="4.85" height="4.85" fill="#85a1c9"/><rect x="81.22" y="81.22" width="4.85" height="4.85" fill="#85a1c9"/><rect x="81.22" y="76.37" width="4.85" height="4.85" fill="#85a1c9"/><rect x="81.22" y="71.53" width="4.85" height="4.85" fill="#85a1c9"/><rect x="81.22" y="66.68" width="4.85" height="4.85" fill="#85a1c9"/><rect x="81.22" y="61.83" width="4.85" height="4.85" fill="#85a1c9"/><rect x="81.22" y="56.98" width="4.85" height="4.85" fill="#85a1c9"/><rect x="81.22" y="52.13" width="4.85" height="4.85" fill="#85a1c9"/><rect x="81.22" y="47.29" width="4.85" height="4.85" fill="#85a1c9"/><rect x="81.22" y="42.44" width="4.85" height="4.85" fill="#85a1c9"/><rect x="81.22" y="37.59" width="4.85" height="4.85" fill="#85a1c9"/><rect x="81.22" y="32.74" width="4.85" height="4.85" fill="#6a87af"/><rect x="81.22" y="27.89" width="4.85" height="4.85" fill="#85a1c9"/><rect x="81.22" y="23.04" width="4.85" height="4.85" fill="#6a87af"/><rect x="81.22" y="18.2" width="4.85" height="4.85" fill="#85a1c9"/><rect x="81.22" y="13.35" width="4.85" height="4.85" fill="#6a87af"/><rect x="81.22" y="8.5" width="4.85" height="4.85" fill="#1b0003"/><rect x="76.38" y="115.16" width="4.85" height="4.85" fill="#1b0003"/><rect x="76.38" y="110.31" width="4.85" height="4.85" fill="#223c5b"/><rect x="76.38" y="105.46" width="4.85" height="4.85" fill="#6a87af"/><rect x="76.38" y="100.62" width="4.85" height="4.85" fill="#6a87af"/><rect x="76.38" y="95.77" width="4.85" height="4.85" fill="#85a1c9"/><rect x="76.38" y="90.92" width="4.85" height="4.85" fill="#85a1c9"/><rect x="76.38" y="86.07" width="4.85" height="4.85" fill="#85a1c9"/><rect x="76.38" y="81.22" width="4.85" height="4.85" fill="#85a1c9"/><rect x="76.38" y="76.37" width="4.85" height="4.85" fill="#85a1c9"/><rect x="76.38" y="71.53" width="4.85" height="4.85" fill="#85a1c9"/><rect x="76.38" y="66.68" width="4.85" height="4.85" fill="#85a1c9"/><rect x="76.38" y="61.83" width="4.85" height="4.85" fill="#85a1c9"/><rect x="76.38" y="56.98" width="4.85" height="4.85" fill="#85a1c9"/><rect x="76.38" y="52.13" width="4.85" height="4.85" fill="#85a1c9"/><rect x="76.38" y="47.29" width="4.85" height="4.85" fill="#85a1c9"/><rect x="76.38" y="42.44" width="4.85" height="4.85" fill="#85a1c9"/><rect x="76.38" y="37.59" width="4.85" height="4.85" fill="#6a87af"/><rect x="76.38" y="32.74" width="4.85" height="4.85" fill="#85a1c9"/><rect x="76.38" y="27.89" width="4.85" height="4.85" fill="#6a87af"/><rect x="76.38" y="23.04" width="4.85" height="4.85" fill="#85a1c9"/><rect x="76.38" y="18.2" width="4.85" height="4.85" fill="#6a87af"/><rect x="76.38" y="13.35" width="4.85" height="4.85" fill="#6a87af"/><rect x="76.38" y="8.5" width="4.85" height="4.85" fill="#1b0003"/><rect x="71.53" y="115.16" width="4.85" height="4.85" fill="#1b0003"/><rect x="71.53" y="110.31" width="4.85" height="4.85" fill="#6a87af"/><rect x="71.53" y="105.46" width="4.85" height="4.85" fill="#6a87af"/><rect x="71.53" y="100.62" width="4.85" height="4.85" fill="#6a87af"/><rect x="71.53" y="95.77" width="4.85" height="4.85" fill="#85a1c9"/><rect x="71.53" y="90.92" width="4.85" height="4.85" fill="#85a1c9"/><rect x="71.53" y="86.07" width="4.85" height="4.85" fill="#85a1c9"/><rect x="71.53" y="81.22" width="4.85" height="4.85" fill="#85a1c9"/><rect x="71.53" y="76.37" width="4.85" height="4.85" fill="#85a1c9"/><rect x="71.53" y="71.53" width="4.85" height="4.85" fill="#85a1c9"/><rect x="71.53" y="66.68" width="4.85" height="4.85" fill="#85a1c9"/><rect x="71.53" y="61.83" width="4.85" height="4.85" fill="#85a1c9"/><rect x="71.53" y="56.98" width="4.85" height="4.85" fill="#85a1c9"/><rect x="71.53" y="52.13" width="4.85" height="4.85" fill="#85a1c9"/><rect x="71.53" y="47.29" width="4.85" height="4.85" fill="#85a1c9"/><rect x="71.53" y="42.44" width="4.85" height="4.85" fill="#6a87af"/><rect x="71.53" y="37.59" width="4.85" height="4.85" fill="#85a1c9"/><rect x="71.53" y="32.74" width="4.85" height="4.85" fill="#6a87af"/><rect x="71.53" y="27.89" width="4.85" height="4.85" fill="#85a1c9"/><rect x="71.53" y="23.04" width="4.85" height="4.85" fill="#6a87af"/><rect x="71.53" y="18.2" width="4.85" height="4.85" fill="#6a87af"/><rect x="71.53" y="13.35" width="4.85" height="4.85" fill="#cfefff"/><rect x="71.53" y="8.5" width="4.85" height="4.85" fill="#1b0003"/><rect x="66.68" y="120.01" width="4.85" height="4.85" fill="#1b0003"/><rect x="66.68" y="115.16" width="4.85" height="4.85" fill="#223c5b"/><rect x="66.68" y="110.31" width="4.85" height="4.85" fill="#6a87af"/><rect x="66.68" y="105.46" width="4.85" height="4.85" fill="#6a87af"/><rect x="66.68" y="100.62" width="4.85" height="4.85" fill="#85a1c9"/><rect x="66.68" y="95.77" width="4.85" height="4.85" fill="#85a1c9"/><rect x="66.68" y="90.92" width="4.85" height="4.85" fill="#85a1c9"/><rect x="66.68" y="86.07" width="4.85" height="4.85" fill="#85a1c9"/><rect x="66.68" y="81.22" width="4.85" height="4.85" fill="#6a87af"/><rect x="66.68" y="76.37" width="4.85" height="4.85" fill="#6a87af"/><rect x="66.68" y="71.53" width="4.85" height="4.85" fill="#6a87af"/><rect x="66.68" y="66.68" width="4.85" height="4.85" fill="#6a87af"/><rect x="66.68" y="61.83" width="4.85" height="4.85" fill="#6a87af"/><rect x="66.68" y="56.98" width="4.85" height="4.85" fill="#6a87af"/><rect x="66.68" y="52.13" width="4.85" height="4.85" fill="#6a87af"/><rect x="66.68" y="47.29" width="4.85" height="4.85" fill="#6a87af"/><rect x="66.68" y="42.44" width="4.85" height="4.85" fill="#6a87af"/><rect x="66.68" y="37.59" width="4.85" height="4.85" fill="#6a87af"/><rect x="66.68" y="32.74" width="4.85" height="4.85" fill="#6a87af"/><rect x="66.68" y="27.89" width="4.85" height="4.85" fill="#6a87af"/><rect x="66.68" y="23.04" width="4.85" height="4.85" fill="#6a87af"/><rect x="66.68" y="18.2" width="4.85" height="4.85" fill="#6a87af"/><rect x="66.68" y="13.35" width="4.85" height="4.85" fill="#cfefff"/><rect x="66.68" y="8.5" width="4.85" height="4.85" fill="#1b0003"/><rect x="61.83" y="120.01" width="4.85" height="4.85" fill="#1b0003"/><rect x="61.83" y="115.16" width="4.85" height="4.85" fill="#223c5b"/><rect x="61.83" y="110.31" width="4.85" height="4.85" fill="#6a87af"/><rect x="61.83" y="105.46" width="4.85" height="4.85" fill="#6a87af"/><rect x="61.83" y="100.62" width="4.85" height="4.85" fill="#6a87af"/><rect x="61.83" y="95.77" width="4.85" height="4.85" fill="#6a87af"/><rect x="61.83" y="90.92" width="4.85" height="4.85" fill="#6a87af"/><rect x="61.83" y="86.07" width="4.85" height="4.85" fill="#6a87af"/><rect x="61.83" y="81.22" width="4.85" height="4.85" fill="#6a87af"/><rect x="61.83" y="76.37" width="4.85" height="4.85" fill="#6a87af"/><rect x="61.83" y="71.53" width="4.85" height="4.85" fill="#6a87af"/><rect x="61.83" y="66.68" width="4.85" height="4.85" fill="#6a87af"/><rect x="61.83" y="61.83" width="4.85" height="4.85" fill="#6a87af"/><rect x="61.83" y="56.98" width="4.85" height="4.85" fill="#6a87af"/><rect x="61.83" y="52.13" width="4.85" height="4.85" fill="#6a87af"/><rect x="61.83" y="47.29" width="4.85" height="4.85" fill="#6a87af"/><rect x="61.83" y="42.44" width="4.85" height="4.85" fill="#6a87af"/><rect x="61.83" y="37.59" width="4.85" height="4.85" fill="#6a87af"/><rect x="61.83" y="32.74" width="4.85" height="4.85" fill="#6a87af"/><rect x="61.83" y="27.89" width="4.85" height="4.85" fill="#6a87af"/><rect x="61.83" y="23.04" width="4.85" height="4.85" fill="#6a87af"/><rect x="61.83" y="18.2" width="4.85" height="4.85" fill="#bedbed"/><rect x="61.83" y="13.35" width="4.85" height="4.85" fill="#cfefff"/><rect x="61.83" y="8.5" width="4.85" height="4.85" fill="#1b0003"/><rect x="56.98" y="120.01" width="4.85" height="4.85" fill="#1b0003"/><rect x="56.98" y="115.16" width="4.85" height="4.85" fill="#223c5b"/><rect x="56.98" y="110.31" width="4.85" height="4.85" fill="#bedbed"/><rect x="56.98" y="105.46" width="4.85" height="4.85" fill="#bedbed"/><rect x="56.98" y="100.62" width="4.85" height="4.85" fill="#bedbed"/><rect x="56.98" y="95.77" width="4.85" height="4.85" fill="#bedbed"/><rect x="56.98" y="90.92" width="4.85" height="4.85" fill="#bedbed"/><rect x="56.98" y="86.07" width="4.85" height="4.85" fill="#bedbed"/><rect x="56.98" y="81.22" width="4.85" height="4.85" fill="#bedbed"/><rect x="56.98" y="76.37" width="4.85" height="4.85" fill="#bedbed"/><rect x="56.98" y="71.53" width="4.85" height="4.85" fill="#bedbed"/><rect x="56.98" y="66.68" width="4.85" height="4.85" fill="#bedbed"/><rect x="56.98" y="61.83" width="4.85" height="4.85" fill="#bedbed"/><rect x="56.98" y="56.98" width="4.85" height="4.85" fill="#bedbed"/><rect x="56.98" y="52.13" width="4.85" height="4.85" fill="#bedbed"/><rect x="56.98" y="47.29" width="4.85" height="4.85" fill="#bedbed"/><rect x="56.98" y="42.44" width="4.85" height="4.85" fill="#bedbed"/><rect x="56.98" y="37.59" width="4.85" height="4.85" fill="#bedbed"/><rect x="56.98" y="32.74" width="4.85" height="4.85" fill="#bedbed"/><rect x="56.98" y="27.89" width="4.85" height="4.85" fill="#bedbed"/><rect x="56.98" y="23.04" width="4.85" height="4.85" fill="#bedbed"/><rect x="56.98" y="18.2" width="4.85" height="4.85" fill="#bedbed"/><rect x="56.98" y="13.35" width="4.85" height="4.85" fill="#cfefff"/><rect x="56.98" y="8.5" width="4.85" height="4.85" fill="#1b0003"/><rect x="52.13" y="115.16" width="4.85" height="4.85" fill="#1b0003"/><rect x="52.13" y="110.31" width="4.85" height="4.85" fill="#bedbed"/><rect x="52.13" y="105.46" width="4.85" height="4.85" fill="#bedbed"/><rect x="52.13" y="100.62" width="4.85" height="4.85" fill="#bedbed"/><rect x="52.13" y="95.77" width="4.85" height="4.85" fill="#bedbed"/><rect x="52.13" y="90.92" width="4.85" height="4.85" fill="#bedbed"/><rect x="52.13" y="86.07" width="4.85" height="4.85" fill="#bedbed"/><rect x="52.13" y="81.22" width="4.85" height="4.85" fill="#bedbed"/><rect x="52.13" y="76.37" width="4.85" height="4.85" fill="#bedbed"/><rect x="52.13" y="71.53" width="4.85" height="4.85" fill="#bedbed"/><rect x="52.13" y="66.68" width="4.85" height="4.85" fill="#bedbed"/><rect x="52.13" y="61.83" width="4.85" height="4.85" fill="#bedbed"/><rect x="52.13" y="56.98" width="4.85" height="4.85" fill="#bedbed"/><rect x="52.13" y="52.13" width="4.85" height="4.85" fill="#bedbed"/><rect x="52.13" y="47.29" width="4.85" height="4.85" fill="#bedbed"/><rect x="52.13" y="42.44" width="4.85" height="4.85" fill="#bedbed"/><rect x="52.13" y="37.59" width="4.85" height="4.85" fill="#bedbed"/><rect x="52.13" y="32.74" width="4.85" height="4.85" fill="#bedbed"/><rect x="52.13" y="27.89" width="4.85" height="4.85" fill="#bedbed"/><rect x="52.13" y="23.04" width="4.85" height="4.85" fill="#cfefff"/><rect x="52.13" y="18.2" width="4.85" height="4.85" fill="#cfefff"/><rect x="52.13" y="13.35" width="4.85" height="4.85" fill="#cfefff"/><rect x="52.13" y="8.5" width="4.85" height="4.85" fill="#1b0003"/><rect x="47.29" y="115.16" width="4.85" height="4.85" fill="#1b0003"/><rect x="47.29" y="110.31" width="4.85" height="4.85" fill="#bedbed"/><rect x="47.29" y="105.46" width="4.85" height="4.85" fill="#bedbed"/><rect x="47.29" y="100.62" width="4.85" height="4.85" fill="#bedbed"/><rect x="47.29" y="95.77" width="4.85" height="4.85" fill="#bedbed"/><rect x="47.29" y="90.92" width="4.85" height="4.85" fill="#bedbed"/><rect x="47.29" y="86.07" width="4.85" height="4.85" fill="#bedbed"/><rect x="47.29" y="81.22" width="4.85" height="4.85" fill="#bedbed"/><rect x="47.29" y="76.37" width="4.85" height="4.85" fill="#bedbed"/><rect x="47.29" y="71.53" width="4.85" height="4.85" fill="#bedbed"/><rect x="47.29" y="66.68" width="4.85" height="4.85" fill="#bedbed"/><rect x="47.29" y="61.83" width="4.85" height="4.85" fill="#bedbed"/><rect x="47.29" y="56.98" width="4.85" height="4.85" fill="#bedbed"/><rect x="47.29" y="52.13" width="4.85" height="4.85" fill="#bedbed"/><rect x="47.29" y="47.29" width="4.85" height="4.85" fill="#bedbed"/><rect x="47.29" y="42.44" width="4.85" height="4.85" fill="#bedbed"/><rect x="47.29" y="37.59" width="4.85" height="4.85" fill="#bedbed"/><rect x="47.29" y="32.74" width="4.85" height="4.85" fill="#bedbed"/><rect x="47.29" y="27.89" width="4.85" height="4.85" fill="#cfefff"/><rect x="47.29" y="23.04" width="4.85" height="4.85" fill="#cfefff"/><rect x="47.29" y="18.2" width="4.85" height="4.85" fill="#bedbed"/><rect x="47.29" y="13.35" width="4.85" height="4.85" fill="#cfefff"/><rect x="47.29" y="8.5" width="4.85" height="4.85" fill="#1b0003"/><rect x="42.44" y="42.44" width="4.85" height="4.85" fill="#bedbed"/><rect x="42.44" y="37.59" width="4.85" height="4.85" fill="#bedbed"/><rect x="42.44" y="32.74" width="4.85" height="4.85" fill="#cfefff"/><rect x="42.44" y="27.89" width="4.85" height="4.85" fill="#bedbed"/><rect x="42.44" y="23.04" width="4.85" height="4.85" fill="#cfefff"/><rect x="42.44" y="18.2" width="4.85" height="4.85" fill="#cfefff"/><rect x="42.44" y="13.35" width="4.85" height="4.85" fill="#cfefff"/><rect x="42.44" y="8.5" width="4.85" height="4.85" fill="#1b0003"/><rect x="42.44" y="110.31" width="4.85" height="4.85" fill="#1b0003"/><rect x="42.44" y="105.46" width="4.85" height="4.85" fill="#bedbed"/><rect x="42.44" y="100.62" width="4.85" height="4.85" fill="#bedbed"/><rect x="42.44" y="95.77" width="4.85" height="4.85" fill="#bedbed"/><rect x="42.44" y="90.92" width="4.85" height="4.85" fill="#bedbed"/><rect x="42.44" y="86.07" width="4.85" height="4.85" fill="#bedbed"/><rect x="42.44" y="81.22" width="4.85" height="4.85" fill="#bedbed"/><rect x="42.44" y="76.37" width="4.85" height="4.85" fill="#bedbed"/><rect x="42.44" y="71.53" width="4.85" height="4.85" fill="#bedbed"/><rect x="42.44" y="66.68" width="4.85" height="4.85" fill="#bedbed"/><rect x="42.44" y="61.83" width="4.85" height="4.85" fill="#bedbed"/><rect x="42.44" y="56.98" width="4.85" height="4.85" fill="#bedbed"/><rect x="42.44" y="52.13" width="4.85" height="4.85" fill="#bedbed"/><rect x="42.44" y="47.29" width="4.85" height="4.85" fill="#bedbed"/><rect x="37.59" y="47.29" width="4.85" height="4.85" fill="#cfefff"/><rect x="37.59" y="42.44" width="4.85" height="4.85" fill="#cfefff"/><rect x="37.59" y="37.59" width="4.85" height="4.85" fill="#cfefff"/><rect x="37.59" y="32.74" width="4.85" height="4.85" fill="#cfefff"/><rect x="37.59" y="27.89" width="4.85" height="4.85" fill="#cfefff"/><rect x="37.59" y="23.04" width="4.85" height="4.85" fill="#cfefff"/><rect x="37.59" y="18.2" width="4.85" height="4.85" fill="#cfefff"/><rect x="37.59" y="13.35" width="4.85" height="4.85" fill="#cfefff"/><rect x="37.59" y="8.5" width="4.85" height="4.85" fill="#1b0003"/><rect x="37.59" y="105.46" width="4.85" height="4.85" fill="#1b0003"/><rect x="37.59" y="100.62" width="4.85" height="4.85" fill="#cfefff"/><rect x="37.59" y="95.77" width="4.85" height="4.85" fill="#cfefff"/><rect x="37.59" y="90.92" width="4.85" height="4.85" fill="#cfefff"/><rect x="37.59" y="86.07" width="4.85" height="4.85" fill="#cfefff"/><rect x="37.59" y="81.22" width="4.85" height="4.85" fill="#cfefff"/><rect x="37.59" y="76.37" width="4.85" height="4.85" fill="#cfefff"/><rect x="37.59" y="71.53" width="4.85" height="4.85" fill="#cfefff"/><rect x="37.59" y="66.68" width="4.85" height="4.85" fill="#cfefff"/><rect x="37.59" y="61.83" width="4.85" height="4.85" fill="#cfefff"/><rect x="37.59" y="56.98" width="4.85" height="4.85" fill="#cfefff"/><rect x="37.59" y="52.13" width="4.85" height="4.85" fill="#cfefff"/><rect x="32.74" y="47.29" width="4.85" height="4.85" fill="#cfefff"/><rect x="32.74" y="42.44" width="4.85" height="4.85" fill="#cfefff"/><rect x="32.74" y="37.59" width="4.85" height="4.85" fill="#cfefff"/><rect x="32.74" y="32.74" width="4.85" height="4.85" fill="#cfefff"/><rect x="32.74" y="27.89" width="4.85" height="4.85" fill="#cfefff"/><rect x="32.74" y="23.04" width="4.85" height="4.85" fill="#cfefff"/><rect x="32.74" y="18.2" width="4.85" height="4.85" fill="#cfefff"/><rect x="32.74" y="13.35" width="4.85" height="4.85" fill="#cfefff"/><rect x="32.74" y="8.5" width="4.85" height="4.85" fill="#1b0003"/><rect x="32.74" y="100.62" width="4.85" height="4.85" fill="#1b0003"/><rect x="32.74" y="95.77" width="4.85" height="4.85" fill="#bedbed"/><rect x="32.74" y="90.92" width="4.85" height="4.85" fill="#bedbed"/><rect x="32.74" y="86.07" width="4.85" height="4.85" fill="#bedbed"/><rect x="32.74" y="81.22" width="4.85" height="4.85" fill="#bedbed"/><rect x="32.74" y="76.37" width="4.85" height="4.85" fill="#bedbed"/><rect x="32.74" y="71.53" width="4.85" height="4.85" fill="#bedbed"/><rect x="32.74" y="66.68" width="4.85" height="4.85" fill="#cfefff"/><rect x="32.74" y="61.83" width="4.85" height="4.85" fill="#cfefff"/><rect x="32.74" y="56.98" width="4.85" height="4.85" fill="#cfefff"/><rect x="32.74" y="52.13" width="4.85" height="4.85" fill="#cfefff"/><rect x="27.89" y="47.29" width="4.85" height="4.85" fill="#bedbed"/><rect x="27.89" y="42.44" width="4.85" height="4.85" fill="#bedbed"/><rect x="27.89" y="37.59" width="4.85" height="4.85" fill="#cfefff"/><rect x="27.89" y="32.74" width="4.85" height="4.85" fill="#bedbed"/><rect x="27.89" y="27.89" width="4.85" height="4.85" fill="#cfefff"/><rect x="27.89" y="23.04" width="4.85" height="4.85" fill="#cfefff"/><rect x="27.89" y="18.2" width="4.85" height="4.85" fill="#cfefff"/><rect x="27.89" y="13.35" width="4.85" height="4.85" fill="#cfefff"/><rect x="27.89" y="8.5" width="4.85" height="4.85" fill="#1b0003"/><rect x="27.89" y="95.77" width="4.85" height="4.85" fill="#1b0003"/><rect x="27.89" y="90.92" width="4.85" height="4.85" fill="#bedbed"/><rect x="27.89" y="86.07" width="4.85" height="4.85" fill="#bedbed"/><rect x="27.89" y="81.22" width="4.85" height="4.85" fill="#bedbed"/><rect x="27.89" y="76.37" width="4.85" height="4.85" fill="#bedbed"/><rect x="27.89" y="71.53" width="4.85" height="4.85" fill="#bedbed"/><rect x="27.89" y="66.68" width="4.85" height="4.85" fill="#bedbed"/><rect x="27.89" y="61.83" width="4.85" height="4.85" fill="#bedbed"/><rect x="27.89" y="56.98" width="4.85" height="4.85" fill="#bedbed"/><rect x="27.89" y="52.13" width="4.85" height="4.85" fill="#bedbed"/><rect x="23.05" y="47.29" width="4.85" height="4.85" fill="#bedbed"/><rect x="23.05" y="42.44" width="4.85" height="4.85" fill="#bedbed"/><rect x="23.05" y="37.59" width="4.85" height="4.85" fill="#bedbed"/><rect x="23.05" y="32.74" width="4.85" height="4.85" fill="#cfefff"/><rect x="23.05" y="27.89" width="4.85" height="4.85" fill="#bedbed"/><rect x="23.05" y="23.04" width="4.85" height="4.85" fill="#cfefff"/><rect x="23.05" y="18.2" width="4.85" height="4.85" fill="#cfefff"/><rect x="23.05" y="13.35" width="4.85" height="4.85" fill="#cfefff"/><rect x="23.05" y="8.5" width="4.85" height="4.85" fill="#1b0003"/><rect x="23.05" y="90.92" width="4.85" height="4.85" fill="#1b0003"/><rect x="23.05" y="86.07" width="4.85" height="4.85" fill="#bedbed"/><rect x="23.05" y="81.22" width="4.85" height="4.85" fill="#bedbed"/><rect x="23.05" y="76.37" width="4.85" height="4.85" fill="#bedbed"/><rect x="23.05" y="71.53" width="4.85" height="4.85" fill="#bedbed"/><rect x="23.05" y="66.68" width="4.85" height="4.85" fill="#bedbed"/><rect x="23.05" y="61.83" width="4.85" height="4.85" fill="#bedbed"/><rect x="23.05" y="56.98" width="4.85" height="4.85" fill="#bedbed"/><rect x="23.05" y="52.13" width="4.85" height="4.85" fill="#bedbed"/><rect x="18.2" y="47.29" width="4.85" height="4.85" fill="#bedbed"/><rect x="18.2" y="42.44" width="4.85" height="4.85" fill="#bedbed"/><rect x="18.2" y="37.59" width="4.85" height="4.85" fill="#cfefff"/><rect x="18.2" y="32.74" width="4.85" height="4.85" fill="#bedbed"/><rect x="18.2" y="27.89" width="4.85" height="4.85" fill="#cfefff"/><rect x="18.2" y="23.04" width="4.85" height="4.85" fill="#cfefff"/><rect x="18.2" y="18.2" width="4.85" height="4.85" fill="#cfefff"/><rect x="18.2" y="13.35" width="4.85" height="4.85" fill="#cfefff"/><rect x="18.2" y="8.5" width="4.85" height="4.85" fill="#1b0003"/><rect x="18.2" y="86.07" width="4.85" height="4.85" fill="#1b0003"/><rect x="18.2" y="81.22" width="4.85" height="4.85" fill="#1b0003"/><rect x="18.2" y="76.37" width="4.85" height="4.85" fill="#bedbed"/><rect x="18.2" y="71.53" width="4.85" height="4.85" fill="#bedbed"/><rect x="18.2" y="66.68" width="4.85" height="4.85" fill="#bedbed"/><rect x="18.2" y="61.83" width="4.85" height="4.85" fill="#bedbed"/><rect x="18.2" y="56.98" width="4.85" height="4.85" fill="#bedbed"/><rect x="18.2" y="52.13" width="4.85" height="4.85" fill="#bedbed"/><rect x="13.35" y="47.29" width="4.85" height="4.85" fill="#bedbed"/><rect x="13.35" y="42.44" width="4.85" height="4.85" fill="#bedbed"/><rect x="13.35" y="37.59" width="4.85" height="4.85" fill="#bedbed"/><rect x="13.35" y="32.74" width="4.85" height="4.85" fill="#cfefff"/><rect x="13.35" y="27.89" width="4.85" height="4.85" fill="#cfefff"/><rect x="13.35" y="23.04" width="4.85" height="4.85" fill="#cfefff"/><rect x="13.35" y="18.2" width="4.85" height="4.85" fill="#cfefff"/><rect x="13.35" y="13.35" width="4.85" height="4.85" fill="#cfefff"/><rect x="13.35" y="8.5" width="4.85" height="4.85" fill="#1b0003"/><rect x="13.35" y="76.37" width="4.85" height="4.85" fill="#1b0003"/><rect x="13.35" y="71.53" width="4.85" height="4.85" fill="#1b0003"/><rect x="13.35" y="66.68" width="4.85" height="4.85" fill="#bedbed"/><rect x="13.35" y="61.83" width="4.85" height="4.85" fill="#bedbed"/><rect x="13.35" y="56.98" width="4.85" height="4.85" fill="#bedbed"/><rect x="13.35" y="52.13" width="4.85" height="4.85" fill="#bedbed"/><rect x="8.5" y="47.29" width="4.85" height="4.85" fill="#1b0003"/><rect x="8.5" y="42.44" width="4.85" height="4.85" fill="#1b0003"/><rect x="8.5" y="37.59" width="4.85" height="4.85" fill="#1b0003"/><rect x="8.5" y="32.74" width="4.85" height="4.85" fill="#1b0003"/><rect x="8.5" y="27.89" width="4.85" height="4.85" fill="#1b0003"/><rect x="8.5" y="23.04" width="4.85" height="4.85" fill="#1b0003"/><rect x="8.5" y="18.2" width="4.85" height="4.85" fill="#1b0003"/><rect x="8.5" y="13.35" width="4.85" height="4.85" fill="#1b0003"/><rect x="8.5" y="8.5" width="4.85" height="4.85" fill="#1b0003"/><rect x="8.5" y="66.68" width="4.85" height="4.85" fill="#1b0003"/><rect x="8.5" y="61.83" width="4.85" height="4.85" fill="#1b0003"/><rect x="8.5" y="56.98" width="4.85" height="4.85" fill="#1b0003"/><rect x="8.5" y="52.13" width="4.85" height="4.85" fill="#1b0003"/></g></g></g></g></svg>