<svg xmlns="http://www.w3.org/2000/svg" width="151.36" height="138.35" viewBox="0 0 151.36 138.35"><g id="Layer_2" data-name="Layer 2"><g id="items"><g id="Silver_Key" data-name="Silver Key"><path d="M43,138.35H21.67V134H17.34v-4.33H13v-4.34H8.67V121H4.33v-4.34H0V95.35H4.33V91H8.67V86.68H13V82.35h4.34V78h4.33V73.68H26V69.34h4.34V65h4.33V60.68H56V65h4.67V60.68H65V56.34h4.33V21.67h4.34V13H78V8.67h4.34V4.33H91V0h38.68V4.33h8.66V8.67h4.34V13H147v8.67h4.34V60.34H147V69h-4.33v4.33h-4.34v4.34h-8.66V82H95v4.33H90.68v4.34H86.34V95H82v4.34H77.68v4.33H73.34V108H69v4.34H64.67v4.33H60.34V121H56v4.33H51.67v4.34H47.34V134H43ZM43,104h.34v-.34H43ZM56,91h.33v-.33H56Zm52-26h4.68v-.34H108ZM90.68,60.68H91v-.34h-.33Zm17.33-13h4.68V43.34H117V38.67h-4.33V34.34H108v4.33h-4.33v4.67H108Zm26-4.33h.34V38.67H134Zm-47.68,0h.34V38.67h-.34Zm21.67-26h4.68V17H108Z" fill="#fff"/><g id="Silver_Key-2" data-name="Silver Key"><rect x="8.5" y="103.85" width="4.33" height="4.33" fill="#1b0003"/><rect x="12.83" y="108.18" width="4.33" height="4.33" fill="#1b0003"/><rect x="12.83" y="103.85" width="4.33" height="4.33" fill="#223c5b"/><rect x="12.83" y="99.51" width="4.33" height="4.33" fill="#1b0003"/><rect x="17.17" y="112.52" width="4.33" height="4.33" fill="#1b0003"/><rect x="17.17" y="108.18" width="4.33" height="4.33" fill="#223c5b"/><rect x="17.17" y="103.85" width="4.33" height="4.33" fill="#223c5b"/><rect x="17.17" y="99.51" width="4.33" height="4.33" fill="#cfefff"/><rect x="17.17" y="95.18" width="4.33" height="4.33" fill="#1b0003"/><rect x="21.5" y="116.85" width="4.33" height="4.33" fill="#1b0003"/><rect x="21.5" y="112.52" width="4.33" height="4.33" fill="#223c5b"/><rect x="21.5" y="108.18" width="4.33" height="4.33" fill="#223c5b"/><rect x="21.5" y="103.85" width="4.33" height="4.33" fill="#cfefff"/><rect x="21.5" y="99.51" width="4.33" height="4.33" fill="#1b0003"/><rect x="21.5" y="90.85" width="4.33" height="4.33" fill="#1b0003"/><rect x="25.84" y="121.19" width="4.33" height="4.33" fill="#1b0003"/><rect x="25.84" y="116.85" width="4.33" height="4.33" fill="#223c5b"/><rect x="25.84" y="112.52" width="4.33" height="4.33" fill="#223c5b"/><rect x="25.84" y="108.18" width="4.33" height="4.33" fill="#cfefff"/><rect x="25.84" y="103.85" width="4.33" height="4.33" fill="#1b0003"/><rect x="25.84" y="95.18" width="4.33" height="4.33" fill="#1b0003"/><rect x="25.84" y="90.85" width="4.33" height="4.33" fill="#223c5b"/><rect x="25.84" y="86.51" width="4.33" height="4.33" fill="#1b0003"/><rect x="30.17" y="125.52" width="4.33" height="4.33" fill="#1b0003"/><rect x="30.17" y="121.19" width="4.33" height="4.33" fill="#223c5b"/><rect x="30.17" y="116.85" width="4.33" height="4.33" fill="#223c5b"/><rect x="30.17" y="112.52" width="4.33" height="4.33" fill="#85a1c9"/><rect x="30.17" y="108.18" width="4.33" height="4.33" fill="#1b0003"/><rect x="30.17" y="99.51" width="4.33" height="4.33" fill="#1b0003"/><rect x="30.17" y="95.18" width="4.33" height="4.33" fill="#223c5b"/><rect x="30.17" y="90.85" width="4.33" height="4.33" fill="#85a1c9"/><rect x="30.17" y="86.51" width="4.33" height="4.33" fill="#cfefff"/><rect x="30.17" y="82.18" width="4.33" height="4.33" fill="#1b0003"/><rect x="34.5" y="121.19" width="4.33" height="4.33" fill="#1b0003"/><rect x="34.5" y="116.85" width="4.33" height="4.33" fill="#223c5b"/><rect x="34.5" y="112.52" width="4.33" height="4.33" fill="#6a87af"/><rect x="34.5" y="108.18" width="4.33" height="4.33" fill="#85a1c9"/><rect x="34.5" y="103.85" width="4.33" height="4.33" fill="#1b0003"/><rect x="34.5" y="99.51" width="4.33" height="4.33" fill="#223c5b"/><rect x="34.5" y="95.18" width="4.33" height="4.33" fill="#85a1c9"/><rect x="34.5" y="90.85" width="4.33" height="4.33" fill="#cfefff"/><rect x="34.5" y="86.51" width="4.33" height="4.33" fill="#1b0003"/><rect x="34.5" y="77.84" width="4.33" height="4.33" fill="#1b0003"/><rect x="38.84" y="116.85" width="4.33" height="4.33" fill="#1b0003"/><rect x="38.84" y="112.52" width="4.33" height="4.33" fill="#6a87af"/><rect x="38.84" y="108.18" width="4.33" height="4.33" fill="#6a87af"/><rect x="38.84" y="103.85" width="4.33" height="4.33" fill="#85a1c9"/><rect x="38.84" y="99.51" width="4.33" height="4.33" fill="#223c5b"/><rect x="38.84" y="95.18" width="4.33" height="4.33" fill="#cfefff"/><rect x="38.84" y="90.85" width="4.33" height="4.33" fill="#1b0003"/><rect x="38.84" y="82.18" width="4.33" height="4.33" fill="#1b0003"/><rect x="38.84" y="77.84" width="4.33" height="4.33" fill="#223c5b"/><rect x="38.84" y="73.51" width="4.33" height="4.33" fill="#1b0003"/><rect x="43.17" y="112.52" width="4.33" height="4.33" fill="#1b0003"/><rect x="43.17" y="108.18" width="4.33" height="4.33" fill="#6a87af"/><rect x="43.17" y="103.85" width="4.33" height="4.33" fill="#6a87af"/><rect x="43.17" y="99.51" width="4.33" height="4.33" fill="#85a1c9"/><rect x="43.17" y="95.18" width="4.33" height="4.33" fill="#1b0003"/><rect x="43.17" y="86.51" width="4.33" height="4.33" fill="#1b0003"/><rect x="43.17" y="82.18" width="4.33" height="4.33" fill="#223c5b"/><rect x="43.17" y="77.84" width="4.33" height="4.33" fill="#85a1c9"/><rect x="43.17" y="73.51" width="4.33" height="4.33" fill="#cfefff"/><rect x="43.17" y="69.18" width="4.33" height="4.33" fill="#1b0003"/><rect x="47.51" y="108.18" width="4.33" height="4.33" fill="#1b0003"/><rect x="47.51" y="103.85" width="4.33" height="4.33" fill="#6a87af"/><rect x="47.51" y="99.51" width="4.33" height="4.33" fill="#6a87af"/><rect x="47.51" y="95.18" width="4.33" height="4.33" fill="#85a1c9"/><rect x="47.51" y="90.85" width="4.33" height="4.33" fill="#1b0003"/><rect x="47.51" y="86.51" width="4.33" height="4.33" fill="#223c5b"/><rect x="47.51" y="82.18" width="4.33" height="4.33" fill="#85a1c9"/><rect x="47.51" y="77.84" width="4.33" height="4.33" fill="#cfefff"/><rect x="47.51" y="73.51" width="4.33" height="4.33" fill="#1b0003"/><rect x="51.84" y="103.85" width="4.33" height="4.33" fill="#1b0003"/><rect x="51.84" y="99.51" width="4.33" height="4.33" fill="#6a87af"/><rect x="51.84" y="95.18" width="4.33" height="4.33" fill="#6a87af"/><rect x="51.84" y="90.85" width="4.33" height="4.33" fill="#85a1c9"/><rect x="51.84" y="86.51" width="4.33" height="4.33" fill="#223c5b"/><rect x="51.84" y="82.18" width="4.33" height="4.33" fill="#cfefff"/><rect x="51.84" y="77.84" width="4.33" height="4.33" fill="#1b0003"/><rect x="56.17" y="99.51" width="4.33" height="4.33" fill="#1b0003"/><rect x="56.17" y="95.18" width="4.33" height="4.33" fill="#6a87af"/><rect x="56.17" y="90.85" width="4.33" height="4.33" fill="#6a87af"/><rect x="56.17" y="86.51" width="4.33" height="4.33" fill="#85a1c9"/><rect x="56.17" y="82.18" width="4.33" height="4.33" fill="#1b0003"/><rect x="60.51" y="95.18" width="4.33" height="4.33" fill="#1b0003"/><rect x="60.51" y="90.85" width="4.33" height="4.33" fill="#6a87af"/><rect x="60.51" y="86.51" width="4.33" height="4.33" fill="#6a87af"/><rect x="60.51" y="82.18" width="4.33" height="4.33" fill="#85a1c9"/><rect x="60.51" y="77.84" width="4.33" height="4.33" fill="#1b0003"/><rect x="64.84" y="90.85" width="4.33" height="4.33" fill="#1b0003"/><rect x="64.84" y="86.51" width="4.33" height="4.33" fill="#6a87af"/><rect x="64.84" y="82.18" width="4.33" height="4.33" fill="#6a87af"/><rect x="64.84" y="77.84" width="4.33" height="4.33" fill="#85a1c9"/><rect x="64.84" y="73.51" width="4.33" height="4.33" fill="#1b0003"/><rect x="69.18" y="86.51" width="4.33" height="4.33" fill="#1b0003"/><rect x="69.18" y="82.18" width="4.33" height="4.33" fill="#6a87af"/><rect x="69.18" y="77.84" width="4.33" height="4.33" fill="#6a87af"/><rect x="69.18" y="73.51" width="4.33" height="4.33" fill="#85a1c9"/><rect x="69.18" y="69.18" width="4.33" height="4.33" fill="#1b0003"/><rect x="73.51" y="82.18" width="4.33" height="4.33" fill="#1b0003"/><rect x="73.51" y="77.84" width="4.33" height="4.33" fill="#6a87af"/><rect x="73.51" y="73.51" width="4.33" height="4.33" fill="#6a87af"/><rect x="73.51" y="69.18" width="4.33" height="4.33" fill="#85a1c9"/><rect x="73.51" y="64.84" width="4.33" height="4.33" fill="#1b0003"/><rect x="77.84" y="77.84" width="4.33" height="4.33" fill="#1b0003"/><rect x="77.84" y="73.51" width="4.33" height="4.33" fill="#6a87af"/><rect x="77.84" y="69.18" width="4.33" height="4.33" fill="#6a87af"/><rect x="77.84" y="64.84" width="4.33" height="4.33" fill="#cfefff"/><rect x="77.84" y="60.51" width="4.33" height="4.33" fill="#1b0003"/><rect x="77.84" y="47.51" width="4.33" height="4.33" fill="#1b0003"/><rect x="77.84" y="43.17" width="4.33" height="4.33" fill="#1b0003"/><rect x="77.84" y="38.84" width="4.33" height="4.33" fill="#1b0003"/><rect x="77.84" y="34.5" width="4.33" height="4.33" fill="#1b0003"/><rect x="77.84" y="30.17" width="4.33" height="4.33" fill="#1b0003"/><rect x="82.18" y="73.51" width="4.33" height="4.33" fill="#1b0003"/><rect x="82.18" y="69.18" width="4.33" height="4.33" fill="#6a87af"/><rect x="82.18" y="64.84" width="4.33" height="4.33" fill="#6a87af"/><rect x="82.18" y="60.51" width="4.33" height="4.33" fill="#cfefff"/><rect x="82.18" y="56.17" width="4.33" height="4.33" fill="#1b0003"/><rect x="82.18" y="51.84" width="4.33" height="4.33" fill="#1b0003"/><rect x="82.18" y="47.51" width="4.33" height="4.33" fill="#223c5b"/><rect x="82.18" y="43.17" width="4.33" height="4.33" fill="#223c5b"/><rect x="82.18" y="38.84" width="4.33" height="4.33" fill="#223c5b"/><rect x="82.18" y="34.5" width="4.33" height="4.33" fill="#223c5b"/><rect x="82.18" y="30.17" width="4.33" height="4.33" fill="#223c5b"/><rect x="82.18" y="25.84" width="4.33" height="4.33" fill="#1b0003"/><rect x="82.18" y="21.5" width="4.33" height="4.33" fill="#1b0003"/><rect x="86.51" y="69.18" width="4.33" height="4.33" fill="#1b0003"/><rect x="86.51" y="64.84" width="4.33" height="4.33" fill="#6a87af"/><rect x="86.51" y="60.51" width="4.33" height="4.33" fill="#6a87af"/><rect x="86.51" y="56.17" width="4.33" height="4.33" fill="#6a87af"/><rect x="86.51" y="51.84" width="4.33" height="4.33" fill="#223c5b"/><rect x="86.51" y="47.51" width="4.33" height="4.33" fill="#cfefff"/><rect x="86.51" y="43.17" width="4.33" height="4.33" fill="#cfefff"/><rect x="86.51" y="38.84" width="4.33" height="4.33" fill="#cfefff"/><rect x="86.51" y="34.5" width="4.33" height="4.33" fill="#6a87af"/><rect x="86.51" y="30.17" width="4.33" height="4.33" fill="#6a87af"/><rect x="86.51" y="25.84" width="4.33" height="4.33" fill="#85a1c9"/><rect x="86.51" y="21.5" width="4.33" height="4.33" fill="#85a1c9"/><rect x="86.51" y="17.17" width="4.33" height="4.33" fill="#1b0003"/><rect x="90.85" y="64.84" width="4.33" height="4.33" fill="#1b0003"/><rect x="90.85" y="60.51" width="4.33" height="4.33" fill="#223c5b"/><rect x="90.85" y="56.17" width="4.33" height="4.33" fill="#6a87af"/><rect x="90.85" y="51.84" width="4.33" height="4.33" fill="#cfefff"/><rect x="90.85" y="47.51" width="4.33" height="4.33" fill="#1b0003"/><rect x="90.85" y="43.17" width="4.33" height="4.33" fill="#1b0003"/><rect x="90.85" y="38.84" width="4.33" height="4.33" fill="#1b0003"/><rect x="90.85" y="34.5" width="4.33" height="4.33" fill="#1b0003"/><rect x="90.85" y="30.17" width="4.33" height="4.33" fill="#1b0003"/><rect x="90.85" y="25.84" width="4.33" height="4.33" fill="#85a1c9"/><rect x="90.85" y="21.5" width="4.33" height="4.33" fill="#85a1c9"/><rect x="90.85" y="17.17" width="4.33" height="4.33" fill="#85a1c9"/><rect x="90.85" y="12.83" width="4.33" height="4.33" fill="#1b0003"/><rect x="95.18" y="64.84" width="4.33" height="4.33" fill="#1b0003"/><rect x="95.18" y="60.51" width="4.33" height="4.33" fill="#223c5b"/><rect x="95.18" y="56.17" width="4.33" height="4.33" fill="#cfefff"/><rect x="95.18" y="51.84" width="4.33" height="4.33" fill="#1b0003"/><rect x="95.18" y="25.84" width="4.33" height="4.33" fill="#1b0003"/><rect x="95.18" y="21.5" width="4.33" height="4.33" fill="#85a1c9"/><rect x="95.18" y="17.17" width="4.33" height="4.33" fill="#85a1c9"/><rect x="95.18" y="12.83" width="4.33" height="4.33" fill="#1b0003"/><rect x="99.51" y="69.18" width="4.33" height="4.33" fill="#1b0003"/><rect x="99.51" y="64.84" width="4.33" height="4.33" fill="#223c5b"/><rect x="99.51" y="60.51" width="4.33" height="4.33" fill="#cfefff"/><rect x="99.51" y="56.17" width="4.33" height="4.33" fill="#1b0003"/><rect x="99.51" y="21.5" width="4.33" height="4.33" fill="#1b0003"/><rect x="99.51" y="17.17" width="4.33" height="4.33" fill="#85a1c9"/><rect x="99.51" y="12.83" width="4.33" height="4.33" fill="#cfefff"/><rect x="99.51" y="8.5" width="4.33" height="4.33" fill="#1b0003"/><rect x="103.85" y="69.18" width="4.33" height="4.33" fill="#1b0003"/><rect x="103.85" y="64.84" width="4.33" height="4.33" fill="#223c5b"/><rect x="103.85" y="60.51" width="4.33" height="4.33" fill="#cfefff"/><rect x="103.85" y="56.17" width="4.33" height="4.33" fill="#1b0003"/><rect x="103.85" y="21.5" width="4.33" height="4.33" fill="#1b0003"/><rect x="103.85" y="17.17" width="4.33" height="4.33" fill="#85a1c9"/><rect x="103.85" y="12.83" width="4.33" height="4.33" fill="#cfefff"/><rect x="103.85" y="8.5" width="4.33" height="4.33" fill="#1b0003"/><rect x="108.18" y="69.18" width="4.33" height="4.33" fill="#1b0003"/><rect x="108.18" y="64.84" width="4.33" height="4.33" fill="#223c5b"/><rect x="108.18" y="60.51" width="4.33" height="4.33" fill="#cfefff"/><rect x="108.18" y="56.17" width="4.33" height="4.33" fill="#1b0003"/><rect x="108.18" y="21.5" width="4.33" height="4.33" fill="#1b0003"/><rect x="108.18" y="17.17" width="4.33" height="4.33" fill="#85a1c9"/><rect x="108.18" y="12.83" width="4.33" height="4.33" fill="#cfefff"/><rect x="108.18" y="8.5" width="4.33" height="4.33" fill="#1b0003"/><rect x="112.52" y="69.18" width="4.33" height="4.33" fill="#1b0003"/><rect x="112.52" y="64.84" width="4.33" height="4.33" fill="#223c5b"/><rect x="112.52" y="60.51" width="4.33" height="4.33" fill="#cfefff"/><rect x="112.52" y="56.17" width="4.33" height="4.33" fill="#1b0003"/><rect x="112.52" y="21.5" width="4.33" height="4.33" fill="#1b0003"/><rect x="112.52" y="17.17" width="4.33" height="4.33" fill="#85a1c9"/><rect x="112.52" y="12.83" width="4.33" height="4.33" fill="#cfefff"/><rect x="112.52" y="8.5" width="4.33" height="4.33" fill="#1b0003"/><rect x="116.85" y="56.17" width="4.33" height="4.33" fill="#1b0003"/><rect x="116.85" y="21.5" width="4.33" height="4.33" fill="#1b0003"/><rect x="116.85" y="17.17" width="4.33" height="4.33" fill="#85a1c9"/><rect x="116.85" y="12.83" width="4.33" height="4.33" fill="#cfefff"/><rect x="116.85" y="8.5" width="4.33" height="4.33" fill="#1b0003"/><rect x="116.85" y="69.18" width="4.33" height="4.33" fill="#1b0003"/><rect x="116.85" y="64.84" width="4.33" height="4.33" fill="#223c5b"/><rect x="116.85" y="60.51" width="4.33" height="4.33" fill="#6a87af"/><rect x="121.19" y="60.51" width="4.33" height="4.33" fill="#6a87af"/><rect x="121.19" y="56.17" width="4.33" height="4.33" fill="#6a87af"/><rect x="121.19" y="51.84" width="4.33" height="4.33" fill="#1b0003"/><rect x="121.19" y="25.84" width="4.33" height="4.33" fill="#1b0003"/><rect x="121.19" y="21.5" width="4.33" height="4.33" fill="#85a1c9"/><rect x="121.19" y="17.17" width="4.33" height="4.33" fill="#cfefff"/><rect x="121.19" y="12.83" width="4.33" height="4.33" fill="#1b0003"/><rect x="121.19" y="64.84" width="4.33" height="4.33" fill="#1b0003"/><rect x="125.52" y="60.51" width="4.33" height="4.33" fill="#223c5b"/><rect x="125.52" y="56.17" width="4.33" height="4.33" fill="#6a87af"/><rect x="125.52" y="51.84" width="4.33" height="4.33" fill="#85a1c9"/><rect x="125.52" y="47.51" width="4.33" height="4.33" fill="#1b0003"/><rect x="125.52" y="43.17" width="4.33" height="4.33" fill="#1b0003"/><rect x="125.52" y="38.84" width="4.33" height="4.33" fill="#1b0003"/><rect x="125.52" y="34.5" width="4.33" height="4.33" fill="#1b0003"/><rect x="125.52" y="30.17" width="4.33" height="4.33" fill="#1b0003"/><rect x="125.52" y="25.84" width="4.33" height="4.33" fill="#85a1c9"/><rect x="125.52" y="21.5" width="4.33" height="4.33" fill="#85a1c9"/><rect x="125.52" y="17.17" width="4.33" height="4.33" fill="#cfefff"/><rect x="125.52" y="12.83" width="4.33" height="4.33" fill="#1b0003"/><rect x="125.52" y="64.84" width="4.33" height="4.33" fill="#1b0003"/><rect x="129.85" y="60.51" width="4.33" height="4.33" fill="#1b0003"/><rect x="129.85" y="56.17" width="4.33" height="4.33" fill="#223c5b"/><rect x="129.85" y="51.84" width="4.33" height="4.33" fill="#85a1c9"/><rect x="129.85" y="47.51" width="4.33" height="4.33" fill="#85a1c9"/><rect x="129.85" y="43.17" width="4.33" height="4.33" fill="#85a1c9"/><rect x="129.85" y="38.84" width="4.33" height="4.33" fill="#85a1c9"/><rect x="129.85" y="34.5" width="4.33" height="4.33" fill="#85a1c9"/><rect x="129.85" y="30.17" width="4.33" height="4.33" fill="#85a1c9"/><rect x="129.85" y="25.84" width="4.33" height="4.33" fill="#cfefff"/><rect x="129.85" y="21.5" width="4.33" height="4.33" fill="#cfefff"/><rect x="129.85" y="17.17" width="4.33" height="4.33" fill="#1b0003"/><rect x="134.19" y="56.17" width="4.33" height="4.33" fill="#1b0003"/><rect x="134.19" y="51.84" width="4.33" height="4.33" fill="#1b0003"/><rect x="134.19" y="47.51" width="4.33" height="4.33" fill="#85a1c9"/><rect x="134.19" y="43.17" width="4.33" height="4.33" fill="#85a1c9"/><rect x="134.19" y="38.84" width="4.33" height="4.33" fill="#cfefff"/><rect x="134.19" y="34.5" width="4.33" height="4.33" fill="#cfefff"/><rect x="134.19" y="30.17" width="4.33" height="4.33" fill="#cfefff"/><rect x="134.19" y="25.84" width="4.33" height="4.33" fill="#1b0003"/><rect x="134.19" y="21.5" width="4.33" height="4.33" fill="#1b0003"/><rect x="138.52" y="47.51" width="4.33" height="4.33" fill="#1b0003"/><rect x="138.52" y="43.17" width="4.33" height="4.33" fill="#1b0003"/><rect x="138.52" y="38.84" width="4.33" height="4.33" fill="#1b0003"/><rect x="138.52" y="34.5" width="4.33" height="4.33" fill="#1b0003"/><rect x="138.52" y="30.17" width="4.33" height="4.33" fill="#1b0003"/></g></g></g></g></svg>