<svg xmlns="http://www.w3.org/2000/svg" width="152.56" height="120.03" viewBox="0 0 152.56 120.03"><g id="Layer_2" data-name="Layer 2"><g id="items"><g id="Silver_Bar" data-name="Silver Bar"><path d="M103.76,120H5.42v-5.42H0v-55H5.42V54.23h5.42V48.8h5.43V43.38h5.42V38h5.42V32.54h5.43V27.11H38V21.69h5.42V16.27H48.8V10.85h5.43V5.42h5.42V0h87.49V5.42h5.42V71.23h-5.42v5.42h-5.42v5.42H136.3v5.42h-5.43v5.43h-5.42v5.42H120v5.42h-5.42v5.42h-5.43v5.43h-5.42ZM22.42,103H86.76V97.61h5.42V92.18h5.43V86.76H103V81.34h5.42V75.92h5.42V70.49h5.43V65.07h5.42V59.65h5.42V54.23h5.42V22.42h-5.42V17H76.65v5.42H71.23v5.43H65.8v5.42H60.38v5.42H55v5.42H49.54v5.43H44.11V55H38.69v5.42H33.27V65.8H27.84v5.43H22.42v5.42H17v21h5.42Z" fill="#fff"/><g id="Silver_Bar-2" data-name="Silver Bar"><rect x="138.64" y="57.3" width="5.42" height="5.42" fill="#1b0003"/><rect x="138.64" y="51.88" width="5.42" height="5.42" fill="#1b0003"/><rect x="138.64" y="46.46" width="5.42" height="5.42" fill="#1b0003"/><rect x="138.64" y="41.04" width="5.42" height="5.42" fill="#1b0003"/><rect x="138.64" y="35.61" width="5.42" height="5.42" fill="#1b0003"/><rect x="138.64" y="30.19" width="5.42" height="5.42" fill="#1b0003"/><rect x="138.64" y="24.77" width="5.42" height="5.42" fill="#1b0003"/><rect x="138.64" y="19.35" width="5.42" height="5.42" fill="#1b0003"/><rect x="138.64" y="13.92" width="5.42" height="5.42" fill="#1b0003"/><rect x="133.22" y="62.73" width="5.42" height="5.42" fill="#1b0003"/><rect x="133.22" y="57.3" width="5.42" height="5.42" fill="#6a87af"/><rect x="133.22" y="51.88" width="5.42" height="5.42" fill="#5d7da3"/><rect x="133.22" y="46.46" width="5.42" height="5.42" fill="#5d7da3"/><rect x="133.22" y="41.04" width="5.42" height="5.42" fill="#5d7da3"/><rect x="133.22" y="35.61" width="5.42" height="5.42" fill="#5d7da3"/><rect x="133.22" y="30.19" width="5.42" height="5.42" fill="#5d7da3"/><rect x="133.22" y="24.77" width="5.42" height="5.42" fill="#5d7da3"/><rect x="133.22" y="19.35" width="5.42" height="5.42" fill="#6a87af"/><rect x="133.22" y="13.92" width="5.42" height="5.42" fill="#6a87af"/><rect x="133.22" y="8.5" width="5.42" height="5.42" fill="#1b0003"/><rect x="127.8" y="68.15" width="5.42" height="5.42" fill="#1b0003"/><rect x="127.8" y="62.73" width="5.42" height="5.42" fill="#6a87af"/><rect x="127.8" y="57.3" width="5.42" height="5.42" fill="#5d7da3"/><rect x="127.8" y="51.88" width="5.42" height="5.42" fill="#50759b"/><rect x="127.8" y="46.46" width="5.42" height="5.42" fill="#50759b"/><rect x="127.8" y="41.04" width="5.42" height="5.42" fill="#50759b"/><rect x="127.8" y="35.61" width="5.42" height="5.42" fill="#50759b"/><rect x="127.8" y="30.19" width="5.42" height="5.42" fill="#50759b"/><rect x="127.8" y="24.77" width="5.42" height="5.42" fill="#50759b"/><rect x="127.8" y="19.35" width="5.42" height="5.42" fill="#bedbed"/><rect x="127.8" y="13.92" width="5.42" height="5.42" fill="#e3f7ff"/><rect x="127.8" y="8.5" width="5.42" height="5.42" fill="#1b0003"/><rect x="122.37" y="73.57" width="5.42" height="5.42" fill="#1b0003"/><rect x="122.37" y="68.15" width="5.42" height="5.42" fill="#6a87af"/><rect x="122.37" y="62.73" width="5.42" height="5.42" fill="#5d7da3"/><rect x="122.37" y="57.3" width="5.42" height="5.42" fill="#5d7da3"/><rect x="122.37" y="51.88" width="5.42" height="5.42" fill="#50759b"/><rect x="122.37" y="46.46" width="5.42" height="5.42" fill="#50759b"/><rect x="122.37" y="41.04" width="5.42" height="5.42" fill="#50759b"/><rect x="122.37" y="35.61" width="5.42" height="5.42" fill="#50759b"/><rect x="122.37" y="30.19" width="5.42" height="5.42" fill="#6a87af"/><rect x="122.37" y="24.77" width="5.42" height="5.42" fill="#bedbed"/><rect x="122.37" y="19.35" width="5.42" height="5.42" fill="#e3f7ff"/><rect x="122.37" y="13.92" width="5.42" height="5.42" fill="#e3f7ff"/><rect x="122.37" y="8.5" width="5.42" height="5.42" fill="#1b0003"/><rect x="116.95" y="78.99" width="5.42" height="5.42" fill="#1b0003"/><rect x="116.95" y="73.57" width="5.42" height="5.42" fill="#6a87af"/><rect x="116.95" y="68.15" width="5.42" height="5.42" fill="#5d7da3"/><rect x="116.95" y="62.73" width="5.42" height="5.42" fill="#5d7da3"/><rect x="116.95" y="57.3" width="5.42" height="5.42" fill="#50759b"/><rect x="116.95" y="51.88" width="5.42" height="5.42" fill="#50759b"/><rect x="116.95" y="46.46" width="5.42" height="5.42" fill="#50759b"/><rect x="116.95" y="41.04" width="5.42" height="5.42" fill="#50759b"/><rect x="116.95" y="35.61" width="5.42" height="5.42" fill="#6a87af"/><rect x="116.95" y="30.19" width="5.42" height="5.42" fill="#bedbed"/><rect x="116.95" y="24.77" width="5.42" height="5.42" fill="#e3f7ff"/><rect x="116.95" y="19.35" width="5.42" height="5.42" fill="#e3f7ff"/><rect x="116.95" y="13.92" width="5.42" height="5.42" fill="#e3f7ff"/><rect x="116.95" y="8.5" width="5.42" height="5.42" fill="#1b0003"/><rect x="111.53" y="84.42" width="5.42" height="5.42" fill="#1b0003"/><rect x="111.53" y="78.99" width="5.42" height="5.42" fill="#6a87af"/><rect x="111.53" y="73.57" width="5.42" height="5.42" fill="#5d7da3"/><rect x="111.53" y="68.15" width="5.42" height="5.42" fill="#5d7da3"/><rect x="111.53" y="62.73" width="5.42" height="5.42" fill="#50759b"/><rect x="111.53" y="57.3" width="5.42" height="5.42" fill="#50759b"/><rect x="111.53" y="51.88" width="5.42" height="5.42" fill="#50759b"/><rect x="111.53" y="46.46" width="5.42" height="5.42" fill="#50759b"/><rect x="111.53" y="41.04" width="5.42" height="5.42" fill="#6a87af"/><rect x="111.53" y="35.61" width="5.42" height="5.42" fill="#bedbed"/><rect x="111.53" y="30.19" width="5.42" height="5.42" fill="#e3f7ff"/><rect x="111.53" y="24.77" width="5.42" height="5.42" fill="#e3f7ff"/><rect x="111.53" y="19.35" width="5.42" height="5.42" fill="#e3f7ff"/><rect x="111.53" y="13.92" width="5.42" height="5.42" fill="#e3f7ff"/><rect x="111.53" y="8.5" width="5.42" height="5.42" fill="#1b0003"/><rect x="106.11" y="89.84" width="5.42" height="5.42" fill="#1b0003"/><rect x="106.11" y="84.42" width="5.42" height="5.42" fill="#6a87af"/><rect x="106.11" y="78.99" width="5.42" height="5.42" fill="#5d7da3"/><rect x="106.11" y="73.57" width="5.42" height="5.42" fill="#5d7da3"/><rect x="106.11" y="68.15" width="5.42" height="5.42" fill="#50759b"/><rect x="106.11" y="62.73" width="5.42" height="5.42" fill="#50759b"/><rect x="106.11" y="57.3" width="5.42" height="5.42" fill="#50759b"/><rect x="106.11" y="51.88" width="5.42" height="5.42" fill="#50759b"/><rect x="106.11" y="46.46" width="5.42" height="5.42" fill="#6a87af"/><rect x="106.11" y="41.04" width="5.42" height="5.42" fill="#bedbed"/><rect x="106.11" y="35.61" width="5.42" height="5.42" fill="#e3f7ff"/><rect x="106.11" y="30.19" width="5.42" height="5.42" fill="#e3f7ff"/><rect x="106.11" y="24.77" width="5.42" height="5.42" fill="#e3f7ff"/><rect x="106.11" y="19.35" width="5.42" height="5.42" fill="#bedbed"/><rect x="106.11" y="13.92" width="5.42" height="5.42" fill="#e3f7ff"/><rect x="106.11" y="8.5" width="5.42" height="5.42" fill="#1b0003"/><rect x="100.68" y="95.26" width="5.42" height="5.42" fill="#1b0003"/><rect x="100.68" y="89.84" width="5.42" height="5.42" fill="#6a87af"/><rect x="100.68" y="84.42" width="5.42" height="5.42" fill="#5d7da3"/><rect x="100.68" y="78.99" width="5.42" height="5.42" fill="#5d7da3"/><rect x="100.68" y="73.57" width="5.42" height="5.42" fill="#50759b"/><rect x="100.68" y="68.15" width="5.42" height="5.42" fill="#50759b"/><rect x="100.68" y="62.73" width="5.42" height="5.42" fill="#50759b"/><rect x="100.68" y="57.3" width="5.42" height="5.42" fill="#50759b"/><rect x="100.68" y="51.88" width="5.42" height="5.42" fill="#bedbed"/><rect x="100.68" y="46.46" width="5.42" height="5.42" fill="#bedbed"/><rect x="100.68" y="41.04" width="5.42" height="5.42" fill="#e3f7ff"/><rect x="100.68" y="35.61" width="5.42" height="5.42" fill="#e3f7ff"/><rect x="100.68" y="30.19" width="5.42" height="5.42" fill="#e3f7ff"/><rect x="100.68" y="24.77" width="5.42" height="5.42" fill="#e3f7ff"/><rect x="100.68" y="19.35" width="5.42" height="5.42" fill="#bedbed"/><rect x="100.68" y="13.92" width="5.42" height="5.42" fill="#e3f7ff"/><rect x="100.68" y="8.5" width="5.42" height="5.42" fill="#1b0003"/><rect x="95.26" y="100.68" width="5.42" height="5.42" fill="#1b0003"/><rect x="95.26" y="95.26" width="5.42" height="5.42" fill="#6a87af"/><rect x="95.26" y="89.84" width="5.42" height="5.42" fill="#6a87af"/><rect x="95.26" y="84.42" width="5.42" height="5.42" fill="#5d7da3"/><rect x="95.26" y="78.99" width="5.42" height="5.42" fill="#50759b"/><rect x="95.26" y="73.57" width="5.42" height="5.42" fill="#50759b"/><rect x="95.26" y="68.15" width="5.42" height="5.42" fill="#50759b"/><rect x="95.26" y="62.73" width="5.42" height="5.42" fill="#50759b"/><rect x="95.26" y="57.3" width="5.42" height="5.42" fill="#bedbed"/><rect x="95.26" y="51.88" width="5.42" height="5.42" fill="#e3f7ff"/><rect x="95.26" y="46.46" width="5.42" height="5.42" fill="#e3f7ff"/><rect x="95.26" y="41.04" width="5.42" height="5.42" fill="#e3f7ff"/><rect x="95.26" y="35.61" width="5.42" height="5.42" fill="#e3f7ff"/><rect x="95.26" y="30.19" width="5.42" height="5.42" fill="#e3f7ff"/><rect x="95.26" y="24.77" width="5.42" height="5.42" fill="#e3f7ff"/><rect x="95.26" y="19.35" width="5.42" height="5.42" fill="#bedbed"/><rect x="95.26" y="13.92" width="5.42" height="5.42" fill="#e3f7ff"/><rect x="95.26" y="8.5" width="5.42" height="5.42" fill="#1b0003"/><rect x="89.84" y="106.11" width="5.42" height="5.42" fill="#1b0003"/><rect x="89.84" y="100.68" width="5.42" height="5.42" fill="#bedbed"/><rect x="89.84" y="95.26" width="5.42" height="5.42" fill="#bedbed"/><rect x="89.84" y="89.84" width="5.42" height="5.42" fill="#bedbed"/><rect x="89.84" y="84.42" width="5.42" height="5.42" fill="#bedbed"/><rect x="89.84" y="78.99" width="5.42" height="5.42" fill="#bedbed"/><rect x="89.84" y="73.57" width="5.42" height="5.42" fill="#bedbed"/><rect x="89.84" y="68.15" width="5.42" height="5.42" fill="#bedbed"/><rect x="89.84" y="62.73" width="5.42" height="5.42" fill="#bedbed"/><rect x="89.84" y="57.3" width="5.42" height="5.42" fill="#e3f7ff"/><rect x="89.84" y="51.88" width="5.42" height="5.42" fill="#e3f7ff"/><rect x="89.84" y="46.46" width="5.42" height="5.42" fill="#e3f7ff"/><rect x="89.84" y="41.04" width="5.42" height="5.42" fill="#e3f7ff"/><rect x="89.84" y="35.61" width="5.42" height="5.42" fill="#e3f7ff"/><rect x="89.84" y="30.19" width="5.42" height="5.42" fill="#e3f7ff"/><rect x="89.84" y="24.77" width="5.42" height="5.42" fill="#e3f7ff"/><rect x="89.84" y="19.35" width="5.42" height="5.42" fill="#bedbed"/><rect x="89.84" y="13.92" width="5.42" height="5.42" fill="#e3f7ff"/><rect x="89.84" y="8.5" width="5.42" height="5.42" fill="#1b0003"/><rect x="84.42" y="106.11" width="5.42" height="5.42" fill="#1b0003"/><rect x="84.42" y="100.68" width="5.42" height="5.42" fill="#85a1c9"/><rect x="84.42" y="95.26" width="5.42" height="5.42" fill="#85a1c9"/><rect x="84.42" y="89.84" width="5.42" height="5.42" fill="#85a1c9"/><rect x="84.42" y="84.42" width="5.42" height="5.42" fill="#85a1c9"/><rect x="84.42" y="78.99" width="5.42" height="5.42" fill="#85a1c9"/><rect x="84.42" y="73.57" width="5.42" height="5.42" fill="#bedbed"/><rect x="84.42" y="68.15" width="5.42" height="5.42" fill="#bedbed"/><rect x="84.42" y="62.73" width="5.42" height="5.42" fill="#e3f7ff"/><rect x="84.42" y="57.3" width="5.42" height="5.42" fill="#e3f7ff"/><rect x="84.42" y="51.88" width="5.42" height="5.42" fill="#e3f7ff"/><rect x="84.42" y="46.46" width="5.42" height="5.42" fill="#e3f7ff"/><rect x="84.42" y="41.04" width="5.42" height="5.42" fill="#e3f7ff"/><rect x="84.42" y="35.61" width="5.42" height="5.42" fill="#e3f7ff"/><rect x="84.42" y="30.19" width="5.42" height="5.42" fill="#e3f7ff"/><rect x="84.42" y="24.77" width="5.42" height="5.42" fill="#e3f7ff"/><rect x="84.42" y="19.35" width="5.42" height="5.42" fill="#bedbed"/><rect x="84.42" y="13.92" width="5.42" height="5.42" fill="#e3f7ff"/><rect x="84.42" y="8.5" width="5.42" height="5.42" fill="#1b0003"/><rect x="78.99" y="106.11" width="5.42" height="5.42" fill="#1b0003"/><rect x="78.99" y="100.68" width="5.42" height="5.42" fill="#6a87af"/><rect x="78.99" y="95.26" width="5.42" height="5.42" fill="#6a87af"/><rect x="78.99" y="89.84" width="5.42" height="5.42" fill="#6a87af"/><rect x="78.99" y="84.42" width="5.42" height="5.42" fill="#6a87af"/><rect x="78.99" y="78.99" width="5.42" height="5.42" fill="#6a87af"/><rect x="78.99" y="73.57" width="5.42" height="5.42" fill="#85a1c9"/><rect x="78.99" y="68.15" width="5.42" height="5.42" fill="#bedbed"/><rect x="78.99" y="62.73" width="5.42" height="5.42" fill="#e3f7ff"/><rect x="78.99" y="57.3" width="5.42" height="5.42" fill="#e3f7ff"/><rect x="78.99" y="51.88" width="5.42" height="5.42" fill="#e3f7ff"/><rect x="78.99" y="46.46" width="5.42" height="5.42" fill="#e3f7ff"/><rect x="78.99" y="41.04" width="5.42" height="5.42" fill="#e3f7ff"/><rect x="78.99" y="35.61" width="5.42" height="5.42" fill="#e3f7ff"/><rect x="78.99" y="30.19" width="5.42" height="5.42" fill="#e3f7ff"/><rect x="78.99" y="24.77" width="5.42" height="5.42" fill="#e3f7ff"/><rect x="78.99" y="19.35" width="5.42" height="5.42" fill="#bedbed"/><rect x="78.99" y="13.92" width="5.42" height="5.42" fill="#e3f7ff"/><rect x="78.99" y="8.5" width="5.42" height="5.42" fill="#1b0003"/><rect x="73.57" y="106.11" width="5.42" height="5.42" fill="#1b0003"/><rect x="73.57" y="100.68" width="5.42" height="5.42" fill="#6a87af"/><rect x="73.57" y="95.26" width="5.42" height="5.42" fill="#6a87af"/><rect x="73.57" y="89.84" width="5.42" height="5.42" fill="#6a87af"/><rect x="73.57" y="84.42" width="5.42" height="5.42" fill="#6a87af"/><rect x="73.57" y="78.99" width="5.42" height="5.42" fill="#6a87af"/><rect x="73.57" y="73.57" width="5.42" height="5.42" fill="#85a1c9"/><rect x="73.57" y="68.15" width="5.42" height="5.42" fill="#bedbed"/><rect x="73.57" y="62.73" width="5.42" height="5.42" fill="#e3f7ff"/><rect x="73.57" y="57.3" width="5.42" height="5.42" fill="#bedbed"/><rect x="73.57" y="51.88" width="5.42" height="5.42" fill="#e3f7ff"/><rect x="73.57" y="46.46" width="5.42" height="5.42" fill="#e3f7ff"/><rect x="73.57" y="41.04" width="5.42" height="5.42" fill="#e3f7ff"/><rect x="73.57" y="35.61" width="5.42" height="5.42" fill="#e3f7ff"/><rect x="73.57" y="30.19" width="5.42" height="5.42" fill="#e3f7ff"/><rect x="73.57" y="24.77" width="5.42" height="5.42" fill="#bedbed"/><rect x="73.57" y="19.35" width="5.42" height="5.42" fill="#bedbed"/><rect x="73.57" y="13.92" width="5.42" height="5.42" fill="#e3f7ff"/><rect x="73.57" y="8.5" width="5.42" height="5.42" fill="#1b0003"/><rect x="68.15" y="106.11" width="5.42" height="5.42" fill="#1b0003"/><rect x="68.15" y="100.68" width="5.42" height="5.42" fill="#6a87af"/><rect x="68.15" y="95.26" width="5.42" height="5.42" fill="#6a87af"/><rect x="68.15" y="89.84" width="5.42" height="5.42" fill="#6a87af"/><rect x="68.15" y="84.42" width="5.42" height="5.42" fill="#6a87af"/><rect x="68.15" y="78.99" width="5.42" height="5.42" fill="#6a87af"/><rect x="68.15" y="73.57" width="5.42" height="5.42" fill="#85a1c9"/><rect x="68.15" y="68.15" width="5.42" height="5.42" fill="#bedbed"/><rect x="68.15" y="62.73" width="5.42" height="5.42" fill="#e3f7ff"/><rect x="68.15" y="57.3" width="5.42" height="5.42" fill="#bedbed"/><rect x="68.15" y="51.88" width="5.42" height="5.42" fill="#e3f7ff"/><rect x="68.15" y="46.46" width="5.42" height="5.42" fill="#e3f7ff"/><rect x="68.15" y="41.04" width="5.42" height="5.42" fill="#e3f7ff"/><rect x="68.15" y="35.61" width="5.42" height="5.42" fill="#e3f7ff"/><rect x="68.15" y="30.19" width="5.42" height="5.42" fill="#bedbed"/><rect x="68.15" y="24.77" width="5.42" height="5.42" fill="#bedbed"/><rect x="68.15" y="19.35" width="5.42" height="5.42" fill="#e3f7ff"/><rect x="68.15" y="13.92" width="5.42" height="5.42" fill="#bedbed"/><rect x="68.15" y="8.5" width="5.42" height="5.42" fill="#1b0003"/><rect x="62.73" y="106.11" width="5.42" height="5.42" fill="#1b0003"/><rect x="62.73" y="100.68" width="5.42" height="5.42" fill="#6a87af"/><rect x="62.73" y="95.26" width="5.42" height="5.42" fill="#6a87af"/><rect x="62.73" y="89.84" width="5.42" height="5.42" fill="#6a87af"/><rect x="62.73" y="84.42" width="5.42" height="5.42" fill="#6a87af"/><rect x="62.73" y="78.99" width="5.42" height="5.42" fill="#6a87af"/><rect x="62.73" y="73.57" width="5.42" height="5.42" fill="#85a1c9"/><rect x="62.73" y="68.15" width="5.42" height="5.42" fill="#bedbed"/><rect x="62.73" y="62.73" width="5.42" height="5.42" fill="#e3f7ff"/><rect x="62.73" y="57.3" width="5.42" height="5.42" fill="#bedbed"/><rect x="62.73" y="51.88" width="5.42" height="5.42" fill="#e3f7ff"/><rect x="62.73" y="46.46" width="5.42" height="5.42" fill="#e3f7ff"/><rect x="62.73" y="41.04" width="5.42" height="5.42" fill="#e3f7ff"/><rect x="62.73" y="35.61" width="5.42" height="5.42" fill="#bedbed"/><rect x="62.73" y="30.19" width="5.42" height="5.42" fill="#bedbed"/><rect x="62.73" y="24.77" width="5.42" height="5.42" fill="#e3f7ff"/><rect x="62.73" y="19.35" width="5.42" height="5.42" fill="#bedbed"/><rect x="62.73" y="13.92" width="5.42" height="5.42" fill="#1b0003"/><rect x="57.3" y="106.11" width="5.42" height="5.42" fill="#1b0003"/><rect x="57.3" y="100.68" width="5.42" height="5.42" fill="#6a87af"/><rect x="57.3" y="95.26" width="5.42" height="5.42" fill="#6a87af"/><rect x="57.3" y="89.84" width="5.42" height="5.42" fill="#6a87af"/><rect x="57.3" y="84.42" width="5.42" height="5.42" fill="#6a87af"/><rect x="57.3" y="78.99" width="5.42" height="5.42" fill="#6a87af"/><rect x="57.3" y="73.57" width="5.42" height="5.42" fill="#85a1c9"/><rect x="57.3" y="68.15" width="5.42" height="5.42" fill="#bedbed"/><rect x="57.3" y="62.73" width="5.42" height="5.42" fill="#e3f7ff"/><rect x="57.3" y="57.3" width="5.42" height="5.42" fill="#bedbed"/><rect x="57.3" y="51.88" width="5.42" height="5.42" fill="#e3f7ff"/><rect x="57.3" y="46.46" width="5.42" height="5.42" fill="#e3f7ff"/><rect x="57.3" y="41.04" width="5.42" height="5.42" fill="#bedbed"/><rect x="57.3" y="35.61" width="5.42" height="5.42" fill="#bedbed"/><rect x="57.3" y="30.19" width="5.42" height="5.42" fill="#e3f7ff"/><rect x="57.3" y="24.77" width="5.42" height="5.42" fill="#bedbed"/><rect x="57.3" y="19.35" width="5.42" height="5.42" fill="#1b0003"/><rect x="51.88" y="106.11" width="5.42" height="5.42" fill="#1b0003"/><rect x="51.88" y="100.68" width="5.42" height="5.42" fill="#6a87af"/><rect x="51.88" y="95.26" width="5.42" height="5.42" fill="#6a87af"/><rect x="51.88" y="89.84" width="5.42" height="5.42" fill="#6a87af"/><rect x="51.88" y="84.42" width="5.42" height="5.42" fill="#6a87af"/><rect x="51.88" y="78.99" width="5.42" height="5.42" fill="#6a87af"/><rect x="51.88" y="73.57" width="5.42" height="5.42" fill="#85a1c9"/><rect x="51.88" y="68.15" width="5.42" height="5.42" fill="#bedbed"/><rect x="51.88" y="62.73" width="5.42" height="5.42" fill="#e3f7ff"/><rect x="51.88" y="57.3" width="5.42" height="5.42" fill="#bedbed"/><rect x="51.88" y="51.88" width="5.42" height="5.42" fill="#e3f7ff"/><rect x="51.88" y="46.46" width="5.42" height="5.42" fill="#bedbed"/><rect x="51.88" y="41.04" width="5.42" height="5.42" fill="#bedbed"/><rect x="51.88" y="35.61" width="5.42" height="5.42" fill="#e3f7ff"/><rect x="51.88" y="30.19" width="5.42" height="5.42" fill="#bedbed"/><rect x="51.88" y="24.77" width="5.42" height="5.42" fill="#1b0003"/><rect x="46.46" y="106.11" width="5.42" height="5.42" fill="#1b0003"/><rect x="46.46" y="100.68" width="5.42" height="5.42" fill="#6a87af"/><rect x="46.46" y="95.26" width="5.42" height="5.42" fill="#6a87af"/><rect x="46.46" y="89.84" width="5.42" height="5.42" fill="#6a87af"/><rect x="46.46" y="84.42" width="5.42" height="5.42" fill="#6a87af"/><rect x="46.46" y="78.99" width="5.42" height="5.42" fill="#6a87af"/><rect x="46.46" y="73.57" width="5.42" height="5.42" fill="#85a1c9"/><rect x="46.46" y="68.15" width="5.42" height="5.42" fill="#bedbed"/><rect x="46.46" y="62.73" width="5.42" height="5.42" fill="#e3f7ff"/><rect x="46.46" y="57.3" width="5.42" height="5.42" fill="#bedbed"/><rect x="46.46" y="51.88" width="5.42" height="5.42" fill="#bedbed"/><rect x="46.46" y="46.46" width="5.42" height="5.42" fill="#bedbed"/><rect x="46.46" y="41.04" width="5.42" height="5.42" fill="#e3f7ff"/><rect x="46.46" y="35.61" width="5.42" height="5.42" fill="#bedbed"/><rect x="46.46" y="30.19" width="5.42" height="5.42" fill="#1b0003"/><rect x="41.04" y="106.11" width="5.42" height="5.42" fill="#1b0003"/><rect x="41.04" y="100.68" width="5.42" height="5.42" fill="#6a87af"/><rect x="41.04" y="95.26" width="5.42" height="5.42" fill="#6a87af"/><rect x="41.04" y="89.84" width="5.42" height="5.42" fill="#6a87af"/><rect x="41.04" y="84.42" width="5.42" height="5.42" fill="#6a87af"/><rect x="41.04" y="78.99" width="5.42" height="5.42" fill="#6a87af"/><rect x="41.04" y="73.57" width="5.42" height="5.42" fill="#85a1c9"/><rect x="41.04" y="68.15" width="5.42" height="5.42" fill="#bedbed"/><rect x="41.04" y="62.73" width="5.42" height="5.42" fill="#e3f7ff"/><rect x="41.04" y="57.3" width="5.42" height="5.42" fill="#bedbed"/><rect x="41.04" y="51.88" width="5.42" height="5.42" fill="#bedbed"/><rect x="41.04" y="46.46" width="5.42" height="5.42" fill="#e3f7ff"/><rect x="41.04" y="41.04" width="5.42" height="5.42" fill="#bedbed"/><rect x="41.04" y="35.61" width="5.42" height="5.42" fill="#1b0003"/><rect x="35.61" y="106.11" width="5.42" height="5.42" fill="#1b0003"/><rect x="35.61" y="100.68" width="5.42" height="5.42" fill="#85a1c9"/><rect x="35.61" y="95.26" width="5.42" height="5.42" fill="#6a87af"/><rect x="35.61" y="89.84" width="5.42" height="5.42" fill="#6a87af"/><rect x="35.61" y="84.42" width="5.42" height="5.42" fill="#6a87af"/><rect x="35.61" y="78.99" width="5.42" height="5.42" fill="#6a87af"/><rect x="35.61" y="73.57" width="5.42" height="5.42" fill="#85a1c9"/><rect x="35.61" y="68.15" width="5.42" height="5.42" fill="#bedbed"/><rect x="35.61" y="62.73" width="5.42" height="5.42" fill="#e3f7ff"/><rect x="35.61" y="57.3" width="5.42" height="5.42" fill="#bedbed"/><rect x="35.61" y="51.88" width="5.42" height="5.42" fill="#e3f7ff"/><rect x="35.61" y="46.46" width="5.42" height="5.42" fill="#bedbed"/><rect x="35.61" y="41.04" width="5.42" height="5.42" fill="#1b0003"/><rect x="30.19" y="106.11" width="5.42" height="5.42" fill="#1b0003"/><rect x="30.19" y="100.68" width="5.42" height="5.42" fill="#6a87af"/><rect x="30.19" y="95.26" width="5.42" height="5.42" fill="#85a1c9"/><rect x="30.19" y="89.84" width="5.42" height="5.42" fill="#6a87af"/><rect x="30.19" y="84.42" width="5.42" height="5.42" fill="#6a87af"/><rect x="30.19" y="78.99" width="5.42" height="5.42" fill="#6a87af"/><rect x="30.19" y="73.57" width="5.42" height="5.42" fill="#85a1c9"/><rect x="30.19" y="68.15" width="5.42" height="5.42" fill="#bedbed"/><rect x="30.19" y="62.73" width="5.42" height="5.42" fill="#e3f7ff"/><rect x="30.19" y="57.3" width="5.42" height="5.42" fill="#e3f7ff"/><rect x="30.19" y="51.88" width="5.42" height="5.42" fill="#bedbed"/><rect x="30.19" y="46.46" width="5.42" height="5.42" fill="#1b0003"/><rect x="24.77" y="106.11" width="5.42" height="5.42" fill="#1b0003"/><rect x="24.77" y="100.68" width="5.42" height="5.42" fill="#85a1c9"/><rect x="24.77" y="95.26" width="5.42" height="5.42" fill="#6a87af"/><rect x="24.77" y="89.84" width="5.42" height="5.42" fill="#85a1c9"/><rect x="24.77" y="84.42" width="5.42" height="5.42" fill="#6a87af"/><rect x="24.77" y="78.99" width="5.42" height="5.42" fill="#6a87af"/><rect x="24.77" y="73.57" width="5.42" height="5.42" fill="#85a1c9"/><rect x="24.77" y="68.15" width="5.42" height="5.42" fill="#bedbed"/><rect x="24.77" y="62.73" width="5.42" height="5.42" fill="#e3f7ff"/><rect x="24.77" y="57.3" width="5.42" height="5.42" fill="#bedbed"/><rect x="24.77" y="51.88" width="5.42" height="5.42" fill="#1b0003"/><rect x="19.34" y="106.11" width="5.42" height="5.42" fill="#1b0003"/><rect x="19.34" y="100.68" width="5.42" height="5.42" fill="#6a87af"/><rect x="19.34" y="95.26" width="5.42" height="5.42" fill="#85a1c9"/><rect x="19.34" y="89.84" width="5.42" height="5.42" fill="#6a87af"/><rect x="19.34" y="84.42" width="5.42" height="5.42" fill="#85a1c9"/><rect x="19.34" y="78.99" width="5.42" height="5.42" fill="#6a87af"/><rect x="19.34" y="73.57" width="5.42" height="5.42" fill="#85a1c9"/><rect x="19.34" y="68.15" width="5.42" height="5.42" fill="#bedbed"/><rect x="19.34" y="62.73" width="5.42" height="5.42" fill="#bedbed"/><rect x="19.34" y="57.3" width="5.42" height="5.42" fill="#1b0003"/><rect x="13.92" y="106.11" width="5.42" height="5.42" fill="#1b0003"/><rect x="13.92" y="100.68" width="5.42" height="5.42" fill="#85a1c9"/><rect x="13.92" y="95.26" width="5.42" height="5.42" fill="#6a87af"/><rect x="13.92" y="89.84" width="5.42" height="5.42" fill="#85a1c9"/><rect x="13.92" y="84.42" width="5.42" height="5.42" fill="#6a87af"/><rect x="13.92" y="78.99" width="5.42" height="5.42" fill="#85a1c9"/><rect x="13.92" y="73.57" width="5.42" height="5.42" fill="#85a1c9"/><rect x="13.92" y="68.15" width="5.42" height="5.42" fill="#223c5b"/><rect x="13.92" y="62.73" width="5.42" height="5.42" fill="#1b0003"/><rect x="8.5" y="100.68" width="5.42" height="5.42" fill="#1b0003"/><rect x="8.5" y="95.26" width="5.42" height="5.42" fill="#1b0003"/><rect x="8.5" y="89.84" width="5.42" height="5.42" fill="#1b0003"/><rect x="8.5" y="84.42" width="5.42" height="5.42" fill="#1b0003"/><rect x="8.5" y="78.99" width="5.42" height="5.42" fill="#1b0003"/><rect x="8.5" y="73.57" width="5.42" height="5.42" fill="#1b0003"/><rect x="8.5" y="68.15" width="5.42" height="5.42" fill="#1b0003"/></g></g></g></g></svg>