<svg xmlns="http://www.w3.org/2000/svg" width="133.56" height="133.56" viewBox="0 0 133.56 133.56"><g id="Layer_2" data-name="Layer 2"><g id="items"><g id="Skeleton"><path d="M98.08,133.56H35.47v-5.07H30.41v-5.07H25.34v-15.2H15.2v-5.07H10.14V98.08H5.07V88H0V35.47H5.07V25.34h5.07V15.2H15.2V10.14h5.07V5.07H30.41V0h72.74V5.07h10.14v5.07h5.06V15.2h5.07V25.34h5.07V35.47h5.07V88h-5.07V98.08h-5.07v5.07h-5.07v5.07H108.22v15.2h-5.07v5.07H98.08Zm-45.61-17H81.08v-5.07h5.07v-5.07h5.07V91.22h10.13V86.15h5.07V81.08h5.07V71h5.07V52.47h-5.07V42.34h-5.07V32.2h-5.07V27.14H96.29V22.07H86.15V17H47.41v5.07H37.27v5.07H32.2V32.2H27.14V42.34H22.07V52.47H17V71h5.07V81.08h5.07v5.07H32.2v5.07H42.34v15.2h5.07v5.07h5.06Z" fill="#fff"/><g id="Skeleton-2" data-name="Skeleton"><rect x="119.99" y="74.38" width="5.07" height="5.07" fill="#1b0003"/><rect x="119.99" y="69.31" width="5.07" height="5.07" fill="#1b0003"/><rect x="119.99" y="64.24" width="5.07" height="5.07" fill="#1b0003"/><rect x="119.99" y="59.18" width="5.07" height="5.07" fill="#1b0003"/><rect x="119.99" y="54.11" width="5.07" height="5.07" fill="#1b0003"/><rect x="119.99" y="49.04" width="5.07" height="5.07" fill="#1b0003"/><rect x="119.99" y="43.97" width="5.07" height="5.07" fill="#1b0003"/><rect x="114.92" y="84.52" width="5.07" height="5.07" fill="#1b0003"/><rect x="114.92" y="79.45" width="5.07" height="5.07" fill="#1b0003"/><rect x="114.92" y="74.38" width="5.07" height="5.07" fill="#d3af9f"/><rect x="114.92" y="69.31" width="5.07" height="5.07" fill="#d3af9f"/><rect x="114.92" y="64.24" width="5.07" height="5.07" fill="#d3af9f"/><rect x="114.92" y="59.18" width="5.07" height="5.07" fill="#d3af9f"/><rect x="114.92" y="54.11" width="5.07" height="5.07" fill="#d3af9f"/><rect x="114.92" y="49.04" width="5.07" height="5.07" fill="#d3af9f"/><rect x="114.92" y="43.97" width="5.07" height="5.07" fill="#d3af9f"/><rect x="114.92" y="38.91" width="5.07" height="5.07" fill="#1b0003"/><rect x="114.92" y="33.84" width="5.07" height="5.07" fill="#1b0003"/><rect x="109.85" y="89.58" width="5.07" height="5.07" fill="#1b0003"/><rect x="109.85" y="84.52" width="5.07" height="5.07" fill="#d3af9f"/><rect x="109.85" y="79.45" width="5.07" height="5.07" fill="#d3af9f"/><rect x="109.85" y="74.38" width="5.07" height="5.07" fill="#d3af9f"/><rect x="109.85" y="69.31" width="5.07" height="5.07" fill="#ead0b9"/><rect x="109.85" y="64.24" width="5.07" height="5.07" fill="#ead0b9"/><rect x="109.85" y="59.18" width="5.07" height="5.07" fill="#ead0b9"/><rect x="109.85" y="54.11" width="5.07" height="5.07" fill="#ead0b9"/><rect x="109.85" y="49.04" width="5.07" height="5.07" fill="#ead0b9"/><rect x="109.85" y="43.97" width="5.07" height="5.07" fill="#d3af9f"/><rect x="109.85" y="38.91" width="5.07" height="5.07" fill="#d3af9f"/><rect x="109.85" y="33.84" width="5.07" height="5.07" fill="#d3af9f"/><rect x="109.85" y="28.77" width="5.07" height="5.07" fill="#1b0003"/><rect x="109.85" y="23.7" width="5.07" height="5.07" fill="#1b0003"/><rect x="104.79" y="94.65" width="5.07" height="5.07" fill="#1b0003"/><rect x="104.79" y="89.58" width="5.07" height="5.07" fill="#d3af9f"/><rect x="104.79" y="84.52" width="5.07" height="5.07" fill="#ead0b9"/><rect x="104.79" y="79.45" width="5.07" height="5.07" fill="#d3af9f"/><rect x="104.79" y="74.38" width="5.07" height="5.07" fill="#ead0b9"/><rect x="104.79" y="69.31" width="5.07" height="5.07" fill="#ead0b9"/><rect x="104.79" y="64.24" width="5.07" height="5.07" fill="#ead0b9"/><rect x="104.79" y="59.18" width="5.07" height="5.07" fill="#ead0b9"/><rect x="104.79" y="54.11" width="5.07" height="5.07" fill="#ead0b9"/><rect x="104.79" y="49.04" width="5.07" height="5.07" fill="#ead0b9"/><rect x="104.79" y="43.97" width="5.07" height="5.07" fill="#ead0b9"/><rect x="104.79" y="38.91" width="5.07" height="5.07" fill="#ead0b9"/><rect x="104.79" y="33.84" width="5.07" height="5.07" fill="#ead0b9"/><rect x="104.79" y="28.77" width="5.07" height="5.07" fill="#d3af9f"/><rect x="104.79" y="23.7" width="5.07" height="5.07" fill="#d3af9f"/><rect x="104.79" y="18.64" width="5.07" height="5.07" fill="#1b0003"/><rect x="99.72" y="94.65" width="5.07" height="5.07" fill="#1b0003"/><rect x="99.72" y="89.58" width="5.07" height="5.07" fill="#ead0b9"/><rect x="99.72" y="84.52" width="5.07" height="5.07" fill="#d3af9f"/><rect x="99.72" y="79.45" width="5.07" height="5.07" fill="#ead0b9"/><rect x="99.72" y="74.38" width="5.07" height="5.07" fill="#ead0b9"/><rect x="99.72" y="69.31" width="5.07" height="5.07" fill="#ead0b9"/><rect x="99.72" y="64.24" width="5.07" height="5.07" fill="#f9f2d4"/><rect x="99.72" y="59.18" width="5.07" height="5.07" fill="#f9f2d4"/><rect x="99.72" y="54.11" width="5.07" height="5.07" fill="#f9f2d4"/><rect x="99.72" y="49.04" width="5.07" height="5.07" fill="#f9f2d4"/><rect x="99.72" y="43.97" width="5.07" height="5.07" fill="#f9f2d4"/><rect x="99.72" y="38.91" width="5.07" height="5.07" fill="#ead0b9"/><rect x="99.72" y="33.84" width="5.07" height="5.07" fill="#ead0b9"/><rect x="99.72" y="28.77" width="5.07" height="5.07" fill="#ead0b9"/><rect x="99.72" y="23.7" width="5.07" height="5.07" fill="#ead0b9"/><rect x="99.72" y="18.64" width="5.07" height="5.07" fill="#ead0b9"/><rect x="99.72" y="13.57" width="5.07" height="5.07" fill="#1b0003"/><rect x="94.65" y="109.85" width="5.07" height="5.07" fill="#1b0003"/><rect x="94.65" y="104.79" width="5.07" height="5.07" fill="#1b0003"/><rect x="94.65" y="99.72" width="5.07" height="5.07" fill="#1b0003"/><rect x="94.65" y="94.65" width="5.07" height="5.07" fill="#d3af9f"/><rect x="94.65" y="89.58" width="5.07" height="5.07" fill="#d3af9f"/><rect x="94.65" y="84.52" width="5.07" height="5.07" fill="#ead0b9"/><rect x="94.65" y="79.45" width="5.07" height="5.07" fill="#ead0b9"/><rect x="94.65" y="74.38" width="5.07" height="5.07" fill="#f9f2d4"/><rect x="94.65" y="69.31" width="5.07" height="5.07" fill="#f9f2d4"/><rect x="94.65" y="64.24" width="5.07" height="5.07" fill="#f9f2d4"/><rect x="94.65" y="59.18" width="5.07" height="5.07" fill="#f9f2d4"/><rect x="94.65" y="54.11" width="5.07" height="5.07" fill="#f9f2d4"/><rect x="94.65" y="49.04" width="5.07" height="5.07" fill="#f9f2d4"/><rect x="94.65" y="43.97" width="5.07" height="5.07" fill="#f9f2d4"/><rect x="94.65" y="38.91" width="5.07" height="5.07" fill="#f9f2d4"/><rect x="94.65" y="33.84" width="5.07" height="5.07" fill="#f9f2d4"/><rect x="94.65" y="28.77" width="5.07" height="5.07" fill="#ead0b9"/><rect x="94.65" y="23.7" width="5.07" height="5.07" fill="#ead0b9"/><rect x="94.65" y="18.64" width="5.07" height="5.07" fill="#ead0b9"/><rect x="94.65" y="13.57" width="5.07" height="5.07" fill="#1b0003"/><rect x="89.58" y="114.92" width="5.07" height="5.07" fill="#1b0003"/><rect x="89.58" y="109.85" width="5.07" height="5.07" fill="#d3af9f"/><rect x="89.58" y="104.79" width="5.07" height="5.07" fill="#d3af9f"/><rect x="89.58" y="99.72" width="5.07" height="5.07" fill="#ead0b9"/><rect x="89.58" y="94.65" width="5.07" height="5.07" fill="#ead0b9"/><rect x="89.58" y="89.58" width="5.07" height="5.07" fill="#1b0003"/><rect x="89.58" y="84.52" width="5.07" height="5.07" fill="#1b0003"/><rect x="89.58" y="79.45" width="5.07" height="5.07" fill="#1b0003"/><rect x="89.58" y="74.38" width="5.07" height="5.07" fill="#1b0003"/><rect x="89.58" y="69.31" width="5.07" height="5.07" fill="#f9f2d4"/><rect x="89.58" y="64.24" width="5.07" height="5.07" fill="#f9f2d4"/><rect x="89.58" y="59.18" width="5.07" height="5.07" fill="#f9f2d4"/><rect x="89.58" y="54.11" width="5.07" height="5.07" fill="#f9f2d4"/><rect x="89.58" y="49.04" width="5.07" height="5.07" fill="#f9f2d4"/><rect x="89.58" y="43.97" width="5.07" height="5.07" fill="#f9f2d4"/><rect x="89.58" y="38.91" width="5.07" height="5.07" fill="#f9f2d4"/><rect x="89.58" y="33.84" width="5.07" height="5.07" fill="#f9f2d4"/><rect x="89.58" y="28.77" width="5.07" height="5.07" fill="#f9f2d4"/><rect x="89.58" y="23.7" width="5.07" height="5.07" fill="#f9f2d4"/><rect x="89.58" y="18.64" width="5.07" height="5.07" fill="#f9f2d4"/><rect x="89.58" y="13.57" width="5.07" height="5.07" fill="#f9f2d4"/><rect x="89.58" y="8.5" width="5.07" height="5.07" fill="#1b0003"/><rect x="84.52" y="119.99" width="5.07" height="5.07" fill="#1b0003"/><rect x="84.52" y="114.92" width="5.07" height="5.07" fill="#ead0b9"/><rect x="84.52" y="109.85" width="5.07" height="5.07" fill="#ead0b9"/><rect x="84.52" y="104.79" width="5.07" height="5.07" fill="#ead0b9"/><rect x="84.52" y="99.72" width="5.07" height="5.07" fill="#ead0b9"/><rect x="84.52" y="94.65" width="5.07" height="5.07" fill="#ead0b9"/><rect x="84.52" y="89.58" width="5.07" height="5.07" fill="#1b0003"/><rect x="84.52" y="84.52" width="5.07" height="5.07" fill="#1b0003"/><rect x="84.52" y="79.45" width="5.07" height="5.07" fill="#1b0003"/><rect x="84.52" y="74.38" width="5.07" height="5.07" fill="#1b0003"/><rect x="84.52" y="69.31" width="5.07" height="5.07" fill="#f9f2d4"/><rect x="84.52" y="64.24" width="5.07" height="5.07" fill="#f9f2d4"/><rect x="84.52" y="59.18" width="5.07" height="5.07" fill="#f9f2d4"/><rect x="84.52" y="54.11" width="5.07" height="5.07" fill="#f9f2d4"/><rect x="84.52" y="49.04" width="5.07" height="5.07" fill="#f9f2d4"/><rect x="84.52" y="43.97" width="5.07" height="5.07" fill="#f9f2d4"/><rect x="84.52" y="38.91" width="5.07" height="5.07" fill="#f9f2d4"/><rect x="84.52" y="33.84" width="5.07" height="5.07" fill="#f9f2d4"/><rect x="84.52" y="28.77" width="5.07" height="5.07" fill="#f9f2d4"/><rect x="84.52" y="23.7" width="5.07" height="5.07" fill="#f9f2d4"/><rect x="84.52" y="18.64" width="5.07" height="5.07" fill="#f9f2d4"/><rect x="84.52" y="13.57" width="5.07" height="5.07" fill="#f9f2d4"/><rect x="84.52" y="8.5" width="5.07" height="5.07" fill="#1b0003"/><rect x="79.45" y="119.99" width="5.07" height="5.07" fill="#1b0003"/><rect x="79.45" y="114.92" width="5.07" height="5.07" fill="#f9f2d4"/><rect x="79.45" y="109.85" width="5.07" height="5.07" fill="#f9f2d4"/><rect x="79.45" y="104.79" width="5.07" height="5.07" fill="#f9f2d4"/><rect x="79.45" y="99.72" width="5.07" height="5.07" fill="#f9f2d4"/><rect x="79.45" y="94.65" width="5.07" height="5.07" fill="#f9f2d4"/><rect x="79.45" y="89.58" width="5.07" height="5.07" fill="#1b0003"/><rect x="79.45" y="84.52" width="5.07" height="5.07" fill="#1b0003"/><rect x="79.45" y="79.45" width="5.07" height="5.07" fill="#1b0003"/><rect x="79.45" y="74.38" width="5.07" height="5.07" fill="#1b0003"/><rect x="79.45" y="69.31" width="5.07" height="5.07" fill="#f9f2d4"/><rect x="79.45" y="64.24" width="5.07" height="5.07" fill="#f9f2d4"/><rect x="79.45" y="59.18" width="5.07" height="5.07" fill="#f9f2d4"/><rect x="79.45" y="54.11" width="5.07" height="5.07" fill="#f9f2d4"/><rect x="79.45" y="49.04" width="5.07" height="5.07" fill="#f9f2d4"/><rect x="79.45" y="43.97" width="5.07" height="5.07" fill="#f9f2d4"/><rect x="79.45" y="38.91" width="5.07" height="5.07" fill="#f9f2d4"/><rect x="79.45" y="33.84" width="5.07" height="5.07" fill="#f9f2d4"/><rect x="79.45" y="28.77" width="5.07" height="5.07" fill="#f9f2d4"/><rect x="79.45" y="23.7" width="5.07" height="5.07" fill="#f9f2d4"/><rect x="79.45" y="18.64" width="5.07" height="5.07" fill="#f9f2d4"/><rect x="79.45" y="13.57" width="5.07" height="5.07" fill="#f9f2d4"/><rect x="79.45" y="8.5" width="5.07" height="5.07" fill="#1b0003"/><rect x="74.38" y="119.99" width="5.07" height="5.07" fill="#1b0003"/><rect x="74.38" y="114.92" width="5.07" height="5.07" fill="#1b0003"/><rect x="74.38" y="109.85" width="5.07" height="5.07" fill="#1b0003"/><rect x="74.38" y="104.79" width="5.07" height="5.07" fill="#f9f2d4"/><rect x="74.38" y="99.72" width="5.07" height="5.07" fill="#f9f2d4"/><rect x="74.38" y="94.65" width="5.07" height="5.07" fill="#f9f2d4"/><rect x="74.38" y="89.58" width="5.07" height="5.07" fill="#f9f2d4"/><rect x="74.38" y="84.52" width="5.07" height="5.07" fill="#f9f2d4"/><rect x="74.38" y="79.45" width="5.07" height="5.07" fill="#f9f2d4"/><rect x="74.38" y="74.38" width="5.07" height="5.07" fill="#f9f2d4"/><rect x="74.38" y="69.31" width="5.07" height="5.07" fill="#f9f2d4"/><rect x="74.38" y="64.24" width="5.07" height="5.07" fill="#f9f2d4"/><rect x="74.38" y="59.18" width="5.07" height="5.07" fill="#f9f2d4"/><rect x="74.38" y="54.11" width="5.07" height="5.07" fill="#f9f2d4"/><rect x="74.38" y="49.04" width="5.07" height="5.07" fill="#f9f2d4"/><rect x="74.38" y="43.97" width="5.07" height="5.07" fill="#f9f2d4"/><rect x="74.38" y="38.91" width="5.07" height="5.07" fill="#f9f2d4"/><rect x="74.38" y="33.84" width="5.07" height="5.07" fill="#f9f2d4"/><rect x="74.38" y="28.77" width="5.07" height="5.07" fill="#f9f2d4"/><rect x="74.38" y="23.7" width="5.07" height="5.07" fill="#f9f2d4"/><rect x="74.38" y="18.64" width="5.07" height="5.07" fill="#f9f2d4"/><rect x="74.38" y="13.57" width="5.07" height="5.07" fill="#f9f2d4"/><rect x="74.38" y="8.5" width="5.07" height="5.07" fill="#1b0003"/><rect x="69.31" y="119.99" width="5.07" height="5.07" fill="#1b0003"/><rect x="69.31" y="114.92" width="5.07" height="5.07" fill="#f9f2d4"/><rect x="69.31" y="109.85" width="5.07" height="5.07" fill="#f9f2d4"/><rect x="69.31" y="104.79" width="5.07" height="5.07" fill="#f9f2d4"/><rect x="69.31" y="99.72" width="5.07" height="5.07" fill="#ead0b9"/><rect x="69.31" y="94.65" width="5.07" height="5.07" fill="#f9f2d4"/><rect x="69.31" y="89.58" width="5.07" height="5.07" fill="#f9f2d4"/><rect x="69.31" y="84.52" width="5.07" height="5.07" fill="#f9f2d4"/><rect x="69.31" y="79.45" width="5.07" height="5.07" fill="#f9f2d4"/><rect x="69.31" y="74.38" width="5.07" height="5.07" fill="#f9f2d4"/><rect x="69.31" y="69.31" width="5.07" height="5.07" fill="#f9f2d4"/><rect x="69.31" y="64.24" width="5.07" height="5.07" fill="#f9f2d4"/><rect x="69.31" y="59.18" width="5.07" height="5.07" fill="#f9f2d4"/><rect x="69.31" y="54.11" width="5.07" height="5.07" fill="#f9f2d4"/><rect x="69.31" y="49.04" width="5.07" height="5.07" fill="#f9f2d4"/><rect x="69.31" y="43.97" width="5.07" height="5.07" fill="#f9f2d4"/><rect x="69.31" y="38.91" width="5.07" height="5.07" fill="#f9f2d4"/><rect x="69.31" y="33.84" width="5.07" height="5.07" fill="#f9f2d4"/><rect x="69.31" y="28.77" width="5.07" height="5.07" fill="#f9f2d4"/><rect x="69.31" y="23.7" width="5.07" height="5.07" fill="#f9f2d4"/><rect x="69.31" y="18.64" width="5.07" height="5.07" fill="#f9f2d4"/><rect x="69.31" y="13.57" width="5.07" height="5.07" fill="#f9f2d4"/><rect x="69.31" y="8.5" width="5.07" height="5.07" fill="#1b0003"/><rect x="64.24" y="119.99" width="5.07" height="5.07" fill="#1b0003"/><rect x="64.24" y="114.92" width="5.07" height="5.07" fill="#f9f2d4"/><rect x="64.24" y="109.85" width="5.07" height="5.07" fill="#f9f2d4"/><rect x="64.24" y="104.79" width="5.07" height="5.07" fill="#f9f2d4"/><rect x="64.24" y="99.72" width="5.07" height="5.07" fill="#d3af9f"/><rect x="64.24" y="94.65" width="5.07" height="5.07" fill="#ead0b9"/><rect x="64.24" y="89.58" width="5.07" height="5.07" fill="#f9f2d4"/><rect x="64.24" y="84.52" width="5.07" height="5.07" fill="#f9f2d4"/><rect x="64.24" y="79.45" width="5.07" height="5.07" fill="#f9f2d4"/><rect x="64.24" y="74.38" width="5.07" height="5.07" fill="#f9f2d4"/><rect x="64.24" y="69.31" width="5.07" height="5.07" fill="#f9f2d4"/><rect x="64.24" y="64.24" width="5.07" height="5.07" fill="#f9f2d4"/><rect x="64.24" y="59.18" width="5.07" height="5.07" fill="#f9f2d4"/><rect x="64.24" y="54.11" width="5.07" height="5.07" fill="#f9f2d4"/><rect x="64.24" y="49.04" width="5.07" height="5.07" fill="#f9f2d4"/><rect x="64.24" y="43.97" width="5.07" height="5.07" fill="#f9f2d4"/><rect x="64.24" y="38.91" width="5.07" height="5.07" fill="#f9f2d4"/><rect x="64.24" y="33.84" width="5.07" height="5.07" fill="#f9f2d4"/><rect x="64.24" y="28.77" width="5.07" height="5.07" fill="#f9f2d4"/><rect x="64.24" y="23.7" width="5.07" height="5.07" fill="#f9f2d4"/><rect x="64.24" y="18.64" width="5.07" height="5.07" fill="#f9f2d4"/><rect x="64.24" y="13.57" width="5.07" height="5.07" fill="#f9f2d4"/><rect x="64.24" y="8.5" width="5.07" height="5.07" fill="#1b0003"/><rect x="59.18" y="119.99" width="5.07" height="5.07" fill="#1b0003"/><rect x="59.18" y="114.92" width="5.07" height="5.07" fill="#f9f2d4"/><rect x="59.18" y="109.85" width="5.07" height="5.07" fill="#f9f2d4"/><rect x="59.18" y="104.79" width="5.07" height="5.07" fill="#f9f2d4"/><rect x="59.18" y="99.72" width="5.07" height="5.07" fill="#ead0b9"/><rect x="59.18" y="94.65" width="5.07" height="5.07" fill="#f9f2d4"/><rect x="59.18" y="89.58" width="5.07" height="5.07" fill="#f9f2d4"/><rect x="59.18" y="84.52" width="5.07" height="5.07" fill="#f9f2d4"/><rect x="59.18" y="79.45" width="5.07" height="5.07" fill="#f9f2d4"/><rect x="59.18" y="74.38" width="5.07" height="5.07" fill="#f9f2d4"/><rect x="59.18" y="69.31" width="5.07" height="5.07" fill="#f9f2d4"/><rect x="59.18" y="64.24" width="5.07" height="5.07" fill="#f9f2d4"/><rect x="59.18" y="59.18" width="5.07" height="5.07" fill="#f9f2d4"/><rect x="59.18" y="54.11" width="5.07" height="5.07" fill="#f9f2d4"/><rect x="59.18" y="49.04" width="5.07" height="5.07" fill="#f9f2d4"/><rect x="59.18" y="43.97" width="5.07" height="5.07" fill="#f9f2d4"/><rect x="59.18" y="38.91" width="5.07" height="5.07" fill="#f9f2d4"/><rect x="59.18" y="33.84" width="5.07" height="5.07" fill="#f9f2d4"/><rect x="59.18" y="28.77" width="5.07" height="5.07" fill="#f9f2d4"/><rect x="59.18" y="23.7" width="5.07" height="5.07" fill="#f9f2d4"/><rect x="59.18" y="18.64" width="5.07" height="5.07" fill="#f9f2d4"/><rect x="59.18" y="13.57" width="5.07" height="5.07" fill="#f9f2d4"/><rect x="59.18" y="8.5" width="5.07" height="5.07" fill="#1b0003"/><rect x="54.11" y="119.99" width="5.07" height="5.07" fill="#1b0003"/><rect x="54.11" y="114.92" width="5.07" height="5.07" fill="#1b0003"/><rect x="54.11" y="109.85" width="5.07" height="5.07" fill="#1b0003"/><rect x="54.11" y="104.79" width="5.07" height="5.07" fill="#f9f2d4"/><rect x="54.11" y="99.72" width="5.07" height="5.07" fill="#f9f2d4"/><rect x="54.11" y="94.65" width="5.07" height="5.07" fill="#f9f2d4"/><rect x="54.11" y="89.58" width="5.07" height="5.07" fill="#f9f2d4"/><rect x="54.11" y="84.52" width="5.07" height="5.07" fill="#f9f2d4"/><rect x="54.11" y="79.45" width="5.07" height="5.07" fill="#f9f2d4"/><rect x="54.11" y="74.38" width="5.07" height="5.07" fill="#f9f2d4"/><rect x="54.11" y="69.31" width="5.07" height="5.07" fill="#f9f2d4"/><rect x="54.11" y="64.24" width="5.07" height="5.07" fill="#f9f2d4"/><rect x="54.11" y="59.18" width="5.07" height="5.07" fill="#f9f2d4"/><rect x="54.11" y="54.11" width="5.07" height="5.07" fill="#f9f2d4"/><rect x="54.11" y="49.04" width="5.07" height="5.07" fill="#f9f2d4"/><rect x="54.11" y="43.97" width="5.07" height="5.07" fill="#f9f2d4"/><rect x="54.11" y="38.91" width="5.07" height="5.07" fill="#f9f2d4"/><rect x="54.11" y="33.84" width="5.07" height="5.07" fill="#f7f3e4"/><rect x="54.11" y="28.77" width="5.07" height="5.07" fill="#f7f3e4"/><rect x="54.11" y="23.7" width="5.07" height="5.07" fill="#f7f3e4"/><rect x="54.11" y="18.64" width="5.07" height="5.07" fill="#f9f2d4"/><rect x="54.11" y="13.57" width="5.07" height="5.07" fill="#f9f2d4"/><rect x="54.11" y="8.5" width="5.07" height="5.07" fill="#1b0003"/><rect x="49.04" y="119.99" width="5.07" height="5.07" fill="#1b0003"/><rect x="49.04" y="114.92" width="5.07" height="5.07" fill="#f9f2d4"/><rect x="49.04" y="109.85" width="5.07" height="5.07" fill="#f9f2d4"/><rect x="49.04" y="104.79" width="5.07" height="5.07" fill="#f9f2d4"/><rect x="49.04" y="99.72" width="5.07" height="5.07" fill="#f9f2d4"/><rect x="49.04" y="94.65" width="5.07" height="5.07" fill="#f9f2d4"/><rect x="49.04" y="89.58" width="5.07" height="5.07" fill="#1b0003"/><rect x="49.04" y="84.52" width="5.07" height="5.07" fill="#1b0003"/><rect x="49.04" y="79.45" width="5.07" height="5.07" fill="#1b0003"/><rect x="49.04" y="74.38" width="5.07" height="5.07" fill="#1b0003"/><rect x="49.04" y="69.31" width="5.07" height="5.07" fill="#f9f2d4"/><rect x="49.04" y="64.24" width="5.07" height="5.07" fill="#f9f2d4"/><rect x="49.04" y="59.18" width="5.07" height="5.07" fill="#f9f2d4"/><rect x="49.04" y="54.11" width="5.07" height="5.07" fill="#f9f2d4"/><rect x="49.04" y="49.04" width="5.07" height="5.07" fill="#f9f2d4"/><rect x="49.04" y="43.97" width="5.07" height="5.07" fill="#f9f2d4"/><rect x="49.04" y="38.91" width="5.07" height="5.07" fill="#f9f2d4"/><rect x="49.04" y="33.84" width="5.07" height="5.07" fill="#f7f3e4"/><rect x="49.04" y="28.77" width="5.07" height="5.07" fill="#f7f3e4"/><rect x="49.04" y="23.7" width="5.07" height="5.07" fill="#f7f3e4"/><rect x="49.04" y="18.64" width="5.07" height="5.07" fill="#f7f3e4"/><rect x="49.04" y="13.57" width="5.07" height="5.07" fill="#f9f2d4"/><rect x="49.04" y="8.5" width="5.07" height="5.07" fill="#1b0003"/><rect x="43.97" y="119.99" width="5.07" height="5.07" fill="#1b0003"/><rect x="43.97" y="114.92" width="5.07" height="5.07" fill="#f9f2d4"/><rect x="43.97" y="109.85" width="5.07" height="5.07" fill="#f9f2d4"/><rect x="43.97" y="104.79" width="5.07" height="5.07" fill="#f9f2d4"/><rect x="43.97" y="99.72" width="5.07" height="5.07" fill="#f9f2d4"/><rect x="43.97" y="94.65" width="5.07" height="5.07" fill="#f9f2d4"/><rect x="43.97" y="89.58" width="5.07" height="5.07" fill="#1b0003"/><rect x="43.97" y="84.52" width="5.07" height="5.07" fill="#1b0003"/><rect x="43.97" y="79.45" width="5.07" height="5.07" fill="#1b0003"/><rect x="43.97" y="74.38" width="5.07" height="5.07" fill="#1b0003"/><rect x="43.97" y="69.31" width="5.07" height="5.07" fill="#f9f2d4"/><rect x="43.97" y="64.24" width="5.07" height="5.07" fill="#f9f2d4"/><rect x="43.97" y="59.18" width="5.07" height="5.07" fill="#f9f2d4"/><rect x="43.97" y="54.11" width="5.07" height="5.07" fill="#f9f2d4"/><rect x="43.97" y="49.04" width="5.07" height="5.07" fill="#f9f2d4"/><rect x="43.97" y="43.97" width="5.07" height="5.07" fill="#f9f2d4"/><rect x="43.97" y="38.91" width="5.07" height="5.07" fill="#f7f3e4"/><rect x="43.97" y="33.84" width="5.07" height="5.07" fill="#f7f3e4"/><rect x="43.97" y="28.77" width="5.07" height="5.07" fill="#f7f3e4"/><rect x="43.97" y="23.7" width="5.07" height="5.07" fill="#f7f3e4"/><rect x="43.97" y="18.64" width="5.07" height="5.07" fill="#f9f2d4"/><rect x="43.97" y="13.57" width="5.07" height="5.07" fill="#f9f2d4"/><rect x="43.97" y="8.5" width="5.07" height="5.07" fill="#1b0003"/><rect x="38.91" y="114.92" width="5.07" height="5.07" fill="#1b0003"/><rect x="38.91" y="109.85" width="5.07" height="5.07" fill="#ead0b9"/><rect x="38.91" y="104.79" width="5.07" height="5.07" fill="#ead0b9"/><rect x="38.91" y="99.72" width="5.07" height="5.07" fill="#ead0b9"/><rect x="38.91" y="94.65" width="5.07" height="5.07" fill="#f9f2d4"/><rect x="38.91" y="89.58" width="5.07" height="5.07" fill="#1b0003"/><rect x="38.91" y="84.52" width="5.07" height="5.07" fill="#1b0003"/><rect x="38.91" y="79.45" width="5.07" height="5.07" fill="#1b0003"/><rect x="38.91" y="74.38" width="5.07" height="5.07" fill="#1b0003"/><rect x="38.91" y="69.31" width="5.07" height="5.07" fill="#f9f2d4"/><rect x="38.91" y="64.24" width="5.07" height="5.07" fill="#f9f2d4"/><rect x="38.91" y="59.18" width="5.07" height="5.07" fill="#f9f2d4"/><rect x="38.91" y="54.11" width="5.07" height="5.07" fill="#f9f2d4"/><rect x="38.91" y="49.04" width="5.07" height="5.07" fill="#f9f2d4"/><rect x="38.91" y="43.97" width="5.07" height="5.07" fill="#f9f2d4"/><rect x="38.91" y="38.91" width="5.07" height="5.07" fill="#f7f3e4"/><rect x="38.91" y="33.84" width="5.07" height="5.07" fill="#f7f3e4"/><rect x="38.91" y="28.77" width="5.07" height="5.07" fill="#f7f3e4"/><rect x="38.91" y="23.7" width="5.07" height="5.07" fill="#f7f3e4"/><rect x="38.91" y="18.64" width="5.07" height="5.07" fill="#f9f2d4"/><rect x="38.91" y="13.57" width="5.07" height="5.07" fill="#f9f2d4"/><rect x="38.91" y="8.5" width="5.07" height="5.07" fill="#1b0003"/><rect x="33.84" y="109.85" width="5.07" height="5.07" fill="#1b0003"/><rect x="33.84" y="104.79" width="5.07" height="5.07" fill="#1b0003"/><rect x="33.84" y="99.72" width="5.07" height="5.07" fill="#1b0003"/><rect x="33.84" y="94.65" width="5.07" height="5.07" fill="#ead0b9"/><rect x="33.84" y="89.58" width="5.07" height="5.07" fill="#f9f2d4"/><rect x="33.84" y="84.52" width="5.07" height="5.07" fill="#f9f2d4"/><rect x="33.84" y="79.45" width="5.07" height="5.07" fill="#f9f2d4"/><rect x="33.84" y="74.38" width="5.07" height="5.07" fill="#f9f2d4"/><rect x="33.84" y="69.31" width="5.07" height="5.07" fill="#f9f2d4"/><rect x="33.84" y="64.24" width="5.07" height="5.07" fill="#f9f2d4"/><rect x="33.84" y="59.18" width="5.07" height="5.07" fill="#f9f2d4"/><rect x="33.84" y="54.11" width="5.07" height="5.07" fill="#f9f2d4"/><rect x="33.84" y="49.04" width="5.07" height="5.07" fill="#f9f2d4"/><rect x="33.84" y="43.97" width="5.07" height="5.07" fill="#f9f2d4"/><rect x="33.84" y="38.91" width="5.07" height="5.07" fill="#f7f3e4"/><rect x="33.84" y="33.84" width="5.07" height="5.07" fill="#f7f3e4"/><rect x="33.84" y="28.77" width="5.07" height="5.07" fill="#f9f2d4"/><rect x="33.84" y="23.7" width="5.07" height="5.07" fill="#f9f2d4"/><rect x="33.84" y="18.64" width="5.07" height="5.07" fill="#f9f2d4"/><rect x="33.84" y="13.57" width="5.07" height="5.07" fill="#1b0003"/><rect x="28.77" y="94.65" width="5.07" height="5.07" fill="#1b0003"/><rect x="28.77" y="89.58" width="5.07" height="5.07" fill="#ead0b9"/><rect x="28.77" y="84.52" width="5.07" height="5.07" fill="#f9f2d4"/><rect x="28.77" y="79.45" width="5.07" height="5.07" fill="#f9f2d4"/><rect x="28.77" y="74.38" width="5.07" height="5.07" fill="#f9f2d4"/><rect x="28.77" y="69.31" width="5.07" height="5.07" fill="#f9f2d4"/><rect x="28.77" y="64.24" width="5.07" height="5.07" fill="#f9f2d4"/><rect x="28.77" y="59.18" width="5.07" height="5.07" fill="#f9f2d4"/><rect x="28.77" y="54.11" width="5.07" height="5.07" fill="#f9f2d4"/><rect x="28.77" y="49.04" width="5.07" height="5.07" fill="#f9f2d4"/><rect x="28.77" y="43.97" width="5.07" height="5.07" fill="#f9f2d4"/><rect x="28.77" y="38.91" width="5.07" height="5.07" fill="#f7f3e4"/><rect x="28.77" y="33.84" width="5.07" height="5.07" fill="#f7f3e4"/><rect x="28.77" y="28.77" width="5.07" height="5.07" fill="#f9f2d4"/><rect x="28.77" y="23.7" width="5.07" height="5.07" fill="#f9f2d4"/><rect x="28.77" y="18.64" width="5.07" height="5.07" fill="#f9f2d4"/><rect x="28.77" y="13.57" width="5.07" height="5.07" fill="#1b0003"/><rect x="23.7" y="94.65" width="5.07" height="5.07" fill="#1b0003"/><rect x="23.7" y="89.58" width="5.07" height="5.07" fill="#ead0b9"/><rect x="23.7" y="84.52" width="5.07" height="5.07" fill="#f9f2d4"/><rect x="23.7" y="79.45" width="5.07" height="5.07" fill="#f9f2d4"/><rect x="23.7" y="74.38" width="5.07" height="5.07" fill="#f9f2d4"/><rect x="23.7" y="69.31" width="5.07" height="5.07" fill="#f9f2d4"/><rect x="23.7" y="64.24" width="5.07" height="5.07" fill="#f9f2d4"/><rect x="23.7" y="59.18" width="5.07" height="5.07" fill="#f9f2d4"/><rect x="23.7" y="54.11" width="5.07" height="5.07" fill="#f9f2d4"/><rect x="23.7" y="49.04" width="5.07" height="5.07" fill="#f9f2d4"/><rect x="23.7" y="43.97" width="5.07" height="5.07" fill="#f9f2d4"/><rect x="23.7" y="38.91" width="5.07" height="5.07" fill="#f9f2d4"/><rect x="23.7" y="33.84" width="5.07" height="5.07" fill="#f9f2d4"/><rect x="23.7" y="28.77" width="5.07" height="5.07" fill="#f9f2d4"/><rect x="23.7" y="23.7" width="5.07" height="5.07" fill="#f9f2d4"/><rect x="23.7" y="18.64" width="5.07" height="5.07" fill="#1b0003"/><rect x="18.64" y="89.58" width="5.07" height="5.07" fill="#1b0003"/><rect x="18.64" y="84.52" width="5.07" height="5.07" fill="#f9f2d4"/><rect x="18.64" y="79.45" width="5.07" height="5.07" fill="#f9f2d4"/><rect x="18.64" y="74.38" width="5.07" height="5.07" fill="#f9f2d4"/><rect x="18.64" y="69.31" width="5.07" height="5.07" fill="#f9f2d4"/><rect x="18.64" y="64.24" width="5.07" height="5.07" fill="#f9f2d4"/><rect x="18.64" y="59.18" width="5.07" height="5.07" fill="#f9f2d4"/><rect x="18.64" y="54.11" width="5.07" height="5.07" fill="#f9f2d4"/><rect x="18.64" y="49.04" width="5.07" height="5.07" fill="#f9f2d4"/><rect x="18.64" y="43.97" width="5.07" height="5.07" fill="#f9f2d4"/><rect x="18.64" y="38.91" width="5.07" height="5.07" fill="#f9f2d4"/><rect x="18.64" y="33.84" width="5.07" height="5.07" fill="#f9f2d4"/><rect x="18.64" y="28.77" width="5.07" height="5.07" fill="#1b0003"/><rect x="18.64" y="23.7" width="5.07" height="5.07" fill="#1b0003"/><rect x="13.57" y="84.52" width="5.07" height="5.07" fill="#1b0003"/><rect x="13.57" y="79.45" width="5.07" height="5.07" fill="#1b0003"/><rect x="13.57" y="74.38" width="5.07" height="5.07" fill="#f9f2d4"/><rect x="13.57" y="69.31" width="5.07" height="5.07" fill="#f9f2d4"/><rect x="13.57" y="64.24" width="5.07" height="5.07" fill="#f9f2d4"/><rect x="13.57" y="59.18" width="5.07" height="5.07" fill="#f9f2d4"/><rect x="13.57" y="54.11" width="5.07" height="5.07" fill="#f9f2d4"/><rect x="13.57" y="49.04" width="5.07" height="5.07" fill="#f9f2d4"/><rect x="13.57" y="43.97" width="5.07" height="5.07" fill="#f9f2d4"/><rect x="13.57" y="38.91" width="5.07" height="5.07" fill="#1b0003"/><rect x="13.57" y="33.84" width="5.07" height="5.07" fill="#1b0003"/><rect x="8.5" y="74.38" width="5.07" height="5.07" fill="#1b0003"/><rect x="8.5" y="69.31" width="5.07" height="5.07" fill="#1b0003"/><rect x="8.5" y="64.24" width="5.07" height="5.07" fill="#1b0003"/><rect x="8.5" y="59.18" width="5.07" height="5.07" fill="#1b0003"/><rect x="8.5" y="54.11" width="5.07" height="5.07" fill="#1b0003"/><rect x="8.5" y="49.04" width="5.07" height="5.07" fill="#1b0003"/><rect x="8.5" y="43.97" width="5.07" height="5.07" fill="#1b0003"/></g></g></g></g></svg>