<svg xmlns="http://www.w3.org/2000/svg" width="153.53" height="148.47" viewBox="0 0 153.53 148.47"><g id="Layer_2" data-name="Layer 2"><g id="items"><g id="Tombstone"><path d="M153.53,148.47H0V121.36H5.06V116.3h5.05V106.19h5.06v-5.06h5.06V25.28h5.05V15.17h5.06V10.11H35.4v-5H45.51V0H108V5.06h10.11v5.05h5.06v5.06h5.05V25.28h5.06v75.85h5.06v5.06h5V116.3h5.06v5.06h5.06Zm-126.42-17h99.3v-8.28h-5v-5.06H116.3V42.28h-5.06V32.17h-5V27.11h-5.06V22.06H91V17H62.51v5.06H52.4v5.05H47.34v5.06H42.28V42.28H37.23v75.85H32.17v5.06H27.11Z" fill="#fff"/><g id="Tombstone-2" data-name="Tombstone"><rect x="139.97" y="134.91" width="5.06" height="5.06" fill="#1b0003"/><rect x="139.97" y="129.86" width="5.06" height="5.06" fill="#1b0003"/><rect x="134.91" y="134.91" width="5.06" height="5.06" fill="#1b0003"/><rect x="134.91" y="129.86" width="5.06" height="5.06" fill="#6a87af"/><rect x="134.91" y="124.8" width="5.06" height="5.06" fill="#1b0003"/><rect x="129.86" y="134.91" width="5.06" height="5.06" fill="#1b0003"/><rect x="129.86" y="129.86" width="5.06" height="5.06" fill="#3c5a77"/><rect x="129.86" y="124.8" width="5.06" height="5.06" fill="#6a87af"/><rect x="129.86" y="119.74" width="5.06" height="5.06" fill="#1b0003"/><rect x="129.86" y="114.69" width="5.06" height="5.06" fill="#1b0003"/><rect x="124.8" y="134.91" width="5.06" height="5.06" fill="#1b0003"/><rect x="124.8" y="129.86" width="5.06" height="5.06" fill="#3c5a77"/><rect x="124.8" y="124.8" width="5.06" height="5.06" fill="#3c5a77"/><rect x="124.8" y="119.74" width="5.06" height="5.06" fill="#3c5a77"/><rect x="124.8" y="114.69" width="5.06" height="5.06" fill="#6a87af"/><rect x="124.8" y="109.63" width="5.06" height="5.06" fill="#1b0003"/><rect x="119.74" y="134.91" width="5.06" height="5.06" fill="#1b0003"/><rect x="119.74" y="129.86" width="5.06" height="5.06" fill="#486a93"/><rect x="119.74" y="124.8" width="5.06" height="5.06" fill="#486a93"/><rect x="119.74" y="119.74" width="5.06" height="5.06" fill="#3c5a77"/><rect x="119.74" y="114.69" width="5.06" height="5.06" fill="#3c5a77"/><rect x="119.74" y="109.63" width="5.06" height="5.06" fill="#1b0003"/><rect x="119.74" y="104.57" width="5.06" height="5.06" fill="#1b0003"/><rect x="119.74" y="99.52" width="5.06" height="5.06" fill="#1b0003"/><rect x="119.74" y="94.46" width="5.06" height="5.06" fill="#1b0003"/><rect x="119.74" y="89.4" width="5.06" height="5.06" fill="#1b0003"/><rect x="119.74" y="84.35" width="5.06" height="5.06" fill="#1b0003"/><rect x="119.74" y="79.29" width="5.06" height="5.06" fill="#1b0003"/><rect x="119.74" y="74.24" width="5.06" height="5.06" fill="#1b0003"/><rect x="119.74" y="69.18" width="5.06" height="5.06" fill="#1b0003"/><rect x="119.74" y="64.12" width="5.06" height="5.06" fill="#1b0003"/><rect x="119.74" y="59.07" width="5.06" height="5.06" fill="#1b0003"/><rect x="119.74" y="54.01" width="5.06" height="5.06" fill="#1b0003"/><rect x="119.74" y="48.95" width="5.06" height="5.06" fill="#1b0003"/><rect x="119.74" y="43.9" width="5.06" height="5.06" fill="#1b0003"/><rect x="119.74" y="38.84" width="5.06" height="5.06" fill="#1b0003"/><rect x="119.74" y="33.78" width="5.06" height="5.06" fill="#1b0003"/><rect x="114.69" y="134.91" width="5.06" height="5.06" fill="#1b0003"/><rect x="114.69" y="129.86" width="5.06" height="5.06" fill="#6a87af"/><rect x="114.69" y="124.8" width="5.06" height="5.06" fill="#3c5a77"/><rect x="114.69" y="119.74" width="5.06" height="5.06" fill="#486a93"/><rect x="114.69" y="114.69" width="5.06" height="5.06" fill="#486a93"/><rect x="114.69" y="109.63" width="5.06" height="5.06" fill="#1b0003"/><rect x="114.69" y="104.57" width="5.06" height="5.06" fill="#6a87af"/><rect x="114.69" y="99.52" width="5.06" height="5.06" fill="#6a87af"/><rect x="114.69" y="94.46" width="5.06" height="5.06" fill="#6a87af"/><rect x="114.69" y="89.4" width="5.06" height="5.06" fill="#6a87af"/><rect x="114.69" y="84.35" width="5.06" height="5.06" fill="#6a87af"/><rect x="114.69" y="79.29" width="5.06" height="5.06" fill="#6a87af"/><rect x="114.69" y="74.24" width="5.06" height="5.06" fill="#6a87af"/><rect x="114.69" y="69.18" width="5.06" height="5.06" fill="#6a87af"/><rect x="114.69" y="64.12" width="5.06" height="5.06" fill="#6a87af"/><rect x="114.69" y="59.07" width="5.06" height="5.06" fill="#6a87af"/><rect x="114.69" y="54.01" width="5.06" height="5.06" fill="#6a87af"/><rect x="114.69" y="48.95" width="5.06" height="5.06" fill="#6a87af"/><rect x="114.69" y="43.9" width="5.06" height="5.06" fill="#6a87af"/><rect x="114.69" y="38.84" width="5.06" height="5.06" fill="#6a87af"/><rect x="114.69" y="33.78" width="5.06" height="5.06" fill="#6a87af"/><rect x="114.69" y="28.73" width="5.06" height="5.06" fill="#1b0003"/><rect x="114.69" y="23.67" width="5.06" height="5.06" fill="#1b0003"/><rect x="109.63" y="134.91" width="5.06" height="5.06" fill="#1b0003"/><rect x="109.63" y="129.86" width="5.06" height="5.06" fill="#3c5a77"/><rect x="109.63" y="124.8" width="5.06" height="5.06" fill="#486a93"/><rect x="109.63" y="119.74" width="5.06" height="5.06" fill="#3c5a77"/><rect x="109.63" y="114.69" width="5.06" height="5.06" fill="#486a93"/><rect x="109.63" y="109.63" width="5.06" height="5.06" fill="#1b0003"/><rect x="109.63" y="104.57" width="5.06" height="5.06" fill="#486a93"/><rect x="109.63" y="99.52" width="5.06" height="5.06" fill="#486a93"/><rect x="109.63" y="94.46" width="5.06" height="5.06" fill="#486a93"/><rect x="109.63" y="89.4" width="5.06" height="5.06" fill="#486a93"/><rect x="109.63" y="84.35" width="5.06" height="5.06" fill="#486a93"/><rect x="109.63" y="79.29" width="5.06" height="5.06" fill="#486a93"/><rect x="109.63" y="74.24" width="5.06" height="5.06" fill="#486a93"/><rect x="109.63" y="69.18" width="5.06" height="5.06" fill="#486a93"/><rect x="109.63" y="64.12" width="5.06" height="5.06" fill="#486a93"/><rect x="109.63" y="59.07" width="5.06" height="5.06" fill="#486a93"/><rect x="109.63" y="54.01" width="5.06" height="5.06" fill="#486a93"/><rect x="109.63" y="48.95" width="5.06" height="5.06" fill="#486a93"/><rect x="109.63" y="43.9" width="5.06" height="5.06" fill="#486a93"/><rect x="109.63" y="38.84" width="5.06" height="5.06" fill="#486a93"/><rect x="109.63" y="33.78" width="5.06" height="5.06" fill="#486a93"/><rect x="109.63" y="28.73" width="5.06" height="5.06" fill="#3c5a77"/><rect x="109.63" y="23.67" width="5.06" height="5.06" fill="#3c5a77"/><rect x="109.63" y="18.61" width="5.06" height="5.06" fill="#1b0003"/><rect x="104.57" y="134.91" width="5.06" height="5.06" fill="#1b0003"/><rect x="104.57" y="129.86" width="5.06" height="5.06" fill="#6a87af"/><rect x="104.57" y="124.8" width="5.06" height="5.06" fill="#3c5a77"/><rect x="104.57" y="119.74" width="5.06" height="5.06" fill="#6a87af"/><rect x="104.57" y="114.69" width="5.06" height="5.06" fill="#3c5a77"/><rect x="104.57" y="109.63" width="5.06" height="5.06" fill="#1b0003"/><rect x="104.57" y="104.57" width="5.06" height="5.06" fill="#bedbed"/><rect x="104.57" y="99.52" width="5.06" height="5.06" fill="#bedbed"/><rect x="104.57" y="94.46" width="5.06" height="5.06" fill="#bedbed"/><rect x="104.57" y="89.4" width="5.06" height="5.06" fill="#bedbed"/><rect x="104.57" y="84.35" width="5.06" height="5.06" fill="#bedbed"/><rect x="104.57" y="79.29" width="5.06" height="5.06" fill="#bedbed"/><rect x="104.57" y="74.24" width="5.06" height="5.06" fill="#bedbed"/><rect x="104.57" y="69.18" width="5.06" height="5.06" fill="#bedbed"/><rect x="104.57" y="64.12" width="5.06" height="5.06" fill="#bedbed"/><rect x="104.57" y="59.07" width="5.06" height="5.06" fill="#bedbed"/><rect x="104.57" y="54.01" width="5.06" height="5.06" fill="#bedbed"/><rect x="104.57" y="48.95" width="5.06" height="5.06" fill="#bedbed"/><rect x="104.57" y="43.9" width="5.06" height="5.06" fill="#bedbed"/><rect x="104.57" y="38.84" width="5.06" height="5.06" fill="#bedbed"/><rect x="104.57" y="33.78" width="5.06" height="5.06" fill="#bedbed"/><rect x="104.57" y="28.73" width="5.06" height="5.06" fill="#bedbed"/><rect x="104.57" y="23.67" width="5.06" height="5.06" fill="#486a93"/><rect x="104.57" y="18.61" width="5.06" height="5.06" fill="#3c5a77"/><rect x="104.57" y="13.56" width="5.06" height="5.06" fill="#1b0003"/><rect x="99.52" y="134.91" width="5.06" height="5.06" fill="#1b0003"/><rect x="99.52" y="129.86" width="5.06" height="5.06" fill="#6a87af"/><rect x="99.52" y="124.8" width="5.06" height="5.06" fill="#486a93"/><rect x="99.52" y="119.74" width="5.06" height="5.06" fill="#3c5a77"/><rect x="99.52" y="114.69" width="5.06" height="5.06" fill="#6a87af"/><rect x="99.52" y="109.63" width="5.06" height="5.06" fill="#1b0003"/><rect x="99.52" y="104.57" width="5.06" height="5.06" fill="#bedbed"/><rect x="99.52" y="99.52" width="5.06" height="5.06" fill="#bedbed"/><rect x="99.52" y="94.46" width="5.06" height="5.06" fill="#bedbed"/><rect x="99.52" y="89.4" width="5.06" height="5.06" fill="#bedbed"/><rect x="99.52" y="84.35" width="5.06" height="5.06" fill="#bedbed"/><rect x="99.52" y="79.29" width="5.06" height="5.06" fill="#bedbed"/><rect x="99.52" y="74.24" width="5.06" height="5.06" fill="#bedbed"/><rect x="99.52" y="69.18" width="5.06" height="5.06" fill="#bedbed"/><rect x="99.52" y="64.12" width="5.06" height="5.06" fill="#bedbed"/><rect x="99.52" y="59.07" width="5.06" height="5.06" fill="#bedbed"/><rect x="99.52" y="54.01" width="5.06" height="5.06" fill="#bedbed"/><rect x="99.52" y="48.95" width="5.06" height="5.06" fill="#bedbed"/><rect x="99.52" y="43.9" width="5.06" height="5.06" fill="#bedbed"/><rect x="99.52" y="38.84" width="5.06" height="5.06" fill="#bedbed"/><rect x="99.52" y="33.78" width="5.06" height="5.06" fill="#bedbed"/><rect x="99.52" y="28.73" width="5.06" height="5.06" fill="#bedbed"/><rect x="99.52" y="23.67" width="5.06" height="5.06" fill="#bedbed"/><rect x="99.52" y="18.61" width="5.06" height="5.06" fill="#486a93"/><rect x="99.52" y="13.56" width="5.06" height="5.06" fill="#1b0003"/><rect x="94.46" y="134.91" width="5.06" height="5.06" fill="#1b0003"/><rect x="94.46" y="129.86" width="5.06" height="5.06" fill="#6a87af"/><rect x="94.46" y="124.8" width="5.06" height="5.06" fill="#486a93"/><rect x="94.46" y="119.74" width="5.06" height="5.06" fill="#6a87af"/><rect x="94.46" y="114.69" width="5.06" height="5.06" fill="#3c5a77"/><rect x="94.46" y="109.63" width="5.06" height="5.06" fill="#1b0003"/><rect x="94.46" y="104.57" width="5.06" height="5.06" fill="#486a93"/><rect x="94.46" y="99.52" width="5.06" height="5.06" fill="#486a93"/><rect x="94.46" y="94.46" width="5.06" height="5.06" fill="#6a87af"/><rect x="94.46" y="89.4" width="5.06" height="5.06" fill="#486a93"/><rect x="94.46" y="84.35" width="5.06" height="5.06" fill="#6a87af"/><rect x="94.46" y="79.29" width="5.06" height="5.06" fill="#6a87af"/><rect x="94.46" y="74.24" width="5.06" height="5.06" fill="#6a87af"/><rect x="94.46" y="69.18" width="5.06" height="5.06" fill="#6a87af"/><rect x="94.46" y="64.12" width="5.06" height="5.06" fill="#6a87af"/><rect x="94.46" y="59.07" width="5.06" height="5.06" fill="#6a87af"/><rect x="94.46" y="54.01" width="5.06" height="5.06" fill="#6a87af"/><rect x="94.46" y="48.95" width="5.06" height="5.06" fill="#6a87af"/><rect x="94.46" y="43.9" width="5.06" height="5.06" fill="#6a87af"/><rect x="94.46" y="38.84" width="5.06" height="5.06" fill="#6a87af"/><rect x="94.46" y="33.78" width="5.06" height="5.06" fill="#bedbed"/><rect x="94.46" y="28.73" width="5.06" height="5.06" fill="#bedbed"/><rect x="94.46" y="23.67" width="5.06" height="5.06" fill="#bedbed"/><rect x="94.46" y="18.61" width="5.06" height="5.06" fill="#bedbed"/><rect x="94.46" y="13.56" width="5.06" height="5.06" fill="#6a87af"/><rect x="94.46" y="8.5" width="5.06" height="5.06" fill="#1b0003"/><rect x="89.4" y="134.91" width="5.06" height="5.06" fill="#1b0003"/><rect x="89.4" y="129.86" width="5.06" height="5.06" fill="#6a87af"/><rect x="89.4" y="124.8" width="5.06" height="5.06" fill="#486a93"/><rect x="89.4" y="119.74" width="5.06" height="5.06" fill="#6a87af"/><rect x="89.4" y="114.69" width="5.06" height="5.06" fill="#6a87af"/><rect x="89.4" y="109.63" width="5.06" height="5.06" fill="#1b0003"/><rect x="89.4" y="104.57" width="5.06" height="5.06" fill="#486a93"/><rect x="89.4" y="99.52" width="5.06" height="5.06" fill="#6a87af"/><rect x="89.4" y="94.46" width="5.06" height="5.06" fill="#486a93"/><rect x="89.4" y="89.4" width="5.06" height="5.06" fill="#6a87af"/><rect x="89.4" y="84.35" width="5.06" height="5.06" fill="#6a87af"/><rect x="89.4" y="79.29" width="5.06" height="5.06" fill="#6a87af"/><rect x="89.4" y="74.24" width="5.06" height="5.06" fill="#6a87af"/><rect x="89.4" y="69.18" width="5.06" height="5.06" fill="#6a87af"/><rect x="89.4" y="64.12" width="5.06" height="5.06" fill="#6a87af"/><rect x="89.4" y="59.07" width="5.06" height="5.06" fill="#6a87af"/><rect x="89.4" y="54.01" width="5.06" height="5.06" fill="#6a87af"/><rect x="89.4" y="48.95" width="5.06" height="5.06" fill="#6a87af"/><rect x="89.4" y="43.9" width="5.06" height="5.06" fill="#6a87af"/><rect x="89.4" y="38.84" width="5.06" height="5.06" fill="#6a87af"/><rect x="89.4" y="33.78" width="5.06" height="5.06" fill="#6a87af"/><rect x="89.4" y="28.73" width="5.06" height="5.06" fill="#bedbed"/><rect x="89.4" y="23.67" width="5.06" height="5.06" fill="#bedbed"/><rect x="89.4" y="18.61" width="5.06" height="5.06" fill="#bedbed"/><rect x="89.4" y="13.56" width="5.06" height="5.06" fill="#6a87af"/><rect x="89.4" y="8.5" width="5.06" height="5.06" fill="#1b0003"/><rect x="84.35" y="134.91" width="5.06" height="5.06" fill="#1b0003"/><rect x="84.35" y="129.86" width="5.06" height="5.06" fill="#6a87af"/><rect x="84.35" y="124.8" width="5.06" height="5.06" fill="#486a93"/><rect x="84.35" y="119.74" width="5.06" height="5.06" fill="#6a87af"/><rect x="84.35" y="114.69" width="5.06" height="5.06" fill="#6a87af"/><rect x="84.35" y="109.63" width="5.06" height="5.06" fill="#1b0003"/><rect x="84.35" y="104.57" width="5.06" height="5.06" fill="#6a87af"/><rect x="84.35" y="99.52" width="5.06" height="5.06" fill="#486a93"/><rect x="84.35" y="94.46" width="5.06" height="5.06" fill="#6a87af"/><rect x="84.35" y="89.4" width="5.06" height="5.06" fill="#6a87af"/><rect x="84.35" y="84.35" width="5.06" height="5.06" fill="#6a87af"/><rect x="84.35" y="79.29" width="5.06" height="5.06" fill="#6a87af"/><rect x="84.35" y="74.24" width="5.06" height="5.06" fill="#6a87af"/><rect x="84.35" y="69.18" width="5.06" height="5.06" fill="#6a87af"/><rect x="84.35" y="64.12" width="5.06" height="5.06" fill="#6a87af"/><rect x="84.35" y="59.07" width="5.06" height="5.06" fill="#6a87af"/><rect x="84.35" y="54.01" width="5.06" height="5.06" fill="#6a87af"/><rect x="84.35" y="48.95" width="5.06" height="5.06" fill="#6a87af"/><rect x="84.35" y="43.9" width="5.06" height="5.06" fill="#6a87af"/><rect x="84.35" y="38.84" width="5.06" height="5.06" fill="#6a87af"/><rect x="84.35" y="33.78" width="5.06" height="5.06" fill="#6a87af"/><rect x="84.35" y="28.73" width="5.06" height="5.06" fill="#6a87af"/><rect x="84.35" y="23.67" width="5.06" height="5.06" fill="#bedbed"/><rect x="84.35" y="18.61" width="5.06" height="5.06" fill="#bedbed"/><rect x="84.35" y="13.56" width="5.06" height="5.06" fill="#bedbed"/><rect x="84.35" y="8.5" width="5.06" height="5.06" fill="#1b0003"/><rect x="79.29" y="134.91" width="5.06" height="5.06" fill="#1b0003"/><rect x="79.29" y="129.86" width="5.06" height="5.06" fill="#6a87af"/><rect x="79.29" y="124.8" width="5.06" height="5.06" fill="#486a93"/><rect x="79.29" y="119.74" width="5.06" height="5.06" fill="#6a87af"/><rect x="79.29" y="114.69" width="5.06" height="5.06" fill="#6a87af"/><rect x="79.29" y="109.63" width="5.06" height="5.06" fill="#1b0003"/><rect x="79.29" y="104.57" width="5.06" height="5.06" fill="#486a93"/><rect x="79.29" y="99.52" width="5.06" height="5.06" fill="#6a87af"/><rect x="79.29" y="94.46" width="5.06" height="5.06" fill="#6a87af"/><rect x="79.29" y="89.4" width="5.06" height="5.06" fill="#6a87af"/><rect x="79.29" y="84.35" width="5.06" height="5.06" fill="#6a87af"/><rect x="79.29" y="79.29" width="5.06" height="5.06" fill="#6a87af"/><rect x="79.29" y="74.24" width="5.06" height="5.06" fill="#6a87af"/><rect x="79.29" y="69.18" width="5.06" height="5.06" fill="#6a87af"/><rect x="79.29" y="64.12" width="5.06" height="5.06" fill="#6a87af"/><rect x="79.29" y="59.07" width="5.06" height="5.06" fill="#6a87af"/><rect x="79.29" y="54.01" width="5.06" height="5.06" fill="#6a87af"/><rect x="79.29" y="48.95" width="5.06" height="5.06" fill="#6a87af"/><rect x="79.29" y="43.9" width="5.06" height="5.06" fill="#6a87af"/><rect x="79.29" y="38.84" width="5.06" height="5.06" fill="#6a87af"/><rect x="79.29" y="33.78" width="5.06" height="5.06" fill="#6a87af"/><rect x="79.29" y="28.73" width="5.06" height="5.06" fill="#6a87af"/><rect x="79.29" y="23.67" width="5.06" height="5.06" fill="#6a87af"/><rect x="79.29" y="18.61" width="5.06" height="5.06" fill="#bedbed"/><rect x="79.29" y="13.56" width="5.06" height="5.06" fill="#bedbed"/><rect x="79.29" y="8.5" width="5.06" height="5.06" fill="#1b0003"/><rect x="74.23" y="134.91" width="5.06" height="5.06" fill="#1b0003"/><rect x="74.23" y="129.86" width="5.06" height="5.06" fill="#6a87af"/><rect x="74.23" y="124.8" width="5.06" height="5.06" fill="#6a87af"/><rect x="74.23" y="119.74" width="5.06" height="5.06" fill="#6a87af"/><rect x="74.23" y="114.69" width="5.06" height="5.06" fill="#6a87af"/><rect x="74.23" y="109.63" width="5.06" height="5.06" fill="#1b0003"/><rect x="74.23" y="104.57" width="5.06" height="5.06" fill="#6a87af"/><rect x="74.23" y="99.52" width="5.06" height="5.06" fill="#6a87af"/><rect x="74.23" y="94.46" width="5.06" height="5.06" fill="#6a87af"/><rect x="74.23" y="89.4" width="5.06" height="5.06" fill="#6a87af"/><rect x="74.23" y="84.35" width="5.06" height="5.06" fill="#6a87af"/><rect x="74.23" y="79.29" width="5.06" height="5.06" fill="#6a87af"/><rect x="74.23" y="74.24" width="5.06" height="5.06" fill="#6a87af"/><rect x="74.23" y="69.18" width="5.06" height="5.06" fill="#6a87af"/><rect x="74.23" y="64.12" width="5.06" height="5.06" fill="#6a87af"/><rect x="74.23" y="59.07" width="5.06" height="5.06" fill="#486a93"/><rect x="74.23" y="54.01" width="5.06" height="5.06" fill="#6a87af"/><rect x="74.23" y="48.95" width="5.06" height="5.06" fill="#486a93"/><rect x="74.23" y="43.9" width="5.06" height="5.06" fill="#486a93"/><rect x="74.23" y="38.84" width="5.06" height="5.06" fill="#6a87af"/><rect x="74.23" y="33.78" width="5.06" height="5.06" fill="#6a87af"/><rect x="74.23" y="28.73" width="5.06" height="5.06" fill="#6a87af"/><rect x="74.23" y="23.67" width="5.06" height="5.06" fill="#6a87af"/><rect x="74.23" y="18.61" width="5.06" height="5.06" fill="#bedbed"/><rect x="74.23" y="13.56" width="5.06" height="5.06" fill="#bedbed"/><rect x="74.23" y="8.5" width="5.06" height="5.06" fill="#1b0003"/><rect x="69.18" y="134.91" width="5.06" height="5.06" fill="#1b0003"/><rect x="69.18" y="129.86" width="5.06" height="5.06" fill="#6a87af"/><rect x="69.18" y="124.8" width="5.06" height="5.06" fill="#6a87af"/><rect x="69.18" y="119.74" width="5.06" height="5.06" fill="#6a87af"/><rect x="69.18" y="114.69" width="5.06" height="5.06" fill="#6a87af"/><rect x="69.18" y="109.63" width="5.06" height="5.06" fill="#1b0003"/><rect x="69.18" y="104.57" width="5.06" height="5.06" fill="#6a87af"/><rect x="69.18" y="99.52" width="5.06" height="5.06" fill="#6a87af"/><rect x="69.18" y="94.46" width="5.06" height="5.06" fill="#6a87af"/><rect x="69.18" y="89.4" width="5.06" height="5.06" fill="#6a87af"/><rect x="69.18" y="84.35" width="5.06" height="5.06" fill="#6a87af"/><rect x="69.18" y="79.29" width="5.06" height="5.06" fill="#6a87af"/><rect x="69.18" y="74.24" width="5.06" height="5.06" fill="#6a87af"/><rect x="69.18" y="69.18" width="5.06" height="5.06" fill="#6a87af"/><rect x="69.18" y="64.12" width="5.06" height="5.06" fill="#6a87af"/><rect x="69.18" y="59.07" width="5.06" height="5.06" fill="#bedbed"/><rect x="69.18" y="54.01" width="5.06" height="5.06" fill="#6a87af"/><rect x="69.18" y="48.95" width="5.06" height="5.06" fill="#bedbed"/><rect x="69.18" y="43.9" width="5.06" height="5.06" fill="#bedbed"/><rect x="69.18" y="38.84" width="5.06" height="5.06" fill="#6a87af"/><rect x="69.18" y="33.78" width="5.06" height="5.06" fill="#6a87af"/><rect x="69.18" y="28.73" width="5.06" height="5.06" fill="#6a87af"/><rect x="69.18" y="23.67" width="5.06" height="5.06" fill="#6a87af"/><rect x="69.18" y="18.61" width="5.06" height="5.06" fill="#bedbed"/><rect x="69.18" y="13.56" width="5.06" height="5.06" fill="#bedbed"/><rect x="69.18" y="8.5" width="5.06" height="5.06" fill="#1b0003"/><rect x="64.12" y="134.91" width="5.06" height="5.06" fill="#1b0003"/><rect x="64.12" y="129.86" width="5.06" height="5.06" fill="#6a87af"/><rect x="64.12" y="124.8" width="5.06" height="5.06" fill="#6a87af"/><rect x="64.12" y="119.74" width="5.06" height="5.06" fill="#6a87af"/><rect x="64.12" y="114.69" width="5.06" height="5.06" fill="#6a87af"/><rect x="64.12" y="109.63" width="5.06" height="5.06" fill="#1b0003"/><rect x="64.12" y="104.57" width="5.06" height="5.06" fill="#6a87af"/><rect x="64.12" y="99.52" width="5.06" height="5.06" fill="#6a87af"/><rect x="64.12" y="94.46" width="5.06" height="5.06" fill="#6a87af"/><rect x="64.12" y="89.4" width="5.06" height="5.06" fill="#6a87af"/><rect x="64.12" y="84.35" width="5.06" height="5.06" fill="#6a87af"/><rect x="64.12" y="79.29" width="5.06" height="5.06" fill="#6a87af"/><rect x="64.12" y="74.24" width="5.06" height="5.06" fill="#6a87af"/><rect x="64.12" y="69.18" width="5.06" height="5.06" fill="#6a87af"/><rect x="64.12" y="64.12" width="5.06" height="5.06" fill="#6a87af"/><rect x="64.12" y="59.07" width="5.06" height="5.06" fill="#bedbed"/><rect x="64.12" y="54.01" width="5.06" height="5.06" fill="#6a87af"/><rect x="64.12" y="48.95" width="5.06" height="5.06" fill="#bedbed"/><rect x="64.12" y="43.9" width="5.06" height="5.06" fill="#bedbed"/><rect x="64.12" y="38.84" width="5.06" height="5.06" fill="#6a87af"/><rect x="64.12" y="33.78" width="5.06" height="5.06" fill="#6a87af"/><rect x="64.12" y="28.73" width="5.06" height="5.06" fill="#6a87af"/><rect x="64.12" y="23.67" width="5.06" height="5.06" fill="#6a87af"/><rect x="64.12" y="18.61" width="5.06" height="5.06" fill="#bedbed"/><rect x="64.12" y="13.56" width="5.06" height="5.06" fill="#bedbed"/><rect x="64.12" y="8.5" width="5.06" height="5.06" fill="#1b0003"/><rect x="59.06" y="134.91" width="5.06" height="5.06" fill="#1b0003"/><rect x="59.06" y="129.86" width="5.06" height="5.06" fill="#6a87af"/><rect x="59.06" y="124.8" width="5.06" height="5.06" fill="#6a87af"/><rect x="59.06" y="119.74" width="5.06" height="5.06" fill="#6a87af"/><rect x="59.06" y="114.69" width="5.06" height="5.06" fill="#6a87af"/><rect x="59.06" y="109.63" width="5.06" height="5.06" fill="#1b0003"/><rect x="59.06" y="104.57" width="5.06" height="5.06" fill="#6a87af"/><rect x="59.06" y="99.52" width="5.06" height="5.06" fill="#6a87af"/><rect x="59.06" y="94.46" width="5.06" height="5.06" fill="#6a87af"/><rect x="59.06" y="89.4" width="5.06" height="5.06" fill="#6a87af"/><rect x="59.06" y="84.35" width="5.06" height="5.06" fill="#6a87af"/><rect x="59.06" y="79.29" width="5.06" height="5.06" fill="#6a87af"/><rect x="59.06" y="74.24" width="5.06" height="5.06" fill="#6a87af"/><rect x="59.06" y="69.18" width="5.06" height="5.06" fill="#6a87af"/><rect x="59.06" y="64.12" width="5.06" height="5.06" fill="#6a87af"/><rect x="59.06" y="59.07" width="5.06" height="5.06" fill="#bedbed"/><rect x="59.06" y="54.01" width="5.06" height="5.06" fill="#6a87af"/><rect x="59.06" y="48.95" width="5.06" height="5.06" fill="#bedbed"/><rect x="59.06" y="43.9" width="5.06" height="5.06" fill="#bedbed"/><rect x="59.06" y="38.84" width="5.06" height="5.06" fill="#6a87af"/><rect x="59.06" y="33.78" width="5.06" height="5.06" fill="#6a87af"/><rect x="59.06" y="28.73" width="5.06" height="5.06" fill="#6a87af"/><rect x="59.06" y="23.67" width="5.06" height="5.06" fill="#6a87af"/><rect x="59.06" y="18.61" width="5.06" height="5.06" fill="#bedbed"/><rect x="59.06" y="13.56" width="5.06" height="5.06" fill="#bedbed"/><rect x="59.06" y="8.5" width="5.06" height="5.06" fill="#1b0003"/><rect x="54.01" y="134.91" width="5.06" height="5.06" fill="#1b0003"/><rect x="54.01" y="129.86" width="5.06" height="5.06" fill="#6a87af"/><rect x="54.01" y="124.8" width="5.06" height="5.06" fill="#6a87af"/><rect x="54.01" y="119.74" width="5.06" height="5.06" fill="#6a87af"/><rect x="54.01" y="114.69" width="5.06" height="5.06" fill="#6a87af"/><rect x="54.01" y="109.63" width="5.06" height="5.06" fill="#1b0003"/><rect x="54.01" y="104.57" width="5.06" height="5.06" fill="#6a87af"/><rect x="54.01" y="99.52" width="5.06" height="5.06" fill="#6a87af"/><rect x="54.01" y="94.46" width="5.06" height="5.06" fill="#6a87af"/><rect x="54.01" y="89.4" width="5.06" height="5.06" fill="#6a87af"/><rect x="54.01" y="84.35" width="5.06" height="5.06" fill="#6a87af"/><rect x="54.01" y="79.29" width="5.06" height="5.06" fill="#6a87af"/><rect x="54.01" y="74.24" width="5.06" height="5.06" fill="#6a87af"/><rect x="54.01" y="69.18" width="5.06" height="5.06" fill="#6a87af"/><rect x="54.01" y="64.12" width="5.06" height="5.06" fill="#6a87af"/><rect x="54.01" y="59.07" width="5.06" height="5.06" fill="#bedbed"/><rect x="54.01" y="54.01" width="5.06" height="5.06" fill="#6a87af"/><rect x="54.01" y="48.95" width="5.06" height="5.06" fill="#bedbed"/><rect x="54.01" y="43.9" width="5.06" height="5.06" fill="#bedbed"/><rect x="54.01" y="38.84" width="5.06" height="5.06" fill="#6a87af"/><rect x="54.01" y="33.78" width="5.06" height="5.06" fill="#6a87af"/><rect x="54.01" y="28.73" width="5.06" height="5.06" fill="#6a87af"/><rect x="54.01" y="23.67" width="5.06" height="5.06" fill="#486a93"/><rect x="54.01" y="18.61" width="5.06" height="5.06" fill="#bedbed"/><rect x="54.01" y="13.56" width="5.06" height="5.06" fill="#bedbed"/><rect x="54.01" y="8.5" width="5.06" height="5.06" fill="#1b0003"/><rect x="48.95" y="134.91" width="5.06" height="5.06" fill="#1b0003"/><rect x="48.95" y="129.86" width="5.06" height="5.06" fill="#6a87af"/><rect x="48.95" y="124.8" width="5.06" height="5.06" fill="#6a87af"/><rect x="48.95" y="119.74" width="5.06" height="5.06" fill="#6a87af"/><rect x="48.95" y="114.69" width="5.06" height="5.06" fill="#6a87af"/><rect x="48.95" y="109.63" width="5.06" height="5.06" fill="#1b0003"/><rect x="48.95" y="104.57" width="5.06" height="5.06" fill="#6a87af"/><rect x="48.95" y="99.52" width="5.06" height="5.06" fill="#6a87af"/><rect x="48.95" y="94.46" width="5.06" height="5.06" fill="#6a87af"/><rect x="48.95" y="89.4" width="5.06" height="5.06" fill="#6a87af"/><rect x="48.95" y="84.35" width="5.06" height="5.06" fill="#6a87af"/><rect x="48.95" y="79.29" width="5.06" height="5.06" fill="#6a87af"/><rect x="48.95" y="74.24" width="5.06" height="5.06" fill="#6a87af"/><rect x="48.95" y="69.18" width="5.06" height="5.06" fill="#6a87af"/><rect x="48.95" y="64.12" width="5.06" height="5.06" fill="#6a87af"/><rect x="48.95" y="59.07" width="5.06" height="5.06" fill="#6a87af"/><rect x="48.95" y="54.01" width="5.06" height="5.06" fill="#6a87af"/><rect x="48.95" y="48.95" width="5.06" height="5.06" fill="#6a87af"/><rect x="48.95" y="43.9" width="5.06" height="5.06" fill="#6a87af"/><rect x="48.95" y="38.84" width="5.06" height="5.06" fill="#6a87af"/><rect x="48.95" y="33.78" width="5.06" height="5.06" fill="#6a87af"/><rect x="48.95" y="28.73" width="5.06" height="5.06" fill="#3c5a77"/><rect x="48.95" y="23.67" width="5.06" height="5.06" fill="#bedbed"/><rect x="48.95" y="18.61" width="5.06" height="5.06" fill="#bedbed"/><rect x="48.95" y="13.56" width="5.06" height="5.06" fill="#1b0003"/><rect x="43.9" y="134.91" width="5.06" height="5.06" fill="#1b0003"/><rect x="43.9" y="129.86" width="5.06" height="5.06" fill="#6a87af"/><rect x="43.9" y="124.8" width="5.06" height="5.06" fill="#6a87af"/><rect x="43.9" y="119.74" width="5.06" height="5.06" fill="#6a87af"/><rect x="43.9" y="114.69" width="5.06" height="5.06" fill="#6a87af"/><rect x="43.9" y="109.63" width="5.06" height="5.06" fill="#1b0003"/><rect x="43.9" y="104.57" width="5.06" height="5.06" fill="#6a87af"/><rect x="43.9" y="99.52" width="5.06" height="5.06" fill="#6a87af"/><rect x="43.9" y="94.46" width="5.06" height="5.06" fill="#6a87af"/><rect x="43.9" y="89.4" width="5.06" height="5.06" fill="#6a87af"/><rect x="43.9" y="84.35" width="5.06" height="5.06" fill="#6a87af"/><rect x="43.9" y="79.29" width="5.06" height="5.06" fill="#6a87af"/><rect x="43.9" y="74.24" width="5.06" height="5.06" fill="#6a87af"/><rect x="43.9" y="69.18" width="5.06" height="5.06" fill="#6a87af"/><rect x="43.9" y="64.12" width="5.06" height="5.06" fill="#6a87af"/><rect x="43.9" y="59.07" width="5.06" height="5.06" fill="#6a87af"/><rect x="43.9" y="54.01" width="5.06" height="5.06" fill="#6a87af"/><rect x="43.9" y="48.95" width="5.06" height="5.06" fill="#6a87af"/><rect x="43.9" y="43.9" width="5.06" height="5.06" fill="#6a87af"/><rect x="43.9" y="38.84" width="5.06" height="5.06" fill="#6a87af"/><rect x="43.9" y="33.78" width="5.06" height="5.06" fill="#3c5a77"/><rect x="43.9" y="28.73" width="5.06" height="5.06" fill="#bedbed"/><rect x="43.9" y="23.67" width="5.06" height="5.06" fill="#bedbed"/><rect x="43.9" y="18.61" width="5.06" height="5.06" fill="#bedbed"/><rect x="43.9" y="13.56" width="5.06" height="5.06" fill="#1b0003"/><rect x="38.84" y="134.91" width="5.06" height="5.06" fill="#1b0003"/><rect x="38.84" y="129.86" width="5.06" height="5.06" fill="#6a87af"/><rect x="38.84" y="124.8" width="5.06" height="5.06" fill="#6a87af"/><rect x="38.84" y="119.74" width="5.06" height="5.06" fill="#6a87af"/><rect x="38.84" y="114.69" width="5.06" height="5.06" fill="#6a87af"/><rect x="38.84" y="109.63" width="5.06" height="5.06" fill="#1b0003"/><rect x="38.84" y="104.57" width="5.06" height="5.06" fill="#3c5a77"/><rect x="38.84" y="99.52" width="5.06" height="5.06" fill="#3c5a77"/><rect x="38.84" y="94.46" width="5.06" height="5.06" fill="#3c5a77"/><rect x="38.84" y="89.4" width="5.06" height="5.06" fill="#486a93"/><rect x="38.84" y="84.35" width="5.06" height="5.06" fill="#486a93"/><rect x="38.84" y="79.29" width="5.06" height="5.06" fill="#486a93"/><rect x="38.84" y="74.24" width="5.06" height="5.06" fill="#486a93"/><rect x="38.84" y="69.18" width="5.06" height="5.06" fill="#486a93"/><rect x="38.84" y="64.12" width="5.06" height="5.06" fill="#486a93"/><rect x="38.84" y="59.07" width="5.06" height="5.06" fill="#486a93"/><rect x="38.84" y="54.01" width="5.06" height="5.06" fill="#486a93"/><rect x="38.84" y="48.95" width="5.06" height="5.06" fill="#486a93"/><rect x="38.84" y="43.9" width="5.06" height="5.06" fill="#486a93"/><rect x="38.84" y="38.84" width="5.06" height="5.06" fill="#486a93"/><rect x="38.84" y="33.78" width="5.06" height="5.06" fill="#bedbed"/><rect x="38.84" y="28.73" width="5.06" height="5.06" fill="#bedbed"/><rect x="38.84" y="23.67" width="5.06" height="5.06" fill="#bedbed"/><rect x="38.84" y="18.61" width="5.06" height="5.06" fill="#1b0003"/><rect x="33.78" y="134.91" width="5.06" height="5.06" fill="#1b0003"/><rect x="33.78" y="129.86" width="5.06" height="5.06" fill="#6a87af"/><rect x="33.78" y="124.8" width="5.06" height="5.06" fill="#6a87af"/><rect x="33.78" y="119.74" width="5.06" height="5.06" fill="#6a87af"/><rect x="33.78" y="114.69" width="5.06" height="5.06" fill="#6a87af"/><rect x="33.78" y="109.63" width="5.06" height="5.06" fill="#1b0003"/><rect x="33.78" y="104.57" width="5.06" height="5.06" fill="#bedbed"/><rect x="33.78" y="99.52" width="5.06" height="5.06" fill="#bedbed"/><rect x="33.78" y="94.46" width="5.06" height="5.06" fill="#bedbed"/><rect x="33.78" y="89.4" width="5.06" height="5.06" fill="#bedbed"/><rect x="33.78" y="84.35" width="5.06" height="5.06" fill="#bedbed"/><rect x="33.78" y="79.29" width="5.06" height="5.06" fill="#bedbed"/><rect x="33.78" y="74.24" width="5.06" height="5.06" fill="#bedbed"/><rect x="33.78" y="69.18" width="5.06" height="5.06" fill="#bedbed"/><rect x="33.78" y="64.12" width="5.06" height="5.06" fill="#bedbed"/><rect x="33.78" y="59.07" width="5.06" height="5.06" fill="#bedbed"/><rect x="33.78" y="54.01" width="5.06" height="5.06" fill="#bedbed"/><rect x="33.78" y="48.95" width="5.06" height="5.06" fill="#bedbed"/><rect x="33.78" y="43.9" width="5.06" height="5.06" fill="#bedbed"/><rect x="33.78" y="38.84" width="5.06" height="5.06" fill="#bedbed"/><rect x="33.78" y="33.78" width="5.06" height="5.06" fill="#bedbed"/><rect x="33.78" y="28.73" width="5.06" height="5.06" fill="#1b0003"/><rect x="33.78" y="23.67" width="5.06" height="5.06" fill="#1b0003"/><rect x="28.73" y="134.91" width="5.06" height="5.06" fill="#1b0003"/><rect x="28.73" y="129.86" width="5.06" height="5.06" fill="#6a87af"/><rect x="28.73" y="124.8" width="5.06" height="5.06" fill="#3c5a77"/><rect x="28.73" y="119.74" width="5.06" height="5.06" fill="#3c5a77"/><rect x="28.73" y="114.69" width="5.06" height="5.06" fill="#3c5a77"/><rect x="28.73" y="109.63" width="5.06" height="5.06" fill="#1b0003"/><rect x="28.73" y="104.57" width="5.06" height="5.06" fill="#1b0003"/><rect x="28.73" y="99.52" width="5.06" height="5.06" fill="#1b0003"/><rect x="28.73" y="94.46" width="5.06" height="5.06" fill="#1b0003"/><rect x="28.73" y="89.4" width="5.06" height="5.06" fill="#1b0003"/><rect x="28.73" y="84.35" width="5.06" height="5.06" fill="#1b0003"/><rect x="28.73" y="79.29" width="5.06" height="5.06" fill="#1b0003"/><rect x="28.73" y="74.24" width="5.06" height="5.06" fill="#1b0003"/><rect x="28.73" y="69.18" width="5.06" height="5.06" fill="#1b0003"/><rect x="28.73" y="64.12" width="5.06" height="5.06" fill="#1b0003"/><rect x="28.73" y="59.07" width="5.06" height="5.06" fill="#1b0003"/><rect x="28.73" y="54.01" width="5.06" height="5.06" fill="#1b0003"/><rect x="28.73" y="48.95" width="5.06" height="5.06" fill="#1b0003"/><rect x="28.73" y="43.9" width="5.06" height="5.06" fill="#1b0003"/><rect x="28.73" y="38.84" width="5.06" height="5.06" fill="#1b0003"/><rect x="28.73" y="33.78" width="5.06" height="5.06" fill="#1b0003"/><rect x="23.67" y="134.91" width="5.06" height="5.06" fill="#1b0003"/><rect x="23.67" y="129.86" width="5.06" height="5.06" fill="#3c5a77"/><rect x="23.67" y="124.8" width="5.06" height="5.06" fill="#bedbed"/><rect x="23.67" y="119.74" width="5.06" height="5.06" fill="#bedbed"/><rect x="23.67" y="114.69" width="5.06" height="5.06" fill="#bedbed"/><rect x="23.67" y="109.63" width="5.06" height="5.06" fill="#1b0003"/><rect x="18.61" y="134.91" width="5.06" height="5.06" fill="#1b0003"/><rect x="18.61" y="129.86" width="5.06" height="5.06" fill="#bedbed"/><rect x="18.61" y="124.8" width="5.06" height="5.06" fill="#bedbed"/><rect x="18.61" y="119.74" width="5.06" height="5.06" fill="#1b0003"/><rect x="18.61" y="114.69" width="5.06" height="5.06" fill="#1b0003"/><rect x="13.56" y="134.91" width="5.06" height="5.06" fill="#1b0003"/><rect x="13.56" y="129.86" width="5.06" height="5.06" fill="#bedbed"/><rect x="13.56" y="124.8" width="5.06" height="5.06" fill="#1b0003"/><rect x="8.5" y="134.91" width="5.06" height="5.06" fill="#1b0003"/><rect x="8.5" y="129.86" width="5.06" height="5.06" fill="#1b0003"/></g></g></g></g></svg>