<svg xmlns="http://www.w3.org/2000/svg" width="163.28" height="163.28" viewBox="0 0 163.28 163.28"><g id="Layer_2" data-name="Layer 2"><g id="items"><g id="Wand"><path d="M36.5,163.28H9.75v-4.87H4.88v-4.88H0V126.78H4.88V107.27H29.26V102.4h4.87V97.52H39V92.65h4.87V87.77h4.88V82.89h4.88V78h4.87V70.64H53.64V34.13H68.27V24.38h4.87V14.63H78V9.75h4.87V4.88h9.76V0H138.9V4.88h9.75V9.75h4.88v4.88h4.88v9.75h4.87V70.64h-4.87v9.75h-4.88v4.87h-4.88v4.88H138.9V95h-9.75v14.63H92.65v-4.88H85.27v4.88H80.39v4.87H75.51v4.88H70.64v4.87H65.76v4.88H60.88V134H56v24.38H36.5Zm-9.75-21.87h7.38V129.15H21.88v12.26Zm78-53.64h2.5V78H121.9V73.14h9.75V68.26h4.88V63.39h4.88V53.64h4.87V41.38h-4.87V31.63h-4.88V26.75h-4.88V21.88H121.9V17H109.65v4.88H99.89v4.87H95v4.88H90.14v9.75H85.27V56H75.51v2.5h4.88v4.88h4.88V78H99.89v4.87h4.88Z" fill="#fff"/><g id="Wand-2" data-name="Wand"><rect x="149.91" y="57.26" width="4.88" height="4.88" fill="#1b0003"/><rect x="149.91" y="52.38" width="4.88" height="4.88" fill="#1b0003"/><rect x="149.91" y="47.51" width="4.88" height="4.88" fill="#1b0003"/><rect x="149.91" y="42.63" width="4.88" height="4.88" fill="#1b0003"/><rect x="149.91" y="37.76" width="4.88" height="4.88" fill="#1b0003"/><rect x="149.91" y="32.88" width="4.88" height="4.88" fill="#1b0003"/><rect x="145.03" y="67.01" width="4.88" height="4.88" fill="#1b0003"/><rect x="145.03" y="62.14" width="4.88" height="4.88" fill="#1b0003"/><rect x="145.03" y="57.26" width="4.88" height="4.88" fill="#08e2ee"/><rect x="145.03" y="52.38" width="4.88" height="4.88" fill="#06def5"/><rect x="145.03" y="47.51" width="4.88" height="4.88" fill="#06def5"/><rect x="145.03" y="42.63" width="4.88" height="4.88" fill="#06def5"/><rect x="145.03" y="37.76" width="4.88" height="4.88" fill="#46abf7"/><rect x="145.03" y="32.88" width="4.88" height="4.88" fill="#46abf7"/><rect x="145.03" y="28" width="4.88" height="4.88" fill="#1b0003"/><rect x="145.03" y="23.13" width="4.88" height="4.88" fill="#1b0003"/><rect x="140.15" y="71.89" width="4.88" height="4.88" fill="#1b0003"/><rect x="140.15" y="67.01" width="4.88" height="4.88" fill="#06def5"/><rect x="140.15" y="62.14" width="4.88" height="4.88" fill="#06def5"/><rect x="140.15" y="57.26" width="4.88" height="4.88" fill="#46abf7"/><rect x="140.15" y="52.38" width="4.88" height="4.88" fill="#46abf7"/><rect x="140.15" y="47.51" width="4.88" height="4.88" fill="#46abf7"/><rect x="140.15" y="42.63" width="4.88" height="4.88" fill="#46abf7"/><rect x="140.15" y="37.76" width="4.88" height="4.88" fill="#457bf9"/><rect x="140.15" y="32.88" width="4.88" height="4.88" fill="#457bf9"/><rect x="140.15" y="28" width="4.88" height="4.88" fill="#457bf9"/><rect x="140.15" y="23.13" width="4.88" height="4.88" fill="#457bf9"/><rect x="140.15" y="18.25" width="4.88" height="4.88" fill="#1b0003"/><rect x="135.28" y="76.76" width="4.88" height="4.88" fill="#1b0003"/><rect x="135.28" y="71.89" width="4.88" height="4.88" fill="#06def5"/><rect x="135.28" y="67.01" width="4.88" height="4.88" fill="#06def5"/><rect x="135.28" y="62.14" width="4.88" height="4.88" fill="#46abf7"/><rect x="135.28" y="57.26" width="4.88" height="4.88" fill="#46abf7"/><rect x="135.28" y="52.38" width="4.88" height="4.88" fill="#457bf9"/><rect x="135.28" y="47.51" width="4.88" height="4.88" fill="#457bf9"/><rect x="135.28" y="42.63" width="4.88" height="4.88" fill="#457bf9"/><rect x="135.28" y="37.76" width="4.88" height="4.88" fill="#457bf9"/><rect x="135.28" y="32.88" width="4.88" height="4.88" fill="#457bf9"/><rect x="135.28" y="28" width="4.88" height="4.88" fill="#457bf9"/><rect x="135.28" y="23.13" width="4.88" height="4.88" fill="#457bf9"/><rect x="135.28" y="18.25" width="4.88" height="4.88" fill="#457bf9"/><rect x="135.28" y="13.38" width="4.88" height="4.88" fill="#1b0003"/><rect x="130.4" y="76.76" width="4.88" height="4.88" fill="#1b0003"/><rect x="130.4" y="71.89" width="4.88" height="4.88" fill="#06def5"/><rect x="130.4" y="67.01" width="4.88" height="4.88" fill="#46abf7"/><rect x="130.4" y="62.14" width="4.88" height="4.88" fill="#46abf7"/><rect x="130.4" y="57.26" width="4.88" height="4.88" fill="#457bf9"/><rect x="130.4" y="52.38" width="4.88" height="4.88" fill="#457bf9"/><rect x="130.4" y="47.51" width="4.88" height="4.88" fill="#457bf9"/><rect x="130.4" y="42.63" width="4.88" height="4.88" fill="#457bf9"/><rect x="130.4" y="37.76" width="4.88" height="4.88" fill="#457bf9"/><rect x="130.4" y="32.88" width="4.88" height="4.88" fill="#06def5"/><rect x="130.4" y="28" width="4.88" height="4.88" fill="#06def5"/><rect x="130.4" y="23.13" width="4.88" height="4.88" fill="#06def5"/><rect x="130.4" y="18.25" width="4.88" height="4.88" fill="#06def5"/><rect x="130.4" y="13.38" width="4.88" height="4.88" fill="#1b0003"/><rect x="125.53" y="81.64" width="4.88" height="4.88" fill="#1b0003"/><rect x="125.53" y="76.76" width="4.88" height="4.88" fill="#06def5"/><rect x="125.53" y="71.89" width="4.88" height="4.88" fill="#46abf7"/><rect x="125.53" y="67.01" width="4.88" height="4.88" fill="#46abf7"/><rect x="125.53" y="62.14" width="4.88" height="4.88" fill="#457bf9"/><rect x="125.53" y="57.26" width="4.88" height="4.88" fill="#457bf9"/><rect x="125.53" y="52.38" width="4.88" height="4.88" fill="#457bf9"/><rect x="125.53" y="47.51" width="4.88" height="4.88" fill="#457bf9"/><rect x="125.53" y="42.63" width="4.88" height="4.88" fill="#06def5"/><rect x="125.53" y="37.76" width="4.88" height="4.88" fill="#06def5"/><rect x="125.53" y="32.88" width="4.88" height="4.88" fill="#06def5"/><rect x="125.53" y="28" width="4.88" height="4.88" fill="#a4f8d7"/><rect x="125.53" y="23.13" width="4.88" height="4.88" fill="#06def5"/><rect x="125.53" y="18.25" width="4.88" height="4.88" fill="#06def5"/><rect x="125.53" y="13.38" width="4.88" height="4.88" fill="#06def5"/><rect x="125.53" y="8.5" width="4.88" height="4.88" fill="#1b0003"/><rect x="120.65" y="81.64" width="4.88" height="4.88" fill="#1b0003"/><rect x="120.65" y="76.76" width="4.88" height="4.88" fill="#06def5"/><rect x="120.65" y="71.89" width="4.88" height="4.88" fill="#46abf7"/><rect x="120.65" y="67.01" width="4.88" height="4.88" fill="#457bf9"/><rect x="120.65" y="62.14" width="4.88" height="4.88" fill="#457bf9"/><rect x="120.65" y="57.26" width="4.88" height="4.88" fill="#457bf9"/><rect x="120.65" y="52.38" width="4.88" height="4.88" fill="#457bf9"/><rect x="120.65" y="47.51" width="4.88" height="4.88" fill="#06def5"/><rect x="120.65" y="42.63" width="4.88" height="4.88" fill="#06def5"/><rect x="120.65" y="37.76" width="4.88" height="4.88" fill="#a4f8d7"/><rect x="120.65" y="32.88" width="4.88" height="4.88" fill="#a4f8d7"/><rect x="120.65" y="28" width="4.88" height="4.88" fill="#a4f8d7"/><rect x="120.65" y="23.13" width="4.88" height="4.88" fill="#a4f8d7"/><rect x="120.65" y="18.25" width="4.88" height="4.88" fill="#06def5"/><rect x="120.65" y="13.38" width="4.88" height="4.88" fill="#06def5"/><rect x="120.65" y="8.5" width="4.88" height="4.88" fill="#1b0003"/><rect x="115.77" y="96.27" width="4.88" height="4.88" fill="#1b0003"/><rect x="115.77" y="91.39" width="4.88" height="4.88" fill="#1b0003"/><rect x="115.77" y="81.64" width="4.88" height="4.88" fill="#1b0003"/><rect x="115.77" y="76.76" width="4.88" height="4.88" fill="#06def5"/><rect x="115.77" y="71.89" width="4.88" height="4.88" fill="#46abf7"/><rect x="115.77" y="67.01" width="4.88" height="4.88" fill="#457bf9"/><rect x="115.77" y="62.14" width="4.88" height="4.88" fill="#457bf9"/><rect x="115.77" y="57.26" width="4.88" height="4.88" fill="#457bf9"/><rect x="115.77" y="52.38" width="4.88" height="4.88" fill="#06def5"/><rect x="115.77" y="47.51" width="4.88" height="4.88" fill="#06def5"/><rect x="115.77" y="42.63" width="4.88" height="4.88" fill="#a4f8d7"/><rect x="115.77" y="37.76" width="4.88" height="4.88" fill="#a4f8d7"/><rect x="115.77" y="32.88" width="4.88" height="4.88" fill="#a4f8d7"/><rect x="115.77" y="28" width="4.88" height="4.88" fill="#a4f8d7"/><rect x="115.77" y="23.13" width="4.88" height="4.88" fill="#a4f8d7"/><rect x="115.77" y="18.25" width="4.88" height="4.88" fill="#91fee7"/><rect x="115.77" y="13.38" width="4.88" height="4.88" fill="#06def5"/><rect x="115.77" y="8.5" width="4.88" height="4.88" fill="#1b0003"/><rect x="110.9" y="96.27" width="4.88" height="4.88" fill="#1b0003"/><rect x="110.9" y="91.39" width="4.88" height="4.88" fill="#6a87af"/><rect x="110.9" y="86.52" width="4.88" height="4.88" fill="#1b0003"/><rect x="110.9" y="81.64" width="4.88" height="4.88" fill="#1b0003"/><rect x="110.9" y="76.76" width="4.88" height="4.88" fill="#06def5"/><rect x="110.9" y="71.89" width="4.88" height="4.88" fill="#46abf7"/><rect x="110.9" y="67.01" width="4.88" height="4.88" fill="#457bf9"/><rect x="110.9" y="62.14" width="4.88" height="4.88" fill="#457bf9"/><rect x="110.9" y="57.26" width="4.88" height="4.88" fill="#06def5"/><rect x="110.9" y="52.38" width="4.88" height="4.88" fill="#06def5"/><rect x="110.9" y="47.51" width="4.88" height="4.88" fill="#06def5"/><rect x="110.9" y="42.63" width="4.88" height="4.88" fill="#a4f8d7"/><rect x="110.9" y="37.76" width="4.88" height="4.88" fill="#a4f8d7"/><rect x="110.9" y="32.88" width="4.88" height="4.88" fill="#a4f8d7"/><rect x="110.9" y="28" width="4.88" height="4.88" fill="#f2fefe"/><rect x="110.9" y="23.13" width="4.88" height="4.88" fill="#f2fefe"/><rect x="110.9" y="18.25" width="4.88" height="4.88" fill="#91fee7"/><rect x="110.9" y="13.38" width="4.88" height="4.88" fill="#06def5"/><rect x="110.9" y="8.5" width="4.88" height="4.88" fill="#1b0003"/><rect x="106.02" y="96.27" width="4.88" height="4.88" fill="#1b0003"/><rect x="106.02" y="91.39" width="4.88" height="4.88" fill="#6a87af"/><rect x="106.02" y="86.52" width="4.88" height="4.88" fill="#6a87af"/><rect x="106.02" y="81.64" width="4.88" height="4.88" fill="#1b0003"/><rect x="106.02" y="76.76" width="4.88" height="4.88" fill="#46abf7"/><rect x="106.02" y="71.89" width="4.88" height="4.88" fill="#457bf9"/><rect x="106.02" y="67.01" width="4.88" height="4.88" fill="#457bf9"/><rect x="106.02" y="62.14" width="4.88" height="4.88" fill="#457bf9"/><rect x="106.02" y="57.26" width="4.88" height="4.88" fill="#06def5"/><rect x="106.02" y="52.38" width="4.88" height="4.88" fill="#06def5"/><rect x="106.02" y="47.51" width="4.88" height="4.88" fill="#06def5"/><rect x="106.02" y="42.63" width="4.88" height="4.88" fill="#a4f8d7"/><rect x="106.02" y="37.76" width="4.88" height="4.88" fill="#a4f8d7"/><rect x="106.02" y="32.88" width="4.88" height="4.88" fill="#f2fefe"/><rect x="106.02" y="28" width="4.88" height="4.88" fill="#f2fefe"/><rect x="106.02" y="23.13" width="4.88" height="4.88" fill="#f2fefe"/><rect x="106.02" y="18.25" width="4.88" height="4.88" fill="#91fee7"/><rect x="106.02" y="13.38" width="4.88" height="4.88" fill="#06def5"/><rect x="106.02" y="8.5" width="4.88" height="4.88" fill="#1b0003"/><rect x="101.15" y="96.27" width="4.88" height="4.88" fill="#1b0003"/><rect x="101.15" y="91.39" width="4.88" height="4.88" fill="#6a87af"/><rect x="101.15" y="86.52" width="4.88" height="4.88" fill="#6a87af"/><rect x="101.15" y="81.64" width="4.88" height="4.88" fill="#80a8c1"/><rect x="101.15" y="76.76" width="4.88" height="4.88" fill="#223c5b"/><rect x="101.15" y="71.89" width="4.88" height="4.88" fill="#457bf9"/><rect x="101.15" y="67.01" width="4.88" height="4.88" fill="#457bf9"/><rect x="101.15" y="62.14" width="4.88" height="4.88" fill="#457bf9"/><rect x="101.15" y="57.26" width="4.88" height="4.88" fill="#06def5"/><rect x="101.15" y="52.38" width="4.88" height="4.88" fill="#06def5"/><rect x="101.15" y="47.51" width="4.88" height="4.88" fill="#06def5"/><rect x="101.15" y="42.63" width="4.88" height="4.88" fill="#a4f8d7"/><rect x="101.15" y="37.76" width="4.88" height="4.88" fill="#a4f8d7"/><rect x="101.15" y="32.88" width="4.88" height="4.88" fill="#f2fefe"/><rect x="101.15" y="28" width="4.88" height="4.88" fill="#f2fefe"/><rect x="101.15" y="23.13" width="4.88" height="4.88" fill="#91fee7"/><rect x="101.15" y="18.25" width="4.88" height="4.88" fill="#91fee7"/><rect x="101.15" y="13.38" width="4.88" height="4.88" fill="#06def5"/><rect x="101.15" y="8.5" width="4.88" height="4.88" fill="#1b0003"/><rect x="96.27" y="91.39" width="4.88" height="4.88" fill="#1b0003"/><rect x="96.27" y="86.52" width="4.88" height="4.88" fill="#6a87af"/><rect x="96.27" y="81.64" width="4.88" height="4.88" fill="#80a8c1"/><rect x="96.27" y="76.76" width="4.88" height="4.88" fill="#80a8c1"/><rect x="96.27" y="71.89" width="4.88" height="4.88" fill="#223c5b"/><rect x="96.27" y="67.01" width="4.88" height="4.88" fill="#457bf9"/><rect x="96.27" y="62.14" width="4.88" height="4.88" fill="#457bf9"/><rect x="96.27" y="57.26" width="4.88" height="4.88" fill="#457bf9"/><rect x="96.27" y="52.38" width="4.88" height="4.88" fill="#06def5"/><rect x="96.27" y="47.51" width="4.88" height="4.88" fill="#06def5"/><rect x="96.27" y="42.63" width="4.88" height="4.88" fill="#a4f8d7"/><rect x="96.27" y="37.76" width="4.88" height="4.88" fill="#a4f8d7"/><rect x="96.27" y="32.88" width="4.88" height="4.88" fill="#a4f8d7"/><rect x="96.27" y="28" width="4.88" height="4.88" fill="#91fee7"/><rect x="96.27" y="23.13" width="4.88" height="4.88" fill="#91fee7"/><rect x="96.27" y="18.25" width="4.88" height="4.88" fill="#06def5"/><rect x="96.27" y="13.38" width="4.88" height="4.88" fill="#1b0003"/><rect x="91.39" y="86.52" width="4.88" height="4.88" fill="#1b0003"/><rect x="91.39" y="81.64" width="4.88" height="4.88" fill="#6a87af"/><rect x="91.39" y="76.76" width="4.88" height="4.88" fill="#80a8c1"/><rect x="91.39" y="71.89" width="4.88" height="4.88" fill="#97bcd6"/><rect x="91.39" y="67.01" width="4.88" height="4.88" fill="#223c5b"/><rect x="91.39" y="62.14" width="4.88" height="4.88" fill="#457bf9"/><rect x="91.39" y="57.26" width="4.88" height="4.88" fill="#457bf9"/><rect x="91.39" y="52.38" width="4.88" height="4.88" fill="#06def5"/><rect x="91.39" y="47.51" width="4.88" height="4.88" fill="#06def5"/><rect x="91.39" y="42.63" width="4.88" height="4.88" fill="#06def5"/><rect x="91.39" y="37.76" width="4.88" height="4.88" fill="#91fee7"/><rect x="91.39" y="32.88" width="4.88" height="4.88" fill="#91fee7"/><rect x="91.39" y="28" width="4.88" height="4.88" fill="#91fee7"/><rect x="91.39" y="23.13" width="4.88" height="4.88" fill="#06def5"/><rect x="91.39" y="18.25" width="4.88" height="4.88" fill="#06def5"/><rect x="91.39" y="13.38" width="4.88" height="4.88" fill="#1b0003"/><rect x="86.52" y="81.64" width="4.88" height="4.88" fill="#1b0003"/><rect x="86.52" y="76.76" width="4.88" height="4.88" fill="#80a8c1"/><rect x="86.52" y="71.89" width="4.88" height="4.88" fill="#97bcd6"/><rect x="86.52" y="67.01" width="4.88" height="4.88" fill="#97bcd6"/><rect x="86.52" y="62.14" width="4.88" height="4.88" fill="#223c5b"/><rect x="86.52" y="57.26" width="4.88" height="4.88" fill="#457bf9"/><rect x="86.52" y="52.38" width="4.88" height="4.88" fill="#457bf9"/><rect x="86.52" y="47.51" width="4.88" height="4.88" fill="#06def5"/><rect x="86.52" y="42.63" width="4.88" height="4.88" fill="#06def5"/><rect x="86.52" y="37.76" width="4.88" height="4.88" fill="#06def5"/><rect x="86.52" y="32.88" width="4.88" height="4.88" fill="#06def5"/><rect x="86.52" y="28" width="4.88" height="4.88" fill="#06def5"/><rect x="86.52" y="23.13" width="4.88" height="4.88" fill="#06def5"/><rect x="86.52" y="18.25" width="4.88" height="4.88" fill="#1b0003"/><rect x="81.64" y="86.52" width="4.88" height="4.88" fill="#1b0003"/><rect x="81.64" y="81.64" width="4.88" height="4.88" fill="#6a87af"/><rect x="81.64" y="76.76" width="4.88" height="4.88" fill="#223c5b"/><rect x="81.64" y="71.89" width="4.88" height="4.88" fill="#97bcd6"/><rect x="81.64" y="67.01" width="4.88" height="4.88" fill="#97bcd6"/><rect x="81.64" y="62.14" width="4.88" height="4.88" fill="#97bcd6"/><rect x="81.64" y="57.26" width="4.88" height="4.88" fill="#223c5b"/><rect x="81.64" y="52.38" width="4.88" height="4.88" fill="#457bf9"/><rect x="81.64" y="47.51" width="4.88" height="4.88" fill="#457bf9"/><rect x="81.64" y="42.63" width="4.88" height="4.88" fill="#06def5"/><rect x="81.64" y="37.76" width="4.88" height="4.88" fill="#06def5"/><rect x="81.64" y="32.88" width="4.88" height="4.88" fill="#06def5"/><rect x="81.64" y="28" width="4.88" height="4.88" fill="#1b0003"/><rect x="81.64" y="23.13" width="4.88" height="4.88" fill="#1b0003"/><rect x="76.77" y="91.39" width="4.88" height="4.88" fill="#1b0003"/><rect x="76.77" y="86.52" width="4.88" height="4.88" fill="#6a87af"/><rect x="76.77" y="81.64" width="4.88" height="4.88" fill="#6a87af"/><rect x="76.77" y="76.76" width="4.88" height="4.88" fill="#6a87af"/><rect x="76.77" y="71.89" width="4.88" height="4.88" fill="#1b0003"/><rect x="76.77" y="67.01" width="4.88" height="4.88" fill="#97bcd6"/><rect x="76.77" y="62.14" width="4.88" height="4.88" fill="#97bcd6"/><rect x="76.77" y="57.26" width="4.88" height="4.88" fill="#97bcd6"/><rect x="76.77" y="52.38" width="4.88" height="4.88" fill="#1b0003"/><rect x="76.77" y="47.51" width="4.88" height="4.88" fill="#1b0003"/><rect x="76.77" y="42.63" width="4.88" height="4.88" fill="#1b0003"/><rect x="76.77" y="37.76" width="4.88" height="4.88" fill="#1b0003"/><rect x="76.77" y="32.88" width="4.88" height="4.88" fill="#1b0003"/><rect x="71.89" y="96.27" width="4.88" height="4.88" fill="#1b0003"/><rect x="71.89" y="91.39" width="4.88" height="4.88" fill="#6a87af"/><rect x="71.89" y="86.52" width="4.88" height="4.88" fill="#80a8c1"/><rect x="71.89" y="81.64" width="4.88" height="4.88" fill="#80a8c1"/><rect x="71.89" y="76.76" width="4.88" height="4.88" fill="#1b0003"/><rect x="71.89" y="67.01" width="4.88" height="4.88" fill="#1b0003"/><rect x="71.89" y="62.14" width="4.88" height="4.88" fill="#97bcd6"/><rect x="71.89" y="57.26" width="4.88" height="4.88" fill="#97bcd6"/><rect x="71.89" y="52.38" width="4.88" height="4.88" fill="#97bcd6"/><rect x="71.89" y="47.51" width="4.88" height="4.88" fill="#1b0003"/><rect x="67.01" y="101.14" width="4.88" height="4.88" fill="#1b0003"/><rect x="67.01" y="96.27" width="4.88" height="4.88" fill="#6a87af"/><rect x="67.01" y="91.39" width="4.88" height="4.88" fill="#97bcd6"/><rect x="67.01" y="86.52" width="4.88" height="4.88" fill="#97bcd6"/><rect x="67.01" y="81.64" width="4.88" height="4.88" fill="#1b0003"/><rect x="67.01" y="62.14" width="4.88" height="4.88" fill="#1b0003"/><rect x="67.01" y="57.26" width="4.88" height="4.88" fill="#97bcd6"/><rect x="67.01" y="52.38" width="4.88" height="4.88" fill="#97bcd6"/><rect x="67.01" y="47.51" width="4.88" height="4.88" fill="#97bcd6"/><rect x="67.01" y="42.63" width="4.88" height="4.88" fill="#1b0003"/><rect x="62.14" y="106.02" width="4.88" height="4.88" fill="#1b0003"/><rect x="62.14" y="101.14" width="4.88" height="4.88" fill="#80a8c1"/><rect x="62.14" y="96.27" width="4.88" height="4.88" fill="#97bcd6"/><rect x="62.14" y="91.39" width="4.88" height="4.88" fill="#97bcd6"/><rect x="62.14" y="86.52" width="4.88" height="4.88" fill="#1b0003"/><rect x="62.14" y="57.26" width="4.88" height="4.88" fill="#1b0003"/><rect x="62.14" y="52.38" width="4.88" height="4.88" fill="#1b0003"/><rect x="62.14" y="47.51" width="4.88" height="4.88" fill="#1b0003"/><rect x="62.14" y="42.63" width="4.88" height="4.88" fill="#1b0003"/><rect x="57.26" y="110.9" width="4.88" height="4.88" fill="#1b0003"/><rect x="57.26" y="106.02" width="4.88" height="4.88" fill="#80a8c1"/><rect x="57.26" y="101.14" width="4.88" height="4.88" fill="#97bcd6"/><rect x="57.26" y="96.27" width="4.88" height="4.88" fill="#97bcd6"/><rect x="57.26" y="91.39" width="4.88" height="4.88" fill="#1b0003"/><rect x="52.39" y="115.77" width="4.88" height="4.88" fill="#1b0003"/><rect x="52.39" y="110.9" width="4.88" height="4.88" fill="#6a87af"/><rect x="52.39" y="106.02" width="4.88" height="4.88" fill="#97bcd6"/><rect x="52.39" y="101.14" width="4.88" height="4.88" fill="#97bcd6"/><rect x="52.39" y="96.27" width="4.88" height="4.88" fill="#1b0003"/><rect x="47.51" y="120.65" width="4.88" height="4.88" fill="#1b0003"/><rect x="47.51" y="115.77" width="4.88" height="4.88" fill="#6a87af"/><rect x="47.51" y="110.9" width="4.88" height="4.88" fill="#97bcd6"/><rect x="47.51" y="106.02" width="4.88" height="4.88" fill="#97bcd6"/><rect x="47.51" y="101.14" width="4.88" height="4.88" fill="#1b0003"/><rect x="42.63" y="145.03" width="4.88" height="4.88" fill="#1b0003"/><rect x="42.63" y="140.15" width="4.88" height="4.88" fill="#1b0003"/><rect x="42.63" y="125.53" width="4.88" height="4.88" fill="#1b0003"/><rect x="42.63" y="120.65" width="4.88" height="4.88" fill="#6a87af"/><rect x="42.63" y="115.77" width="4.88" height="4.88" fill="#97bcd6"/><rect x="42.63" y="110.9" width="4.88" height="4.88" fill="#97bcd6"/><rect x="42.63" y="106.02" width="4.88" height="4.88" fill="#1b0003"/><rect x="37.76" y="145.03" width="4.88" height="4.88" fill="#1b0003"/><rect x="37.76" y="140.15" width="4.88" height="4.88" fill="#6a87af"/><rect x="37.76" y="135.28" width="4.88" height="4.88" fill="#1b0003"/><rect x="37.76" y="130.4" width="4.88" height="4.88" fill="#1b0003"/><rect x="37.76" y="125.53" width="4.88" height="4.88" fill="#80a8c1"/><rect x="37.76" y="120.65" width="4.88" height="4.88" fill="#80a8c1"/><rect x="37.76" y="115.77" width="4.88" height="4.88" fill="#97bcd6"/><rect x="37.76" y="110.9" width="4.88" height="4.88" fill="#1b0003"/><rect x="32.88" y="145.03" width="4.88" height="4.88" fill="#1b0003"/><rect x="32.88" y="140.15" width="4.88" height="4.88" fill="#6a87af"/><rect x="32.88" y="135.28" width="4.88" height="4.88" fill="#6a87af"/><rect x="32.88" y="130.4" width="4.88" height="4.88" fill="#6a87af"/><rect x="32.88" y="125.53" width="4.88" height="4.88" fill="#223c5b"/><rect x="32.88" y="120.65" width="4.88" height="4.88" fill="#97bcd6"/><rect x="32.88" y="115.77" width="4.88" height="4.88" fill="#1b0003"/><rect x="28" y="145.03" width="4.88" height="4.88" fill="#1b0003"/><rect x="28" y="140.15" width="4.88" height="4.88" fill="#1b0003"/><rect x="28" y="135.28" width="4.88" height="4.88" fill="#97bcd6"/><rect x="28" y="130.4" width="4.88" height="4.88" fill="#97bcd6"/><rect x="28" y="125.53" width="4.88" height="4.88" fill="#6a87af"/><rect x="28" y="120.65" width="4.88" height="4.88" fill="#1b0003"/><rect x="23.13" y="149.91" width="4.88" height="4.88" fill="#1b0003"/><rect x="23.13" y="145.03" width="4.88" height="4.88" fill="#457bf9"/><rect x="23.13" y="140.15" width="4.88" height="4.88" fill="#457bf9"/><rect x="23.13" y="135.28" width="4.88" height="4.88" fill="#1b0003"/><rect x="23.13" y="130.4" width="4.88" height="4.88" fill="#97bcd6"/><rect x="23.13" y="125.53" width="4.88" height="4.88" fill="#97bcd6"/><rect x="23.13" y="120.65" width="4.88" height="4.88" fill="#1b0003"/><rect x="18.25" y="149.91" width="4.88" height="4.88" fill="#1b0003"/><rect x="18.25" y="145.03" width="4.88" height="4.88" fill="#457bf9"/><rect x="18.25" y="140.15" width="4.88" height="4.88" fill="#06def5"/><rect x="18.25" y="135.28" width="4.88" height="4.88" fill="#a4f8d7"/><rect x="18.25" y="130.4" width="4.88" height="4.88" fill="#1b0003"/><rect x="18.25" y="125.53" width="4.88" height="4.88" fill="#97bcd6"/><rect x="18.25" y="120.65" width="4.88" height="4.88" fill="#97bcd6"/><rect x="18.25" y="115.77" width="4.88" height="4.88" fill="#1b0003"/><rect x="13.38" y="145.03" width="4.88" height="4.88" fill="#1b0003"/><rect x="13.38" y="140.15" width="4.88" height="4.88" fill="#06def5"/><rect x="13.38" y="135.28" width="4.88" height="4.88" fill="#a4f8d7"/><rect x="13.38" y="130.4" width="4.88" height="4.88" fill="#1b0003"/><rect x="13.38" y="125.53" width="4.88" height="4.88" fill="#1b0003"/><rect x="13.38" y="120.65" width="4.88" height="4.88" fill="#1b0003"/><rect x="13.38" y="115.77" width="4.88" height="4.88" fill="#1b0003"/><rect x="8.5" y="140.15" width="4.88" height="4.88" fill="#1b0003"/><rect x="8.5" y="135.28" width="4.88" height="4.88" fill="#1b0003"/></g></g></g></g></svg>