<svg xmlns="http://www.w3.org/2000/svg" width="117.78" height="160.98" viewBox="0 0 117.78 160.98"><g id="Layer_2" data-name="Layer 2"><g id="items"><g id="Yellow_Potion" data-name="Yellow Potion"><path d="M89,161H24v-4.8H19.2v-4.8H14.4v-4.8H9.6V137H4.8v-9.6H0V91.19H4.8v-9.6H9.6V72h4.8v-4.8h4.8v-4.8h9.6v-4.8h9.59V36.2h-4.8V9.6h4.8V4.8h4.8V0h31.4V4.8h4.8V9.6h4.8V36.2h-4.8V57.59H89v4.8h9.6v4.8h4.8V72h4.8v9.6H113v9.6h4.8v36.19H113V137h-4.79v9.6h-4.8v4.8h-4.8v4.8H89ZM41,144H72v-4.8h9.6v-4.8h4.8v-4.8h4.8V120H96v-9.6h4.8v-2.19H96v-9.6H91.19V89h-4.8v-4.8h-4.8v-4.8H72v-4.8h-9.6V21.8h-7V74.59H45.8v4.8H36.2v4.8H31.4V89H26.6v9.6H21.8v9.6H17v2.19h4.8V120h4.8v9.6h4.8v4.8h4.8v4.8H41Z" fill="#fff"/><g id="Yellow_Potion-2" data-name="Yellow Potion"><rect x="104.48" y="114.08" width="4.8" height="4.8" fill="#1b0003"/><rect x="104.48" y="109.28" width="4.8" height="4.8" fill="#1b0003"/><rect x="104.48" y="104.48" width="4.8" height="4.8" fill="#1b0003"/><rect x="104.48" y="99.68" width="4.8" height="4.8" fill="#1b0003"/><rect x="99.69" y="123.68" width="4.8" height="4.8" fill="#1b0003"/><rect x="99.69" y="118.88" width="4.8" height="4.8" fill="#1b0003"/><rect x="99.69" y="114.08" width="4.8" height="4.8" fill="#6a87af"/><rect x="99.69" y="109.28" width="4.8" height="4.8" fill="#6a87af"/><rect x="99.69" y="104.48" width="4.8" height="4.8" fill="#6a87af"/><rect x="99.69" y="99.68" width="4.8" height="4.8" fill="#6a87af"/><rect x="99.69" y="94.89" width="4.8" height="4.8" fill="#1b0003"/><rect x="99.69" y="90.09" width="4.8" height="4.8" fill="#1b0003"/><rect x="94.89" y="133.28" width="4.8" height="4.8" fill="#1b0003"/><rect x="94.89" y="128.48" width="4.8" height="4.8" fill="#1b0003"/><rect x="94.89" y="123.68" width="4.8" height="4.8" fill="#6a87af"/><rect x="94.89" y="118.88" width="4.8" height="4.8" fill="#6a87af"/><rect x="94.89" y="114.08" width="4.8" height="4.8" fill="#f7c45e"/><rect x="94.89" y="109.28" width="4.8" height="4.8" fill="#f7c45e"/><rect x="94.89" y="104.48" width="4.8" height="4.8" fill="#f7c45e"/><rect x="94.89" y="99.68" width="4.8" height="4.8" fill="#f7c45e"/><rect x="94.89" y="94.89" width="4.8" height="4.8" fill="#6a87af"/><rect x="94.89" y="90.09" width="4.8" height="4.8" fill="#6a87af"/><rect x="94.89" y="85.29" width="4.8" height="4.8" fill="#1b0003"/><rect x="94.89" y="80.49" width="4.8" height="4.8" fill="#1b0003"/><rect x="90.09" y="138.08" width="4.8" height="4.8" fill="#1b0003"/><rect x="90.09" y="133.28" width="4.8" height="4.8" fill="#6a87af"/><rect x="90.09" y="128.48" width="4.8" height="4.8" fill="#6a87af"/><rect x="90.09" y="123.68" width="4.8" height="4.8" fill="#f7c45e"/><rect x="90.09" y="118.88" width="4.8" height="4.8" fill="#f7c45e"/><rect x="90.09" y="114.08" width="4.8" height="4.8" fill="#f7c45e"/><rect x="90.09" y="109.28" width="4.8" height="4.8" fill="#f9f2d4"/><rect x="90.09" y="104.48" width="4.8" height="4.8" fill="#f9f2d4"/><rect x="90.09" y="99.68" width="4.8" height="4.8" fill="#f9f2d4"/><rect x="90.09" y="94.89" width="4.8" height="4.8" fill="#f9f2d4"/><rect x="90.09" y="90.09" width="4.8" height="4.8" fill="#f9f2d4"/><rect x="90.09" y="85.29" width="4.8" height="4.8" fill="#6a87af"/><rect x="90.09" y="80.49" width="4.8" height="4.8" fill="#6a87af"/><rect x="90.09" y="75.69" width="4.8" height="4.8" fill="#1b0003"/><rect x="85.29" y="142.88" width="4.8" height="4.8" fill="#1b0003"/><rect x="85.29" y="138.08" width="4.8" height="4.8" fill="#6a87af"/><rect x="85.29" y="133.28" width="4.8" height="4.8" fill="#f7c45e"/><rect x="85.29" y="128.48" width="4.8" height="4.8" fill="#f7c45e"/><rect x="85.29" y="123.68" width="4.8" height="4.8" fill="#f7c45e"/><rect x="85.29" y="118.88" width="4.8" height="4.8" fill="#ea942d"/><rect x="85.29" y="114.08" width="4.8" height="4.8" fill="#ea942d"/><rect x="85.29" y="109.28" width="4.8" height="4.8" fill="#ea942d"/><rect x="85.29" y="104.48" width="4.8" height="4.8" fill="#db6d12"/><rect x="85.29" y="99.68" width="4.8" height="4.8" fill="#ea942d"/><rect x="85.29" y="94.89" width="4.8" height="4.8" fill="#fff"/><rect x="85.29" y="90.09" width="4.8" height="4.8" fill="#fff"/><rect x="85.29" y="85.29" width="4.8" height="4.8" fill="#fff"/><rect x="85.29" y="80.49" width="4.8" height="4.8" fill="#f9f2d4"/><rect x="85.29" y="75.69" width="4.8" height="4.8" fill="#a3c6e2"/><rect x="85.29" y="70.89" width="4.8" height="4.8" fill="#1b0003"/><rect x="80.49" y="142.88" width="4.8" height="4.8" fill="#1b0003"/><rect x="80.49" y="138.08" width="4.8" height="4.8" fill="#6a87af"/><rect x="80.49" y="133.28" width="4.8" height="4.8" fill="#f7c45e"/><rect x="80.49" y="128.48" width="4.8" height="4.8" fill="#ea942d"/><rect x="80.49" y="123.68" width="4.8" height="4.8" fill="#ea942d"/><rect x="80.49" y="118.88" width="4.8" height="4.8" fill="#ea942d"/><rect x="80.49" y="114.08" width="4.8" height="4.8" fill="#ea942d"/><rect x="80.49" y="109.28" width="4.8" height="4.8" fill="#db6d12"/><rect x="80.49" y="104.48" width="4.8" height="4.8" fill="#db6d12"/><rect x="80.49" y="99.68" width="4.8" height="4.8" fill="#db6d12"/><rect x="80.49" y="94.89" width="4.8" height="4.8" fill="#db6d12"/><rect x="80.49" y="90.09" width="4.8" height="4.8" fill="#db6d12"/><rect x="80.49" y="85.29" width="4.8" height="4.8" fill="#fff"/><rect x="80.49" y="80.49" width="4.8" height="4.8" fill="#fff"/><rect x="80.49" y="75.69" width="4.8" height="4.8" fill="#a3c6e2"/><rect x="80.49" y="70.89" width="4.8" height="4.8" fill="#1b0003"/><rect x="75.69" y="147.68" width="4.8" height="4.8" fill="#1b0003"/><rect x="75.69" y="142.88" width="4.8" height="4.8" fill="#6a87af"/><rect x="75.69" y="138.08" width="4.8" height="4.8" fill="#f7c45e"/><rect x="75.69" y="133.28" width="4.8" height="4.8" fill="#ea942d"/><rect x="75.69" y="128.48" width="4.8" height="4.8" fill="#ea942d"/><rect x="75.69" y="123.68" width="4.8" height="4.8" fill="#ea942d"/><rect x="75.69" y="118.88" width="4.8" height="4.8" fill="#db6d12"/><rect x="75.69" y="114.08" width="4.8" height="4.8" fill="#db6d12"/><rect x="75.69" y="109.28" width="4.8" height="4.8" fill="#db6d12"/><rect x="75.69" y="104.48" width="4.8" height="4.8" fill="#db6d12"/><rect x="75.69" y="99.68" width="4.8" height="4.8" fill="#db6d12"/><rect x="75.69" y="94.89" width="4.8" height="4.8" fill="#db6d12"/><rect x="75.69" y="90.09" width="4.8" height="4.8" fill="#db6d12"/><rect x="75.69" y="85.29" width="4.8" height="4.8" fill="#db6d12"/><rect x="75.69" y="80.49" width="4.8" height="4.8" fill="#fff"/><rect x="75.69" y="75.69" width="4.8" height="4.8" fill="#fff"/><rect x="75.69" y="70.89" width="4.8" height="4.8" fill="#a3c6e2"/><rect x="75.69" y="66.09" width="4.8" height="4.8" fill="#1b0003"/><rect x="70.89" y="147.68" width="4.8" height="4.8" fill="#1b0003"/><rect x="70.89" y="142.88" width="4.8" height="4.8" fill="#6a87af"/><rect x="70.89" y="138.08" width="4.8" height="4.8" fill="#f7c45e"/><rect x="70.89" y="133.28" width="4.8" height="4.8" fill="#ea942d"/><rect x="70.89" y="128.48" width="4.8" height="4.8" fill="#ea942d"/><rect x="70.89" y="123.68" width="4.8" height="4.8" fill="#db6d12"/><rect x="70.89" y="118.88" width="4.8" height="4.8" fill="#db6d12"/><rect x="70.89" y="114.08" width="4.8" height="4.8" fill="#db6d12"/><rect x="70.89" y="109.28" width="4.8" height="4.8" fill="#db6d12"/><rect x="70.89" y="104.48" width="4.8" height="4.8" fill="#db6d12"/><rect x="70.89" y="99.68" width="4.8" height="4.8" fill="#f7c45e"/><rect x="70.89" y="94.89" width="4.8" height="4.8" fill="#db6d12"/><rect x="70.89" y="90.09" width="4.8" height="4.8" fill="#db6d12"/><rect x="70.89" y="85.29" width="4.8" height="4.8" fill="#db6d12"/><rect x="70.89" y="80.49" width="4.8" height="4.8" fill="#db6d12"/><rect x="70.89" y="75.69" width="4.8" height="4.8" fill="#fff"/><rect x="70.89" y="70.89" width="4.8" height="4.8" fill="#a3c6e2"/><rect x="70.89" y="66.09" width="4.8" height="4.8" fill="#1b0003"/><rect x="70.89" y="22.9" width="4.8" height="4.8" fill="#1b0003"/><rect x="70.89" y="18.1" width="4.8" height="4.8" fill="#1b0003"/><rect x="66.09" y="147.68" width="4.8" height="4.8" fill="#1b0003"/><rect x="66.09" y="142.88" width="4.8" height="4.8" fill="#6a87af"/><rect x="66.09" y="138.08" width="4.8" height="4.8" fill="#f7c45e"/><rect x="66.09" y="133.28" width="4.8" height="4.8" fill="#ea942d"/><rect x="66.09" y="128.48" width="4.8" height="4.8" fill="#db6d12"/><rect x="66.09" y="123.68" width="4.8" height="4.8" fill="#db6d12"/><rect x="66.09" y="118.88" width="4.8" height="4.8" fill="#db6d12"/><rect x="66.09" y="114.08" width="4.8" height="4.8" fill="#f7c45e"/><rect x="66.09" y="109.28" width="4.8" height="4.8" fill="#db6d12"/><rect x="66.09" y="104.48" width="4.8" height="4.8" fill="#f7c45e"/><rect x="66.09" y="99.68" width="4.8" height="4.8" fill="#db6d12"/><rect x="66.09" y="94.89" width="4.8" height="4.8" fill="#f7c45e"/><rect x="66.09" y="90.09" width="4.8" height="4.8" fill="#f7c45e"/><rect x="66.09" y="85.29" width="4.8" height="4.8" fill="#f7c45e"/><rect x="66.09" y="80.49" width="4.8" height="4.8" fill="#db6d12"/><rect x="66.09" y="75.69" width="4.8" height="4.8" fill="#f7c45e"/><rect x="66.09" y="70.89" width="4.8" height="4.8" fill="#bedbed"/><rect x="66.09" y="66.09" width="4.8" height="4.8" fill="#223c5b"/><rect x="66.09" y="61.29" width="4.8" height="4.8" fill="#1b0003"/><rect x="66.09" y="56.49" width="4.8" height="4.8" fill="#1b0003"/><rect x="66.09" y="51.69" width="4.8" height="4.8" fill="#1b0003"/><rect x="66.09" y="46.89" width="4.8" height="4.8" fill="#1b0003"/><rect x="66.09" y="42.09" width="4.8" height="4.8" fill="#1b0003"/><rect x="66.09" y="37.3" width="4.8" height="4.8" fill="#1b0003"/><rect x="66.09" y="32.5" width="4.8" height="4.8" fill="#1b0003"/><rect x="66.09" y="27.7" width="4.8" height="4.8" fill="#1b0003"/><rect x="66.09" y="22.9" width="4.8" height="4.8" fill="#6a87af"/><rect x="66.09" y="18.1" width="4.8" height="4.8" fill="#1b0003"/><rect x="66.09" y="13.3" width="4.8" height="4.8" fill="#1b0003"/><rect x="61.29" y="147.68" width="4.8" height="4.8" fill="#1b0003"/><rect x="61.29" y="142.88" width="4.8" height="4.8" fill="#6a87af"/><rect x="61.29" y="138.08" width="4.8" height="4.8" fill="#f7c45e"/><rect x="61.29" y="133.28" width="4.8" height="4.8" fill="#ea942d"/><rect x="61.29" y="128.48" width="4.8" height="4.8" fill="#db6d12"/><rect x="61.29" y="123.68" width="4.8" height="4.8" fill="#db6d12"/><rect x="61.29" y="118.88" width="4.8" height="4.8" fill="#f7c45e"/><rect x="61.29" y="114.08" width="4.8" height="4.8" fill="#db6d12"/><rect x="61.29" y="109.28" width="4.8" height="4.8" fill="#f7c45e"/><rect x="61.29" y="104.48" width="4.8" height="4.8" fill="#db6d12"/><rect x="61.29" y="99.68" width="4.8" height="4.8" fill="#f7c45e"/><rect x="61.29" y="94.89" width="4.8" height="4.8" fill="#f7c45e"/><rect x="61.29" y="90.09" width="4.8" height="4.8" fill="#f7c45e"/><rect x="61.29" y="85.29" width="4.8" height="4.8" fill="#f7c45e"/><rect x="61.29" y="80.49" width="4.8" height="4.8" fill="#f7c45e"/><rect x="61.29" y="75.69" width="4.8" height="4.8" fill="#f9f2d4"/><rect x="61.29" y="70.89" width="4.8" height="4.8" fill="#bedbed"/><rect x="61.29" y="66.09" width="4.8" height="4.8" fill="#bedbed"/><rect x="61.29" y="61.29" width="4.8" height="4.8" fill="#bedbed"/><rect x="61.29" y="56.49" width="4.8" height="4.8" fill="#bedbed"/><rect x="61.29" y="51.69" width="4.8" height="4.8" fill="#bedbed"/><rect x="61.29" y="46.89" width="4.8" height="4.8" fill="#bedbed"/><rect x="61.29" y="42.09" width="4.8" height="4.8" fill="#a3c6e2"/><rect x="61.29" y="37.3" width="4.8" height="4.8" fill="#a3c6e2"/><rect x="61.29" y="32.5" width="4.8" height="4.8" fill="#6a87af"/><rect x="61.29" y="27.7" width="4.8" height="4.8" fill="#6a87af"/><rect x="61.29" y="22.9" width="4.8" height="4.8" fill="#7f1e14"/><rect x="61.29" y="18.1" width="4.8" height="4.8" fill="#1b0003"/><rect x="61.29" y="13.3" width="4.8" height="4.8" fill="#e86f3f"/><rect x="61.29" y="8.5" width="4.8" height="4.8" fill="#1b0003"/><rect x="56.49" y="147.68" width="4.8" height="4.8" fill="#1b0003"/><rect x="56.49" y="142.88" width="4.8" height="4.8" fill="#6a87af"/><rect x="56.49" y="138.08" width="4.8" height="4.8" fill="#f7c45e"/><rect x="56.49" y="133.28" width="4.8" height="4.8" fill="#db6d12"/><rect x="56.49" y="128.48" width="4.8" height="4.8" fill="#db6d12"/><rect x="56.49" y="123.68" width="4.8" height="4.8" fill="#f7c45e"/><rect x="56.49" y="118.88" width="4.8" height="4.8" fill="#db6d12"/><rect x="56.49" y="114.08" width="4.8" height="4.8" fill="#f7c45e"/><rect x="56.49" y="109.28" width="4.8" height="4.8" fill="#db6d12"/><rect x="56.49" y="104.48" width="4.8" height="4.8" fill="#f7c45e"/><rect x="56.49" y="99.68" width="4.8" height="4.8" fill="#f7c45e"/><rect x="56.49" y="94.89" width="4.8" height="4.8" fill="#f7c45e"/><rect x="56.49" y="90.09" width="4.8" height="4.8" fill="#f7c45e"/><rect x="56.49" y="85.29" width="4.8" height="4.8" fill="#f7c45e"/><rect x="56.49" y="80.49" width="4.8" height="4.8" fill="#f7c45e"/><rect x="56.49" y="75.69" width="4.8" height="4.8" fill="#f9f2d4"/><rect x="56.49" y="70.89" width="4.8" height="4.8" fill="#fff"/><rect x="56.49" y="66.09" width="4.8" height="4.8" fill="#fff"/><rect x="56.49" y="61.29" width="4.8" height="4.8" fill="#fff"/><rect x="56.49" y="56.49" width="4.8" height="4.8" fill="#fff"/><rect x="56.49" y="51.69" width="4.8" height="4.8" fill="#fff"/><rect x="56.49" y="46.89" width="4.8" height="4.8" fill="#fff"/><rect x="56.49" y="42.09" width="4.8" height="4.8" fill="#fff"/><rect x="56.49" y="37.3" width="4.8" height="4.8" fill="#fff"/><rect x="56.49" y="32.5" width="4.8" height="4.8" fill="#fff"/><rect x="56.49" y="27.7" width="4.8" height="4.8" fill="#fff"/><rect x="56.49" y="22.9" width="4.8" height="4.8" fill="#7f1e14"/><rect x="56.49" y="18.1" width="4.8" height="4.8" fill="#1b0003"/><rect x="56.49" y="13.3" width="4.8" height="4.8" fill="#e86f3f"/><rect x="56.49" y="8.5" width="4.8" height="4.8" fill="#1b0003"/><rect x="51.69" y="147.68" width="4.8" height="4.8" fill="#1b0003"/><rect x="51.69" y="142.88" width="4.8" height="4.8" fill="#6a87af"/><rect x="51.69" y="138.08" width="4.8" height="4.8" fill="#f7c45e"/><rect x="51.69" y="133.28" width="4.8" height="4.8" fill="#db6d12"/><rect x="51.69" y="128.48" width="4.8" height="4.8" fill="#db6d12"/><rect x="51.69" y="123.68" width="4.8" height="4.8" fill="#db6d12"/><rect x="51.69" y="118.88" width="4.8" height="4.8" fill="#f7c45e"/><rect x="51.69" y="114.08" width="4.8" height="4.8" fill="#db6d12"/><rect x="51.69" y="109.28" width="4.8" height="4.8" fill="#f7c45e"/><rect x="51.69" y="104.48" width="4.8" height="4.8" fill="#f7c45e"/><rect x="51.69" y="99.68" width="4.8" height="4.8" fill="#f7c45e"/><rect x="51.69" y="94.89" width="4.8" height="4.8" fill="#f7c45e"/><rect x="51.69" y="90.09" width="4.8" height="4.8" fill="#f7c45e"/><rect x="51.69" y="85.29" width="4.8" height="4.8" fill="#f7c45e"/><rect x="51.69" y="80.49" width="4.8" height="4.8" fill="#f9f2d4"/><rect x="51.69" y="75.69" width="4.8" height="4.8" fill="#f9f2d4"/><rect x="51.69" y="70.89" width="4.8" height="4.8" fill="#a3c6e2"/><rect x="51.69" y="66.09" width="4.8" height="4.8" fill="#a3c6e2"/><rect x="51.69" y="61.29" width="4.8" height="4.8" fill="#a3c6e2"/><rect x="51.69" y="56.49" width="4.8" height="4.8" fill="#a3c6e2"/><rect x="51.69" y="51.69" width="4.8" height="4.8" fill="#a3c6e2"/><rect x="51.69" y="46.89" width="4.8" height="4.8" fill="#a3c6e2"/><rect x="51.69" y="42.09" width="4.8" height="4.8" fill="#a3c6e2"/><rect x="51.69" y="37.3" width="4.8" height="4.8" fill="#a3c6e2"/><rect x="51.69" y="32.5" width="4.8" height="4.8" fill="#a3c6e2"/><rect x="51.69" y="27.7" width="4.8" height="4.8" fill="#a3c6e2"/><rect x="51.69" y="22.9" width="4.8" height="4.8" fill="#7f1e14"/><rect x="51.69" y="18.1" width="4.8" height="4.8" fill="#1b0003"/><rect x="51.69" y="13.3" width="4.8" height="4.8" fill="#f2904e"/><rect x="51.69" y="8.5" width="4.8" height="4.8" fill="#1b0003"/><rect x="46.89" y="147.68" width="4.8" height="4.8" fill="#1b0003"/><rect x="46.89" y="142.88" width="4.8" height="4.8" fill="#6a87af"/><rect x="46.89" y="138.08" width="4.8" height="4.8" fill="#f7c45e"/><rect x="46.89" y="133.28" width="4.8" height="4.8" fill="#db6d12"/><rect x="46.89" y="128.48" width="4.8" height="4.8" fill="#db6d12"/><rect x="46.89" y="123.68" width="4.8" height="4.8" fill="#f7c45e"/><rect x="46.89" y="118.88" width="4.8" height="4.8" fill="#db6d12"/><rect x="46.89" y="114.08" width="4.8" height="4.8" fill="#f7c45e"/><rect x="46.89" y="109.28" width="4.8" height="4.8" fill="#f7c45e"/><rect x="46.89" y="104.48" width="4.8" height="4.8" fill="#f7c45e"/><rect x="46.89" y="99.68" width="4.8" height="4.8" fill="#f7c45e"/><rect x="46.89" y="94.89" width="4.8" height="4.8" fill="#f7c45e"/><rect x="46.89" y="90.09" width="4.8" height="4.8" fill="#f9f2d4"/><rect x="46.89" y="85.29" width="4.8" height="4.8" fill="#fff"/><rect x="46.89" y="80.49" width="4.8" height="4.8" fill="#fff"/><rect x="46.89" y="75.69" width="4.8" height="4.8" fill="#f9f2d4"/><rect x="46.89" y="70.89" width="4.8" height="4.8" fill="#a3c6e2"/><rect x="46.89" y="66.09" width="4.8" height="4.8" fill="#223c5b"/><rect x="46.89" y="61.29" width="4.8" height="4.8" fill="#1b0003"/><rect x="46.89" y="56.49" width="4.8" height="4.8" fill="#1b0003"/><rect x="46.89" y="51.69" width="4.8" height="4.8" fill="#1b0003"/><rect x="46.89" y="46.89" width="4.8" height="4.8" fill="#1b0003"/><rect x="46.89" y="42.09" width="4.8" height="4.8" fill="#1b0003"/><rect x="46.89" y="37.3" width="4.8" height="4.8" fill="#1b0003"/><rect x="46.89" y="32.5" width="4.8" height="4.8" fill="#1b0003"/><rect x="46.89" y="27.7" width="4.8" height="4.8" fill="#1b0003"/><rect x="46.89" y="22.9" width="4.8" height="4.8" fill="#bedbed"/><rect x="46.89" y="18.1" width="4.8" height="4.8" fill="#1b0003"/><rect x="46.89" y="13.3" width="4.8" height="4.8" fill="#1b0003"/><rect x="42.09" y="147.68" width="4.8" height="4.8" fill="#1b0003"/><rect x="42.09" y="142.88" width="4.8" height="4.8" fill="#6a87af"/><rect x="42.09" y="138.08" width="4.8" height="4.8" fill="#f7c45e"/><rect x="42.09" y="133.28" width="4.8" height="4.8" fill="#db6d12"/><rect x="42.09" y="128.48" width="4.8" height="4.8" fill="#f7c45e"/><rect x="42.09" y="123.68" width="4.8" height="4.8" fill="#db6d12"/><rect x="42.09" y="118.88" width="4.8" height="4.8" fill="#f7c45e"/><rect x="42.09" y="114.08" width="4.8" height="4.8" fill="#f7c45e"/><rect x="42.09" y="109.28" width="4.8" height="4.8" fill="#f7c45e"/><rect x="42.09" y="104.48" width="4.8" height="4.8" fill="#f9f2d4"/><rect x="42.09" y="99.68" width="4.8" height="4.8" fill="#f9f2d4"/><rect x="42.09" y="94.89" width="4.8" height="4.8" fill="#fff"/><rect x="42.09" y="90.09" width="4.8" height="4.8" fill="#fff"/><rect x="42.09" y="85.29" width="4.8" height="4.8" fill="#fff"/><rect x="42.09" y="80.49" width="4.8" height="4.8" fill="#fff"/><rect x="42.09" y="75.69" width="4.8" height="4.8" fill="#fff"/><rect x="42.09" y="70.89" width="4.8" height="4.8" fill="#a3c6e2"/><rect x="42.09" y="66.09" width="4.8" height="4.8" fill="#1b0003"/><rect x="42.09" y="22.9" width="4.8" height="4.8" fill="#1b0003"/><rect x="42.09" y="18.1" width="4.8" height="4.8" fill="#1b0003"/><rect x="37.3" y="147.68" width="4.8" height="4.8" fill="#1b0003"/><rect x="37.3" y="142.88" width="4.8" height="4.8" fill="#bedbed"/><rect x="37.3" y="138.08" width="4.8" height="4.8" fill="#f7c45e"/><rect x="37.3" y="133.28" width="4.8" height="4.8" fill="#f7c45e"/><rect x="37.3" y="128.48" width="4.8" height="4.8" fill="#f7c45e"/><rect x="37.3" y="123.68" width="4.8" height="4.8" fill="#f7c45e"/><rect x="37.3" y="118.88" width="4.8" height="4.8" fill="#f7c45e"/><rect x="37.3" y="114.08" width="4.8" height="4.8" fill="#f9f2d4"/><rect x="37.3" y="109.28" width="4.8" height="4.8" fill="#f9f2d4"/><rect x="37.3" y="104.48" width="4.8" height="4.8" fill="#f9f2d4"/><rect x="37.3" y="99.68" width="4.8" height="4.8" fill="#f9f2d4"/><rect x="37.3" y="94.89" width="4.8" height="4.8" fill="#fff"/><rect x="37.3" y="90.09" width="4.8" height="4.8" fill="#fff"/><rect x="37.3" y="85.29" width="4.8" height="4.8" fill="#fff"/><rect x="37.3" y="80.49" width="4.8" height="4.8" fill="#fff"/><rect x="37.3" y="75.69" width="4.8" height="4.8" fill="#f9f2d4"/><rect x="37.3" y="70.89" width="4.8" height="4.8" fill="#6a87af"/><rect x="37.3" y="66.09" width="4.8" height="4.8" fill="#1b0003"/><rect x="32.5" y="147.68" width="4.8" height="4.8" fill="#1b0003"/><rect x="32.5" y="142.88" width="4.8" height="4.8" fill="#bedbed"/><rect x="32.5" y="138.08" width="4.8" height="4.8" fill="#f7c45e"/><rect x="32.5" y="133.28" width="4.8" height="4.8" fill="#f7c45e"/><rect x="32.5" y="128.48" width="4.8" height="4.8" fill="#f9f2d4"/><rect x="32.5" y="123.68" width="4.8" height="4.8" fill="#f9f2d4"/><rect x="32.5" y="118.88" width="4.8" height="4.8" fill="#f9f2d4"/><rect x="32.5" y="114.08" width="4.8" height="4.8" fill="#f9f2d4"/><rect x="32.5" y="109.28" width="4.8" height="4.8" fill="#f9f2d4"/><rect x="32.5" y="104.48" width="4.8" height="4.8" fill="#f9f2d4"/><rect x="32.5" y="99.68" width="4.8" height="4.8" fill="#fff"/><rect x="32.5" y="94.89" width="4.8" height="4.8" fill="#fff"/><rect x="32.5" y="90.09" width="4.8" height="4.8" fill="#fff"/><rect x="32.5" y="85.29" width="4.8" height="4.8" fill="#fff"/><rect x="32.5" y="80.49" width="4.8" height="4.8" fill="#f9f2d4"/><rect x="32.5" y="75.69" width="4.8" height="4.8" fill="#a3c6e2"/><rect x="32.5" y="70.89" width="4.8" height="4.8" fill="#1b0003"/><rect x="27.7" y="142.88" width="4.8" height="4.8" fill="#1b0003"/><rect x="27.7" y="138.08" width="4.8" height="4.8" fill="#bedbed"/><rect x="27.7" y="133.28" width="4.8" height="4.8" fill="#f7c45e"/><rect x="27.7" y="128.48" width="4.8" height="4.8" fill="#f7c45e"/><rect x="27.7" y="123.68" width="4.8" height="4.8" fill="#f9f2d4"/><rect x="27.7" y="118.88" width="4.8" height="4.8" fill="#f9f2d4"/><rect x="27.7" y="114.08" width="4.8" height="4.8" fill="#f9f2d4"/><rect x="27.7" y="109.28" width="4.8" height="4.8" fill="#f9f2d4"/><rect x="27.7" y="104.48" width="4.8" height="4.8" fill="#f9f2d4"/><rect x="27.7" y="99.68" width="4.8" height="4.8" fill="#f9f2d4"/><rect x="27.7" y="94.89" width="4.8" height="4.8" fill="#fff"/><rect x="27.7" y="90.09" width="4.8" height="4.8" fill="#fff"/><rect x="27.7" y="85.29" width="4.8" height="4.8" fill="#f9f2d4"/><rect x="27.7" y="80.49" width="4.8" height="4.8" fill="#a3c6e2"/><rect x="27.7" y="75.69" width="4.8" height="4.8" fill="#6a87af"/><rect x="27.7" y="70.89" width="4.8" height="4.8" fill="#1b0003"/><rect x="22.9" y="138.08" width="4.8" height="4.8" fill="#1b0003"/><rect x="22.9" y="133.28" width="4.8" height="4.8" fill="#bedbed"/><rect x="22.9" y="128.48" width="4.8" height="4.8" fill="#bedbed"/><rect x="22.9" y="123.68" width="4.8" height="4.8" fill="#f7c45e"/><rect x="22.9" y="118.88" width="4.8" height="4.8" fill="#f9f2d4"/><rect x="22.9" y="114.08" width="4.8" height="4.8" fill="#f9f2d4"/><rect x="22.9" y="109.28" width="4.8" height="4.8" fill="#f9f2d4"/><rect x="22.9" y="104.48" width="4.8" height="4.8" fill="#f9f2d4"/><rect x="22.9" y="99.68" width="4.8" height="4.8" fill="#f9f2d4"/><rect x="22.9" y="94.89" width="4.8" height="4.8" fill="#f9f2d4"/><rect x="22.9" y="90.09" width="4.8" height="4.8" fill="#f9f2d4"/><rect x="22.9" y="85.29" width="4.8" height="4.8" fill="#a3c6e2"/><rect x="22.9" y="80.49" width="4.8" height="4.8" fill="#6a87af"/><rect x="22.9" y="75.69" width="4.8" height="4.8" fill="#1b0003"/><rect x="18.1" y="133.28" width="4.8" height="4.8" fill="#1b0003"/><rect x="18.1" y="128.48" width="4.8" height="4.8" fill="#1b0003"/><rect x="18.1" y="123.68" width="4.8" height="4.8" fill="#bedbed"/><rect x="18.1" y="118.88" width="4.8" height="4.8" fill="#bedbed"/><rect x="18.1" y="114.08" width="4.8" height="4.8" fill="#f9f2d4"/><rect x="18.1" y="109.28" width="4.8" height="4.8" fill="#f9f2d4"/><rect x="18.1" y="104.48" width="4.8" height="4.8" fill="#f9f2d4"/><rect x="18.1" y="99.68" width="4.8" height="4.8" fill="#f9f2d4"/><rect x="18.1" y="94.89" width="4.8" height="4.8" fill="#a3c6e2"/><rect x="18.1" y="90.09" width="4.8" height="4.8" fill="#6a87af"/><rect x="18.1" y="85.29" width="4.8" height="4.8" fill="#1b0003"/><rect x="18.1" y="80.49" width="4.8" height="4.8" fill="#1b0003"/><rect x="13.3" y="123.68" width="4.8" height="4.8" fill="#1b0003"/><rect x="13.3" y="118.88" width="4.8" height="4.8" fill="#1b0003"/><rect x="13.3" y="114.08" width="4.8" height="4.8" fill="#6a87af"/><rect x="13.3" y="109.28" width="4.8" height="4.8" fill="#6a87af"/><rect x="13.3" y="104.48" width="4.8" height="4.8" fill="#6a87af"/><rect x="13.3" y="99.68" width="4.8" height="4.8" fill="#6a87af"/><rect x="13.3" y="94.89" width="4.8" height="4.8" fill="#1b0003"/><rect x="13.3" y="90.09" width="4.8" height="4.8" fill="#1b0003"/><rect x="8.5" y="114.08" width="4.8" height="4.8" fill="#1b0003"/><rect x="8.5" y="109.28" width="4.8" height="4.8" fill="#1b0003"/><rect x="8.5" y="104.48" width="4.8" height="4.8" fill="#1b0003"/><rect x="8.5" y="99.68" width="4.8" height="4.8" fill="#1b0003"/></g></g></g></g></svg>