<svg xmlns="http://www.w3.org/2000/svg" width="147.8" height="124.16" viewBox="0 0 147.8 124.16"><g id="Layer_2" data-name="Layer 2"><g id="items"><g id="Armor"><rect x="141.89" y="35.47" width="5.91" height="5.91" fill="#1b0003"/><rect x="141.89" y="29.56" width="5.91" height="5.91" fill="#1b0003"/><rect x="141.89" y="23.65" width="5.91" height="5.91" fill="#1b0003"/><rect x="141.89" y="17.74" width="5.91" height="5.91" fill="#1b0003"/><rect x="135.98" y="41.38" width="5.91" height="5.91" fill="#1b0003"/><rect x="135.98" y="35.47" width="5.91" height="5.91" fill="#85a1c9"/><rect x="135.98" y="29.56" width="5.91" height="5.91" fill="#e3f7ff"/><rect x="135.98" y="23.65" width="5.91" height="5.91" fill="#e3f7ff"/><rect x="135.98" y="17.74" width="5.91" height="5.91" fill="#fff"/><rect x="135.98" y="11.82" width="5.91" height="5.91" fill="#1b0003"/><rect x="130.07" y="41.38" width="5.91" height="5.91" fill="#1b0003"/><rect x="130.07" y="35.47" width="5.91" height="5.91" fill="#85a1c9"/><rect x="130.07" y="29.56" width="5.91" height="5.91" fill="#e3f7ff"/><rect x="130.07" y="23.65" width="5.91" height="5.91" fill="#e3f7ff"/><rect x="130.07" y="17.74" width="5.91" height="5.91" fill="#fff"/><rect x="130.07" y="11.82" width="5.91" height="5.91" fill="#fff"/><rect x="130.07" y="5.91" width="5.91" height="5.91" fill="#1b0003"/><rect x="124.16" y="100.51" width="5.91" height="5.91" fill="#1b0003"/><rect x="124.16" y="47.3" width="5.91" height="5.91" fill="#1b0003"/><rect x="124.16" y="41.38" width="5.91" height="5.91" fill="#85a1c9"/><rect x="124.16" y="35.47" width="5.91" height="5.91" fill="#e3f7ff"/><rect x="124.16" y="29.56" width="5.91" height="5.91" fill="#e3f7ff"/><rect x="124.16" y="23.65" width="5.91" height="5.91" fill="#e3f7ff"/><rect x="124.16" y="17.74" width="5.91" height="5.91" fill="#e3f7ff"/><rect x="124.16" y="11.82" width="5.91" height="5.91" fill="#fff"/><rect x="124.16" y="5.91" width="5.91" height="5.91" fill="#1b0003"/><rect x="118.24" y="106.42" width="5.91" height="5.91" fill="#1b0003"/><rect x="118.24" y="100.51" width="5.91" height="5.91" fill="#bedbed"/><rect x="118.24" y="94.59" width="5.91" height="5.91" fill="#1b0003"/><rect x="118.24" y="70.95" width="5.91" height="5.91" fill="#1b0003"/><rect x="118.24" y="65.03" width="5.91" height="5.91" fill="#1b0003"/><rect x="118.24" y="59.12" width="5.91" height="5.91" fill="#1b0003"/><rect x="118.24" y="53.21" width="5.91" height="5.91" fill="#1b0003"/><rect x="118.24" y="47.3" width="5.91" height="5.91" fill="#1b0003"/><rect x="118.24" y="41.38" width="5.91" height="5.91" fill="#85a1c9"/><rect x="118.24" y="35.47" width="5.91" height="5.91" fill="#e3f7ff"/><rect x="118.24" y="29.56" width="5.91" height="5.91" fill="#e3f7ff"/><rect x="118.24" y="23.65" width="5.91" height="5.91" fill="#e3f7ff"/><rect x="118.24" y="17.74" width="5.91" height="5.91" fill="#e3f7ff"/><rect x="118.24" y="11.82" width="5.91" height="5.91" fill="#fff"/><rect x="118.24" y="5.91" width="5.91" height="5.91" fill="#fff"/><rect x="118.24" width="5.91" height="5.91" fill="#1b0003"/><rect x="112.33" y="112.33" width="5.91" height="5.91" fill="#1b0003"/><rect x="112.33" y="106.42" width="5.91" height="5.91" fill="#bedbed"/><rect x="112.33" y="100.51" width="5.91" height="5.91" fill="#bedbed"/><rect x="112.33" y="94.59" width="5.91" height="5.91" fill="#bedbed"/><rect x="112.33" y="88.68" width="5.91" height="5.91" fill="#1b0003"/><rect x="112.33" y="76.86" width="5.91" height="5.91" fill="#1b0003"/><rect x="112.33" y="70.95" width="5.91" height="5.91" fill="#bedbed"/><rect x="112.33" y="65.03" width="5.91" height="5.91" fill="#bedbed"/><rect x="112.33" y="59.12" width="5.91" height="5.91" fill="#bedbed"/><rect x="112.33" y="53.21" width="5.91" height="5.91" fill="#bedbed"/><rect x="112.33" y="47.3" width="5.91" height="5.91" fill="#bedbed"/><rect x="112.33" y="41.38" width="5.91" height="5.91" fill="#85a1c9"/><rect x="112.33" y="35.47" width="5.91" height="5.91" fill="#bedbed"/><rect x="112.33" y="29.56" width="5.91" height="5.91" fill="#bedbed"/><rect x="112.33" y="23.65" width="5.91" height="5.91" fill="#e3f7ff"/><rect x="112.33" y="17.74" width="5.91" height="5.91" fill="#e3f7ff"/><rect x="112.33" y="11.82" width="5.91" height="5.91" fill="#e3f7ff"/><rect x="112.33" y="5.91" width="5.91" height="5.91" fill="#e3f7ff"/><rect x="112.33" width="5.91" height="5.91" fill="#1b0003"/><rect x="106.42" y="118.24" width="5.91" height="5.91" fill="#1b0003"/><rect x="106.42" y="112.33" width="5.91" height="5.91" fill="#85a1c9"/><rect x="106.42" y="106.42" width="5.91" height="5.91" fill="#85a1c9"/><rect x="106.42" y="100.51" width="5.91" height="5.91" fill="#bedbed"/><rect x="106.42" y="94.59" width="5.91" height="5.91" fill="#223c5b"/><rect x="106.42" y="88.68" width="5.91" height="5.91" fill="#223c5b"/><rect x="106.42" y="82.77" width="5.91" height="5.91" fill="#1b0003"/><rect x="106.42" y="76.86" width="5.91" height="5.91" fill="#85a1c9"/><rect x="106.42" y="70.95" width="5.91" height="5.91" fill="#bedbed"/><rect x="106.42" y="65.03" width="5.91" height="5.91" fill="#bedbed"/><rect x="106.42" y="59.12" width="5.91" height="5.91" fill="#85a1c9"/><rect x="106.42" y="53.21" width="5.91" height="5.91" fill="#bedbed"/><rect x="106.42" y="47.3" width="5.91" height="5.91" fill="#bedbed"/><rect x="106.42" y="41.38" width="5.91" height="5.91" fill="#bedbed"/><rect x="106.42" y="35.47" width="5.91" height="5.91" fill="#bedbed"/><rect x="106.42" y="29.56" width="5.91" height="5.91" fill="#bedbed"/><rect x="106.42" y="23.65" width="5.91" height="5.91" fill="#bedbed"/><rect x="106.42" y="17.74" width="5.91" height="5.91" fill="#e3f7ff"/><rect x="106.42" y="11.82" width="5.91" height="5.91" fill="#e3f7ff"/><rect x="106.42" y="5.91" width="5.91" height="5.91" fill="#e3f7ff"/><rect x="106.42" width="5.91" height="5.91" fill="#1b0003"/><rect x="100.51" y="112.33" width="5.91" height="5.91" fill="#1b0003"/><rect x="100.51" y="106.42" width="5.91" height="5.91" fill="#85a1c9"/><rect x="100.51" y="100.51" width="5.91" height="5.91" fill="#85a1c9"/><rect x="100.51" y="94.59" width="5.91" height="5.91" fill="#223c5b"/><rect x="100.51" y="88.68" width="5.91" height="5.91" fill="#85a1c9"/><rect x="100.51" y="82.77" width="5.91" height="5.91" fill="#85a1c9"/><rect x="100.51" y="76.86" width="5.91" height="5.91" fill="#bedbed"/><rect x="100.51" y="70.95" width="5.91" height="5.91" fill="#bedbed"/><rect x="100.51" y="65.03" width="5.91" height="5.91" fill="#bedbed"/><rect x="100.51" y="59.12" width="5.91" height="5.91" fill="#85a1c9"/><rect x="100.51" y="53.21" width="5.91" height="5.91" fill="#fff"/><rect x="100.51" y="47.3" width="5.91" height="5.91" fill="#e3f7ff"/><rect x="100.51" y="41.38" width="5.91" height="5.91" fill="#e3f7ff"/><rect x="100.51" y="35.47" width="5.91" height="5.91" fill="#e3f7ff"/><rect x="100.51" y="29.56" width="5.91" height="5.91" fill="#e3f7ff"/><rect x="100.51" y="23.65" width="5.91" height="5.91" fill="#e3f7ff"/><rect x="100.51" y="17.74" width="5.91" height="5.91" fill="#e3f7ff"/><rect x="100.51" y="11.82" width="5.91" height="5.91" fill="#e3f7ff"/><rect x="100.51" y="5.91" width="5.91" height="5.91" fill="#e3f7ff"/><rect x="100.51" width="5.91" height="5.91" fill="#1b0003"/><rect x="94.59" y="106.42" width="5.91" height="5.91" fill="#1b0003"/><rect x="94.59" y="100.51" width="5.91" height="5.91" fill="#85a1c9"/><rect x="94.59" y="94.59" width="5.91" height="5.91" fill="#223c5b"/><rect x="94.59" y="88.68" width="5.91" height="5.91" fill="#85a1c9"/><rect x="94.59" y="82.77" width="5.91" height="5.91" fill="#85a1c9"/><rect x="94.59" y="76.86" width="5.91" height="5.91" fill="#bedbed"/><rect x="94.59" y="70.95" width="5.91" height="5.91" fill="#bedbed"/><rect x="94.59" y="65.03" width="5.91" height="5.91" fill="#bedbed"/><rect x="94.59" y="59.12" width="5.91" height="5.91" fill="#85a1c9"/><rect x="94.59" y="53.21" width="5.91" height="5.91" fill="#fff"/><rect x="94.59" y="47.3" width="5.91" height="5.91" fill="#e3f7ff"/><rect x="94.59" y="41.38" width="5.91" height="5.91" fill="#e3f7ff"/><rect x="94.59" y="35.47" width="5.91" height="5.91" fill="#e3f7ff"/><rect x="94.59" y="29.56" width="5.91" height="5.91" fill="#e3f7ff"/><rect x="94.59" y="23.65" width="5.91" height="5.91" fill="#e3f7ff"/><rect x="94.59" y="17.74" width="5.91" height="5.91" fill="#e3f7ff"/><rect x="94.59" y="11.82" width="5.91" height="5.91" fill="#e3f7ff"/><rect x="94.59" y="5.91" width="5.91" height="5.91" fill="#1b0003"/><rect x="94.59" width="5.91" height="5.91" fill="#1b0003"/><rect x="88.68" y="100.51" width="5.91" height="5.91" fill="#1b0003"/><rect x="88.68" y="94.59" width="5.91" height="5.91" fill="#1b0003"/><rect x="88.68" y="88.68" width="5.91" height="5.91" fill="#85a1c9"/><rect x="88.68" y="82.77" width="5.91" height="5.91" fill="#bedbed"/><rect x="88.68" y="76.86" width="5.91" height="5.91" fill="#bedbed"/><rect x="88.68" y="70.95" width="5.91" height="5.91" fill="#bedbed"/><rect x="88.68" y="65.03" width="5.91" height="5.91" fill="#bedbed"/><rect x="88.68" y="59.12" width="5.91" height="5.91" fill="#85a1c9"/><rect x="88.68" y="53.21" width="5.91" height="5.91" fill="#fff"/><rect x="88.68" y="47.3" width="5.91" height="5.91" fill="#e3f7ff"/><rect x="88.68" y="41.38" width="5.91" height="5.91" fill="#e3f7ff"/><rect x="88.68" y="35.47" width="5.91" height="5.91" fill="#e3f7ff"/><rect x="88.68" y="29.56" width="5.91" height="5.91" fill="#e3f7ff"/><rect x="88.68" y="23.65" width="5.91" height="5.91" fill="#e3f7ff"/><rect x="88.68" y="17.74" width="5.91" height="5.91" fill="#e3f7ff"/><rect x="88.68" y="11.82" width="5.91" height="5.91" fill="#1b0003"/><rect x="88.68" y="5.91" width="5.91" height="5.91" fill="#1b0003"/><rect x="88.68" width="5.91" height="5.91" fill="#1b0003"/><rect x="82.77" y="94.59" width="5.91" height="5.91" fill="#1b0003"/><rect x="82.77" y="88.68" width="5.91" height="5.91" fill="#85a1c9"/><rect x="82.77" y="82.77" width="5.91" height="5.91" fill="#bedbed"/><rect x="82.77" y="76.86" width="5.91" height="5.91" fill="#bedbed"/><rect x="82.77" y="70.95" width="5.91" height="5.91" fill="#bedbed"/><rect x="82.77" y="65.03" width="5.91" height="5.91" fill="#85a1c9"/><rect x="82.77" y="59.12" width="5.91" height="5.91" fill="#fff"/><rect x="82.77" y="53.21" width="5.91" height="5.91" fill="#e3f7ff"/><rect x="82.77" y="47.3" width="5.91" height="5.91" fill="#e3f7ff"/><rect x="82.77" y="41.38" width="5.91" height="5.91" fill="#e3f7ff"/><rect x="82.77" y="35.47" width="5.91" height="5.91" fill="#e3f7ff"/><rect x="82.77" y="29.56" width="5.91" height="5.91" fill="#e3f7ff"/><rect x="82.77" y="23.65" width="5.91" height="5.91" fill="#e3f7ff"/><rect x="82.77" y="17.74" width="5.91" height="5.91" fill="#e3f7ff"/><rect x="82.77" y="11.82" width="5.91" height="5.91" fill="#1b0003"/><rect x="82.77" y="5.91" width="5.91" height="5.91" fill="#1b0003"/><rect x="82.77" width="5.91" height="5.91" fill="#1b0003"/><rect x="76.86" y="94.59" width="5.91" height="5.91" fill="#1b0003"/><rect x="76.86" y="88.68" width="5.91" height="5.91" fill="#85a1c9"/><rect x="76.86" y="82.77" width="5.91" height="5.91" fill="#bedbed"/><rect x="76.86" y="76.86" width="5.91" height="5.91" fill="#bedbed"/><rect x="76.86" y="70.95" width="5.91" height="5.91" fill="#bedbed"/><rect x="76.86" y="65.03" width="5.91" height="5.91" fill="#85a1c9"/><rect x="76.86" y="59.12" width="5.91" height="5.91" fill="#fff"/><rect x="76.86" y="53.21" width="5.91" height="5.91" fill="#e3f7ff"/><rect x="76.86" y="47.3" width="5.91" height="5.91" fill="#e3f7ff"/><rect x="76.86" y="41.38" width="5.91" height="5.91" fill="#e3f7ff"/><rect x="76.86" y="35.47" width="5.91" height="5.91" fill="#e3f7ff"/><rect x="76.86" y="29.56" width="5.91" height="5.91" fill="#e3f7ff"/><rect x="76.86" y="23.65" width="5.91" height="5.91" fill="#e3f7ff"/><rect x="76.86" y="17.74" width="5.91" height="5.91" fill="#e3f7ff"/><rect x="76.86" y="11.82" width="5.91" height="5.91" fill="#1b0003"/><rect x="76.86" y="5.91" width="5.91" height="5.91" fill="#1b0003"/><rect x="76.86" width="5.91" height="5.91" fill="#1b0003"/><rect x="70.95" y="94.59" width="5.91" height="5.91" fill="#1b0003"/><rect x="70.95" y="88.68" width="5.91" height="5.91" fill="#85a1c9"/><rect x="70.95" y="82.77" width="5.91" height="5.91" fill="#bedbed"/><rect x="70.95" y="76.86" width="5.91" height="5.91" fill="#bedbed"/><rect x="70.95" y="70.95" width="5.91" height="5.91" fill="#bedbed"/><rect x="70.95" y="65.03" width="5.91" height="5.91" fill="#85a1c9"/><rect x="70.95" y="59.12" width="5.91" height="5.91" fill="#fff"/><rect x="70.95" y="53.21" width="5.91" height="5.91" fill="#e3f7ff"/><rect x="70.95" y="47.3" width="5.91" height="5.91" fill="#e3f7ff"/><rect x="70.95" y="41.38" width="5.91" height="5.91" fill="#e3f7ff"/><rect x="70.95" y="35.47" width="5.91" height="5.91" fill="#e3f7ff"/><rect x="70.95" y="29.56" width="5.91" height="5.91" fill="#e3f7ff"/><rect x="70.95" y="23.65" width="5.91" height="5.91" fill="#e3f7ff"/><rect x="70.95" y="17.74" width="5.91" height="5.91" fill="#e3f7ff"/><rect x="70.95" y="11.82" width="5.91" height="5.91" fill="#1b0003"/><rect x="70.95" y="5.91" width="5.91" height="5.91" fill="#1b0003"/><rect x="70.95" width="5.91" height="5.91" fill="#1b0003"/><rect x="65.03" y="94.59" width="5.91" height="5.91" fill="#1b0003"/><rect x="65.03" y="88.68" width="5.91" height="5.91" fill="#85a1c9"/><rect x="65.03" y="82.77" width="5.91" height="5.91" fill="#bedbed"/><rect x="65.03" y="76.86" width="5.91" height="5.91" fill="#bedbed"/><rect x="65.03" y="70.95" width="5.91" height="5.91" fill="#bedbed"/><rect x="65.03" y="65.03" width="5.91" height="5.91" fill="#85a1c9"/><rect x="65.03" y="59.12" width="5.91" height="5.91" fill="#fff"/><rect x="65.03" y="53.21" width="5.91" height="5.91" fill="#e3f7ff"/><rect x="65.03" y="47.3" width="5.91" height="5.91" fill="#e3f7ff"/><rect x="65.03" y="41.38" width="5.91" height="5.91" fill="#e3f7ff"/><rect x="65.03" y="35.47" width="5.91" height="5.91" fill="#e3f7ff"/><rect x="65.03" y="29.56" width="5.91" height="5.91" fill="#e3f7ff"/><rect x="65.03" y="23.65" width="5.91" height="5.91" fill="#e3f7ff"/><rect x="65.03" y="17.74" width="5.91" height="5.91" fill="#e3f7ff"/><rect x="65.03" y="11.82" width="5.91" height="5.91" fill="#1b0003"/><rect x="65.03" y="5.91" width="5.91" height="5.91" fill="#1b0003"/><rect x="65.03" width="5.91" height="5.91" fill="#1b0003"/><rect x="59.12" y="94.59" width="5.91" height="5.91" fill="#1b0003"/><rect x="59.12" y="88.68" width="5.91" height="5.91" fill="#85a1c9"/><rect x="59.12" y="82.77" width="5.91" height="5.91" fill="#bedbed"/><rect x="59.12" y="76.86" width="5.91" height="5.91" fill="#bedbed"/><rect x="59.12" y="70.95" width="5.91" height="5.91" fill="#bedbed"/><rect x="59.12" y="65.03" width="5.91" height="5.91" fill="#85a1c9"/><rect x="59.12" y="59.12" width="5.91" height="5.91" fill="#fff"/><rect x="59.12" y="53.21" width="5.91" height="5.91" fill="#e3f7ff"/><rect x="59.12" y="47.3" width="5.91" height="5.91" fill="#e3f7ff"/><rect x="59.12" y="41.38" width="5.91" height="5.91" fill="#e3f7ff"/><rect x="59.12" y="35.47" width="5.91" height="5.91" fill="#e3f7ff"/><rect x="59.12" y="29.56" width="5.91" height="5.91" fill="#e3f7ff"/><rect x="59.12" y="23.65" width="5.91" height="5.91" fill="#e3f7ff"/><rect x="59.12" y="17.74" width="5.91" height="5.91" fill="#e3f7ff"/><rect x="59.12" y="11.82" width="5.91" height="5.91" fill="#1b0003"/><rect x="59.12" y="5.91" width="5.91" height="5.91" fill="#1b0003"/><rect x="59.12" width="5.91" height="5.91" fill="#1b0003"/><rect x="53.21" y="100.51" width="5.91" height="5.91" fill="#1b0003"/><rect x="53.21" y="94.59" width="5.91" height="5.91" fill="#1b0003"/><rect x="53.21" y="88.68" width="5.91" height="5.91" fill="#85a1c9"/><rect x="53.21" y="82.77" width="5.91" height="5.91" fill="#bedbed"/><rect x="53.21" y="76.86" width="5.91" height="5.91" fill="#bedbed"/><rect x="53.21" y="70.95" width="5.91" height="5.91" fill="#bedbed"/><rect x="53.21" y="65.03" width="5.91" height="5.91" fill="#85a1c9"/><rect x="53.21" y="59.12" width="5.91" height="5.91" fill="#fff"/><rect x="53.21" y="53.21" width="5.91" height="5.91" fill="#fff"/><rect x="53.21" y="47.3" width="5.91" height="5.91" fill="#e3f7ff"/><rect x="53.21" y="41.38" width="5.91" height="5.91" fill="#e3f7ff"/><rect x="53.21" y="35.47" width="5.91" height="5.91" fill="#e3f7ff"/><rect x="53.21" y="29.56" width="5.91" height="5.91" fill="#e3f7ff"/><rect x="53.21" y="23.65" width="5.91" height="5.91" fill="#e3f7ff"/><rect x="53.21" y="17.74" width="5.91" height="5.91" fill="#e3f7ff"/><rect x="53.21" y="11.82" width="5.91" height="5.91" fill="#1b0003"/><rect x="53.21" y="5.91" width="5.91" height="5.91" fill="#1b0003"/><rect x="53.21" width="5.91" height="5.91" fill="#1b0003"/><rect x="47.3" y="106.42" width="5.91" height="5.91" fill="#1b0003"/><rect x="47.3" y="100.51" width="5.91" height="5.91" fill="#85a1c9"/><rect x="47.3" y="94.59" width="5.91" height="5.91" fill="#223c5b"/><rect x="47.3" y="88.68" width="5.91" height="5.91" fill="#85a1c9"/><rect x="47.3" y="82.77" width="5.91" height="5.91" fill="#85a1c9"/><rect x="47.3" y="76.86" width="5.91" height="5.91" fill="#bedbed"/><rect x="47.3" y="70.95" width="5.91" height="5.91" fill="#bedbed"/><rect x="47.3" y="65.03" width="5.91" height="5.91" fill="#bedbed"/><rect x="47.3" y="59.12" width="5.91" height="5.91" fill="#85a1c9"/><rect x="47.3" y="53.21" width="5.91" height="5.91" fill="#fff"/><rect x="47.3" y="47.3" width="5.91" height="5.91" fill="#e3f7ff"/><rect x="47.3" y="41.38" width="5.91" height="5.91" fill="#e3f7ff"/><rect x="47.3" y="35.47" width="5.91" height="5.91" fill="#e3f7ff"/><rect x="47.3" y="29.56" width="5.91" height="5.91" fill="#e3f7ff"/><rect x="47.3" y="23.65" width="5.91" height="5.91" fill="#e3f7ff"/><rect x="47.3" y="17.74" width="5.91" height="5.91" fill="#e3f7ff"/><rect x="47.3" y="11.82" width="5.91" height="5.91" fill="#e3f7ff"/><rect x="47.3" y="5.91" width="5.91" height="5.91" fill="#1b0003"/><rect x="47.3" width="5.91" height="5.91" fill="#1b0003"/><rect x="41.38" y="112.33" width="5.91" height="5.91" fill="#1b0003"/><rect x="41.38" y="106.42" width="5.91" height="5.91" fill="#85a1c9"/><rect x="41.38" y="100.51" width="5.91" height="5.91" fill="#85a1c9"/><rect x="41.38" y="94.59" width="5.91" height="5.91" fill="#223c5b"/><rect x="41.38" y="88.68" width="5.91" height="5.91" fill="#85a1c9"/><rect x="41.38" y="82.77" width="5.91" height="5.91" fill="#85a1c9"/><rect x="41.38" y="76.86" width="5.91" height="5.91" fill="#bedbed"/><rect x="41.38" y="70.95" width="5.91" height="5.91" fill="#bedbed"/><rect x="41.38" y="65.03" width="5.91" height="5.91" fill="#bedbed"/><rect x="41.38" y="59.12" width="5.91" height="5.91" fill="#85a1c9"/><rect x="41.38" y="53.21" width="5.91" height="5.91" fill="#fff"/><rect x="41.38" y="47.3" width="5.91" height="5.91" fill="#e3f7ff"/><rect x="41.38" y="41.38" width="5.91" height="5.91" fill="#e3f7ff"/><rect x="41.38" y="35.47" width="5.91" height="5.91" fill="#e3f7ff"/><rect x="41.38" y="29.56" width="5.91" height="5.91" fill="#e3f7ff"/><rect x="41.38" y="23.65" width="5.91" height="5.91" fill="#e3f7ff"/><rect x="41.38" y="17.74" width="5.91" height="5.91" fill="#e3f7ff"/><rect x="41.38" y="11.82" width="5.91" height="5.91" fill="#e3f7ff"/><rect x="41.38" y="5.91" width="5.91" height="5.91" fill="#e3f7ff"/><rect x="41.38" width="5.91" height="5.91" fill="#1b0003"/><rect x="35.47" y="118.24" width="5.91" height="5.91" fill="#1b0003"/><rect x="35.47" y="112.33" width="5.91" height="5.91" fill="#85a1c9"/><rect x="35.47" y="106.42" width="5.91" height="5.91" fill="#85a1c9"/><rect x="35.47" y="100.51" width="5.91" height="5.91" fill="#bedbed"/><rect x="35.47" y="94.59" width="5.91" height="5.91" fill="#223c5b"/><rect x="35.47" y="88.68" width="5.91" height="5.91" fill="#223c5b"/><rect x="35.47" y="82.77" width="5.91" height="5.91" fill="#1b0003"/><rect x="35.47" y="76.86" width="5.91" height="5.91" fill="#85a1c9"/><rect x="35.47" y="70.95" width="5.91" height="5.91" fill="#bedbed"/><rect x="35.47" y="65.03" width="5.91" height="5.91" fill="#bedbed"/><rect x="35.47" y="59.12" width="5.91" height="5.91" fill="#85a1c9"/><rect x="35.47" y="53.21" width="5.91" height="5.91" fill="#bedbed"/><rect x="35.47" y="47.3" width="5.91" height="5.91" fill="#bedbed"/><rect x="35.47" y="41.38" width="5.91" height="5.91" fill="#bedbed"/><rect x="35.47" y="35.47" width="5.91" height="5.91" fill="#bedbed"/><rect x="35.47" y="29.56" width="5.91" height="5.91" fill="#bedbed"/><rect x="35.47" y="23.65" width="5.91" height="5.91" fill="#bedbed"/><rect x="35.47" y="17.74" width="5.91" height="5.91" fill="#e3f7ff"/><rect x="35.47" y="11.82" width="5.91" height="5.91" fill="#e3f7ff"/><rect x="35.47" y="5.91" width="5.91" height="5.91" fill="#e3f7ff"/><rect x="35.47" width="5.91" height="5.91" fill="#1b0003"/><rect x="29.56" y="112.33" width="5.91" height="5.91" fill="#1b0003"/><rect x="29.56" y="106.42" width="5.91" height="5.91" fill="#bedbed"/><rect x="29.56" y="100.51" width="5.91" height="5.91" fill="#bedbed"/><rect x="29.56" y="94.59" width="5.91" height="5.91" fill="#bedbed"/><rect x="29.56" y="88.68" width="5.91" height="5.91" fill="#1b0003"/><rect x="29.56" y="76.86" width="5.91" height="5.91" fill="#1b0003"/><rect x="29.56" y="70.95" width="5.91" height="5.91" fill="#bedbed"/><rect x="29.56" y="65.03" width="5.91" height="5.91" fill="#bedbed"/><rect x="29.56" y="59.12" width="5.91" height="5.91" fill="#bedbed"/><rect x="29.56" y="53.21" width="5.91" height="5.91" fill="#bedbed"/><rect x="29.56" y="47.3" width="5.91" height="5.91" fill="#bedbed"/><rect x="29.56" y="41.38" width="5.91" height="5.91" fill="#85a1c9"/><rect x="29.56" y="35.47" width="5.91" height="5.91" fill="#bedbed"/><rect x="29.56" y="29.56" width="5.91" height="5.91" fill="#e3f7ff"/><rect x="29.56" y="23.65" width="5.91" height="5.91" fill="#e3f7ff"/><rect x="29.56" y="17.74" width="5.91" height="5.91" fill="#e3f7ff"/><rect x="29.56" y="11.82" width="5.91" height="5.91" fill="#e3f7ff"/><rect x="29.56" y="5.91" width="5.91" height="5.91" fill="#e3f7ff"/><rect x="29.56" width="5.91" height="5.91" fill="#1b0003"/><rect x="23.65" y="106.42" width="5.91" height="5.91" fill="#1b0003"/><rect x="23.65" y="100.51" width="5.91" height="5.91" fill="#bedbed"/><rect x="23.65" y="94.59" width="5.91" height="5.91" fill="#1b0003"/><rect x="23.65" y="70.95" width="5.91" height="5.91" fill="#1b0003"/><rect x="23.65" y="65.03" width="5.91" height="5.91" fill="#1b0003"/><rect x="23.65" y="59.12" width="5.91" height="5.91" fill="#1b0003"/><rect x="23.65" y="53.21" width="5.91" height="5.91" fill="#1b0003"/><rect x="23.65" y="47.3" width="5.91" height="5.91" fill="#1b0003"/><rect x="23.65" y="41.38" width="5.91" height="5.91" fill="#85a1c9"/><rect x="23.65" y="35.47" width="5.91" height="5.91" fill="#e3f7ff"/><rect x="23.65" y="29.56" width="5.91" height="5.91" fill="#e3f7ff"/><rect x="23.65" y="23.65" width="5.91" height="5.91" fill="#e3f7ff"/><rect x="23.65" y="17.74" width="5.91" height="5.91" fill="#e3f7ff"/><rect x="23.65" y="11.82" width="5.91" height="5.91" fill="#fff"/><rect x="23.65" y="5.91" width="5.91" height="5.91" fill="#fff"/><rect x="23.65" width="5.91" height="5.91" fill="#1b0003"/><rect x="17.74" y="100.51" width="5.91" height="5.91" fill="#1b0003"/><rect x="17.74" y="47.3" width="5.91" height="5.91" fill="#1b0003"/><rect x="17.74" y="41.38" width="5.91" height="5.91" fill="#85a1c9"/><rect x="17.74" y="35.47" width="5.91" height="5.91" fill="#85a1c9"/><rect x="17.74" y="29.56" width="5.91" height="5.91" fill="#e3f7ff"/><rect x="17.74" y="23.65" width="5.91" height="5.91" fill="#e3f7ff"/><rect x="17.74" y="17.74" width="5.91" height="5.91" fill="#e3f7ff"/><rect x="17.74" y="11.82" width="5.91" height="5.91" fill="#fff"/><rect x="17.74" y="5.91" width="5.91" height="5.91" fill="#1b0003"/><rect x="11.82" y="41.38" width="5.91" height="5.91" fill="#1b0003"/><rect x="11.82" y="35.47" width="5.91" height="5.91" fill="#85a1c9"/><rect x="11.82" y="29.56" width="5.91" height="5.91" fill="#e3f7ff"/><rect x="11.82" y="23.65" width="5.91" height="5.91" fill="#e3f7ff"/><rect x="11.82" y="17.74" width="5.91" height="5.91" fill="#fff"/><rect x="11.82" y="11.82" width="5.91" height="5.91" fill="#fff"/><rect x="11.82" y="5.91" width="5.91" height="5.91" fill="#1b0003"/><rect x="5.91" y="41.38" width="5.91" height="5.91" fill="#1b0003"/><rect x="5.91" y="35.47" width="5.91" height="5.91" fill="#85a1c9"/><rect x="5.91" y="29.56" width="5.91" height="5.91" fill="#e3f7ff"/><rect x="5.91" y="23.65" width="5.91" height="5.91" fill="#e3f7ff"/><rect x="5.91" y="17.74" width="5.91" height="5.91" fill="#fff"/><rect x="5.91" y="11.82" width="5.91" height="5.91" fill="#1b0003"/><rect y="35.47" width="5.91" height="5.91" fill="#1b0003"/><rect y="29.56" width="5.91" height="5.91" fill="#1b0003"/><rect y="23.65" width="5.91" height="5.91" fill="#1b0003"/><rect y="17.74" width="5.91" height="5.91" fill="#1b0003"/></g></g></g></svg>