<svg xmlns="http://www.w3.org/2000/svg" width="133.71" height="129.25" viewBox="0 0 133.71 129.25"><g id="Layer_2" data-name="Layer 2"><g id="items"><g id="Bread"><rect x="129.26" y="40.11" width="4.46" height="4.46" fill="#1b0003"/><rect x="129.26" y="35.66" width="4.46" height="4.46" fill="#1b0003"/><rect x="129.26" y="31.2" width="4.46" height="4.46" fill="#1b0003"/><rect x="129.26" y="26.74" width="4.46" height="4.46" fill="#1b0003"/><rect x="129.26" y="22.28" width="4.46" height="4.46" fill="#1b0003"/><rect x="129.26" y="17.83" width="4.46" height="4.46" fill="#1b0003"/><rect x="129.26" y="13.37" width="4.46" height="4.46" fill="#1b0003"/><rect x="124.8" y="44.57" width="4.46" height="4.46" fill="#1b0003"/><rect x="124.8" y="40.11" width="4.46" height="4.46" fill="#a84a24"/><rect x="124.8" y="35.66" width="4.46" height="4.46" fill="#a84a24"/><rect x="124.8" y="31.2" width="4.46" height="4.46" fill="#a84a24"/><rect x="124.8" y="26.74" width="4.46" height="4.46" fill="#e86f3f"/><rect x="124.8" y="22.28" width="4.46" height="4.46" fill="#e86f3f"/><rect x="124.8" y="17.83" width="4.46" height="4.46" fill="#e86f3f"/><rect x="124.8" y="13.37" width="4.46" height="4.46" fill="#f2904e"/><rect x="124.8" y="8.91" width="4.46" height="4.46" fill="#1b0003"/><rect x="120.34" y="49.03" width="4.46" height="4.46" fill="#1b0003"/><rect x="120.34" y="44.57" width="4.46" height="4.46" fill="#a84a24"/><rect x="120.34" y="40.11" width="4.46" height="4.46" fill="#a84a24"/><rect x="120.34" y="35.66" width="4.46" height="4.46" fill="#a84a24"/><rect x="120.34" y="31.2" width="4.46" height="4.46" fill="#e86f3f"/><rect x="120.34" y="26.74" width="4.46" height="4.46" fill="#ef8741"/><rect x="120.34" y="22.28" width="4.46" height="4.46" fill="#f2904e"/><rect x="120.34" y="17.83" width="4.46" height="4.46" fill="#f2904e"/><rect x="120.34" y="13.37" width="4.46" height="4.46" fill="#f2904e"/><rect x="120.34" y="8.91" width="4.46" height="4.46" fill="#f2904e"/><rect x="120.34" y="4.46" width="4.46" height="4.46" fill="#1b0003"/><rect x="115.88" y="53.48" width="4.46" height="4.46" fill="#1b0003"/><rect x="115.88" y="49.03" width="4.46" height="4.46" fill="#a84a24"/><rect x="115.88" y="44.57" width="4.46" height="4.46" fill="#a84a24"/><rect x="115.88" y="40.11" width="4.46" height="4.46" fill="#a84a24"/><rect x="115.88" y="35.66" width="4.46" height="4.46" fill="#e86f3f"/><rect x="115.88" y="31.2" width="4.46" height="4.46" fill="#ef8741"/><rect x="115.88" y="26.74" width="4.46" height="4.46" fill="#ef8741"/><rect x="115.88" y="22.28" width="4.46" height="4.46" fill="#f2904e"/><rect x="115.88" y="17.83" width="4.46" height="4.46" fill="#f2904e"/><rect x="115.88" y="13.37" width="4.46" height="4.46" fill="#f2904e"/><rect x="115.88" y="8.91" width="4.46" height="4.46" fill="#f2904e"/><rect x="115.88" y="4.46" width="4.46" height="4.46" fill="#fa9c5c"/><rect x="115.88" width="4.46" height="4.46" fill="#1b0003"/><rect x="111.43" y="57.94" width="4.46" height="4.46" fill="#1b0003"/><rect x="111.43" y="53.48" width="4.46" height="4.46" fill="#a84a24"/><rect x="111.43" y="49.03" width="4.46" height="4.46" fill="#a84a24"/><rect x="111.43" y="44.57" width="4.46" height="4.46" fill="#a84a24"/><rect x="111.43" y="40.11" width="4.46" height="4.46" fill="#e86f3f"/><rect x="111.43" y="35.66" width="4.46" height="4.46" fill="#ef8741"/><rect x="111.43" y="31.2" width="4.46" height="4.46" fill="#f2904e"/><rect x="111.43" y="26.74" width="4.46" height="4.46" fill="#f2904e"/><rect x="111.43" y="22.28" width="4.46" height="4.46" fill="#f2904e"/><rect x="111.43" y="17.83" width="4.46" height="4.46" fill="#f2904e"/><rect x="111.43" y="13.37" width="4.46" height="4.46" fill="#fa9c5c"/><rect x="111.43" y="8.91" width="4.46" height="4.46" fill="#fa9c5c"/><rect x="111.43" y="4.46" width="4.46" height="4.46" fill="#fa9c5c"/><rect x="111.43" width="4.46" height="4.46" fill="#1b0003"/><rect x="106.97" y="62.4" width="4.46" height="4.46" fill="#1b0003"/><rect x="106.97" y="57.94" width="4.46" height="4.46" fill="#a84a24"/><rect x="106.97" y="53.48" width="4.46" height="4.46" fill="#a84a24"/><rect x="106.97" y="49.03" width="4.46" height="4.46" fill="#a84a24"/><rect x="106.97" y="44.57" width="4.46" height="4.46" fill="#e86f3f"/><rect x="106.97" y="40.11" width="4.46" height="4.46" fill="#ef8741"/><rect x="106.97" y="35.66" width="4.46" height="4.46" fill="#ef8741"/><rect x="106.97" y="31.2" width="4.46" height="4.46" fill="#f2904e"/><rect x="106.97" y="26.74" width="4.46" height="4.46" fill="#fa9c5c"/><rect x="106.97" y="22.28" width="4.46" height="4.46" fill="#fa9c5c"/><rect x="106.97" y="17.83" width="4.46" height="4.46" fill="#fa9c5c"/><rect x="106.97" y="13.37" width="4.46" height="4.46" fill="#fa9c5c"/><rect x="106.97" y="8.91" width="4.46" height="4.46" fill="#fa9c5c"/><rect x="106.97" y="4.46" width="4.46" height="4.46" fill="#fa9c5c"/><rect x="106.97" width="4.46" height="4.46" fill="#1b0003"/><rect x="102.51" y="66.86" width="4.46" height="4.46" fill="#1b0003"/><rect x="102.51" y="62.4" width="4.46" height="4.46" fill="#a84a24"/><rect x="102.51" y="57.94" width="4.46" height="4.46" fill="#a84a24"/><rect x="102.51" y="53.48" width="4.46" height="4.46" fill="#a84a24"/><rect x="102.51" y="49.03" width="4.46" height="4.46" fill="#e86f3f"/><rect x="102.51" y="44.57" width="4.46" height="4.46" fill="#ef8741"/><rect x="102.51" y="40.11" width="4.46" height="4.46" fill="#ef8741"/><rect x="102.51" y="35.66" width="4.46" height="4.46" fill="#f2904e"/><rect x="102.51" y="31.2" width="4.46" height="4.46" fill="#fa9c5c"/><rect x="102.51" y="26.74" width="4.46" height="4.46" fill="#fa9c5c"/><rect x="102.51" y="22.28" width="4.46" height="4.46" fill="#fa9c5c"/><rect x="102.51" y="17.83" width="4.46" height="4.46" fill="#fa9c5c"/><rect x="102.51" y="13.37" width="4.46" height="4.46" fill="#fa9c5c"/><rect x="102.51" y="8.91" width="4.46" height="4.46" fill="#fa9c5c"/><rect x="102.51" y="4.46" width="4.46" height="4.46" fill="#fa9c5c"/><rect x="102.51" width="4.46" height="4.46" fill="#1b0003"/><rect x="98.06" y="71.31" width="4.46" height="4.46" fill="#1b0003"/><rect x="98.06" y="66.86" width="4.46" height="4.46" fill="#a84a24"/><rect x="98.06" y="62.4" width="4.46" height="4.46" fill="#a84a24"/><rect x="98.06" y="57.94" width="4.46" height="4.46" fill="#a84a24"/><rect x="98.06" y="53.48" width="4.46" height="4.46" fill="#e86f3f"/><rect x="98.06" y="49.03" width="4.46" height="4.46" fill="#ef8741"/><rect x="98.06" y="44.57" width="4.46" height="4.46" fill="#ef8741"/><rect x="98.06" y="40.11" width="4.46" height="4.46" fill="#f2904e"/><rect x="98.06" y="35.66" width="4.46" height="4.46" fill="#f2904e"/><rect x="98.06" y="31.2" width="4.46" height="4.46" fill="#fa9c5c"/><rect x="98.06" y="26.74" width="4.46" height="4.46" fill="#fa9c5c"/><rect x="98.06" y="22.28" width="4.46" height="4.46" fill="#fa9c5c"/><rect x="98.06" y="17.83" width="4.46" height="4.46" fill="#fa9c5c"/><rect x="98.06" y="13.37" width="4.46" height="4.46" fill="#fa9c5c"/><rect x="98.06" y="8.91" width="4.46" height="4.46" fill="#fa9c5c"/><rect x="98.06" y="4.46" width="4.46" height="4.46" fill="#fa9c5c"/><rect x="98.06" width="4.46" height="4.46" fill="#1b0003"/><rect x="93.6" y="75.77" width="4.46" height="4.46" fill="#1b0003"/><rect x="93.6" y="71.31" width="4.46" height="4.46" fill="#a84a24"/><rect x="93.6" y="66.86" width="4.46" height="4.46" fill="#a84a24"/><rect x="93.6" y="62.4" width="4.46" height="4.46" fill="#a84a24"/><rect x="93.6" y="57.94" width="4.46" height="4.46" fill="#e86f3f"/><rect x="93.6" y="53.48" width="4.46" height="4.46" fill="#ef8741"/><rect x="93.6" y="49.03" width="4.46" height="4.46" fill="#ef8741"/><rect x="93.6" y="44.57" width="4.46" height="4.46" fill="#f2904e"/><rect x="93.6" y="40.11" width="4.46" height="4.46" fill="#f2904e"/><rect x="93.6" y="35.66" width="4.46" height="4.46" fill="#fa9c5c"/><rect x="93.6" y="31.2" width="4.46" height="4.46" fill="#fa9c5c"/><rect x="93.6" y="26.74" width="4.46" height="4.46" fill="#fa9c5c"/><rect x="93.6" y="22.28" width="4.46" height="4.46" fill="#a84a24"/><rect x="93.6" y="17.83" width="4.46" height="4.46" fill="#e86f3f"/><rect x="93.6" y="13.37" width="4.46" height="4.46" fill="#fa9c5c"/><rect x="93.6" y="8.91" width="4.46" height="4.46" fill="#fa9c5c"/><rect x="93.6" y="4.46" width="4.46" height="4.46" fill="#fa9c5c"/><rect x="93.6" width="4.46" height="4.46" fill="#1b0003"/><rect x="89.14" y="80.23" width="4.46" height="4.46" fill="#1b0003"/><rect x="89.14" y="75.77" width="4.46" height="4.46" fill="#a84a24"/><rect x="89.14" y="71.31" width="4.46" height="4.46" fill="#a84a24"/><rect x="89.14" y="66.86" width="4.46" height="4.46" fill="#a84a24"/><rect x="89.14" y="62.4" width="4.46" height="4.46" fill="#e86f3f"/><rect x="89.14" y="57.94" width="4.46" height="4.46" fill="#ef8741"/><rect x="89.14" y="53.48" width="4.46" height="4.46" fill="#ef8741"/><rect x="89.14" y="49.03" width="4.46" height="4.46" fill="#f2904e"/><rect x="89.14" y="44.57" width="4.46" height="4.46" fill="#f2904e"/><rect x="89.14" y="40.11" width="4.46" height="4.46" fill="#fa9c5c"/><rect x="89.14" y="35.66" width="4.46" height="4.46" fill="#fa9c5c"/><rect x="89.14" y="31.2" width="4.46" height="4.46" fill="#fa9c5c"/><rect x="89.14" y="26.74" width="4.46" height="4.46" fill="#ef8741"/><rect x="89.14" y="22.28" width="4.46" height="4.46" fill="#ea8744"/><rect x="89.14" y="17.83" width="4.46" height="4.46" fill="#a84a24"/><rect x="89.14" y="13.37" width="4.46" height="4.46" fill="#fa9c5c"/><rect x="89.14" y="8.91" width="4.46" height="4.46" fill="#fa9c5c"/><rect x="89.14" y="4.46" width="4.46" height="4.46" fill="#fa9c5c"/><rect x="89.14" width="4.46" height="4.46" fill="#1b0003"/><rect x="84.68" y="84.68" width="4.46" height="4.46" fill="#1b0003"/><rect x="84.68" y="80.23" width="4.46" height="4.46" fill="#a84a24"/><rect x="84.68" y="75.77" width="4.46" height="4.46" fill="#a84a24"/><rect x="84.68" y="71.31" width="4.46" height="4.46" fill="#a84a24"/><rect x="84.68" y="66.86" width="4.46" height="4.46" fill="#e86f3f"/><rect x="84.68" y="62.4" width="4.46" height="4.46" fill="#ef8741"/><rect x="84.68" y="57.94" width="4.46" height="4.46" fill="#ef8741"/><rect x="84.68" y="53.48" width="4.46" height="4.46" fill="#f2904e"/><rect x="84.68" y="49.03" width="4.46" height="4.46" fill="#fa9c5c"/><rect x="84.68" y="44.57" width="4.46" height="4.46" fill="#fa9c5c"/><rect x="84.68" y="40.11" width="4.46" height="4.46" fill="#fa9c5c"/><rect x="84.68" y="35.66" width="4.46" height="4.46" fill="#fa9c5c"/><rect x="84.68" y="31.2" width="4.46" height="4.46" fill="#fa9c5c"/><rect x="84.68" y="26.74" width="4.46" height="4.46" fill="#fa9c5c"/><rect x="84.68" y="22.28" width="4.46" height="4.46" fill="#fa9c5c"/><rect x="84.68" y="17.83" width="4.46" height="4.46" fill="#e86f3f"/><rect x="84.68" y="13.37" width="4.46" height="4.46" fill="#a84a24"/><rect x="84.68" y="8.91" width="4.46" height="4.46" fill="#fa9c5c"/><rect x="84.68" y="4.46" width="4.46" height="4.46" fill="#1b0003"/><rect x="80.23" y="89.14" width="4.46" height="4.46" fill="#1b0003"/><rect x="80.23" y="84.68" width="4.46" height="4.46" fill="#a84a24"/><rect x="80.23" y="80.23" width="4.46" height="4.46" fill="#a84a24"/><rect x="80.23" y="75.77" width="4.46" height="4.46" fill="#e86f3f"/><rect x="80.23" y="71.31" width="4.46" height="4.46" fill="#ef8741"/><rect x="80.23" y="66.86" width="4.46" height="4.46" fill="#ef8741"/><rect x="80.23" y="62.4" width="4.46" height="4.46" fill="#f2904e"/><rect x="80.23" y="57.94" width="4.46" height="4.46" fill="#f2904e"/><rect x="80.23" y="53.48" width="4.46" height="4.46" fill="#f2904e"/><rect x="80.23" y="49.03" width="4.46" height="4.46" fill="#fa9c5c"/><rect x="80.23" y="44.57" width="4.46" height="4.46" fill="#fa9c5c"/><rect x="80.23" y="40.11" width="4.46" height="4.46" fill="#fa9c5c"/><rect x="80.23" y="35.66" width="4.46" height="4.46" fill="#fa9c5c"/><rect x="80.23" y="31.2" width="4.46" height="4.46" fill="#fa9c5c"/><rect x="80.23" y="26.74" width="4.46" height="4.46" fill="#fa9c5c"/><rect x="80.23" y="22.28" width="4.46" height="4.46" fill="#fa9c5c"/><rect x="80.23" y="17.83" width="4.46" height="4.46" fill="#ef8741"/><rect x="80.23" y="13.37" width="4.46" height="4.46" fill="#a84a24"/><rect x="80.23" y="8.91" width="4.46" height="4.46" fill="#fa9c5c"/><rect x="80.23" y="4.46" width="4.46" height="4.46" fill="#1b0003"/><rect x="75.77" y="93.6" width="4.46" height="4.46" fill="#1b0003"/><rect x="75.77" y="89.14" width="4.46" height="4.46" fill="#a84a24"/><rect x="75.77" y="84.68" width="4.46" height="4.46" fill="#a84a24"/><rect x="75.77" y="80.23" width="4.46" height="4.46" fill="#e86f3f"/><rect x="75.77" y="75.77" width="4.46" height="4.46" fill="#ef8741"/><rect x="75.77" y="71.31" width="4.46" height="4.46" fill="#ef8741"/><rect x="75.77" y="66.86" width="4.46" height="4.46" fill="#f2904e"/><rect x="75.77" y="62.4" width="4.46" height="4.46" fill="#f2904e"/><rect x="75.77" y="57.94" width="4.46" height="4.46" fill="#fa9c5c"/><rect x="75.77" y="53.48" width="4.46" height="4.46" fill="#fa9c5c"/><rect x="75.77" y="49.03" width="4.46" height="4.46" fill="#fa9c5c"/><rect x="75.77" y="44.57" width="4.46" height="4.46" fill="#fa9c5c"/><rect x="75.77" y="40.11" width="4.46" height="4.46" fill="#ef8741"/><rect x="75.77" y="35.66" width="4.46" height="4.46" fill="#a84a24"/><rect x="75.77" y="31.2" width="4.46" height="4.46" fill="#fa9c5c"/><rect x="75.77" y="26.74" width="4.46" height="4.46" fill="#fa9c5c"/><rect x="75.77" y="22.28" width="4.46" height="4.46" fill="#fa9c5c"/><rect x="75.77" y="17.83" width="4.46" height="4.46" fill="#ef8741"/><rect x="75.77" y="13.37" width="4.46" height="4.46" fill="#a84a24"/><rect x="75.77" y="8.91" width="4.46" height="4.46" fill="#1b0003"/><rect x="71.31" y="98.06" width="4.46" height="4.46" fill="#1b0003"/><rect x="71.31" y="93.6" width="4.46" height="4.46" fill="#a84a24"/><rect x="71.31" y="89.14" width="4.46" height="4.46" fill="#a84a24"/><rect x="71.31" y="84.68" width="4.46" height="4.46" fill="#e86f3f"/><rect x="71.31" y="80.23" width="4.46" height="4.46" fill="#f2904e"/><rect x="71.31" y="75.77" width="4.46" height="4.46" fill="#f2904e"/><rect x="71.31" y="71.31" width="4.46" height="4.46" fill="#f2904e"/><rect x="71.31" y="66.86" width="4.46" height="4.46" fill="#fa9c5c"/><rect x="71.31" y="62.4" width="4.46" height="4.46" fill="#fa9c5c"/><rect x="71.31" y="57.94" width="4.46" height="4.46" fill="#fa9c5c"/><rect x="71.31" y="53.48" width="4.46" height="4.46" fill="#fa9c5c"/><rect x="71.31" y="49.03" width="4.46" height="4.46" fill="#fa9c5c"/><rect x="71.31" y="44.57" width="4.46" height="4.46" fill="#fa9c5c"/><rect x="71.31" y="40.11" width="4.46" height="4.46" fill="#e86f3f"/><rect x="71.31" y="35.66" width="4.46" height="4.46" fill="#e86f3f"/><rect x="71.31" y="31.2" width="4.46" height="4.46" fill="#a84a24"/><rect x="71.31" y="26.74" width="4.46" height="4.46" fill="#fa9c5c"/><rect x="71.31" y="22.28" width="4.46" height="4.46" fill="#fa9c5c"/><rect x="71.31" y="17.83" width="4.46" height="4.46" fill="#ef8741"/><rect x="71.31" y="13.37" width="4.46" height="4.46" fill="#1b0003"/><rect x="66.86" y="102.51" width="4.46" height="4.46" fill="#1b0003"/><rect x="66.86" y="98.06" width="4.46" height="4.46" fill="#a84a24"/><rect x="66.86" y="93.6" width="4.46" height="4.46" fill="#a84a24"/><rect x="66.86" y="89.14" width="4.46" height="4.46" fill="#e86f3f"/><rect x="66.86" y="84.68" width="4.46" height="4.46" fill="#f2904e"/><rect x="66.86" y="80.23" width="4.46" height="4.46" fill="#f2904e"/><rect x="66.86" y="75.77" width="4.46" height="4.46" fill="#f2904e"/><rect x="66.86" y="71.31" width="4.46" height="4.46" fill="#fa9c5c"/><rect x="66.86" y="66.86" width="4.46" height="4.46" fill="#fa9c5c"/><rect x="66.86" y="62.4" width="4.46" height="4.46" fill="#fa9c5c"/><rect x="66.86" y="57.94" width="4.46" height="4.46" fill="#fa9c5c"/><rect x="66.86" y="53.48" width="4.46" height="4.46" fill="#fa9c5c"/><rect x="66.86" y="49.03" width="4.46" height="4.46" fill="#fa9c5c"/><rect x="66.86" y="44.57" width="4.46" height="4.46" fill="#fa9c5c"/><rect x="66.86" y="40.11" width="4.46" height="4.46" fill="#ef8741"/><rect x="66.86" y="35.66" width="4.46" height="4.46" fill="#e86f3f"/><rect x="66.86" y="31.2" width="4.46" height="4.46" fill="#a84a24"/><rect x="66.86" y="26.74" width="4.46" height="4.46" fill="#a84a24"/><rect x="66.86" y="22.28" width="4.46" height="4.46" fill="#fa9c5c"/><rect x="66.86" y="17.83" width="4.46" height="4.46" fill="#1b0003"/><rect x="62.4" y="106.97" width="4.46" height="4.46" fill="#1b0003"/><rect x="62.4" y="102.51" width="4.46" height="4.46" fill="#a84a24"/><rect x="62.4" y="98.06" width="4.46" height="4.46" fill="#a84a24"/><rect x="62.4" y="93.6" width="4.46" height="4.46" fill="#a84a24"/><rect x="62.4" y="89.14" width="4.46" height="4.46" fill="#ef8741"/><rect x="62.4" y="84.68" width="4.46" height="4.46" fill="#f2904e"/><rect x="62.4" y="80.23" width="4.46" height="4.46" fill="#f2904e"/><rect x="62.4" y="75.77" width="4.46" height="4.46" fill="#fa9c5c"/><rect x="62.4" y="71.31" width="4.46" height="4.46" fill="#fa9c5c"/><rect x="62.4" y="66.86" width="4.46" height="4.46" fill="#fa9c5c"/><rect x="62.4" y="62.4" width="4.46" height="4.46" fill="#fa9c5c"/><rect x="62.4" y="57.94" width="4.46" height="4.46" fill="#a84a24"/><rect x="62.4" y="53.48" width="4.46" height="4.46" fill="#fa9c5c"/><rect x="62.4" y="49.03" width="4.46" height="4.46" fill="#fa9c5c"/><rect x="62.4" y="44.57" width="4.46" height="4.46" fill="#fa9c5c"/><rect x="62.4" y="40.11" width="4.46" height="4.46" fill="#fa9c5c"/><rect x="62.4" y="35.66" width="4.46" height="4.46" fill="#e86f3f"/><rect x="62.4" y="31.2" width="4.46" height="4.46" fill="#e86f3f"/><rect x="62.4" y="26.74" width="4.46" height="4.46" fill="#a84a24"/><rect x="62.4" y="22.28" width="4.46" height="4.46" fill="#1b0003"/><rect x="57.94" y="111.43" width="4.46" height="4.46" fill="#1b0003"/><rect x="57.94" y="106.97" width="4.46" height="4.46" fill="#a84a24"/><rect x="57.94" y="102.51" width="4.46" height="4.46" fill="#a84a24"/><rect x="57.94" y="98.06" width="4.46" height="4.46" fill="#a84a24"/><rect x="57.94" y="93.6" width="4.46" height="4.46" fill="#ef8741"/><rect x="57.94" y="89.14" width="4.46" height="4.46" fill="#ef8741"/><rect x="57.94" y="84.68" width="4.46" height="4.46" fill="#f2904e"/><rect x="57.94" y="80.23" width="4.46" height="4.46" fill="#fa9c5c"/><rect x="57.94" y="75.77" width="4.46" height="4.46" fill="#fa9c5c"/><rect x="57.94" y="71.31" width="4.46" height="4.46" fill="#fa9c5c"/><rect x="57.94" y="66.86" width="4.46" height="4.46" fill="#fa9c5c"/><rect x="57.94" y="62.4" width="4.46" height="4.46" fill="#fa9c5c"/><rect x="57.94" y="57.94" width="4.46" height="4.46" fill="#e86f3f"/><rect x="57.94" y="53.48" width="4.46" height="4.46" fill="#a84a24"/><rect x="57.94" y="49.03" width="4.46" height="4.46" fill="#fa9c5c"/><rect x="57.94" y="44.57" width="4.46" height="4.46" fill="#fa9c5c"/><rect x="57.94" y="40.11" width="4.46" height="4.46" fill="#fa9c5c"/><rect x="57.94" y="35.66" width="4.46" height="4.46" fill="#fa9c5c"/><rect x="57.94" y="31.2" width="4.46" height="4.46" fill="#ef8741"/><rect x="57.94" y="26.74" width="4.46" height="4.46" fill="#1b0003"/><rect x="53.49" y="115.88" width="4.46" height="4.46" fill="#1b0003"/><rect x="53.49" y="111.43" width="4.46" height="4.46" fill="#a84a24"/><rect x="53.49" y="106.97" width="4.46" height="4.46" fill="#a84a24"/><rect x="53.49" y="102.51" width="4.46" height="4.46" fill="#a84a24"/><rect x="53.49" y="98.06" width="4.46" height="4.46" fill="#e86f3f"/><rect x="53.49" y="93.6" width="4.46" height="4.46" fill="#ef8741"/><rect x="53.49" y="89.14" width="4.46" height="4.46" fill="#f2904e"/><rect x="53.49" y="84.68" width="4.46" height="4.46" fill="#f2904e"/><rect x="53.49" y="80.23" width="4.46" height="4.46" fill="#fa9c5c"/><rect x="53.49" y="75.77" width="4.46" height="4.46" fill="#fa9c5c"/><rect x="53.49" y="71.31" width="4.46" height="4.46" fill="#fa9c5c"/><rect x="53.49" y="66.86" width="4.46" height="4.46" fill="#fa9c5c"/><rect x="53.49" y="62.4" width="4.46" height="4.46" fill="#fa9c5c"/><rect x="53.49" y="57.94" width="4.46" height="4.46" fill="#ef8741"/><rect x="53.49" y="53.48" width="4.46" height="4.46" fill="#e86f3f"/><rect x="53.49" y="49.03" width="4.46" height="4.46" fill="#a84a24"/><rect x="53.49" y="44.57" width="4.46" height="4.46" fill="#fa9c5c"/><rect x="53.49" y="40.11" width="4.46" height="4.46" fill="#fa9c5c"/><rect x="53.49" y="35.66" width="4.46" height="4.46" fill="#fa9c5c"/><rect x="53.49" y="31.2" width="4.46" height="4.46" fill="#1b0003"/><rect x="49.03" y="120.34" width="4.46" height="4.46" fill="#1b0003"/><rect x="49.03" y="115.88" width="4.46" height="4.46" fill="#a84a24"/><rect x="49.03" y="111.43" width="4.46" height="4.46" fill="#a84a24"/><rect x="49.03" y="106.97" width="4.46" height="4.46" fill="#a84a24"/><rect x="49.03" y="102.51" width="4.46" height="4.46" fill="#e86f3f"/><rect x="49.03" y="98.06" width="4.46" height="4.46" fill="#ef8741"/><rect x="49.03" y="93.6" width="4.46" height="4.46" fill="#f2904e"/><rect x="49.03" y="89.14" width="4.46" height="4.46" fill="#f2904e"/><rect x="49.03" y="84.68" width="4.46" height="4.46" fill="#fa9c5c"/><rect x="49.03" y="80.23" width="4.46" height="4.46" fill="#fa9c5c"/><rect x="49.03" y="75.77" width="4.46" height="4.46" fill="#fa9c5c"/><rect x="49.03" y="71.31" width="4.46" height="4.46" fill="#fa9c5c"/><rect x="49.03" y="66.86" width="4.46" height="4.46" fill="#fa9c5c"/><rect x="49.03" y="62.4" width="4.46" height="4.46" fill="#fa9c5c"/><rect x="49.03" y="57.94" width="4.46" height="4.46" fill="#ef8741"/><rect x="49.03" y="53.48" width="4.46" height="4.46" fill="#e86f3f"/><rect x="49.03" y="49.03" width="4.46" height="4.46" fill="#e86f3f"/><rect x="49.03" y="44.57" width="4.46" height="4.46" fill="#a84a24"/><rect x="49.03" y="40.11" width="4.46" height="4.46" fill="#fa9c5c"/><rect x="49.03" y="35.66" width="4.46" height="4.46" fill="#1b0003"/><rect x="44.57" y="120.34" width="4.46" height="4.46" fill="#1b0003"/><rect x="44.57" y="115.88" width="4.46" height="4.46" fill="#a84a24"/><rect x="44.57" y="111.43" width="4.46" height="4.46" fill="#a84a24"/><rect x="44.57" y="106.97" width="4.46" height="4.46" fill="#e86f3f"/><rect x="44.57" y="102.51" width="4.46" height="4.46" fill="#ef8741"/><rect x="44.57" y="98.06" width="4.46" height="4.46" fill="#f2904e"/><rect x="44.57" y="93.6" width="4.46" height="4.46" fill="#f2904e"/><rect x="44.57" y="89.14" width="4.46" height="4.46" fill="#fa9c5c"/><rect x="44.57" y="84.68" width="4.46" height="4.46" fill="#fa9c5c"/><rect x="44.57" y="80.23" width="4.46" height="4.46" fill="#fa9c5c"/><rect x="44.57" y="75.77" width="4.46" height="4.46" fill="#fa9c5c"/><rect x="44.57" y="71.31" width="4.46" height="4.46" fill="#fa9c5c"/><rect x="44.57" y="66.86" width="4.46" height="4.46" fill="#fa9c5c"/><rect x="44.57" y="62.4" width="4.46" height="4.46" fill="#fa9c5c"/><rect x="44.57" y="57.94" width="4.46" height="4.46" fill="#fa9c5c"/><rect x="44.57" y="53.48" width="4.46" height="4.46" fill="#ef8741"/><rect x="44.57" y="49.03" width="4.46" height="4.46" fill="#e86f3f"/><rect x="44.57" y="44.57" width="4.46" height="4.46" fill="#a84a24"/><rect x="44.57" y="40.11" width="4.46" height="4.46" fill="#1b0003"/><rect x="40.11" y="124.8" width="4.46" height="4.46" fill="#1b0003"/><rect x="40.11" y="120.34" width="4.46" height="4.46" fill="#a84a24"/><rect x="40.11" y="115.88" width="4.46" height="4.46" fill="#a84a24"/><rect x="40.11" y="111.43" width="4.46" height="4.46" fill="#a84a24"/><rect x="40.11" y="106.97" width="4.46" height="4.46" fill="#ef8741"/><rect x="40.11" y="102.51" width="4.46" height="4.46" fill="#f2904e"/><rect x="40.11" y="98.06" width="4.46" height="4.46" fill="#f2904e"/><rect x="40.11" y="93.6" width="4.46" height="4.46" fill="#fa9c5c"/><rect x="40.11" y="89.14" width="4.46" height="4.46" fill="#fa9c5c"/><rect x="40.11" y="84.68" width="4.46" height="4.46" fill="#fa9c5c"/><rect x="40.11" y="80.23" width="4.46" height="4.46" fill="#ef8741"/><rect x="40.11" y="75.77" width="4.46" height="4.46" fill="#a84a24"/><rect x="40.11" y="71.31" width="4.46" height="4.46" fill="#fa9c5c"/><rect x="40.11" y="66.86" width="4.46" height="4.46" fill="#fa9c5c"/><rect x="40.11" y="62.4" width="4.46" height="4.46" fill="#fa9c5c"/><rect x="40.11" y="57.94" width="4.46" height="4.46" fill="#fa9c5c"/><rect x="40.11" y="53.48" width="4.46" height="4.46" fill="#fa9c5c"/><rect x="40.11" y="49.03" width="4.46" height="4.46" fill="#ef8741"/><rect x="40.11" y="44.57" width="4.46" height="4.46" fill="#1b0003"/><rect x="35.66" y="124.8" width="4.46" height="4.46" fill="#1b0003"/><rect x="35.66" y="120.34" width="4.46" height="4.46" fill="#a84a24"/><rect x="35.66" y="115.88" width="4.46" height="4.46" fill="#a84a24"/><rect x="35.66" y="111.43" width="4.46" height="4.46" fill="#e86f3f"/><rect x="35.66" y="106.97" width="4.46" height="4.46" fill="#ef8741"/><rect x="35.66" y="102.51" width="4.46" height="4.46" fill="#f2904e"/><rect x="35.66" y="98.06" width="4.46" height="4.46" fill="#fa9c5c"/><rect x="35.66" y="93.6" width="4.46" height="4.46" fill="#fa9c5c"/><rect x="35.66" y="89.14" width="4.46" height="4.46" fill="#fa9c5c"/><rect x="35.66" y="84.68" width="4.46" height="4.46" fill="#fa9c5c"/><rect x="35.66" y="80.23" width="4.46" height="4.46" fill="#e86f3f"/><rect x="35.66" y="75.77" width="4.46" height="4.46" fill="#e86f3f"/><rect x="35.66" y="71.31" width="4.46" height="4.46" fill="#a84a24"/><rect x="35.66" y="66.86" width="4.46" height="4.46" fill="#fa9c5c"/><rect x="35.66" y="62.4" width="4.46" height="4.46" fill="#fa9c5c"/><rect x="35.66" y="57.94" width="4.46" height="4.46" fill="#fa9c5c"/><rect x="35.66" y="53.48" width="4.46" height="4.46" fill="#fa9c5c"/><rect x="35.66" y="49.03" width="4.46" height="4.46" fill="#1b0003"/><rect x="31.2" y="124.8" width="4.46" height="4.46" fill="#1b0003"/><rect x="31.2" y="120.34" width="4.46" height="4.46" fill="#a84a24"/><rect x="31.2" y="115.88" width="4.46" height="4.46" fill="#a84a24"/><rect x="31.2" y="111.43" width="4.46" height="4.46" fill="#e86f3f"/><rect x="31.2" y="106.97" width="4.46" height="4.46" fill="#ef8741"/><rect x="31.2" y="102.51" width="4.46" height="4.46" fill="#f2904e"/><rect x="31.2" y="98.06" width="4.46" height="4.46" fill="#fa9c5c"/><rect x="31.2" y="93.6" width="4.46" height="4.46" fill="#fa9c5c"/><rect x="31.2" y="89.14" width="4.46" height="4.46" fill="#fa9c5c"/><rect x="31.2" y="84.68" width="4.46" height="4.46" fill="#fa9c5c"/><rect x="31.2" y="80.23" width="4.46" height="4.46" fill="#ef8741"/><rect x="31.2" y="75.77" width="4.46" height="4.46" fill="#e86f3f"/><rect x="31.2" y="71.31" width="4.46" height="4.46" fill="#a84a24"/><rect x="31.2" y="66.86" width="4.46" height="4.46" fill="#a84a24"/><rect x="31.2" y="62.4" width="4.46" height="4.46" fill="#fa9c5c"/><rect x="31.2" y="57.94" width="4.46" height="4.46" fill="#fa9c5c"/><rect x="31.2" y="53.48" width="4.46" height="4.46" fill="#1b0003"/><rect x="26.74" y="124.8" width="4.46" height="4.46" fill="#1b0003"/><rect x="26.74" y="120.34" width="4.46" height="4.46" fill="#a84a24"/><rect x="26.74" y="115.88" width="4.46" height="4.46" fill="#a84a24"/><rect x="26.74" y="111.43" width="4.46" height="4.46" fill="#ef8741"/><rect x="26.74" y="106.97" width="4.46" height="4.46" fill="#f2904e"/><rect x="26.74" y="102.51" width="4.46" height="4.46" fill="#f2904e"/><rect x="26.74" y="98.06" width="4.46" height="4.46" fill="#fa9c5c"/><rect x="26.74" y="93.6" width="4.46" height="4.46" fill="#fa9c5c"/><rect x="26.74" y="89.14" width="4.46" height="4.46" fill="#fa9c5c"/><rect x="26.74" y="84.68" width="4.46" height="4.46" fill="#fa9c5c"/><rect x="26.74" y="80.23" width="4.46" height="4.46" fill="#fa9c5c"/><rect x="26.74" y="75.77" width="4.46" height="4.46" fill="#e86f3f"/><rect x="26.74" y="71.31" width="4.46" height="4.46" fill="#e86f3f"/><rect x="26.74" y="66.86" width="4.46" height="4.46" fill="#a84a24"/><rect x="26.74" y="62.4" width="4.46" height="4.46" fill="#fa9c5c"/><rect x="26.74" y="57.94" width="4.46" height="4.46" fill="#1b0003"/><rect x="22.29" y="124.8" width="4.46" height="4.46" fill="#1b0003"/><rect x="22.29" y="120.34" width="4.46" height="4.46" fill="#a84a24"/><rect x="22.29" y="115.88" width="4.46" height="4.46" fill="#a84a24"/><rect x="22.29" y="111.43" width="4.46" height="4.46" fill="#ef8741"/><rect x="22.29" y="106.97" width="4.46" height="4.46" fill="#f2904e"/><rect x="22.29" y="102.51" width="4.46" height="4.46" fill="#f2904e"/><rect x="22.29" y="98.06" width="4.46" height="4.46" fill="#fa9c5c"/><rect x="22.29" y="93.6" width="4.46" height="4.46" fill="#fa9c5c"/><rect x="22.29" y="89.14" width="4.46" height="4.46" fill="#fa9c5c"/><rect x="22.29" y="84.68" width="4.46" height="4.46" fill="#fa9c5c"/><rect x="22.29" y="80.23" width="4.46" height="4.46" fill="#fa9c5c"/><rect x="22.29" y="75.77" width="4.46" height="4.46" fill="#ef8741"/><rect x="22.29" y="71.31" width="4.46" height="4.46" fill="#e86f3f"/><rect x="22.29" y="66.86" width="4.46" height="4.46" fill="#a84a24"/><rect x="22.29" y="62.4" width="4.46" height="4.46" fill="#1b0003"/><rect x="17.83" y="124.8" width="4.46" height="4.46" fill="#1b0003"/><rect x="17.83" y="120.34" width="4.46" height="4.46" fill="#a84a24"/><rect x="17.83" y="115.88" width="4.46" height="4.46" fill="#e86f3f"/><rect x="17.83" y="111.43" width="4.46" height="4.46" fill="#ef8741"/><rect x="17.83" y="106.97" width="4.46" height="4.46" fill="#f2904e"/><rect x="17.83" y="102.51" width="4.46" height="4.46" fill="#fa9c5c"/><rect x="17.83" y="98.06" width="4.46" height="4.46" fill="#fa9c5c"/><rect x="17.83" y="93.6" width="4.46" height="4.46" fill="#fa9c5c"/><rect x="17.83" y="89.14" width="4.46" height="4.46" fill="#fa9c5c"/><rect x="17.83" y="84.68" width="4.46" height="4.46" fill="#fa9c5c"/><rect x="17.83" y="80.23" width="4.46" height="4.46" fill="#fa9c5c"/><rect x="17.83" y="75.77" width="4.46" height="4.46" fill="#fa9c5c"/><rect x="17.83" y="71.31" width="4.46" height="4.46" fill="#e86f3f"/><rect x="17.83" y="66.86" width="4.46" height="4.46" fill="#1b0003"/><rect x="13.37" y="120.34" width="4.46" height="4.46" fill="#1b0003"/><rect x="13.37" y="115.88" width="4.46" height="4.46" fill="#e86f3f"/><rect x="13.37" y="111.43" width="4.46" height="4.46" fill="#f2904e"/><rect x="13.37" y="106.97" width="4.46" height="4.46" fill="#f2904e"/><rect x="13.37" y="102.51" width="4.46" height="4.46" fill="#fa9c5c"/><rect x="13.37" y="98.06" width="4.46" height="4.46" fill="#fa9c5c"/><rect x="13.37" y="93.6" width="4.46" height="4.46" fill="#fa9c5c"/><rect x="13.37" y="89.14" width="4.46" height="4.46" fill="#fa9c5c"/><rect x="13.37" y="84.68" width="4.46" height="4.46" fill="#fa9c5c"/><rect x="13.37" y="80.23" width="4.46" height="4.46" fill="#fa9c5c"/><rect x="13.37" y="75.77" width="4.46" height="4.46" fill="#fa9c5c"/><rect x="13.37" y="71.31" width="4.46" height="4.46" fill="#1b0003"/><rect x="8.91" y="120.34" width="4.46" height="4.46" fill="#1b0003"/><rect x="8.91" y="115.88" width="4.46" height="4.46" fill="#ef8741"/><rect x="8.91" y="111.43" width="4.46" height="4.46" fill="#f2904e"/><rect x="8.91" y="106.97" width="4.46" height="4.46" fill="#f2904e"/><rect x="8.91" y="102.51" width="4.46" height="4.46" fill="#fa9c5c"/><rect x="8.91" y="98.06" width="4.46" height="4.46" fill="#fa9c5c"/><rect x="8.91" y="93.6" width="4.46" height="4.46" fill="#fa9c5c"/><rect x="8.91" y="89.14" width="4.46" height="4.46" fill="#fa9c5c"/><rect x="8.91" y="84.68" width="4.46" height="4.46" fill="#fa9c5c"/><rect x="8.91" y="80.23" width="4.46" height="4.46" fill="#fa9c5c"/><rect x="8.91" y="75.77" width="4.46" height="4.46" fill="#1b0003"/><rect x="4.46" y="115.88" width="4.46" height="4.46" fill="#1b0003"/><rect x="4.46" y="111.43" width="4.46" height="4.46" fill="#f2904e"/><rect x="4.46" y="106.97" width="4.46" height="4.46" fill="#f2904e"/><rect x="4.46" y="102.51" width="4.46" height="4.46" fill="#f2904e"/><rect x="4.46" y="98.06" width="4.46" height="4.46" fill="#fa9c5c"/><rect x="4.46" y="93.6" width="4.46" height="4.46" fill="#fa9c5c"/><rect x="4.46" y="89.14" width="4.46" height="4.46" fill="#fa9c5c"/><rect x="4.46" y="84.68" width="4.46" height="4.46" fill="#1b0003"/><rect x="4.46" y="80.23" width="4.46" height="4.46" fill="#1b0003"/><rect y="111.43" width="4.46" height="4.46" fill="#1b0003"/><rect y="106.97" width="4.46" height="4.46" fill="#1b0003"/><rect y="102.51" width="4.46" height="4.46" fill="#1b0003"/><rect y="98.06" width="4.46" height="4.46" fill="#1b0003"/><rect y="93.6" width="4.46" height="4.46" fill="#1b0003"/><rect y="89.14" width="4.46" height="4.46" fill="#1b0003"/></g></g></g></svg>