<svg xmlns="http://www.w3.org/2000/svg" width="112.95" height="112.95" viewBox="0 0 112.95 112.95"><g id="Layer_2" data-name="Layer 2"><g id="items"><g id="Coin"><rect x="107.81" y="66.74" width="5.13" height="5.13" fill="#1b0003"/><rect x="107.81" y="61.61" width="5.13" height="5.13" fill="#1b0003"/><rect x="107.81" y="56.47" width="5.13" height="5.13" fill="#1b0003"/><rect x="107.81" y="51.34" width="5.13" height="5.13" fill="#1b0003"/><rect x="107.81" y="46.21" width="5.13" height="5.13" fill="#1b0003"/><rect x="107.81" y="41.07" width="5.13" height="5.13" fill="#1b0003"/><rect x="102.68" y="77.01" width="5.13" height="5.13" fill="#1b0003"/><rect x="102.68" y="71.88" width="5.13" height="5.13" fill="#1b0003"/><rect x="102.68" y="66.74" width="5.13" height="5.13" fill="#d84b13"/><rect x="102.68" y="61.61" width="5.13" height="5.13" fill="#d84b13"/><rect x="102.68" y="56.47" width="5.13" height="5.13" fill="#d84b13"/><rect x="102.68" y="51.34" width="5.13" height="5.13" fill="#db6d12"/><rect x="102.68" y="46.21" width="5.13" height="5.13" fill="#db6d12"/><rect x="102.68" y="41.07" width="5.13" height="5.13" fill="#db6d12"/><rect x="102.68" y="35.94" width="5.13" height="5.13" fill="#1b0003"/><rect x="102.68" y="30.8" width="5.13" height="5.13" fill="#1b0003"/><rect x="97.55" y="87.28" width="5.13" height="5.13" fill="#1b0003"/><rect x="97.55" y="82.14" width="5.13" height="5.13" fill="#1b0003"/><rect x="97.55" y="77.01" width="5.13" height="5.13" fill="#d84b13"/><rect x="97.55" y="71.88" width="5.13" height="5.13" fill="#d84b13"/><rect x="97.55" y="66.74" width="5.13" height="5.13" fill="#d84b13"/><rect x="97.55" y="61.61" width="5.13" height="5.13" fill="#f7c45e"/><rect x="97.55" y="56.47" width="5.13" height="5.13" fill="#f7c45e"/><rect x="97.55" y="51.34" width="5.13" height="5.13" fill="#f7c45e"/><rect x="97.55" y="46.21" width="5.13" height="5.13" fill="#f7c45e"/><rect x="97.55" y="41.07" width="5.13" height="5.13" fill="#f7c45e"/><rect x="97.55" y="35.94" width="5.13" height="5.13" fill="#f7c45e"/><rect x="97.55" y="30.8" width="5.13" height="5.13" fill="#db6d12"/><rect x="97.55" y="25.67" width="5.13" height="5.13" fill="#1b0003"/><rect x="97.55" y="20.54" width="5.13" height="5.13" fill="#1b0003"/><rect x="92.41" y="92.41" width="5.13" height="5.13" fill="#1b0003"/><rect x="92.41" y="87.28" width="5.13" height="5.13" fill="#d84b13"/><rect x="92.41" y="82.14" width="5.13" height="5.13" fill="#f7c45e"/><rect x="92.41" y="77.01" width="5.13" height="5.13" fill="#f7c45e"/><rect x="92.41" y="71.88" width="5.13" height="5.13" fill="#f7c45e"/><rect x="92.41" y="66.74" width="5.13" height="5.13" fill="#f7c45e"/><rect x="92.41" y="61.61" width="5.13" height="5.13" fill="#f7c45e"/><rect x="92.41" y="56.47" width="5.13" height="5.13" fill="#f7c45e"/><rect x="92.41" y="51.34" width="5.13" height="5.13" fill="#f7c45e"/><rect x="92.41" y="46.21" width="5.13" height="5.13" fill="#f7c45e"/><rect x="92.41" y="41.07" width="5.13" height="5.13" fill="#f7c45e"/><rect x="92.41" y="35.94" width="5.13" height="5.13" fill="#f7c45e"/><rect x="92.41" y="30.8" width="5.13" height="5.13" fill="#f7c45e"/><rect x="92.41" y="25.67" width="5.13" height="5.13" fill="#f7c45e"/><rect x="92.41" y="20.54" width="5.13" height="5.13" fill="#ffefa1"/><rect x="92.41" y="15.4" width="5.13" height="5.13" fill="#1b0003"/><rect x="87.28" y="97.55" width="5.13" height="5.13" fill="#1b0003"/><rect x="87.28" y="92.41" width="5.13" height="5.13" fill="#d84b13"/><rect x="87.28" y="87.28" width="5.13" height="5.13" fill="#f7c45e"/><rect x="87.28" y="82.14" width="5.13" height="5.13" fill="#f7c45e"/><rect x="87.28" y="77.01" width="5.13" height="5.13" fill="#f7c45e"/><rect x="87.28" y="71.88" width="5.13" height="5.13" fill="#f9f2d4"/><rect x="87.28" y="66.74" width="5.13" height="5.13" fill="#f9f2d4"/><rect x="87.28" y="61.61" width="5.13" height="5.13" fill="#f9f2d4"/><rect x="87.28" y="56.47" width="5.13" height="5.13" fill="#f9f2d4"/><rect x="87.28" y="51.34" width="5.13" height="5.13" fill="#f9f2d4"/><rect x="87.28" y="46.21" width="5.13" height="5.13" fill="#f9f2d4"/><rect x="87.28" y="41.07" width="5.13" height="5.13" fill="#f7c45e"/><rect x="87.28" y="35.94" width="5.13" height="5.13" fill="#f7c45e"/><rect x="87.28" y="30.8" width="5.13" height="5.13" fill="#f7c45e"/><rect x="87.28" y="25.67" width="5.13" height="5.13" fill="#f7c45e"/><rect x="87.28" y="20.54" width="5.13" height="5.13" fill="#f7c45e"/><rect x="87.28" y="15.4" width="5.13" height="5.13" fill="#f7c45e"/><rect x="87.28" y="10.27" width="5.13" height="5.13" fill="#1b0003"/><rect x="82.14" y="97.55" width="5.13" height="5.13" fill="#1b0003"/><rect x="82.14" y="92.41" width="5.13" height="5.13" fill="#db6d12"/><rect x="82.14" y="87.28" width="5.13" height="5.13" fill="#f7c45e"/><rect x="82.14" y="82.14" width="5.13" height="5.13" fill="#f7c45e"/><rect x="82.14" y="77.01" width="5.13" height="5.13" fill="#f9f2d4"/><rect x="82.14" y="71.88" width="5.13" height="5.13" fill="#f9f2d4"/><rect x="82.14" y="66.74" width="5.13" height="5.13" fill="#f9f2d4"/><rect x="82.14" y="61.61" width="5.13" height="5.13" fill="#f7c45e"/><rect x="82.14" y="56.47" width="5.13" height="5.13" fill="#f9f2d4"/><rect x="82.14" y="51.34" width="5.13" height="5.13" fill="#f7c45e"/><rect x="82.14" y="46.21" width="5.13" height="5.13" fill="#f7c45e"/><rect x="82.14" y="41.07" width="5.13" height="5.13" fill="#f9f2d4"/><rect x="82.14" y="35.94" width="5.13" height="5.13" fill="#f7c45e"/><rect x="82.14" y="30.8" width="5.13" height="5.13" fill="#f7c45e"/><rect x="82.14" y="25.67" width="5.13" height="5.13" fill="#f7c45e"/><rect x="82.14" y="20.54" width="5.13" height="5.13" fill="#f9f2d4"/><rect x="82.14" y="15.4" width="5.13" height="5.13" fill="#f9f2d4"/><rect x="82.14" y="10.27" width="5.13" height="5.13" fill="#1b0003"/><rect x="77.01" y="102.68" width="5.13" height="5.13" fill="#1b0003"/><rect x="77.01" y="97.55" width="5.13" height="5.13" fill="#db6d12"/><rect x="77.01" y="92.41" width="5.13" height="5.13" fill="#f7c45e"/><rect x="77.01" y="87.28" width="5.13" height="5.13" fill="#f7c45e"/><rect x="77.01" y="82.14" width="5.13" height="5.13" fill="#f9f2d4"/><rect x="77.01" y="77.01" width="5.13" height="5.13" fill="#f9f2d4"/><rect x="77.01" y="71.88" width="5.13" height="5.13" fill="#f9f2d4"/><rect x="77.01" y="66.74" width="5.13" height="5.13" fill="#f7c45e"/><rect x="77.01" y="61.61" width="5.13" height="5.13" fill="#f9f2d4"/><rect x="77.01" y="56.47" width="5.13" height="5.13" fill="#f7c45e"/><rect x="77.01" y="51.34" width="5.13" height="5.13" fill="#f7c45e"/><rect x="77.01" y="46.21" width="5.13" height="5.13" fill="#f7c45e"/><rect x="77.01" y="41.07" width="5.13" height="5.13" fill="#f7c45e"/><rect x="77.01" y="35.94" width="5.13" height="5.13" fill="#f7c45e"/><rect x="77.01" y="30.8" width="5.13" height="5.13" fill="#db6d12"/><rect x="77.01" y="25.67" width="5.13" height="5.13" fill="#f7c45e"/><rect x="77.01" y="20.54" width="5.13" height="5.13" fill="#f7c45e"/><rect x="77.01" y="15.4" width="5.13" height="5.13" fill="#f9f2d4"/><rect x="77.01" y="10.27" width="5.13" height="5.13" fill="#f9f2d4"/><rect x="77.01" y="5.13" width="5.13" height="5.13" fill="#1b0003"/><rect x="71.88" y="102.68" width="5.13" height="5.13" fill="#1b0003"/><rect x="71.88" y="97.55" width="5.13" height="5.13" fill="#d84b13"/><rect x="71.88" y="92.41" width="5.13" height="5.13" fill="#f7c45e"/><rect x="71.88" y="87.28" width="5.13" height="5.13" fill="#f7c45e"/><rect x="71.88" y="82.14" width="5.13" height="5.13" fill="#f9f2d4"/><rect x="71.88" y="77.01" width="5.13" height="5.13" fill="#f9f2d4"/><rect x="71.88" y="71.88" width="5.13" height="5.13" fill="#f7c45e"/><rect x="71.88" y="66.74" width="5.13" height="5.13" fill="#f9f2d4"/><rect x="71.88" y="61.61" width="5.13" height="5.13" fill="#f7c45e"/><rect x="71.88" y="56.47" width="5.13" height="5.13" fill="#f7c45e"/><rect x="71.88" y="51.34" width="5.13" height="5.13" fill="#f7c45e"/><rect x="71.88" y="46.21" width="5.13" height="5.13" fill="#f7c45e"/><rect x="71.88" y="41.07" width="5.13" height="5.13" fill="#f7c45e"/><rect x="71.88" y="35.94" width="5.13" height="5.13" fill="#f7c45e"/><rect x="71.88" y="30.8" width="5.13" height="5.13" fill="#f7c45e"/><rect x="71.88" y="25.67" width="5.13" height="5.13" fill="#db6d12"/><rect x="71.88" y="20.54" width="5.13" height="5.13" fill="#f7c45e"/><rect x="71.88" y="15.4" width="5.13" height="5.13" fill="#f7c45e"/><rect x="71.88" y="10.27" width="5.13" height="5.13" fill="#f7c45e"/><rect x="71.88" y="5.13" width="5.13" height="5.13" fill="#1b0003"/><rect x="66.74" y="107.81" width="5.13" height="5.13" fill="#1b0003"/><rect x="66.74" y="102.68" width="5.13" height="5.13" fill="#d84b13"/><rect x="66.74" y="97.55" width="5.13" height="5.13" fill="#d84b13"/><rect x="66.74" y="92.41" width="5.13" height="5.13" fill="#f7c45e"/><rect x="66.74" y="87.28" width="5.13" height="5.13" fill="#f9f2d4"/><rect x="66.74" y="82.14" width="5.13" height="5.13" fill="#f9f2d4"/><rect x="66.74" y="77.01" width="5.13" height="5.13" fill="#f7c45e"/><rect x="66.74" y="71.88" width="5.13" height="5.13" fill="#f9f2d4"/><rect x="66.74" y="66.74" width="5.13" height="5.13" fill="#f7c45e"/><rect x="66.74" y="61.61" width="5.13" height="5.13" fill="#f7c45e"/><rect x="66.74" y="56.47" width="5.13" height="5.13" fill="#f7c45e"/><rect x="66.74" y="51.34" width="5.13" height="5.13" fill="#f7c45e"/><rect x="66.74" y="46.21" width="5.13" height="5.13" fill="#f7c45e"/><rect x="66.74" y="41.07" width="5.13" height="5.13" fill="#f7c45e"/><rect x="66.74" y="35.94" width="5.13" height="5.13" fill="#f7c45e"/><rect x="66.74" y="30.8" width="5.13" height="5.13" fill="#f7c45e"/><rect x="66.74" y="25.67" width="5.13" height="5.13" fill="#db6d12"/><rect x="66.74" y="20.54" width="5.13" height="5.13" fill="#f7c45e"/><rect x="66.74" y="15.4" width="5.13" height="5.13" fill="#f7c45e"/><rect x="66.74" y="10.27" width="5.13" height="5.13" fill="#f7c45e"/><rect x="66.74" y="5.13" width="5.13" height="5.13" fill="#f7c45e"/><rect x="66.74" width="5.13" height="5.13" fill="#1b0003"/><rect x="61.61" y="107.81" width="5.13" height="5.13" fill="#1b0003"/><rect x="61.61" y="102.68" width="5.13" height="5.13" fill="#d84b13"/><rect x="61.61" y="97.55" width="5.13" height="5.13" fill="#f7c45e"/><rect x="61.61" y="92.41" width="5.13" height="5.13" fill="#f7c45e"/><rect x="61.61" y="87.28" width="5.13" height="5.13" fill="#f9f2d4"/><rect x="61.61" y="82.14" width="5.13" height="5.13" fill="#f7c45e"/><rect x="61.61" y="77.01" width="5.13" height="5.13" fill="#f9f2d4"/><rect x="61.61" y="71.88" width="5.13" height="5.13" fill="#f7c45e"/><rect x="61.61" y="66.74" width="5.13" height="5.13" fill="#f7c45e"/><rect x="61.61" y="61.61" width="5.13" height="5.13" fill="#f7c45e"/><rect x="61.61" y="56.47" width="5.13" height="5.13" fill="#f7c45e"/><rect x="61.61" y="51.34" width="5.13" height="5.13" fill="#f7c45e"/><rect x="61.61" y="46.21" width="5.13" height="5.13" fill="#f7c45e"/><rect x="61.61" y="41.07" width="5.13" height="5.13" fill="#f7c45e"/><rect x="61.61" y="35.94" width="5.13" height="5.13" fill="#f7c45e"/><rect x="61.61" y="30.8" width="5.13" height="5.13" fill="#f7c45e"/><rect x="61.61" y="25.67" width="5.13" height="5.13" fill="#f7c45e"/><rect x="61.61" y="20.54" width="5.13" height="5.13" fill="#db6d12"/><rect x="61.61" y="15.4" width="5.13" height="5.13" fill="#f7c45e"/><rect x="61.61" y="10.27" width="5.13" height="5.13" fill="#f7c45e"/><rect x="61.61" y="5.13" width="5.13" height="5.13" fill="#ffefa1"/><rect x="61.61" width="5.13" height="5.13" fill="#1b0003"/><rect x="56.47" y="107.81" width="5.13" height="5.13" fill="#1b0003"/><rect x="56.47" y="102.68" width="5.13" height="5.13" fill="#d84b13"/><rect x="56.47" y="97.55" width="5.13" height="5.13" fill="#f7c45e"/><rect x="56.47" y="92.41" width="5.13" height="5.13" fill="#f7c45e"/><rect x="56.47" y="87.28" width="5.13" height="5.13" fill="#f9f2d4"/><rect x="56.47" y="82.14" width="5.13" height="5.13" fill="#f9f2d4"/><rect x="56.47" y="77.01" width="5.13" height="5.13" fill="#f7c45e"/><rect x="56.47" y="71.88" width="5.13" height="5.13" fill="#f7c45e"/><rect x="56.47" y="66.74" width="5.13" height="5.13" fill="#f7c45e"/><rect x="56.47" y="61.61" width="5.13" height="5.13" fill="#f7c45e"/><rect x="56.47" y="56.47" width="5.13" height="5.13" fill="#f7c45e"/><rect x="56.47" y="51.34" width="5.13" height="5.13" fill="#f7c45e"/><rect x="56.47" y="46.21" width="5.13" height="5.13" fill="#f7c45e"/><rect x="56.47" y="41.07" width="5.13" height="5.13" fill="#f7c45e"/><rect x="56.47" y="35.94" width="5.13" height="5.13" fill="#f7c45e"/><rect x="56.47" y="30.8" width="5.13" height="5.13" fill="#f7c45e"/><rect x="56.47" y="25.67" width="5.13" height="5.13" fill="#f7c45e"/><rect x="56.47" y="20.54" width="5.13" height="5.13" fill="#db6d12"/><rect x="56.47" y="15.4" width="5.13" height="5.13" fill="#f7c45e"/><rect x="56.47" y="10.27" width="5.13" height="5.13" fill="#f7c45e"/><rect x="56.47" y="5.13" width="5.13" height="5.13" fill="#ffefa1"/><rect x="56.47" width="5.13" height="5.13" fill="#1b0003"/><rect x="51.34" y="107.81" width="5.13" height="5.13" fill="#1b0003"/><rect x="51.34" y="102.68" width="5.13" height="5.13" fill="#d84b13"/><rect x="51.34" y="97.55" width="5.13" height="5.13" fill="#f7c45e"/><rect x="51.34" y="92.41" width="5.13" height="5.13" fill="#f7c45e"/><rect x="51.34" y="87.28" width="5.13" height="5.13" fill="#f9f2d4"/><rect x="51.34" y="82.14" width="5.13" height="5.13" fill="#f7c45e"/><rect x="51.34" y="77.01" width="5.13" height="5.13" fill="#f7c45e"/><rect x="51.34" y="71.88" width="5.13" height="5.13" fill="#f7c45e"/><rect x="51.34" y="66.74" width="5.13" height="5.13" fill="#f7c45e"/><rect x="51.34" y="61.61" width="5.13" height="5.13" fill="#f7c45e"/><rect x="51.34" y="56.47" width="5.13" height="5.13" fill="#f7c45e"/><rect x="51.34" y="51.34" width="5.13" height="5.13" fill="#f7c45e"/><rect x="51.34" y="46.21" width="5.13" height="5.13" fill="#f7c45e"/><rect x="51.34" y="41.07" width="5.13" height="5.13" fill="#f7c45e"/><rect x="51.34" y="35.94" width="5.13" height="5.13" fill="#f7c45e"/><rect x="51.34" y="30.8" width="5.13" height="5.13" fill="#f7c45e"/><rect x="51.34" y="25.67" width="5.13" height="5.13" fill="#f7c45e"/><rect x="51.34" y="20.54" width="5.13" height="5.13" fill="#db6d12"/><rect x="51.34" y="15.4" width="5.13" height="5.13" fill="#f7c45e"/><rect x="51.34" y="10.27" width="5.13" height="5.13" fill="#f7c45e"/><rect x="51.34" y="5.13" width="5.13" height="5.13" fill="#ffefa1"/><rect x="51.34" width="5.13" height="5.13" fill="#1b0003"/><rect x="46.21" y="107.81" width="5.13" height="5.13" fill="#1b0003"/><rect x="46.21" y="102.68" width="5.13" height="5.13" fill="#db6d12"/><rect x="46.21" y="97.55" width="5.13" height="5.13" fill="#f7c45e"/><rect x="46.21" y="92.41" width="5.13" height="5.13" fill="#f7c45e"/><rect x="46.21" y="87.28" width="5.13" height="5.13" fill="#f9f2d4"/><rect x="46.21" y="82.14" width="5.13" height="5.13" fill="#f7c45e"/><rect x="46.21" y="77.01" width="5.13" height="5.13" fill="#f7c45e"/><rect x="46.21" y="71.88" width="5.13" height="5.13" fill="#f7c45e"/><rect x="46.21" y="66.74" width="5.13" height="5.13" fill="#f7c45e"/><rect x="46.21" y="61.61" width="5.13" height="5.13" fill="#f7c45e"/><rect x="46.21" y="56.47" width="5.13" height="5.13" fill="#f7c45e"/><rect x="46.21" y="51.34" width="5.13" height="5.13" fill="#f7c45e"/><rect x="46.21" y="46.21" width="5.13" height="5.13" fill="#f7c45e"/><rect x="46.21" y="41.07" width="5.13" height="5.13" fill="#f7c45e"/><rect x="46.21" y="35.94" width="5.13" height="5.13" fill="#f7c45e"/><rect x="46.21" y="30.8" width="5.13" height="5.13" fill="#f7c45e"/><rect x="46.21" y="25.67" width="5.13" height="5.13" fill="#db6d12"/><rect x="46.21" y="20.54" width="5.13" height="5.13" fill="#db6d12"/><rect x="46.21" y="15.4" width="5.13" height="5.13" fill="#f7c45e"/><rect x="46.21" y="10.27" width="5.13" height="5.13" fill="#f7c45e"/><rect x="46.21" y="5.13" width="5.13" height="5.13" fill="#ffefa1"/><rect x="46.21" width="5.13" height="5.13" fill="#db6d12"/><rect x="41.07" y="107.81" width="5.13" height="5.13" fill="#1b0003"/><rect x="41.07" y="102.68" width="5.13" height="5.13" fill="#db6d12"/><rect x="41.07" y="97.55" width="5.13" height="5.13" fill="#f7c45e"/><rect x="41.07" y="92.41" width="5.13" height="5.13" fill="#f7c45e"/><rect x="41.07" y="87.28" width="5.13" height="5.13" fill="#f7c45e"/><rect x="41.07" y="82.14" width="5.13" height="5.13" fill="#f7c45e"/><rect x="41.07" y="77.01" width="5.13" height="5.13" fill="#f7c45e"/><rect x="41.07" y="71.88" width="5.13" height="5.13" fill="#f7c45e"/><rect x="41.07" y="66.74" width="5.13" height="5.13" fill="#f7c45e"/><rect x="41.07" y="61.61" width="5.13" height="5.13" fill="#f7c45e"/><rect x="41.07" y="56.47" width="5.13" height="5.13" fill="#f7c45e"/><rect x="41.07" y="51.34" width="5.13" height="5.13" fill="#f7c45e"/><rect x="41.07" y="46.21" width="5.13" height="5.13" fill="#f7c45e"/><rect x="41.07" y="41.07" width="5.13" height="5.13" fill="#f7c45e"/><rect x="41.07" y="35.94" width="5.13" height="5.13" fill="#f7c45e"/><rect x="41.07" y="30.8" width="5.13" height="5.13" fill="#f7c45e"/><rect x="41.07" y="25.67" width="5.13" height="5.13" fill="#db6d12"/><rect x="41.07" y="20.54" width="5.13" height="5.13" fill="#f7c45e"/><rect x="41.07" y="15.4" width="5.13" height="5.13" fill="#f7c45e"/><rect x="41.07" y="10.27" width="5.13" height="5.13" fill="#ffefa1"/><rect x="41.07" y="5.13" width="5.13" height="5.13" fill="#ffefa1"/><rect x="41.07" width="5.13" height="5.13" fill="#db6d12"/><rect x="35.94" y="102.68" width="5.13" height="5.13" fill="#1b0003"/><rect x="35.94" y="97.55" width="5.13" height="5.13" fill="#f7c45e"/><rect x="35.94" y="92.41" width="5.13" height="5.13" fill="#f7c45e"/><rect x="35.94" y="87.28" width="5.13" height="5.13" fill="#f7c45e"/><rect x="35.94" y="82.14" width="5.13" height="5.13" fill="#db6d12"/><rect x="35.94" y="77.01" width="5.13" height="5.13" fill="#f7c45e"/><rect x="35.94" y="71.88" width="5.13" height="5.13" fill="#f7c45e"/><rect x="35.94" y="66.74" width="5.13" height="5.13" fill="#f7c45e"/><rect x="35.94" y="61.61" width="5.13" height="5.13" fill="#f7c45e"/><rect x="35.94" y="56.47" width="5.13" height="5.13" fill="#f7c45e"/><rect x="35.94" y="51.34" width="5.13" height="5.13" fill="#f7c45e"/><rect x="35.94" y="46.21" width="5.13" height="5.13" fill="#f7c45e"/><rect x="35.94" y="41.07" width="5.13" height="5.13" fill="#f7c45e"/><rect x="35.94" y="35.94" width="5.13" height="5.13" fill="#f7c45e"/><rect x="35.94" y="30.8" width="5.13" height="5.13" fill="#db6d12"/><rect x="35.94" y="25.67" width="5.13" height="5.13" fill="#db6d12"/><rect x="35.94" y="20.54" width="5.13" height="5.13" fill="#f7c45e"/><rect x="35.94" y="15.4" width="5.13" height="5.13" fill="#f7c45e"/><rect x="35.94" y="10.27" width="5.13" height="5.13" fill="#ffefa1"/><rect x="35.94" y="5.13" width="5.13" height="5.13" fill="#db6d12"/><rect x="30.8" y="25.67" width="5.13" height="5.13" fill="#db6d12"/><rect x="30.8" y="20.54" width="5.13" height="5.13" fill="#f7c45e"/><rect x="30.8" y="15.4" width="5.13" height="5.13" fill="#f7c45e"/><rect x="30.8" y="10.27" width="5.13" height="5.13" fill="#ffefa1"/><rect x="30.8" y="5.13" width="5.13" height="5.13" fill="#f7c45e"/><rect x="30.8" y="102.68" width="5.13" height="5.13" fill="#1b0003"/><rect x="30.8" y="97.55" width="5.13" height="5.13" fill="#db6d12"/><rect x="30.8" y="92.41" width="5.13" height="5.13" fill="#f7c45e"/><rect x="30.8" y="87.28" width="5.13" height="5.13" fill="#f7c45e"/><rect x="30.8" y="82.14" width="5.13" height="5.13" fill="#f7c45e"/><rect x="30.8" y="77.01" width="5.13" height="5.13" fill="#db6d12"/><rect x="30.8" y="71.88" width="5.13" height="5.13" fill="#f7c45e"/><rect x="30.8" y="66.74" width="5.13" height="5.13" fill="#f7c45e"/><rect x="30.8" y="61.61" width="5.13" height="5.13" fill="#f7c45e"/><rect x="30.8" y="56.47" width="5.13" height="5.13" fill="#f7c45e"/><rect x="30.8" y="51.34" width="5.13" height="5.13" fill="#f7c45e"/><rect x="30.8" y="46.21" width="5.13" height="5.13" fill="#f7c45e"/><rect x="30.8" y="41.07" width="5.13" height="5.13" fill="#f7c45e"/><rect x="30.8" y="35.94" width="5.13" height="5.13" fill="#db6d12"/><rect x="30.8" y="30.8" width="5.13" height="5.13" fill="#db6d12"/><rect x="25.67" y="30.8" width="5.13" height="5.13" fill="#db6d12"/><rect x="25.67" y="25.67" width="5.13" height="5.13" fill="#f7c45e"/><rect x="25.67" y="20.54" width="5.13" height="5.13" fill="#f7c45e"/><rect x="25.67" y="15.4" width="5.13" height="5.13" fill="#ffefa1"/><rect x="25.67" y="10.27" width="5.13" height="5.13" fill="#f7c45e"/><rect x="25.67" y="97.55" width="5.13" height="5.13" fill="#1b0003"/><rect x="25.67" y="92.41" width="5.13" height="5.13" fill="#f7c45e"/><rect x="25.67" y="87.28" width="5.13" height="5.13" fill="#f7c45e"/><rect x="25.67" y="82.14" width="5.13" height="5.13" fill="#f7c45e"/><rect x="25.67" y="77.01" width="5.13" height="5.13" fill="#f7c45e"/><rect x="25.67" y="71.88" width="5.13" height="5.13" fill="#db6d12"/><rect x="25.67" y="66.74" width="5.13" height="5.13" fill="#db6d12"/><rect x="25.67" y="61.61" width="5.13" height="5.13" fill="#f7c45e"/><rect x="25.67" y="56.47" width="5.13" height="5.13" fill="#f7c45e"/><rect x="25.67" y="51.34" width="5.13" height="5.13" fill="#f7c45e"/><rect x="25.67" y="46.21" width="5.13" height="5.13" fill="#db6d12"/><rect x="25.67" y="41.07" width="5.13" height="5.13" fill="#db6d12"/><rect x="25.67" y="35.94" width="5.13" height="5.13" fill="#db6d12"/><rect x="20.54" y="30.8" width="5.13" height="5.13" fill="#f7c45e"/><rect x="20.54" y="25.67" width="5.13" height="5.13" fill="#f7c45e"/><rect x="20.54" y="20.54" width="5.13" height="5.13" fill="#f9f2d4"/><rect x="20.54" y="15.4" width="5.13" height="5.13" fill="#f9f2d4"/><rect x="20.54" y="10.27" width="5.13" height="5.13" fill="#f7c45e"/><rect x="20.54" y="97.55" width="5.13" height="5.13" fill="#1b0003"/><rect x="20.54" y="92.41" width="5.13" height="5.13" fill="#db6d12"/><rect x="20.54" y="87.28" width="5.13" height="5.13" fill="#f7c45e"/><rect x="20.54" y="82.14" width="5.13" height="5.13" fill="#f7c45e"/><rect x="20.54" y="77.01" width="5.13" height="5.13" fill="#f7c45e"/><rect x="20.54" y="71.88" width="5.13" height="5.13" fill="#f7c45e"/><rect x="20.54" y="66.74" width="5.13" height="5.13" fill="#f7c45e"/><rect x="20.54" y="61.61" width="5.13" height="5.13" fill="#db6d12"/><rect x="20.54" y="56.47" width="5.13" height="5.13" fill="#db6d12"/><rect x="20.54" y="51.34" width="5.13" height="5.13" fill="#db6d12"/><rect x="20.54" y="46.21" width="5.13" height="5.13" fill="#db6d12"/><rect x="20.54" y="41.07" width="5.13" height="5.13" fill="#db6d12"/><rect x="20.54" y="35.94" width="5.13" height="5.13" fill="#f7c45e"/><rect x="15.4" y="30.8" width="5.13" height="5.13" fill="#f7c45e"/><rect x="15.4" y="25.67" width="5.13" height="5.13" fill="#f9f2d4"/><rect x="15.4" y="20.54" width="5.13" height="5.13" fill="#f9f2d4"/><rect x="15.4" y="15.4" width="5.13" height="5.13" fill="#f7c45e"/><rect x="15.4" y="92.41" width="5.13" height="5.13" fill="#1b0003"/><rect x="15.4" y="87.28" width="5.13" height="5.13" fill="#ffefa1"/><rect x="15.4" y="82.14" width="5.13" height="5.13" fill="#f7c45e"/><rect x="15.4" y="77.01" width="5.13" height="5.13" fill="#f7c45e"/><rect x="15.4" y="71.88" width="5.13" height="5.13" fill="#f7c45e"/><rect x="15.4" y="66.74" width="5.13" height="5.13" fill="#f7c45e"/><rect x="15.4" y="61.61" width="5.13" height="5.13" fill="#f7c45e"/><rect x="15.4" y="56.47" width="5.13" height="5.13" fill="#f7c45e"/><rect x="15.4" y="51.34" width="5.13" height="5.13" fill="#f7c45e"/><rect x="15.4" y="46.21" width="5.13" height="5.13" fill="#f7c45e"/><rect x="15.4" y="41.07" width="5.13" height="5.13" fill="#f7c45e"/><rect x="15.4" y="35.94" width="5.13" height="5.13" fill="#f7c45e"/><rect x="10.27" y="30.8" width="5.13" height="5.13" fill="#f9f2d4"/><rect x="10.27" y="25.67" width="5.13" height="5.13" fill="#f7c45e"/><rect x="10.27" y="20.54" width="5.13" height="5.13" fill="#f7c45e"/><rect x="10.27" y="87.28" width="5.13" height="5.13" fill="#1b0003"/><rect x="10.27" y="82.14" width="5.13" height="5.13" fill="#1b0003"/><rect x="10.27" y="77.01" width="5.13" height="5.13" fill="#ffefa1"/><rect x="10.27" y="71.88" width="5.13" height="5.13" fill="#f7c45e"/><rect x="10.27" y="66.74" width="5.13" height="5.13" fill="#f7c45e"/><rect x="10.27" y="61.61" width="5.13" height="5.13" fill="#f7c45e"/><rect x="10.27" y="56.47" width="5.13" height="5.13" fill="#f7c45e"/><rect x="10.27" y="51.34" width="5.13" height="5.13" fill="#f7c45e"/><rect x="10.27" y="46.21" width="5.13" height="5.13" fill="#f7c45e"/><rect x="10.27" y="41.07" width="5.13" height="5.13" fill="#f7c45e"/><rect x="10.27" y="35.94" width="5.13" height="5.13" fill="#ffefa1"/><rect x="5.13" y="30.8" width="5.13" height="5.13" fill="#f7c45e"/><rect x="5.13" y="77.01" width="5.13" height="5.13" fill="#1b0003"/><rect x="5.13" y="71.88" width="5.13" height="5.13" fill="#1b0003"/><rect x="5.13" y="66.74" width="5.13" height="5.13" fill="#ffefa1"/><rect x="5.13" y="61.61" width="5.13" height="5.13" fill="#f7c45e"/><rect x="5.13" y="56.47" width="5.13" height="5.13" fill="#f7c45e"/><rect x="5.13" y="51.34" width="5.13" height="5.13" fill="#f7c45e"/><rect x="5.13" y="46.21" width="5.13" height="5.13" fill="#ffefa1"/><rect x="5.13" y="41.07" width="5.13" height="5.13" fill="#ffefa1"/><rect x="5.13" y="35.94" width="5.13" height="5.13" fill="#db6d12"/><rect y="66.74" width="5.13" height="5.13" fill="#1b0003"/><rect y="61.61" width="5.13" height="5.13" fill="#1b0003"/><rect y="56.47" width="5.13" height="5.13" fill="#1b0003"/><rect y="51.34" width="5.13" height="5.13" fill="#db6d12"/><rect y="46.21" width="5.13" height="5.13" fill="#db6d12"/><rect y="41.07" width="5.13" height="5.13" fill="#f7c45e"/></g></g></g></svg>