<svg xmlns="http://www.w3.org/2000/svg" width="98.48" height="145.13" viewBox="0 0 98.48 145.13"><g id="Layer_2" data-name="Layer 2"><g id="items"><g id="Empty_Potion_Bottle_3" data-name="Empty Potion Bottle 3"><rect x="93.3" y="134.77" width="5.18" height="5.18" fill="#1b0003"/><rect x="93.3" y="129.58" width="5.18" height="5.18" fill="#1b0003"/><rect x="93.3" y="124.4" width="5.18" height="5.18" fill="#1b0003"/><rect x="93.3" y="119.22" width="5.18" height="5.18" fill="#1b0003"/><rect x="93.3" y="114.03" width="5.18" height="5.18" fill="#1b0003"/><rect x="93.3" y="108.85" width="5.18" height="5.18" fill="#1b0003"/><rect x="93.3" y="103.67" width="5.18" height="5.18" fill="#1b0003"/><rect x="93.3" y="98.48" width="5.18" height="5.18" fill="#1b0003"/><rect x="93.3" y="93.3" width="5.18" height="5.18" fill="#1b0003"/><rect x="93.3" y="88.12" width="5.18" height="5.18" fill="#1b0003"/><rect x="93.3" y="82.93" width="5.18" height="5.18" fill="#1b0003"/><rect x="93.3" y="77.75" width="5.18" height="5.18" fill="#1b0003"/><rect x="93.3" y="72.57" width="5.18" height="5.18" fill="#1b0003"/><rect x="93.3" y="67.38" width="5.18" height="5.18" fill="#1b0003"/><rect x="88.12" y="139.95" width="5.18" height="5.18" fill="#1b0003"/><rect x="88.12" y="134.77" width="5.18" height="5.18" fill="#6a87af"/><rect x="88.12" y="129.58" width="5.18" height="5.18" fill="#6a87af"/><rect x="88.12" y="124.4" width="5.18" height="5.18" fill="#6a87af"/><rect x="88.12" y="119.22" width="5.18" height="5.18" fill="#6a87af"/><rect x="88.12" y="114.03" width="5.18" height="5.18" fill="#6a87af"/><rect x="88.12" y="108.85" width="5.18" height="5.18" fill="#6a87af"/><rect x="88.12" y="103.67" width="5.18" height="5.18" fill="#6a87af"/><rect x="88.12" y="98.48" width="5.18" height="5.18" fill="#6a87af"/><rect x="88.12" y="93.3" width="5.18" height="5.18" fill="#6a87af"/><rect x="88.12" y="88.12" width="5.18" height="5.18" fill="#6a87af"/><rect x="88.12" y="82.93" width="5.18" height="5.18" fill="#6a87af"/><rect x="88.12" y="77.75" width="5.18" height="5.18" fill="#6a87af"/><rect x="88.12" y="72.57" width="5.18" height="5.18" fill="#6a87af"/><rect x="88.12" y="67.38" width="5.18" height="5.18" fill="#6a87af"/><rect x="88.12" y="62.2" width="5.18" height="5.18" fill="#1b0003"/><rect x="82.93" y="139.95" width="5.18" height="5.18" fill="#1b0003"/><rect x="82.93" y="134.77" width="5.18" height="5.18" fill="#6a87af"/><rect x="82.93" y="129.58" width="5.18" height="5.18" fill="#a3c6e2"/><rect x="82.93" y="124.4" width="5.18" height="5.18" fill="#a3c6e2"/><rect x="82.93" y="119.22" width="5.18" height="5.18" fill="#a3c6e2"/><rect x="82.93" y="114.03" width="5.18" height="5.18" fill="#a3c6e2"/><rect x="82.93" y="108.85" width="5.18" height="5.18" fill="#a3c6e2"/><rect x="82.93" y="103.67" width="5.18" height="5.18" fill="#fff"/><rect x="82.93" y="98.48" width="5.18" height="5.18" fill="#fff"/><rect x="82.93" y="93.3" width="5.18" height="5.18" fill="#a3c6e2"/><rect x="82.93" y="88.12" width="5.18" height="5.18" fill="#a3c6e2"/><rect x="82.93" y="82.93" width="5.18" height="5.18" fill="#a3c6e2"/><rect x="82.93" y="77.75" width="5.18" height="5.18" fill="#a3c6e2"/><rect x="82.93" y="72.57" width="5.18" height="5.18" fill="#a3c6e2"/><rect x="82.93" y="67.38" width="5.18" height="5.18" fill="#6a87af"/><rect x="82.93" y="62.2" width="5.18" height="5.18" fill="#1b0003"/><rect x="77.75" y="139.95" width="5.18" height="5.18" fill="#1b0003"/><rect x="77.75" y="134.77" width="5.18" height="5.18" fill="#6a87af"/><rect x="77.75" y="129.58" width="5.18" height="5.18" fill="#a3c6e2"/><rect x="77.75" y="124.4" width="5.18" height="5.18" fill="#a3c6e2"/><rect x="77.75" y="119.22" width="5.18" height="5.18" fill="#a3c6e2"/><rect x="77.75" y="114.03" width="5.18" height="5.18" fill="#bedbed"/><rect x="77.75" y="108.85" width="5.18" height="5.18" fill="#a3c6e2"/><rect x="77.75" y="103.67" width="5.18" height="5.18" fill="#a3c6e2"/><rect x="77.75" y="98.48" width="5.18" height="5.18" fill="#a3c6e2"/><rect x="77.75" y="93.3" width="5.18" height="5.18" fill="#fff"/><rect x="77.75" y="88.12" width="5.18" height="5.18" fill="#fff"/><rect x="77.75" y="82.93" width="5.18" height="5.18" fill="#fff"/><rect x="77.75" y="77.75" width="5.18" height="5.18" fill="#a3c6e2"/><rect x="77.75" y="72.57" width="5.18" height="5.18" fill="#a3c6e2"/><rect x="77.75" y="67.38" width="5.18" height="5.18" fill="#6a87af"/><rect x="77.75" y="62.2" width="5.18" height="5.18" fill="#1b0003"/><rect x="72.57" y="139.95" width="5.18" height="5.18" fill="#1b0003"/><rect x="72.57" y="134.77" width="5.18" height="5.18" fill="#6a87af"/><rect x="72.57" y="129.58" width="5.18" height="5.18" fill="#a3c6e2"/><rect x="72.57" y="124.4" width="5.18" height="5.18" fill="#a3c6e2"/><rect x="72.57" y="119.22" width="5.18" height="5.18" fill="#bedbed"/><rect x="72.57" y="114.03" width="5.18" height="5.18" fill="#a3c6e2"/><rect x="72.57" y="108.85" width="5.18" height="5.18" fill="#bedbed"/><rect x="72.57" y="103.67" width="5.18" height="5.18" fill="#a3c6e2"/><rect x="72.57" y="98.48" width="5.18" height="5.18" fill="#a3c6e2"/><rect x="72.57" y="93.3" width="5.18" height="5.18" fill="#a3c6e2"/><rect x="72.57" y="88.12" width="5.18" height="5.18" fill="#a3c6e2"/><rect x="72.57" y="82.93" width="5.18" height="5.18" fill="#a3c6e2"/><rect x="72.57" y="77.75" width="5.18" height="5.18" fill="#fff"/><rect x="72.57" y="72.57" width="5.18" height="5.18" fill="#a3c6e2"/><rect x="72.57" y="67.38" width="5.18" height="5.18" fill="#6a87af"/><rect x="72.57" y="62.2" width="5.18" height="5.18" fill="#1b0003"/><rect x="67.38" y="139.95" width="5.18" height="5.18" fill="#1b0003"/><rect x="67.38" y="134.77" width="5.18" height="5.18" fill="#6a87af"/><rect x="67.38" y="129.58" width="5.18" height="5.18" fill="#a3c6e2"/><rect x="67.38" y="124.4" width="5.18" height="5.18" fill="#a3c6e2"/><rect x="67.38" y="119.22" width="5.18" height="5.18" fill="#a3c6e2"/><rect x="67.38" y="114.03" width="5.18" height="5.18" fill="#bedbed"/><rect x="67.38" y="108.85" width="5.18" height="5.18" fill="#a3c6e2"/><rect x="67.38" y="103.67" width="5.18" height="5.18" fill="#bedbed"/><rect x="67.38" y="98.48" width="5.18" height="5.18" fill="#bedbed"/><rect x="67.38" y="93.3" width="5.18" height="5.18" fill="#bedbed"/><rect x="67.38" y="88.12" width="5.18" height="5.18" fill="#a3c6e2"/><rect x="67.38" y="82.93" width="5.18" height="5.18" fill="#a3c6e2"/><rect x="67.38" y="77.75" width="5.18" height="5.18" fill="#a3c6e2"/><rect x="67.38" y="72.57" width="5.18" height="5.18" fill="#fff"/><rect x="67.38" y="67.38" width="5.18" height="5.18" fill="#6a87af"/><rect x="67.38" y="62.2" width="5.18" height="5.18" fill="#1b0003"/><rect x="62.2" y="139.95" width="5.18" height="5.18" fill="#1b0003"/><rect x="62.2" y="134.77" width="5.18" height="5.18" fill="#6a87af"/><rect x="62.2" y="129.58" width="5.18" height="5.18" fill="#a3c6e2"/><rect x="62.2" y="124.4" width="5.18" height="5.18" fill="#a3c6e2"/><rect x="62.2" y="119.22" width="5.18" height="5.18" fill="#bedbed"/><rect x="62.2" y="114.03" width="5.18" height="5.18" fill="#a3c6e2"/><rect x="62.2" y="108.85" width="5.18" height="5.18" fill="#bedbed"/><rect x="62.2" y="103.67" width="5.18" height="5.18" fill="#bedbed"/><rect x="62.2" y="98.48" width="5.18" height="5.18" fill="#bedbed"/><rect x="62.2" y="93.3" width="5.18" height="5.18" fill="#bedbed"/><rect x="62.2" y="88.12" width="5.18" height="5.18" fill="#bedbed"/><rect x="62.2" y="82.93" width="5.18" height="5.18" fill="#bedbed"/><rect x="62.2" y="77.75" width="5.18" height="5.18" fill="#bedbed"/><rect x="62.2" y="72.57" width="5.18" height="5.18" fill="#a3c6e2"/><rect x="62.2" y="67.38" width="5.18" height="5.18" fill="#a3c6e2"/><rect x="62.2" y="62.2" width="5.18" height="5.18" fill="#1b0003"/><rect x="62.2" y="15.55" width="5.18" height="5.18" fill="#1b0003"/><rect x="62.2" y="10.37" width="5.18" height="5.18" fill="#1b0003"/><rect x="57.02" y="139.95" width="5.18" height="5.18" fill="#1b0003"/><rect x="57.02" y="134.77" width="5.18" height="5.18" fill="#6a87af"/><rect x="57.02" y="129.58" width="5.18" height="5.18" fill="#a3c6e2"/><rect x="57.02" y="124.4" width="5.18" height="5.18" fill="#a3c6e2"/><rect x="57.02" y="119.22" width="5.18" height="5.18" fill="#a3c6e2"/><rect x="57.02" y="114.03" width="5.18" height="5.18" fill="#bedbed"/><rect x="57.02" y="108.85" width="5.18" height="5.18" fill="#bedbed"/><rect x="57.02" y="103.67" width="5.18" height="5.18" fill="#bedbed"/><rect x="57.02" y="98.48" width="5.18" height="5.18" fill="#bedbed"/><rect x="57.02" y="93.3" width="5.18" height="5.18" fill="#bedbed"/><rect x="57.02" y="88.12" width="5.18" height="5.18" fill="#bedbed"/><rect x="57.02" y="82.93" width="5.18" height="5.18" fill="#bedbed"/><rect x="57.02" y="77.75" width="5.18" height="5.18" fill="#bedbed"/><rect x="57.02" y="72.57" width="5.18" height="5.18" fill="#a3c6e2"/><rect x="57.02" y="67.38" width="5.18" height="5.18" fill="#a3c6e2"/><rect x="57.02" y="62.2" width="5.18" height="5.18" fill="#223c5b"/><rect x="57.02" y="57.02" width="5.18" height="5.18" fill="#1b0003"/><rect x="57.02" y="51.83" width="5.18" height="5.18" fill="#1b0003"/><rect x="57.02" y="46.65" width="5.18" height="5.18" fill="#1b0003"/><rect x="57.02" y="41.47" width="5.18" height="5.18" fill="#1b0003"/><rect x="57.02" y="36.28" width="5.18" height="5.18" fill="#1b0003"/><rect x="57.02" y="31.1" width="5.18" height="5.18" fill="#1b0003"/><rect x="57.02" y="25.92" width="5.18" height="5.18" fill="#1b0003"/><rect x="57.02" y="20.73" width="5.18" height="5.18" fill="#1b0003"/><rect x="57.02" y="15.55" width="5.18" height="5.18" fill="#6a87af"/><rect x="57.02" y="10.37" width="5.18" height="5.18" fill="#1b0003"/><rect x="57.02" y="5.18" width="5.18" height="5.18" fill="#1b0003"/><rect x="51.83" y="139.95" width="5.18" height="5.18" fill="#1b0003"/><rect x="51.83" y="134.77" width="5.18" height="5.18" fill="#6a87af"/><rect x="51.83" y="129.58" width="5.18" height="5.18" fill="#a3c6e2"/><rect x="51.83" y="124.4" width="5.18" height="5.18" fill="#a3c6e2"/><rect x="51.83" y="119.22" width="5.18" height="5.18" fill="#bedbed"/><rect x="51.83" y="114.03" width="5.18" height="5.18" fill="#bedbed"/><rect x="51.83" y="108.85" width="5.18" height="5.18" fill="#bedbed"/><rect x="51.83" y="103.67" width="5.18" height="5.18" fill="#bedbed"/><rect x="51.83" y="98.48" width="5.18" height="5.18" fill="#bedbed"/><rect x="51.83" y="93.3" width="5.18" height="5.18" fill="#bedbed"/><rect x="51.83" y="88.12" width="5.18" height="5.18" fill="#bedbed"/><rect x="51.83" y="82.93" width="5.18" height="5.18" fill="#bedbed"/><rect x="51.83" y="77.75" width="5.18" height="5.18" fill="#bedbed"/><rect x="51.83" y="72.57" width="5.18" height="5.18" fill="#a3c6e2"/><rect x="51.83" y="67.38" width="5.18" height="5.18" fill="#a3c6e2"/><rect x="51.83" y="62.2" width="5.18" height="5.18" fill="#a3c6e2"/><rect x="51.83" y="57.02" width="5.18" height="5.18" fill="#a3c6e2"/><rect x="51.83" y="51.83" width="5.18" height="5.18" fill="#a3c6e2"/><rect x="51.83" y="46.65" width="5.18" height="5.18" fill="#a3c6e2"/><rect x="51.83" y="41.47" width="5.18" height="5.18" fill="#a3c6e2"/><rect x="51.83" y="36.28" width="5.18" height="5.18" fill="#6a87af"/><rect x="51.83" y="31.1" width="5.18" height="5.18" fill="#6a87af"/><rect x="51.83" y="25.92" width="5.18" height="5.18" fill="#6a87af"/><rect x="51.83" y="20.73" width="5.18" height="5.18" fill="#6a87af"/><rect x="51.83" y="15.55" width="5.18" height="5.18" fill="#7f1e14"/><rect x="51.83" y="10.37" width="5.18" height="5.18" fill="#1b0003"/><rect x="51.83" y="5.18" width="5.18" height="5.18" fill="#e86f3f"/><rect x="51.83" width="5.18" height="5.18" fill="#1b0003"/><rect x="46.65" y="139.95" width="5.18" height="5.18" fill="#1b0003"/><rect x="46.65" y="134.77" width="5.18" height="5.18" fill="#6a87af"/><rect x="46.65" y="129.58" width="5.18" height="5.18" fill="#a3c6e2"/><rect x="46.65" y="124.4" width="5.18" height="5.18" fill="#a3c6e2"/><rect x="46.65" y="119.22" width="5.18" height="5.18" fill="#bedbed"/><rect x="46.65" y="114.03" width="5.18" height="5.18" fill="#bedbed"/><rect x="46.65" y="108.85" width="5.18" height="5.18" fill="#bedbed"/><rect x="46.65" y="103.67" width="5.18" height="5.18" fill="#bedbed"/><rect x="46.65" y="98.48" width="5.18" height="5.18" fill="#bedbed"/><rect x="46.65" y="93.3" width="5.18" height="5.18" fill="#bedbed"/><rect x="46.65" y="88.12" width="5.18" height="5.18" fill="#bedbed"/><rect x="46.65" y="82.93" width="5.18" height="5.18" fill="#bedbed"/><rect x="46.65" y="77.75" width="5.18" height="5.18" fill="#bedbed"/><rect x="46.65" y="72.57" width="5.18" height="5.18" fill="#a3c6e2"/><rect x="46.65" y="67.38" width="5.18" height="5.18" fill="#fff"/><rect x="46.65" y="62.2" width="5.18" height="5.18" fill="#fff"/><rect x="46.65" y="57.02" width="5.18" height="5.18" fill="#fff"/><rect x="46.65" y="51.83" width="5.18" height="5.18" fill="#fff"/><rect x="46.65" y="46.65" width="5.18" height="5.18" fill="#fff"/><rect x="46.65" y="41.47" width="5.18" height="5.18" fill="#fff"/><rect x="46.65" y="36.28" width="5.18" height="5.18" fill="#fff"/><rect x="46.65" y="31.1" width="5.18" height="5.18" fill="#fff"/><rect x="46.65" y="25.92" width="5.18" height="5.18" fill="#fff"/><rect x="46.65" y="20.73" width="5.18" height="5.18" fill="#fff"/><rect x="46.65" y="15.55" width="5.18" height="5.18" fill="#7f1e14"/><rect x="46.65" y="10.37" width="5.18" height="5.18" fill="#1b0003"/><rect x="46.65" y="5.18" width="5.18" height="5.18" fill="#e86f3f"/><rect x="46.65" width="5.18" height="5.18" fill="#1b0003"/><rect x="41.47" y="139.95" width="5.18" height="5.18" fill="#1b0003"/><rect x="41.47" y="134.77" width="5.18" height="5.18" fill="#6a87af"/><rect x="41.47" y="129.58" width="5.18" height="5.18" fill="#a3c6e2"/><rect x="41.47" y="124.4" width="5.18" height="5.18" fill="#a3c6e2"/><rect x="41.47" y="119.22" width="5.18" height="5.18" fill="#bedbed"/><rect x="41.47" y="114.03" width="5.18" height="5.18" fill="#bedbed"/><rect x="41.47" y="108.85" width="5.18" height="5.18" fill="#bedbed"/><rect x="41.47" y="103.67" width="5.18" height="5.18" fill="#bedbed"/><rect x="41.47" y="98.48" width="5.18" height="5.18" fill="#bedbed"/><rect x="41.47" y="93.3" width="5.18" height="5.18" fill="#bedbed"/><rect x="41.47" y="88.12" width="5.18" height="5.18" fill="#bedbed"/><rect x="41.47" y="82.93" width="5.18" height="5.18" fill="#bedbed"/><rect x="41.47" y="77.75" width="5.18" height="5.18" fill="#bedbed"/><rect x="41.47" y="72.57" width="5.18" height="5.18" fill="#a3c6e2"/><rect x="41.47" y="67.38" width="5.18" height="5.18" fill="#a3c6e2"/><rect x="41.47" y="62.2" width="5.18" height="5.18" fill="#bedbed"/><rect x="41.47" y="57.02" width="5.18" height="5.18" fill="#bedbed"/><rect x="41.47" y="51.83" width="5.18" height="5.18" fill="#bedbed"/><rect x="41.47" y="46.65" width="5.18" height="5.18" fill="#bedbed"/><rect x="41.47" y="41.47" width="5.18" height="5.18" fill="#bedbed"/><rect x="41.47" y="36.28" width="5.18" height="5.18" fill="#bedbed"/><rect x="41.47" y="31.1" width="5.18" height="5.18" fill="#bedbed"/><rect x="41.47" y="25.92" width="5.18" height="5.18" fill="#bedbed"/><rect x="41.47" y="20.73" width="5.18" height="5.18" fill="#6a87af"/><rect x="41.47" y="15.55" width="5.18" height="5.18" fill="#7f1e14"/><rect x="41.47" y="10.37" width="5.18" height="5.18" fill="#1b0003"/><rect x="41.47" y="5.18" width="5.18" height="5.18" fill="#f2904e"/><rect x="41.47" width="5.18" height="5.18" fill="#1b0003"/><rect x="36.28" y="5.18" width="5.18" height="5.18" fill="#1b0003"/><rect x="36.28" y="139.95" width="5.18" height="5.18" fill="#1b0003"/><rect x="36.28" y="134.77" width="5.18" height="5.18" fill="#6a87af"/><rect x="36.28" y="129.58" width="5.18" height="5.18" fill="#a3c6e2"/><rect x="36.28" y="124.4" width="5.18" height="5.18" fill="#a3c6e2"/><rect x="36.28" y="119.22" width="5.18" height="5.18" fill="#bedbed"/><rect x="36.28" y="114.03" width="5.18" height="5.18" fill="#bedbed"/><rect x="36.28" y="108.85" width="5.18" height="5.18" fill="#bedbed"/><rect x="36.28" y="103.67" width="5.18" height="5.18" fill="#bedbed"/><rect x="36.28" y="98.48" width="5.18" height="5.18" fill="#bedbed"/><rect x="36.28" y="93.3" width="5.18" height="5.18" fill="#bedbed"/><rect x="36.28" y="88.12" width="5.18" height="5.18" fill="#bedbed"/><rect x="36.28" y="82.93" width="5.18" height="5.18" fill="#a3c6e2"/><rect x="36.28" y="77.75" width="5.18" height="5.18" fill="#a3c6e2"/><rect x="36.28" y="72.57" width="5.18" height="5.18" fill="#fff"/><rect x="36.28" y="67.38" width="5.18" height="5.18" fill="#a3c6e2"/><rect x="36.28" y="62.2" width="5.18" height="5.18" fill="#223c5b"/><rect x="36.28" y="57.02" width="5.18" height="5.18" fill="#1b0003"/><rect x="36.28" y="51.83" width="5.18" height="5.18" fill="#1b0003"/><rect x="36.28" y="46.65" width="5.18" height="5.18" fill="#1b0003"/><rect x="36.28" y="41.47" width="5.18" height="5.18" fill="#1b0003"/><rect x="36.28" y="36.28" width="5.18" height="5.18" fill="#1b0003"/><rect x="36.28" y="31.1" width="5.18" height="5.18" fill="#1b0003"/><rect x="36.28" y="25.92" width="5.18" height="5.18" fill="#1b0003"/><rect x="36.28" y="20.73" width="5.18" height="5.18" fill="#1b0003"/><rect x="36.28" y="15.55" width="5.18" height="5.18" fill="#6a87af"/><rect x="36.28" y="10.37" width="5.18" height="5.18" fill="#1b0003"/><rect x="31.1" y="10.37" width="5.18" height="5.18" fill="#1b0003"/><rect x="31.1" y="139.95" width="5.18" height="5.18" fill="#1b0003"/><rect x="31.1" y="134.77" width="5.18" height="5.18" fill="#6a87af"/><rect x="31.1" y="129.58" width="5.18" height="5.18" fill="#a3c6e2"/><rect x="31.1" y="124.4" width="5.18" height="5.18" fill="#a3c6e2"/><rect x="31.1" y="119.22" width="5.18" height="5.18" fill="#bedbed"/><rect x="31.1" y="114.03" width="5.18" height="5.18" fill="#bedbed"/><rect x="31.1" y="108.85" width="5.18" height="5.18" fill="#bedbed"/><rect x="31.1" y="103.67" width="5.18" height="5.18" fill="#bedbed"/><rect x="31.1" y="98.48" width="5.18" height="5.18" fill="#bedbed"/><rect x="31.1" y="93.3" width="5.18" height="5.18" fill="#bedbed"/><rect x="31.1" y="88.12" width="5.18" height="5.18" fill="#a3c6e2"/><rect x="31.1" y="82.93" width="5.18" height="5.18" fill="#a3c6e2"/><rect x="31.1" y="77.75" width="5.18" height="5.18" fill="#fff"/><rect x="31.1" y="72.57" width="5.18" height="5.18" fill="#fff"/><rect x="31.1" y="67.38" width="5.18" height="5.18" fill="#a3c6e2"/><rect x="31.1" y="62.2" width="5.18" height="5.18" fill="#1b0003"/><rect x="31.1" y="15.55" width="5.18" height="5.18" fill="#1b0003"/><rect x="25.92" y="139.95" width="5.18" height="5.18" fill="#1b0003"/><rect x="25.92" y="134.77" width="5.18" height="5.18" fill="#6a87af"/><rect x="25.92" y="129.58" width="5.18" height="5.18" fill="#a3c6e2"/><rect x="25.92" y="124.4" width="5.18" height="5.18" fill="#a3c6e2"/><rect x="25.92" y="119.22" width="5.18" height="5.18" fill="#bedbed"/><rect x="25.92" y="114.03" width="5.18" height="5.18" fill="#bedbed"/><rect x="25.92" y="108.85" width="5.18" height="5.18" fill="#bedbed"/><rect x="25.92" y="103.67" width="5.18" height="5.18" fill="#bedbed"/><rect x="25.92" y="98.48" width="5.18" height="5.18" fill="#bedbed"/><rect x="25.92" y="93.3" width="5.18" height="5.18" fill="#a3c6e2"/><rect x="25.92" y="88.12" width="5.18" height="5.18" fill="#a3c6e2"/><rect x="25.92" y="82.93" width="5.18" height="5.18" fill="#fff"/><rect x="25.92" y="77.75" width="5.18" height="5.18" fill="#fff"/><rect x="25.92" y="72.57" width="5.18" height="5.18" fill="#a3c6e2"/><rect x="25.92" y="67.38" width="5.18" height="5.18" fill="#6a87af"/><rect x="25.92" y="62.2" width="5.18" height="5.18" fill="#1b0003"/><rect x="20.73" y="139.95" width="5.18" height="5.18" fill="#1b0003"/><rect x="20.73" y="134.77" width="5.18" height="5.18" fill="#6a87af"/><rect x="20.73" y="129.58" width="5.18" height="5.18" fill="#a3c6e2"/><rect x="20.73" y="124.4" width="5.18" height="5.18" fill="#a3c6e2"/><rect x="20.73" y="119.22" width="5.18" height="5.18" fill="#a3c6e2"/><rect x="20.73" y="114.03" width="5.18" height="5.18" fill="#a3c6e2"/><rect x="20.73" y="108.85" width="5.18" height="5.18" fill="#a3c6e2"/><rect x="20.73" y="103.67" width="5.18" height="5.18" fill="#a3c6e2"/><rect x="20.73" y="98.48" width="5.18" height="5.18" fill="#a3c6e2"/><rect x="20.73" y="93.3" width="5.18" height="5.18" fill="#a3c6e2"/><rect x="20.73" y="88.12" width="5.18" height="5.18" fill="#fff"/><rect x="20.73" y="82.93" width="5.18" height="5.18" fill="#fff"/><rect x="20.73" y="77.75" width="5.18" height="5.18" fill="#a3c6e2"/><rect x="20.73" y="72.57" width="5.18" height="5.18" fill="#a3c6e2"/><rect x="20.73" y="67.38" width="5.18" height="5.18" fill="#6a87af"/><rect x="20.73" y="62.2" width="5.18" height="5.18" fill="#1b0003"/><rect x="15.55" y="139.95" width="5.18" height="5.18" fill="#1b0003"/><rect x="15.55" y="134.77" width="5.18" height="5.18" fill="#6a87af"/><rect x="15.55" y="129.58" width="5.18" height="5.18" fill="#a3c6e2"/><rect x="15.55" y="124.4" width="5.18" height="5.18" fill="#fff"/><rect x="15.55" y="119.22" width="5.18" height="5.18" fill="#fff"/><rect x="15.55" y="114.03" width="5.18" height="5.18" fill="#a3c6e2"/><rect x="15.55" y="108.85" width="5.18" height="5.18" fill="#fff"/><rect x="15.55" y="103.67" width="5.18" height="5.18" fill="#fff"/><rect x="15.55" y="98.48" width="5.18" height="5.18" fill="#fff"/><rect x="15.55" y="93.3" width="5.18" height="5.18" fill="#fff"/><rect x="15.55" y="88.12" width="5.18" height="5.18" fill="#fff"/><rect x="15.55" y="82.93" width="5.18" height="5.18" fill="#bedbed"/><rect x="15.55" y="77.75" width="5.18" height="5.18" fill="#bedbed"/><rect x="15.55" y="72.57" width="5.18" height="5.18" fill="#a3c6e2"/><rect x="15.55" y="67.38" width="5.18" height="5.18" fill="#6a87af"/><rect x="15.55" y="62.2" width="5.18" height="5.18" fill="#1b0003"/><rect x="10.37" y="139.95" width="5.18" height="5.18" fill="#1b0003"/><rect x="10.37" y="134.77" width="5.18" height="5.18" fill="#6a87af"/><rect x="10.37" y="129.58" width="5.18" height="5.18" fill="#a3c6e2"/><rect x="10.37" y="124.4" width="5.18" height="5.18" fill="#a3c6e2"/><rect x="10.37" y="119.22" width="5.18" height="5.18" fill="#a3c6e2"/><rect x="10.37" y="114.03" width="5.18" height="5.18" fill="#a3c6e2"/><rect x="10.37" y="108.85" width="5.18" height="5.18" fill="#a3c6e2"/><rect x="10.37" y="103.67" width="5.18" height="5.18" fill="#a3c6e2"/><rect x="10.37" y="98.48" width="5.18" height="5.18" fill="#a3c6e2"/><rect x="10.37" y="93.3" width="5.18" height="5.18" fill="#a3c6e2"/><rect x="10.37" y="88.12" width="5.18" height="5.18" fill="#a3c6e2"/><rect x="10.37" y="82.93" width="5.18" height="5.18" fill="#a3c6e2"/><rect x="10.37" y="77.75" width="5.18" height="5.18" fill="#a3c6e2"/><rect x="10.37" y="72.57" width="5.18" height="5.18" fill="#a3c6e2"/><rect x="10.37" y="67.38" width="5.18" height="5.18" fill="#6a87af"/><rect x="10.37" y="62.2" width="5.18" height="5.18" fill="#1b0003"/><rect x="5.18" y="139.95" width="5.18" height="5.18" fill="#1b0003"/><rect x="5.18" y="134.77" width="5.18" height="5.18" fill="#6a87af"/><rect x="5.18" y="129.58" width="5.18" height="5.18" fill="#6a87af"/><rect x="5.18" y="124.4" width="5.18" height="5.18" fill="#6a87af"/><rect x="5.18" y="119.22" width="5.18" height="5.18" fill="#6a87af"/><rect x="5.18" y="114.03" width="5.18" height="5.18" fill="#6a87af"/><rect x="5.18" y="108.85" width="5.18" height="5.18" fill="#6a87af"/><rect x="5.18" y="103.67" width="5.18" height="5.18" fill="#6a87af"/><rect x="5.18" y="98.48" width="5.18" height="5.18" fill="#6a87af"/><rect x="5.18" y="93.3" width="5.18" height="5.18" fill="#6a87af"/><rect x="5.18" y="88.12" width="5.18" height="5.18" fill="#6a87af"/><rect x="5.18" y="82.93" width="5.18" height="5.18" fill="#6a87af"/><rect x="5.18" y="77.75" width="5.18" height="5.18" fill="#6a87af"/><rect x="5.18" y="72.57" width="5.18" height="5.18" fill="#6a87af"/><rect x="5.18" y="67.38" width="5.18" height="5.18" fill="#6a87af"/><rect x="5.18" y="62.2" width="5.18" height="5.18" fill="#1b0003"/><rect y="134.77" width="5.18" height="5.18" fill="#1b0003"/><rect y="129.58" width="5.18" height="5.18" fill="#1b0003"/><rect y="124.4" width="5.18" height="5.18" fill="#1b0003"/><rect y="119.22" width="5.18" height="5.18" fill="#1b0003"/><rect y="114.03" width="5.18" height="5.18" fill="#1b0003"/><rect y="108.85" width="5.18" height="5.18" fill="#1b0003"/><rect y="103.67" width="5.18" height="5.18" fill="#1b0003"/><rect y="98.48" width="5.18" height="5.18" fill="#1b0003"/><rect y="93.3" width="5.18" height="5.18" fill="#1b0003"/><rect y="88.12" width="5.18" height="5.18" fill="#1b0003"/><rect y="82.93" width="5.18" height="5.18" fill="#1b0003"/><rect y="77.75" width="5.18" height="5.18" fill="#1b0003"/><rect y="72.57" width="5.18" height="5.18" fill="#1b0003"/><rect y="67.38" width="5.18" height="5.18" fill="#1b0003"/></g></g></g></svg>