<svg xmlns="http://www.w3.org/2000/svg" width="77.71" height="139.89" viewBox="0 0 77.71 139.89"><g id="Layer_2" data-name="Layer 2"><g id="items"><g id="Exclamation_Mark" data-name="Exclamation Mark"><rect x="72.53" y="15.54" width="5.18" height="5.18" fill="#1b0003"/><rect x="72.53" y="10.36" width="5.18" height="5.18" fill="#1b0003"/><rect x="72.53" y="5.18" width="5.18" height="5.18" fill="#1b0003"/><rect x="72.53" width="5.18" height="5.18" fill="#1b0003"/><rect x="67.35" y="31.09" width="5.18" height="5.18" fill="#1b0003"/><rect x="67.35" y="25.9" width="5.18" height="5.18" fill="#1b0003"/><rect x="67.35" y="20.72" width="5.18" height="5.18" fill="#1b0003"/><rect x="67.35" y="15.54" width="5.18" height="5.18" fill="#d84b13"/><rect x="67.35" y="10.36" width="5.18" height="5.18" fill="#d84b13"/><rect x="67.35" y="5.18" width="5.18" height="5.18" fill="#d84b13"/><rect x="67.35" width="5.18" height="5.18" fill="#1b0003"/><rect x="62.17" y="46.63" width="5.18" height="5.18" fill="#1b0003"/><rect x="62.17" y="41.45" width="5.18" height="5.18" fill="#1b0003"/><rect x="62.17" y="36.27" width="5.18" height="5.18" fill="#1b0003"/><rect x="62.17" y="31.09" width="5.18" height="5.18" fill="#d84b13"/><rect x="62.17" y="25.9" width="5.18" height="5.18" fill="#d84b13"/><rect x="62.17" y="20.72" width="5.18" height="5.18" fill="#d84b13"/><rect x="62.17" y="15.54" width="5.18" height="5.18" fill="#d84b13"/><rect x="62.17" y="10.36" width="5.18" height="5.18" fill="#db6d12"/><rect x="62.17" y="5.18" width="5.18" height="5.18" fill="#db6d12"/><rect x="62.17" width="5.18" height="5.18" fill="#1b0003"/><rect x="56.99" y="62.17" width="5.18" height="5.18" fill="#1b0003"/><rect x="56.99" y="56.99" width="5.18" height="5.18" fill="#1b0003"/><rect x="56.99" y="51.81" width="5.18" height="5.18" fill="#1b0003"/><rect x="56.99" y="46.63" width="5.18" height="5.18" fill="#d84b13"/><rect x="56.99" y="41.45" width="5.18" height="5.18" fill="#d84b13"/><rect x="56.99" y="36.27" width="5.18" height="5.18" fill="#d84b13"/><rect x="56.99" y="31.09" width="5.18" height="5.18" fill="#d84b13"/><rect x="56.99" y="25.9" width="5.18" height="5.18" fill="#db6d12"/><rect x="56.99" y="20.72" width="5.18" height="5.18" fill="#db6d12"/><rect x="56.99" y="15.54" width="5.18" height="5.18" fill="#db6d12"/><rect x="56.99" y="10.36" width="5.18" height="5.18" fill="#db6d12"/><rect x="56.99" y="5.18" width="5.18" height="5.18" fill="#db6d12"/><rect x="56.99" width="5.18" height="5.18" fill="#1b0003"/><rect x="51.81" y="72.53" width="5.18" height="5.18" fill="#1b0003"/><rect x="51.81" y="67.35" width="5.18" height="5.18" fill="#1b0003"/><rect x="51.81" y="62.17" width="5.18" height="5.18" fill="#d84b13"/><rect x="51.81" y="56.99" width="5.18" height="5.18" fill="#d84b13"/><rect x="51.81" y="51.81" width="5.18" height="5.18" fill="#d84b13"/><rect x="51.81" y="46.63" width="5.18" height="5.18" fill="#d84b13"/><rect x="51.81" y="41.45" width="5.18" height="5.18" fill="#db6d12"/><rect x="51.81" y="36.27" width="5.18" height="5.18" fill="#db6d12"/><rect x="51.81" y="31.09" width="5.18" height="5.18" fill="#db6d12"/><rect x="51.81" y="25.9" width="5.18" height="5.18" fill="#db6d12"/><rect x="51.81" y="20.72" width="5.18" height="5.18" fill="#db6d12"/><rect x="51.81" y="15.54" width="5.18" height="5.18" fill="#db6d12"/><rect x="51.81" y="10.36" width="5.18" height="5.18" fill="#db6d12"/><rect x="51.81" y="5.18" width="5.18" height="5.18" fill="#db6d12"/><rect x="51.81" width="5.18" height="5.18" fill="#1b0003"/><rect x="46.63" y="129.52" width="5.18" height="5.18" fill="#1b0003"/><rect x="46.63" y="124.34" width="5.18" height="5.18" fill="#1b0003"/><rect x="46.63" y="119.16" width="5.18" height="5.18" fill="#1b0003"/><rect x="46.63" y="82.9" width="5.18" height="5.18" fill="#1b0003"/><rect x="46.63" y="77.71" width="5.18" height="5.18" fill="#1b0003"/><rect x="46.63" y="72.53" width="5.18" height="5.18" fill="#d84b13"/><rect x="46.63" y="67.35" width="5.18" height="5.18" fill="#d84b13"/><rect x="46.63" y="62.17" width="5.18" height="5.18" fill="#d84b13"/><rect x="46.63" y="56.99" width="5.18" height="5.18" fill="#db6d12"/><rect x="46.63" y="51.81" width="5.18" height="5.18" fill="#db6d12"/><rect x="46.63" y="46.63" width="5.18" height="5.18" fill="#db6d12"/><rect x="46.63" y="41.45" width="5.18" height="5.18" fill="#db6d12"/><rect x="46.63" y="36.27" width="5.18" height="5.18" fill="#db6d12"/><rect x="46.63" y="31.09" width="5.18" height="5.18" fill="#db6d12"/><rect x="46.63" y="25.9" width="5.18" height="5.18" fill="#db6d12"/><rect x="46.63" y="20.72" width="5.18" height="5.18" fill="#f7c45e"/><rect x="46.63" y="15.54" width="5.18" height="5.18" fill="#f7c45e"/><rect x="46.63" y="10.36" width="5.18" height="5.18" fill="#f7c45e"/><rect x="46.63" y="5.18" width="5.18" height="5.18" fill="#f7c45e"/><rect x="46.63" width="5.18" height="5.18" fill="#1b0003"/><rect x="41.45" y="134.71" width="5.18" height="5.18" fill="#1b0003"/><rect x="41.45" y="129.52" width="5.18" height="5.18" fill="#d84b13"/><rect x="41.45" y="124.34" width="5.18" height="5.18" fill="#d84b13"/><rect x="41.45" y="119.16" width="5.18" height="5.18" fill="#db6d12"/><rect x="41.45" y="113.98" width="5.18" height="5.18" fill="#1b0003"/><rect x="41.45" y="93.26" width="5.18" height="5.18" fill="#1b0003"/><rect x="41.45" y="88.08" width="5.18" height="5.18" fill="#1b0003"/><rect x="41.45" y="82.9" width="5.18" height="5.18" fill="#d84b13"/><rect x="41.45" y="77.71" width="5.18" height="5.18" fill="#d84b13"/><rect x="41.45" y="72.53" width="5.18" height="5.18" fill="#d84b13"/><rect x="41.45" y="67.35" width="5.18" height="5.18" fill="#d84b13"/><rect x="41.45" y="62.17" width="5.18" height="5.18" fill="#db6d12"/><rect x="41.45" y="56.99" width="5.18" height="5.18" fill="#db6d12"/><rect x="41.45" y="51.81" width="5.18" height="5.18" fill="#db6d12"/><rect x="41.45" y="46.63" width="5.18" height="5.18" fill="#db6d12"/><rect x="41.45" y="41.45" width="5.18" height="5.18" fill="#db6d12"/><rect x="41.45" y="36.27" width="5.18" height="5.18" fill="#f7c45e"/><rect x="41.45" y="31.09" width="5.18" height="5.18" fill="#f7c45e"/><rect x="41.45" y="25.9" width="5.18" height="5.18" fill="#f7c45e"/><rect x="41.45" y="20.72" width="5.18" height="5.18" fill="#f7c45e"/><rect x="41.45" y="15.54" width="5.18" height="5.18" fill="#f7c45e"/><rect x="41.45" y="10.36" width="5.18" height="5.18" fill="#f7c45e"/><rect x="41.45" y="5.18" width="5.18" height="5.18" fill="#f7c45e"/><rect x="41.45" width="5.18" height="5.18" fill="#1b0003"/><rect x="36.27" y="134.71" width="5.18" height="5.18" fill="#1b0003"/><rect x="36.27" y="129.52" width="5.18" height="5.18" fill="#d84b13"/><rect x="36.27" y="124.34" width="5.18" height="5.18" fill="#db6d12"/><rect x="36.27" y="119.16" width="5.18" height="5.18" fill="#f7c45e"/><rect x="36.27" y="113.98" width="5.18" height="5.18" fill="#1b0003"/><rect x="36.27" y="98.44" width="5.18" height="5.18" fill="#1b0003"/><rect x="36.27" y="93.26" width="5.18" height="5.18" fill="#d84b13"/><rect x="36.27" y="88.08" width="5.18" height="5.18" fill="#d84b13"/><rect x="36.27" y="82.9" width="5.18" height="5.18" fill="#d84b13"/><rect x="36.27" y="77.71" width="5.18" height="5.18" fill="#db6d12"/><rect x="36.27" y="72.53" width="5.18" height="5.18" fill="#d84b13"/><rect x="36.27" y="67.35" width="5.18" height="5.18" fill="#db6d12"/><rect x="36.27" y="62.17" width="5.18" height="5.18" fill="#db6d12"/><rect x="36.27" y="56.99" width="5.18" height="5.18" fill="#db6d12"/><rect x="36.27" y="51.81" width="5.18" height="5.18" fill="#db6d12"/><rect x="36.27" y="46.63" width="5.18" height="5.18" fill="#f7c45e"/><rect x="36.27" y="41.45" width="5.18" height="5.18" fill="#f7c45e"/><rect x="36.27" y="36.27" width="5.18" height="5.18" fill="#f7c45e"/><rect x="36.27" y="31.09" width="5.18" height="5.18" fill="#f7c45e"/><rect x="36.27" y="25.9" width="5.18" height="5.18" fill="#f7c45e"/><rect x="36.27" y="20.72" width="5.18" height="5.18" fill="#f7c45e"/><rect x="36.27" y="15.54" width="5.18" height="5.18" fill="#f7c45e"/><rect x="36.27" y="10.36" width="5.18" height="5.18" fill="#f7c45e"/><rect x="36.27" y="5.18" width="5.18" height="5.18" fill="#f7c45e"/><rect x="36.27" width="5.18" height="5.18" fill="#1b0003"/><rect x="31.09" y="134.71" width="5.18" height="5.18" fill="#1b0003"/><rect x="31.09" y="129.52" width="5.18" height="5.18" fill="#db6d12"/><rect x="31.09" y="124.34" width="5.18" height="5.18" fill="#f7c45e"/><rect x="31.09" y="119.16" width="5.18" height="5.18" fill="#f9f2d4"/><rect x="31.09" y="113.98" width="5.18" height="5.18" fill="#1b0003"/><rect x="31.09" y="93.26" width="5.18" height="5.18" fill="#1b0003"/><rect x="31.09" y="88.08" width="5.18" height="5.18" fill="#1b0003"/><rect x="31.09" y="82.9" width="5.18" height="5.18" fill="#db6d12"/><rect x="31.09" y="77.71" width="5.18" height="5.18" fill="#d84b13"/><rect x="31.09" y="72.53" width="5.18" height="5.18" fill="#db6d12"/><rect x="31.09" y="67.35" width="5.18" height="5.18" fill="#db6d12"/><rect x="31.09" y="62.17" width="5.18" height="5.18" fill="#f7c45e"/><rect x="31.09" y="56.99" width="5.18" height="5.18" fill="#db6d12"/><rect x="31.09" y="51.81" width="5.18" height="5.18" fill="#f7c45e"/><rect x="31.09" y="46.63" width="5.18" height="5.18" fill="#f7c45e"/><rect x="31.09" y="41.45" width="5.18" height="5.18" fill="#f7c45e"/><rect x="31.09" y="36.27" width="5.18" height="5.18" fill="#f7c45e"/><rect x="31.09" y="31.09" width="5.18" height="5.18" fill="#f7c45e"/><rect x="31.09" y="25.9" width="5.18" height="5.18" fill="#f7c45e"/><rect x="31.09" y="20.72" width="5.18" height="5.18" fill="#f7c45e"/><rect x="31.09" y="15.54" width="5.18" height="5.18" fill="#f7c45e"/><rect x="31.09" y="10.36" width="5.18" height="5.18" fill="#f7c45e"/><rect x="31.09" y="5.18" width="5.18" height="5.18" fill="#f9f2d4"/><rect x="31.09" width="5.18" height="5.18" fill="#1b0003"/><rect x="25.9" y="129.52" width="5.18" height="5.18" fill="#1b0003"/><rect x="25.9" y="124.34" width="5.18" height="5.18" fill="#1b0003"/><rect x="25.9" y="119.16" width="5.18" height="5.18" fill="#1b0003"/><rect x="25.9" y="82.9" width="5.18" height="5.18" fill="#1b0003"/><rect x="25.9" y="77.71" width="5.18" height="5.18" fill="#1b0003"/><rect x="25.9" y="72.53" width="5.18" height="5.18" fill="#db6d12"/><rect x="25.9" y="67.35" width="5.18" height="5.18" fill="#f7c45e"/><rect x="25.9" y="62.17" width="5.18" height="5.18" fill="#db6d12"/><rect x="25.9" y="56.99" width="5.18" height="5.18" fill="#f7c45e"/><rect x="25.9" y="51.81" width="5.18" height="5.18" fill="#f7c45e"/><rect x="25.9" y="46.63" width="5.18" height="5.18" fill="#f7c45e"/><rect x="25.9" y="41.45" width="5.18" height="5.18" fill="#f7c45e"/><rect x="25.9" y="36.27" width="5.18" height="5.18" fill="#f7c45e"/><rect x="25.9" y="31.09" width="5.18" height="5.18" fill="#f7c45e"/><rect x="25.9" y="25.9" width="5.18" height="5.18" fill="#f7c45e"/><rect x="25.9" y="20.72" width="5.18" height="5.18" fill="#f7c45e"/><rect x="25.9" y="15.54" width="5.18" height="5.18" fill="#f7c45e"/><rect x="25.9" y="10.36" width="5.18" height="5.18" fill="#f9f2d4"/><rect x="25.9" y="5.18" width="5.18" height="5.18" fill="#f7c45e"/><rect x="25.9" width="5.18" height="5.18" fill="#1b0003"/><rect x="20.72" y="72.53" width="5.18" height="5.18" fill="#1b0003"/><rect x="20.72" y="67.35" width="5.18" height="5.18" fill="#1b0003"/><rect x="20.72" y="62.17" width="5.18" height="5.18" fill="#f7c45e"/><rect x="20.72" y="56.99" width="5.18" height="5.18" fill="#f7c45e"/><rect x="20.72" y="51.81" width="5.18" height="5.18" fill="#f7c45e"/><rect x="20.72" y="46.63" width="5.18" height="5.18" fill="#f7c45e"/><rect x="20.72" y="41.45" width="5.18" height="5.18" fill="#f7c45e"/><rect x="20.72" y="36.27" width="5.18" height="5.18" fill="#f7c45e"/><rect x="20.72" y="31.09" width="5.18" height="5.18" fill="#f7c45e"/><rect x="20.72" y="25.9" width="5.18" height="5.18" fill="#f7c45e"/><rect x="20.72" y="20.72" width="5.18" height="5.18" fill="#f7c45e"/><rect x="20.72" y="15.54" width="5.18" height="5.18" fill="#f9f2d4"/><rect x="20.72" y="10.36" width="5.18" height="5.18" fill="#f7c45e"/><rect x="20.72" y="5.18" width="5.18" height="5.18" fill="#f9f2d4"/><rect x="20.72" width="5.18" height="5.18" fill="#1b0003"/><rect x="15.54" y="62.17" width="5.18" height="5.18" fill="#1b0003"/><rect x="15.54" y="56.99" width="5.18" height="5.18" fill="#1b0003"/><rect x="15.54" y="51.81" width="5.18" height="5.18" fill="#1b0003"/><rect x="15.54" y="46.63" width="5.18" height="5.18" fill="#f7c45e"/><rect x="15.54" y="41.45" width="5.18" height="5.18" fill="#f7c45e"/><rect x="15.54" y="36.27" width="5.18" height="5.18" fill="#f7c45e"/><rect x="15.54" y="31.09" width="5.18" height="5.18" fill="#f7c45e"/><rect x="15.54" y="25.9" width="5.18" height="5.18" fill="#f7c45e"/><rect x="15.54" y="20.72" width="5.18" height="5.18" fill="#f9f2d4"/><rect x="15.54" y="15.54" width="5.18" height="5.18" fill="#f7c45e"/><rect x="15.54" y="10.36" width="5.18" height="5.18" fill="#f9f2d4"/><rect x="15.54" y="5.18" width="5.18" height="5.18" fill="#f9f2d4"/><rect x="15.54" width="5.18" height="5.18" fill="#1b0003"/><rect x="10.36" y="46.63" width="5.18" height="5.18" fill="#1b0003"/><rect x="10.36" y="41.45" width="5.18" height="5.18" fill="#1b0003"/><rect x="10.36" y="36.27" width="5.18" height="5.18" fill="#1b0003"/><rect x="10.36" y="31.09" width="5.18" height="5.18" fill="#f7c45e"/><rect x="10.36" y="25.9" width="5.18" height="5.18" fill="#f9f2d4"/><rect x="10.36" y="20.72" width="5.18" height="5.18" fill="#f7c45e"/><rect x="10.36" y="15.54" width="5.18" height="5.18" fill="#f9f2d4"/><rect x="10.36" y="10.36" width="5.18" height="5.18" fill="#f9f2d4"/><rect x="10.36" y="5.18" width="5.18" height="5.18" fill="#f9f2d4"/><rect x="10.36" width="5.18" height="5.18" fill="#1b0003"/><rect x="5.18" y="31.09" width="5.18" height="5.18" fill="#1b0003"/><rect x="5.18" y="25.9" width="5.18" height="5.18" fill="#1b0003"/><rect x="5.18" y="20.72" width="5.18" height="5.18" fill="#1b0003"/><rect x="5.18" y="15.54" width="5.18" height="5.18" fill="#f9f2d4"/><rect x="5.18" y="10.36" width="5.18" height="5.18" fill="#f9f2d4"/><rect x="5.18" y="5.18" width="5.18" height="5.18" fill="#f9f2d4"/><rect x="5.18" width="5.18" height="5.18" fill="#1b0003"/><rect y="15.54" width="5.18" height="5.18" fill="#1b0003"/><rect y="10.36" width="5.18" height="5.18" fill="#1b0003"/><rect y="5.18" width="5.18" height="5.18" fill="#1b0003"/><rect width="5.18" height="5.18" fill="#1b0003"/></g></g></g></svg>