<svg xmlns="http://www.w3.org/2000/svg" width="136.8" height="123.56" viewBox="0 0 136.8 123.56"><g id="Layer_2" data-name="Layer 2"><g id="items"><g id="Golden_Key" data-name="Golden Key"><rect y="97.08" width="4.41" height="4.41" fill="#1b0003"/><rect x="4.41" y="101.5" width="4.41" height="4.41" fill="#1b0003"/><rect x="4.41" y="97.08" width="4.41" height="4.41" fill="#d84b13"/><rect x="4.41" y="92.67" width="4.41" height="4.41" fill="#1b0003"/><rect x="8.83" y="105.91" width="4.41" height="4.41" fill="#1b0003"/><rect x="8.83" y="101.5" width="4.41" height="4.41" fill="#d84b13"/><rect x="8.83" y="97.08" width="4.41" height="4.41" fill="#db6d12"/><rect x="8.83" y="92.67" width="4.41" height="4.41" fill="#ffefa1"/><rect x="8.83" y="88.26" width="4.41" height="4.41" fill="#1b0003"/><rect x="13.24" y="110.32" width="4.41" height="4.41" fill="#1b0003"/><rect x="13.24" y="105.91" width="4.41" height="4.41" fill="#d84b13"/><rect x="13.24" y="101.5" width="4.41" height="4.41" fill="#db6d12"/><rect x="13.24" y="97.08" width="4.41" height="4.41" fill="#ffefa1"/><rect x="13.24" y="92.67" width="4.41" height="4.41" fill="#1b0003"/><rect x="13.24" y="83.84" width="4.41" height="4.41" fill="#1b0003"/><rect x="17.65" y="114.73" width="4.41" height="4.41" fill="#1b0003"/><rect x="17.65" y="110.32" width="4.41" height="4.41" fill="#d84b13"/><rect x="17.65" y="105.91" width="4.41" height="4.41" fill="#db6d12"/><rect x="17.65" y="101.5" width="4.41" height="4.41" fill="#ffefa1"/><rect x="17.65" y="97.08" width="4.41" height="4.41" fill="#1b0003"/><rect x="17.65" y="88.26" width="4.41" height="4.41" fill="#1b0003"/><rect x="17.65" y="83.84" width="4.41" height="4.41" fill="#db6d12"/><rect x="17.65" y="79.43" width="4.41" height="4.41" fill="#1b0003"/><rect x="22.06" y="119.15" width="4.41" height="4.41" fill="#1b0003"/><rect x="22.06" y="114.73" width="4.41" height="4.41" fill="#d84b13"/><rect x="22.06" y="110.32" width="4.41" height="4.41" fill="#d84b13"/><rect x="22.06" y="105.91" width="4.41" height="4.41" fill="#f7c45e"/><rect x="22.06" y="101.5" width="4.41" height="4.41" fill="#1b0003"/><rect x="22.06" y="92.67" width="4.41" height="4.41" fill="#1b0003"/><rect x="22.06" y="88.26" width="4.41" height="4.41" fill="#db6d12"/><rect x="22.06" y="83.84" width="4.41" height="4.41" fill="#f7c45e"/><rect x="22.06" y="79.43" width="4.41" height="4.41" fill="#ffefa1"/><rect x="22.06" y="75.02" width="4.41" height="4.41" fill="#1b0003"/><rect x="26.48" y="114.73" width="4.41" height="4.41" fill="#1b0003"/><rect x="26.48" y="110.32" width="4.41" height="4.41" fill="#d84b13"/><rect x="26.48" y="105.91" width="4.41" height="4.41" fill="#db6d12"/><rect x="26.48" y="101.5" width="4.41" height="4.41" fill="#f7c45e"/><rect x="26.48" y="97.08" width="4.41" height="4.41" fill="#1b0003"/><rect x="26.48" y="92.67" width="4.41" height="4.41" fill="#db6d12"/><rect x="26.48" y="88.26" width="4.41" height="4.41" fill="#f7c45e"/><rect x="26.48" y="83.84" width="4.41" height="4.41" fill="#ffefa1"/><rect x="26.48" y="79.43" width="4.41" height="4.41" fill="#1b0003"/><rect x="26.48" y="70.61" width="4.41" height="4.41" fill="#1b0003"/><rect x="30.89" y="110.32" width="4.41" height="4.41" fill="#1b0003"/><rect x="30.89" y="105.91" width="4.41" height="4.41" fill="#db6d12"/><rect x="30.89" y="101.5" width="4.41" height="4.41" fill="#db6d12"/><rect x="30.89" y="97.08" width="4.41" height="4.41" fill="#f7c45e"/><rect x="30.89" y="92.67" width="4.41" height="4.41" fill="#db6d12"/><rect x="30.89" y="88.26" width="4.41" height="4.41" fill="#ffefa1"/><rect x="30.89" y="83.84" width="4.41" height="4.41" fill="#1b0003"/><rect x="30.89" y="75.02" width="4.41" height="4.41" fill="#1b0003"/><rect x="30.89" y="70.61" width="4.41" height="4.41" fill="#db6d12"/><rect x="30.89" y="66.19" width="4.41" height="4.41" fill="#1b0003"/><rect x="35.3" y="105.91" width="4.41" height="4.41" fill="#1b0003"/><rect x="35.3" y="101.5" width="4.41" height="4.41" fill="#db6d12"/><rect x="35.3" y="97.08" width="4.41" height="4.41" fill="#db6d12"/><rect x="35.3" y="92.67" width="4.41" height="4.41" fill="#f7c45e"/><rect x="35.3" y="88.26" width="4.41" height="4.41" fill="#1b0003"/><rect x="35.3" y="79.43" width="4.41" height="4.41" fill="#1b0003"/><rect x="35.3" y="75.02" width="4.41" height="4.41" fill="#db6d12"/><rect x="35.3" y="70.61" width="4.41" height="4.41" fill="#f7c45e"/><rect x="35.3" y="66.19" width="4.41" height="4.41" fill="#ffefa1"/><rect x="35.3" y="61.78" width="4.41" height="4.41" fill="#1b0003"/><rect x="39.72" y="101.5" width="4.41" height="4.41" fill="#1b0003"/><rect x="39.72" y="97.08" width="4.41" height="4.41" fill="#db6d12"/><rect x="39.72" y="92.67" width="4.41" height="4.41" fill="#db6d12"/><rect x="39.72" y="88.26" width="4.41" height="4.41" fill="#f7c45e"/><rect x="39.72" y="83.84" width="4.41" height="4.41" fill="#1b0003"/><rect x="39.72" y="79.43" width="4.41" height="4.41" fill="#db6d12"/><rect x="39.72" y="75.02" width="4.41" height="4.41" fill="#f7c45e"/><rect x="39.72" y="70.61" width="4.41" height="4.41" fill="#ffefa1"/><rect x="39.72" y="66.19" width="4.41" height="4.41" fill="#1b0003"/><rect x="44.13" y="97.08" width="4.41" height="4.41" fill="#1b0003"/><rect x="44.13" y="92.67" width="4.41" height="4.41" fill="#db6d12"/><rect x="44.13" y="88.26" width="4.41" height="4.41" fill="#db6d12"/><rect x="44.13" y="83.84" width="4.41" height="4.41" fill="#f7c45e"/><rect x="44.13" y="79.43" width="4.41" height="4.41" fill="#db6d12"/><rect x="44.13" y="75.02" width="4.41" height="4.41" fill="#ffefa1"/><rect x="44.13" y="70.61" width="4.41" height="4.41" fill="#1b0003"/><rect x="48.54" y="92.67" width="4.41" height="4.41" fill="#1b0003"/><rect x="48.54" y="88.26" width="4.41" height="4.41" fill="#db6d12"/><rect x="48.54" y="83.84" width="4.41" height="4.41" fill="#db6d12"/><rect x="48.54" y="79.43" width="4.41" height="4.41" fill="#f7c45e"/><rect x="48.54" y="75.02" width="4.41" height="4.41" fill="#1b0003"/><rect x="52.95" y="88.26" width="4.41" height="4.41" fill="#1b0003"/><rect x="52.95" y="83.84" width="4.41" height="4.41" fill="#db6d12"/><rect x="52.95" y="79.43" width="4.41" height="4.41" fill="#db6d12"/><rect x="52.95" y="75.02" width="4.41" height="4.41" fill="#f7c45e"/><rect x="52.95" y="70.61" width="4.41" height="4.41" fill="#1b0003"/><rect x="57.37" y="83.84" width="4.41" height="4.41" fill="#1b0003"/><rect x="57.37" y="79.43" width="4.41" height="4.41" fill="#db6d12"/><rect x="57.37" y="75.02" width="4.41" height="4.41" fill="#db6d12"/><rect x="57.37" y="70.61" width="4.41" height="4.41" fill="#f7c45e"/><rect x="57.37" y="66.19" width="4.41" height="4.41" fill="#1b0003"/><rect x="61.78" y="79.43" width="4.41" height="4.41" fill="#1b0003"/><rect x="61.78" y="75.02" width="4.41" height="4.41" fill="#db6d12"/><rect x="61.78" y="70.61" width="4.41" height="4.41" fill="#db6d12"/><rect x="61.78" y="66.19" width="4.41" height="4.41" fill="#f7c45e"/><rect x="61.78" y="61.78" width="4.41" height="4.41" fill="#1b0003"/><rect x="66.19" y="75.02" width="4.41" height="4.41" fill="#1b0003"/><rect x="66.19" y="70.61" width="4.41" height="4.41" fill="#db6d12"/><rect x="66.19" y="66.19" width="4.41" height="4.41" fill="#db6d12"/><rect x="66.19" y="61.78" width="4.41" height="4.41" fill="#f7c45e"/><rect x="66.19" y="57.37" width="4.41" height="4.41" fill="#1b0003"/><rect x="70.61" y="70.61" width="4.41" height="4.41" fill="#1b0003"/><rect x="70.61" y="66.19" width="4.41" height="4.41" fill="#db6d12"/><rect x="70.61" y="61.78" width="4.41" height="4.41" fill="#db6d12"/><rect x="70.61" y="57.37" width="4.41" height="4.41" fill="#f7c45e"/><rect x="70.61" y="52.95" width="4.41" height="4.41" fill="#1b0003"/><rect x="70.61" y="39.72" width="4.41" height="4.41" fill="#1b0003"/><rect x="70.61" y="35.3" width="4.41" height="4.41" fill="#1b0003"/><rect x="70.61" y="30.89" width="4.41" height="4.41" fill="#1b0003"/><rect x="70.61" y="26.48" width="4.41" height="4.41" fill="#1b0003"/><rect x="70.61" y="22.06" width="4.41" height="4.41" fill="#1b0003"/><rect x="75.02" y="66.19" width="4.41" height="4.41" fill="#1b0003"/><rect x="75.02" y="61.78" width="4.41" height="4.41" fill="#db6d12"/><rect x="75.02" y="57.37" width="4.41" height="4.41" fill="#db6d12"/><rect x="75.02" y="52.95" width="4.41" height="4.41" fill="#f7c45e"/><rect x="75.02" y="48.54" width="4.41" height="4.41" fill="#1b0003"/><rect x="75.02" y="44.13" width="4.41" height="4.41" fill="#1b0003"/><rect x="75.02" y="39.72" width="4.41" height="4.41" fill="#db6d12"/><rect x="75.02" y="35.3" width="4.41" height="4.41" fill="#db6d12"/><rect x="75.02" y="30.89" width="4.41" height="4.41" fill="#db6d12"/><rect x="75.02" y="26.48" width="4.41" height="4.41" fill="#db6d12"/><rect x="75.02" y="22.06" width="4.41" height="4.41" fill="#db6d12"/><rect x="75.02" y="17.65" width="4.41" height="4.41" fill="#1b0003"/><rect x="75.02" y="13.24" width="4.41" height="4.41" fill="#1b0003"/><rect x="79.43" y="61.78" width="4.41" height="4.41" fill="#1b0003"/><rect x="79.43" y="57.37" width="4.41" height="4.41" fill="#db6d12"/><rect x="79.43" y="52.95" width="4.41" height="4.41" fill="#db6d12"/><rect x="79.43" y="48.54" width="4.41" height="4.41" fill="#db6d12"/><rect x="79.43" y="44.13" width="4.41" height="4.41" fill="#d84b13"/><rect x="79.43" y="39.72" width="4.41" height="4.41" fill="#d84b13"/><rect x="79.43" y="35.3" width="4.41" height="4.41" fill="#d84b13"/><rect x="79.43" y="30.89" width="4.41" height="4.41" fill="#d84b13"/><rect x="79.43" y="26.48" width="4.41" height="4.41" fill="#d84b13"/><rect x="79.43" y="22.06" width="4.41" height="4.41" fill="#d84b13"/><rect x="79.43" y="17.65" width="4.41" height="4.41" fill="#f7c45e"/><rect x="79.43" y="13.24" width="4.41" height="4.41" fill="#f7c45e"/><rect x="79.43" y="8.83" width="4.41" height="4.41" fill="#1b0003"/><rect x="83.84" y="57.37" width="4.41" height="4.41" fill="#1b0003"/><rect x="83.84" y="52.95" width="4.41" height="4.41" fill="#d84b13"/><rect x="83.84" y="48.54" width="4.41" height="4.41" fill="#db6d12"/><rect x="83.84" y="44.13" width="4.41" height="4.41" fill="#ffefa1"/><rect x="83.84" y="39.72" width="4.41" height="4.41" fill="#1b0003"/><rect x="83.84" y="35.3" width="4.41" height="4.41" fill="#1b0003"/><rect x="83.84" y="30.89" width="4.41" height="4.41" fill="#1b0003"/><rect x="83.84" y="26.48" width="4.41" height="4.41" fill="#1b0003"/><rect x="83.84" y="22.06" width="4.41" height="4.41" fill="#1b0003"/><rect x="83.84" y="17.65" width="4.41" height="4.41" fill="#f7c45e"/><rect x="83.84" y="13.24" width="4.41" height="4.41" fill="#f7c45e"/><rect x="83.84" y="8.83" width="4.41" height="4.41" fill="#f7c45e"/><rect x="83.84" y="4.41" width="4.41" height="4.41" fill="#1b0003"/><rect x="88.26" y="57.37" width="4.41" height="4.41" fill="#1b0003"/><rect x="88.26" y="52.95" width="4.41" height="4.41" fill="#db6d12"/><rect x="88.26" y="48.54" width="4.41" height="4.41" fill="#ffefa1"/><rect x="88.26" y="44.13" width="4.41" height="4.41" fill="#1b0003"/><rect x="88.26" y="17.65" width="4.41" height="4.41" fill="#1b0003"/><rect x="88.26" y="13.24" width="4.41" height="4.41" fill="#f7c45e"/><rect x="88.26" y="8.83" width="4.41" height="4.41" fill="#f7c45e"/><rect x="88.26" y="4.41" width="4.41" height="4.41" fill="#1b0003"/><rect x="92.67" y="61.78" width="4.41" height="4.41" fill="#1b0003"/><rect x="92.67" y="57.37" width="4.41" height="4.41" fill="#d84b13"/><rect x="92.67" y="52.95" width="4.41" height="4.41" fill="#ffefa1"/><rect x="92.67" y="48.54" width="4.41" height="4.41" fill="#1b0003"/><rect x="92.67" y="13.24" width="4.41" height="4.41" fill="#1b0003"/><rect x="92.67" y="8.83" width="4.41" height="4.41" fill="#f7c45e"/><rect x="92.67" y="4.41" width="4.41" height="4.41" fill="#ffefa1"/><rect x="92.67" width="4.41" height="4.41" fill="#1b0003"/><rect x="97.08" y="61.78" width="4.41" height="4.41" fill="#1b0003"/><rect x="97.08" y="57.37" width="4.41" height="4.41" fill="#db6d12"/><rect x="97.08" y="52.95" width="4.41" height="4.41" fill="#ffefa1"/><rect x="97.08" y="48.54" width="4.41" height="4.41" fill="#1b0003"/><rect x="97.08" y="13.24" width="4.41" height="4.41" fill="#1b0003"/><rect x="97.08" y="8.83" width="4.41" height="4.41" fill="#f7c45e"/><rect x="97.08" y="4.41" width="4.41" height="4.41" fill="#f7c45e"/><rect x="97.08" width="4.41" height="4.41" fill="#1b0003"/><rect x="101.5" y="61.78" width="4.41" height="4.41" fill="#1b0003"/><rect x="101.5" y="57.37" width="4.41" height="4.41" fill="#db6d12"/><rect x="101.5" y="52.95" width="4.41" height="4.41" fill="#ffefa1"/><rect x="101.5" y="48.54" width="4.41" height="4.41" fill="#1b0003"/><rect x="101.5" y="13.24" width="4.41" height="4.41" fill="#1b0003"/><rect x="101.5" y="8.83" width="4.41" height="4.41" fill="#f7c45e"/><rect x="101.5" y="4.41" width="4.41" height="4.41" fill="#ffefa1"/><rect x="101.5" width="4.41" height="4.41" fill="#1b0003"/><rect x="105.91" y="61.78" width="4.41" height="4.41" fill="#1b0003"/><rect x="105.91" y="57.37" width="4.41" height="4.41" fill="#db6d12"/><rect x="105.91" y="52.95" width="4.41" height="4.41" fill="#ffefa1"/><rect x="105.91" y="48.54" width="4.41" height="4.41" fill="#1b0003"/><rect x="105.91" y="13.24" width="4.41" height="4.41" fill="#1b0003"/><rect x="105.91" y="8.83" width="4.41" height="4.41" fill="#f7c45e"/><rect x="105.91" y="4.41" width="4.41" height="4.41" fill="#ffefa1"/><rect x="105.91" width="4.41" height="4.41" fill="#1b0003"/><rect x="110.32" y="61.78" width="4.41" height="4.41" fill="#1b0003"/><rect x="110.32" y="57.37" width="4.41" height="4.41" fill="#db6d12"/><rect x="110.32" y="52.95" width="4.41" height="4.41" fill="#db6d12"/><rect x="110.32" y="48.54" width="4.41" height="4.41" fill="#1b0003"/><rect x="110.32" y="13.24" width="4.41" height="4.41" fill="#1b0003"/><rect x="110.32" y="8.83" width="4.41" height="4.41" fill="#f7c45e"/><rect x="110.32" y="4.41" width="4.41" height="4.41" fill="#ffefa1"/><rect x="110.32" width="4.41" height="4.41" fill="#1b0003"/><rect x="114.73" y="57.37" width="4.41" height="4.41" fill="#1b0003"/><rect x="114.73" y="52.95" width="4.41" height="4.41" fill="#db6d12"/><rect x="114.73" y="48.54" width="4.41" height="4.41" fill="#f7c45e"/><rect x="114.73" y="44.13" width="4.41" height="4.41" fill="#1b0003"/><rect x="114.73" y="17.65" width="4.41" height="4.41" fill="#1b0003"/><rect x="114.73" y="13.24" width="4.41" height="4.41" fill="#f7c45e"/><rect x="114.73" y="8.83" width="4.41" height="4.41" fill="#ffefa1"/><rect x="114.73" y="4.41" width="4.41" height="4.41" fill="#1b0003"/><rect x="119.15" y="57.37" width="4.41" height="4.41" fill="#1b0003"/><rect x="119.15" y="52.95" width="4.41" height="4.41" fill="#db6d12"/><rect x="119.15" y="48.54" width="4.41" height="4.41" fill="#db6d12"/><rect x="119.15" y="44.13" width="4.41" height="4.41" fill="#f7c45e"/><rect x="119.15" y="39.72" width="4.41" height="4.41" fill="#1b0003"/><rect x="119.15" y="35.3" width="4.41" height="4.41" fill="#1b0003"/><rect x="119.15" y="30.89" width="4.41" height="4.41" fill="#1b0003"/><rect x="119.15" y="26.48" width="4.41" height="4.41" fill="#1b0003"/><rect x="119.15" y="22.06" width="4.41" height="4.41" fill="#1b0003"/><rect x="119.15" y="17.65" width="4.41" height="4.41" fill="#f7c45e"/><rect x="119.15" y="13.24" width="4.41" height="4.41" fill="#f7c45e"/><rect x="119.15" y="8.83" width="4.41" height="4.41" fill="#ffefa1"/><rect x="119.15" y="4.41" width="4.41" height="4.41" fill="#1b0003"/><rect x="123.56" y="52.95" width="4.41" height="4.41" fill="#1b0003"/><rect x="123.56" y="48.54" width="4.41" height="4.41" fill="#db6d12"/><rect x="123.56" y="44.13" width="4.41" height="4.41" fill="#f7c45e"/><rect x="123.56" y="39.72" width="4.41" height="4.41" fill="#f7c45e"/><rect x="123.56" y="35.3" width="4.41" height="4.41" fill="#f7c45e"/><rect x="123.56" y="30.89" width="4.41" height="4.41" fill="#f7c45e"/><rect x="123.56" y="26.48" width="4.41" height="4.41" fill="#f7c45e"/><rect x="123.56" y="22.06" width="4.41" height="4.41" fill="#f7c45e"/><rect x="123.56" y="17.65" width="4.41" height="4.41" fill="#ffefa1"/><rect x="123.56" y="13.24" width="4.41" height="4.41" fill="#ffefa1"/><rect x="123.56" y="8.83" width="4.41" height="4.41" fill="#1b0003"/><rect x="127.97" y="48.54" width="4.41" height="4.41" fill="#1b0003"/><rect x="127.97" y="44.13" width="4.41" height="4.41" fill="#1b0003"/><rect x="127.97" y="39.72" width="4.41" height="4.41" fill="#f7c45e"/><rect x="127.97" y="35.3" width="4.41" height="4.41" fill="#f7c45e"/><rect x="127.97" y="30.89" width="4.41" height="4.41" fill="#ffefa1"/><rect x="127.97" y="26.48" width="4.41" height="4.41" fill="#ffefa1"/><rect x="127.97" y="22.06" width="4.41" height="4.41" fill="#ffefa1"/><rect x="127.97" y="17.65" width="4.41" height="4.41" fill="#1b0003"/><rect x="127.97" y="13.24" width="4.41" height="4.41" fill="#1b0003"/><rect x="132.38" y="39.72" width="4.41" height="4.41" fill="#1b0003"/><rect x="132.38" y="35.3" width="4.41" height="4.41" fill="#1b0003"/><rect x="132.38" y="30.89" width="4.41" height="4.41" fill="#1b0003"/><rect x="132.38" y="26.48" width="4.41" height="4.41" fill="#1b0003"/><rect x="132.38" y="22.06" width="4.41" height="4.41" fill="#1b0003"/></g></g></g></svg>