<svg xmlns="http://www.w3.org/2000/svg" width="172.79" height="143" viewBox="0 0 172.79 143"><g id="Layer_2" data-name="Layer 2"><g id="items"><g id="Grilled_Fish" data-name="Grilled Fish"><rect x="166.83" y="131.08" width="5.96" height="5.96" fill="#1b0003"/><rect x="160.87" y="137.04" width="5.96" height="5.96" fill="#1b0003"/><rect x="160.87" y="131.08" width="5.96" height="5.96" fill="#ef8741"/><rect x="160.87" y="125.12" width="5.96" height="5.96" fill="#1b0003"/><rect x="154.91" y="131.08" width="5.96" height="5.96" fill="#1b0003"/><rect x="154.91" y="125.12" width="5.96" height="5.96" fill="#ef8741"/><rect x="154.91" y="119.16" width="5.96" height="5.96" fill="#1b0003"/><rect x="154.91" y="65.54" width="5.96" height="5.96" fill="#1b0003"/><rect x="154.91" y="59.58" width="5.96" height="5.96" fill="#1b0003"/><rect x="154.91" y="53.62" width="5.96" height="5.96" fill="#1b0003"/><rect x="154.91" y="47.67" width="5.96" height="5.96" fill="#1b0003"/><rect x="154.91" y="41.71" width="5.96" height="5.96" fill="#1b0003"/><rect x="154.91" y="35.75" width="5.96" height="5.96" fill="#1b0003"/><rect x="154.91" y="29.79" width="5.96" height="5.96" fill="#1b0003"/><rect x="148.96" y="125.12" width="5.96" height="5.96" fill="#1b0003"/><rect x="148.96" y="119.16" width="5.96" height="5.96" fill="#a84a24"/><rect x="148.96" y="113.21" width="5.96" height="5.96" fill="#1b0003"/><rect x="148.96" y="77.46" width="5.96" height="5.96" fill="#1b0003"/><rect x="148.96" y="71.5" width="5.96" height="5.96" fill="#1b0003"/><rect x="148.96" y="65.54" width="5.96" height="5.96" fill="#a84a24"/><rect x="148.96" y="59.58" width="5.96" height="5.96" fill="#a84a24"/><rect x="148.96" y="53.62" width="5.96" height="5.96" fill="#a84a24"/><rect x="148.96" y="47.67" width="5.96" height="5.96" fill="#a84a24"/><rect x="148.96" y="41.71" width="5.96" height="5.96" fill="#a84a24"/><rect x="148.96" y="35.75" width="5.96" height="5.96" fill="#a84a24"/><rect x="148.96" y="29.79" width="5.96" height="5.96" fill="#ef8741"/><rect x="148.96" y="23.83" width="5.96" height="5.96" fill="#1b0003"/><rect x="148.96" y="17.87" width="5.96" height="5.96" fill="#1b0003"/><rect x="143" y="119.16" width="5.96" height="5.96" fill="#1b0003"/><rect x="143" y="113.21" width="5.96" height="5.96" fill="#a84a24"/><rect x="143" y="107.25" width="5.96" height="5.96" fill="#1b0003"/><rect x="143" y="83.41" width="5.96" height="5.96" fill="#1b0003"/><rect x="143" y="77.46" width="5.96" height="5.96" fill="#a84a24"/><rect x="143" y="71.5" width="5.96" height="5.96" fill="#a84a24"/><rect x="143" y="65.54" width="5.96" height="5.96" fill="#a84a24"/><rect x="143" y="59.58" width="5.96" height="5.96" fill="#ef8741"/><rect x="143" y="53.62" width="5.96" height="5.96" fill="#ef8741"/><rect x="143" y="47.67" width="5.96" height="5.96" fill="#ef8741"/><rect x="143" y="41.71" width="5.96" height="5.96" fill="#ef8741"/><rect x="143" y="35.75" width="5.96" height="5.96" fill="#ef8741"/><rect x="143" y="29.79" width="5.96" height="5.96" fill="#fa9c5c"/><rect x="143" y="23.83" width="5.96" height="5.96" fill="#fa9c5c"/><rect x="143" y="17.87" width="5.96" height="5.96" fill="#fa9c5c"/><rect x="143" y="11.92" width="5.96" height="5.96" fill="#1b0003"/><rect x="137.04" y="113.21" width="5.96" height="5.96" fill="#1b0003"/><rect x="137.04" y="107.25" width="5.96" height="5.96" fill="#a84a24"/><rect x="137.04" y="101.29" width="5.96" height="5.96" fill="#1b0003"/><rect x="137.04" y="89.37" width="5.96" height="5.96" fill="#1b0003"/><rect x="137.04" y="83.41" width="5.96" height="5.96" fill="#a84a24"/><rect x="137.04" y="77.46" width="5.96" height="5.96" fill="#a84a24"/><rect x="137.04" y="71.5" width="5.96" height="5.96" fill="#a84a24"/><rect x="137.04" y="65.54" width="5.96" height="5.96" fill="#ef8741"/><rect x="137.04" y="59.58" width="5.96" height="5.96" fill="#ef8741"/><rect x="137.04" y="53.62" width="5.96" height="5.96" fill="#ef8741"/><rect x="137.04" y="47.67" width="5.96" height="5.96" fill="#fa9c5c"/><rect x="137.04" y="41.71" width="5.96" height="5.96" fill="#ef8741"/><rect x="137.04" y="35.75" width="5.96" height="5.96" fill="#fa9c5c"/><rect x="137.04" y="29.79" width="5.96" height="5.96" fill="#fa9c5c"/><rect x="137.04" y="23.83" width="5.96" height="5.96" fill="#fa9c5c"/><rect x="137.04" y="17.87" width="5.96" height="5.96" fill="#fa9c5c"/><rect x="137.04" y="11.92" width="5.96" height="5.96" fill="#fa9c5c"/><rect x="137.04" y="5.96" width="5.96" height="5.96" fill="#1b0003"/><rect x="131.08" y="107.25" width="5.96" height="5.96" fill="#1b0003"/><rect x="131.08" y="101.29" width="5.96" height="5.96" fill="#a84a24"/><rect x="131.08" y="95.33" width="5.96" height="5.96" fill="#1b0003"/><rect x="131.08" y="89.37" width="5.96" height="5.96" fill="#a84a24"/><rect x="131.08" y="83.41" width="5.96" height="5.96" fill="#a84a24"/><rect x="131.08" y="77.46" width="5.96" height="5.96" fill="#ef8741"/><rect x="131.08" y="71.5" width="5.96" height="5.96" fill="#ef8741"/><rect x="131.08" y="65.54" width="5.96" height="5.96" fill="#ef8741"/><rect x="131.08" y="59.58" width="5.96" height="5.96" fill="#fa9c5c"/><rect x="131.08" y="53.62" width="5.96" height="5.96" fill="#fa9c5c"/><rect x="131.08" y="47.67" width="5.96" height="5.96" fill="#fa9c5c"/><rect x="131.08" y="41.71" width="5.96" height="5.96" fill="#ef8741"/><rect x="131.08" y="35.75" width="5.96" height="5.96" fill="#fa9c5c"/><rect x="131.08" y="29.79" width="5.96" height="5.96" fill="#fa9c5c"/><rect x="131.08" y="23.83" width="5.96" height="5.96" fill="#fa9c5c"/><rect x="131.08" y="17.87" width="5.96" height="5.96" fill="#fa9c5c"/><rect x="131.08" y="11.92" width="5.96" height="5.96" fill="#fa9c5c"/><rect x="131.08" y="5.96" width="5.96" height="5.96" fill="#1b0003"/><rect x="125.12" y="101.29" width="5.96" height="5.96" fill="#1b0003"/><rect x="125.12" y="95.33" width="5.96" height="5.96" fill="#a84a24"/><rect x="125.12" y="89.37" width="5.96" height="5.96" fill="#a84a24"/><rect x="125.12" y="83.41" width="5.96" height="5.96" fill="#ef8741"/><rect x="125.12" y="77.46" width="5.96" height="5.96" fill="#ef8741"/><rect x="125.12" y="71.5" width="5.96" height="5.96" fill="#fa9c5c"/><rect x="125.12" y="65.54" width="5.96" height="5.96" fill="#fa9c5c"/><rect x="125.12" y="59.58" width="5.96" height="5.96" fill="#fa9c5c"/><rect x="125.12" y="53.62" width="5.96" height="5.96" fill="#fa9c5c"/><rect x="125.12" y="47.67" width="5.96" height="5.96" fill="#fa9c5c"/><rect x="125.12" y="41.71" width="5.96" height="5.96" fill="#ef8741"/><rect x="125.12" y="35.75" width="5.96" height="5.96" fill="#fa9c5c"/><rect x="125.12" y="29.79" width="5.96" height="5.96" fill="#a84a24"/><rect x="125.12" y="23.83" width="5.96" height="5.96" fill="#fa9c5c"/><rect x="125.12" y="17.87" width="5.96" height="5.96" fill="#a84a24"/><rect x="125.12" y="11.92" width="5.96" height="5.96" fill="#fa9c5c"/><rect x="125.12" y="5.96" width="5.96" height="5.96" fill="#1b0003"/><rect x="119.16" y="101.29" width="5.96" height="5.96" fill="#1b0003"/><rect x="119.16" y="95.33" width="5.96" height="5.96" fill="#a84a24"/><rect x="119.16" y="89.37" width="5.96" height="5.96" fill="#ef8741"/><rect x="119.16" y="83.41" width="5.96" height="5.96" fill="#ef8741"/><rect x="119.16" y="77.46" width="5.96" height="5.96" fill="#fa9c5c"/><rect x="119.16" y="71.5" width="5.96" height="5.96" fill="#fa9c5c"/><rect x="119.16" y="65.54" width="5.96" height="5.96" fill="#ef8741"/><rect x="119.16" y="59.58" width="5.96" height="5.96" fill="#fa9c5c"/><rect x="119.16" y="53.62" width="5.96" height="5.96" fill="#fa9c5c"/><rect x="119.16" y="47.67" width="5.96" height="5.96" fill="#fa9c5c"/><rect x="119.16" y="41.71" width="5.96" height="5.96" fill="#ef8741"/><rect x="119.16" y="35.75" width="5.96" height="5.96" fill="#fa9c5c"/><rect x="119.16" y="29.79" width="5.96" height="5.96" fill="#fa9c5c"/><rect x="119.16" y="23.83" width="5.96" height="5.96" fill="#a84a24"/><rect x="119.16" y="17.87" width="5.96" height="5.96" fill="#fa9c5c"/><rect x="119.16" y="11.92" width="5.96" height="5.96" fill="#fa9c5c"/><rect x="119.16" y="5.96" width="5.96" height="5.96" fill="#1b0003"/><rect x="113.21" y="107.25" width="5.96" height="5.96" fill="#1b0003"/><rect x="113.21" y="101.29" width="5.96" height="5.96" fill="#a84a24"/><rect x="113.21" y="95.33" width="5.96" height="5.96" fill="#a84a24"/><rect x="113.21" y="89.37" width="5.96" height="5.96" fill="#ef8741"/><rect x="113.21" y="83.41" width="5.96" height="5.96" fill="#fa9c5c"/><rect x="113.21" y="77.46" width="5.96" height="5.96" fill="#fa9c5c"/><rect x="113.21" y="71.5" width="5.96" height="5.96" fill="#fa9c5c"/><rect x="113.21" y="65.54" width="5.96" height="5.96" fill="#fa9c5c"/><rect x="113.21" y="59.58" width="5.96" height="5.96" fill="#ef8741"/><rect x="113.21" y="53.62" width="5.96" height="5.96" fill="#fa9c5c"/><rect x="113.21" y="47.67" width="5.96" height="5.96" fill="#fa9c5c"/><rect x="113.21" y="41.71" width="5.96" height="5.96" fill="#ef8741"/><rect x="113.21" y="35.75" width="5.96" height="5.96" fill="#fa9c5c"/><rect x="113.21" y="29.79" width="5.96" height="5.96" fill="#a84a24"/><rect x="113.21" y="23.83" width="5.96" height="5.96" fill="#fa9c5c"/><rect x="113.21" y="17.87" width="5.96" height="5.96" fill="#a84a24"/><rect x="113.21" y="11.92" width="5.96" height="5.96" fill="#fa9c5c"/><rect x="113.21" y="5.96" width="5.96" height="5.96" fill="#1b0003"/><rect x="107.25" y="107.25" width="5.96" height="5.96" fill="#1b0003"/><rect x="107.25" y="101.29" width="5.96" height="5.96" fill="#a84a24"/><rect x="107.25" y="95.33" width="5.96" height="5.96" fill="#ef8741"/><rect x="107.25" y="89.37" width="5.96" height="5.96" fill="#fa9c5c"/><rect x="107.25" y="83.41" width="5.96" height="5.96" fill="#fa9c5c"/><rect x="107.25" y="77.46" width="5.96" height="5.96" fill="#fa9c5c"/><rect x="107.25" y="71.5" width="5.96" height="5.96" fill="#fa9c5c"/><rect x="107.25" y="65.54" width="5.96" height="5.96" fill="#fa9c5c"/><rect x="107.25" y="59.58" width="5.96" height="5.96" fill="#ef8741"/><rect x="107.25" y="53.62" width="5.96" height="5.96" fill="#ef8741"/><rect x="107.25" y="47.67" width="5.96" height="5.96" fill="#fa9c5c"/><rect x="107.25" y="41.71" width="5.96" height="5.96" fill="#ef8741"/><rect x="107.25" y="35.75" width="5.96" height="5.96" fill="#fa9c5c"/><rect x="107.25" y="29.79" width="5.96" height="5.96" fill="#fa9c5c"/><rect x="107.25" y="23.83" width="5.96" height="5.96" fill="#fa9c5c"/><rect x="107.25" y="17.87" width="5.96" height="5.96" fill="#fa9c5c"/><rect x="107.25" y="11.92" width="5.96" height="5.96" fill="#1b0003"/><rect x="101.29" y="107.25" width="5.96" height="5.96" fill="#1b0003"/><rect x="101.29" y="101.29" width="5.96" height="5.96" fill="#a84a24"/><rect x="101.29" y="95.33" width="5.96" height="5.96" fill="#ef8741"/><rect x="101.29" y="89.37" width="5.96" height="5.96" fill="#fa9c5c"/><rect x="101.29" y="83.41" width="5.96" height="5.96" fill="#fa9c5c"/><rect x="101.29" y="77.46" width="5.96" height="5.96" fill="#ef8741"/><rect x="101.29" y="71.5" width="5.96" height="5.96" fill="#fa9c5c"/><rect x="101.29" y="65.54" width="5.96" height="5.96" fill="#fa9c5c"/><rect x="101.29" y="59.58" width="5.96" height="5.96" fill="#fa9c5c"/><rect x="101.29" y="53.62" width="5.96" height="5.96" fill="#ef8741"/><rect x="101.29" y="47.67" width="5.96" height="5.96" fill="#fa9c5c"/><rect x="101.29" y="41.71" width="5.96" height="5.96" fill="#fa9c5c"/><rect x="101.29" y="35.75" width="5.96" height="5.96" fill="#ef8741"/><rect x="101.29" y="29.79" width="5.96" height="5.96" fill="#fa9c5c"/><rect x="101.29" y="23.83" width="5.96" height="5.96" fill="#fa9c5c"/><rect x="101.29" y="17.87" width="5.96" height="5.96" fill="#1b0003"/><rect x="95.33" y="107.25" width="5.96" height="5.96" fill="#1b0003"/><rect x="95.33" y="101.29" width="5.96" height="5.96" fill="#a84a24"/><rect x="95.33" y="95.33" width="5.96" height="5.96" fill="#ef8741"/><rect x="95.33" y="89.37" width="5.96" height="5.96" fill="#fa9c5c"/><rect x="95.33" y="83.41" width="5.96" height="5.96" fill="#fa9c5c"/><rect x="95.33" y="77.46" width="5.96" height="5.96" fill="#fa9c5c"/><rect x="95.33" y="71.5" width="5.96" height="5.96" fill="#ef8741"/><rect x="95.33" y="65.54" width="5.96" height="5.96" fill="#fa9c5c"/><rect x="95.33" y="59.58" width="5.96" height="5.96" fill="#fa9c5c"/><rect x="95.33" y="53.62" width="5.96" height="5.96" fill="#ef8741"/><rect x="95.33" y="47.67" width="5.96" height="5.96" fill="#fa9c5c"/><rect x="95.33" y="41.71" width="5.96" height="5.96" fill="#fa9c5c"/><rect x="95.33" y="35.75" width="5.96" height="5.96" fill="#1b0003"/><rect x="95.33" y="29.79" width="5.96" height="5.96" fill="#1b0003"/><rect x="95.33" y="23.83" width="5.96" height="5.96" fill="#1b0003"/><rect x="89.37" y="107.25" width="5.96" height="5.96" fill="#1b0003"/><rect x="89.37" y="101.29" width="5.96" height="5.96" fill="#a84a24"/><rect x="89.37" y="95.33" width="5.96" height="5.96" fill="#ef8741"/><rect x="89.37" y="89.37" width="5.96" height="5.96" fill="#fa9c5c"/><rect x="89.37" y="83.41" width="5.96" height="5.96" fill="#fa9c5c"/><rect x="89.37" y="77.46" width="5.96" height="5.96" fill="#fa9c5c"/><rect x="89.37" y="71.5" width="5.96" height="5.96" fill="#ef8741"/><rect x="89.37" y="65.54" width="5.96" height="5.96" fill="#fa9c5c"/><rect x="89.37" y="59.58" width="5.96" height="5.96" fill="#fa9c5c"/><rect x="89.37" y="53.62" width="5.96" height="5.96" fill="#fa9c5c"/><rect x="89.37" y="47.67" width="5.96" height="5.96" fill="#fa9c5c"/><rect x="89.37" y="41.71" width="5.96" height="5.96" fill="#1b0003"/><rect x="83.42" y="107.25" width="5.96" height="5.96" fill="#1b0003"/><rect x="83.42" y="101.29" width="5.96" height="5.96" fill="#a84a24"/><rect x="83.42" y="95.33" width="5.96" height="5.96" fill="#ef8741"/><rect x="83.42" y="89.37" width="5.96" height="5.96" fill="#fa9c5c"/><rect x="83.42" y="83.41" width="5.96" height="5.96" fill="#ef8741"/><rect x="83.42" y="77.46" width="5.96" height="5.96" fill="#fa9c5c"/><rect x="83.42" y="71.5" width="5.96" height="5.96" fill="#fa9c5c"/><rect x="83.42" y="65.54" width="5.96" height="5.96" fill="#ef8741"/><rect x="83.42" y="59.58" width="5.96" height="5.96" fill="#fa9c5c"/><rect x="83.42" y="53.62" width="5.96" height="5.96" fill="#fa9c5c"/><rect x="83.42" y="47.67" width="5.96" height="5.96" fill="#1b0003"/><rect x="77.46" y="101.29" width="5.96" height="5.96" fill="#1b0003"/><rect x="77.46" y="95.33" width="5.96" height="5.96" fill="#ef8741"/><rect x="77.46" y="89.37" width="5.96" height="5.96" fill="#fa9c5c"/><rect x="77.46" y="83.41" width="5.96" height="5.96" fill="#ef8741"/><rect x="77.46" y="77.46" width="5.96" height="5.96" fill="#fa9c5c"/><rect x="77.46" y="71.5" width="5.96" height="5.96" fill="#fa9c5c"/><rect x="77.46" y="65.54" width="5.96" height="5.96" fill="#fa9c5c"/><rect x="77.46" y="59.58" width="5.96" height="5.96" fill="#1b0003"/><rect x="77.46" y="53.62" width="5.96" height="5.96" fill="#1b0003"/><rect x="77.46" y="47.67" width="5.96" height="5.96" fill="#a84a24"/><rect x="77.46" y="41.71" width="5.96" height="5.96" fill="#1b0003"/><rect x="71.5" y="101.29" width="5.96" height="5.96" fill="#1b0003"/><rect x="71.5" y="95.33" width="5.96" height="5.96" fill="#ef8741"/><rect x="71.5" y="89.37" width="5.96" height="5.96" fill="#ef8741"/><rect x="71.5" y="83.41" width="5.96" height="5.96" fill="#fa9c5c"/><rect x="71.5" y="77.46" width="5.96" height="5.96" fill="#ef8741"/><rect x="71.5" y="71.5" width="5.96" height="5.96" fill="#fa9c5c"/><rect x="71.5" y="65.54" width="5.96" height="5.96" fill="#1b0003"/><rect x="71.5" y="47.67" width="5.96" height="5.96" fill="#1b0003"/><rect x="71.5" y="41.71" width="5.96" height="5.96" fill="#a84a24"/><rect x="71.5" y="35.75" width="5.96" height="5.96" fill="#1b0003"/><rect x="65.54" y="101.29" width="5.96" height="5.96" fill="#1b0003"/><rect x="65.54" y="95.33" width="5.96" height="5.96" fill="#a84a24"/><rect x="65.54" y="89.37" width="5.96" height="5.96" fill="#a84a24"/><rect x="65.54" y="83.41" width="5.96" height="5.96" fill="#fa9c5c"/><rect x="65.54" y="77.46" width="5.96" height="5.96" fill="#fa9c5c"/><rect x="65.54" y="71.5" width="5.96" height="5.96" fill="#1b0003"/><rect x="65.54" y="41.71" width="5.96" height="5.96" fill="#1b0003"/><rect x="65.54" y="35.75" width="5.96" height="5.96" fill="#a84a24"/><rect x="65.54" y="29.79" width="5.96" height="5.96" fill="#1b0003"/><rect x="59.58" y="95.33" width="5.96" height="5.96" fill="#1b0003"/><rect x="59.58" y="89.37" width="5.96" height="5.96" fill="#a84a24"/><rect x="59.58" y="83.41" width="5.96" height="5.96" fill="#fa9c5c"/><rect x="59.58" y="77.46" width="5.96" height="5.96" fill="#fa9c5c"/><rect x="59.58" y="71.5" width="5.96" height="5.96" fill="#1b0003"/><rect x="59.58" y="35.75" width="5.96" height="5.96" fill="#1b0003"/><rect x="59.58" y="29.79" width="5.96" height="5.96" fill="#a84a24"/><rect x="59.58" y="23.83" width="5.96" height="5.96" fill="#1b0003"/><rect x="53.62" y="95.33" width="5.96" height="5.96" fill="#1b0003"/><rect x="53.62" y="89.37" width="5.96" height="5.96" fill="#a84a24"/><rect x="53.62" y="83.41" width="5.96" height="5.96" fill="#a84a24"/><rect x="53.62" y="77.46" width="5.96" height="5.96" fill="#1b0003"/><rect x="53.62" y="29.79" width="5.96" height="5.96" fill="#1b0003"/><rect x="53.62" y="23.83" width="5.96" height="5.96" fill="#ef8741"/><rect x="53.62" y="17.87" width="5.96" height="5.96" fill="#1b0003"/><rect x="47.67" y="77.46" width="5.96" height="5.96" fill="#1b0003"/><rect x="47.67" y="23.83" width="5.96" height="5.96" fill="#1b0003"/><rect x="47.67" y="17.87" width="5.96" height="5.96" fill="#a84a24"/><rect x="47.67" y="11.92" width="5.96" height="5.96" fill="#1b0003"/><rect x="47.67" y="95.33" width="5.96" height="5.96" fill="#1b0003"/><rect x="47.67" y="89.37" width="5.96" height="5.96" fill="#a84a24"/><rect x="47.67" y="83.41" width="5.96" height="5.96" fill="#fa9c5c"/><rect x="41.71" y="83.41" width="5.96" height="5.96" fill="#fa9c5c"/><rect x="41.71" y="77.46" width="5.96" height="5.96" fill="#1b0003"/><rect x="41.71" y="17.87" width="5.96" height="5.96" fill="#1b0003"/><rect x="41.71" y="11.92" width="5.96" height="5.96" fill="#ef8741"/><rect x="41.71" y="5.96" width="5.96" height="5.96" fill="#1b0003"/><rect x="41.71" y="101.29" width="5.96" height="5.96" fill="#1b0003"/><rect x="41.71" y="95.33" width="5.96" height="5.96" fill="#a84a24"/><rect x="41.71" y="89.37" width="5.96" height="5.96" fill="#a84a24"/><rect x="35.75" y="83.41" width="5.96" height="5.96" fill="#fa9c5c"/><rect x="35.75" y="77.46" width="5.96" height="5.96" fill="#1b0003"/><rect x="35.75" y="11.92" width="5.96" height="5.96" fill="#1b0003"/><rect x="35.75" y="5.96" width="5.96" height="5.96" fill="#ef8741"/><rect x="35.75" width="5.96" height="5.96" fill="#1b0003"/><rect x="35.75" y="113.21" width="5.96" height="5.96" fill="#1b0003"/><rect x="35.75" y="107.25" width="5.96" height="5.96" fill="#1b0003"/><rect x="35.75" y="101.29" width="5.96" height="5.96" fill="#a84a24"/><rect x="35.75" y="95.33" width="5.96" height="5.96" fill="#a84a24"/><rect x="35.75" y="89.37" width="5.96" height="5.96" fill="#ef8741"/><rect x="29.79" y="83.41" width="5.96" height="5.96" fill="#fa9c5c"/><rect x="29.79" y="77.46" width="5.96" height="5.96" fill="#1b0003"/><rect x="29.79" y="5.96" width="5.96" height="5.96" fill="#1b0003"/><rect x="29.79" y="125.12" width="5.96" height="5.96" fill="#1b0003"/><rect x="29.79" y="119.16" width="5.96" height="5.96" fill="#1b0003"/><rect x="29.79" y="113.21" width="5.96" height="5.96" fill="#a84a24"/><rect x="29.79" y="107.25" width="5.96" height="5.96" fill="#a84a24"/><rect x="29.79" y="101.29" width="5.96" height="5.96" fill="#ef8741"/><rect x="29.79" y="95.33" width="5.96" height="5.96" fill="#ef8741"/><rect x="29.79" y="89.37" width="5.96" height="5.96" fill="#ef8741"/><rect x="23.83" y="83.41" width="5.96" height="5.96" fill="#fa9c5c"/><rect x="23.83" y="77.46" width="5.96" height="5.96" fill="#fa9c5c"/><rect x="23.83" y="71.5" width="5.96" height="5.96" fill="#1b0003"/><rect x="23.83" y="131.08" width="5.96" height="5.96" fill="#1b0003"/><rect x="23.83" y="125.12" width="5.96" height="5.96" fill="#a84a24"/><rect x="23.83" y="119.16" width="5.96" height="5.96" fill="#a84a24"/><rect x="23.83" y="113.21" width="5.96" height="5.96" fill="#a84a24"/><rect x="23.83" y="107.25" width="5.96" height="5.96" fill="#a84a24"/><rect x="23.83" y="101.29" width="5.96" height="5.96" fill="#ef8741"/><rect x="23.83" y="95.33" width="5.96" height="5.96" fill="#ef8741"/><rect x="23.83" y="89.37" width="5.96" height="5.96" fill="#fa9c5c"/><rect x="17.88" y="83.41" width="5.96" height="5.96" fill="#fa9c5c"/><rect x="17.88" y="77.46" width="5.96" height="5.96" fill="#fa9c5c"/><rect x="17.88" y="71.5" width="5.96" height="5.96" fill="#1b0003"/><rect x="17.88" y="125.12" width="5.96" height="5.96" fill="#1b0003"/><rect x="17.88" y="119.16" width="5.96" height="5.96" fill="#1b0003"/><rect x="17.88" y="113.21" width="5.96" height="5.96" fill="#1b0003"/><rect x="17.88" y="107.25" width="5.96" height="5.96" fill="#1b0003"/><rect x="17.88" y="101.29" width="5.96" height="5.96" fill="#ef8741"/><rect x="17.88" y="95.33" width="5.96" height="5.96" fill="#fa9c5c"/><rect x="17.88" y="89.37" width="5.96" height="5.96" fill="#fa9c5c"/><rect x="11.92" y="83.41" width="5.96" height="5.96" fill="#fa9c5c"/><rect x="11.92" y="77.46" width="5.96" height="5.96" fill="#fa9c5c"/><rect x="11.92" y="71.5" width="5.96" height="5.96" fill="#1b0003"/><rect x="11.92" y="101.29" width="5.96" height="5.96" fill="#1b0003"/><rect x="11.92" y="95.33" width="5.96" height="5.96" fill="#1b0003"/><rect x="11.92" y="89.37" width="5.96" height="5.96" fill="#fa9c5c"/><rect x="5.96" y="83.41" width="5.96" height="5.96" fill="#1b0003"/><rect x="5.96" y="77.46" width="5.96" height="5.96" fill="#fa9c5c"/><rect x="5.96" y="71.5" width="5.96" height="5.96" fill="#fa9c5c"/><rect x="5.96" y="65.54" width="5.96" height="5.96" fill="#1b0003"/><rect x="5.96" y="89.37" width="5.96" height="5.96" fill="#1b0003"/><rect y="77.46" width="5.96" height="5.96" fill="#1b0003"/><rect y="71.5" width="5.96" height="5.96" fill="#1b0003"/><rect y="65.54" width="5.96" height="5.96" fill="#1b0003"/></g></g></g></svg>