<svg xmlns="http://www.w3.org/2000/svg" width="104.33" height="93.54" viewBox="0 0 104.33 93.54"><g id="Layer_2" data-name="Layer 2"><g id="items"><g id="Heart"><rect x="100.74" y="43.17" width="3.6" height="3.6" fill="#1b0003"/><rect x="100.74" y="39.57" width="3.6" height="3.6" fill="#1b0003"/><rect x="100.74" y="35.98" width="3.6" height="3.6" fill="#1b0003"/><rect x="100.74" y="32.38" width="3.6" height="3.6" fill="#1b0003"/><rect x="100.74" y="28.78" width="3.6" height="3.6" fill="#1b0003"/><rect x="100.74" y="25.18" width="3.6" height="3.6" fill="#1b0003"/><rect x="100.74" y="21.59" width="3.6" height="3.6" fill="#1b0003"/><rect x="100.74" y="17.99" width="3.6" height="3.6" fill="#1b0003"/><rect x="97.14" y="50.37" width="3.6" height="3.6" fill="#1b0003"/><rect x="97.14" y="46.77" width="3.6" height="3.6" fill="#1b0003"/><rect x="97.14" y="43.17" width="3.6" height="3.6" fill="#db1943"/><rect x="97.14" y="39.57" width="3.6" height="3.6" fill="#db1943"/><rect x="97.14" y="35.98" width="3.6" height="3.6" fill="#db1943"/><rect x="97.14" y="32.38" width="3.6" height="3.6" fill="#db1943"/><rect x="97.14" y="28.78" width="3.6" height="3.6" fill="#db1943"/><rect x="97.14" y="25.18" width="3.6" height="3.6" fill="#db1943"/><rect x="97.14" y="21.59" width="3.6" height="3.6" fill="#b6294c"/><rect x="97.14" y="17.99" width="3.6" height="3.6" fill="#b6294c"/><rect x="97.14" y="14.39" width="3.6" height="3.6" fill="#1b0003"/><rect x="97.14" y="10.79" width="3.6" height="3.6" fill="#1b0003"/><rect x="93.54" y="53.96" width="3.6" height="3.6" fill="#1b0003"/><rect x="93.54" y="50.37" width="3.6" height="3.6" fill="#db1943"/><rect x="93.54" y="46.77" width="3.6" height="3.6" fill="#db1943"/><rect x="93.54" y="43.17" width="3.6" height="3.6" fill="#db1943"/><rect x="93.54" y="39.57" width="3.6" height="3.6" fill="#db1943"/><rect x="93.54" y="35.98" width="3.6" height="3.6" fill="#db1943"/><rect x="93.54" y="32.38" width="3.6" height="3.6" fill="#db1943"/><rect x="93.54" y="28.78" width="3.6" height="3.6" fill="#db1943"/><rect x="93.54" y="25.18" width="3.6" height="3.6" fill="#db1943"/><rect x="93.54" y="21.59" width="3.6" height="3.6" fill="#b6294c"/><rect x="93.54" y="17.99" width="3.6" height="3.6" fill="#b6294c"/><rect x="93.54" y="14.39" width="3.6" height="3.6" fill="#b6294c"/><rect x="93.54" y="10.79" width="3.6" height="3.6" fill="#b6294c"/><rect x="93.54" y="7.2" width="3.6" height="3.6" fill="#1b0003"/><rect x="89.94" y="57.56" width="3.6" height="3.6" fill="#1b0003"/><rect x="89.94" y="53.96" width="3.6" height="3.6" fill="#db1943"/><rect x="89.94" y="50.37" width="3.6" height="3.6" fill="#db1943"/><rect x="89.94" y="46.77" width="3.6" height="3.6" fill="#db1943"/><rect x="89.94" y="43.17" width="3.6" height="3.6" fill="#db1943"/><rect x="89.94" y="39.57" width="3.6" height="3.6" fill="#db1943"/><rect x="89.94" y="35.98" width="3.6" height="3.6" fill="#db1943"/><rect x="89.94" y="32.38" width="3.6" height="3.6" fill="#db1943"/><rect x="89.94" y="28.78" width="3.6" height="3.6" fill="#b6294c"/><rect x="89.94" y="25.18" width="3.6" height="3.6" fill="#b6294c"/><rect x="89.94" y="21.59" width="3.6" height="3.6" fill="#b6294c"/><rect x="89.94" y="17.99" width="3.6" height="3.6" fill="#eb3824"/><rect x="89.94" y="14.39" width="3.6" height="3.6" fill="#eb3824"/><rect x="89.94" y="10.79" width="3.6" height="3.6" fill="#b6294c"/><rect x="89.94" y="7.2" width="3.6" height="3.6" fill="#b6294c"/><rect x="89.94" y="3.6" width="3.6" height="3.6" fill="#1b0003"/><rect x="86.34" y="61.16" width="3.6" height="3.6" fill="#1b0003"/><rect x="86.34" y="57.56" width="3.6" height="3.6" fill="#db1943"/><rect x="86.34" y="53.96" width="3.6" height="3.6" fill="#db1943"/><rect x="86.34" y="50.37" width="3.6" height="3.6" fill="#db1943"/><rect x="86.34" y="46.77" width="3.6" height="3.6" fill="#db1943"/><rect x="86.34" y="43.17" width="3.6" height="3.6" fill="#db1943"/><rect x="86.34" y="39.57" width="3.6" height="3.6" fill="#db1943"/><rect x="86.34" y="35.98" width="3.6" height="3.6" fill="#db1943"/><rect x="86.34" y="32.38" width="3.6" height="3.6" fill="#db1943"/><rect x="86.34" y="28.78" width="3.6" height="3.6" fill="#b6294c"/><rect x="86.34" y="25.18" width="3.6" height="3.6" fill="#b6294c"/><rect x="86.34" y="21.59" width="3.6" height="3.6" fill="#eb3824"/><rect x="86.34" y="17.99" width="3.6" height="3.6" fill="#eb3824"/><rect x="86.34" y="14.39" width="3.6" height="3.6" fill="#eb3824"/><rect x="86.34" y="10.79" width="3.6" height="3.6" fill="#eb3824"/><rect x="86.34" y="7.2" width="3.6" height="3.6" fill="#eb3824"/><rect x="86.34" y="3.6" width="3.6" height="3.6" fill="#1b0003"/><rect x="82.75" y="64.76" width="3.6" height="3.6" fill="#1b0003"/><rect x="82.75" y="61.16" width="3.6" height="3.6" fill="#db1943"/><rect x="82.75" y="57.56" width="3.6" height="3.6" fill="#db1943"/><rect x="82.75" y="53.96" width="3.6" height="3.6" fill="#db1943"/><rect x="82.75" y="50.37" width="3.6" height="3.6" fill="#db1943"/><rect x="82.75" y="46.77" width="3.6" height="3.6" fill="#b6294c"/><rect x="82.75" y="43.17" width="3.6" height="3.6" fill="#db1943"/><rect x="82.75" y="39.57" width="3.6" height="3.6" fill="#db1943"/><rect x="82.75" y="35.98" width="3.6" height="3.6" fill="#db1943"/><rect x="82.75" y="32.38" width="3.6" height="3.6" fill="#b6294c"/><rect x="82.75" y="28.78" width="3.6" height="3.6" fill="#b6294c"/><rect x="82.75" y="25.18" width="3.6" height="3.6" fill="#eb3824"/><rect x="82.75" y="21.59" width="3.6" height="3.6" fill="#eb3824"/><rect x="82.75" y="17.99" width="3.6" height="3.6" fill="#eb3824"/><rect x="82.75" y="14.39" width="3.6" height="3.6" fill="#eb3824"/><rect x="82.75" y="10.79" width="3.6" height="3.6" fill="#eb3824"/><rect x="82.75" y="7.2" width="3.6" height="3.6" fill="#eb3824"/><rect x="82.75" y="3.6" width="3.6" height="3.6" fill="#eb3824"/><rect x="82.75" width="3.6" height="3.6" fill="#1b0003"/><rect x="79.15" y="68.36" width="3.6" height="3.6" fill="#1b0003"/><rect x="79.15" y="64.76" width="3.6" height="3.6" fill="#db1943"/><rect x="79.15" y="61.16" width="3.6" height="3.6" fill="#db1943"/><rect x="79.15" y="57.56" width="3.6" height="3.6" fill="#db1943"/><rect x="79.15" y="53.96" width="3.6" height="3.6" fill="#db1943"/><rect x="79.15" y="50.37" width="3.6" height="3.6" fill="#b6294c"/><rect x="79.15" y="46.77" width="3.6" height="3.6" fill="#db1943"/><rect x="79.15" y="43.17" width="3.6" height="3.6" fill="#b6294c"/><rect x="79.15" y="39.57" width="3.6" height="3.6" fill="#b6294c"/><rect x="79.15" y="35.98" width="3.6" height="3.6" fill="#b6294c"/><rect x="79.15" y="32.38" width="3.6" height="3.6" fill="#b6294c"/><rect x="79.15" y="28.78" width="3.6" height="3.6" fill="#eb3824"/><rect x="79.15" y="25.18" width="3.6" height="3.6" fill="#eb3824"/><rect x="79.15" y="21.59" width="3.6" height="3.6" fill="#eb3824"/><rect x="79.15" y="17.99" width="3.6" height="3.6" fill="#eb3824"/><rect x="79.15" y="14.39" width="3.6" height="3.6" fill="#eb3824"/><rect x="79.15" y="10.79" width="3.6" height="3.6" fill="#eb3824"/><rect x="79.15" y="7.2" width="3.6" height="3.6" fill="#eb3824"/><rect x="79.15" y="3.6" width="3.6" height="3.6" fill="#eb3824"/><rect x="79.15" width="3.6" height="3.6" fill="#1b0003"/><rect x="75.55" y="71.95" width="3.6" height="3.6" fill="#1b0003"/><rect x="75.55" y="68.36" width="3.6" height="3.6" fill="#db1943"/><rect x="75.55" y="64.76" width="3.6" height="3.6" fill="#db1943"/><rect x="75.55" y="61.16" width="3.6" height="3.6" fill="#db1943"/><rect x="75.55" y="57.56" width="3.6" height="3.6" fill="#db1943"/><rect x="75.55" y="53.96" width="3.6" height="3.6" fill="#b6294c"/><rect x="75.55" y="50.37" width="3.6" height="3.6" fill="#db1943"/><rect x="75.55" y="46.77" width="3.6" height="3.6" fill="#b6294c"/><rect x="75.55" y="43.17" width="3.6" height="3.6" fill="#b6294c"/><rect x="75.55" y="39.57" width="3.6" height="3.6" fill="#b6294c"/><rect x="75.55" y="35.98" width="3.6" height="3.6" fill="#b6294c"/><rect x="75.55" y="32.38" width="3.6" height="3.6" fill="#eb3824"/><rect x="75.55" y="28.78" width="3.6" height="3.6" fill="#eb3824"/><rect x="75.55" y="25.18" width="3.6" height="3.6" fill="#eb3824"/><rect x="75.55" y="21.59" width="3.6" height="3.6" fill="#eb3824"/><rect x="75.55" y="17.99" width="3.6" height="3.6" fill="#eb3824"/><rect x="75.55" y="14.39" width="3.6" height="3.6" fill="#eb3824"/><rect x="75.55" y="10.79" width="3.6" height="3.6" fill="#eb3824"/><rect x="75.55" y="7.2" width="3.6" height="3.6" fill="#eb3824"/><rect x="75.55" y="3.6" width="3.6" height="3.6" fill="#eb3824"/><rect x="75.55" width="3.6" height="3.6" fill="#1b0003"/><rect x="71.95" y="75.55" width="3.6" height="3.6" fill="#1b0003"/><rect x="71.95" y="71.95" width="3.6" height="3.6" fill="#db1943"/><rect x="71.95" y="68.36" width="3.6" height="3.6" fill="#db1943"/><rect x="71.95" y="64.76" width="3.6" height="3.6" fill="#db1943"/><rect x="71.95" y="61.16" width="3.6" height="3.6" fill="#db1943"/><rect x="71.95" y="57.56" width="3.6" height="3.6" fill="#b6294c"/><rect x="71.95" y="53.96" width="3.6" height="3.6" fill="#db1943"/><rect x="71.95" y="50.37" width="3.6" height="3.6" fill="#b6294c"/><rect x="71.95" y="46.77" width="3.6" height="3.6" fill="#b6294c"/><rect x="71.95" y="43.17" width="3.6" height="3.6" fill="#b6294c"/><rect x="71.95" y="39.57" width="3.6" height="3.6" fill="#b6294c"/><rect x="71.95" y="35.98" width="3.6" height="3.6" fill="#eb3824"/><rect x="71.95" y="32.38" width="3.6" height="3.6" fill="#eb3824"/><rect x="71.95" y="28.78" width="3.6" height="3.6" fill="#eb3824"/><rect x="71.95" y="25.18" width="3.6" height="3.6" fill="#eb3824"/><rect x="71.95" y="21.59" width="3.6" height="3.6" fill="#eb3824"/><rect x="71.95" y="17.99" width="3.6" height="3.6" fill="#eb3824"/><rect x="71.95" y="14.39" width="3.6" height="3.6" fill="#eb3824"/><rect x="71.95" y="10.79" width="3.6" height="3.6" fill="#eb3824"/><rect x="71.95" y="7.2" width="3.6" height="3.6" fill="#eb3824"/><rect x="71.95" y="3.6" width="3.6" height="3.6" fill="#eb3824"/><rect x="71.95" width="3.6" height="3.6" fill="#1b0003"/><rect x="68.36" y="79.15" width="3.6" height="3.6" fill="#1b0003"/><rect x="68.36" y="75.55" width="3.6" height="3.6" fill="#db1943"/><rect x="68.36" y="71.95" width="3.6" height="3.6" fill="#db1943"/><rect x="68.36" y="68.36" width="3.6" height="3.6" fill="#db1943"/><rect x="68.36" y="64.76" width="3.6" height="3.6" fill="#db1943"/><rect x="68.36" y="61.16" width="3.6" height="3.6" fill="#b6294c"/><rect x="68.36" y="57.56" width="3.6" height="3.6" fill="#db1943"/><rect x="68.36" y="53.96" width="3.6" height="3.6" fill="#b6294c"/><rect x="68.36" y="50.37" width="3.6" height="3.6" fill="#b6294c"/><rect x="68.36" y="46.77" width="3.6" height="3.6" fill="#b6294c"/><rect x="68.36" y="43.17" width="3.6" height="3.6" fill="#b6294c"/><rect x="68.36" y="39.57" width="3.6" height="3.6" fill="#eb3824"/><rect x="68.36" y="35.98" width="3.6" height="3.6" fill="#eb3824"/><rect x="68.36" y="32.38" width="3.6" height="3.6" fill="#eb3824"/><rect x="68.36" y="28.78" width="3.6" height="3.6" fill="#eb3824"/><rect x="68.36" y="25.18" width="3.6" height="3.6" fill="#eb3824"/><rect x="68.36" y="21.59" width="3.6" height="3.6" fill="#eb3824"/><rect x="68.36" y="17.99" width="3.6" height="3.6" fill="#eb3824"/><rect x="68.36" y="14.39" width="3.6" height="3.6" fill="#eb3824"/><rect x="68.36" y="10.79" width="3.6" height="3.6" fill="#eb3824"/><rect x="68.36" y="7.2" width="3.6" height="3.6" fill="#eb3824"/><rect x="68.36" y="3.6" width="3.6" height="3.6" fill="#eb3824"/><rect x="68.36" width="3.6" height="3.6" fill="#1b0003"/><rect x="64.76" y="82.75" width="3.6" height="3.6" fill="#1b0003"/><rect x="64.76" y="79.15" width="3.6" height="3.6" fill="#db1943"/><rect x="64.76" y="75.55" width="3.6" height="3.6" fill="#db1943"/><rect x="64.76" y="71.95" width="3.6" height="3.6" fill="#db1943"/><rect x="64.76" y="68.36" width="3.6" height="3.6" fill="#db1943"/><rect x="64.76" y="64.76" width="3.6" height="3.6" fill="#b6294c"/><rect x="64.76" y="61.16" width="3.6" height="3.6" fill="#db1943"/><rect x="64.76" y="57.56" width="3.6" height="3.6" fill="#b6294c"/><rect x="64.76" y="53.96" width="3.6" height="3.6" fill="#b6294c"/><rect x="64.76" y="50.37" width="3.6" height="3.6" fill="#b6294c"/><rect x="64.76" y="46.77" width="3.6" height="3.6" fill="#b6294c"/><rect x="64.76" y="43.17" width="3.6" height="3.6" fill="#eb3824"/><rect x="64.76" y="39.57" width="3.6" height="3.6" fill="#eb3824"/><rect x="64.76" y="35.98" width="3.6" height="3.6" fill="#eb3824"/><rect x="64.76" y="32.38" width="3.6" height="3.6" fill="#eb3824"/><rect x="64.76" y="28.78" width="3.6" height="3.6" fill="#eb3824"/><rect x="64.76" y="25.18" width="3.6" height="3.6" fill="#eb3824"/><rect x="64.76" y="21.59" width="3.6" height="3.6" fill="#eb3824"/><rect x="64.76" y="17.99" width="3.6" height="3.6" fill="#eb3824"/><rect x="64.76" y="14.39" width="3.6" height="3.6" fill="#eb3824"/><rect x="64.76" y="10.79" width="3.6" height="3.6" fill="#eb3824"/><rect x="64.76" y="7.2" width="3.6" height="3.6" fill="#eb3824"/><rect x="64.76" y="3.6" width="3.6" height="3.6" fill="#1b0003"/><rect x="61.16" y="86.34" width="3.6" height="3.6" fill="#1b0003"/><rect x="61.16" y="82.75" width="3.6" height="3.6" fill="#db1943"/><rect x="61.16" y="79.15" width="3.6" height="3.6" fill="#db1943"/><rect x="61.16" y="75.55" width="3.6" height="3.6" fill="#db1943"/><rect x="61.16" y="71.95" width="3.6" height="3.6" fill="#db1943"/><rect x="61.16" y="68.36" width="3.6" height="3.6" fill="#b6294c"/><rect x="61.16" y="64.76" width="3.6" height="3.6" fill="#db1943"/><rect x="61.16" y="61.16" width="3.6" height="3.6" fill="#b6294c"/><rect x="61.16" y="57.56" width="3.6" height="3.6" fill="#db1943"/><rect x="61.16" y="53.96" width="3.6" height="3.6" fill="#b6294c"/><rect x="61.16" y="50.37" width="3.6" height="3.6" fill="#b6294c"/><rect x="61.16" y="46.77" width="3.6" height="3.6" fill="#eb3824"/><rect x="61.16" y="43.17" width="3.6" height="3.6" fill="#eb3824"/><rect x="61.16" y="39.57" width="3.6" height="3.6" fill="#eb3824"/><rect x="61.16" y="35.98" width="3.6" height="3.6" fill="#eb3824"/><rect x="61.16" y="32.38" width="3.6" height="3.6" fill="#eb3824"/><rect x="61.16" y="28.78" width="3.6" height="3.6" fill="#eb3824"/><rect x="61.16" y="25.18" width="3.6" height="3.6" fill="#eb3824"/><rect x="61.16" y="21.59" width="3.6" height="3.6" fill="#eb3824"/><rect x="61.16" y="17.99" width="3.6" height="3.6" fill="#eb3824"/><rect x="61.16" y="14.39" width="3.6" height="3.6" fill="#eb3824"/><rect x="61.16" y="10.79" width="3.6" height="3.6" fill="#eb3824"/><rect x="61.16" y="7.2" width="3.6" height="3.6" fill="#eb3824"/><rect x="61.16" y="3.6" width="3.6" height="3.6" fill="#1b0003"/><rect x="57.56" y="86.34" width="3.6" height="3.6" fill="#1b0003"/><rect x="57.56" y="82.75" width="3.6" height="3.6" fill="#db1943"/><rect x="57.56" y="79.15" width="3.6" height="3.6" fill="#db1943"/><rect x="57.56" y="75.55" width="3.6" height="3.6" fill="#db1943"/><rect x="57.56" y="71.95" width="3.6" height="3.6" fill="#b6294c"/><rect x="57.56" y="68.36" width="3.6" height="3.6" fill="#db1943"/><rect x="57.56" y="64.76" width="3.6" height="3.6" fill="#b6294c"/><rect x="57.56" y="61.16" width="3.6" height="3.6" fill="#db1943"/><rect x="57.56" y="57.56" width="3.6" height="3.6" fill="#b6294c"/><rect x="57.56" y="53.96" width="3.6" height="3.6" fill="#b6294c"/><rect x="57.56" y="50.37" width="3.6" height="3.6" fill="#b6294c"/><rect x="57.56" y="46.77" width="3.6" height="3.6" fill="#eb3824"/><rect x="57.56" y="43.17" width="3.6" height="3.6" fill="#eb3824"/><rect x="57.56" y="39.57" width="3.6" height="3.6" fill="#eb3824"/><rect x="57.56" y="35.98" width="3.6" height="3.6" fill="#eb3824"/><rect x="57.56" y="32.38" width="3.6" height="3.6" fill="#eb3824"/><rect x="57.56" y="28.78" width="3.6" height="3.6" fill="#eb3824"/><rect x="57.56" y="25.18" width="3.6" height="3.6" fill="#eb3824"/><rect x="57.56" y="21.59" width="3.6" height="3.6" fill="#eb3824"/><rect x="57.56" y="17.99" width="3.6" height="3.6" fill="#eb3824"/><rect x="57.56" y="14.39" width="3.6" height="3.6" fill="#db1943"/><rect x="57.56" y="10.79" width="3.6" height="3.6" fill="#db1943"/><rect x="57.56" y="7.2" width="3.6" height="3.6" fill="#1b0003"/><rect x="53.97" y="89.94" width="3.6" height="3.6" fill="#1b0003"/><rect x="53.97" y="86.34" width="3.6" height="3.6" fill="#db1943"/><rect x="53.97" y="82.75" width="3.6" height="3.6" fill="#db1943"/><rect x="53.97" y="79.15" width="3.6" height="3.6" fill="#db1943"/><rect x="53.97" y="75.55" width="3.6" height="3.6" fill="#b6294c"/><rect x="53.97" y="71.95" width="3.6" height="3.6" fill="#db1943"/><rect x="53.97" y="68.36" width="3.6" height="3.6" fill="#b6294c"/><rect x="53.97" y="64.76" width="3.6" height="3.6" fill="#db1943"/><rect x="53.97" y="61.16" width="3.6" height="3.6" fill="#b6294c"/><rect x="53.97" y="57.56" width="3.6" height="3.6" fill="#b6294c"/><rect x="53.97" y="53.96" width="3.6" height="3.6" fill="#b6294c"/><rect x="53.97" y="50.37" width="3.6" height="3.6" fill="#eb3824"/><rect x="53.97" y="46.77" width="3.6" height="3.6" fill="#eb3824"/><rect x="53.97" y="43.17" width="3.6" height="3.6" fill="#eb3824"/><rect x="53.97" y="39.57" width="3.6" height="3.6" fill="#eb3824"/><rect x="53.97" y="35.98" width="3.6" height="3.6" fill="#eb3824"/><rect x="53.97" y="32.38" width="3.6" height="3.6" fill="#eb3824"/><rect x="53.97" y="28.78" width="3.6" height="3.6" fill="#eb3824"/><rect x="53.97" y="25.18" width="3.6" height="3.6" fill="#eb3824"/><rect x="53.97" y="21.59" width="3.6" height="3.6" fill="#db1943"/><rect x="53.97" y="17.99" width="3.6" height="3.6" fill="#db1943"/><rect x="53.97" y="14.39" width="3.6" height="3.6" fill="#db1943"/><rect x="53.97" y="10.79" width="3.6" height="3.6" fill="#1b0003"/><rect x="50.37" y="89.94" width="3.6" height="3.6" fill="#1b0003"/><rect x="50.37" y="86.34" width="3.6" height="3.6" fill="#db1943"/><rect x="50.37" y="82.75" width="3.6" height="3.6" fill="#db1943"/><rect x="50.37" y="79.15" width="3.6" height="3.6" fill="#b6294c"/><rect x="50.37" y="75.55" width="3.6" height="3.6" fill="#db1943"/><rect x="50.37" y="71.95" width="3.6" height="3.6" fill="#b6294c"/><rect x="50.37" y="68.36" width="3.6" height="3.6" fill="#db1943"/><rect x="50.37" y="64.76" width="3.6" height="3.6" fill="#b6294c"/><rect x="50.37" y="61.16" width="3.6" height="3.6" fill="#b6294c"/><rect x="50.37" y="57.56" width="3.6" height="3.6" fill="#b6294c"/><rect x="50.37" y="53.96" width="3.6" height="3.6" fill="#b6294c"/><rect x="50.37" y="50.37" width="3.6" height="3.6" fill="#eb3824"/><rect x="50.37" y="46.77" width="3.6" height="3.6" fill="#eb3824"/><rect x="50.37" y="43.17" width="3.6" height="3.6" fill="#eb3824"/><rect x="50.37" y="39.57" width="3.6" height="3.6" fill="#eb3824"/><rect x="50.37" y="35.98" width="3.6" height="3.6" fill="#eb3824"/><rect x="50.37" y="32.38" width="3.6" height="3.6" fill="#eb3824"/><rect x="50.37" y="28.78" width="3.6" height="3.6" fill="#eb3824"/><rect x="50.37" y="25.18" width="3.6" height="3.6" fill="#db1943"/><rect x="50.37" y="21.59" width="3.6" height="3.6" fill="#db1943"/><rect x="50.37" y="17.99" width="3.6" height="3.6" fill="#db1943"/><rect x="50.37" y="14.39" width="3.6" height="3.6" fill="#1b0003"/><rect x="46.77" y="89.94" width="3.6" height="3.6" fill="#1b0003"/><rect x="46.77" y="86.34" width="3.6" height="3.6" fill="#db1943"/><rect x="46.77" y="82.75" width="3.6" height="3.6" fill="#b6294c"/><rect x="46.77" y="79.15" width="3.6" height="3.6" fill="#db1943"/><rect x="46.77" y="75.55" width="3.6" height="3.6" fill="#b6294c"/><rect x="46.77" y="71.95" width="3.6" height="3.6" fill="#db1943"/><rect x="46.77" y="68.36" width="3.6" height="3.6" fill="#b6294c"/><rect x="46.77" y="64.76" width="3.6" height="3.6" fill="#b6294c"/><rect x="46.77" y="61.16" width="3.6" height="3.6" fill="#b6294c"/><rect x="46.77" y="57.56" width="3.6" height="3.6" fill="#b6294c"/><rect x="46.77" y="53.96" width="3.6" height="3.6" fill="#eb3824"/><rect x="46.77" y="50.37" width="3.6" height="3.6" fill="#eb3824"/><rect x="46.77" y="46.77" width="3.6" height="3.6" fill="#eb3824"/><rect x="46.77" y="43.17" width="3.6" height="3.6" fill="#eb3824"/><rect x="46.77" y="39.57" width="3.6" height="3.6" fill="#eb3824"/><rect x="46.77" y="35.98" width="3.6" height="3.6" fill="#eb3824"/><rect x="46.77" y="32.38" width="3.6" height="3.6" fill="#eb3824"/><rect x="46.77" y="28.78" width="3.6" height="3.6" fill="#eb3824"/><rect x="46.77" y="25.18" width="3.6" height="3.6" fill="#eb3824"/><rect x="46.77" y="21.59" width="3.6" height="3.6" fill="#eb3824"/><rect x="46.77" y="17.99" width="3.6" height="3.6" fill="#eb3824"/><rect x="46.77" y="14.39" width="3.6" height="3.6" fill="#eb3824"/><rect x="46.77" y="10.79" width="3.6" height="3.6" fill="#1b0003"/><rect x="43.17" y="86.34" width="3.6" height="3.6" fill="#1b0003"/><rect x="43.17" y="82.75" width="3.6" height="3.6" fill="#b6294c"/><rect x="43.17" y="79.15" width="3.6" height="3.6" fill="#b6294c"/><rect x="43.17" y="75.55" width="3.6" height="3.6" fill="#db1943"/><rect x="43.17" y="71.95" width="3.6" height="3.6" fill="#b6294c"/><rect x="43.17" y="68.36" width="3.6" height="3.6" fill="#b6294c"/><rect x="43.17" y="64.76" width="3.6" height="3.6" fill="#b6294c"/><rect x="43.17" y="61.16" width="3.6" height="3.6" fill="#b6294c"/><rect x="43.17" y="57.56" width="3.6" height="3.6" fill="#b6294c"/><rect x="43.17" y="53.96" width="3.6" height="3.6" fill="#eb3824"/><rect x="43.17" y="50.37" width="3.6" height="3.6" fill="#eb3824"/><rect x="43.17" y="46.77" width="3.6" height="3.6" fill="#eb3824"/><rect x="43.17" y="43.17" width="3.6" height="3.6" fill="#eb3824"/><rect x="43.17" y="39.57" width="3.6" height="3.6" fill="#eb3824"/><rect x="43.17" y="35.98" width="3.6" height="3.6" fill="#eb3824"/><rect x="43.17" y="32.38" width="3.6" height="3.6" fill="#eb3824"/><rect x="43.17" y="28.78" width="3.6" height="3.6" fill="#eb3824"/><rect x="43.17" y="25.18" width="3.6" height="3.6" fill="#eb3824"/><rect x="43.17" y="21.59" width="3.6" height="3.6" fill="#eb3824"/><rect x="43.17" y="17.99" width="3.6" height="3.6" fill="#eb3824"/><rect x="43.17" y="14.39" width="3.6" height="3.6" fill="#eb3824"/><rect x="43.17" y="10.79" width="3.6" height="3.6" fill="#eb3824"/><rect x="43.17" y="7.2" width="3.6" height="3.6" fill="#1b0003"/><rect x="39.57" y="86.34" width="3.6" height="3.6" fill="#1b0003"/><rect x="39.57" y="82.75" width="3.6" height="3.6" fill="#b6294c"/><rect x="39.57" y="79.15" width="3.6" height="3.6" fill="#b6294c"/><rect x="39.57" y="75.55" width="3.6" height="3.6" fill="#b6294c"/><rect x="39.57" y="71.95" width="3.6" height="3.6" fill="#b6294c"/><rect x="39.57" y="68.36" width="3.6" height="3.6" fill="#b6294c"/><rect x="39.57" y="64.76" width="3.6" height="3.6" fill="#b6294c"/><rect x="39.57" y="61.16" width="3.6" height="3.6" fill="#b6294c"/><rect x="39.57" y="57.56" width="3.6" height="3.6" fill="#b6294c"/><rect x="39.57" y="53.96" width="3.6" height="3.6" fill="#eb3824"/><rect x="39.57" y="50.37" width="3.6" height="3.6" fill="#eb3824"/><rect x="39.57" y="46.77" width="3.6" height="3.6" fill="#eb3824"/><rect x="39.57" y="43.17" width="3.6" height="3.6" fill="#eb3824"/><rect x="39.57" y="39.57" width="3.6" height="3.6" fill="#eb3824"/><rect x="39.57" y="35.98" width="3.6" height="3.6" fill="#eb3824"/><rect x="39.57" y="32.38" width="3.6" height="3.6" fill="#eb3824"/><rect x="39.57" y="28.78" width="3.6" height="3.6" fill="#eb3824"/><rect x="39.57" y="25.18" width="3.6" height="3.6" fill="#eb3824"/><rect x="39.57" y="21.59" width="3.6" height="3.6" fill="#eb3824"/><rect x="39.57" y="17.99" width="3.6" height="3.6" fill="#eb3824"/><rect x="39.57" y="14.39" width="3.6" height="3.6" fill="#eb3824"/><rect x="39.57" y="10.79" width="3.6" height="3.6" fill="#eb3824"/><rect x="39.57" y="7.2" width="3.6" height="3.6" fill="#eb3824"/><rect x="39.57" y="3.6" width="3.6" height="3.6" fill="#1b0003"/><rect x="35.98" y="82.75" width="3.6" height="3.6" fill="#1b0003"/><rect x="35.98" y="79.15" width="3.6" height="3.6" fill="#b6294c"/><rect x="35.98" y="75.55" width="3.6" height="3.6" fill="#b6294c"/><rect x="35.98" y="71.95" width="3.6" height="3.6" fill="#b6294c"/><rect x="35.98" y="68.36" width="3.6" height="3.6" fill="#b6294c"/><rect x="35.98" y="64.76" width="3.6" height="3.6" fill="#b6294c"/><rect x="35.98" y="61.16" width="3.6" height="3.6" fill="#b6294c"/><rect x="35.98" y="57.56" width="3.6" height="3.6" fill="#b6294c"/><rect x="35.98" y="53.96" width="3.6" height="3.6" fill="#eb3824"/><rect x="35.98" y="50.37" width="3.6" height="3.6" fill="#eb3824"/><rect x="35.98" y="46.77" width="3.6" height="3.6" fill="#eb3824"/><rect x="35.98" y="43.17" width="3.6" height="3.6" fill="#eb3824"/><rect x="35.98" y="39.57" width="3.6" height="3.6" fill="#eb3824"/><rect x="35.98" y="35.98" width="3.6" height="3.6" fill="#eb3824"/><rect x="35.98" y="32.38" width="3.6" height="3.6" fill="#eb3824"/><rect x="35.98" y="28.78" width="3.6" height="3.6" fill="#eb3824"/><rect x="35.98" y="25.18" width="3.6" height="3.6" fill="#eb3824"/><rect x="35.98" y="21.59" width="3.6" height="3.6" fill="#eb3824"/><rect x="35.98" y="17.99" width="3.6" height="3.6" fill="#eb3824"/><rect x="35.98" y="14.39" width="3.6" height="3.6" fill="#eb3824"/><rect x="35.98" y="10.79" width="3.6" height="3.6" fill="#eb3824"/><rect x="35.98" y="7.2" width="3.6" height="3.6" fill="#eb3824"/><rect x="35.98" y="3.6" width="3.6" height="3.6" fill="#1b0003"/><rect x="32.38" y="79.15" width="3.6" height="3.6" fill="#1b0003"/><rect x="32.38" y="75.55" width="3.6" height="3.6" fill="#b6294c"/><rect x="32.38" y="71.95" width="3.6" height="3.6" fill="#b6294c"/><rect x="32.38" y="68.36" width="3.6" height="3.6" fill="#b6294c"/><rect x="32.38" y="64.76" width="3.6" height="3.6" fill="#b6294c"/><rect x="32.38" y="61.16" width="3.6" height="3.6" fill="#b6294c"/><rect x="32.38" y="57.56" width="3.6" height="3.6" fill="#b6294c"/><rect x="32.38" y="53.96" width="3.6" height="3.6" fill="#eb3824"/><rect x="32.38" y="50.37" width="3.6" height="3.6" fill="#eb3824"/><rect x="32.38" y="46.77" width="3.6" height="3.6" fill="#eb3824"/><rect x="32.38" y="43.17" width="3.6" height="3.6" fill="#eb3824"/><rect x="32.38" y="39.57" width="3.6" height="3.6" fill="#eb3824"/><rect x="32.38" y="35.98" width="3.6" height="3.6" fill="#eb3824"/><rect x="32.38" y="32.38" width="3.6" height="3.6" fill="#eb3824"/><rect x="32.38" y="28.78" width="3.6" height="3.6" fill="#eb3824"/><rect x="32.38" y="25.18" width="3.6" height="3.6" fill="#eb3824"/><rect x="32.38" y="21.59" width="3.6" height="3.6" fill="#eb3824"/><rect x="32.38" y="17.99" width="3.6" height="3.6" fill="#eb3824"/><rect x="32.38" y="14.39" width="3.6" height="3.6" fill="#eb3824"/><rect x="32.38" y="10.79" width="3.6" height="3.6" fill="#eb3824"/><rect x="32.38" y="7.2" width="3.6" height="3.6" fill="#eb3824"/><rect x="32.38" y="3.6" width="3.6" height="3.6" fill="#eb3824"/><rect x="32.38" width="3.6" height="3.6" fill="#1b0003"/><rect x="28.78" y="75.55" width="3.6" height="3.6" fill="#1b0003"/><rect x="28.78" y="71.95" width="3.6" height="3.6" fill="#b6294c"/><rect x="28.78" y="68.36" width="3.6" height="3.6" fill="#b6294c"/><rect x="28.78" y="64.76" width="3.6" height="3.6" fill="#b6294c"/><rect x="28.78" y="61.16" width="3.6" height="3.6" fill="#b6294c"/><rect x="28.78" y="57.56" width="3.6" height="3.6" fill="#b6294c"/><rect x="28.78" y="53.96" width="3.6" height="3.6" fill="#eb3824"/><rect x="28.78" y="50.37" width="3.6" height="3.6" fill="#eb3824"/><rect x="28.78" y="46.77" width="3.6" height="3.6" fill="#eb3824"/><rect x="28.78" y="43.17" width="3.6" height="3.6" fill="#eb3824"/><rect x="28.78" y="39.57" width="3.6" height="3.6" fill="#eb3824"/><rect x="28.78" y="35.98" width="3.6" height="3.6" fill="#eb3824"/><rect x="28.78" y="32.38" width="3.6" height="3.6" fill="#eb3824"/><rect x="28.78" y="28.78" width="3.6" height="3.6" fill="#eb3824"/><rect x="28.78" y="25.18" width="3.6" height="3.6" fill="#eb3824"/><rect x="28.78" y="21.59" width="3.6" height="3.6" fill="#eb3824"/><rect x="28.78" y="17.99" width="3.6" height="3.6" fill="#eb3824"/><rect x="28.78" y="14.39" width="3.6" height="3.6" fill="#ef837b"/><rect x="28.78" y="10.79" width="3.6" height="3.6" fill="#ef837b"/><rect x="28.78" y="7.2" width="3.6" height="3.6" fill="#eb3824"/><rect x="28.78" y="3.6" width="3.6" height="3.6" fill="#eb3824"/><rect x="28.78" width="3.6" height="3.6" fill="#1b0003"/><rect x="25.18" y="71.95" width="3.6" height="3.6" fill="#1b0003"/><rect x="25.18" y="68.36" width="3.6" height="3.6" fill="#b6294c"/><rect x="25.18" y="64.76" width="3.6" height="3.6" fill="#b6294c"/><rect x="25.18" y="61.16" width="3.6" height="3.6" fill="#b6294c"/><rect x="25.18" y="57.56" width="3.6" height="3.6" fill="#b6294c"/><rect x="25.18" y="53.96" width="3.6" height="3.6" fill="#eb3824"/><rect x="25.18" y="50.37" width="3.6" height="3.6" fill="#eb3824"/><rect x="25.18" y="46.77" width="3.6" height="3.6" fill="#eb3824"/><rect x="25.18" y="43.17" width="3.6" height="3.6" fill="#eb3824"/><rect x="25.18" y="39.57" width="3.6" height="3.6" fill="#eb3824"/><rect x="25.18" y="35.98" width="3.6" height="3.6" fill="#eb3824"/><rect x="25.18" y="32.38" width="3.6" height="3.6" fill="#eb3824"/><rect x="25.18" y="28.78" width="3.6" height="3.6" fill="#eb3824"/><rect x="25.18" y="25.18" width="3.6" height="3.6" fill="#eb3824"/><rect x="25.18" y="21.59" width="3.6" height="3.6" fill="#eb3824"/><rect x="25.18" y="17.99" width="3.6" height="3.6" fill="#ef837b"/><rect x="25.18" y="14.39" width="3.6" height="3.6" fill="#ef837b"/><rect x="25.18" y="10.79" width="3.6" height="3.6" fill="#f4b9b8"/><rect x="25.18" y="7.2" width="3.6" height="3.6" fill="#eb3824"/><rect x="25.18" y="3.6" width="3.6" height="3.6" fill="#eb3824"/><rect x="25.18" width="3.6" height="3.6" fill="#1b0003"/><rect x="21.59" y="68.36" width="3.6" height="3.6" fill="#1b0003"/><rect x="21.59" y="64.76" width="3.6" height="3.6" fill="#b6294c"/><rect x="21.59" y="61.16" width="3.6" height="3.6" fill="#b6294c"/><rect x="21.59" y="57.56" width="3.6" height="3.6" fill="#b6294c"/><rect x="21.59" y="53.96" width="3.6" height="3.6" fill="#eb3824"/><rect x="21.59" y="50.37" width="3.6" height="3.6" fill="#eb3824"/><rect x="21.59" y="46.77" width="3.6" height="3.6" fill="#eb3824"/><rect x="21.59" y="43.17" width="3.6" height="3.6" fill="#eb3824"/><rect x="21.59" y="39.57" width="3.6" height="3.6" fill="#eb3824"/><rect x="21.59" y="35.98" width="3.6" height="3.6" fill="#eb3824"/><rect x="21.59" y="32.38" width="3.6" height="3.6" fill="#eb3824"/><rect x="21.59" y="28.78" width="3.6" height="3.6" fill="#eb3824"/><rect x="21.59" y="25.18" width="3.6" height="3.6" fill="#ef837b"/><rect x="21.59" y="21.59" width="3.6" height="3.6" fill="#ef837b"/><rect x="21.59" y="17.99" width="3.6" height="3.6" fill="#f4b9b8"/><rect x="21.59" y="14.39" width="3.6" height="3.6" fill="#f4b9b8"/><rect x="21.59" y="10.79" width="3.6" height="3.6" fill="#ef837b"/><rect x="21.59" y="7.2" width="3.6" height="3.6" fill="#eb3824"/><rect x="21.59" y="3.6" width="3.6" height="3.6" fill="#eb3824"/><rect x="21.59" width="3.6" height="3.6" fill="#1b0003"/><rect x="17.99" y="64.76" width="3.6" height="3.6" fill="#1b0003"/><rect x="17.99" y="61.16" width="3.6" height="3.6" fill="#b6294c"/><rect x="17.99" y="57.56" width="3.6" height="3.6" fill="#b6294c"/><rect x="17.99" y="53.96" width="3.6" height="3.6" fill="#eb3824"/><rect x="17.99" y="50.37" width="3.6" height="3.6" fill="#eb3824"/><rect x="17.99" y="46.77" width="3.6" height="3.6" fill="#eb3824"/><rect x="17.99" y="43.17" width="3.6" height="3.6" fill="#eb3824"/><rect x="17.99" y="39.57" width="3.6" height="3.6" fill="#eb3824"/><rect x="17.99" y="35.98" width="3.6" height="3.6" fill="#eb3824"/><rect x="17.99" y="32.38" width="3.6" height="3.6" fill="#eb3824"/><rect x="17.99" y="28.78" width="3.6" height="3.6" fill="#ef837b"/><rect x="17.99" y="25.18" width="3.6" height="3.6" fill="#ef837b"/><rect x="17.99" y="21.59" width="3.6" height="3.6" fill="#f4b9b8"/><rect x="17.99" y="17.99" width="3.6" height="3.6" fill="#f4b9b8"/><rect x="17.99" y="14.39" width="3.6" height="3.6" fill="#f4b9b8"/><rect x="17.99" y="10.79" width="3.6" height="3.6" fill="#ef837b"/><rect x="17.99" y="7.2" width="3.6" height="3.6" fill="#eb3824"/><rect x="17.99" y="3.6" width="3.6" height="3.6" fill="#eb3824"/><rect x="17.99" width="3.6" height="3.6" fill="#1b0003"/><rect x="14.39" y="61.16" width="3.6" height="3.6" fill="#1b0003"/><rect x="14.39" y="57.56" width="3.6" height="3.6" fill="#b6294c"/><rect x="14.39" y="53.96" width="3.6" height="3.6" fill="#b6294c"/><rect x="14.39" y="50.37" width="3.6" height="3.6" fill="#eb3824"/><rect x="14.39" y="46.77" width="3.6" height="3.6" fill="#eb3824"/><rect x="14.39" y="43.17" width="3.6" height="3.6" fill="#eb3824"/><rect x="14.39" y="39.57" width="3.6" height="3.6" fill="#eb3824"/><rect x="14.39" y="35.98" width="3.6" height="3.6" fill="#eb3824"/><rect x="14.39" y="32.38" width="3.6" height="3.6" fill="#eb3824"/><rect x="14.39" y="28.78" width="3.6" height="3.6" fill="#ef837b"/><rect x="14.39" y="25.18" width="3.6" height="3.6" fill="#f4b9b8"/><rect x="14.39" y="21.59" width="3.6" height="3.6" fill="#f4b9b8"/><rect x="14.39" y="17.99" width="3.6" height="3.6" fill="#f4b9b8"/><rect x="14.39" y="14.39" width="3.6" height="3.6" fill="#f4b9b8"/><rect x="14.39" y="10.79" width="3.6" height="3.6" fill="#eb3824"/><rect x="14.39" y="7.2" width="3.6" height="3.6" fill="#eb3824"/><rect x="14.39" y="3.6" width="3.6" height="3.6" fill="#1b0003"/><rect x="10.79" y="57.56" width="3.6" height="3.6" fill="#1b0003"/><rect x="10.79" y="53.96" width="3.6" height="3.6" fill="#b6294c"/><rect x="10.79" y="50.37" width="3.6" height="3.6" fill="#eb3824"/><rect x="10.79" y="46.77" width="3.6" height="3.6" fill="#eb3824"/><rect x="10.79" y="43.17" width="3.6" height="3.6" fill="#eb3824"/><rect x="10.79" y="39.57" width="3.6" height="3.6" fill="#eb3824"/><rect x="10.79" y="35.98" width="3.6" height="3.6" fill="#eb3824"/><rect x="10.79" y="32.38" width="3.6" height="3.6" fill="#ef837b"/><rect x="10.79" y="28.78" width="3.6" height="3.6" fill="#ef837b"/><rect x="10.79" y="25.18" width="3.6" height="3.6" fill="#f4b9b8"/><rect x="10.79" y="21.59" width="3.6" height="3.6" fill="#f4b9b8"/><rect x="10.79" y="17.99" width="3.6" height="3.6" fill="#f4b9b8"/><rect x="10.79" y="14.39" width="3.6" height="3.6" fill="#eb3824"/><rect x="10.79" y="10.79" width="3.6" height="3.6" fill="#eb3824"/><rect x="10.79" y="7.2" width="3.6" height="3.6" fill="#eb3824"/><rect x="10.79" y="3.6" width="3.6" height="3.6" fill="#1b0003"/><rect x="7.2" y="53.96" width="3.6" height="3.6" fill="#1b0003"/><rect x="7.2" y="50.37" width="3.6" height="3.6" fill="#eb3824"/><rect x="7.2" y="46.77" width="3.6" height="3.6" fill="#eb3824"/><rect x="7.2" y="43.17" width="3.6" height="3.6" fill="#eb3824"/><rect x="7.2" y="39.57" width="3.6" height="3.6" fill="#eb3824"/><rect x="7.2" y="35.98" width="3.6" height="3.6" fill="#eb3824"/><rect x="7.2" y="32.38" width="3.6" height="3.6" fill="#eb3824"/><rect x="7.2" y="28.78" width="3.6" height="3.6" fill="#eb3824"/><rect x="7.2" y="25.18" width="3.6" height="3.6" fill="#f4b9b8"/><rect x="7.2" y="21.59" width="3.6" height="3.6" fill="#eb3824"/><rect x="7.2" y="17.99" width="3.6" height="3.6" fill="#eb3824"/><rect x="7.2" y="14.39" width="3.6" height="3.6" fill="#eb3824"/><rect x="7.2" y="10.79" width="3.6" height="3.6" fill="#eb3824"/><rect x="7.2" y="7.2" width="3.6" height="3.6" fill="#1b0003"/><rect x="3.6" y="50.37" width="3.6" height="3.6" fill="#1b0003"/><rect x="3.6" y="46.77" width="3.6" height="3.6" fill="#1b0003"/><rect x="3.6" y="43.17" width="3.6" height="3.6" fill="#eb3824"/><rect x="3.6" y="39.57" width="3.6" height="3.6" fill="#eb3824"/><rect x="3.6" y="35.98" width="3.6" height="3.6" fill="#eb3824"/><rect x="3.6" y="32.38" width="3.6" height="3.6" fill="#eb3824"/><rect x="3.6" y="28.78" width="3.6" height="3.6" fill="#eb3824"/><rect x="3.6" y="25.18" width="3.6" height="3.6" fill="#eb3824"/><rect x="3.6" y="21.59" width="3.6" height="3.6" fill="#eb3824"/><rect x="3.6" y="17.99" width="3.6" height="3.6" fill="#eb3824"/><rect x="3.6" y="14.39" width="3.6" height="3.6" fill="#1b0003"/><rect x="3.6" y="10.79" width="3.6" height="3.6" fill="#1b0003"/><rect y="43.17" width="3.6" height="3.6" fill="#1b0003"/><rect y="39.57" width="3.6" height="3.6" fill="#1b0003"/><rect y="35.98" width="3.6" height="3.6" fill="#1b0003"/><rect y="32.38" width="3.6" height="3.6" fill="#1b0003"/><rect y="28.78" width="3.6" height="3.6" fill="#1b0003"/><rect y="25.18" width="3.6" height="3.6" fill="#1b0003"/><rect y="21.59" width="3.6" height="3.6" fill="#1b0003"/><rect y="17.99" width="3.6" height="3.6" fill="#1b0003"/></g></g></g></svg>