<svg xmlns="http://www.w3.org/2000/svg" width="134.87" height="129.25" viewBox="0 0 134.87 129.25"><g id="Layer_2" data-name="Layer 2"><g id="items"><g id="Meat"><rect x="129.25" y="73.06" width="5.62" height="5.62" fill="#1b0003"/><rect x="129.25" y="67.44" width="5.62" height="5.62" fill="#1b0003"/><rect x="129.25" y="61.82" width="5.62" height="5.62" fill="#1b0003"/><rect x="129.25" y="56.2" width="5.62" height="5.62" fill="#1b0003"/><rect x="129.25" y="50.58" width="5.62" height="5.62" fill="#1b0003"/><rect x="129.25" y="44.96" width="5.62" height="5.62" fill="#1b0003"/><rect x="129.25" y="39.34" width="5.62" height="5.62" fill="#1b0003"/><rect x="129.25" y="33.72" width="5.62" height="5.62" fill="#1b0003"/><rect x="123.63" y="84.3" width="5.62" height="5.62" fill="#1b0003"/><rect x="123.63" y="78.68" width="5.62" height="5.62" fill="#1b0003"/><rect x="123.63" y="73.06" width="5.62" height="5.62" fill="#e0bea4"/><rect x="123.63" y="67.44" width="5.62" height="5.62" fill="#e0bea4"/><rect x="123.63" y="61.82" width="5.62" height="5.62" fill="#e0bea4"/><rect x="123.63" y="56.2" width="5.62" height="5.62" fill="#e0bea4"/><rect x="123.63" y="50.58" width="5.62" height="5.62" fill="#e0bea4"/><rect x="123.63" y="44.96" width="5.62" height="5.62" fill="#e0bea4"/><rect x="123.63" y="39.34" width="5.62" height="5.62" fill="#e0bea4"/><rect x="123.63" y="33.72" width="5.62" height="5.62" fill="#ead0b9"/><rect x="123.63" y="28.1" width="5.62" height="5.62" fill="#1b0003"/><rect x="123.63" y="22.48" width="5.62" height="5.62" fill="#1b0003"/><rect x="118.01" y="95.54" width="5.62" height="5.62" fill="#1b0003"/><rect x="118.01" y="89.92" width="5.62" height="5.62" fill="#1b0003"/><rect x="118.01" y="84.3" width="5.62" height="5.62" fill="#e0bea4"/><rect x="118.01" y="78.68" width="5.62" height="5.62" fill="#e0bea4"/><rect x="118.01" y="73.06" width="5.62" height="5.62" fill="#e0bea4"/><rect x="118.01" y="67.44" width="5.62" height="5.62" fill="#ead0b9"/><rect x="118.01" y="61.82" width="5.62" height="5.62" fill="#ead0b9"/><rect x="118.01" y="56.2" width="5.62" height="5.62" fill="#ead0b9"/><rect x="118.01" y="50.58" width="5.62" height="5.62" fill="#ead0b9"/><rect x="118.01" y="44.96" width="5.62" height="5.62" fill="#ead0b9"/><rect x="118.01" y="39.34" width="5.62" height="5.62" fill="#ead0b9"/><rect x="118.01" y="33.72" width="5.62" height="5.62" fill="#ead0b9"/><rect x="118.01" y="28.1" width="5.62" height="5.62" fill="#ead0b9"/><rect x="118.01" y="22.48" width="5.62" height="5.62" fill="#ead0b9"/><rect x="118.01" y="16.86" width="5.62" height="5.62" fill="#1b0003"/><rect x="112.4" y="101.16" width="5.62" height="5.62" fill="#1b0003"/><rect x="112.4" y="95.54" width="5.62" height="5.62" fill="#e0bea4"/><rect x="112.4" y="89.92" width="5.62" height="5.62" fill="#e0bea4"/><rect x="112.4" y="84.3" width="5.62" height="5.62" fill="#e0bea4"/><rect x="112.4" y="78.68" width="5.62" height="5.62" fill="#e0bea4"/><rect x="112.4" y="73.06" width="5.62" height="5.62" fill="#ead0b9"/><rect x="112.4" y="67.44" width="5.62" height="5.62" fill="#f9f2d4"/><rect x="112.4" y="61.82" width="5.62" height="5.62" fill="#eb3824"/><rect x="112.4" y="56.2" width="5.62" height="5.62" fill="#db1943"/><rect x="112.4" y="50.58" width="5.62" height="5.62" fill="#db1943"/><rect x="112.4" y="44.96" width="5.62" height="5.62" fill="#db1943"/><rect x="112.4" y="39.34" width="5.62" height="5.62" fill="#db1943"/><rect x="112.4" y="33.72" width="5.62" height="5.62" fill="#db1943"/><rect x="112.4" y="28.1" width="5.62" height="5.62" fill="#db1943"/><rect x="112.4" y="22.48" width="5.62" height="5.62" fill="#db1943"/><rect x="112.4" y="16.86" width="5.62" height="5.62" fill="#f9f2d4"/><rect x="112.4" y="11.24" width="5.62" height="5.62" fill="#1b0003"/><rect x="106.78" y="106.78" width="5.62" height="5.62" fill="#1b0003"/><rect x="106.78" y="101.16" width="5.62" height="5.62" fill="#e0bea4"/><rect x="106.78" y="95.54" width="5.62" height="5.62" fill="#e0bea4"/><rect x="106.78" y="89.92" width="5.62" height="5.62" fill="#e0bea4"/><rect x="106.78" y="84.3" width="5.62" height="5.62" fill="#e0bea4"/><rect x="106.78" y="78.68" width="5.62" height="5.62" fill="#f9f2d4"/><rect x="106.78" y="73.06" width="5.62" height="5.62" fill="#eb3824"/><rect x="106.78" y="67.44" width="5.62" height="5.62" fill="#db1943"/><rect x="106.78" y="61.82" width="5.62" height="5.62" fill="#db1943"/><rect x="106.78" y="56.2" width="5.62" height="5.62" fill="#b6294c"/><rect x="106.78" y="50.58" width="5.62" height="5.62" fill="#b6294c"/><rect x="106.78" y="44.96" width="5.62" height="5.62" fill="#b6294c"/><rect x="106.78" y="39.34" width="5.62" height="5.62" fill="#b6294c"/><rect x="106.78" y="33.72" width="5.62" height="5.62" fill="#b6294c"/><rect x="106.78" y="28.1" width="5.62" height="5.62" fill="#b6294c"/><rect x="106.78" y="22.48" width="5.62" height="5.62" fill="#b6294c"/><rect x="106.78" y="16.86" width="5.62" height="5.62" fill="#b6294c"/><rect x="106.78" y="11.24" width="5.62" height="5.62" fill="#f9f2d4"/><rect x="106.78" y="5.62" width="5.62" height="5.62" fill="#1b0003"/><rect x="101.16" y="112.4" width="5.62" height="5.62" fill="#1b0003"/><rect x="101.16" y="106.78" width="5.62" height="5.62" fill="#e0bea4"/><rect x="101.16" y="101.16" width="5.62" height="5.62" fill="#e0bea4"/><rect x="101.16" y="95.54" width="5.62" height="5.62" fill="#e0bea4"/><rect x="101.16" y="89.92" width="5.62" height="5.62" fill="#ead0b9"/><rect x="101.16" y="84.3" width="5.62" height="5.62" fill="#f9f2d4"/><rect x="101.16" y="78.68" width="5.62" height="5.62" fill="#eb3824"/><rect x="101.16" y="73.06" width="5.62" height="5.62" fill="#b6294c"/><rect x="101.16" y="67.44" width="5.62" height="5.62" fill="#b6294c"/><rect x="101.16" y="61.82" width="5.62" height="5.62" fill="#b6294c"/><rect x="101.16" y="56.2" width="5.62" height="5.62" fill="#b6294c"/><rect x="101.16" y="50.58" width="5.62" height="5.62" fill="#b6294c"/><rect x="101.16" y="44.96" width="5.62" height="5.62" fill="#db1943"/><rect x="101.16" y="39.34" width="5.62" height="5.62" fill="#db1943"/><rect x="101.16" y="33.72" width="5.62" height="5.62" fill="#db1943"/><rect x="101.16" y="28.1" width="5.62" height="5.62" fill="#db1943"/><rect x="101.16" y="22.48" width="5.62" height="5.62" fill="#db1943"/><rect x="101.16" y="16.86" width="5.62" height="5.62" fill="#db1943"/><rect x="101.16" y="11.24" width="5.62" height="5.62" fill="#db1943"/><rect x="101.16" y="5.62" width="5.62" height="5.62" fill="#f9f2d4"/><rect x="101.16" width="5.62" height="5.62" fill="#1b0003"/><rect x="95.54" y="118.01" width="5.62" height="5.62" fill="#1b0003"/><rect x="95.54" y="112.4" width="5.62" height="5.62" fill="#e0bea4"/><rect x="95.54" y="106.78" width="5.62" height="5.62" fill="#e0bea4"/><rect x="95.54" y="101.16" width="5.62" height="5.62" fill="#ead0b9"/><rect x="95.54" y="95.54" width="5.62" height="5.62" fill="#ead0b9"/><rect x="95.54" y="89.92" width="5.62" height="5.62" fill="#f9f2d4"/><rect x="95.54" y="84.3" width="5.62" height="5.62" fill="#eb3824"/><rect x="95.54" y="78.68" width="5.62" height="5.62" fill="#db1943"/><rect x="95.54" y="73.06" width="5.62" height="5.62" fill="#b6294c"/><rect x="95.54" y="67.44" width="5.62" height="5.62" fill="#b6294c"/><rect x="95.54" y="61.82" width="5.62" height="5.62" fill="#b6294c"/><rect x="95.54" y="56.2" width="5.62" height="5.62" fill="#db1943"/><rect x="95.54" y="50.58" width="5.62" height="5.62" fill="#db1943"/><rect x="95.54" y="44.96" width="5.62" height="5.62" fill="#db1943"/><rect x="95.54" y="39.34" width="5.62" height="5.62" fill="#eb3824"/><rect x="95.54" y="33.72" width="5.62" height="5.62" fill="#eb3824"/><rect x="95.54" y="28.1" width="5.62" height="5.62" fill="#eb3824"/><rect x="95.54" y="22.48" width="5.62" height="5.62" fill="#eb3824"/><rect x="95.54" y="16.86" width="5.62" height="5.62" fill="#eb3824"/><rect x="95.54" y="11.24" width="5.62" height="5.62" fill="#eb3824"/><rect x="95.54" y="5.62" width="5.62" height="5.62" fill="#f9f2d4"/><rect x="95.54" width="5.62" height="5.62" fill="#1b0003"/><rect x="89.92" y="118.01" width="5.62" height="5.62" fill="#1b0003"/><rect x="89.92" y="112.4" width="5.62" height="5.62" fill="#e0bea4"/><rect x="89.92" y="106.78" width="5.62" height="5.62" fill="#e0bea4"/><rect x="89.92" y="101.16" width="5.62" height="5.62" fill="#ead0b9"/><rect x="89.92" y="95.54" width="5.62" height="5.62" fill="#f9f2d4"/><rect x="89.92" y="89.92" width="5.62" height="5.62" fill="#eb3824"/><rect x="89.92" y="84.3" width="5.62" height="5.62" fill="#b6294c"/><rect x="89.92" y="78.68" width="5.62" height="5.62" fill="#b6294c"/><rect x="89.92" y="73.06" width="5.62" height="5.62" fill="#b6294c"/><rect x="89.92" y="67.44" width="5.62" height="5.62" fill="#db1943"/><rect x="89.92" y="61.82" width="5.62" height="5.62" fill="#db1943"/><rect x="89.92" y="56.2" width="5.62" height="5.62" fill="#db1943"/><rect x="89.92" y="50.58" width="5.62" height="5.62" fill="#eb3824"/><rect x="89.92" y="44.96" width="5.62" height="5.62" fill="#eb3824"/><rect x="89.92" y="39.34" width="5.62" height="5.62" fill="#eb3824"/><rect x="89.92" y="33.72" width="5.62" height="5.62" fill="#eb3824"/><rect x="89.92" y="28.1" width="5.62" height="5.62" fill="#eb3824"/><rect x="89.92" y="22.48" width="5.62" height="5.62" fill="#eb3824"/><rect x="89.92" y="16.86" width="5.62" height="5.62" fill="#eb3824"/><rect x="89.92" y="11.24" width="5.62" height="5.62" fill="#eb3824"/><rect x="89.92" y="5.62" width="5.62" height="5.62" fill="#f9f2d4"/><rect x="89.92" width="5.62" height="5.62" fill="#1b0003"/><rect x="84.3" y="123.63" width="5.62" height="5.62" fill="#1b0003"/><rect x="84.3" y="118.01" width="5.62" height="5.62" fill="#e0bea4"/><rect x="84.3" y="112.4" width="5.62" height="5.62" fill="#e0bea4"/><rect x="84.3" y="106.78" width="5.62" height="5.62" fill="#e0bea4"/><rect x="84.3" y="101.16" width="5.62" height="5.62" fill="#f9f2d4"/><rect x="84.3" y="95.54" width="5.62" height="5.62" fill="#eb3824"/><rect x="84.3" y="89.92" width="5.62" height="5.62" fill="#b6294c"/><rect x="84.3" y="84.3" width="5.62" height="5.62" fill="#b6294c"/><rect x="84.3" y="78.68" width="5.62" height="5.62" fill="#b6294c"/><rect x="84.3" y="73.06" width="5.62" height="5.62" fill="#db1943"/><rect x="84.3" y="67.44" width="5.62" height="5.62" fill="#db1943"/><rect x="84.3" y="61.82" width="5.62" height="5.62" fill="#eb3824"/><rect x="84.3" y="56.2" width="5.62" height="5.62" fill="#eb3824"/><rect x="84.3" y="50.58" width="5.62" height="5.62" fill="#eb3824"/><rect x="84.3" y="44.96" width="5.62" height="5.62" fill="#eb3824"/><rect x="84.3" y="39.34" width="5.62" height="5.62" fill="#eb3824"/><rect x="84.3" y="33.72" width="5.62" height="5.62" fill="#eb3824"/><rect x="84.3" y="28.1" width="5.62" height="5.62" fill="#eb3824"/><rect x="84.3" y="22.48" width="5.62" height="5.62" fill="#eb3824"/><rect x="84.3" y="16.86" width="5.62" height="5.62" fill="#eb3824"/><rect x="84.3" y="11.24" width="5.62" height="5.62" fill="#eb3824"/><rect x="84.3" y="5.62" width="5.62" height="5.62" fill="#f9f2d4"/><rect x="84.3" width="5.62" height="5.62" fill="#1b0003"/><rect x="78.68" y="123.63" width="5.62" height="5.62" fill="#1b0003"/><rect x="78.68" y="118.01" width="5.62" height="5.62" fill="#e0bea4"/><rect x="78.68" y="112.4" width="5.62" height="5.62" fill="#e0bea4"/><rect x="78.68" y="106.78" width="5.62" height="5.62" fill="#e0bea4"/><rect x="78.68" y="101.16" width="5.62" height="5.62" fill="#eb3824"/><rect x="78.68" y="95.54" width="5.62" height="5.62" fill="#b6294c"/><rect x="78.68" y="89.92" width="5.62" height="5.62" fill="#b6294c"/><rect x="78.68" y="84.3" width="5.62" height="5.62" fill="#db1943"/><rect x="78.68" y="78.68" width="5.62" height="5.62" fill="#db1943"/><rect x="78.68" y="73.06" width="5.62" height="5.62" fill="#db1943"/><rect x="78.68" y="67.44" width="5.62" height="5.62" fill="#eb3824"/><rect x="78.68" y="61.82" width="5.62" height="5.62" fill="#eb3824"/><rect x="78.68" y="56.2" width="5.62" height="5.62" fill="#eb3824"/><rect x="78.68" y="50.58" width="5.62" height="5.62" fill="#eb3824"/><rect x="78.68" y="44.96" width="5.62" height="5.62" fill="#eb3824"/><rect x="78.68" y="39.34" width="5.62" height="5.62" fill="#eb3824"/><rect x="78.68" y="33.72" width="5.62" height="5.62" fill="#eb3824"/><rect x="78.68" y="28.1" width="5.62" height="5.62" fill="#eb3824"/><rect x="78.68" y="22.48" width="5.62" height="5.62" fill="#eb3824"/><rect x="78.68" y="16.86" width="5.62" height="5.62" fill="#eb3824"/><rect x="78.68" y="11.24" width="5.62" height="5.62" fill="#f9f2d4"/><rect x="78.68" y="5.62" width="5.62" height="5.62" fill="#1b0003"/><rect x="73.06" y="123.63" width="5.62" height="5.62" fill="#1b0003"/><rect x="73.06" y="118.01" width="5.62" height="5.62" fill="#e0bea4"/><rect x="73.06" y="112.4" width="5.62" height="5.62" fill="#e0bea4"/><rect x="73.06" y="106.78" width="5.62" height="5.62" fill="#f9f2d4"/><rect x="73.06" y="101.16" width="5.62" height="5.62" fill="#b6294c"/><rect x="73.06" y="95.54" width="5.62" height="5.62" fill="#b6294c"/><rect x="73.06" y="89.92" width="5.62" height="5.62" fill="#db1943"/><rect x="73.06" y="84.3" width="5.62" height="5.62" fill="#db1943"/><rect x="73.06" y="78.68" width="5.62" height="5.62" fill="#db1943"/><rect x="73.06" y="73.06" width="5.62" height="5.62" fill="#db1943"/><rect x="73.06" y="67.44" width="5.62" height="5.62" fill="#eb3824"/><rect x="73.06" y="61.82" width="5.62" height="5.62" fill="#eb3824"/><rect x="73.06" y="56.2" width="5.62" height="5.62" fill="#eb3824"/><rect x="73.06" y="50.58" width="5.62" height="5.62" fill="#eb3824"/><rect x="73.06" y="44.96" width="5.62" height="5.62" fill="#eb3824"/><rect x="73.06" y="39.34" width="5.62" height="5.62" fill="#eb3824"/><rect x="73.06" y="33.72" width="5.62" height="5.62" fill="#eb3824"/><rect x="73.06" y="28.1" width="5.62" height="5.62" fill="#eb3824"/><rect x="73.06" y="22.48" width="5.62" height="5.62" fill="#f9f2d4"/><rect x="73.06" y="16.86" width="5.62" height="5.62" fill="#f9f2d4"/><rect x="73.06" y="11.24" width="5.62" height="5.62" fill="#1b0003"/><rect x="67.44" y="123.63" width="5.62" height="5.62" fill="#1b0003"/><rect x="67.44" y="118.01" width="5.62" height="5.62" fill="#e0bea4"/><rect x="67.44" y="112.4" width="5.62" height="5.62" fill="#e0bea4"/><rect x="67.44" y="106.78" width="5.62" height="5.62" fill="#f9f2d4"/><rect x="67.44" y="101.16" width="5.62" height="5.62" fill="#b6294c"/><rect x="67.44" y="95.54" width="5.62" height="5.62" fill="#b6294c"/><rect x="67.44" y="89.92" width="5.62" height="5.62" fill="#db1943"/><rect x="67.44" y="84.3" width="5.62" height="5.62" fill="#db1943"/><rect x="67.44" y="78.68" width="5.62" height="5.62" fill="#db1943"/><rect x="67.44" y="73.06" width="5.62" height="5.62" fill="#db1943"/><rect x="67.44" y="67.44" width="5.62" height="5.62" fill="#eb3824"/><rect x="67.44" y="61.82" width="5.62" height="5.62" fill="#eb3824"/><rect x="67.44" y="56.2" width="5.62" height="5.62" fill="#eb3824"/><rect x="67.44" y="50.58" width="5.62" height="5.62" fill="#eb3824"/><rect x="67.44" y="44.96" width="5.62" height="5.62" fill="#eb3824"/><rect x="67.44" y="39.34" width="5.62" height="5.62" fill="#eb3824"/><rect x="67.44" y="33.72" width="5.62" height="5.62" fill="#eb3824"/><rect x="67.44" y="28.1" width="5.62" height="5.62" fill="#f9f2d4"/><rect x="67.44" y="22.48" width="5.62" height="5.62" fill="#1b0003"/><rect x="67.44" y="16.86" width="5.62" height="5.62" fill="#1b0003"/><rect x="61.82" y="123.63" width="5.62" height="5.62" fill="#1b0003"/><rect x="61.82" y="118.01" width="5.62" height="5.62" fill="#e0bea4"/><rect x="61.82" y="112.4" width="5.62" height="5.62" fill="#e0bea4"/><rect x="61.82" y="106.78" width="5.62" height="5.62" fill="#b6294c"/><rect x="61.82" y="101.16" width="5.62" height="5.62" fill="#b6294c"/><rect x="61.82" y="95.54" width="5.62" height="5.62" fill="#db1943"/><rect x="61.82" y="89.92" width="5.62" height="5.62" fill="#db1943"/><rect x="61.82" y="84.3" width="5.62" height="5.62" fill="#db1943"/><rect x="61.82" y="78.68" width="5.62" height="5.62" fill="#db1943"/><rect x="61.82" y="73.06" width="5.62" height="5.62" fill="#eb3824"/><rect x="61.82" y="67.44" width="5.62" height="5.62" fill="#eb3824"/><rect x="61.82" y="61.82" width="5.62" height="5.62" fill="#eb3824"/><rect x="61.82" y="56.2" width="5.62" height="5.62" fill="#eb3824"/><rect x="61.82" y="50.58" width="5.62" height="5.62" fill="#eb3824"/><rect x="61.82" y="44.96" width="5.62" height="5.62" fill="#eb3824"/><rect x="61.82" y="39.34" width="5.62" height="5.62" fill="#eb3824"/><rect x="61.82" y="33.72" width="5.62" height="5.62" fill="#f9f2d4"/><rect x="61.82" y="28.1" width="5.62" height="5.62" fill="#1b0003"/><rect x="56.2" y="123.63" width="5.62" height="5.62" fill="#1b0003"/><rect x="56.2" y="118.01" width="5.62" height="5.62" fill="#e0bea4"/><rect x="56.2" y="112.4" width="5.62" height="5.62" fill="#ead0b9"/><rect x="56.2" y="106.78" width="5.62" height="5.62" fill="#b6294c"/><rect x="56.2" y="101.16" width="5.62" height="5.62" fill="#b6294c"/><rect x="56.2" y="95.54" width="5.62" height="5.62" fill="#db1943"/><rect x="56.2" y="89.92" width="5.62" height="5.62" fill="#db1943"/><rect x="56.2" y="84.3" width="5.62" height="5.62" fill="#db1943"/><rect x="56.2" y="78.68" width="5.62" height="5.62" fill="#db1943"/><rect x="56.2" y="73.06" width="5.62" height="5.62" fill="#eb3824"/><rect x="56.2" y="67.44" width="5.62" height="5.62" fill="#eb3824"/><rect x="56.2" y="61.82" width="5.62" height="5.62" fill="#eb3824"/><rect x="56.2" y="56.2" width="5.62" height="5.62" fill="#eb3824"/><rect x="56.2" y="50.58" width="5.62" height="5.62" fill="#eb3824"/><rect x="56.2" y="44.96" width="5.62" height="5.62" fill="#db1943"/><rect x="56.2" y="39.34" width="5.62" height="5.62" fill="#f9f2d4"/><rect x="56.2" y="33.72" width="5.62" height="5.62" fill="#1b0003"/><rect x="50.58" y="123.63" width="5.62" height="5.62" fill="#1b0003"/><rect x="50.58" y="118.01" width="5.62" height="5.62" fill="#e0bea4"/><rect x="50.58" y="112.4" width="5.62" height="5.62" fill="#ead0b9"/><rect x="50.58" y="106.78" width="5.62" height="5.62" fill="#b6294c"/><rect x="50.58" y="101.16" width="5.62" height="5.62" fill="#db1943"/><rect x="50.58" y="95.54" width="5.62" height="5.62" fill="#db1943"/><rect x="50.58" y="89.92" width="5.62" height="5.62" fill="#db1943"/><rect x="50.58" y="84.3" width="5.62" height="5.62" fill="#f9f2d4"/><rect x="50.58" y="78.68" width="5.62" height="5.62" fill="#f9f2d4"/><rect x="50.58" y="73.06" width="5.62" height="5.62" fill="#eb3824"/><rect x="50.58" y="67.44" width="5.62" height="5.62" fill="#eb3824"/><rect x="50.58" y="61.82" width="5.62" height="5.62" fill="#eb3824"/><rect x="50.58" y="56.2" width="5.62" height="5.62" fill="#eb3824"/><rect x="50.58" y="50.58" width="5.62" height="5.62" fill="#db1943"/><rect x="50.58" y="44.96" width="5.62" height="5.62" fill="#f9f2d4"/><rect x="50.58" y="39.34" width="5.62" height="5.62" fill="#1b0003"/><rect x="44.96" y="123.63" width="5.62" height="5.62" fill="#1b0003"/><rect x="44.96" y="118.01" width="5.62" height="5.62" fill="#e0bea4"/><rect x="44.96" y="112.4" width="5.62" height="5.62" fill="#ead0b9"/><rect x="44.96" y="106.78" width="5.62" height="5.62" fill="#b6294c"/><rect x="44.96" y="101.16" width="5.62" height="5.62" fill="#db1943"/><rect x="44.96" y="95.54" width="5.62" height="5.62" fill="#db1943"/><rect x="44.96" y="89.92" width="5.62" height="5.62" fill="#f9f2d4"/><rect x="44.96" y="84.3" width="5.62" height="5.62" fill="#db1943"/><rect x="44.96" y="78.68" width="5.62" height="5.62" fill="#db1943"/><rect x="44.96" y="73.06" width="5.62" height="5.62" fill="#f9f2d4"/><rect x="44.96" y="67.44" width="5.62" height="5.62" fill="#eb3824"/><rect x="44.96" y="61.82" width="5.62" height="5.62" fill="#eb3824"/><rect x="44.96" y="56.2" width="5.62" height="5.62" fill="#eb3824"/><rect x="44.96" y="50.58" width="5.62" height="5.62" fill="#f9f2d4"/><rect x="44.96" y="44.96" width="5.62" height="5.62" fill="#1b0003"/><rect x="39.34" y="123.63" width="5.62" height="5.62" fill="#1b0003"/><rect x="39.34" y="118.01" width="5.62" height="5.62" fill="#e0bea4"/><rect x="39.34" y="112.4" width="5.62" height="5.62" fill="#ead0b9"/><rect x="39.34" y="106.78" width="5.62" height="5.62" fill="#b6294c"/><rect x="39.34" y="101.16" width="5.62" height="5.62" fill="#db1943"/><rect x="39.34" y="95.54" width="5.62" height="5.62" fill="#db1943"/><rect x="39.34" y="89.92" width="5.62" height="5.62" fill="#f9f2d4"/><rect x="39.34" y="84.3" width="5.62" height="5.62" fill="#db1943"/><rect x="39.34" y="78.68" width="5.62" height="5.62" fill="#eb3824"/><rect x="39.34" y="73.06" width="5.62" height="5.62" fill="#f9f2d4"/><rect x="39.34" y="67.44" width="5.62" height="5.62" fill="#eb3824"/><rect x="39.34" y="61.82" width="5.62" height="5.62" fill="#eb3824"/><rect x="39.34" y="56.2" width="5.62" height="5.62" fill="#eb3824"/><rect x="39.34" y="50.58" width="5.62" height="5.62" fill="#f9f2d4"/><rect x="39.34" y="44.96" width="5.62" height="5.62" fill="#1b0003"/><rect x="33.72" y="123.63" width="5.62" height="5.62" fill="#1b0003"/><rect x="33.72" y="118.01" width="5.62" height="5.62" fill="#e0bea4"/><rect x="33.72" y="112.4" width="5.62" height="5.62" fill="#ead0b9"/><rect x="33.72" y="106.78" width="5.62" height="5.62" fill="#b6294c"/><rect x="33.72" y="101.16" width="5.62" height="5.62" fill="#db1943"/><rect x="33.72" y="95.54" width="5.62" height="5.62" fill="#db1943"/><rect x="33.72" y="89.92" width="5.62" height="5.62" fill="#eb3824"/><rect x="33.72" y="84.3" width="5.62" height="5.62" fill="#f9f2d4"/><rect x="33.72" y="78.68" width="5.62" height="5.62" fill="#f9f2d4"/><rect x="33.72" y="73.06" width="5.62" height="5.62" fill="#eb3824"/><rect x="33.72" y="67.44" width="5.62" height="5.62" fill="#eb3824"/><rect x="33.72" y="61.82" width="5.62" height="5.62" fill="#eb3824"/><rect x="33.72" y="56.2" width="5.62" height="5.62" fill="#eb3824"/><rect x="33.72" y="50.58" width="5.62" height="5.62" fill="#f9f2d4"/><rect x="33.72" y="44.96" width="5.62" height="5.62" fill="#1b0003"/><rect x="28.1" y="118.01" width="5.62" height="5.62" fill="#1b0003"/><rect x="28.1" y="112.4" width="5.62" height="5.62" fill="#ead0b9"/><rect x="28.1" y="106.78" width="5.62" height="5.62" fill="#b6294c"/><rect x="28.1" y="101.16" width="5.62" height="5.62" fill="#db1943"/><rect x="28.1" y="95.54" width="5.62" height="5.62" fill="#db1943"/><rect x="28.1" y="89.92" width="5.62" height="5.62" fill="#eb3824"/><rect x="28.1" y="84.3" width="5.62" height="5.62" fill="#eb3824"/><rect x="28.1" y="78.68" width="5.62" height="5.62" fill="#eb3824"/><rect x="28.1" y="73.06" width="5.62" height="5.62" fill="#eb3824"/><rect x="28.1" y="67.44" width="5.62" height="5.62" fill="#eb3824"/><rect x="28.1" y="61.82" width="5.62" height="5.62" fill="#eb3824"/><rect x="28.1" y="56.2" width="5.62" height="5.62" fill="#eb3824"/><rect x="28.1" y="50.58" width="5.62" height="5.62" fill="#f9f2d4"/><rect x="28.1" y="44.96" width="5.62" height="5.62" fill="#1b0003"/><rect x="22.48" y="118.01" width="5.62" height="5.62" fill="#1b0003"/><rect x="22.48" y="112.4" width="5.62" height="5.62" fill="#ead0b9"/><rect x="22.48" y="106.78" width="5.62" height="5.62" fill="#f9f2d4"/><rect x="22.48" y="101.16" width="5.62" height="5.62" fill="#db1943"/><rect x="22.48" y="95.54" width="5.62" height="5.62" fill="#db1943"/><rect x="22.48" y="89.92" width="5.62" height="5.62" fill="#db1943"/><rect x="22.48" y="84.3" width="5.62" height="5.62" fill="#eb3824"/><rect x="22.48" y="78.68" width="5.62" height="5.62" fill="#eb3824"/><rect x="22.48" y="73.06" width="5.62" height="5.62" fill="#eb3824"/><rect x="22.48" y="67.44" width="5.62" height="5.62" fill="#eb3824"/><rect x="22.48" y="61.82" width="5.62" height="5.62" fill="#eb3824"/><rect x="22.48" y="56.2" width="5.62" height="5.62" fill="#db1943"/><rect x="22.48" y="50.58" width="5.62" height="5.62" fill="#f9f2d4"/><rect x="22.48" y="44.96" width="5.62" height="5.62" fill="#1b0003"/><rect x="16.86" y="112.4" width="5.62" height="5.62" fill="#1b0003"/><rect x="16.86" y="106.78" width="5.62" height="5.62" fill="#ead0b9"/><rect x="16.86" y="101.16" width="5.62" height="5.62" fill="#b6294c"/><rect x="16.86" y="95.54" width="5.62" height="5.62" fill="#db1943"/><rect x="16.86" y="89.92" width="5.62" height="5.62" fill="#db1943"/><rect x="16.86" y="84.3" width="5.62" height="5.62" fill="#db1943"/><rect x="16.86" y="78.68" width="5.62" height="5.62" fill="#eb3824"/><rect x="16.86" y="73.06" width="5.62" height="5.62" fill="#eb3824"/><rect x="16.86" y="67.44" width="5.62" height="5.62" fill="#eb3824"/><rect x="16.86" y="61.82" width="5.62" height="5.62" fill="#eb3824"/><rect x="16.86" y="56.2" width="5.62" height="5.62" fill="#f9f2d4"/><rect x="16.86" y="50.58" width="5.62" height="5.62" fill="#1b0003"/><rect x="11.24" y="106.78" width="5.62" height="5.62" fill="#1b0003"/><rect x="11.24" y="101.16" width="5.62" height="5.62" fill="#f9f2d4"/><rect x="11.24" y="95.54" width="5.62" height="5.62" fill="#db1943"/><rect x="11.24" y="89.92" width="5.62" height="5.62" fill="#db1943"/><rect x="11.24" y="84.3" width="5.62" height="5.62" fill="#db1943"/><rect x="11.24" y="78.68" width="5.62" height="5.62" fill="#db1943"/><rect x="11.24" y="73.06" width="5.62" height="5.62" fill="#db1943"/><rect x="11.24" y="67.44" width="5.62" height="5.62" fill="#f9f2d4"/><rect x="11.24" y="61.82" width="5.62" height="5.62" fill="#f9f2d4"/><rect x="11.24" y="56.2" width="5.62" height="5.62" fill="#1b0003"/><rect x="5.62" y="101.16" width="5.62" height="5.62" fill="#1b0003"/><rect x="5.62" y="95.54" width="5.62" height="5.62" fill="#f9f2d4"/><rect x="5.62" y="89.92" width="5.62" height="5.62" fill="#f9f2d4"/><rect x="5.62" y="84.3" width="5.62" height="5.62" fill="#f9f2d4"/><rect x="5.62" y="78.68" width="5.62" height="5.62" fill="#f9f2d4"/><rect x="5.62" y="73.06" width="5.62" height="5.62" fill="#f9f2d4"/><rect x="5.62" y="67.44" width="5.62" height="5.62" fill="#1b0003"/><rect x="5.62" y="61.82" width="5.62" height="5.62" fill="#1b0003"/><rect y="95.54" width="5.62" height="5.62" fill="#1b0003"/><rect y="89.92" width="5.62" height="5.62" fill="#1b0003"/><rect y="84.3" width="5.62" height="5.62" fill="#1b0003"/><rect y="78.68" width="5.62" height="5.62" fill="#1b0003"/><rect y="73.06" width="5.62" height="5.62" fill="#1b0003"/></g></g></g></svg>