<svg xmlns="http://www.w3.org/2000/svg" width="122.79" height="129.25" viewBox="0 0 122.79 129.25"><g id="Layer_2" data-name="Layer 2"><g id="items"><g id="Red_Apple" data-name="Red Apple"><rect x="116.33" y="90.48" width="6.46" height="6.46" fill="#1b0003"/><rect x="116.33" y="84.02" width="6.46" height="6.46" fill="#1b0003"/><rect x="116.33" y="77.55" width="6.46" height="6.46" fill="#1b0003"/><rect x="116.33" y="71.09" width="6.46" height="6.46" fill="#1b0003"/><rect x="116.33" y="64.63" width="6.46" height="6.46" fill="#1b0003"/><rect x="116.33" y="58.16" width="6.46" height="6.46" fill="#1b0003"/><rect x="116.33" y="51.7" width="6.46" height="6.46" fill="#1b0003"/><rect x="116.33" y="45.24" width="6.46" height="6.46" fill="#1b0003"/><rect x="116.33" y="38.78" width="6.46" height="6.46" fill="#1b0003"/><rect x="109.87" y="96.94" width="6.46" height="6.46" fill="#1b0003"/><rect x="109.87" y="90.48" width="6.46" height="6.46" fill="#db1943"/><rect x="109.87" y="84.02" width="6.46" height="6.46" fill="#db1943"/><rect x="109.87" y="77.55" width="6.46" height="6.46" fill="#db1943"/><rect x="109.87" y="71.09" width="6.46" height="6.46" fill="#db1943"/><rect x="109.87" y="64.63" width="6.46" height="6.46" fill="#db1943"/><rect x="109.87" y="58.16" width="6.46" height="6.46" fill="#db1943"/><rect x="109.87" y="51.7" width="6.46" height="6.46" fill="#db1943"/><rect x="109.87" y="45.24" width="6.46" height="6.46" fill="#db1943"/><rect x="109.87" y="38.78" width="6.46" height="6.46" fill="#b6294c"/><rect x="109.87" y="32.31" width="6.46" height="6.46" fill="#1b0003"/><rect x="103.4" y="103.4" width="6.46" height="6.46" fill="#1b0003"/><rect x="103.4" y="96.94" width="6.46" height="6.46" fill="#db1943"/><rect x="103.4" y="90.48" width="6.46" height="6.46" fill="#db1943"/><rect x="103.4" y="84.02" width="6.46" height="6.46" fill="#db1943"/><rect x="103.4" y="77.55" width="6.46" height="6.46" fill="#db1943"/><rect x="103.4" y="71.09" width="6.46" height="6.46" fill="#db1943"/><rect x="103.4" y="64.63" width="6.46" height="6.46" fill="#b6294c"/><rect x="103.4" y="58.16" width="6.46" height="6.46" fill="#b6294c"/><rect x="103.4" y="51.7" width="6.46" height="6.46" fill="#b6294c"/><rect x="103.4" y="45.24" width="6.46" height="6.46" fill="#b6294c"/><rect x="103.4" y="38.78" width="6.46" height="6.46" fill="#b6294c"/><rect x="103.4" y="32.31" width="6.46" height="6.46" fill="#b6294c"/><rect x="103.4" y="25.85" width="6.46" height="6.46" fill="#1b0003"/><rect x="96.94" y="109.87" width="6.46" height="6.46" fill="#1b0003"/><rect x="96.94" y="103.4" width="6.46" height="6.46" fill="#db1943"/><rect x="96.94" y="96.94" width="6.46" height="6.46" fill="#db1943"/><rect x="96.94" y="90.48" width="6.46" height="6.46" fill="#db1943"/><rect x="96.94" y="84.02" width="6.46" height="6.46" fill="#db1943"/><rect x="96.94" y="77.55" width="6.46" height="6.46" fill="#b6294c"/><rect x="96.94" y="71.09" width="6.46" height="6.46" fill="#b6294c"/><rect x="96.94" y="64.63" width="6.46" height="6.46" fill="#b6294c"/><rect x="96.94" y="58.16" width="6.46" height="6.46" fill="#b6294c"/><rect x="96.94" y="51.7" width="6.46" height="6.46" fill="#b6294c"/><rect x="96.94" y="45.24" width="6.46" height="6.46" fill="#b6294c"/><rect x="96.94" y="38.78" width="6.46" height="6.46" fill="#db1943"/><rect x="96.94" y="32.31" width="6.46" height="6.46" fill="#b6294c"/><rect x="96.94" y="25.85" width="6.46" height="6.46" fill="#b6294c"/><rect x="96.94" y="19.39" width="6.46" height="6.46" fill="#1b0003"/><rect x="90.48" y="116.33" width="6.46" height="6.46" fill="#1b0003"/><rect x="90.48" y="109.87" width="6.46" height="6.46" fill="#db1943"/><rect x="90.48" y="103.4" width="6.46" height="6.46" fill="#db1943"/><rect x="90.48" y="96.94" width="6.46" height="6.46" fill="#db1943"/><rect x="90.48" y="90.48" width="6.46" height="6.46" fill="#b6294c"/><rect x="90.48" y="84.02" width="6.46" height="6.46" fill="#b6294c"/><rect x="90.48" y="77.55" width="6.46" height="6.46" fill="#b6294c"/><rect x="90.48" y="71.09" width="6.46" height="6.46" fill="#b6294c"/><rect x="90.48" y="64.63" width="6.46" height="6.46" fill="#db1943"/><rect x="90.48" y="58.16" width="6.46" height="6.46" fill="#db1943"/><rect x="90.48" y="51.7" width="6.46" height="6.46" fill="#db1943"/><rect x="90.48" y="45.24" width="6.46" height="6.46" fill="#db1943"/><rect x="90.48" y="38.78" width="6.46" height="6.46" fill="#db1943"/><rect x="90.48" y="32.31" width="6.46" height="6.46" fill="#db1943"/><rect x="90.48" y="25.85" width="6.46" height="6.46" fill="#b6294c"/><rect x="90.48" y="19.39" width="6.46" height="6.46" fill="#1b0003"/><rect x="84.02" y="116.33" width="6.46" height="6.46" fill="#1b0003"/><rect x="84.02" y="109.87" width="6.46" height="6.46" fill="#db1943"/><rect x="84.02" y="103.4" width="6.46" height="6.46" fill="#db1943"/><rect x="84.02" y="96.94" width="6.46" height="6.46" fill="#b6294c"/><rect x="84.02" y="90.48" width="6.46" height="6.46" fill="#b6294c"/><rect x="84.02" y="84.02" width="6.46" height="6.46" fill="#b6294c"/><rect x="84.02" y="77.55" width="6.46" height="6.46" fill="#b6294c"/><rect x="84.02" y="71.09" width="6.46" height="6.46" fill="#db1943"/><rect x="84.02" y="64.63" width="6.46" height="6.46" fill="#db1943"/><rect x="84.02" y="58.16" width="6.46" height="6.46" fill="#db1943"/><rect x="84.02" y="51.7" width="6.46" height="6.46" fill="#db1943"/><rect x="84.02" y="45.24" width="6.46" height="6.46" fill="#db1943"/><rect x="84.02" y="38.78" width="6.46" height="6.46" fill="#db1943"/><rect x="84.02" y="32.31" width="6.46" height="6.46" fill="#db1943"/><rect x="84.02" y="25.85" width="6.46" height="6.46" fill="#db1943"/><rect x="84.02" y="19.39" width="6.46" height="6.46" fill="#1b0003"/><rect x="84.02" y="12.93" width="6.46" height="6.46" fill="#1b0003"/><rect x="84.02" y="6.46" width="6.46" height="6.46" fill="#1b0003"/><rect x="77.55" y="122.79" width="6.46" height="6.46" fill="#1b0003"/><rect x="77.55" y="116.33" width="6.46" height="6.46" fill="#b6294c"/><rect x="77.55" y="109.87" width="6.46" height="6.46" fill="#db1943"/><rect x="77.55" y="103.4" width="6.46" height="6.46" fill="#b6294c"/><rect x="77.55" y="96.94" width="6.46" height="6.46" fill="#b6294c"/><rect x="77.55" y="90.48" width="6.46" height="6.46" fill="#b6294c"/><rect x="77.55" y="84.02" width="6.46" height="6.46" fill="#b6294c"/><rect x="77.55" y="77.55" width="6.46" height="6.46" fill="#db1943"/><rect x="77.55" y="71.09" width="6.46" height="6.46" fill="#db1943"/><rect x="77.55" y="64.63" width="6.46" height="6.46" fill="#db1943"/><rect x="77.55" y="58.16" width="6.46" height="6.46" fill="#db1943"/><rect x="77.55" y="51.7" width="6.46" height="6.46" fill="#db1943"/><rect x="77.55" y="45.24" width="6.46" height="6.46" fill="#db1943"/><rect x="77.55" y="38.78" width="6.46" height="6.46" fill="#db1943"/><rect x="77.55" y="32.31" width="6.46" height="6.46" fill="#db1943"/><rect x="77.55" y="25.85" width="6.46" height="6.46" fill="#b6294c"/><rect x="77.55" y="19.39" width="6.46" height="6.46" fill="#1b0003"/><rect x="77.55" y="12.93" width="6.46" height="6.46" fill="#1b0003"/><rect x="77.55" y="6.46" width="6.46" height="6.46" fill="#1b0003"/><rect x="77.55" width="6.46" height="6.46" fill="#1b0003"/><rect x="71.09" y="122.79" width="6.46" height="6.46" fill="#1b0003"/><rect x="71.09" y="116.33" width="6.46" height="6.46" fill="#b6294c"/><rect x="71.09" y="109.87" width="6.46" height="6.46" fill="#db1943"/><rect x="71.09" y="103.4" width="6.46" height="6.46" fill="#b6294c"/><rect x="71.09" y="96.94" width="6.46" height="6.46" fill="#b6294c"/><rect x="71.09" y="90.48" width="6.46" height="6.46" fill="#b6294c"/><rect x="71.09" y="84.02" width="6.46" height="6.46" fill="#db1943"/><rect x="71.09" y="77.55" width="6.46" height="6.46" fill="#eb3824"/><rect x="71.09" y="71.09" width="6.46" height="6.46" fill="#eb3824"/><rect x="71.09" y="64.63" width="6.46" height="6.46" fill="#eb3824"/><rect x="71.09" y="58.16" width="6.46" height="6.46" fill="#eb3824"/><rect x="71.09" y="51.7" width="6.46" height="6.46" fill="#db1943"/><rect x="71.09" y="45.24" width="6.46" height="6.46" fill="#db1943"/><rect x="71.09" y="38.78" width="6.46" height="6.46" fill="#db1943"/><rect x="71.09" y="32.31" width="6.46" height="6.46" fill="#b6294c"/><rect x="71.09" y="25.85" width="6.46" height="6.46" fill="#1b0003"/><rect x="71.09" y="19.39" width="6.46" height="6.46" fill="#386614"/><rect x="71.09" y="12.93" width="6.46" height="6.46" fill="#386614"/><rect x="71.09" y="6.46" width="6.46" height="6.46" fill="#3c9129"/><rect x="71.09" width="6.46" height="6.46" fill="#1b0003"/><rect x="64.63" y="122.79" width="6.46" height="6.46" fill="#1b0003"/><rect x="64.63" y="116.33" width="6.46" height="6.46" fill="#b6294c"/><rect x="64.63" y="109.87" width="6.46" height="6.46" fill="#b6294c"/><rect x="64.63" y="103.4" width="6.46" height="6.46" fill="#b6294c"/><rect x="64.63" y="96.94" width="6.46" height="6.46" fill="#b6294c"/><rect x="64.63" y="90.48" width="6.46" height="6.46" fill="#db1943"/><rect x="64.63" y="84.02" width="6.46" height="6.46" fill="#eb3824"/><rect x="64.63" y="77.55" width="6.46" height="6.46" fill="#eb3824"/><rect x="64.63" y="71.09" width="6.46" height="6.46" fill="#eb3824"/><rect x="64.63" y="64.63" width="6.46" height="6.46" fill="#eb3824"/><rect x="64.63" y="58.16" width="6.46" height="6.46" fill="#eb3824"/><rect x="64.63" y="51.7" width="6.46" height="6.46" fill="#eb3824"/><rect x="64.63" y="45.24" width="6.46" height="6.46" fill="#db1943"/><rect x="64.63" y="38.78" width="6.46" height="6.46" fill="#db1943"/><rect x="64.63" y="32.31" width="6.46" height="6.46" fill="#1b0003"/><rect x="64.63" y="25.85" width="6.46" height="6.46" fill="#386614"/><rect x="64.63" y="19.39" width="6.46" height="6.46" fill="#386614"/><rect x="64.63" y="12.93" width="6.46" height="6.46" fill="#3c9129"/><rect x="64.63" y="6.46" width="6.46" height="6.46" fill="#1b0003"/><rect x="64.63" width="6.46" height="6.46" fill="#1b0003"/><rect x="58.16" y="122.79" width="6.46" height="6.46" fill="#1b0003"/><rect x="58.16" y="116.33" width="6.46" height="6.46" fill="#b6294c"/><rect x="58.16" y="109.87" width="6.46" height="6.46" fill="#b6294c"/><rect x="58.16" y="103.4" width="6.46" height="6.46" fill="#b6294c"/><rect x="58.16" y="96.94" width="6.46" height="6.46" fill="#db1943"/><rect x="58.16" y="90.48" width="6.46" height="6.46" fill="#eb3824"/><rect x="58.16" y="84.02" width="6.46" height="6.46" fill="#eb3824"/><rect x="58.16" y="77.55" width="6.46" height="6.46" fill="#eb3824"/><rect x="58.16" y="71.09" width="6.46" height="6.46" fill="#eb3824"/><rect x="58.16" y="64.63" width="6.46" height="6.46" fill="#eb3824"/><rect x="58.16" y="58.16" width="6.46" height="6.46" fill="#eb3824"/><rect x="58.16" y="51.7" width="6.46" height="6.46" fill="#eb3824"/><rect x="58.16" y="45.24" width="6.46" height="6.46" fill="#db1943"/><rect x="58.16" y="38.78" width="6.46" height="6.46" fill="#db1943"/><rect x="58.16" y="32.31" width="6.46" height="6.46" fill="#1b0003"/><rect x="58.16" y="25.85" width="6.46" height="6.46" fill="#1b0003"/><rect x="58.16" y="19.39" width="6.46" height="6.46" fill="#1b0003"/><rect x="58.16" y="12.93" width="6.46" height="6.46" fill="#1b0003"/><rect x="58.16" y="6.46" width="6.46" height="6.46" fill="#1b0003"/><rect x="51.7" y="122.79" width="6.46" height="6.46" fill="#1b0003"/><rect x="51.7" y="116.33" width="6.46" height="6.46" fill="#b6294c"/><rect x="51.7" y="109.87" width="6.46" height="6.46" fill="#b6294c"/><rect x="51.7" y="103.4" width="6.46" height="6.46" fill="#db1943"/><rect x="51.7" y="96.94" width="6.46" height="6.46" fill="#eb3824"/><rect x="51.7" y="90.48" width="6.46" height="6.46" fill="#eb3824"/><rect x="51.7" y="84.02" width="6.46" height="6.46" fill="#eb3824"/><rect x="51.7" y="77.55" width="6.46" height="6.46" fill="#eb3824"/><rect x="51.7" y="71.09" width="6.46" height="6.46" fill="#eb3824"/><rect x="51.7" y="64.63" width="6.46" height="6.46" fill="#eb3824"/><rect x="51.7" y="58.16" width="6.46" height="6.46" fill="#eb3824"/><rect x="51.7" y="51.7" width="6.46" height="6.46" fill="#eb3824"/><rect x="51.7" y="45.24" width="6.46" height="6.46" fill="#db1943"/><rect x="51.7" y="38.78" width="6.46" height="6.46" fill="#db1943"/><rect x="51.7" y="32.31" width="6.46" height="6.46" fill="#1b0003"/><rect x="51.7" y="25.85" width="6.46" height="6.46" fill="#1b0003"/><rect x="51.7" y="19.39" width="6.46" height="6.46" fill="#1b0003"/><rect x="51.7" y="12.93" width="6.46" height="6.46" fill="#1b0003"/><rect x="51.7" y="6.46" width="6.46" height="6.46" fill="#1b0003"/><rect x="45.24" y="122.79" width="6.46" height="6.46" fill="#1b0003"/><rect x="45.24" y="116.33" width="6.46" height="6.46" fill="#b6294c"/><rect x="45.24" y="109.87" width="6.46" height="6.46" fill="#ad1e47"/><rect x="45.24" y="103.4" width="6.46" height="6.46" fill="#db1943"/><rect x="45.24" y="96.94" width="6.46" height="6.46" fill="#eb3824"/><rect x="45.24" y="90.48" width="6.46" height="6.46" fill="#eb3824"/><rect x="45.24" y="84.02" width="6.46" height="6.46" fill="#eb3824"/><rect x="45.24" y="77.55" width="6.46" height="6.46" fill="#eb3824"/><rect x="45.24" y="71.09" width="6.46" height="6.46" fill="#eb3824"/><rect x="45.24" y="64.63" width="6.46" height="6.46" fill="#eb3824"/><rect x="45.24" y="58.16" width="6.46" height="6.46" fill="#eb3824"/><rect x="45.24" y="51.7" width="6.46" height="6.46" fill="#eb3824"/><rect x="45.24" y="45.24" width="6.46" height="6.46" fill="#eb3824"/><rect x="45.24" y="38.78" width="6.46" height="6.46" fill="#db1943"/><rect x="45.24" y="32.31" width="6.46" height="6.46" fill="#1b0003"/><rect x="45.24" y="25.85" width="6.46" height="6.46" fill="#1b0003"/><rect x="45.24" y="19.39" width="6.46" height="6.46" fill="#1b0003"/><rect x="38.78" y="122.79" width="6.46" height="6.46" fill="#1b0003"/><rect x="38.78" y="116.33" width="6.46" height="6.46" fill="#b6294c"/><rect x="38.78" y="109.87" width="6.46" height="6.46" fill="#ad1e47"/><rect x="38.78" y="103.4" width="6.46" height="6.46" fill="#db1943"/><rect x="38.78" y="96.94" width="6.46" height="6.46" fill="#eb3824"/><rect x="38.78" y="90.48" width="6.46" height="6.46" fill="#eb3824"/><rect x="38.78" y="84.02" width="6.46" height="6.46" fill="#eb3824"/><rect x="38.78" y="77.55" width="6.46" height="6.46" fill="#eb3824"/><rect x="38.78" y="71.09" width="6.46" height="6.46" fill="#eb3824"/><rect x="38.78" y="64.63" width="6.46" height="6.46" fill="#eb3824"/><rect x="38.78" y="58.16" width="6.46" height="6.46" fill="#eb3824"/><rect x="38.78" y="51.7" width="6.46" height="6.46" fill="#eb3824"/><rect x="38.78" y="45.24" width="6.46" height="6.46" fill="#eb3824"/><rect x="38.78" y="38.78" width="6.46" height="6.46" fill="#eb3824"/><rect x="38.78" y="32.31" width="6.46" height="6.46" fill="#96173b"/><rect x="38.78" y="25.85" width="6.46" height="6.46" fill="#96173b"/><rect x="38.78" y="19.39" width="6.46" height="6.46" fill="#96173b"/><rect x="32.31" y="116.33" width="6.46" height="6.46" fill="#1b0003"/><rect x="32.31" y="109.87" width="6.46" height="6.46" fill="#b6294c"/><rect x="32.31" y="103.4" width="6.46" height="6.46" fill="#db1943"/><rect x="32.31" y="96.94" width="6.46" height="6.46" fill="#eb3824"/><rect x="32.31" y="90.48" width="6.46" height="6.46" fill="#eb3824"/><rect x="32.31" y="84.02" width="6.46" height="6.46" fill="#eb3824"/><rect x="32.31" y="77.55" width="6.46" height="6.46" fill="#eb3824"/><rect x="32.31" y="71.09" width="6.46" height="6.46" fill="#eb3824"/><rect x="32.31" y="64.63" width="6.46" height="6.46" fill="#eb3824"/><rect x="32.31" y="58.16" width="6.46" height="6.46" fill="#eb3824"/><rect x="32.31" y="51.7" width="6.46" height="6.46" fill="#eb3824"/><rect x="32.31" y="45.24" width="6.46" height="6.46" fill="#eb3824"/><rect x="32.31" y="38.78" width="6.46" height="6.46" fill="#eb3824"/><rect x="32.31" y="32.31" width="6.46" height="6.46" fill="#eb3824"/><rect x="32.31" y="25.85" width="6.46" height="6.46" fill="#b6294c"/><rect x="32.31" y="19.39" width="6.46" height="6.46" fill="#96173b"/><rect x="25.85" y="116.33" width="6.46" height="6.46" fill="#1b0003"/><rect x="25.85" y="109.87" width="6.46" height="6.46" fill="#db1943"/><rect x="25.85" y="103.4" width="6.46" height="6.46" fill="#db1943"/><rect x="25.85" y="96.94" width="6.46" height="6.46" fill="#eb3824"/><rect x="25.85" y="90.48" width="6.46" height="6.46" fill="#eb3824"/><rect x="25.85" y="84.02" width="6.46" height="6.46" fill="#eb3824"/><rect x="25.85" y="77.55" width="6.46" height="6.46" fill="#eb3824"/><rect x="25.85" y="71.09" width="6.46" height="6.46" fill="#eb3824"/><rect x="25.85" y="64.63" width="6.46" height="6.46" fill="#eb3824"/><rect x="25.85" y="58.16" width="6.46" height="6.46" fill="#eb3824"/><rect x="25.85" y="51.7" width="6.46" height="6.46" fill="#eb3824"/><rect x="25.85" y="45.24" width="6.46" height="6.46" fill="#ef837b"/><rect x="25.85" y="38.78" width="6.46" height="6.46" fill="#f4b9b8"/><rect x="25.85" y="32.31" width="6.46" height="6.46" fill="#eb3824"/><rect x="25.85" y="25.85" width="6.46" height="6.46" fill="#eb3824"/><rect x="25.85" y="19.39" width="6.46" height="6.46" fill="#96173b"/><rect x="19.39" y="109.87" width="6.46" height="6.46" fill="#1b0003"/><rect x="19.39" y="103.4" width="6.46" height="6.46" fill="#db1943"/><rect x="19.39" y="96.94" width="6.46" height="6.46" fill="#eb3824"/><rect x="19.39" y="90.48" width="6.46" height="6.46" fill="#eb3824"/><rect x="19.39" y="84.02" width="6.46" height="6.46" fill="#eb3824"/><rect x="19.39" y="77.55" width="6.46" height="6.46" fill="#eb3824"/><rect x="19.39" y="71.09" width="6.46" height="6.46" fill="#eb3824"/><rect x="19.39" y="64.63" width="6.46" height="6.46" fill="#eb3824"/><rect x="19.39" y="58.16" width="6.46" height="6.46" fill="#eb3824"/><rect x="19.39" y="51.7" width="6.46" height="6.46" fill="#ef837b"/><rect x="19.39" y="45.24" width="6.46" height="6.46" fill="#f4b9b8"/><rect x="19.39" y="38.78" width="6.46" height="6.46" fill="#f4b9b8"/><rect x="19.39" y="32.31" width="6.46" height="6.46" fill="#eb3824"/><rect x="19.39" y="25.85" width="6.46" height="6.46" fill="#eb3824"/><rect x="19.39" y="19.39" width="6.46" height="6.46" fill="#b6294c"/><rect x="12.93" y="103.4" width="6.46" height="6.46" fill="#1b0003"/><rect x="12.93" y="96.94" width="6.46" height="6.46" fill="#eb3824"/><rect x="12.93" y="90.48" width="6.46" height="6.46" fill="#eb3824"/><rect x="12.93" y="84.02" width="6.46" height="6.46" fill="#eb3824"/><rect x="12.93" y="77.55" width="6.46" height="6.46" fill="#eb3824"/><rect x="12.93" y="71.09" width="6.46" height="6.46" fill="#eb3824"/><rect x="12.93" y="64.63" width="6.46" height="6.46" fill="#eb3824"/><rect x="12.93" y="58.16" width="6.46" height="6.46" fill="#ef837b"/><rect x="12.93" y="51.7" width="6.46" height="6.46" fill="#ef837b"/><rect x="12.93" y="45.24" width="6.46" height="6.46" fill="#ef837b"/><rect x="12.93" y="38.78" width="6.46" height="6.46" fill="#eb3824"/><rect x="12.93" y="32.31" width="6.46" height="6.46" fill="#eb3824"/><rect x="12.93" y="25.85" width="6.46" height="6.46" fill="#96173b"/><rect x="6.46" y="96.94" width="6.46" height="6.46" fill="#1b0003"/><rect x="6.46" y="90.48" width="6.46" height="6.46" fill="#eb3824"/><rect x="6.46" y="84.02" width="6.46" height="6.46" fill="#eb3824"/><rect x="6.46" y="77.55" width="6.46" height="6.46" fill="#eb3824"/><rect x="6.46" y="71.09" width="6.46" height="6.46" fill="#eb3824"/><rect x="6.46" y="64.63" width="6.46" height="6.46" fill="#eb3824"/><rect x="6.46" y="58.16" width="6.46" height="6.46" fill="#eb3824"/><rect x="6.46" y="51.7" width="6.46" height="6.46" fill="#eb3824"/><rect x="6.46" y="45.24" width="6.46" height="6.46" fill="#eb3824"/><rect x="6.46" y="38.78" width="6.46" height="6.46" fill="#eb3824"/><rect x="6.46" y="32.31" width="6.46" height="6.46" fill="#96173b"/><rect y="90.48" width="6.46" height="6.46" fill="#1b0003"/><rect y="84.02" width="6.46" height="6.46" fill="#96173b"/><rect y="77.55" width="6.46" height="6.46" fill="#96173b"/><rect y="71.09" width="6.46" height="6.46" fill="#96173b"/><rect y="64.63" width="6.46" height="6.46" fill="#b6294c"/><rect y="58.16" width="6.46" height="6.46" fill="#b6294c"/><rect y="51.7" width="6.46" height="6.46" fill="#96173b"/><rect y="45.24" width="6.46" height="6.46" fill="#96173b"/><rect y="38.78" width="6.46" height="6.46" fill="#96173b"/></g></g></g></svg>