<svg xmlns="http://www.w3.org/2000/svg" width="111.51" height="116.36" viewBox="0 0 111.51 116.36"><g id="Layer_2" data-name="Layer 2"><g id="items"><g id="Shield_2" data-name="Shield 2"><rect x="106.66" y="58.18" width="4.85" height="4.85" fill="#1b0003"/><rect x="106.66" y="53.33" width="4.85" height="4.85" fill="#1b0003"/><rect x="106.66" y="48.48" width="4.85" height="4.85" fill="#1b0003"/><rect x="106.66" y="43.63" width="4.85" height="4.85" fill="#1b0003"/><rect x="106.66" y="38.79" width="4.85" height="4.85" fill="#1b0003"/><rect x="106.66" y="33.94" width="4.85" height="4.85" fill="#1b0003"/><rect x="106.66" y="29.09" width="4.85" height="4.85" fill="#1b0003"/><rect x="106.66" y="24.24" width="4.85" height="4.85" fill="#1b0003"/><rect x="106.66" y="19.39" width="4.85" height="4.85" fill="#1b0003"/><rect x="106.66" y="14.54" width="4.85" height="4.85" fill="#1b0003"/><rect x="106.66" y="9.7" width="4.85" height="4.85" fill="#1b0003"/><rect x="106.66" y="4.85" width="4.85" height="4.85" fill="#1b0003"/><rect x="106.66" width="4.85" height="4.85" fill="#1b0003"/><rect x="101.81" y="67.87" width="4.85" height="4.85" fill="#1b0003"/><rect x="101.81" y="63.03" width="4.85" height="4.85" fill="#1b0003"/><rect x="101.81" y="58.18" width="4.85" height="4.85" fill="#223c5b"/><rect x="101.81" y="53.33" width="4.85" height="4.85" fill="#6a87af"/><rect x="101.81" y="48.48" width="4.85" height="4.85" fill="#6a87af"/><rect x="101.81" y="43.63" width="4.85" height="4.85" fill="#85a1c9"/><rect x="101.81" y="38.79" width="4.85" height="4.85" fill="#85a1c9"/><rect x="101.81" y="33.94" width="4.85" height="4.85" fill="#85a1c9"/><rect x="101.81" y="29.09" width="4.85" height="4.85" fill="#85a1c9"/><rect x="101.81" y="24.24" width="4.85" height="4.85" fill="#85a1c9"/><rect x="101.81" y="19.39" width="4.85" height="4.85" fill="#85a1c9"/><rect x="101.81" y="14.54" width="4.85" height="4.85" fill="#85a1c9"/><rect x="101.81" y="9.7" width="4.85" height="4.85" fill="#85a1c9"/><rect x="101.81" y="4.85" width="4.85" height="4.85" fill="#85a1c9"/><rect x="101.81" width="4.85" height="4.85" fill="#1b0003"/><rect x="96.96" y="77.57" width="4.85" height="4.85" fill="#1b0003"/><rect x="96.96" y="72.72" width="4.85" height="4.85" fill="#223c5b"/><rect x="96.96" y="67.87" width="4.85" height="4.85" fill="#6a87af"/><rect x="96.96" y="63.03" width="4.85" height="4.85" fill="#6a87af"/><rect x="96.96" y="58.18" width="4.85" height="4.85" fill="#6a87af"/><rect x="96.96" y="53.33" width="4.85" height="4.85" fill="#85a1c9"/><rect x="96.96" y="48.48" width="4.85" height="4.85" fill="#85a1c9"/><rect x="96.96" y="43.63" width="4.85" height="4.85" fill="#85a1c9"/><rect x="96.96" y="38.79" width="4.85" height="4.85" fill="#85a1c9"/><rect x="96.96" y="33.94" width="4.85" height="4.85" fill="#85a1c9"/><rect x="96.96" y="29.09" width="4.85" height="4.85" fill="#85a1c9"/><rect x="96.96" y="24.24" width="4.85" height="4.85" fill="#85a1c9"/><rect x="96.96" y="19.39" width="4.85" height="4.85" fill="#85a1c9"/><rect x="96.96" y="14.54" width="4.85" height="4.85" fill="#85a1c9"/><rect x="96.96" y="9.7" width="4.85" height="4.85" fill="#85a1c9"/><rect x="96.96" y="4.85" width="4.85" height="4.85" fill="#85a1c9"/><rect x="96.96" width="4.85" height="4.85" fill="#1b0003"/><rect x="92.12" y="82.42" width="4.85" height="4.85" fill="#1b0003"/><rect x="92.12" y="77.57" width="4.85" height="4.85" fill="#223c5b"/><rect x="92.12" y="72.72" width="4.85" height="4.85" fill="#6a87af"/><rect x="92.12" y="67.87" width="4.85" height="4.85" fill="#6a87af"/><rect x="92.12" y="63.03" width="4.85" height="4.85" fill="#85a1c9"/><rect x="92.12" y="58.18" width="4.85" height="4.85" fill="#85a1c9"/><rect x="92.12" y="53.33" width="4.85" height="4.85" fill="#85a1c9"/><rect x="92.12" y="48.48" width="4.85" height="4.85" fill="#85a1c9"/><rect x="92.12" y="43.63" width="4.85" height="4.85" fill="#85a1c9"/><rect x="92.12" y="38.79" width="4.85" height="4.85" fill="#85a1c9"/><rect x="92.12" y="33.94" width="4.85" height="4.85" fill="#85a1c9"/><rect x="92.12" y="29.09" width="4.85" height="4.85" fill="#85a1c9"/><rect x="92.12" y="24.24" width="4.85" height="4.85" fill="#85a1c9"/><rect x="92.12" y="19.39" width="4.85" height="4.85" fill="#85a1c9"/><rect x="92.12" y="14.54" width="4.85" height="4.85" fill="#85a1c9"/><rect x="92.12" y="9.7" width="4.85" height="4.85" fill="#85a1c9"/><rect x="92.12" y="4.85" width="4.85" height="4.85" fill="#6a87af"/><rect x="92.12" width="4.85" height="4.85" fill="#1b0003"/><rect x="87.27" y="87.27" width="4.85" height="4.85" fill="#1b0003"/><rect x="87.27" y="82.42" width="4.85" height="4.85" fill="#223c5b"/><rect x="87.27" y="77.57" width="4.85" height="4.85" fill="#6a87af"/><rect x="87.27" y="72.72" width="4.85" height="4.85" fill="#6a87af"/><rect x="87.27" y="67.87" width="4.85" height="4.85" fill="#85a1c9"/><rect x="87.27" y="63.03" width="4.85" height="4.85" fill="#85a1c9"/><rect x="87.27" y="58.18" width="4.85" height="4.85" fill="#85a1c9"/><rect x="87.27" y="53.33" width="4.85" height="4.85" fill="#85a1c9"/><rect x="87.27" y="48.48" width="4.85" height="4.85" fill="#85a1c9"/><rect x="87.27" y="43.63" width="4.85" height="4.85" fill="#85a1c9"/><rect x="87.27" y="38.79" width="4.85" height="4.85" fill="#85a1c9"/><rect x="87.27" y="33.94" width="4.85" height="4.85" fill="#85a1c9"/><rect x="87.27" y="29.09" width="4.85" height="4.85" fill="#85a1c9"/><rect x="87.27" y="24.24" width="4.85" height="4.85" fill="#85a1c9"/><rect x="87.27" y="19.39" width="4.85" height="4.85" fill="#85a1c9"/><rect x="87.27" y="14.54" width="4.85" height="4.85" fill="#85a1c9"/><rect x="87.27" y="9.7" width="4.85" height="4.85" fill="#6a87af"/><rect x="87.27" y="4.85" width="4.85" height="4.85" fill="#6a87af"/><rect x="87.27" width="4.85" height="4.85" fill="#1b0003"/><rect x="82.42" y="92.12" width="4.85" height="4.85" fill="#1b0003"/><rect x="82.42" y="87.27" width="4.85" height="4.85" fill="#223c5b"/><rect x="82.42" y="82.42" width="4.85" height="4.85" fill="#6a87af"/><rect x="82.42" y="77.57" width="4.85" height="4.85" fill="#85a1c9"/><rect x="82.42" y="72.72" width="4.85" height="4.85" fill="#85a1c9"/><rect x="82.42" y="67.87" width="4.85" height="4.85" fill="#85a1c9"/><rect x="82.42" y="63.03" width="4.85" height="4.85" fill="#85a1c9"/><rect x="82.42" y="58.18" width="4.85" height="4.85" fill="#85a1c9"/><rect x="82.42" y="53.33" width="4.85" height="4.85" fill="#85a1c9"/><rect x="82.42" y="48.48" width="4.85" height="4.85" fill="#85a1c9"/><rect x="82.42" y="43.63" width="4.85" height="4.85" fill="#85a1c9"/><rect x="82.42" y="38.79" width="4.85" height="4.85" fill="#85a1c9"/><rect x="82.42" y="33.94" width="4.85" height="4.85" fill="#85a1c9"/><rect x="82.42" y="29.09" width="4.85" height="4.85" fill="#85a1c9"/><rect x="82.42" y="24.24" width="4.85" height="4.85" fill="#85a1c9"/><rect x="82.42" y="19.39" width="4.85" height="4.85" fill="#85a1c9"/><rect x="82.42" y="14.54" width="4.85" height="4.85" fill="#6a87af"/><rect x="82.42" y="9.7" width="4.85" height="4.85" fill="#85a1c9"/><rect x="82.42" y="4.85" width="4.85" height="4.85" fill="#6a87af"/><rect x="82.42" width="4.85" height="4.85" fill="#1b0003"/><rect x="77.57" y="96.96" width="4.85" height="4.85" fill="#1b0003"/><rect x="77.57" y="92.12" width="4.85" height="4.85" fill="#223c5b"/><rect x="77.57" y="87.27" width="4.85" height="4.85" fill="#6a87af"/><rect x="77.57" y="82.42" width="4.85" height="4.85" fill="#6a87af"/><rect x="77.57" y="77.57" width="4.85" height="4.85" fill="#85a1c9"/><rect x="77.57" y="72.72" width="4.85" height="4.85" fill="#85a1c9"/><rect x="77.57" y="67.87" width="4.85" height="4.85" fill="#85a1c9"/><rect x="77.57" y="63.03" width="4.85" height="4.85" fill="#85a1c9"/><rect x="77.57" y="58.18" width="4.85" height="4.85" fill="#85a1c9"/><rect x="77.57" y="53.33" width="4.85" height="4.85" fill="#85a1c9"/><rect x="77.57" y="48.48" width="4.85" height="4.85" fill="#85a1c9"/><rect x="77.57" y="43.63" width="4.85" height="4.85" fill="#85a1c9"/><rect x="77.57" y="38.79" width="4.85" height="4.85" fill="#85a1c9"/><rect x="77.57" y="33.94" width="4.85" height="4.85" fill="#85a1c9"/><rect x="77.57" y="29.09" width="4.85" height="4.85" fill="#85a1c9"/><rect x="77.57" y="24.24" width="4.85" height="4.85" fill="#85a1c9"/><rect x="77.57" y="19.39" width="4.85" height="4.85" fill="#6a87af"/><rect x="77.57" y="14.54" width="4.85" height="4.85" fill="#85a1c9"/><rect x="77.57" y="9.7" width="4.85" height="4.85" fill="#6a87af"/><rect x="77.57" y="4.85" width="4.85" height="4.85" fill="#6a87af"/><rect x="77.57" width="4.85" height="4.85" fill="#1b0003"/><rect x="72.72" y="101.81" width="4.85" height="4.85" fill="#1b0003"/><rect x="72.72" y="96.96" width="4.85" height="4.85" fill="#223c5b"/><rect x="72.72" y="92.12" width="4.85" height="4.85" fill="#6a87af"/><rect x="72.72" y="87.27" width="4.85" height="4.85" fill="#6a87af"/><rect x="72.72" y="82.42" width="4.85" height="4.85" fill="#85a1c9"/><rect x="72.72" y="77.57" width="4.85" height="4.85" fill="#85a1c9"/><rect x="72.72" y="72.72" width="4.85" height="4.85" fill="#85a1c9"/><rect x="72.72" y="67.87" width="4.85" height="4.85" fill="#85a1c9"/><rect x="72.72" y="63.03" width="4.85" height="4.85" fill="#85a1c9"/><rect x="72.72" y="58.18" width="4.85" height="4.85" fill="#85a1c9"/><rect x="72.72" y="53.33" width="4.85" height="4.85" fill="#85a1c9"/><rect x="72.72" y="48.48" width="4.85" height="4.85" fill="#85a1c9"/><rect x="72.72" y="43.63" width="4.85" height="4.85" fill="#85a1c9"/><rect x="72.72" y="38.79" width="4.85" height="4.85" fill="#85a1c9"/><rect x="72.72" y="33.94" width="4.85" height="4.85" fill="#85a1c9"/><rect x="72.72" y="29.09" width="4.85" height="4.85" fill="#85a1c9"/><rect x="72.72" y="24.24" width="4.85" height="4.85" fill="#6a87af"/><rect x="72.72" y="19.39" width="4.85" height="4.85" fill="#85a1c9"/><rect x="72.72" y="14.54" width="4.85" height="4.85" fill="#6a87af"/><rect x="72.72" y="9.7" width="4.85" height="4.85" fill="#85a1c9"/><rect x="72.72" y="4.85" width="4.85" height="4.85" fill="#6a87af"/><rect x="72.72" width="4.85" height="4.85" fill="#1b0003"/><rect x="67.87" y="106.66" width="4.85" height="4.85" fill="#1b0003"/><rect x="67.87" y="101.81" width="4.85" height="4.85" fill="#223c5b"/><rect x="67.87" y="96.96" width="4.85" height="4.85" fill="#6a87af"/><rect x="67.87" y="92.12" width="4.85" height="4.85" fill="#6a87af"/><rect x="67.87" y="87.27" width="4.85" height="4.85" fill="#85a1c9"/><rect x="67.87" y="82.42" width="4.85" height="4.85" fill="#85a1c9"/><rect x="67.87" y="77.57" width="4.85" height="4.85" fill="#85a1c9"/><rect x="67.87" y="72.72" width="4.85" height="4.85" fill="#85a1c9"/><rect x="67.87" y="67.87" width="4.85" height="4.85" fill="#85a1c9"/><rect x="67.87" y="63.03" width="4.85" height="4.85" fill="#85a1c9"/><rect x="67.87" y="58.18" width="4.85" height="4.85" fill="#85a1c9"/><rect x="67.87" y="53.33" width="4.85" height="4.85" fill="#85a1c9"/><rect x="67.87" y="48.48" width="4.85" height="4.85" fill="#85a1c9"/><rect x="67.87" y="43.63" width="4.85" height="4.85" fill="#85a1c9"/><rect x="67.87" y="38.79" width="4.85" height="4.85" fill="#85a1c9"/><rect x="67.87" y="33.94" width="4.85" height="4.85" fill="#85a1c9"/><rect x="67.87" y="29.09" width="4.85" height="4.85" fill="#6a87af"/><rect x="67.87" y="24.24" width="4.85" height="4.85" fill="#85a1c9"/><rect x="67.87" y="19.39" width="4.85" height="4.85" fill="#6a87af"/><rect x="67.87" y="14.54" width="4.85" height="4.85" fill="#85a1c9"/><rect x="67.87" y="9.7" width="4.85" height="4.85" fill="#6a87af"/><rect x="67.87" y="4.85" width="4.85" height="4.85" fill="#6a87af"/><rect x="67.87" width="4.85" height="4.85" fill="#1b0003"/><rect x="63.03" y="106.66" width="4.85" height="4.85" fill="#1b0003"/><rect x="63.03" y="101.81" width="4.85" height="4.85" fill="#6a87af"/><rect x="63.03" y="96.96" width="4.85" height="4.85" fill="#6a87af"/><rect x="63.03" y="92.12" width="4.85" height="4.85" fill="#6a87af"/><rect x="63.03" y="87.27" width="4.85" height="4.85" fill="#85a1c9"/><rect x="63.03" y="82.42" width="4.85" height="4.85" fill="#85a1c9"/><rect x="63.03" y="77.57" width="4.85" height="4.85" fill="#85a1c9"/><rect x="63.03" y="72.72" width="4.85" height="4.85" fill="#85a1c9"/><rect x="63.03" y="67.87" width="4.85" height="4.85" fill="#85a1c9"/><rect x="63.03" y="63.03" width="4.85" height="4.85" fill="#85a1c9"/><rect x="63.03" y="58.18" width="4.85" height="4.85" fill="#85a1c9"/><rect x="63.03" y="53.33" width="4.85" height="4.85" fill="#85a1c9"/><rect x="63.03" y="48.48" width="4.85" height="4.85" fill="#85a1c9"/><rect x="63.03" y="43.63" width="4.85" height="4.85" fill="#85a1c9"/><rect x="63.03" y="38.79" width="4.85" height="4.85" fill="#85a1c9"/><rect x="63.03" y="33.94" width="4.85" height="4.85" fill="#6a87af"/><rect x="63.03" y="29.09" width="4.85" height="4.85" fill="#85a1c9"/><rect x="63.03" y="24.24" width="4.85" height="4.85" fill="#6a87af"/><rect x="63.03" y="19.39" width="4.85" height="4.85" fill="#85a1c9"/><rect x="63.03" y="14.54" width="4.85" height="4.85" fill="#6a87af"/><rect x="63.03" y="9.7" width="4.85" height="4.85" fill="#6a87af"/><rect x="63.03" y="4.85" width="4.85" height="4.85" fill="#cfefff"/><rect x="63.03" width="4.85" height="4.85" fill="#1b0003"/><rect x="58.18" y="111.51" width="4.85" height="4.85" fill="#1b0003"/><rect x="58.18" y="106.66" width="4.85" height="4.85" fill="#223c5b"/><rect x="58.18" y="101.81" width="4.85" height="4.85" fill="#6a87af"/><rect x="58.18" y="96.96" width="4.85" height="4.85" fill="#6a87af"/><rect x="58.18" y="92.12" width="4.85" height="4.85" fill="#85a1c9"/><rect x="58.18" y="87.27" width="4.85" height="4.85" fill="#85a1c9"/><rect x="58.18" y="82.42" width="4.85" height="4.85" fill="#85a1c9"/><rect x="58.18" y="77.57" width="4.85" height="4.85" fill="#85a1c9"/><rect x="58.18" y="72.72" width="4.85" height="4.85" fill="#6a87af"/><rect x="58.18" y="67.87" width="4.85" height="4.85" fill="#6a87af"/><rect x="58.18" y="63.03" width="4.85" height="4.85" fill="#6a87af"/><rect x="58.18" y="58.18" width="4.85" height="4.85" fill="#6a87af"/><rect x="58.18" y="53.33" width="4.85" height="4.85" fill="#6a87af"/><rect x="58.18" y="48.48" width="4.85" height="4.85" fill="#6a87af"/><rect x="58.18" y="43.63" width="4.85" height="4.85" fill="#6a87af"/><rect x="58.18" y="38.79" width="4.85" height="4.85" fill="#6a87af"/><rect x="58.18" y="33.94" width="4.85" height="4.85" fill="#6a87af"/><rect x="58.18" y="29.09" width="4.85" height="4.85" fill="#6a87af"/><rect x="58.18" y="24.24" width="4.85" height="4.85" fill="#6a87af"/><rect x="58.18" y="19.39" width="4.85" height="4.85" fill="#6a87af"/><rect x="58.18" y="14.54" width="4.85" height="4.85" fill="#6a87af"/><rect x="58.18" y="9.7" width="4.85" height="4.85" fill="#6a87af"/><rect x="58.18" y="4.85" width="4.85" height="4.85" fill="#cfefff"/><rect x="58.18" width="4.85" height="4.85" fill="#1b0003"/><rect x="53.33" y="111.51" width="4.85" height="4.85" fill="#1b0003"/><rect x="53.33" y="106.66" width="4.85" height="4.85" fill="#223c5b"/><rect x="53.33" y="101.81" width="4.85" height="4.85" fill="#6a87af"/><rect x="53.33" y="96.96" width="4.85" height="4.85" fill="#6a87af"/><rect x="53.33" y="92.12" width="4.85" height="4.85" fill="#6a87af"/><rect x="53.33" y="87.27" width="4.85" height="4.85" fill="#6a87af"/><rect x="53.33" y="82.42" width="4.85" height="4.85" fill="#6a87af"/><rect x="53.33" y="77.57" width="4.85" height="4.85" fill="#6a87af"/><rect x="53.33" y="72.72" width="4.85" height="4.85" fill="#6a87af"/><rect x="53.33" y="67.87" width="4.85" height="4.85" fill="#6a87af"/><rect x="53.33" y="63.03" width="4.85" height="4.85" fill="#6a87af"/><rect x="53.33" y="58.18" width="4.85" height="4.85" fill="#6a87af"/><rect x="53.33" y="53.33" width="4.85" height="4.85" fill="#6a87af"/><rect x="53.33" y="48.48" width="4.85" height="4.85" fill="#6a87af"/><rect x="53.33" y="43.63" width="4.85" height="4.85" fill="#6a87af"/><rect x="53.33" y="38.79" width="4.85" height="4.85" fill="#6a87af"/><rect x="53.33" y="33.94" width="4.85" height="4.85" fill="#6a87af"/><rect x="53.33" y="29.09" width="4.85" height="4.85" fill="#6a87af"/><rect x="53.33" y="24.24" width="4.85" height="4.85" fill="#6a87af"/><rect x="53.33" y="19.39" width="4.85" height="4.85" fill="#6a87af"/><rect x="53.33" y="14.54" width="4.85" height="4.85" fill="#6a87af"/><rect x="53.33" y="9.7" width="4.85" height="4.85" fill="#bedbed"/><rect x="53.33" y="4.85" width="4.85" height="4.85" fill="#cfefff"/><rect x="53.33" width="4.85" height="4.85" fill="#1b0003"/><rect x="48.48" y="111.51" width="4.85" height="4.85" fill="#1b0003"/><rect x="48.48" y="106.66" width="4.85" height="4.85" fill="#223c5b"/><rect x="48.48" y="101.81" width="4.85" height="4.85" fill="#bedbed"/><rect x="48.48" y="96.96" width="4.85" height="4.85" fill="#bedbed"/><rect x="48.48" y="92.12" width="4.85" height="4.85" fill="#bedbed"/><rect x="48.48" y="87.27" width="4.85" height="4.85" fill="#bedbed"/><rect x="48.48" y="82.42" width="4.85" height="4.85" fill="#bedbed"/><rect x="48.48" y="77.57" width="4.85" height="4.85" fill="#bedbed"/><rect x="48.48" y="72.72" width="4.85" height="4.85" fill="#bedbed"/><rect x="48.48" y="67.87" width="4.85" height="4.85" fill="#bedbed"/><rect x="48.48" y="63.03" width="4.85" height="4.85" fill="#bedbed"/><rect x="48.48" y="58.18" width="4.85" height="4.85" fill="#bedbed"/><rect x="48.48" y="53.33" width="4.85" height="4.85" fill="#bedbed"/><rect x="48.48" y="48.48" width="4.85" height="4.85" fill="#bedbed"/><rect x="48.48" y="43.63" width="4.85" height="4.85" fill="#bedbed"/><rect x="48.48" y="38.79" width="4.85" height="4.85" fill="#bedbed"/><rect x="48.48" y="33.94" width="4.85" height="4.85" fill="#bedbed"/><rect x="48.48" y="29.09" width="4.85" height="4.85" fill="#bedbed"/><rect x="48.48" y="24.24" width="4.85" height="4.85" fill="#bedbed"/><rect x="48.48" y="19.39" width="4.85" height="4.85" fill="#bedbed"/><rect x="48.48" y="14.54" width="4.85" height="4.85" fill="#bedbed"/><rect x="48.48" y="9.7" width="4.85" height="4.85" fill="#bedbed"/><rect x="48.48" y="4.85" width="4.85" height="4.85" fill="#cfefff"/><rect x="48.48" width="4.85" height="4.85" fill="#1b0003"/><rect x="43.63" y="106.66" width="4.85" height="4.85" fill="#1b0003"/><rect x="43.63" y="101.81" width="4.85" height="4.85" fill="#bedbed"/><rect x="43.63" y="96.96" width="4.85" height="4.85" fill="#bedbed"/><rect x="43.63" y="92.12" width="4.85" height="4.85" fill="#bedbed"/><rect x="43.63" y="87.27" width="4.85" height="4.85" fill="#bedbed"/><rect x="43.63" y="82.42" width="4.85" height="4.85" fill="#bedbed"/><rect x="43.63" y="77.57" width="4.85" height="4.85" fill="#bedbed"/><rect x="43.63" y="72.72" width="4.85" height="4.85" fill="#bedbed"/><rect x="43.63" y="67.87" width="4.85" height="4.85" fill="#bedbed"/><rect x="43.63" y="63.03" width="4.85" height="4.85" fill="#bedbed"/><rect x="43.63" y="58.18" width="4.85" height="4.85" fill="#bedbed"/><rect x="43.63" y="53.33" width="4.85" height="4.85" fill="#bedbed"/><rect x="43.63" y="48.48" width="4.85" height="4.85" fill="#bedbed"/><rect x="43.63" y="43.63" width="4.85" height="4.85" fill="#bedbed"/><rect x="43.63" y="38.79" width="4.85" height="4.85" fill="#bedbed"/><rect x="43.63" y="33.94" width="4.85" height="4.85" fill="#bedbed"/><rect x="43.63" y="29.09" width="4.85" height="4.85" fill="#bedbed"/><rect x="43.63" y="24.24" width="4.85" height="4.85" fill="#bedbed"/><rect x="43.63" y="19.39" width="4.85" height="4.85" fill="#bedbed"/><rect x="43.63" y="14.54" width="4.85" height="4.85" fill="#cfefff"/><rect x="43.63" y="9.7" width="4.85" height="4.85" fill="#cfefff"/><rect x="43.63" y="4.85" width="4.85" height="4.85" fill="#cfefff"/><rect x="43.63" width="4.85" height="4.85" fill="#1b0003"/><rect x="38.79" y="106.66" width="4.85" height="4.85" fill="#1b0003"/><rect x="38.79" y="101.81" width="4.85" height="4.85" fill="#bedbed"/><rect x="38.79" y="96.96" width="4.85" height="4.85" fill="#bedbed"/><rect x="38.79" y="92.12" width="4.85" height="4.85" fill="#bedbed"/><rect x="38.79" y="87.27" width="4.85" height="4.85" fill="#bedbed"/><rect x="38.79" y="82.42" width="4.85" height="4.85" fill="#bedbed"/><rect x="38.79" y="77.57" width="4.85" height="4.85" fill="#bedbed"/><rect x="38.79" y="72.72" width="4.85" height="4.85" fill="#bedbed"/><rect x="38.79" y="67.87" width="4.85" height="4.85" fill="#bedbed"/><rect x="38.79" y="63.03" width="4.85" height="4.85" fill="#bedbed"/><rect x="38.79" y="58.18" width="4.85" height="4.85" fill="#bedbed"/><rect x="38.79" y="53.33" width="4.85" height="4.85" fill="#bedbed"/><rect x="38.79" y="48.48" width="4.85" height="4.85" fill="#bedbed"/><rect x="38.79" y="43.63" width="4.85" height="4.85" fill="#bedbed"/><rect x="38.79" y="38.79" width="4.85" height="4.85" fill="#bedbed"/><rect x="38.79" y="33.94" width="4.85" height="4.85" fill="#bedbed"/><rect x="38.79" y="29.09" width="4.85" height="4.85" fill="#bedbed"/><rect x="38.79" y="24.24" width="4.85" height="4.85" fill="#bedbed"/><rect x="38.79" y="19.39" width="4.85" height="4.85" fill="#cfefff"/><rect x="38.79" y="14.54" width="4.85" height="4.85" fill="#cfefff"/><rect x="38.79" y="9.7" width="4.85" height="4.85" fill="#bedbed"/><rect x="38.79" y="4.85" width="4.85" height="4.85" fill="#cfefff"/><rect x="38.79" width="4.85" height="4.85" fill="#1b0003"/><rect x="33.94" y="33.94" width="4.85" height="4.85" fill="#bedbed"/><rect x="33.94" y="29.09" width="4.85" height="4.85" fill="#bedbed"/><rect x="33.94" y="24.24" width="4.85" height="4.85" fill="#cfefff"/><rect x="33.94" y="19.39" width="4.85" height="4.85" fill="#bedbed"/><rect x="33.94" y="14.54" width="4.85" height="4.85" fill="#cfefff"/><rect x="33.94" y="9.7" width="4.85" height="4.85" fill="#cfefff"/><rect x="33.94" y="4.85" width="4.85" height="4.85" fill="#cfefff"/><rect x="33.94" width="4.85" height="4.85" fill="#1b0003"/><rect x="33.94" y="101.81" width="4.85" height="4.85" fill="#1b0003"/><rect x="33.94" y="96.96" width="4.85" height="4.85" fill="#bedbed"/><rect x="33.94" y="92.12" width="4.85" height="4.85" fill="#bedbed"/><rect x="33.94" y="87.27" width="4.85" height="4.85" fill="#bedbed"/><rect x="33.94" y="82.42" width="4.85" height="4.85" fill="#bedbed"/><rect x="33.94" y="77.57" width="4.85" height="4.85" fill="#bedbed"/><rect x="33.94" y="72.72" width="4.85" height="4.85" fill="#bedbed"/><rect x="33.94" y="67.87" width="4.85" height="4.85" fill="#bedbed"/><rect x="33.94" y="63.03" width="4.85" height="4.85" fill="#bedbed"/><rect x="33.94" y="58.18" width="4.85" height="4.85" fill="#bedbed"/><rect x="33.94" y="53.33" width="4.85" height="4.85" fill="#bedbed"/><rect x="33.94" y="48.48" width="4.85" height="4.85" fill="#bedbed"/><rect x="33.94" y="43.63" width="4.85" height="4.85" fill="#bedbed"/><rect x="33.94" y="38.79" width="4.85" height="4.85" fill="#bedbed"/><rect x="29.09" y="38.79" width="4.85" height="4.85" fill="#cfefff"/><rect x="29.09" y="33.94" width="4.85" height="4.85" fill="#cfefff"/><rect x="29.09" y="29.09" width="4.85" height="4.85" fill="#cfefff"/><rect x="29.09" y="24.24" width="4.85" height="4.85" fill="#cfefff"/><rect x="29.09" y="19.39" width="4.85" height="4.85" fill="#cfefff"/><rect x="29.09" y="14.54" width="4.85" height="4.85" fill="#cfefff"/><rect x="29.09" y="9.7" width="4.85" height="4.85" fill="#cfefff"/><rect x="29.09" y="4.85" width="4.85" height="4.85" fill="#cfefff"/><rect x="29.09" width="4.85" height="4.85" fill="#1b0003"/><rect x="29.09" y="96.96" width="4.85" height="4.85" fill="#1b0003"/><rect x="29.09" y="92.12" width="4.85" height="4.85" fill="#cfefff"/><rect x="29.09" y="87.27" width="4.85" height="4.85" fill="#cfefff"/><rect x="29.09" y="82.42" width="4.85" height="4.85" fill="#cfefff"/><rect x="29.09" y="77.57" width="4.85" height="4.85" fill="#cfefff"/><rect x="29.09" y="72.72" width="4.85" height="4.85" fill="#cfefff"/><rect x="29.09" y="67.87" width="4.85" height="4.85" fill="#cfefff"/><rect x="29.09" y="63.03" width="4.85" height="4.85" fill="#cfefff"/><rect x="29.09" y="58.18" width="4.85" height="4.85" fill="#cfefff"/><rect x="29.09" y="53.33" width="4.85" height="4.85" fill="#cfefff"/><rect x="29.09" y="48.48" width="4.85" height="4.85" fill="#cfefff"/><rect x="29.09" y="43.63" width="4.85" height="4.85" fill="#cfefff"/><rect x="24.24" y="38.79" width="4.85" height="4.85" fill="#cfefff"/><rect x="24.24" y="33.94" width="4.85" height="4.85" fill="#cfefff"/><rect x="24.24" y="29.09" width="4.85" height="4.85" fill="#cfefff"/><rect x="24.24" y="24.24" width="4.85" height="4.85" fill="#cfefff"/><rect x="24.24" y="19.39" width="4.85" height="4.85" fill="#cfefff"/><rect x="24.24" y="14.54" width="4.85" height="4.85" fill="#cfefff"/><rect x="24.24" y="9.7" width="4.85" height="4.85" fill="#cfefff"/><rect x="24.24" y="4.85" width="4.85" height="4.85" fill="#cfefff"/><rect x="24.24" width="4.85" height="4.85" fill="#1b0003"/><rect x="24.24" y="92.12" width="4.85" height="4.85" fill="#1b0003"/><rect x="24.24" y="87.27" width="4.85" height="4.85" fill="#bedbed"/><rect x="24.24" y="82.42" width="4.85" height="4.85" fill="#bedbed"/><rect x="24.24" y="77.57" width="4.85" height="4.85" fill="#bedbed"/><rect x="24.24" y="72.72" width="4.85" height="4.85" fill="#bedbed"/><rect x="24.24" y="67.87" width="4.85" height="4.85" fill="#bedbed"/><rect x="24.24" y="63.03" width="4.85" height="4.85" fill="#bedbed"/><rect x="24.24" y="58.18" width="4.85" height="4.85" fill="#cfefff"/><rect x="24.24" y="53.33" width="4.85" height="4.85" fill="#cfefff"/><rect x="24.24" y="48.48" width="4.85" height="4.85" fill="#cfefff"/><rect x="24.24" y="43.63" width="4.85" height="4.85" fill="#cfefff"/><rect x="19.39" y="38.79" width="4.85" height="4.85" fill="#bedbed"/><rect x="19.39" y="33.94" width="4.85" height="4.85" fill="#bedbed"/><rect x="19.39" y="29.09" width="4.85" height="4.85" fill="#cfefff"/><rect x="19.39" y="24.24" width="4.85" height="4.85" fill="#bedbed"/><rect x="19.39" y="19.39" width="4.85" height="4.85" fill="#cfefff"/><rect x="19.39" y="14.54" width="4.85" height="4.85" fill="#cfefff"/><rect x="19.39" y="9.7" width="4.85" height="4.85" fill="#cfefff"/><rect x="19.39" y="4.85" width="4.85" height="4.85" fill="#cfefff"/><rect x="19.39" width="4.85" height="4.85" fill="#1b0003"/><rect x="19.39" y="87.27" width="4.85" height="4.85" fill="#1b0003"/><rect x="19.39" y="82.42" width="4.85" height="4.85" fill="#bedbed"/><rect x="19.39" y="77.57" width="4.85" height="4.85" fill="#bedbed"/><rect x="19.39" y="72.72" width="4.85" height="4.85" fill="#bedbed"/><rect x="19.39" y="67.87" width="4.85" height="4.85" fill="#bedbed"/><rect x="19.39" y="63.03" width="4.85" height="4.85" fill="#bedbed"/><rect x="19.39" y="58.18" width="4.85" height="4.85" fill="#bedbed"/><rect x="19.39" y="53.33" width="4.85" height="4.85" fill="#bedbed"/><rect x="19.39" y="48.48" width="4.85" height="4.85" fill="#bedbed"/><rect x="19.39" y="43.63" width="4.85" height="4.85" fill="#bedbed"/><rect x="14.54" y="38.79" width="4.85" height="4.85" fill="#bedbed"/><rect x="14.54" y="33.94" width="4.85" height="4.85" fill="#bedbed"/><rect x="14.54" y="29.09" width="4.85" height="4.85" fill="#bedbed"/><rect x="14.54" y="24.24" width="4.85" height="4.85" fill="#cfefff"/><rect x="14.54" y="19.39" width="4.85" height="4.85" fill="#bedbed"/><rect x="14.54" y="14.54" width="4.85" height="4.85" fill="#cfefff"/><rect x="14.54" y="9.7" width="4.85" height="4.85" fill="#cfefff"/><rect x="14.54" y="4.85" width="4.85" height="4.85" fill="#cfefff"/><rect x="14.54" width="4.85" height="4.85" fill="#1b0003"/><rect x="14.54" y="82.42" width="4.85" height="4.85" fill="#1b0003"/><rect x="14.54" y="77.57" width="4.85" height="4.85" fill="#bedbed"/><rect x="14.54" y="72.72" width="4.85" height="4.85" fill="#bedbed"/><rect x="14.54" y="67.87" width="4.85" height="4.85" fill="#bedbed"/><rect x="14.54" y="63.03" width="4.85" height="4.85" fill="#bedbed"/><rect x="14.54" y="58.18" width="4.85" height="4.85" fill="#bedbed"/><rect x="14.54" y="53.33" width="4.85" height="4.85" fill="#bedbed"/><rect x="14.54" y="48.48" width="4.85" height="4.85" fill="#bedbed"/><rect x="14.54" y="43.63" width="4.85" height="4.85" fill="#bedbed"/><rect x="9.7" y="38.79" width="4.85" height="4.85" fill="#bedbed"/><rect x="9.7" y="33.94" width="4.85" height="4.85" fill="#bedbed"/><rect x="9.7" y="29.09" width="4.85" height="4.85" fill="#cfefff"/><rect x="9.7" y="24.24" width="4.85" height="4.85" fill="#bedbed"/><rect x="9.7" y="19.39" width="4.85" height="4.85" fill="#cfefff"/><rect x="9.7" y="14.54" width="4.85" height="4.85" fill="#cfefff"/><rect x="9.7" y="9.7" width="4.85" height="4.85" fill="#cfefff"/><rect x="9.7" y="4.85" width="4.85" height="4.85" fill="#cfefff"/><rect x="9.7" width="4.85" height="4.85" fill="#1b0003"/><rect x="9.7" y="77.57" width="4.85" height="4.85" fill="#1b0003"/><rect x="9.7" y="72.72" width="4.85" height="4.85" fill="#1b0003"/><rect x="9.7" y="67.87" width="4.85" height="4.85" fill="#bedbed"/><rect x="9.7" y="63.03" width="4.85" height="4.85" fill="#bedbed"/><rect x="9.7" y="58.18" width="4.85" height="4.85" fill="#bedbed"/><rect x="9.7" y="53.33" width="4.85" height="4.85" fill="#bedbed"/><rect x="9.7" y="48.48" width="4.85" height="4.85" fill="#bedbed"/><rect x="9.7" y="43.63" width="4.85" height="4.85" fill="#bedbed"/><rect x="4.85" y="38.79" width="4.85" height="4.85" fill="#bedbed"/><rect x="4.85" y="33.94" width="4.85" height="4.85" fill="#bedbed"/><rect x="4.85" y="29.09" width="4.85" height="4.85" fill="#bedbed"/><rect x="4.85" y="24.24" width="4.85" height="4.85" fill="#cfefff"/><rect x="4.85" y="19.39" width="4.85" height="4.85" fill="#cfefff"/><rect x="4.85" y="14.54" width="4.85" height="4.85" fill="#cfefff"/><rect x="4.85" y="9.7" width="4.85" height="4.85" fill="#cfefff"/><rect x="4.85" y="4.85" width="4.85" height="4.85" fill="#cfefff"/><rect x="4.85" width="4.85" height="4.85" fill="#1b0003"/><rect x="4.85" y="67.87" width="4.85" height="4.85" fill="#1b0003"/><rect x="4.85" y="63.03" width="4.85" height="4.85" fill="#1b0003"/><rect x="4.85" y="58.18" width="4.85" height="4.85" fill="#bedbed"/><rect x="4.85" y="53.33" width="4.85" height="4.85" fill="#bedbed"/><rect x="4.85" y="48.48" width="4.85" height="4.85" fill="#bedbed"/><rect x="4.85" y="43.63" width="4.85" height="4.85" fill="#bedbed"/><rect y="38.79" width="4.85" height="4.85" fill="#1b0003"/><rect y="33.94" width="4.85" height="4.85" fill="#1b0003"/><rect y="29.09" width="4.85" height="4.85" fill="#1b0003"/><rect y="24.24" width="4.85" height="4.85" fill="#1b0003"/><rect y="19.39" width="4.85" height="4.85" fill="#1b0003"/><rect y="14.54" width="4.85" height="4.85" fill="#1b0003"/><rect y="9.7" width="4.85" height="4.85" fill="#1b0003"/><rect y="4.85" width="4.85" height="4.85" fill="#1b0003"/><rect width="4.85" height="4.85" fill="#1b0003"/><rect y="58.18" width="4.85" height="4.85" fill="#1b0003"/><rect y="53.33" width="4.85" height="4.85" fill="#1b0003"/><rect y="48.48" width="4.85" height="4.85" fill="#1b0003"/><rect y="43.63" width="4.85" height="4.85" fill="#1b0003"/></g></g></g></svg>