<svg xmlns="http://www.w3.org/2000/svg" width="116.56" height="116.56" viewBox="0 0 116.56 116.56"><g id="Layer_2" data-name="Layer 2"><g id="items"><g id="Skeleton"><rect x="111.49" y="65.88" width="5.07" height="5.07" fill="#1b0003"/><rect x="111.49" y="60.81" width="5.07" height="5.07" fill="#1b0003"/><rect x="111.49" y="55.74" width="5.07" height="5.07" fill="#1b0003"/><rect x="111.49" y="50.68" width="5.07" height="5.07" fill="#1b0003"/><rect x="111.49" y="45.61" width="5.07" height="5.07" fill="#1b0003"/><rect x="111.49" y="40.54" width="5.07" height="5.07" fill="#1b0003"/><rect x="111.49" y="35.47" width="5.07" height="5.07" fill="#1b0003"/><rect x="106.42" y="76.02" width="5.07" height="5.07" fill="#1b0003"/><rect x="106.42" y="70.95" width="5.07" height="5.07" fill="#1b0003"/><rect x="106.42" y="65.88" width="5.07" height="5.07" fill="#d3af9f"/><rect x="106.42" y="60.81" width="5.07" height="5.07" fill="#d3af9f"/><rect x="106.42" y="55.74" width="5.07" height="5.07" fill="#d3af9f"/><rect x="106.42" y="50.68" width="5.07" height="5.07" fill="#d3af9f"/><rect x="106.42" y="45.61" width="5.07" height="5.07" fill="#d3af9f"/><rect x="106.42" y="40.54" width="5.07" height="5.07" fill="#d3af9f"/><rect x="106.42" y="35.47" width="5.07" height="5.07" fill="#d3af9f"/><rect x="106.42" y="30.41" width="5.07" height="5.07" fill="#1b0003"/><rect x="106.42" y="25.34" width="5.07" height="5.07" fill="#1b0003"/><rect x="101.35" y="81.08" width="5.07" height="5.07" fill="#1b0003"/><rect x="101.35" y="76.02" width="5.07" height="5.07" fill="#d3af9f"/><rect x="101.35" y="70.95" width="5.07" height="5.07" fill="#d3af9f"/><rect x="101.35" y="65.88" width="5.07" height="5.07" fill="#d3af9f"/><rect x="101.35" y="60.81" width="5.07" height="5.07" fill="#ead0b9"/><rect x="101.35" y="55.74" width="5.07" height="5.07" fill="#ead0b9"/><rect x="101.35" y="50.68" width="5.07" height="5.07" fill="#ead0b9"/><rect x="101.35" y="45.61" width="5.07" height="5.07" fill="#ead0b9"/><rect x="101.35" y="40.54" width="5.07" height="5.07" fill="#ead0b9"/><rect x="101.35" y="35.47" width="5.07" height="5.07" fill="#d3af9f"/><rect x="101.35" y="30.41" width="5.07" height="5.07" fill="#d3af9f"/><rect x="101.35" y="25.34" width="5.07" height="5.07" fill="#d3af9f"/><rect x="101.35" y="20.27" width="5.07" height="5.07" fill="#1b0003"/><rect x="101.35" y="15.2" width="5.07" height="5.07" fill="#1b0003"/><rect x="96.29" y="86.15" width="5.07" height="5.07" fill="#1b0003"/><rect x="96.29" y="81.08" width="5.07" height="5.07" fill="#d3af9f"/><rect x="96.29" y="76.02" width="5.07" height="5.07" fill="#ead0b9"/><rect x="96.29" y="70.95" width="5.07" height="5.07" fill="#d3af9f"/><rect x="96.29" y="65.88" width="5.07" height="5.07" fill="#ead0b9"/><rect x="96.29" y="60.81" width="5.07" height="5.07" fill="#ead0b9"/><rect x="96.29" y="55.74" width="5.07" height="5.07" fill="#ead0b9"/><rect x="96.29" y="50.68" width="5.07" height="5.07" fill="#ead0b9"/><rect x="96.29" y="45.61" width="5.07" height="5.07" fill="#ead0b9"/><rect x="96.29" y="40.54" width="5.07" height="5.07" fill="#ead0b9"/><rect x="96.29" y="35.47" width="5.07" height="5.07" fill="#ead0b9"/><rect x="96.29" y="30.41" width="5.07" height="5.07" fill="#ead0b9"/><rect x="96.29" y="25.34" width="5.07" height="5.07" fill="#ead0b9"/><rect x="96.29" y="20.27" width="5.07" height="5.07" fill="#d3af9f"/><rect x="96.29" y="15.2" width="5.07" height="5.07" fill="#d3af9f"/><rect x="96.29" y="10.14" width="5.07" height="5.07" fill="#1b0003"/><rect x="91.22" y="86.15" width="5.07" height="5.07" fill="#1b0003"/><rect x="91.22" y="81.08" width="5.07" height="5.07" fill="#ead0b9"/><rect x="91.22" y="76.02" width="5.07" height="5.07" fill="#d3af9f"/><rect x="91.22" y="70.95" width="5.07" height="5.07" fill="#ead0b9"/><rect x="91.22" y="65.88" width="5.07" height="5.07" fill="#ead0b9"/><rect x="91.22" y="60.81" width="5.07" height="5.07" fill="#ead0b9"/><rect x="91.22" y="55.74" width="5.07" height="5.07" fill="#f9f2d4"/><rect x="91.22" y="50.68" width="5.07" height="5.07" fill="#f9f2d4"/><rect x="91.22" y="45.61" width="5.07" height="5.07" fill="#f9f2d4"/><rect x="91.22" y="40.54" width="5.07" height="5.07" fill="#f9f2d4"/><rect x="91.22" y="35.47" width="5.07" height="5.07" fill="#f9f2d4"/><rect x="91.22" y="30.41" width="5.07" height="5.07" fill="#ead0b9"/><rect x="91.22" y="25.34" width="5.07" height="5.07" fill="#ead0b9"/><rect x="91.22" y="20.27" width="5.07" height="5.07" fill="#ead0b9"/><rect x="91.22" y="15.2" width="5.07" height="5.07" fill="#ead0b9"/><rect x="91.22" y="10.14" width="5.07" height="5.07" fill="#ead0b9"/><rect x="91.22" y="5.07" width="5.07" height="5.07" fill="#1b0003"/><rect x="86.15" y="101.35" width="5.07" height="5.07" fill="#1b0003"/><rect x="86.15" y="96.29" width="5.07" height="5.07" fill="#1b0003"/><rect x="86.15" y="91.22" width="5.07" height="5.07" fill="#1b0003"/><rect x="86.15" y="86.15" width="5.07" height="5.07" fill="#d3af9f"/><rect x="86.15" y="81.08" width="5.07" height="5.07" fill="#d3af9f"/><rect x="86.15" y="76.02" width="5.07" height="5.07" fill="#ead0b9"/><rect x="86.15" y="70.95" width="5.07" height="5.07" fill="#ead0b9"/><rect x="86.15" y="65.88" width="5.07" height="5.07" fill="#f9f2d4"/><rect x="86.15" y="60.81" width="5.07" height="5.07" fill="#f9f2d4"/><rect x="86.15" y="55.74" width="5.07" height="5.07" fill="#f9f2d4"/><rect x="86.15" y="50.68" width="5.07" height="5.07" fill="#f9f2d4"/><rect x="86.15" y="45.61" width="5.07" height="5.07" fill="#f9f2d4"/><rect x="86.15" y="40.54" width="5.07" height="5.07" fill="#f9f2d4"/><rect x="86.15" y="35.47" width="5.07" height="5.07" fill="#f9f2d4"/><rect x="86.15" y="30.41" width="5.07" height="5.07" fill="#f9f2d4"/><rect x="86.15" y="25.34" width="5.07" height="5.07" fill="#f9f2d4"/><rect x="86.15" y="20.27" width="5.07" height="5.07" fill="#ead0b9"/><rect x="86.15" y="15.2" width="5.07" height="5.07" fill="#ead0b9"/><rect x="86.15" y="10.14" width="5.07" height="5.07" fill="#ead0b9"/><rect x="86.15" y="5.07" width="5.07" height="5.07" fill="#1b0003"/><rect x="81.08" y="106.42" width="5.07" height="5.07" fill="#1b0003"/><rect x="81.08" y="101.35" width="5.07" height="5.07" fill="#d3af9f"/><rect x="81.08" y="96.29" width="5.07" height="5.07" fill="#d3af9f"/><rect x="81.08" y="91.22" width="5.07" height="5.07" fill="#ead0b9"/><rect x="81.08" y="86.15" width="5.07" height="5.07" fill="#ead0b9"/><rect x="81.08" y="81.08" width="5.07" height="5.07" fill="#1b0003"/><rect x="81.08" y="76.02" width="5.07" height="5.07" fill="#1b0003"/><rect x="81.08" y="70.95" width="5.07" height="5.07" fill="#1b0003"/><rect x="81.08" y="65.88" width="5.07" height="5.07" fill="#1b0003"/><rect x="81.08" y="60.81" width="5.07" height="5.07" fill="#f9f2d4"/><rect x="81.08" y="55.74" width="5.07" height="5.07" fill="#f9f2d4"/><rect x="81.08" y="50.68" width="5.07" height="5.07" fill="#f9f2d4"/><rect x="81.08" y="45.61" width="5.07" height="5.07" fill="#f9f2d4"/><rect x="81.08" y="40.54" width="5.07" height="5.07" fill="#f9f2d4"/><rect x="81.08" y="35.47" width="5.07" height="5.07" fill="#f9f2d4"/><rect x="81.08" y="30.41" width="5.07" height="5.07" fill="#f9f2d4"/><rect x="81.08" y="25.34" width="5.07" height="5.07" fill="#f9f2d4"/><rect x="81.08" y="20.27" width="5.07" height="5.07" fill="#f9f2d4"/><rect x="81.08" y="15.2" width="5.07" height="5.07" fill="#f9f2d4"/><rect x="81.08" y="10.14" width="5.07" height="5.07" fill="#f9f2d4"/><rect x="81.08" y="5.07" width="5.07" height="5.07" fill="#f9f2d4"/><rect x="81.08" width="5.07" height="5.07" fill="#1b0003"/><rect x="76.02" y="111.49" width="5.07" height="5.07" fill="#1b0003"/><rect x="76.02" y="106.42" width="5.07" height="5.07" fill="#ead0b9"/><rect x="76.02" y="101.35" width="5.07" height="5.07" fill="#ead0b9"/><rect x="76.02" y="96.29" width="5.07" height="5.07" fill="#ead0b9"/><rect x="76.02" y="91.22" width="5.07" height="5.07" fill="#ead0b9"/><rect x="76.02" y="86.15" width="5.07" height="5.07" fill="#ead0b9"/><rect x="76.02" y="81.08" width="5.07" height="5.07" fill="#1b0003"/><rect x="76.02" y="76.02" width="5.07" height="5.07" fill="#1b0003"/><rect x="76.02" y="70.95" width="5.07" height="5.07" fill="#1b0003"/><rect x="76.02" y="65.88" width="5.07" height="5.07" fill="#1b0003"/><rect x="76.02" y="60.81" width="5.07" height="5.07" fill="#f9f2d4"/><rect x="76.02" y="55.74" width="5.07" height="5.07" fill="#f9f2d4"/><rect x="76.02" y="50.68" width="5.07" height="5.07" fill="#f9f2d4"/><rect x="76.02" y="45.61" width="5.07" height="5.07" fill="#f9f2d4"/><rect x="76.02" y="40.54" width="5.07" height="5.07" fill="#f9f2d4"/><rect x="76.02" y="35.47" width="5.07" height="5.07" fill="#f9f2d4"/><rect x="76.02" y="30.41" width="5.07" height="5.07" fill="#f9f2d4"/><rect x="76.02" y="25.34" width="5.07" height="5.07" fill="#f9f2d4"/><rect x="76.02" y="20.27" width="5.07" height="5.07" fill="#f9f2d4"/><rect x="76.02" y="15.2" width="5.07" height="5.07" fill="#f9f2d4"/><rect x="76.02" y="10.14" width="5.07" height="5.07" fill="#f9f2d4"/><rect x="76.02" y="5.07" width="5.07" height="5.07" fill="#f9f2d4"/><rect x="76.02" width="5.07" height="5.07" fill="#1b0003"/><rect x="70.95" y="111.49" width="5.07" height="5.07" fill="#1b0003"/><rect x="70.95" y="106.42" width="5.07" height="5.07" fill="#f9f2d4"/><rect x="70.95" y="101.35" width="5.07" height="5.07" fill="#f9f2d4"/><rect x="70.95" y="96.29" width="5.07" height="5.07" fill="#f9f2d4"/><rect x="70.95" y="91.22" width="5.07" height="5.07" fill="#f9f2d4"/><rect x="70.95" y="86.15" width="5.07" height="5.07" fill="#f9f2d4"/><rect x="70.95" y="81.08" width="5.07" height="5.07" fill="#1b0003"/><rect x="70.95" y="76.02" width="5.07" height="5.07" fill="#1b0003"/><rect x="70.95" y="70.95" width="5.07" height="5.07" fill="#1b0003"/><rect x="70.95" y="65.88" width="5.07" height="5.07" fill="#1b0003"/><rect x="70.95" y="60.81" width="5.07" height="5.07" fill="#f9f2d4"/><rect x="70.95" y="55.74" width="5.07" height="5.07" fill="#f9f2d4"/><rect x="70.95" y="50.68" width="5.07" height="5.07" fill="#f9f2d4"/><rect x="70.95" y="45.61" width="5.07" height="5.07" fill="#f9f2d4"/><rect x="70.95" y="40.54" width="5.07" height="5.07" fill="#f9f2d4"/><rect x="70.95" y="35.47" width="5.07" height="5.07" fill="#f9f2d4"/><rect x="70.95" y="30.41" width="5.07" height="5.07" fill="#f9f2d4"/><rect x="70.95" y="25.34" width="5.07" height="5.07" fill="#f9f2d4"/><rect x="70.95" y="20.27" width="5.07" height="5.07" fill="#f9f2d4"/><rect x="70.95" y="15.2" width="5.07" height="5.07" fill="#f9f2d4"/><rect x="70.95" y="10.14" width="5.07" height="5.07" fill="#f9f2d4"/><rect x="70.95" y="5.07" width="5.07" height="5.07" fill="#f9f2d4"/><rect x="70.95" width="5.07" height="5.07" fill="#1b0003"/><rect x="65.88" y="111.49" width="5.07" height="5.07" fill="#1b0003"/><rect x="65.88" y="106.42" width="5.07" height="5.07" fill="#1b0003"/><rect x="65.88" y="101.35" width="5.07" height="5.07" fill="#1b0003"/><rect x="65.88" y="96.29" width="5.07" height="5.07" fill="#f9f2d4"/><rect x="65.88" y="91.22" width="5.07" height="5.07" fill="#f9f2d4"/><rect x="65.88" y="86.15" width="5.07" height="5.07" fill="#f9f2d4"/><rect x="65.88" y="81.08" width="5.07" height="5.07" fill="#f9f2d4"/><rect x="65.88" y="76.02" width="5.07" height="5.07" fill="#f9f2d4"/><rect x="65.88" y="70.95" width="5.07" height="5.07" fill="#f9f2d4"/><rect x="65.88" y="65.88" width="5.07" height="5.07" fill="#f9f2d4"/><rect x="65.88" y="60.81" width="5.07" height="5.07" fill="#f9f2d4"/><rect x="65.88" y="55.74" width="5.07" height="5.07" fill="#f9f2d4"/><rect x="65.88" y="50.68" width="5.07" height="5.07" fill="#f9f2d4"/><rect x="65.88" y="45.61" width="5.07" height="5.07" fill="#f9f2d4"/><rect x="65.88" y="40.54" width="5.07" height="5.07" fill="#f9f2d4"/><rect x="65.88" y="35.47" width="5.07" height="5.07" fill="#f9f2d4"/><rect x="65.88" y="30.41" width="5.07" height="5.07" fill="#f9f2d4"/><rect x="65.88" y="25.34" width="5.07" height="5.07" fill="#f9f2d4"/><rect x="65.88" y="20.27" width="5.07" height="5.07" fill="#f9f2d4"/><rect x="65.88" y="15.2" width="5.07" height="5.07" fill="#f9f2d4"/><rect x="65.88" y="10.14" width="5.07" height="5.07" fill="#f9f2d4"/><rect x="65.88" y="5.07" width="5.07" height="5.07" fill="#f9f2d4"/><rect x="65.88" width="5.07" height="5.07" fill="#1b0003"/><rect x="60.81" y="111.49" width="5.07" height="5.07" fill="#1b0003"/><rect x="60.81" y="106.42" width="5.07" height="5.07" fill="#f9f2d4"/><rect x="60.81" y="101.35" width="5.07" height="5.07" fill="#f9f2d4"/><rect x="60.81" y="96.29" width="5.07" height="5.07" fill="#f9f2d4"/><rect x="60.81" y="91.22" width="5.07" height="5.07" fill="#ead0b9"/><rect x="60.81" y="86.15" width="5.07" height="5.07" fill="#f9f2d4"/><rect x="60.81" y="81.08" width="5.07" height="5.07" fill="#f9f2d4"/><rect x="60.81" y="76.02" width="5.07" height="5.07" fill="#f9f2d4"/><rect x="60.81" y="70.95" width="5.07" height="5.07" fill="#f9f2d4"/><rect x="60.81" y="65.88" width="5.07" height="5.07" fill="#f9f2d4"/><rect x="60.81" y="60.81" width="5.07" height="5.07" fill="#f9f2d4"/><rect x="60.81" y="55.74" width="5.07" height="5.07" fill="#f9f2d4"/><rect x="60.81" y="50.68" width="5.07" height="5.07" fill="#f9f2d4"/><rect x="60.81" y="45.61" width="5.07" height="5.07" fill="#f9f2d4"/><rect x="60.81" y="40.54" width="5.07" height="5.07" fill="#f9f2d4"/><rect x="60.81" y="35.47" width="5.07" height="5.07" fill="#f9f2d4"/><rect x="60.81" y="30.41" width="5.07" height="5.07" fill="#f9f2d4"/><rect x="60.81" y="25.34" width="5.07" height="5.07" fill="#f9f2d4"/><rect x="60.81" y="20.27" width="5.07" height="5.07" fill="#f9f2d4"/><rect x="60.81" y="15.2" width="5.07" height="5.07" fill="#f9f2d4"/><rect x="60.81" y="10.14" width="5.07" height="5.07" fill="#f9f2d4"/><rect x="60.81" y="5.07" width="5.07" height="5.07" fill="#f9f2d4"/><rect x="60.81" width="5.07" height="5.07" fill="#1b0003"/><rect x="55.74" y="111.49" width="5.07" height="5.07" fill="#1b0003"/><rect x="55.74" y="106.42" width="5.07" height="5.07" fill="#f9f2d4"/><rect x="55.74" y="101.35" width="5.07" height="5.07" fill="#f9f2d4"/><rect x="55.74" y="96.29" width="5.07" height="5.07" fill="#f9f2d4"/><rect x="55.74" y="91.22" width="5.07" height="5.07" fill="#d3af9f"/><rect x="55.74" y="86.15" width="5.07" height="5.07" fill="#ead0b9"/><rect x="55.74" y="81.08" width="5.07" height="5.07" fill="#f9f2d4"/><rect x="55.74" y="76.02" width="5.07" height="5.07" fill="#f9f2d4"/><rect x="55.74" y="70.95" width="5.07" height="5.07" fill="#f9f2d4"/><rect x="55.74" y="65.88" width="5.07" height="5.07" fill="#f9f2d4"/><rect x="55.74" y="60.81" width="5.07" height="5.07" fill="#f9f2d4"/><rect x="55.74" y="55.74" width="5.07" height="5.07" fill="#f9f2d4"/><rect x="55.74" y="50.68" width="5.07" height="5.07" fill="#f9f2d4"/><rect x="55.74" y="45.61" width="5.07" height="5.07" fill="#f9f2d4"/><rect x="55.74" y="40.54" width="5.07" height="5.07" fill="#f9f2d4"/><rect x="55.74" y="35.47" width="5.07" height="5.07" fill="#f9f2d4"/><rect x="55.74" y="30.41" width="5.07" height="5.07" fill="#f9f2d4"/><rect x="55.74" y="25.34" width="5.07" height="5.07" fill="#f9f2d4"/><rect x="55.74" y="20.27" width="5.07" height="5.07" fill="#f9f2d4"/><rect x="55.74" y="15.2" width="5.07" height="5.07" fill="#f9f2d4"/><rect x="55.74" y="10.14" width="5.07" height="5.07" fill="#f9f2d4"/><rect x="55.74" y="5.07" width="5.07" height="5.07" fill="#f9f2d4"/><rect x="55.74" width="5.07" height="5.07" fill="#1b0003"/><rect x="50.68" y="111.49" width="5.07" height="5.07" fill="#1b0003"/><rect x="50.68" y="106.42" width="5.07" height="5.07" fill="#f9f2d4"/><rect x="50.68" y="101.35" width="5.07" height="5.07" fill="#f9f2d4"/><rect x="50.68" y="96.29" width="5.07" height="5.07" fill="#f9f2d4"/><rect x="50.68" y="91.22" width="5.07" height="5.07" fill="#ead0b9"/><rect x="50.68" y="86.15" width="5.07" height="5.07" fill="#f9f2d4"/><rect x="50.68" y="81.08" width="5.07" height="5.07" fill="#f9f2d4"/><rect x="50.68" y="76.02" width="5.07" height="5.07" fill="#f9f2d4"/><rect x="50.68" y="70.95" width="5.07" height="5.07" fill="#f9f2d4"/><rect x="50.68" y="65.88" width="5.07" height="5.07" fill="#f9f2d4"/><rect x="50.68" y="60.81" width="5.07" height="5.07" fill="#f9f2d4"/><rect x="50.68" y="55.74" width="5.07" height="5.07" fill="#f9f2d4"/><rect x="50.68" y="50.68" width="5.07" height="5.07" fill="#f9f2d4"/><rect x="50.68" y="45.61" width="5.07" height="5.07" fill="#f9f2d4"/><rect x="50.68" y="40.54" width="5.07" height="5.07" fill="#f9f2d4"/><rect x="50.68" y="35.47" width="5.07" height="5.07" fill="#f9f2d4"/><rect x="50.68" y="30.41" width="5.07" height="5.07" fill="#f9f2d4"/><rect x="50.68" y="25.34" width="5.07" height="5.07" fill="#f9f2d4"/><rect x="50.68" y="20.27" width="5.07" height="5.07" fill="#f9f2d4"/><rect x="50.68" y="15.2" width="5.07" height="5.07" fill="#f9f2d4"/><rect x="50.68" y="10.14" width="5.07" height="5.07" fill="#f9f2d4"/><rect x="50.68" y="5.07" width="5.07" height="5.07" fill="#f9f2d4"/><rect x="50.68" width="5.07" height="5.07" fill="#1b0003"/><rect x="45.61" y="111.49" width="5.07" height="5.07" fill="#1b0003"/><rect x="45.61" y="106.42" width="5.07" height="5.07" fill="#1b0003"/><rect x="45.61" y="101.35" width="5.07" height="5.07" fill="#1b0003"/><rect x="45.61" y="96.29" width="5.07" height="5.07" fill="#f9f2d4"/><rect x="45.61" y="91.22" width="5.07" height="5.07" fill="#f9f2d4"/><rect x="45.61" y="86.15" width="5.07" height="5.07" fill="#f9f2d4"/><rect x="45.61" y="81.08" width="5.07" height="5.07" fill="#f9f2d4"/><rect x="45.61" y="76.02" width="5.07" height="5.07" fill="#f9f2d4"/><rect x="45.61" y="70.95" width="5.07" height="5.07" fill="#f9f2d4"/><rect x="45.61" y="65.88" width="5.07" height="5.07" fill="#f9f2d4"/><rect x="45.61" y="60.81" width="5.07" height="5.07" fill="#f9f2d4"/><rect x="45.61" y="55.74" width="5.07" height="5.07" fill="#f9f2d4"/><rect x="45.61" y="50.68" width="5.07" height="5.07" fill="#f9f2d4"/><rect x="45.61" y="45.61" width="5.07" height="5.07" fill="#f9f2d4"/><rect x="45.61" y="40.54" width="5.07" height="5.07" fill="#f9f2d4"/><rect x="45.61" y="35.47" width="5.07" height="5.07" fill="#f9f2d4"/><rect x="45.61" y="30.41" width="5.07" height="5.07" fill="#f9f2d4"/><rect x="45.61" y="25.34" width="5.07" height="5.07" fill="#f7f3e4"/><rect x="45.61" y="20.27" width="5.07" height="5.07" fill="#f7f3e4"/><rect x="45.61" y="15.2" width="5.07" height="5.07" fill="#f7f3e4"/><rect x="45.61" y="10.14" width="5.07" height="5.07" fill="#f9f2d4"/><rect x="45.61" y="5.07" width="5.07" height="5.07" fill="#f9f2d4"/><rect x="45.61" width="5.07" height="5.07" fill="#1b0003"/><rect x="40.54" y="111.49" width="5.07" height="5.07" fill="#1b0003"/><rect x="40.54" y="106.42" width="5.07" height="5.07" fill="#f9f2d4"/><rect x="40.54" y="101.35" width="5.07" height="5.07" fill="#f9f2d4"/><rect x="40.54" y="96.29" width="5.07" height="5.07" fill="#f9f2d4"/><rect x="40.54" y="91.22" width="5.07" height="5.07" fill="#f9f2d4"/><rect x="40.54" y="86.15" width="5.07" height="5.07" fill="#f9f2d4"/><rect x="40.54" y="81.08" width="5.07" height="5.07" fill="#1b0003"/><rect x="40.54" y="76.02" width="5.07" height="5.07" fill="#1b0003"/><rect x="40.54" y="70.95" width="5.07" height="5.07" fill="#1b0003"/><rect x="40.54" y="65.88" width="5.07" height="5.07" fill="#1b0003"/><rect x="40.54" y="60.81" width="5.07" height="5.07" fill="#f9f2d4"/><rect x="40.54" y="55.74" width="5.07" height="5.07" fill="#f9f2d4"/><rect x="40.54" y="50.68" width="5.07" height="5.07" fill="#f9f2d4"/><rect x="40.54" y="45.61" width="5.07" height="5.07" fill="#f9f2d4"/><rect x="40.54" y="40.54" width="5.07" height="5.07" fill="#f9f2d4"/><rect x="40.54" y="35.47" width="5.07" height="5.07" fill="#f9f2d4"/><rect x="40.54" y="30.41" width="5.07" height="5.07" fill="#f9f2d4"/><rect x="40.54" y="25.34" width="5.07" height="5.07" fill="#f7f3e4"/><rect x="40.54" y="20.27" width="5.07" height="5.07" fill="#f7f3e4"/><rect x="40.54" y="15.2" width="5.07" height="5.07" fill="#f7f3e4"/><rect x="40.54" y="10.14" width="5.07" height="5.07" fill="#f7f3e4"/><rect x="40.54" y="5.07" width="5.07" height="5.07" fill="#f9f2d4"/><rect x="40.54" width="5.07" height="5.07" fill="#1b0003"/><rect x="35.47" y="111.49" width="5.07" height="5.07" fill="#1b0003"/><rect x="35.47" y="106.42" width="5.07" height="5.07" fill="#f9f2d4"/><rect x="35.47" y="101.35" width="5.07" height="5.07" fill="#f9f2d4"/><rect x="35.47" y="96.29" width="5.07" height="5.07" fill="#f9f2d4"/><rect x="35.47" y="91.22" width="5.07" height="5.07" fill="#f9f2d4"/><rect x="35.47" y="86.15" width="5.07" height="5.07" fill="#f9f2d4"/><rect x="35.47" y="81.08" width="5.07" height="5.07" fill="#1b0003"/><rect x="35.47" y="76.02" width="5.07" height="5.07" fill="#1b0003"/><rect x="35.47" y="70.95" width="5.07" height="5.07" fill="#1b0003"/><rect x="35.47" y="65.88" width="5.07" height="5.07" fill="#1b0003"/><rect x="35.47" y="60.81" width="5.07" height="5.07" fill="#f9f2d4"/><rect x="35.47" y="55.74" width="5.07" height="5.07" fill="#f9f2d4"/><rect x="35.47" y="50.68" width="5.07" height="5.07" fill="#f9f2d4"/><rect x="35.47" y="45.61" width="5.07" height="5.07" fill="#f9f2d4"/><rect x="35.47" y="40.54" width="5.07" height="5.07" fill="#f9f2d4"/><rect x="35.47" y="35.47" width="5.07" height="5.07" fill="#f9f2d4"/><rect x="35.47" y="30.41" width="5.07" height="5.07" fill="#f7f3e4"/><rect x="35.47" y="25.34" width="5.07" height="5.07" fill="#f7f3e4"/><rect x="35.47" y="20.27" width="5.07" height="5.07" fill="#f7f3e4"/><rect x="35.47" y="15.2" width="5.07" height="5.07" fill="#f7f3e4"/><rect x="35.47" y="10.14" width="5.07" height="5.07" fill="#f9f2d4"/><rect x="35.47" y="5.07" width="5.07" height="5.07" fill="#f9f2d4"/><rect x="35.47" width="5.07" height="5.07" fill="#1b0003"/><rect x="30.41" y="106.42" width="5.07" height="5.07" fill="#1b0003"/><rect x="30.41" y="101.35" width="5.07" height="5.07" fill="#ead0b9"/><rect x="30.41" y="96.29" width="5.07" height="5.07" fill="#ead0b9"/><rect x="30.41" y="91.22" width="5.07" height="5.07" fill="#ead0b9"/><rect x="30.41" y="86.15" width="5.07" height="5.07" fill="#f9f2d4"/><rect x="30.41" y="81.08" width="5.07" height="5.07" fill="#1b0003"/><rect x="30.41" y="76.02" width="5.07" height="5.07" fill="#1b0003"/><rect x="30.41" y="70.95" width="5.07" height="5.07" fill="#1b0003"/><rect x="30.41" y="65.88" width="5.07" height="5.07" fill="#1b0003"/><rect x="30.41" y="60.81" width="5.07" height="5.07" fill="#f9f2d4"/><rect x="30.41" y="55.74" width="5.07" height="5.07" fill="#f9f2d4"/><rect x="30.41" y="50.68" width="5.07" height="5.07" fill="#f9f2d4"/><rect x="30.41" y="45.61" width="5.07" height="5.07" fill="#f9f2d4"/><rect x="30.41" y="40.54" width="5.07" height="5.07" fill="#f9f2d4"/><rect x="30.41" y="35.47" width="5.07" height="5.07" fill="#f9f2d4"/><rect x="30.41" y="30.41" width="5.07" height="5.07" fill="#f7f3e4"/><rect x="30.41" y="25.34" width="5.07" height="5.07" fill="#f7f3e4"/><rect x="30.41" y="20.27" width="5.07" height="5.07" fill="#f7f3e4"/><rect x="30.41" y="15.2" width="5.07" height="5.07" fill="#f7f3e4"/><rect x="30.41" y="10.14" width="5.07" height="5.07" fill="#f9f2d4"/><rect x="30.41" y="5.07" width="5.07" height="5.07" fill="#f9f2d4"/><rect x="30.41" width="5.07" height="5.07" fill="#1b0003"/><rect x="25.34" y="101.35" width="5.07" height="5.07" fill="#1b0003"/><rect x="25.34" y="96.29" width="5.07" height="5.07" fill="#1b0003"/><rect x="25.34" y="91.22" width="5.07" height="5.07" fill="#1b0003"/><rect x="25.34" y="86.15" width="5.07" height="5.07" fill="#ead0b9"/><rect x="25.34" y="81.08" width="5.07" height="5.07" fill="#f9f2d4"/><rect x="25.34" y="76.02" width="5.07" height="5.07" fill="#f9f2d4"/><rect x="25.34" y="70.95" width="5.07" height="5.07" fill="#f9f2d4"/><rect x="25.34" y="65.88" width="5.07" height="5.07" fill="#f9f2d4"/><rect x="25.34" y="60.81" width="5.07" height="5.07" fill="#f9f2d4"/><rect x="25.34" y="55.74" width="5.07" height="5.07" fill="#f9f2d4"/><rect x="25.34" y="50.68" width="5.07" height="5.07" fill="#f9f2d4"/><rect x="25.34" y="45.61" width="5.07" height="5.07" fill="#f9f2d4"/><rect x="25.34" y="40.54" width="5.07" height="5.07" fill="#f9f2d4"/><rect x="25.34" y="35.47" width="5.07" height="5.07" fill="#f9f2d4"/><rect x="25.34" y="30.41" width="5.07" height="5.07" fill="#f7f3e4"/><rect x="25.34" y="25.34" width="5.07" height="5.07" fill="#f7f3e4"/><rect x="25.34" y="20.27" width="5.07" height="5.07" fill="#f9f2d4"/><rect x="25.34" y="15.2" width="5.07" height="5.07" fill="#f9f2d4"/><rect x="25.34" y="10.14" width="5.07" height="5.07" fill="#f9f2d4"/><rect x="25.34" y="5.07" width="5.07" height="5.07" fill="#1b0003"/><rect x="20.27" y="86.15" width="5.07" height="5.07" fill="#1b0003"/><rect x="20.27" y="81.08" width="5.07" height="5.07" fill="#ead0b9"/><rect x="20.27" y="76.02" width="5.07" height="5.07" fill="#f9f2d4"/><rect x="20.27" y="70.95" width="5.07" height="5.07" fill="#f9f2d4"/><rect x="20.27" y="65.88" width="5.07" height="5.07" fill="#f9f2d4"/><rect x="20.27" y="60.81" width="5.07" height="5.07" fill="#f9f2d4"/><rect x="20.27" y="55.74" width="5.07" height="5.07" fill="#f9f2d4"/><rect x="20.27" y="50.68" width="5.07" height="5.07" fill="#f9f2d4"/><rect x="20.27" y="45.61" width="5.07" height="5.07" fill="#f9f2d4"/><rect x="20.27" y="40.54" width="5.07" height="5.07" fill="#f9f2d4"/><rect x="20.27" y="35.47" width="5.07" height="5.07" fill="#f9f2d4"/><rect x="20.27" y="30.41" width="5.07" height="5.07" fill="#f7f3e4"/><rect x="20.27" y="25.34" width="5.07" height="5.07" fill="#f7f3e4"/><rect x="20.27" y="20.27" width="5.07" height="5.07" fill="#f9f2d4"/><rect x="20.27" y="15.2" width="5.07" height="5.07" fill="#f9f2d4"/><rect x="20.27" y="10.14" width="5.07" height="5.07" fill="#f9f2d4"/><rect x="20.27" y="5.07" width="5.07" height="5.07" fill="#1b0003"/><rect x="15.2" y="86.15" width="5.07" height="5.07" fill="#1b0003"/><rect x="15.2" y="81.08" width="5.07" height="5.07" fill="#ead0b9"/><rect x="15.2" y="76.02" width="5.07" height="5.07" fill="#f9f2d4"/><rect x="15.2" y="70.95" width="5.07" height="5.07" fill="#f9f2d4"/><rect x="15.2" y="65.88" width="5.07" height="5.07" fill="#f9f2d4"/><rect x="15.2" y="60.81" width="5.07" height="5.07" fill="#f9f2d4"/><rect x="15.2" y="55.74" width="5.07" height="5.07" fill="#f9f2d4"/><rect x="15.2" y="50.68" width="5.07" height="5.07" fill="#f9f2d4"/><rect x="15.2" y="45.61" width="5.07" height="5.07" fill="#f9f2d4"/><rect x="15.2" y="40.54" width="5.07" height="5.07" fill="#f9f2d4"/><rect x="15.2" y="35.47" width="5.07" height="5.07" fill="#f9f2d4"/><rect x="15.2" y="30.41" width="5.07" height="5.07" fill="#f9f2d4"/><rect x="15.2" y="25.34" width="5.07" height="5.07" fill="#f9f2d4"/><rect x="15.2" y="20.27" width="5.07" height="5.07" fill="#f9f2d4"/><rect x="15.2" y="15.2" width="5.07" height="5.07" fill="#f9f2d4"/><rect x="15.2" y="10.14" width="5.07" height="5.07" fill="#1b0003"/><rect x="10.14" y="81.08" width="5.07" height="5.07" fill="#1b0003"/><rect x="10.14" y="76.02" width="5.07" height="5.07" fill="#f9f2d4"/><rect x="10.14" y="70.95" width="5.07" height="5.07" fill="#f9f2d4"/><rect x="10.14" y="65.88" width="5.07" height="5.07" fill="#f9f2d4"/><rect x="10.14" y="60.81" width="5.07" height="5.07" fill="#f9f2d4"/><rect x="10.14" y="55.74" width="5.07" height="5.07" fill="#f9f2d4"/><rect x="10.14" y="50.68" width="5.07" height="5.07" fill="#f9f2d4"/><rect x="10.14" y="45.61" width="5.07" height="5.07" fill="#f9f2d4"/><rect x="10.14" y="40.54" width="5.07" height="5.07" fill="#f9f2d4"/><rect x="10.14" y="35.47" width="5.07" height="5.07" fill="#f9f2d4"/><rect x="10.14" y="30.41" width="5.07" height="5.07" fill="#f9f2d4"/><rect x="10.14" y="25.34" width="5.07" height="5.07" fill="#f9f2d4"/><rect x="10.14" y="20.27" width="5.07" height="5.07" fill="#1b0003"/><rect x="10.14" y="15.2" width="5.07" height="5.07" fill="#1b0003"/><rect x="5.07" y="76.02" width="5.07" height="5.07" fill="#1b0003"/><rect x="5.07" y="70.95" width="5.07" height="5.07" fill="#1b0003"/><rect x="5.07" y="65.88" width="5.07" height="5.07" fill="#f9f2d4"/><rect x="5.07" y="60.81" width="5.07" height="5.07" fill="#f9f2d4"/><rect x="5.07" y="55.74" width="5.07" height="5.07" fill="#f9f2d4"/><rect x="5.07" y="50.68" width="5.07" height="5.07" fill="#f9f2d4"/><rect x="5.07" y="45.61" width="5.07" height="5.07" fill="#f9f2d4"/><rect x="5.07" y="40.54" width="5.07" height="5.07" fill="#f9f2d4"/><rect x="5.07" y="35.47" width="5.07" height="5.07" fill="#f9f2d4"/><rect x="5.07" y="30.41" width="5.07" height="5.07" fill="#1b0003"/><rect x="5.07" y="25.34" width="5.07" height="5.07" fill="#1b0003"/><rect y="65.88" width="5.07" height="5.07" fill="#1b0003"/><rect y="60.81" width="5.07" height="5.07" fill="#1b0003"/><rect y="55.74" width="5.07" height="5.07" fill="#1b0003"/><rect y="50.68" width="5.07" height="5.07" fill="#1b0003"/><rect y="45.61" width="5.07" height="5.07" fill="#1b0003"/><rect y="40.54" width="5.07" height="5.07" fill="#1b0003"/><rect y="35.47" width="5.07" height="5.07" fill="#1b0003"/></g></g></g></svg>