<svg xmlns="http://www.w3.org/2000/svg" width="136.53" height="131.47" viewBox="0 0 136.53 131.47"><g id="Layer_2" data-name="Layer 2"><g id="items"><g id="Tombstone"><rect x="131.47" y="126.41" width="5.06" height="5.06" fill="#1b0003"/><rect x="131.47" y="121.36" width="5.06" height="5.06" fill="#1b0003"/><rect x="126.41" y="126.41" width="5.06" height="5.06" fill="#1b0003"/><rect x="126.41" y="121.36" width="5.06" height="5.06" fill="#6a87af"/><rect x="126.41" y="116.3" width="5.06" height="5.06" fill="#1b0003"/><rect x="121.36" y="126.41" width="5.06" height="5.06" fill="#1b0003"/><rect x="121.36" y="121.36" width="5.06" height="5.06" fill="#3c5a77"/><rect x="121.36" y="116.3" width="5.06" height="5.06" fill="#6a87af"/><rect x="121.36" y="111.24" width="5.06" height="5.06" fill="#1b0003"/><rect x="121.36" y="106.19" width="5.06" height="5.06" fill="#1b0003"/><rect x="116.3" y="126.41" width="5.06" height="5.06" fill="#1b0003"/><rect x="116.3" y="121.36" width="5.06" height="5.06" fill="#3c5a77"/><rect x="116.3" y="116.3" width="5.06" height="5.06" fill="#3c5a77"/><rect x="116.3" y="111.24" width="5.06" height="5.06" fill="#3c5a77"/><rect x="116.3" y="106.19" width="5.06" height="5.06" fill="#6a87af"/><rect x="116.3" y="101.13" width="5.06" height="5.06" fill="#1b0003"/><rect x="111.24" y="126.41" width="5.06" height="5.06" fill="#1b0003"/><rect x="111.24" y="121.36" width="5.06" height="5.06" fill="#486a93"/><rect x="111.24" y="116.3" width="5.06" height="5.06" fill="#486a93"/><rect x="111.24" y="111.24" width="5.06" height="5.06" fill="#3c5a77"/><rect x="111.24" y="106.19" width="5.06" height="5.06" fill="#3c5a77"/><rect x="111.24" y="101.13" width="5.06" height="5.06" fill="#1b0003"/><rect x="111.24" y="96.07" width="5.06" height="5.06" fill="#1b0003"/><rect x="111.24" y="91.02" width="5.06" height="5.06" fill="#1b0003"/><rect x="111.24" y="85.96" width="5.06" height="5.06" fill="#1b0003"/><rect x="111.24" y="80.9" width="5.06" height="5.06" fill="#1b0003"/><rect x="111.24" y="75.85" width="5.06" height="5.06" fill="#1b0003"/><rect x="111.24" y="70.79" width="5.06" height="5.06" fill="#1b0003"/><rect x="111.24" y="65.74" width="5.06" height="5.06" fill="#1b0003"/><rect x="111.24" y="60.68" width="5.06" height="5.06" fill="#1b0003"/><rect x="111.24" y="55.62" width="5.06" height="5.06" fill="#1b0003"/><rect x="111.24" y="50.57" width="5.06" height="5.06" fill="#1b0003"/><rect x="111.24" y="45.51" width="5.06" height="5.06" fill="#1b0003"/><rect x="111.24" y="40.45" width="5.06" height="5.06" fill="#1b0003"/><rect x="111.24" y="35.4" width="5.06" height="5.06" fill="#1b0003"/><rect x="111.24" y="30.34" width="5.06" height="5.06" fill="#1b0003"/><rect x="111.24" y="25.28" width="5.06" height="5.06" fill="#1b0003"/><rect x="106.19" y="126.41" width="5.06" height="5.06" fill="#1b0003"/><rect x="106.19" y="121.36" width="5.06" height="5.06" fill="#6a87af"/><rect x="106.19" y="116.3" width="5.06" height="5.06" fill="#3c5a77"/><rect x="106.19" y="111.24" width="5.06" height="5.06" fill="#486a93"/><rect x="106.19" y="106.19" width="5.06" height="5.06" fill="#486a93"/><rect x="106.19" y="101.13" width="5.06" height="5.06" fill="#1b0003"/><rect x="106.19" y="96.07" width="5.06" height="5.06" fill="#6a87af"/><rect x="106.19" y="91.02" width="5.06" height="5.06" fill="#6a87af"/><rect x="106.19" y="85.96" width="5.06" height="5.06" fill="#6a87af"/><rect x="106.19" y="80.9" width="5.06" height="5.06" fill="#6a87af"/><rect x="106.19" y="75.85" width="5.06" height="5.06" fill="#6a87af"/><rect x="106.19" y="70.79" width="5.06" height="5.06" fill="#6a87af"/><rect x="106.19" y="65.74" width="5.06" height="5.06" fill="#6a87af"/><rect x="106.19" y="60.68" width="5.06" height="5.06" fill="#6a87af"/><rect x="106.19" y="55.62" width="5.06" height="5.06" fill="#6a87af"/><rect x="106.19" y="50.57" width="5.06" height="5.06" fill="#6a87af"/><rect x="106.19" y="45.51" width="5.06" height="5.06" fill="#6a87af"/><rect x="106.19" y="40.45" width="5.06" height="5.06" fill="#6a87af"/><rect x="106.19" y="35.4" width="5.06" height="5.06" fill="#6a87af"/><rect x="106.19" y="30.34" width="5.06" height="5.06" fill="#6a87af"/><rect x="106.19" y="25.28" width="5.06" height="5.06" fill="#6a87af"/><rect x="106.19" y="20.23" width="5.06" height="5.06" fill="#1b0003"/><rect x="106.19" y="15.17" width="5.06" height="5.06" fill="#1b0003"/><rect x="101.13" y="126.41" width="5.06" height="5.06" fill="#1b0003"/><rect x="101.13" y="121.36" width="5.06" height="5.06" fill="#3c5a77"/><rect x="101.13" y="116.3" width="5.06" height="5.06" fill="#486a93"/><rect x="101.13" y="111.24" width="5.06" height="5.06" fill="#3c5a77"/><rect x="101.13" y="106.19" width="5.06" height="5.06" fill="#486a93"/><rect x="101.13" y="101.13" width="5.06" height="5.06" fill="#1b0003"/><rect x="101.13" y="96.07" width="5.06" height="5.06" fill="#486a93"/><rect x="101.13" y="91.02" width="5.06" height="5.06" fill="#486a93"/><rect x="101.13" y="85.96" width="5.06" height="5.06" fill="#486a93"/><rect x="101.13" y="80.9" width="5.06" height="5.06" fill="#486a93"/><rect x="101.13" y="75.85" width="5.06" height="5.06" fill="#486a93"/><rect x="101.13" y="70.79" width="5.06" height="5.06" fill="#486a93"/><rect x="101.13" y="65.74" width="5.06" height="5.06" fill="#486a93"/><rect x="101.13" y="60.68" width="5.06" height="5.06" fill="#486a93"/><rect x="101.13" y="55.62" width="5.06" height="5.06" fill="#486a93"/><rect x="101.13" y="50.57" width="5.06" height="5.06" fill="#486a93"/><rect x="101.13" y="45.51" width="5.06" height="5.06" fill="#486a93"/><rect x="101.13" y="40.45" width="5.06" height="5.06" fill="#486a93"/><rect x="101.13" y="35.4" width="5.06" height="5.06" fill="#486a93"/><rect x="101.13" y="30.34" width="5.06" height="5.06" fill="#486a93"/><rect x="101.13" y="25.28" width="5.06" height="5.06" fill="#486a93"/><rect x="101.13" y="20.23" width="5.06" height="5.06" fill="#3c5a77"/><rect x="101.13" y="15.17" width="5.06" height="5.06" fill="#3c5a77"/><rect x="101.13" y="10.11" width="5.06" height="5.06" fill="#1b0003"/><rect x="96.07" y="126.41" width="5.06" height="5.06" fill="#1b0003"/><rect x="96.07" y="121.36" width="5.06" height="5.06" fill="#6a87af"/><rect x="96.07" y="116.3" width="5.06" height="5.06" fill="#3c5a77"/><rect x="96.07" y="111.24" width="5.06" height="5.06" fill="#6a87af"/><rect x="96.07" y="106.19" width="5.06" height="5.06" fill="#3c5a77"/><rect x="96.07" y="101.13" width="5.06" height="5.06" fill="#1b0003"/><rect x="96.07" y="96.07" width="5.06" height="5.06" fill="#bedbed"/><rect x="96.07" y="91.02" width="5.06" height="5.06" fill="#bedbed"/><rect x="96.07" y="85.96" width="5.06" height="5.06" fill="#bedbed"/><rect x="96.07" y="80.9" width="5.06" height="5.06" fill="#bedbed"/><rect x="96.07" y="75.85" width="5.06" height="5.06" fill="#bedbed"/><rect x="96.07" y="70.79" width="5.06" height="5.06" fill="#bedbed"/><rect x="96.07" y="65.74" width="5.06" height="5.06" fill="#bedbed"/><rect x="96.07" y="60.68" width="5.06" height="5.06" fill="#bedbed"/><rect x="96.07" y="55.62" width="5.06" height="5.06" fill="#bedbed"/><rect x="96.07" y="50.57" width="5.06" height="5.06" fill="#bedbed"/><rect x="96.07" y="45.51" width="5.06" height="5.06" fill="#bedbed"/><rect x="96.07" y="40.45" width="5.06" height="5.06" fill="#bedbed"/><rect x="96.07" y="35.4" width="5.06" height="5.06" fill="#bedbed"/><rect x="96.07" y="30.34" width="5.06" height="5.06" fill="#bedbed"/><rect x="96.07" y="25.28" width="5.06" height="5.06" fill="#bedbed"/><rect x="96.07" y="20.23" width="5.06" height="5.06" fill="#bedbed"/><rect x="96.07" y="15.17" width="5.06" height="5.06" fill="#486a93"/><rect x="96.07" y="10.11" width="5.06" height="5.06" fill="#3c5a77"/><rect x="96.07" y="5.06" width="5.06" height="5.06" fill="#1b0003"/><rect x="91.02" y="126.41" width="5.06" height="5.06" fill="#1b0003"/><rect x="91.02" y="121.36" width="5.06" height="5.06" fill="#6a87af"/><rect x="91.02" y="116.3" width="5.06" height="5.06" fill="#486a93"/><rect x="91.02" y="111.24" width="5.06" height="5.06" fill="#3c5a77"/><rect x="91.02" y="106.19" width="5.06" height="5.06" fill="#6a87af"/><rect x="91.02" y="101.13" width="5.06" height="5.06" fill="#1b0003"/><rect x="91.02" y="96.07" width="5.06" height="5.06" fill="#bedbed"/><rect x="91.02" y="91.02" width="5.06" height="5.06" fill="#bedbed"/><rect x="91.02" y="85.96" width="5.06" height="5.06" fill="#bedbed"/><rect x="91.02" y="80.9" width="5.06" height="5.06" fill="#bedbed"/><rect x="91.02" y="75.85" width="5.06" height="5.06" fill="#bedbed"/><rect x="91.02" y="70.79" width="5.06" height="5.06" fill="#bedbed"/><rect x="91.02" y="65.74" width="5.06" height="5.06" fill="#bedbed"/><rect x="91.02" y="60.68" width="5.06" height="5.06" fill="#bedbed"/><rect x="91.02" y="55.62" width="5.06" height="5.06" fill="#bedbed"/><rect x="91.02" y="50.57" width="5.06" height="5.06" fill="#bedbed"/><rect x="91.02" y="45.51" width="5.06" height="5.06" fill="#bedbed"/><rect x="91.02" y="40.45" width="5.06" height="5.06" fill="#bedbed"/><rect x="91.02" y="35.4" width="5.06" height="5.06" fill="#bedbed"/><rect x="91.02" y="30.34" width="5.06" height="5.06" fill="#bedbed"/><rect x="91.02" y="25.28" width="5.06" height="5.06" fill="#bedbed"/><rect x="91.02" y="20.23" width="5.06" height="5.06" fill="#bedbed"/><rect x="91.02" y="15.17" width="5.06" height="5.06" fill="#bedbed"/><rect x="91.02" y="10.11" width="5.06" height="5.06" fill="#486a93"/><rect x="91.02" y="5.06" width="5.06" height="5.06" fill="#1b0003"/><rect x="85.96" y="126.41" width="5.06" height="5.06" fill="#1b0003"/><rect x="85.96" y="121.36" width="5.06" height="5.06" fill="#6a87af"/><rect x="85.96" y="116.3" width="5.06" height="5.06" fill="#486a93"/><rect x="85.96" y="111.24" width="5.06" height="5.06" fill="#6a87af"/><rect x="85.96" y="106.19" width="5.06" height="5.06" fill="#3c5a77"/><rect x="85.96" y="101.13" width="5.06" height="5.06" fill="#1b0003"/><rect x="85.96" y="96.07" width="5.06" height="5.06" fill="#486a93"/><rect x="85.96" y="91.02" width="5.06" height="5.06" fill="#486a93"/><rect x="85.96" y="85.96" width="5.06" height="5.06" fill="#6a87af"/><rect x="85.96" y="80.9" width="5.06" height="5.06" fill="#486a93"/><rect x="85.96" y="75.85" width="5.06" height="5.06" fill="#6a87af"/><rect x="85.96" y="70.79" width="5.06" height="5.06" fill="#6a87af"/><rect x="85.96" y="65.74" width="5.06" height="5.06" fill="#6a87af"/><rect x="85.96" y="60.68" width="5.06" height="5.06" fill="#6a87af"/><rect x="85.96" y="55.62" width="5.06" height="5.06" fill="#6a87af"/><rect x="85.96" y="50.57" width="5.06" height="5.06" fill="#6a87af"/><rect x="85.96" y="45.51" width="5.06" height="5.06" fill="#6a87af"/><rect x="85.96" y="40.45" width="5.06" height="5.06" fill="#6a87af"/><rect x="85.96" y="35.4" width="5.06" height="5.06" fill="#6a87af"/><rect x="85.96" y="30.34" width="5.06" height="5.06" fill="#6a87af"/><rect x="85.96" y="25.28" width="5.06" height="5.06" fill="#bedbed"/><rect x="85.96" y="20.23" width="5.06" height="5.06" fill="#bedbed"/><rect x="85.96" y="15.17" width="5.06" height="5.06" fill="#bedbed"/><rect x="85.96" y="10.11" width="5.06" height="5.06" fill="#bedbed"/><rect x="85.96" y="5.06" width="5.06" height="5.06" fill="#6a87af"/><rect x="85.96" width="5.06" height="5.06" fill="#1b0003"/><rect x="80.9" y="126.41" width="5.06" height="5.06" fill="#1b0003"/><rect x="80.9" y="121.36" width="5.06" height="5.06" fill="#6a87af"/><rect x="80.9" y="116.3" width="5.06" height="5.06" fill="#486a93"/><rect x="80.9" y="111.24" width="5.06" height="5.06" fill="#6a87af"/><rect x="80.9" y="106.19" width="5.06" height="5.06" fill="#6a87af"/><rect x="80.9" y="101.13" width="5.06" height="5.06" fill="#1b0003"/><rect x="80.9" y="96.07" width="5.06" height="5.06" fill="#486a93"/><rect x="80.9" y="91.02" width="5.06" height="5.06" fill="#6a87af"/><rect x="80.9" y="85.96" width="5.06" height="5.06" fill="#486a93"/><rect x="80.9" y="80.9" width="5.06" height="5.06" fill="#6a87af"/><rect x="80.9" y="75.85" width="5.06" height="5.06" fill="#6a87af"/><rect x="80.9" y="70.79" width="5.06" height="5.06" fill="#6a87af"/><rect x="80.9" y="65.74" width="5.06" height="5.06" fill="#6a87af"/><rect x="80.9" y="60.68" width="5.06" height="5.06" fill="#6a87af"/><rect x="80.9" y="55.62" width="5.06" height="5.06" fill="#6a87af"/><rect x="80.9" y="50.57" width="5.06" height="5.06" fill="#6a87af"/><rect x="80.9" y="45.51" width="5.06" height="5.06" fill="#6a87af"/><rect x="80.9" y="40.45" width="5.06" height="5.06" fill="#6a87af"/><rect x="80.9" y="35.4" width="5.06" height="5.06" fill="#6a87af"/><rect x="80.9" y="30.34" width="5.06" height="5.06" fill="#6a87af"/><rect x="80.9" y="25.28" width="5.06" height="5.06" fill="#6a87af"/><rect x="80.9" y="20.23" width="5.06" height="5.06" fill="#bedbed"/><rect x="80.9" y="15.17" width="5.06" height="5.06" fill="#bedbed"/><rect x="80.9" y="10.11" width="5.06" height="5.06" fill="#bedbed"/><rect x="80.9" y="5.06" width="5.06" height="5.06" fill="#6a87af"/><rect x="80.9" width="5.06" height="5.06" fill="#1b0003"/><rect x="75.85" y="126.41" width="5.06" height="5.06" fill="#1b0003"/><rect x="75.85" y="121.36" width="5.06" height="5.06" fill="#6a87af"/><rect x="75.85" y="116.3" width="5.06" height="5.06" fill="#486a93"/><rect x="75.85" y="111.24" width="5.06" height="5.06" fill="#6a87af"/><rect x="75.85" y="106.19" width="5.06" height="5.06" fill="#6a87af"/><rect x="75.85" y="101.13" width="5.06" height="5.06" fill="#1b0003"/><rect x="75.85" y="96.07" width="5.06" height="5.06" fill="#6a87af"/><rect x="75.85" y="91.02" width="5.06" height="5.06" fill="#486a93"/><rect x="75.85" y="85.96" width="5.06" height="5.06" fill="#6a87af"/><rect x="75.85" y="80.9" width="5.06" height="5.06" fill="#6a87af"/><rect x="75.85" y="75.85" width="5.06" height="5.06" fill="#6a87af"/><rect x="75.85" y="70.79" width="5.06" height="5.06" fill="#6a87af"/><rect x="75.85" y="65.74" width="5.06" height="5.06" fill="#6a87af"/><rect x="75.85" y="60.68" width="5.06" height="5.06" fill="#6a87af"/><rect x="75.85" y="55.62" width="5.06" height="5.06" fill="#6a87af"/><rect x="75.85" y="50.57" width="5.06" height="5.06" fill="#6a87af"/><rect x="75.85" y="45.51" width="5.06" height="5.06" fill="#6a87af"/><rect x="75.85" y="40.45" width="5.06" height="5.06" fill="#6a87af"/><rect x="75.85" y="35.4" width="5.06" height="5.06" fill="#6a87af"/><rect x="75.85" y="30.34" width="5.06" height="5.06" fill="#6a87af"/><rect x="75.85" y="25.28" width="5.06" height="5.06" fill="#6a87af"/><rect x="75.85" y="20.23" width="5.06" height="5.06" fill="#6a87af"/><rect x="75.85" y="15.17" width="5.06" height="5.06" fill="#bedbed"/><rect x="75.85" y="10.11" width="5.06" height="5.06" fill="#bedbed"/><rect x="75.85" y="5.06" width="5.06" height="5.06" fill="#bedbed"/><rect x="75.85" width="5.06" height="5.06" fill="#1b0003"/><rect x="70.79" y="126.41" width="5.06" height="5.06" fill="#1b0003"/><rect x="70.79" y="121.36" width="5.06" height="5.06" fill="#6a87af"/><rect x="70.79" y="116.3" width="5.06" height="5.06" fill="#486a93"/><rect x="70.79" y="111.24" width="5.06" height="5.06" fill="#6a87af"/><rect x="70.79" y="106.19" width="5.06" height="5.06" fill="#6a87af"/><rect x="70.79" y="101.13" width="5.06" height="5.06" fill="#1b0003"/><rect x="70.79" y="96.07" width="5.06" height="5.06" fill="#486a93"/><rect x="70.79" y="91.02" width="5.06" height="5.06" fill="#6a87af"/><rect x="70.79" y="85.96" width="5.06" height="5.06" fill="#6a87af"/><rect x="70.79" y="80.9" width="5.06" height="5.06" fill="#6a87af"/><rect x="70.79" y="75.85" width="5.06" height="5.06" fill="#6a87af"/><rect x="70.79" y="70.79" width="5.06" height="5.06" fill="#6a87af"/><rect x="70.79" y="65.74" width="5.06" height="5.06" fill="#6a87af"/><rect x="70.79" y="60.68" width="5.06" height="5.06" fill="#6a87af"/><rect x="70.79" y="55.62" width="5.06" height="5.06" fill="#6a87af"/><rect x="70.79" y="50.57" width="5.06" height="5.06" fill="#6a87af"/><rect x="70.79" y="45.51" width="5.06" height="5.06" fill="#6a87af"/><rect x="70.79" y="40.45" width="5.06" height="5.06" fill="#6a87af"/><rect x="70.79" y="35.4" width="5.06" height="5.06" fill="#6a87af"/><rect x="70.79" y="30.34" width="5.06" height="5.06" fill="#6a87af"/><rect x="70.79" y="25.28" width="5.06" height="5.06" fill="#6a87af"/><rect x="70.79" y="20.23" width="5.06" height="5.06" fill="#6a87af"/><rect x="70.79" y="15.17" width="5.06" height="5.06" fill="#6a87af"/><rect x="70.79" y="10.11" width="5.06" height="5.06" fill="#bedbed"/><rect x="70.79" y="5.06" width="5.06" height="5.06" fill="#bedbed"/><rect x="70.79" width="5.06" height="5.06" fill="#1b0003"/><rect x="65.73" y="126.41" width="5.06" height="5.06" fill="#1b0003"/><rect x="65.73" y="121.36" width="5.06" height="5.06" fill="#6a87af"/><rect x="65.73" y="116.3" width="5.06" height="5.06" fill="#6a87af"/><rect x="65.73" y="111.24" width="5.06" height="5.06" fill="#6a87af"/><rect x="65.73" y="106.19" width="5.06" height="5.06" fill="#6a87af"/><rect x="65.73" y="101.13" width="5.06" height="5.06" fill="#1b0003"/><rect x="65.73" y="96.07" width="5.06" height="5.06" fill="#6a87af"/><rect x="65.73" y="91.02" width="5.06" height="5.06" fill="#6a87af"/><rect x="65.73" y="85.96" width="5.06" height="5.06" fill="#6a87af"/><rect x="65.73" y="80.9" width="5.06" height="5.06" fill="#6a87af"/><rect x="65.73" y="75.85" width="5.06" height="5.06" fill="#6a87af"/><rect x="65.73" y="70.79" width="5.06" height="5.06" fill="#6a87af"/><rect x="65.73" y="65.74" width="5.06" height="5.06" fill="#6a87af"/><rect x="65.73" y="60.68" width="5.06" height="5.06" fill="#6a87af"/><rect x="65.73" y="55.62" width="5.06" height="5.06" fill="#6a87af"/><rect x="65.73" y="50.57" width="5.06" height="5.06" fill="#486a93"/><rect x="65.73" y="45.51" width="5.06" height="5.06" fill="#6a87af"/><rect x="65.73" y="40.45" width="5.06" height="5.06" fill="#486a93"/><rect x="65.73" y="35.4" width="5.06" height="5.06" fill="#486a93"/><rect x="65.73" y="30.34" width="5.06" height="5.06" fill="#6a87af"/><rect x="65.73" y="25.28" width="5.06" height="5.06" fill="#6a87af"/><rect x="65.73" y="20.23" width="5.06" height="5.06" fill="#6a87af"/><rect x="65.73" y="15.17" width="5.06" height="5.06" fill="#6a87af"/><rect x="65.73" y="10.11" width="5.06" height="5.06" fill="#bedbed"/><rect x="65.73" y="5.06" width="5.06" height="5.06" fill="#bedbed"/><rect x="65.73" width="5.06" height="5.06" fill="#1b0003"/><rect x="60.68" y="126.41" width="5.06" height="5.06" fill="#1b0003"/><rect x="60.68" y="121.36" width="5.06" height="5.06" fill="#6a87af"/><rect x="60.68" y="116.3" width="5.06" height="5.06" fill="#6a87af"/><rect x="60.68" y="111.24" width="5.06" height="5.06" fill="#6a87af"/><rect x="60.68" y="106.19" width="5.06" height="5.06" fill="#6a87af"/><rect x="60.68" y="101.13" width="5.06" height="5.06" fill="#1b0003"/><rect x="60.68" y="96.07" width="5.06" height="5.06" fill="#6a87af"/><rect x="60.68" y="91.02" width="5.06" height="5.06" fill="#6a87af"/><rect x="60.68" y="85.96" width="5.06" height="5.06" fill="#6a87af"/><rect x="60.68" y="80.9" width="5.06" height="5.06" fill="#6a87af"/><rect x="60.68" y="75.85" width="5.06" height="5.06" fill="#6a87af"/><rect x="60.68" y="70.79" width="5.06" height="5.06" fill="#6a87af"/><rect x="60.68" y="65.74" width="5.06" height="5.06" fill="#6a87af"/><rect x="60.68" y="60.68" width="5.06" height="5.06" fill="#6a87af"/><rect x="60.68" y="55.62" width="5.06" height="5.06" fill="#6a87af"/><rect x="60.68" y="50.57" width="5.06" height="5.06" fill="#bedbed"/><rect x="60.68" y="45.51" width="5.06" height="5.06" fill="#6a87af"/><rect x="60.68" y="40.45" width="5.06" height="5.06" fill="#bedbed"/><rect x="60.68" y="35.4" width="5.06" height="5.06" fill="#bedbed"/><rect x="60.68" y="30.34" width="5.06" height="5.06" fill="#6a87af"/><rect x="60.68" y="25.28" width="5.06" height="5.06" fill="#6a87af"/><rect x="60.68" y="20.23" width="5.06" height="5.06" fill="#6a87af"/><rect x="60.68" y="15.17" width="5.06" height="5.06" fill="#6a87af"/><rect x="60.68" y="10.11" width="5.06" height="5.06" fill="#bedbed"/><rect x="60.68" y="5.06" width="5.06" height="5.06" fill="#bedbed"/><rect x="60.68" width="5.06" height="5.06" fill="#1b0003"/><rect x="55.62" y="126.41" width="5.06" height="5.06" fill="#1b0003"/><rect x="55.62" y="121.36" width="5.06" height="5.06" fill="#6a87af"/><rect x="55.62" y="116.3" width="5.06" height="5.06" fill="#6a87af"/><rect x="55.62" y="111.24" width="5.06" height="5.06" fill="#6a87af"/><rect x="55.62" y="106.19" width="5.06" height="5.06" fill="#6a87af"/><rect x="55.62" y="101.13" width="5.06" height="5.06" fill="#1b0003"/><rect x="55.62" y="96.07" width="5.06" height="5.06" fill="#6a87af"/><rect x="55.62" y="91.02" width="5.06" height="5.06" fill="#6a87af"/><rect x="55.62" y="85.96" width="5.06" height="5.06" fill="#6a87af"/><rect x="55.62" y="80.9" width="5.06" height="5.06" fill="#6a87af"/><rect x="55.62" y="75.85" width="5.06" height="5.06" fill="#6a87af"/><rect x="55.62" y="70.79" width="5.06" height="5.06" fill="#6a87af"/><rect x="55.62" y="65.74" width="5.06" height="5.06" fill="#6a87af"/><rect x="55.62" y="60.68" width="5.06" height="5.06" fill="#6a87af"/><rect x="55.62" y="55.62" width="5.06" height="5.06" fill="#6a87af"/><rect x="55.62" y="50.57" width="5.06" height="5.06" fill="#bedbed"/><rect x="55.62" y="45.51" width="5.06" height="5.06" fill="#6a87af"/><rect x="55.62" y="40.45" width="5.06" height="5.06" fill="#bedbed"/><rect x="55.62" y="35.4" width="5.06" height="5.06" fill="#bedbed"/><rect x="55.62" y="30.34" width="5.06" height="5.06" fill="#6a87af"/><rect x="55.62" y="25.28" width="5.06" height="5.06" fill="#6a87af"/><rect x="55.62" y="20.23" width="5.06" height="5.06" fill="#6a87af"/><rect x="55.62" y="15.17" width="5.06" height="5.06" fill="#6a87af"/><rect x="55.62" y="10.11" width="5.06" height="5.06" fill="#bedbed"/><rect x="55.62" y="5.06" width="5.06" height="5.06" fill="#bedbed"/><rect x="55.62" width="5.06" height="5.06" fill="#1b0003"/><rect x="50.56" y="126.41" width="5.06" height="5.06" fill="#1b0003"/><rect x="50.56" y="121.36" width="5.06" height="5.06" fill="#6a87af"/><rect x="50.56" y="116.3" width="5.06" height="5.06" fill="#6a87af"/><rect x="50.56" y="111.24" width="5.06" height="5.06" fill="#6a87af"/><rect x="50.56" y="106.19" width="5.06" height="5.06" fill="#6a87af"/><rect x="50.56" y="101.13" width="5.06" height="5.06" fill="#1b0003"/><rect x="50.56" y="96.07" width="5.06" height="5.06" fill="#6a87af"/><rect x="50.56" y="91.02" width="5.06" height="5.06" fill="#6a87af"/><rect x="50.56" y="85.96" width="5.06" height="5.06" fill="#6a87af"/><rect x="50.56" y="80.9" width="5.06" height="5.06" fill="#6a87af"/><rect x="50.56" y="75.85" width="5.06" height="5.06" fill="#6a87af"/><rect x="50.56" y="70.79" width="5.06" height="5.06" fill="#6a87af"/><rect x="50.56" y="65.74" width="5.06" height="5.06" fill="#6a87af"/><rect x="50.56" y="60.68" width="5.06" height="5.06" fill="#6a87af"/><rect x="50.56" y="55.62" width="5.06" height="5.06" fill="#6a87af"/><rect x="50.56" y="50.57" width="5.06" height="5.06" fill="#bedbed"/><rect x="50.56" y="45.51" width="5.06" height="5.06" fill="#6a87af"/><rect x="50.56" y="40.45" width="5.06" height="5.06" fill="#bedbed"/><rect x="50.56" y="35.4" width="5.06" height="5.06" fill="#bedbed"/><rect x="50.56" y="30.34" width="5.06" height="5.06" fill="#6a87af"/><rect x="50.56" y="25.28" width="5.06" height="5.06" fill="#6a87af"/><rect x="50.56" y="20.23" width="5.06" height="5.06" fill="#6a87af"/><rect x="50.56" y="15.17" width="5.06" height="5.06" fill="#6a87af"/><rect x="50.56" y="10.11" width="5.06" height="5.06" fill="#bedbed"/><rect x="50.56" y="5.06" width="5.06" height="5.06" fill="#bedbed"/><rect x="50.56" width="5.06" height="5.06" fill="#1b0003"/><rect x="45.51" y="126.41" width="5.06" height="5.06" fill="#1b0003"/><rect x="45.51" y="121.36" width="5.06" height="5.06" fill="#6a87af"/><rect x="45.51" y="116.3" width="5.06" height="5.06" fill="#6a87af"/><rect x="45.51" y="111.24" width="5.06" height="5.06" fill="#6a87af"/><rect x="45.51" y="106.19" width="5.06" height="5.06" fill="#6a87af"/><rect x="45.51" y="101.13" width="5.06" height="5.06" fill="#1b0003"/><rect x="45.51" y="96.07" width="5.06" height="5.06" fill="#6a87af"/><rect x="45.51" y="91.02" width="5.06" height="5.06" fill="#6a87af"/><rect x="45.51" y="85.96" width="5.06" height="5.06" fill="#6a87af"/><rect x="45.51" y="80.9" width="5.06" height="5.06" fill="#6a87af"/><rect x="45.51" y="75.85" width="5.06" height="5.06" fill="#6a87af"/><rect x="45.51" y="70.79" width="5.06" height="5.06" fill="#6a87af"/><rect x="45.51" y="65.74" width="5.06" height="5.06" fill="#6a87af"/><rect x="45.51" y="60.68" width="5.06" height="5.06" fill="#6a87af"/><rect x="45.51" y="55.62" width="5.06" height="5.06" fill="#6a87af"/><rect x="45.51" y="50.57" width="5.06" height="5.06" fill="#bedbed"/><rect x="45.51" y="45.51" width="5.06" height="5.06" fill="#6a87af"/><rect x="45.51" y="40.45" width="5.06" height="5.06" fill="#bedbed"/><rect x="45.51" y="35.4" width="5.06" height="5.06" fill="#bedbed"/><rect x="45.51" y="30.34" width="5.06" height="5.06" fill="#6a87af"/><rect x="45.51" y="25.28" width="5.06" height="5.06" fill="#6a87af"/><rect x="45.51" y="20.23" width="5.06" height="5.06" fill="#6a87af"/><rect x="45.51" y="15.17" width="5.06" height="5.06" fill="#486a93"/><rect x="45.51" y="10.11" width="5.06" height="5.06" fill="#bedbed"/><rect x="45.51" y="5.06" width="5.06" height="5.06" fill="#bedbed"/><rect x="45.51" width="5.06" height="5.06" fill="#1b0003"/><rect x="40.45" y="126.41" width="5.06" height="5.06" fill="#1b0003"/><rect x="40.45" y="121.36" width="5.06" height="5.06" fill="#6a87af"/><rect x="40.45" y="116.3" width="5.06" height="5.06" fill="#6a87af"/><rect x="40.45" y="111.24" width="5.06" height="5.06" fill="#6a87af"/><rect x="40.45" y="106.19" width="5.06" height="5.06" fill="#6a87af"/><rect x="40.45" y="101.13" width="5.06" height="5.06" fill="#1b0003"/><rect x="40.45" y="96.07" width="5.06" height="5.06" fill="#6a87af"/><rect x="40.45" y="91.02" width="5.06" height="5.06" fill="#6a87af"/><rect x="40.45" y="85.96" width="5.06" height="5.06" fill="#6a87af"/><rect x="40.45" y="80.9" width="5.06" height="5.06" fill="#6a87af"/><rect x="40.45" y="75.85" width="5.06" height="5.06" fill="#6a87af"/><rect x="40.45" y="70.79" width="5.06" height="5.06" fill="#6a87af"/><rect x="40.45" y="65.74" width="5.06" height="5.06" fill="#6a87af"/><rect x="40.45" y="60.68" width="5.06" height="5.06" fill="#6a87af"/><rect x="40.45" y="55.62" width="5.06" height="5.06" fill="#6a87af"/><rect x="40.45" y="50.57" width="5.06" height="5.06" fill="#6a87af"/><rect x="40.45" y="45.51" width="5.06" height="5.06" fill="#6a87af"/><rect x="40.45" y="40.45" width="5.06" height="5.06" fill="#6a87af"/><rect x="40.45" y="35.4" width="5.06" height="5.06" fill="#6a87af"/><rect x="40.45" y="30.34" width="5.06" height="5.06" fill="#6a87af"/><rect x="40.45" y="25.28" width="5.06" height="5.06" fill="#6a87af"/><rect x="40.45" y="20.23" width="5.06" height="5.06" fill="#3c5a77"/><rect x="40.45" y="15.17" width="5.06" height="5.06" fill="#bedbed"/><rect x="40.45" y="10.11" width="5.06" height="5.06" fill="#bedbed"/><rect x="40.45" y="5.06" width="5.06" height="5.06" fill="#1b0003"/><rect x="35.4" y="126.41" width="5.06" height="5.06" fill="#1b0003"/><rect x="35.4" y="121.36" width="5.06" height="5.06" fill="#6a87af"/><rect x="35.4" y="116.3" width="5.06" height="5.06" fill="#6a87af"/><rect x="35.4" y="111.24" width="5.06" height="5.06" fill="#6a87af"/><rect x="35.4" y="106.19" width="5.06" height="5.06" fill="#6a87af"/><rect x="35.4" y="101.13" width="5.06" height="5.06" fill="#1b0003"/><rect x="35.4" y="96.07" width="5.06" height="5.06" fill="#6a87af"/><rect x="35.4" y="91.02" width="5.06" height="5.06" fill="#6a87af"/><rect x="35.4" y="85.96" width="5.06" height="5.06" fill="#6a87af"/><rect x="35.4" y="80.9" width="5.06" height="5.06" fill="#6a87af"/><rect x="35.4" y="75.85" width="5.06" height="5.06" fill="#6a87af"/><rect x="35.4" y="70.79" width="5.06" height="5.06" fill="#6a87af"/><rect x="35.4" y="65.74" width="5.06" height="5.06" fill="#6a87af"/><rect x="35.4" y="60.68" width="5.06" height="5.06" fill="#6a87af"/><rect x="35.4" y="55.62" width="5.06" height="5.06" fill="#6a87af"/><rect x="35.4" y="50.57" width="5.06" height="5.06" fill="#6a87af"/><rect x="35.4" y="45.51" width="5.06" height="5.06" fill="#6a87af"/><rect x="35.4" y="40.45" width="5.06" height="5.06" fill="#6a87af"/><rect x="35.4" y="35.4" width="5.06" height="5.06" fill="#6a87af"/><rect x="35.4" y="30.34" width="5.06" height="5.06" fill="#6a87af"/><rect x="35.4" y="25.28" width="5.06" height="5.06" fill="#3c5a77"/><rect x="35.4" y="20.23" width="5.06" height="5.06" fill="#bedbed"/><rect x="35.4" y="15.17" width="5.06" height="5.06" fill="#bedbed"/><rect x="35.4" y="10.11" width="5.06" height="5.06" fill="#bedbed"/><rect x="35.4" y="5.06" width="5.06" height="5.06" fill="#1b0003"/><rect x="30.34" y="126.41" width="5.06" height="5.06" fill="#1b0003"/><rect x="30.34" y="121.36" width="5.06" height="5.06" fill="#6a87af"/><rect x="30.34" y="116.3" width="5.06" height="5.06" fill="#6a87af"/><rect x="30.34" y="111.24" width="5.06" height="5.06" fill="#6a87af"/><rect x="30.34" y="106.19" width="5.06" height="5.06" fill="#6a87af"/><rect x="30.34" y="101.13" width="5.06" height="5.06" fill="#1b0003"/><rect x="30.34" y="96.07" width="5.06" height="5.06" fill="#3c5a77"/><rect x="30.34" y="91.02" width="5.06" height="5.06" fill="#3c5a77"/><rect x="30.34" y="85.96" width="5.06" height="5.06" fill="#3c5a77"/><rect x="30.34" y="80.9" width="5.06" height="5.06" fill="#486a93"/><rect x="30.34" y="75.85" width="5.06" height="5.06" fill="#486a93"/><rect x="30.34" y="70.79" width="5.06" height="5.06" fill="#486a93"/><rect x="30.34" y="65.74" width="5.06" height="5.06" fill="#486a93"/><rect x="30.34" y="60.68" width="5.06" height="5.06" fill="#486a93"/><rect x="30.34" y="55.62" width="5.06" height="5.06" fill="#486a93"/><rect x="30.34" y="50.57" width="5.06" height="5.06" fill="#486a93"/><rect x="30.34" y="45.51" width="5.06" height="5.06" fill="#486a93"/><rect x="30.34" y="40.45" width="5.06" height="5.06" fill="#486a93"/><rect x="30.34" y="35.4" width="5.06" height="5.06" fill="#486a93"/><rect x="30.34" y="30.34" width="5.06" height="5.06" fill="#486a93"/><rect x="30.34" y="25.28" width="5.06" height="5.06" fill="#bedbed"/><rect x="30.34" y="20.23" width="5.06" height="5.06" fill="#bedbed"/><rect x="30.34" y="15.17" width="5.06" height="5.06" fill="#bedbed"/><rect x="30.34" y="10.11" width="5.06" height="5.06" fill="#1b0003"/><rect x="25.28" y="126.41" width="5.06" height="5.06" fill="#1b0003"/><rect x="25.28" y="121.36" width="5.06" height="5.06" fill="#6a87af"/><rect x="25.28" y="116.3" width="5.06" height="5.06" fill="#6a87af"/><rect x="25.28" y="111.24" width="5.06" height="5.06" fill="#6a87af"/><rect x="25.28" y="106.19" width="5.06" height="5.06" fill="#6a87af"/><rect x="25.28" y="101.13" width="5.06" height="5.06" fill="#1b0003"/><rect x="25.28" y="96.07" width="5.06" height="5.06" fill="#bedbed"/><rect x="25.28" y="91.02" width="5.06" height="5.06" fill="#bedbed"/><rect x="25.28" y="85.96" width="5.06" height="5.06" fill="#bedbed"/><rect x="25.28" y="80.9" width="5.06" height="5.06" fill="#bedbed"/><rect x="25.28" y="75.85" width="5.06" height="5.06" fill="#bedbed"/><rect x="25.28" y="70.79" width="5.06" height="5.06" fill="#bedbed"/><rect x="25.28" y="65.74" width="5.06" height="5.06" fill="#bedbed"/><rect x="25.28" y="60.68" width="5.06" height="5.06" fill="#bedbed"/><rect x="25.28" y="55.62" width="5.06" height="5.06" fill="#bedbed"/><rect x="25.28" y="50.57" width="5.06" height="5.06" fill="#bedbed"/><rect x="25.28" y="45.51" width="5.06" height="5.06" fill="#bedbed"/><rect x="25.28" y="40.45" width="5.06" height="5.06" fill="#bedbed"/><rect x="25.28" y="35.4" width="5.06" height="5.06" fill="#bedbed"/><rect x="25.28" y="30.34" width="5.06" height="5.06" fill="#bedbed"/><rect x="25.28" y="25.28" width="5.06" height="5.06" fill="#bedbed"/><rect x="25.28" y="20.23" width="5.06" height="5.06" fill="#1b0003"/><rect x="25.28" y="15.17" width="5.06" height="5.06" fill="#1b0003"/><rect x="20.23" y="126.41" width="5.06" height="5.06" fill="#1b0003"/><rect x="20.23" y="121.36" width="5.06" height="5.06" fill="#6a87af"/><rect x="20.23" y="116.3" width="5.06" height="5.06" fill="#3c5a77"/><rect x="20.23" y="111.24" width="5.06" height="5.06" fill="#3c5a77"/><rect x="20.23" y="106.19" width="5.06" height="5.06" fill="#3c5a77"/><rect x="20.23" y="101.13" width="5.06" height="5.06" fill="#1b0003"/><rect x="20.23" y="96.07" width="5.06" height="5.06" fill="#1b0003"/><rect x="20.23" y="91.02" width="5.06" height="5.06" fill="#1b0003"/><rect x="20.23" y="85.96" width="5.06" height="5.06" fill="#1b0003"/><rect x="20.23" y="80.9" width="5.06" height="5.06" fill="#1b0003"/><rect x="20.23" y="75.85" width="5.06" height="5.06" fill="#1b0003"/><rect x="20.23" y="70.79" width="5.06" height="5.06" fill="#1b0003"/><rect x="20.23" y="65.74" width="5.06" height="5.06" fill="#1b0003"/><rect x="20.23" y="60.68" width="5.06" height="5.06" fill="#1b0003"/><rect x="20.23" y="55.62" width="5.06" height="5.06" fill="#1b0003"/><rect x="20.23" y="50.57" width="5.06" height="5.06" fill="#1b0003"/><rect x="20.23" y="45.51" width="5.06" height="5.06" fill="#1b0003"/><rect x="20.23" y="40.45" width="5.06" height="5.06" fill="#1b0003"/><rect x="20.23" y="35.4" width="5.06" height="5.06" fill="#1b0003"/><rect x="20.23" y="30.34" width="5.06" height="5.06" fill="#1b0003"/><rect x="20.23" y="25.28" width="5.06" height="5.06" fill="#1b0003"/><rect x="15.17" y="126.41" width="5.06" height="5.06" fill="#1b0003"/><rect x="15.17" y="121.36" width="5.06" height="5.06" fill="#3c5a77"/><rect x="15.17" y="116.3" width="5.06" height="5.06" fill="#bedbed"/><rect x="15.17" y="111.24" width="5.06" height="5.06" fill="#bedbed"/><rect x="15.17" y="106.19" width="5.06" height="5.06" fill="#bedbed"/><rect x="15.17" y="101.13" width="5.06" height="5.06" fill="#1b0003"/><rect x="10.11" y="126.41" width="5.06" height="5.06" fill="#1b0003"/><rect x="10.11" y="121.36" width="5.06" height="5.06" fill="#bedbed"/><rect x="10.11" y="116.3" width="5.06" height="5.06" fill="#bedbed"/><rect x="10.11" y="111.24" width="5.06" height="5.06" fill="#1b0003"/><rect x="10.11" y="106.19" width="5.06" height="5.06" fill="#1b0003"/><rect x="5.06" y="126.41" width="5.06" height="5.06" fill="#1b0003"/><rect x="5.06" y="121.36" width="5.06" height="5.06" fill="#bedbed"/><rect x="5.06" y="116.3" width="5.06" height="5.06" fill="#1b0003"/><rect y="126.41" width="5.06" height="5.06" fill="#1b0003"/><rect y="121.36" width="5.06" height="5.06" fill="#1b0003"/></g></g></g></svg>