<svg xmlns="http://www.w3.org/2000/svg" width="146.28" height="146.28" viewBox="0 0 146.28 146.28"><g id="Layer_2" data-name="Layer 2"><g id="items"><g id="Wand"><rect x="141.41" y="48.76" width="4.88" height="4.88" fill="#1b0003"/><rect x="141.41" y="43.88" width="4.88" height="4.88" fill="#1b0003"/><rect x="141.41" y="39.01" width="4.88" height="4.88" fill="#1b0003"/><rect x="141.41" y="34.13" width="4.88" height="4.88" fill="#1b0003"/><rect x="141.41" y="29.26" width="4.88" height="4.88" fill="#1b0003"/><rect x="141.41" y="24.38" width="4.88" height="4.88" fill="#1b0003"/><rect x="136.53" y="58.51" width="4.88" height="4.88" fill="#1b0003"/><rect x="136.53" y="53.64" width="4.88" height="4.88" fill="#1b0003"/><rect x="136.53" y="48.76" width="4.88" height="4.88" fill="#08e2ee"/><rect x="136.53" y="43.88" width="4.88" height="4.88" fill="#06def5"/><rect x="136.53" y="39.01" width="4.88" height="4.88" fill="#06def5"/><rect x="136.53" y="34.13" width="4.88" height="4.88" fill="#06def5"/><rect x="136.53" y="29.26" width="4.88" height="4.88" fill="#46abf7"/><rect x="136.53" y="24.38" width="4.88" height="4.88" fill="#46abf7"/><rect x="136.53" y="19.5" width="4.88" height="4.88" fill="#1b0003"/><rect x="136.53" y="14.63" width="4.88" height="4.88" fill="#1b0003"/><rect x="131.65" y="63.39" width="4.88" height="4.88" fill="#1b0003"/><rect x="131.65" y="58.51" width="4.88" height="4.88" fill="#06def5"/><rect x="131.65" y="53.64" width="4.88" height="4.88" fill="#06def5"/><rect x="131.65" y="48.76" width="4.88" height="4.88" fill="#46abf7"/><rect x="131.65" y="43.88" width="4.88" height="4.88" fill="#46abf7"/><rect x="131.65" y="39.01" width="4.88" height="4.88" fill="#46abf7"/><rect x="131.65" y="34.13" width="4.88" height="4.88" fill="#46abf7"/><rect x="131.65" y="29.26" width="4.88" height="4.88" fill="#457bf9"/><rect x="131.65" y="24.38" width="4.88" height="4.88" fill="#457bf9"/><rect x="131.65" y="19.5" width="4.88" height="4.88" fill="#457bf9"/><rect x="131.65" y="14.63" width="4.88" height="4.88" fill="#457bf9"/><rect x="131.65" y="9.75" width="4.88" height="4.88" fill="#1b0003"/><rect x="126.78" y="68.26" width="4.88" height="4.88" fill="#1b0003"/><rect x="126.78" y="63.39" width="4.88" height="4.88" fill="#06def5"/><rect x="126.78" y="58.51" width="4.88" height="4.88" fill="#06def5"/><rect x="126.78" y="53.64" width="4.88" height="4.88" fill="#46abf7"/><rect x="126.78" y="48.76" width="4.88" height="4.88" fill="#46abf7"/><rect x="126.78" y="43.88" width="4.88" height="4.88" fill="#457bf9"/><rect x="126.78" y="39.01" width="4.88" height="4.88" fill="#457bf9"/><rect x="126.78" y="34.13" width="4.88" height="4.88" fill="#457bf9"/><rect x="126.78" y="29.26" width="4.88" height="4.88" fill="#457bf9"/><rect x="126.78" y="24.38" width="4.88" height="4.88" fill="#457bf9"/><rect x="126.78" y="19.5" width="4.88" height="4.88" fill="#457bf9"/><rect x="126.78" y="14.63" width="4.88" height="4.88" fill="#457bf9"/><rect x="126.78" y="9.75" width="4.88" height="4.88" fill="#457bf9"/><rect x="126.78" y="4.88" width="4.88" height="4.88" fill="#1b0003"/><rect x="121.9" y="68.26" width="4.88" height="4.88" fill="#1b0003"/><rect x="121.9" y="63.39" width="4.88" height="4.88" fill="#06def5"/><rect x="121.9" y="58.51" width="4.88" height="4.88" fill="#46abf7"/><rect x="121.9" y="53.64" width="4.88" height="4.88" fill="#46abf7"/><rect x="121.9" y="48.76" width="4.88" height="4.88" fill="#457bf9"/><rect x="121.9" y="43.88" width="4.88" height="4.88" fill="#457bf9"/><rect x="121.9" y="39.01" width="4.88" height="4.88" fill="#457bf9"/><rect x="121.9" y="34.13" width="4.88" height="4.88" fill="#457bf9"/><rect x="121.9" y="29.26" width="4.88" height="4.88" fill="#457bf9"/><rect x="121.9" y="24.38" width="4.88" height="4.88" fill="#06def5"/><rect x="121.9" y="19.5" width="4.88" height="4.88" fill="#06def5"/><rect x="121.9" y="14.63" width="4.88" height="4.88" fill="#06def5"/><rect x="121.9" y="9.75" width="4.88" height="4.88" fill="#06def5"/><rect x="121.9" y="4.88" width="4.88" height="4.88" fill="#1b0003"/><rect x="117.03" y="73.14" width="4.88" height="4.88" fill="#1b0003"/><rect x="117.03" y="68.26" width="4.88" height="4.88" fill="#06def5"/><rect x="117.03" y="63.39" width="4.88" height="4.88" fill="#46abf7"/><rect x="117.03" y="58.51" width="4.88" height="4.88" fill="#46abf7"/><rect x="117.03" y="53.64" width="4.88" height="4.88" fill="#457bf9"/><rect x="117.03" y="48.76" width="4.88" height="4.88" fill="#457bf9"/><rect x="117.03" y="43.88" width="4.88" height="4.88" fill="#457bf9"/><rect x="117.03" y="39.01" width="4.88" height="4.88" fill="#457bf9"/><rect x="117.03" y="34.13" width="4.88" height="4.88" fill="#06def5"/><rect x="117.03" y="29.26" width="4.88" height="4.88" fill="#06def5"/><rect x="117.03" y="24.38" width="4.88" height="4.88" fill="#06def5"/><rect x="117.03" y="19.5" width="4.88" height="4.88" fill="#a4f8d7"/><rect x="117.03" y="14.63" width="4.88" height="4.88" fill="#06def5"/><rect x="117.03" y="9.75" width="4.88" height="4.88" fill="#06def5"/><rect x="117.03" y="4.88" width="4.88" height="4.88" fill="#06def5"/><rect x="117.03" width="4.88" height="4.88" fill="#1b0003"/><rect x="112.15" y="73.14" width="4.88" height="4.88" fill="#1b0003"/><rect x="112.15" y="68.26" width="4.88" height="4.88" fill="#06def5"/><rect x="112.15" y="63.39" width="4.88" height="4.88" fill="#46abf7"/><rect x="112.15" y="58.51" width="4.88" height="4.88" fill="#457bf9"/><rect x="112.15" y="53.64" width="4.88" height="4.88" fill="#457bf9"/><rect x="112.15" y="48.76" width="4.88" height="4.88" fill="#457bf9"/><rect x="112.15" y="43.88" width="4.88" height="4.88" fill="#457bf9"/><rect x="112.15" y="39.01" width="4.88" height="4.88" fill="#06def5"/><rect x="112.15" y="34.13" width="4.88" height="4.88" fill="#06def5"/><rect x="112.15" y="29.26" width="4.88" height="4.88" fill="#a4f8d7"/><rect x="112.15" y="24.38" width="4.88" height="4.88" fill="#a4f8d7"/><rect x="112.15" y="19.5" width="4.88" height="4.88" fill="#a4f8d7"/><rect x="112.15" y="14.63" width="4.88" height="4.88" fill="#a4f8d7"/><rect x="112.15" y="9.75" width="4.88" height="4.88" fill="#06def5"/><rect x="112.15" y="4.88" width="4.88" height="4.88" fill="#06def5"/><rect x="112.15" width="4.88" height="4.88" fill="#1b0003"/><rect x="107.27" y="87.77" width="4.88" height="4.88" fill="#1b0003"/><rect x="107.27" y="82.89" width="4.88" height="4.88" fill="#1b0003"/><rect x="107.27" y="73.14" width="4.88" height="4.88" fill="#1b0003"/><rect x="107.27" y="68.26" width="4.88" height="4.88" fill="#06def5"/><rect x="107.27" y="63.39" width="4.88" height="4.88" fill="#46abf7"/><rect x="107.27" y="58.51" width="4.88" height="4.88" fill="#457bf9"/><rect x="107.27" y="53.64" width="4.88" height="4.88" fill="#457bf9"/><rect x="107.27" y="48.76" width="4.88" height="4.88" fill="#457bf9"/><rect x="107.27" y="43.88" width="4.88" height="4.88" fill="#06def5"/><rect x="107.27" y="39.01" width="4.88" height="4.88" fill="#06def5"/><rect x="107.27" y="34.13" width="4.88" height="4.88" fill="#a4f8d7"/><rect x="107.27" y="29.26" width="4.88" height="4.88" fill="#a4f8d7"/><rect x="107.27" y="24.38" width="4.88" height="4.88" fill="#a4f8d7"/><rect x="107.27" y="19.5" width="4.88" height="4.88" fill="#a4f8d7"/><rect x="107.27" y="14.63" width="4.88" height="4.88" fill="#a4f8d7"/><rect x="107.27" y="9.75" width="4.88" height="4.88" fill="#91fee7"/><rect x="107.27" y="4.88" width="4.88" height="4.88" fill="#06def5"/><rect x="107.27" width="4.88" height="4.88" fill="#1b0003"/><rect x="102.4" y="87.77" width="4.88" height="4.88" fill="#1b0003"/><rect x="102.4" y="82.89" width="4.88" height="4.88" fill="#6a87af"/><rect x="102.4" y="78.02" width="4.88" height="4.88" fill="#1b0003"/><rect x="102.4" y="73.14" width="4.88" height="4.88" fill="#1b0003"/><rect x="102.4" y="68.26" width="4.88" height="4.88" fill="#06def5"/><rect x="102.4" y="63.39" width="4.88" height="4.88" fill="#46abf7"/><rect x="102.4" y="58.51" width="4.88" height="4.88" fill="#457bf9"/><rect x="102.4" y="53.64" width="4.88" height="4.88" fill="#457bf9"/><rect x="102.4" y="48.76" width="4.88" height="4.88" fill="#06def5"/><rect x="102.4" y="43.88" width="4.88" height="4.88" fill="#06def5"/><rect x="102.4" y="39.01" width="4.88" height="4.88" fill="#06def5"/><rect x="102.4" y="34.13" width="4.88" height="4.88" fill="#a4f8d7"/><rect x="102.4" y="29.26" width="4.88" height="4.88" fill="#a4f8d7"/><rect x="102.4" y="24.38" width="4.88" height="4.88" fill="#a4f8d7"/><rect x="102.4" y="19.5" width="4.88" height="4.88" fill="#f2fefe"/><rect x="102.4" y="14.63" width="4.88" height="4.88" fill="#f2fefe"/><rect x="102.4" y="9.75" width="4.88" height="4.88" fill="#91fee7"/><rect x="102.4" y="4.88" width="4.88" height="4.88" fill="#06def5"/><rect x="102.4" width="4.88" height="4.88" fill="#1b0003"/><rect x="97.52" y="87.77" width="4.88" height="4.88" fill="#1b0003"/><rect x="97.52" y="82.89" width="4.88" height="4.88" fill="#6a87af"/><rect x="97.52" y="78.02" width="4.88" height="4.88" fill="#6a87af"/><rect x="97.52" y="73.14" width="4.88" height="4.88" fill="#1b0003"/><rect x="97.52" y="68.26" width="4.88" height="4.88" fill="#46abf7"/><rect x="97.52" y="63.39" width="4.88" height="4.88" fill="#457bf9"/><rect x="97.52" y="58.51" width="4.88" height="4.88" fill="#457bf9"/><rect x="97.52" y="53.64" width="4.88" height="4.88" fill="#457bf9"/><rect x="97.52" y="48.76" width="4.88" height="4.88" fill="#06def5"/><rect x="97.52" y="43.88" width="4.88" height="4.88" fill="#06def5"/><rect x="97.52" y="39.01" width="4.88" height="4.88" fill="#06def5"/><rect x="97.52" y="34.13" width="4.88" height="4.88" fill="#a4f8d7"/><rect x="97.52" y="29.26" width="4.88" height="4.88" fill="#a4f8d7"/><rect x="97.52" y="24.38" width="4.88" height="4.88" fill="#f2fefe"/><rect x="97.52" y="19.5" width="4.88" height="4.88" fill="#f2fefe"/><rect x="97.52" y="14.63" width="4.88" height="4.88" fill="#f2fefe"/><rect x="97.52" y="9.75" width="4.88" height="4.88" fill="#91fee7"/><rect x="97.52" y="4.88" width="4.88" height="4.88" fill="#06def5"/><rect x="97.52" width="4.88" height="4.88" fill="#1b0003"/><rect x="92.65" y="87.77" width="4.88" height="4.88" fill="#1b0003"/><rect x="92.65" y="82.89" width="4.88" height="4.88" fill="#6a87af"/><rect x="92.65" y="78.02" width="4.88" height="4.88" fill="#6a87af"/><rect x="92.65" y="73.14" width="4.88" height="4.88" fill="#80a8c1"/><rect x="92.65" y="68.26" width="4.88" height="4.88" fill="#223c5b"/><rect x="92.65" y="63.39" width="4.88" height="4.88" fill="#457bf9"/><rect x="92.65" y="58.51" width="4.88" height="4.88" fill="#457bf9"/><rect x="92.65" y="53.64" width="4.88" height="4.88" fill="#457bf9"/><rect x="92.65" y="48.76" width="4.88" height="4.88" fill="#06def5"/><rect x="92.65" y="43.88" width="4.88" height="4.88" fill="#06def5"/><rect x="92.65" y="39.01" width="4.88" height="4.88" fill="#06def5"/><rect x="92.65" y="34.13" width="4.88" height="4.88" fill="#a4f8d7"/><rect x="92.65" y="29.26" width="4.88" height="4.88" fill="#a4f8d7"/><rect x="92.65" y="24.38" width="4.88" height="4.88" fill="#f2fefe"/><rect x="92.65" y="19.5" width="4.88" height="4.88" fill="#f2fefe"/><rect x="92.65" y="14.63" width="4.88" height="4.88" fill="#91fee7"/><rect x="92.65" y="9.75" width="4.88" height="4.88" fill="#91fee7"/><rect x="92.65" y="4.88" width="4.88" height="4.88" fill="#06def5"/><rect x="92.65" width="4.88" height="4.88" fill="#1b0003"/><rect x="87.77" y="82.89" width="4.88" height="4.88" fill="#1b0003"/><rect x="87.77" y="78.02" width="4.88" height="4.88" fill="#6a87af"/><rect x="87.77" y="73.14" width="4.88" height="4.88" fill="#80a8c1"/><rect x="87.77" y="68.26" width="4.88" height="4.88" fill="#80a8c1"/><rect x="87.77" y="63.39" width="4.88" height="4.88" fill="#223c5b"/><rect x="87.77" y="58.51" width="4.88" height="4.88" fill="#457bf9"/><rect x="87.77" y="53.64" width="4.88" height="4.88" fill="#457bf9"/><rect x="87.77" y="48.76" width="4.88" height="4.88" fill="#457bf9"/><rect x="87.77" y="43.88" width="4.88" height="4.88" fill="#06def5"/><rect x="87.77" y="39.01" width="4.88" height="4.88" fill="#06def5"/><rect x="87.77" y="34.13" width="4.88" height="4.88" fill="#a4f8d7"/><rect x="87.77" y="29.26" width="4.88" height="4.88" fill="#a4f8d7"/><rect x="87.77" y="24.38" width="4.88" height="4.88" fill="#a4f8d7"/><rect x="87.77" y="19.5" width="4.88" height="4.88" fill="#91fee7"/><rect x="87.77" y="14.63" width="4.88" height="4.88" fill="#91fee7"/><rect x="87.77" y="9.75" width="4.88" height="4.88" fill="#06def5"/><rect x="87.77" y="4.88" width="4.88" height="4.88" fill="#1b0003"/><rect x="82.89" y="78.02" width="4.88" height="4.88" fill="#1b0003"/><rect x="82.89" y="73.14" width="4.88" height="4.88" fill="#6a87af"/><rect x="82.89" y="68.26" width="4.88" height="4.88" fill="#80a8c1"/><rect x="82.89" y="63.39" width="4.88" height="4.88" fill="#97bcd6"/><rect x="82.89" y="58.51" width="4.88" height="4.88" fill="#223c5b"/><rect x="82.89" y="53.64" width="4.88" height="4.88" fill="#457bf9"/><rect x="82.89" y="48.76" width="4.88" height="4.88" fill="#457bf9"/><rect x="82.89" y="43.88" width="4.88" height="4.88" fill="#06def5"/><rect x="82.89" y="39.01" width="4.88" height="4.88" fill="#06def5"/><rect x="82.89" y="34.13" width="4.88" height="4.88" fill="#06def5"/><rect x="82.89" y="29.26" width="4.88" height="4.88" fill="#91fee7"/><rect x="82.89" y="24.38" width="4.88" height="4.88" fill="#91fee7"/><rect x="82.89" y="19.5" width="4.88" height="4.88" fill="#91fee7"/><rect x="82.89" y="14.63" width="4.88" height="4.88" fill="#06def5"/><rect x="82.89" y="9.75" width="4.88" height="4.88" fill="#06def5"/><rect x="82.89" y="4.88" width="4.88" height="4.88" fill="#1b0003"/><rect x="78.02" y="73.14" width="4.88" height="4.88" fill="#1b0003"/><rect x="78.02" y="68.26" width="4.88" height="4.88" fill="#80a8c1"/><rect x="78.02" y="63.39" width="4.88" height="4.88" fill="#97bcd6"/><rect x="78.02" y="58.51" width="4.88" height="4.88" fill="#97bcd6"/><rect x="78.02" y="53.64" width="4.88" height="4.88" fill="#223c5b"/><rect x="78.02" y="48.76" width="4.88" height="4.88" fill="#457bf9"/><rect x="78.02" y="43.88" width="4.88" height="4.88" fill="#457bf9"/><rect x="78.02" y="39.01" width="4.88" height="4.88" fill="#06def5"/><rect x="78.02" y="34.13" width="4.88" height="4.88" fill="#06def5"/><rect x="78.02" y="29.26" width="4.88" height="4.88" fill="#06def5"/><rect x="78.02" y="24.38" width="4.88" height="4.88" fill="#06def5"/><rect x="78.02" y="19.5" width="4.88" height="4.88" fill="#06def5"/><rect x="78.02" y="14.63" width="4.88" height="4.88" fill="#06def5"/><rect x="78.02" y="9.75" width="4.88" height="4.88" fill="#1b0003"/><rect x="73.14" y="78.02" width="4.88" height="4.88" fill="#1b0003"/><rect x="73.14" y="73.14" width="4.88" height="4.88" fill="#6a87af"/><rect x="73.14" y="68.26" width="4.88" height="4.88" fill="#223c5b"/><rect x="73.14" y="63.39" width="4.88" height="4.88" fill="#97bcd6"/><rect x="73.14" y="58.51" width="4.88" height="4.88" fill="#97bcd6"/><rect x="73.14" y="53.64" width="4.88" height="4.88" fill="#97bcd6"/><rect x="73.14" y="48.76" width="4.88" height="4.88" fill="#223c5b"/><rect x="73.14" y="43.88" width="4.88" height="4.88" fill="#457bf9"/><rect x="73.14" y="39.01" width="4.88" height="4.88" fill="#457bf9"/><rect x="73.14" y="34.13" width="4.88" height="4.88" fill="#06def5"/><rect x="73.14" y="29.26" width="4.88" height="4.88" fill="#06def5"/><rect x="73.14" y="24.38" width="4.88" height="4.88" fill="#06def5"/><rect x="73.14" y="19.5" width="4.88" height="4.88" fill="#1b0003"/><rect x="73.14" y="14.63" width="4.88" height="4.88" fill="#1b0003"/><rect x="68.27" y="82.89" width="4.88" height="4.88" fill="#1b0003"/><rect x="68.27" y="78.02" width="4.88" height="4.88" fill="#6a87af"/><rect x="68.27" y="73.14" width="4.88" height="4.88" fill="#6a87af"/><rect x="68.27" y="68.26" width="4.88" height="4.88" fill="#6a87af"/><rect x="68.27" y="63.39" width="4.88" height="4.88" fill="#1b0003"/><rect x="68.27" y="58.51" width="4.88" height="4.88" fill="#97bcd6"/><rect x="68.27" y="53.64" width="4.88" height="4.88" fill="#97bcd6"/><rect x="68.27" y="48.76" width="4.88" height="4.88" fill="#97bcd6"/><rect x="68.27" y="43.88" width="4.88" height="4.88" fill="#1b0003"/><rect x="68.27" y="39.01" width="4.88" height="4.88" fill="#1b0003"/><rect x="68.27" y="34.13" width="4.88" height="4.88" fill="#1b0003"/><rect x="68.27" y="29.26" width="4.88" height="4.88" fill="#1b0003"/><rect x="68.27" y="24.38" width="4.88" height="4.88" fill="#1b0003"/><rect x="63.39" y="87.77" width="4.88" height="4.88" fill="#1b0003"/><rect x="63.39" y="82.89" width="4.88" height="4.88" fill="#6a87af"/><rect x="63.39" y="78.02" width="4.88" height="4.88" fill="#80a8c1"/><rect x="63.39" y="73.14" width="4.88" height="4.88" fill="#80a8c1"/><rect x="63.39" y="68.26" width="4.88" height="4.88" fill="#1b0003"/><rect x="63.39" y="58.51" width="4.88" height="4.88" fill="#1b0003"/><rect x="63.39" y="53.64" width="4.88" height="4.88" fill="#97bcd6"/><rect x="63.39" y="48.76" width="4.88" height="4.88" fill="#97bcd6"/><rect x="63.39" y="43.88" width="4.88" height="4.88" fill="#97bcd6"/><rect x="63.39" y="39.01" width="4.88" height="4.88" fill="#1b0003"/><rect x="58.51" y="92.64" width="4.88" height="4.88" fill="#1b0003"/><rect x="58.51" y="87.77" width="4.88" height="4.88" fill="#6a87af"/><rect x="58.51" y="82.89" width="4.88" height="4.88" fill="#97bcd6"/><rect x="58.51" y="78.02" width="4.88" height="4.88" fill="#97bcd6"/><rect x="58.51" y="73.14" width="4.88" height="4.88" fill="#1b0003"/><rect x="58.51" y="53.64" width="4.88" height="4.88" fill="#1b0003"/><rect x="58.51" y="48.76" width="4.88" height="4.88" fill="#97bcd6"/><rect x="58.51" y="43.88" width="4.88" height="4.88" fill="#97bcd6"/><rect x="58.51" y="39.01" width="4.88" height="4.88" fill="#97bcd6"/><rect x="58.51" y="34.13" width="4.88" height="4.88" fill="#1b0003"/><rect x="53.64" y="97.52" width="4.88" height="4.88" fill="#1b0003"/><rect x="53.64" y="92.64" width="4.88" height="4.88" fill="#80a8c1"/><rect x="53.64" y="87.77" width="4.88" height="4.88" fill="#97bcd6"/><rect x="53.64" y="82.89" width="4.88" height="4.88" fill="#97bcd6"/><rect x="53.64" y="78.02" width="4.88" height="4.88" fill="#1b0003"/><rect x="53.64" y="48.76" width="4.88" height="4.88" fill="#1b0003"/><rect x="53.64" y="43.88" width="4.88" height="4.88" fill="#1b0003"/><rect x="53.64" y="39.01" width="4.88" height="4.88" fill="#1b0003"/><rect x="53.64" y="34.13" width="4.88" height="4.88" fill="#1b0003"/><rect x="48.76" y="102.4" width="4.88" height="4.88" fill="#1b0003"/><rect x="48.76" y="97.52" width="4.88" height="4.88" fill="#80a8c1"/><rect x="48.76" y="92.64" width="4.88" height="4.88" fill="#97bcd6"/><rect x="48.76" y="87.77" width="4.88" height="4.88" fill="#97bcd6"/><rect x="48.76" y="82.89" width="4.88" height="4.88" fill="#1b0003"/><rect x="43.88" y="107.27" width="4.88" height="4.88" fill="#1b0003"/><rect x="43.88" y="102.4" width="4.88" height="4.88" fill="#6a87af"/><rect x="43.88" y="97.52" width="4.88" height="4.88" fill="#97bcd6"/><rect x="43.88" y="92.64" width="4.88" height="4.88" fill="#97bcd6"/><rect x="43.88" y="87.77" width="4.88" height="4.88" fill="#1b0003"/><rect x="39.01" y="112.15" width="4.88" height="4.88" fill="#1b0003"/><rect x="39.01" y="107.27" width="4.88" height="4.88" fill="#6a87af"/><rect x="39.01" y="102.4" width="4.88" height="4.88" fill="#97bcd6"/><rect x="39.01" y="97.52" width="4.88" height="4.88" fill="#97bcd6"/><rect x="39.01" y="92.64" width="4.88" height="4.88" fill="#1b0003"/><rect x="34.13" y="136.53" width="4.88" height="4.88" fill="#1b0003"/><rect x="34.13" y="131.65" width="4.88" height="4.88" fill="#1b0003"/><rect x="34.13" y="117.03" width="4.88" height="4.88" fill="#1b0003"/><rect x="34.13" y="112.15" width="4.88" height="4.88" fill="#6a87af"/><rect x="34.13" y="107.27" width="4.88" height="4.88" fill="#97bcd6"/><rect x="34.13" y="102.4" width="4.88" height="4.88" fill="#97bcd6"/><rect x="34.13" y="97.52" width="4.88" height="4.88" fill="#1b0003"/><rect x="29.26" y="136.53" width="4.88" height="4.88" fill="#1b0003"/><rect x="29.26" y="131.65" width="4.88" height="4.88" fill="#6a87af"/><rect x="29.26" y="126.78" width="4.88" height="4.88" fill="#1b0003"/><rect x="29.26" y="121.9" width="4.88" height="4.88" fill="#1b0003"/><rect x="29.26" y="117.03" width="4.88" height="4.88" fill="#80a8c1"/><rect x="29.26" y="112.15" width="4.88" height="4.88" fill="#80a8c1"/><rect x="29.26" y="107.27" width="4.88" height="4.88" fill="#97bcd6"/><rect x="29.26" y="102.4" width="4.88" height="4.88" fill="#1b0003"/><rect x="24.38" y="136.53" width="4.88" height="4.88" fill="#1b0003"/><rect x="24.38" y="131.65" width="4.88" height="4.88" fill="#6a87af"/><rect x="24.38" y="126.78" width="4.88" height="4.88" fill="#6a87af"/><rect x="24.38" y="121.9" width="4.88" height="4.88" fill="#6a87af"/><rect x="24.38" y="117.03" width="4.88" height="4.88" fill="#223c5b"/><rect x="24.38" y="112.15" width="4.88" height="4.88" fill="#97bcd6"/><rect x="24.38" y="107.27" width="4.88" height="4.88" fill="#1b0003"/><rect x="19.5" y="136.53" width="4.88" height="4.88" fill="#1b0003"/><rect x="19.5" y="131.65" width="4.88" height="4.88" fill="#1b0003"/><rect x="19.5" y="126.78" width="4.88" height="4.88" fill="#97bcd6"/><rect x="19.5" y="121.9" width="4.88" height="4.88" fill="#97bcd6"/><rect x="19.5" y="117.03" width="4.88" height="4.88" fill="#6a87af"/><rect x="19.5" y="112.15" width="4.88" height="4.88" fill="#1b0003"/><rect x="14.63" y="141.41" width="4.88" height="4.88" fill="#1b0003"/><rect x="14.63" y="136.53" width="4.88" height="4.88" fill="#457bf9"/><rect x="14.63" y="131.65" width="4.88" height="4.88" fill="#457bf9"/><rect x="14.63" y="126.78" width="4.88" height="4.88" fill="#1b0003"/><rect x="14.63" y="121.9" width="4.88" height="4.88" fill="#97bcd6"/><rect x="14.63" y="117.03" width="4.88" height="4.88" fill="#97bcd6"/><rect x="14.63" y="112.15" width="4.88" height="4.88" fill="#1b0003"/><rect x="9.75" y="141.41" width="4.88" height="4.88" fill="#1b0003"/><rect x="9.75" y="136.53" width="4.88" height="4.88" fill="#457bf9"/><rect x="9.75" y="131.65" width="4.88" height="4.88" fill="#06def5"/><rect x="9.75" y="126.78" width="4.88" height="4.88" fill="#a4f8d7"/><rect x="9.75" y="121.9" width="4.88" height="4.88" fill="#1b0003"/><rect x="9.75" y="117.03" width="4.88" height="4.88" fill="#97bcd6"/><rect x="9.75" y="112.15" width="4.88" height="4.88" fill="#97bcd6"/><rect x="9.75" y="107.27" width="4.88" height="4.88" fill="#1b0003"/><rect x="4.88" y="136.53" width="4.88" height="4.88" fill="#1b0003"/><rect x="4.88" y="131.65" width="4.88" height="4.88" fill="#06def5"/><rect x="4.88" y="126.78" width="4.88" height="4.88" fill="#a4f8d7"/><rect x="4.88" y="121.9" width="4.88" height="4.88" fill="#1b0003"/><rect x="4.88" y="117.03" width="4.88" height="4.88" fill="#1b0003"/><rect x="4.88" y="112.15" width="4.88" height="4.88" fill="#1b0003"/><rect x="4.88" y="107.27" width="4.88" height="4.88" fill="#1b0003"/><rect y="131.65" width="4.88" height="4.88" fill="#1b0003"/><rect y="126.78" width="4.88" height="4.88" fill="#1b0003"/></g></g></g></svg>